<?xml version="1.0" encoding="utf-8"?>
<!-- Generator: Adobe Illustrator 24.1.0, SVG Export Plug-In . SVG Version: 6.00 Build 0)  -->
<svg version="1.1" id="Layer_1" xmlns="http://www.w3.org/2000/svg" xmlns:xlink="http://www.w3.org/1999/xlink" x="0px" y="0px"
	 viewBox="0 0 720 409.99" style="enable-background:new 0 0 720 409.99;" xml:space="preserve">
<style type="text/css">
	.st0{fill:#8AD4E1;}
	.st1{fill:#FE5000;}
	.st2{fill:#00C1D4;}
	.st3{fill:#BEE5ED;}
</style>
<g>
	<path class="st0" d="M497.33,221.96L497.33,221.96z M501.49,233.4L501.49,233.4z M509.05,272.22L509.05,272.22z M666.23,344.18
		c0-36.34-29.46-65.8-65.81-65.8c-2.53,0-5.01,0.17-7.47,0.45c0.25-3.43,0.41-6.88,0.41-10.37c0-70.39-50.61-128.75-116.88-139.67
		v55.83c7.7,10.33,16.12,26.42,14.39,23.07c38.39,15.44,65.59,53.41,65.59,97.9c0,2.6-0.12,5.17-0.3,7.72
		c1.83-0.21,3.68-0.34,5.56-0.34c27.05,0,48.98,21.93,48.98,48.98c0,23.76-16.93,43.56-39.38,48.03c0,0,26.72,0,29.11,0
		C636.77,409.99,666.23,380.53,666.23,344.18L666.23,344.18z"/>
	<path class="st1" d="M403.31,158.7c-18.92-9.12-39.25-13.75-60.41-13.75h-11.64c-21.17,0-41.49,4.63-60.41,13.75l-8.92,4.3v-9.9
		v-31.76c0-20.07,7.82-38.95,22.01-53.14c14.2-14.19,33.07-22.01,53.14-22.01c41.44,0,75.15,33.71,75.15,75.15v31.76v9.9
		L403.31,158.7L403.31,158.7z M310.33,288.1c-10.72-8.23-17.21-21.14-17.21-34.76c0-24.16,19.66-43.82,43.82-43.82
		c24.16,0,43.82,19.66,43.82,43.82c0,13.32-5.96,25.68-16.18,33.96c5.34,13.59,10.68,27.18,16.02,40.77l3.33,8.49h-9.12h-72.68
		h-8.76l2.9-8.27C300.95,314.9,305.64,301.5,310.33,288.1 M494.61,403.77V284.23c0-34.3-11.72-67.77-33.05-94.52v-69.77
		C461.56,53.81,407.76,0,341.62,0h-9.1c-66.14,0-119.94,53.81-119.94,119.94v69.77c-21.33,26.75-33.05,60.23-33.05,94.52v119.53
		v6.22h6.22h302.64h6.22V403.77L494.61,403.77z"/>
	<path class="st2" d="M197.66,184.63L197.66,184.63z M197.66,176.21v-27.12c-2.63-0.36-5.3-0.56-8.03-0.56
		c-30.78,0-56.01,23.61-58.64,53.7c-8.18-2.03-16.74-3.13-25.55-3.13C47.21,199.1,0,246.31,0,304.54
		c0,57.87,46.63,104.83,104.37,105.42v0.03h60.24v0h-18.58v-0.02c-51.29-0.52-92.71-42.23-92.71-93.64
		c0-51.73,41.94-93.66,93.67-93.66c7.83,0,15.43,0.98,22.69,2.78C154.48,202.66,178.02,175.15,197.66,176.21L197.66,176.21z"/>
	<path class="st0" d="M197.66,184.63c0,0,0-7.38,0-8.42c-19.64-1.06-43.18,26.45-27.98,49.23c-7.27-1.81-14.87-2.78-22.7-2.78
		c-51.73,0-93.66,41.94-93.66,93.66c0,51.41,41.42,93.13,92.71,93.64v0.02h18.58v-0.41c-32.05-6.28-56.25-34.47-56.25-68.36
		c0-34.05,24.43-62.36,56.71-68.46C167.3,240.97,178.6,210.2,197.66,184.63L197.66,184.63z"/>
	<path class="st3" d="M165.08,272.76c-32.28,6.1-56.71,34.41-56.71,68.46c0,33.89,24.2,62.07,56.25,68.36v-5.81V284.23
		C164.61,280.4,164.81,276.57,165.08,272.76L165.08,272.76z"/>
	<path class="st2" d="M720,335.91c0-40.91-33.17-74.08-74.08-74.08c-2.85,0-5.64,0.2-8.41,0.51c0.29-3.86,0.46-7.74,0.46-11.67
		c0-87.99-70.23-159.32-156.87-159.32c-2.57,0-5.12,0.07-7.65,0.2c1.97,9.16,3.03,18.65,3.03,28.4v8.85
		c66.27,10.92,116.88,69.28,116.88,139.67c0,3.49-0.15,6.94-0.41,10.37c2.45-0.28,4.94-0.45,7.47-0.45
		c36.34,0,65.81,29.46,65.81,65.8c0,36.33-29.45,65.79-65.78,65.8c0,0,42.79,0,45.47,0C686.83,409.99,720,376.82,720,335.91
		L720,335.91z M600.41,409.99L600.41,409.99z"/>
	<path class="st3" d="M610.7,361.96c0-27.05-21.93-48.98-48.98-48.98c-1.88,0-3.73,0.13-5.56,0.34c0.19-2.55,0.3-5.12,0.3-7.72
		c0-44.49-27.19-82.45-65.59-97.9c12.14,23.53,18.66,49.85,18.66,76.53v119.54v6.22v0h61.78
		C593.77,405.52,610.7,385.73,610.7,361.96L610.7,361.96z"/>
</g>
</svg>
