<?xml version="1.0" encoding="utf-8"?>
<!-- Generator: Adobe Illustrator 27.5.0, SVG Export Plug-In . SVG Version: 6.00 Build 0)  -->
<svg version="1.2" baseProfile="tiny" id="Layer_1" xmlns="http://www.w3.org/2000/svg" xmlns:xlink="http://www.w3.org/1999/xlink"
	 x="0px" y="0px" viewBox="0 0 864 152.8" overflow="visible" xml:space="preserve">
<g>
	<path fill="#00000A" d="M171.4,152.8h131.4v-41.9h-81.2V94.3h74.6V57.4h-74.6V41.9h80.1V0H171.4V152.8L171.4,152.8z M319.6,152.8
		h50.6V82.3l56.8,70.5h45.4V0h-50.6v67.4L367.4,0h-47.8V152.8L319.6,152.8z M493.4,152.8h51.1V0h-51.1V152.8L493.4,152.8z
		 M604.5,152.8h51.1V43.2h45V0h-141v43.2h45V152.8L604.5,152.8z M715.1,152.8h51.1V98h46.7v54.8H864V0h-51.1v53.9h-46.7V0h-51.1
		V152.8L715.1,152.8z"/>
	<polygon fill="#00000A" points="11.7,152.8 151.4,152.8 151.4,116.1 139.7,102.9 85.5,102.9 151.5,51.3 152.2,12.5 141.4,0.9 0,0 
		0.4,36.8 11.3,49.6 64.6,49.6 0.5,98.9 0.6,140.5 11.7,152.8 	"/>
</g>
</svg>
