<?xml version="1.0" encoding="utf-8"?>
<!-- Generator: Adobe Illustrator 25.0.0, SVG Export Plug-In . SVG Version: 6.00 Build 0)  -->
<svg version="1.1" id="Layer_1" xmlns="http://www.w3.org/2000/svg" xmlns:xlink="http://www.w3.org/1999/xlink" x="0px" y="0px"
	 viewBox="0 0 724.5 213.8" style="enable-background:new 0 0 724.5 213.8;" xml:space="preserve">
<g>
	<path d="M275.4,136.1c-2.2-1-4.1-2.4-5.7-4.1c-1.6-1.7-2.8-3.7-3.7-6c-0.9-2.3-1.3-4.7-1.3-7.3v-0.2c0-2.6,0.4-5,1.3-7.3
		c0.9-2.3,2.1-4.3,3.7-5.9c1.6-1.7,3.4-3,5.6-4c2.2-1,4.6-1.5,7.2-1.5s5,0.5,7.2,1.5c2.2,1,4.1,2.4,5.7,4.1c1.6,1.7,2.8,3.7,3.7,6
		c0.9,2.3,1.3,4.7,1.3,7.3v0.2c0,2.6-0.4,5-1.3,7.3c-0.9,2.3-2.1,4.3-3.7,5.9c-1.6,1.7-3.4,3-5.6,4c-2.2,1-4.6,1.5-7.2,1.5
		C280.1,137.6,277.7,137.1,275.4,136.1L275.4,136.1z M293.8,144c3.4-1.5,6.3-3.4,8.8-5.9c2.5-2.5,4.4-5.4,5.8-8.7
		c1.4-3.3,2-6.8,2-10.6v-0.2c0-3.7-0.7-7.3-2-10.6c-1.4-3.3-3.3-6.2-5.7-8.7c-2.4-2.5-5.3-4.4-8.7-5.9c-3.4-1.4-7.1-2.2-11.2-2.2
		c-4.1,0-7.8,0.7-11.2,2.2c-3.4,1.5-6.3,3.4-8.8,5.9c-2.5,2.5-4.4,5.4-5.8,8.7c-1.4,3.3-2,6.8-2,10.6v0.2c0,3.7,0.7,7.3,2,10.6
		c1.4,3.3,3.3,6.2,5.7,8.7c2.4,2.5,5.3,4.4,8.7,5.9c3.4,1.4,7.1,2.2,11.2,2.2C286.6,146.2,290.4,145.4,293.8,144L293.8,144z
		 M332,137v-14.6h14.7c3.7,0,6.4,0.6,8.2,1.9c1.8,1.2,2.7,3,2.7,5.3v0.2c0,2.4-0.9,4.2-2.7,5.5c-1.8,1.2-4.3,1.8-7.5,1.8H332
		L332,137z M332,114.5v-14.1h13.4c3,0,5.3,0.6,6.9,1.8c1.6,1.2,2.4,2.8,2.4,5v0.2c0,2.4-0.9,4.2-2.7,5.4c-1.8,1.2-4.2,1.8-7.3,1.8
		H332L332,114.5z M322.7,145.2h24.5c2.9,0,5.6-0.3,8-0.9c2.4-0.6,4.5-1.6,6.2-2.8c1.7-1.2,3-2.7,4-4.5c0.9-1.8,1.4-3.9,1.4-6.3v-0.2
		c0-1.8-0.3-3.4-0.8-4.8c-0.5-1.4-1.2-2.6-2.1-3.6c-0.9-1-2-1.9-3.3-2.6c-1.3-0.7-2.7-1.4-4.3-1.9c1-0.5,1.9-1.1,2.8-1.8
		c0.9-0.7,1.7-1.5,2.4-2.5c0.7-0.9,1.2-2,1.7-3.3c0.4-1.2,0.6-2.7,0.6-4.3v-0.2c0-3.5-1.2-6.4-3.6-8.8c-3.1-3.1-7.7-4.7-13.8-4.7
		h-23.8V145.2L322.7,145.2z M397.5,144.8c2.2-0.8,4-2,5.6-3.5c1.6-1.6,2.8-3.5,3.6-5.8c0.9-2.3,1.3-5.1,1.3-8.3v-35h-9.6V127
		c0,3.5-0.8,6.2-2.3,7.8c-1.5,1.7-3.6,2.5-6.1,2.5c-2.3,0-4.2-0.5-5.9-1.6c-1.6-1.1-3.2-2.6-4.8-4.6l-6.1,6.3c1.8,2.4,4,4.5,6.7,6.1
		c2.7,1.6,6.1,2.5,10.2,2.5C392.9,146,395.3,145.6,397.5,144.8L397.5,144.8z M421.9,145.2h39.6v-8.4h-30.4v-14.2h26.6v-8.4h-26.6
		v-13.6h30v-8.4h-39.3V145.2L421.9,145.2z M505.3,145.5c2-0.4,3.9-1.1,5.6-1.9c1.7-0.8,3.3-1.8,4.8-3c1.5-1.1,2.9-2.4,4.3-3.9
		l-6-6.1c-2.3,2.1-4.6,3.8-6.9,5c-2.3,1.2-5.1,1.9-8.3,1.9c-2.5,0-4.9-0.5-7-1.5c-2.1-1-4-2.3-5.6-4.1c-1.6-1.7-2.8-3.7-3.6-6
		c-0.9-2.3-1.3-4.7-1.3-7.3v-0.2c0-2.6,0.4-5,1.3-7.3c0.9-2.3,2.1-4.3,3.6-5.9c1.6-1.7,3.4-3,5.6-4c2.1-1,4.5-1.5,7-1.5
		c3,0,5.7,0.6,8.1,1.8c2.4,1.2,4.6,2.8,6.7,4.8l6-6.9c-1.3-1.2-2.6-2.3-4-3.3c-1.4-1-3-1.9-4.6-2.6c-1.7-0.7-3.5-1.3-5.5-1.7
		c-2-0.4-4.2-0.6-6.6-0.6c-4,0-7.7,0.7-11.1,2.2c-3.3,1.4-6.2,3.4-8.7,5.9c-2.4,2.5-4.3,5.4-5.7,8.7c-1.4,3.3-2,6.9-2,10.6v0.2
		c0,3.8,0.7,7.4,2.1,10.7c1.4,3.3,3.3,6.2,5.7,8.7c2.4,2.5,5.3,4.4,8.5,5.8c3.3,1.4,6.9,2.1,10.8,2.1
		C501,146.2,503.2,145.9,505.3,145.5L505.3,145.5z M543.8,145.2h9.4v-44.4H570v-8.6H527v8.6h16.8V145.2L543.8,145.2z M607.3,144.9
		c2.3-0.7,4.3-1.7,6-3.1c1.7-1.4,2.9-3,3.9-5c0.9-2,1.4-4.2,1.4-6.7V130c0-2.2-0.4-4.1-1.1-5.7c-0.7-1.6-1.8-3.1-3.2-4.3
		c-1.4-1.2-3.2-2.3-5.4-3.1c-2.2-0.9-4.6-1.6-7.4-2.4c-2.5-0.6-4.6-1.2-6.3-1.7c-1.6-0.6-2.9-1.1-3.9-1.8c-0.9-0.6-1.6-1.3-1.9-2.1
		c-0.4-0.8-0.5-1.7-0.5-2.7V106c0-1.8,0.8-3.3,2.3-4.5c1.5-1.2,3.6-1.8,6.4-1.8c2.4,0,4.8,0.5,7.2,1.4c2.4,0.9,4.8,2.3,7.2,4.1l5-7
		c-2.7-2.2-5.6-3.8-8.8-5c-3.1-1.1-6.6-1.7-10.5-1.7c-2.6,0-5.1,0.4-7.3,1.1c-2.2,0.8-4.1,1.8-5.7,3.1c-1.6,1.3-2.8,3-3.7,4.9
		c-0.9,1.9-1.4,4-1.4,6.3v0.2c0,2.4,0.4,4.5,1.2,6.2c0.8,1.7,1.9,3.2,3.4,4.4c1.5,1.2,3.3,2.2,5.5,3c2.2,0.8,4.7,1.6,7.6,2.2
		c2.5,0.6,4.5,1.1,6,1.7c1.5,0.6,2.8,1.2,3.6,1.8c0.9,0.7,1.5,1.4,1.8,2.1c0.3,0.7,0.5,1.6,0.5,2.5v0.2c0,2-0.8,3.6-2.5,4.9
		c-1.7,1.2-4,1.8-6.9,1.8c-3.3,0-6.3-0.6-8.9-1.8c-2.6-1.2-5.2-2.9-7.8-5.1l-5.6,6.7c3.2,2.9,6.6,5,10.4,6.4
		c3.7,1.4,7.7,2.1,11.7,2.1C602.4,146,604.9,145.7,607.3,144.9L607.3,144.9z"/>
	<path d="M255.1,69.4h14.7v-19h25.1V38.2h-25.1v-8.9h27.7V16.4h-42.4V69.4L255.1,69.4z M305.6,69.4h14.8V16.4h-14.8V69.4L305.6,69.4
		z M331.1,69.4h14.5V40.3l22.7,29.1h12.9V16.4h-14.5v28l-21.9-28h-13.8V69.4L331.1,69.4z M411,48.6l6-15.1l5.9,15.1H411L411,48.6z
		 M387.4,69.4h15.5l3.8-9.5h20.5l3.9,9.5h15.8L424.2,16H410L387.4,69.4L387.4,69.4z M453,69.4h14.5V40.3l22.7,29.1h12.9V16.4h-14.5
		v28l-21.9-28H453V69.4L453,69.4z M547,69.6c2.4-0.6,4.5-1.4,6.4-2.5c1.9-1.1,3.6-2.3,5.1-3.8c1.5-1.5,2.9-3.1,4.1-4.8l-11.1-7.9
		c-0.8,1-1.6,1.8-2.5,2.6c-0.8,0.8-1.7,1.5-2.7,2c-0.9,0.6-2,1-3.1,1.3c-1.1,0.3-2.4,0.5-3.8,0.5c-1.9,0-3.6-0.4-5.1-1.1
		c-1.5-0.7-2.9-1.7-4-3c-1.1-1.3-2-2.8-2.6-4.5c-0.6-1.7-0.9-3.6-0.9-5.6v-0.2c0-1.9,0.3-3.7,0.9-5.5c0.6-1.7,1.5-3.2,2.6-4.5
		c1.1-1.3,2.4-2.3,4-3c1.5-0.7,3.2-1.1,5.1-1.1c2.6,0,4.8,0.6,6.6,1.7c1.8,1.1,3.5,2.6,5,4.5l11.1-8.6c-1.2-1.6-2.5-3.1-4-4.5
		c-1.5-1.4-3.2-2.5-5-3.5c-1.8-1-3.9-1.7-6.1-2.3c-2.2-0.5-4.7-0.8-7.4-0.8c-4,0-7.8,0.7-11.2,2.1c-3.4,1.4-6.4,3.4-8.8,5.9
		c-2.5,2.5-4.4,5.4-5.8,8.8c-1.4,3.4-2.1,7-2.1,10.8v0.2c0,3.9,0.7,7.6,2.2,11c1.4,3.4,3.4,6.3,5.8,8.7c2.4,2.5,5.3,4.4,8.7,5.7
		c3.3,1.4,6.9,2,10.7,2C542,70.5,544.7,70.2,547,69.6L547,69.6z M570.3,69.4H585V16.4h-14.8V69.4L570.3,69.4z M615.1,48.6l6-15.1
		l5.9,15.1H615.1L615.1,48.6z M591.6,69.4H607l3.8-9.5h20.5l3.9,9.5h15.8L628.3,16h-14.2L591.6,69.4L591.6,69.4z M657.1,69.4h40.4
		V56.6h-25.7V16.4h-14.7V69.4L657.1,69.4z"/>
	<path d="M267.1,193c0.9-0.2,1.8-0.5,2.5-0.9c0.8-0.4,1.5-0.8,2.2-1.3c0.7-0.5,1.3-1.1,1.9-1.8l-2.7-2.7c-1,1-2.1,1.7-3.1,2.3
		c-1,0.6-2.3,0.8-3.8,0.8c-1.1,0-2.2-0.2-3.2-0.7c-1-0.4-1.8-1.1-2.5-1.8c-0.7-0.8-1.3-1.7-1.6-2.7c-0.4-1-0.6-2.1-0.6-3.3v-0.1
		c0-1.2,0.2-2.3,0.6-3.3c0.4-1,0.9-1.9,1.6-2.7c0.7-0.8,1.5-1.4,2.5-1.8c1-0.4,2-0.7,3.2-0.7c1.4,0,2.6,0.3,3.6,0.8
		c1.1,0.5,2.1,1.3,3,2.1l2.7-3.1c-0.6-0.5-1.2-1-1.8-1.5c-0.6-0.5-1.3-0.8-2.1-1.2c-0.8-0.3-1.6-0.6-2.5-0.8c-0.9-0.2-1.9-0.3-3-0.3
		c-1.8,0-3.5,0.3-5,1c-1.5,0.6-2.8,1.5-3.9,2.7c-1.1,1.1-2,2.4-2.6,3.9c-0.6,1.5-0.9,3.1-0.9,4.8v0.1c0,1.7,0.3,3.3,0.9,4.8
		s1.5,2.8,2.6,3.9c1.1,1.1,2.4,2,3.8,2.6c1.5,0.6,3.1,1,4.8,1C265.2,193.3,266.2,193.2,267.1,193L267.1,193z M284.1,189.3
		c-0.7-0.3-1.2-0.7-1.7-1.3c-0.5-0.5-0.9-1.1-1.1-1.8c-0.3-0.7-0.4-1.4-0.4-2.2v-0.1c0-0.8,0.1-1.5,0.4-2.2c0.2-0.7,0.6-1.3,1.1-1.8
		c0.5-0.5,1-0.9,1.7-1.2c0.7-0.3,1.4-0.5,2.2-0.5c0.8,0,1.6,0.2,2.2,0.5c0.7,0.3,1.2,0.7,1.7,1.2c0.5,0.5,0.9,1.1,1.1,1.8
		c0.3,0.7,0.4,1.5,0.4,2.3v0.1c0,0.8-0.1,1.5-0.4,2.2c-0.2,0.7-0.6,1.3-1.1,1.8c-0.5,0.5-1,0.9-1.7,1.2c-0.7,0.3-1.4,0.5-2.3,0.5
		C285.5,189.7,284.7,189.6,284.1,189.3L284.1,189.3z M290,192.5c1.2-0.5,2.2-1.2,3.1-2c0.9-0.9,1.5-1.8,2-3c0.5-1.1,0.7-2.3,0.7-3.6
		v-0.1c0-1.3-0.2-2.5-0.7-3.6c-0.5-1.1-1.1-2.1-2-3c-0.9-0.9-1.9-1.5-3-2c-1.2-0.5-2.5-0.7-3.8-0.7c-1.4,0-2.7,0.2-3.8,0.8
		c-1.2,0.5-2.2,1.2-3,2c-0.9,0.9-1.5,1.8-2,3c-0.5,1.1-0.7,2.4-0.7,3.6v0.1c0,1.3,0.2,2.5,0.7,3.6c0.5,1.1,1.1,2.1,2,3
		c0.9,0.8,1.9,1.5,3,2c1.2,0.5,2.4,0.7,3.8,0.7C287.6,193.3,288.9,193,290,192.5L290,192.5z M300,192.9h4.2v-10.1
		c0-1.4,0.4-2.5,1.1-3.3c0.7-0.8,1.6-1.2,2.8-1.2c1.2,0,2,0.4,2.7,1.1c0.6,0.7,1,1.8,1,3.2v10.2h4.2v-10.1c0-1.5,0.4-2.6,1.1-3.3
		c0.7-0.8,1.6-1.1,2.8-1.1c1.2,0,2,0.4,2.7,1.1c0.6,0.7,1,1.8,1,3.3v10.2h4.2v-11.5c0-2.2-0.6-3.9-1.7-5.1c-1.1-1.2-2.7-1.8-4.7-1.8
		c-1.4,0-2.5,0.3-3.5,0.9c-1,0.6-1.9,1.4-2.6,2.3c-0.5-1-1.2-1.7-2.1-2.3c-0.9-0.6-2-0.9-3.3-0.9c-0.7,0-1.3,0.1-1.9,0.3
		c-0.6,0.2-1.1,0.4-1.5,0.7c-0.4,0.3-0.8,0.6-1.2,1c-0.3,0.4-0.7,0.8-1,1.2v-2.8H300V192.9L300,192.9z M332.4,192.9h4.2v-10.1
		c0-1.4,0.4-2.5,1.1-3.3s1.6-1.2,2.8-1.2c1.2,0,2,0.4,2.7,1.1c0.6,0.7,1,1.8,1,3.2v10.2h4.2v-10.1c0-1.5,0.4-2.6,1.1-3.3
		c0.7-0.8,1.6-1.1,2.8-1.1c1.2,0,2,0.4,2.7,1.1c0.6,0.7,1,1.8,1,3.3v10.2h4.2v-11.5c0-2.2-0.6-3.9-1.7-5.1c-1.1-1.2-2.7-1.8-4.7-1.8
		c-1.4,0-2.5,0.3-3.5,0.9c-1,0.6-1.9,1.4-2.6,2.3c-0.5-1-1.2-1.7-2.1-2.3c-0.9-0.6-2-0.9-3.3-0.9c-0.7,0-1.3,0.1-1.9,0.3
		c-0.6,0.2-1.1,0.4-1.5,0.7c-0.4,0.3-0.8,0.6-1.2,1c-0.3,0.4-0.7,0.8-1,1.2v-2.8h-4.2V192.9L332.4,192.9z M371.3,189.3
		c-0.7-0.3-1.2-0.7-1.7-1.3c-0.5-0.5-0.9-1.1-1.1-1.8c-0.3-0.7-0.4-1.4-0.4-2.2v-0.1c0-0.8,0.1-1.5,0.4-2.2c0.2-0.7,0.6-1.3,1.1-1.8
		c0.5-0.5,1-0.9,1.7-1.2c0.7-0.3,1.4-0.5,2.2-0.5c0.8,0,1.6,0.2,2.2,0.5c0.7,0.3,1.2,0.7,1.7,1.2c0.5,0.5,0.9,1.1,1.1,1.8
		c0.3,0.7,0.4,1.5,0.4,2.3v0.1c0,0.8-0.1,1.5-0.4,2.2c-0.2,0.7-0.6,1.3-1.1,1.8c-0.5,0.5-1,0.9-1.7,1.2c-0.7,0.3-1.4,0.5-2.3,0.5
		C372.7,189.7,372,189.6,371.3,189.3L371.3,189.3z M377.3,192.5c1.2-0.5,2.2-1.2,3.1-2c0.9-0.9,1.5-1.8,2-3c0.5-1.1,0.7-2.3,0.7-3.6
		v-0.1c0-1.3-0.2-2.5-0.7-3.6c-0.5-1.1-1.1-2.1-2-3c-0.9-0.9-1.9-1.5-3-2c-1.2-0.5-2.5-0.7-3.8-0.7c-1.4,0-2.7,0.2-3.8,0.8
		c-1.2,0.5-2.2,1.2-3,2c-0.9,0.9-1.5,1.8-2,3c-0.5,1.1-0.7,2.4-0.7,3.6v0.1c0,1.3,0.2,2.5,0.7,3.6c0.5,1.1,1.1,2.1,2,3
		c0.9,0.8,1.9,1.5,3,2c1.2,0.5,2.4,0.7,3.8,0.7C374.8,193.3,376.1,193,377.3,192.5L377.3,192.5z M393.7,189.3
		c-0.6-0.3-1.2-0.7-1.6-1.2c-0.5-0.5-0.9-1.1-1.1-1.8c-0.3-0.7-0.4-1.5-0.4-2.4v-0.1c0-0.9,0.1-1.7,0.4-2.4c0.3-0.7,0.6-1.3,1.1-1.8
		c0.5-0.5,1-0.9,1.6-1.1c0.6-0.3,1.3-0.4,2-0.4c0.7,0,1.3,0.1,2,0.4c0.6,0.3,1.2,0.7,1.7,1.2c0.5,0.5,0.9,1.1,1.1,1.8
		c0.3,0.7,0.4,1.5,0.4,2.4v0.1c0,0.9-0.1,1.6-0.4,2.4c-0.3,0.7-0.7,1.3-1.1,1.8c-0.5,0.5-1,0.9-1.7,1.2c-0.6,0.3-1.3,0.4-2,0.4
		C395,189.7,394.3,189.5,393.7,189.3L393.7,189.3z M398.4,192.3c1-0.7,1.8-1.5,2.5-2.4l0,3h4.2V168h-4.2v9.7
		c-0.7-0.8-1.5-1.6-2.5-2.2c-1-0.6-2.2-1-3.7-1c-1.1,0-2.1,0.2-3.1,0.6c-1,0.4-1.9,1-2.7,1.8c-0.8,0.8-1.4,1.8-1.9,2.9
		c-0.5,1.2-0.7,2.5-0.7,4v0.1c0,1.5,0.2,2.8,0.7,4c0.5,1.2,1.1,2.1,1.9,2.9c0.8,0.8,1.7,1.4,2.7,1.8c1,0.4,2,0.6,3.1,0.6
		C396.2,193.3,397.4,192.9,398.4,192.3L398.4,192.3z M410.4,192.9h4.2v-18h-4.2V192.9L410.4,192.9z M410.2,172.1h4.5v-3.9h-4.5
		V172.1L410.2,172.1z M428,193c0.6-0.2,1.1-0.4,1.7-0.7v-3.4c-0.8,0.4-1.7,0.6-2.6,0.6c-0.7,0-1.3-0.2-1.6-0.5
		c-0.4-0.4-0.6-0.9-0.6-1.7v-8.8h4.8v-3.5h-4.8v-4.9h-4.2v4.9h-2.3v3.5h2.3v9.5c0,1,0.1,1.8,0.4,2.5c0.3,0.7,0.6,1.2,1.1,1.6
		c0.5,0.4,1,0.7,1.7,0.9s1.3,0.3,2.1,0.3C426.7,193.2,427.4,193.1,428,193L428,193z M434.1,192.9h4.2v-18h-4.2V192.9L434.1,192.9z
		 M433.9,172.1h4.5v-3.9h-4.5V172.1L433.9,172.1z M446.7,182.6c0.2-1.4,0.7-2.6,1.5-3.4c0.8-0.9,1.9-1.3,3.2-1.3
		c0.7,0,1.3,0.1,1.8,0.4c0.5,0.2,1,0.6,1.4,1c0.4,0.4,0.7,0.9,0.9,1.5s0.4,1.2,0.4,1.9H446.7L446.7,182.6z M456.1,192.4
		c1.2-0.6,2.2-1.4,3.1-2.5l-2.4-2.1c-0.7,0.7-1.5,1.2-2.2,1.6c-0.8,0.4-1.6,0.5-2.7,0.5c-1.3,0-2.5-0.4-3.4-1.2
		c-0.9-0.8-1.5-1.9-1.8-3.4H460c0-0.2,0-0.4,0.1-0.6c0-0.2,0-0.4,0-0.6c0-1.3-0.2-2.5-0.5-3.7c-0.4-1.2-0.9-2.2-1.6-3.1
		c-0.7-0.9-1.6-1.6-2.7-2.1c-1.1-0.5-2.3-0.8-3.8-0.8c-1.3,0-2.5,0.2-3.5,0.7c-1.1,0.5-2,1.2-2.8,2c-0.8,0.9-1.4,1.8-1.8,3
		c-0.4,1.1-0.6,2.4-0.6,3.7v0.1c0,1.4,0.2,2.7,0.7,3.8c0.5,1.1,1.1,2.1,2,3c0.8,0.8,1.8,1.5,2.9,1.9c1.1,0.5,2.3,0.7,3.6,0.7
		C453.5,193.3,455,193,456.1,192.4L456.1,192.4z M473,192.9c0.8-0.2,1.5-0.6,2.1-1.1c0.6-0.5,1.1-1,1.4-1.8c0.3-0.7,0.5-1.5,0.5-2.5
		v-0.1c0-0.8-0.2-1.5-0.5-2.1c-0.3-0.6-0.8-1-1.3-1.4c-0.5-0.4-1.1-0.7-1.8-1c-0.7-0.3-1.3-0.5-2-0.7c-0.5-0.2-1-0.3-1.5-0.5
		c-0.5-0.2-0.9-0.4-1.3-0.5c-0.4-0.2-0.7-0.4-0.9-0.6c-0.2-0.2-0.3-0.5-0.3-0.8v-0.1c0-0.5,0.2-1,0.7-1.3c0.4-0.3,1.1-0.5,1.9-0.5
		c0.8,0,1.6,0.2,2.5,0.5c0.9,0.3,1.8,0.7,2.6,1.2l1.6-2.9c-1-0.6-2-1.1-3.2-1.5c-1.2-0.4-2.3-0.6-3.4-0.6c-0.9,0-1.7,0.1-2.5,0.4
		c-0.8,0.2-1.5,0.6-2,1.1c-0.6,0.5-1,1.1-1.4,1.7c-0.3,0.7-0.5,1.4-0.5,2.3v0.1c0,0.9,0.2,1.6,0.5,2.2c0.3,0.6,0.8,1.1,1.3,1.5
		c0.5,0.4,1.1,0.7,1.8,1c0.7,0.3,1.3,0.5,2,0.6c0.5,0.2,1,0.3,1.5,0.5c0.5,0.2,0.9,0.3,1.3,0.5c0.4,0.2,0.7,0.4,0.9,0.6
		c0.2,0.2,0.3,0.5,0.3,0.9v0.1c0,0.6-0.2,1.1-0.7,1.4c-0.5,0.4-1.2,0.5-2.1,0.5c-0.9,0-1.9-0.2-2.9-0.6c-1-0.4-2-0.9-3-1.7l-1.8,2.8
		c1.1,0.9,2.4,1.6,3.7,2c1.3,0.5,2.6,0.7,3.9,0.7C471.3,193.2,472.2,193.1,473,192.9L473,192.9z M496.1,181.4v-8.6h4.9
		c1.6,0,2.8,0.4,3.8,1.1c0.9,0.7,1.4,1.8,1.4,3.2v0.1c0,1.3-0.5,2.3-1.4,3.1c-0.9,0.8-2.2,1.2-3.8,1.2H496.1L496.1,181.4z
		 M492,192.9h4.2v-7.7h4.8c1.3,0,2.6-0.2,3.7-0.5c1.2-0.4,2.2-0.9,3-1.6c0.9-0.7,1.5-1.5,2.1-2.5c0.5-1,0.8-2.2,0.8-3.5V177
		c0-1.2-0.2-2.3-0.6-3.3c-0.4-1-1-1.8-1.8-2.5c-0.8-0.7-1.7-1.2-2.9-1.6c-1.1-0.4-2.4-0.6-3.8-0.6H492V192.9L492,192.9z
		 M525.4,186.4c0,0.6-0.1,1.1-0.4,1.6c-0.2,0.5-0.6,0.9-1,1.2c-0.4,0.3-0.9,0.6-1.5,0.8c-0.6,0.2-1.2,0.3-1.9,0.3
		c-1,0-1.8-0.2-2.5-0.7c-0.7-0.5-1-1.1-1-2v-0.1c0-0.9,0.4-1.5,1.1-2c0.7-0.5,1.7-0.8,3-0.8c0.8,0,1.6,0.1,2.3,0.2
		c0.7,0.1,1.3,0.3,1.9,0.5V186.4L525.4,186.4z M529.4,192.9v-10.7c0-2.4-0.6-4.3-1.9-5.6c-1.3-1.3-3.3-2-6-2c-1.5,0-2.7,0.1-3.8,0.4
		c-1,0.3-2.1,0.6-3.1,1.1l1.1,3.3c0.8-0.3,1.6-0.6,2.4-0.8c0.8-0.2,1.7-0.3,2.7-0.3c1.4,0,2.5,0.3,3.3,1c0.8,0.7,1.1,1.6,1.1,2.9
		v0.3c-0.7-0.2-1.4-0.4-2.2-0.5c-0.8-0.1-1.7-0.2-2.8-0.2c-1,0-2,0.1-2.9,0.4c-0.9,0.2-1.7,0.6-2.3,1.1c-0.6,0.5-1.2,1.1-1.5,1.8
		c-0.4,0.7-0.5,1.6-0.5,2.6v0.1c0,0.9,0.2,1.7,0.5,2.4c0.4,0.7,0.8,1.3,1.4,1.7c0.6,0.5,1.3,0.8,2,1.1c0.8,0.2,1.6,0.4,2.5,0.4
		c1.4,0,2.5-0.2,3.5-0.8c1-0.5,1.7-1.1,2.4-1.8v2.2H529.4L529.4,192.9z M539.9,198.2c0.6-0.2,1.1-0.5,1.6-0.9
		c0.5-0.4,0.9-0.9,1.3-1.6c0.4-0.6,0.8-1.4,1.1-2.4l7.2-18.5h-4.3l-4.7,13.4l-5.1-13.4h-4.4l7.5,18c-0.3,0.8-0.7,1.3-1.1,1.6
		c-0.4,0.3-0.9,0.4-1.5,0.4c-0.4,0-0.8-0.1-1.2-0.2c-0.4-0.1-0.8-0.3-1.2-0.5l-1.4,3.1c0.6,0.3,1.3,0.6,2,0.8
		c0.7,0.2,1.4,0.3,2.3,0.3C538.7,198.4,539.4,198.4,539.9,198.2L539.9,198.2z M561.1,189.3c-0.7-0.3-1.2-0.7-1.7-1.3
		c-0.5-0.5-0.9-1.1-1.1-1.8c-0.3-0.7-0.4-1.4-0.4-2.2v-0.1c0-0.8,0.1-1.5,0.4-2.2c0.2-0.7,0.6-1.3,1.1-1.8c0.5-0.5,1-0.9,1.7-1.2
		c0.7-0.3,1.4-0.5,2.2-0.5c0.8,0,1.6,0.2,2.2,0.5c0.7,0.3,1.2,0.7,1.7,1.2c0.5,0.5,0.9,1.1,1.1,1.8c0.3,0.7,0.4,1.5,0.4,2.3v0.1
		c0,0.8-0.1,1.5-0.4,2.2c-0.2,0.7-0.6,1.3-1.1,1.8c-0.5,0.5-1,0.9-1.7,1.2c-0.7,0.3-1.4,0.5-2.3,0.5
		C562.5,189.7,561.7,189.6,561.1,189.3L561.1,189.3z M567.1,192.5c1.2-0.5,2.2-1.2,3.1-2c0.9-0.9,1.5-1.8,2-3
		c0.5-1.1,0.7-2.3,0.7-3.6v-0.1c0-1.3-0.2-2.5-0.7-3.6c-0.5-1.1-1.1-2.1-2-3c-0.9-0.9-1.9-1.5-3-2c-1.2-0.5-2.5-0.7-3.8-0.7
		c-1.4,0-2.7,0.2-3.8,0.8c-1.2,0.5-2.2,1.2-3,2c-0.9,0.9-1.5,1.8-2,3c-0.5,1.1-0.7,2.4-0.7,3.6v0.1c0,1.3,0.2,2.5,0.7,3.6
		c0.5,1.1,1.1,2.1,2,3c0.9,0.8,1.9,1.5,3,2c1.2,0.5,2.4,0.7,3.8,0.7C564.6,193.3,565.9,193,567.1,192.5L567.1,192.5z M586.6,192.3
		c0.9-0.6,1.6-1.4,2.2-2.3v2.8h4.2v-18h-4.2V185c0,1.4-0.4,2.5-1.1,3.3c-0.7,0.8-1.7,1.2-2.9,1.2c-1.2,0-2.2-0.4-2.8-1.1
		c-0.7-0.8-1-1.8-1-3.3v-10.2h-4.2v11.5c0,2.1,0.6,3.8,1.7,5c1.1,1.3,2.7,1.9,4.7,1.9C584.6,193.3,585.8,192.9,586.6,192.3
		L586.6,192.3z M606.3,193c0.6-0.2,1.1-0.4,1.7-0.7v-3.4c-0.8,0.4-1.7,0.6-2.6,0.6c-0.7,0-1.3-0.2-1.6-0.5c-0.4-0.4-0.6-0.9-0.6-1.7
		v-8.8h4.8v-3.5h-4.8v-4.9H599v4.9h-2.3v3.5h2.3v9.5c0,1,0.1,1.8,0.4,2.5c0.3,0.7,0.6,1.2,1.1,1.6c0.5,0.4,1,0.7,1.7,0.9
		c0.6,0.2,1.3,0.3,2.1,0.3C605,193.2,605.7,193.1,606.3,193L606.3,193z M628.8,192.9h4.2v-20h7.6V169h-19.4v3.9h7.6V192.9
		L628.8,192.9z M647.6,182.6c0.2-1.4,0.7-2.6,1.5-3.4c0.8-0.9,1.9-1.3,3.2-1.3c0.7,0,1.3,0.1,1.8,0.4c0.5,0.2,1,0.6,1.4,1
		c0.4,0.4,0.7,0.9,0.9,1.5c0.2,0.6,0.4,1.2,0.4,1.9H647.6L647.6,182.6z M657.1,192.4c1.2-0.6,2.2-1.4,3.1-2.5l-2.4-2.1
		c-0.7,0.7-1.5,1.2-2.2,1.6c-0.8,0.4-1.6,0.5-2.7,0.5c-1.3,0-2.5-0.4-3.4-1.2c-0.9-0.8-1.5-1.9-1.8-3.4h13.2c0-0.2,0-0.4,0.1-0.6
		c0-0.2,0-0.4,0-0.6c0-1.3-0.2-2.5-0.5-3.7c-0.4-1.2-0.9-2.2-1.6-3.1c-0.7-0.9-1.6-1.6-2.7-2.1c-1.1-0.5-2.3-0.8-3.8-0.8
		c-1.3,0-2.5,0.2-3.5,0.7c-1.1,0.5-2,1.2-2.8,2c-0.8,0.9-1.4,1.8-1.8,3c-0.4,1.1-0.6,2.4-0.6,3.7v0.1c0,1.4,0.2,2.7,0.7,3.8
		c0.5,1.1,1.1,2.1,2,3c0.8,0.8,1.8,1.5,2.9,1.9c1.1,0.5,2.3,0.7,3.6,0.7C654.4,193.3,655.9,193,657.1,192.4L657.1,192.4z
		 M665.1,192.9h4.2V186c0-1.2,0.1-2.2,0.4-3.1c0.3-0.9,0.7-1.6,1.3-2.2c0.5-0.6,1.2-1,1.9-1.3c0.8-0.3,1.6-0.4,2.5-0.4h0.2v-4.4
		c-1.6-0.1-2.9,0.3-4,1.1c-1,0.8-1.9,1.9-2.4,3.3v-4.1h-4.2V192.9L665.1,192.9z M679.2,192.9h4.2v-10.1c0-1.4,0.3-2.5,1.1-3.3
		c0.7-0.8,1.6-1.2,2.8-1.2c1.2,0,2,0.4,2.7,1.1c0.6,0.7,1,1.8,1,3.2v10.2h4.2v-10.1c0-1.5,0.4-2.6,1.1-3.3c0.7-0.8,1.6-1.1,2.8-1.1
		c1.2,0,2,0.4,2.7,1.1c0.6,0.7,1,1.8,1,3.3v10.2h4.2v-11.5c0-2.2-0.6-3.9-1.7-5.1c-1.1-1.2-2.7-1.8-4.7-1.8c-1.4,0-2.5,0.3-3.5,0.9
		c-1,0.6-1.9,1.4-2.6,2.3c-0.5-1-1.2-1.7-2.1-2.3c-0.9-0.6-2-0.9-3.3-0.9c-0.7,0-1.3,0.1-1.9,0.3c-0.6,0.2-1.1,0.4-1.5,0.7
		c-0.4,0.3-0.8,0.6-1.2,1c-0.3,0.4-0.7,0.8-1,1.2v-2.8h-4.2V192.9L679.2,192.9z M720.4,192.9c0.8-0.2,1.5-0.6,2.1-1.1
		c0.6-0.5,1.1-1,1.4-1.8c0.3-0.7,0.5-1.5,0.5-2.5v-0.1c0-0.8-0.2-1.5-0.5-2.1c-0.3-0.6-0.8-1-1.3-1.4c-0.5-0.4-1.1-0.7-1.8-1
		c-0.7-0.3-1.3-0.5-2-0.7c-0.5-0.2-1-0.3-1.5-0.5c-0.5-0.2-0.9-0.4-1.3-0.5c-0.4-0.2-0.7-0.4-0.9-0.6c-0.2-0.2-0.3-0.5-0.3-0.8v-0.1
		c0-0.5,0.2-1,0.7-1.3c0.4-0.3,1.1-0.5,1.9-0.5c0.8,0,1.6,0.2,2.5,0.5c0.9,0.3,1.8,0.7,2.6,1.2l1.6-2.9c-1-0.6-2-1.1-3.2-1.5
		c-1.2-0.4-2.3-0.6-3.4-0.6c-0.9,0-1.7,0.1-2.5,0.4c-0.8,0.2-1.5,0.6-2,1.1c-0.6,0.5-1,1.1-1.4,1.7c-0.3,0.7-0.5,1.4-0.5,2.3v0.1
		c0,0.9,0.2,1.6,0.5,2.2c0.3,0.6,0.8,1.1,1.3,1.5c0.5,0.4,1.1,0.7,1.8,1c0.7,0.3,1.3,0.5,2,0.6c0.5,0.2,1,0.3,1.5,0.5
		c0.5,0.2,0.9,0.3,1.3,0.5c0.4,0.2,0.7,0.4,0.9,0.6s0.3,0.5,0.3,0.9v0.1c0,0.6-0.2,1.1-0.7,1.4c-0.5,0.4-1.2,0.5-2.1,0.5
		c-0.9,0-1.9-0.2-2.9-0.6c-1-0.4-2-0.9-3-1.7l-1.8,2.8c1.1,0.9,2.4,1.6,3.7,2c1.3,0.5,2.6,0.7,3.9,0.7
		C718.7,193.2,719.6,193.1,720.4,192.9L720.4,192.9z"/>
	<path d="M206.1,90.2c-2.4,0.5-4.7,0.4-7-0.2c-2.8,5.8-7.9,11.9-14.8,18c-6.1-6.5-13.4-13.1-22-19.5c3.1-10.2,5.1-19.8,6.1-28.7
		c9.2,0.8,16.9,2.7,22.6,5.7c1.4-1.8,3.3-3.3,5.5-4.3c-6.8-4.3-16.2-6.9-27.5-8c0.6-11.3-0.6-21.1-3.8-28.4c-1.4,2-3.1,3.6-5.1,4.8
		c2.1,6.1,2.9,14,2.3,23.2c-8.9-0.3-18.8,0.4-29.2,1.9c-5-9.4-10.5-17.7-16.1-24.7c7.1-5.9,13.9-10.1,20-11.9
		c-0.3-2.3,0-4.6,0.8-6.9c-7.8,1.8-16.3,6.6-25.1,13.8c-7.6-8.5-15.3-14.5-22.8-17.4c0.5,2.4,0.4,4.7-0.2,7
		c5.8,2.8,11.9,7.9,18,14.8c-6.5,6.1-13.1,13.4-19.5,22c-10.2-3.1-19.8-5.1-28.7-6.1c0.8-9.2,2.7-16.9,5.7-22.6
		c-1.8-1.4-3.3-3.3-4.3-5.5c-4.3,6.8-6.9,16.2-8,27.5c-11.3-0.6-21.1,0.6-28.4,3.8c2,1.4,3.6,3.1,4.8,5.1c6.1-2.1,14-2.9,23.2-2.3
		c-0.3,8.9,0.2,18.8,1.8,29.3c-9.3,5-17.6,10.4-24.6,16c-5.9-7.1-10.1-13.9-11.9-20c-2.3,0.3-4.6,0-6.9-0.8
		c1.8,7.8,6.6,16.3,13.8,25.1c-8.5,7.6-14.5,15.3-17.4,22.8c2.4-0.5,4.7-0.4,7,0.2c2.8-5.8,7.9-11.9,14.8-18
		c6.1,6.5,13.4,13.1,22,19.5c-3.1,10.2-5.1,19.8-6.1,28.7c-9.2-0.8-16.9-2.7-22.6-5.7c-1.4,1.8-3.3,3.3-5.5,4.3
		c6.8,4.3,16.2,6.9,27.5,8c-0.6,11.3,0.6,21.1,3.8,28.4c1.4-2,3.1-3.6,5.1-4.8c-2.1-6.1-2.9-14-2.3-23.2c8.9,0.3,18.8-0.4,29.2-1.9
		c5,9.4,10.5,17.7,16.1,24.7c-7.1,5.9-13.9,10.1-20,11.9c0.3,2.3,0,4.6-0.8,6.9c7.8-1.8,16.3-6.6,25.1-13.8
		c7.6,8.5,15.3,14.5,22.8,17.4c-0.5-2.4-0.4-4.7,0.2-7c-5.8-2.8-11.9-7.9-18-14.8c6.5-6.1,13.1-13.4,19.5-22
		c10.2,3.1,19.8,5.1,28.7,6.1c-0.8,9.2-2.7,16.9-5.7,22.6c1.8,1.4,3.3,3.3,4.3,5.5c4.3-6.8,6.9-16.2,8-27.5
		c11.3,0.6,21.1-0.6,28.4-3.8c-2-1.4-3.6-3.1-4.8-5.1c-6.1,2.1-14,2.9-23.2,2.3c0.3-8.9-0.2-18.8-1.8-29.3c9.3-5,17.6-10.4,24.6-16
		c5.9,7.1,10.1,13.9,11.9,20c2.3-0.3,4.6,0,6.9,0.8c-1.8-7.8-6.6-16.3-13.8-25.1C197.2,105.4,203.2,97.6,206.1,90.2L206.1,90.2z
		 M129.3,156.7c3-4.3,5.9-8.8,8.8-13.6c5.1-2.1,10-4.3,14.7-6.7c1.2,9.1,1.7,17.7,1.5,25.4C146.6,160.9,138.2,159.2,129.3,156.7
		L129.3,156.7z M62,84.3c2.7-1.4,5.4-2.7,8.2-4c-1.1,2.1-2.3,4.2-3.4,6.4c-1.1,2.2-2.1,4.4-3.2,6.6C63.1,90.2,62.5,87.3,62,84.3
		L62,84.3z M62.2,114c0.7,2.3,1.4,4.6,2.2,6.9c0.8,2.3,1.6,4.6,2.4,6.9c-2.6-1.7-5.1-3.4-7.6-5.2C60.1,119.8,61.1,116.9,62.2,114
		L62.2,114z M72.8,89.7c2.4-4.8,4.9-9.3,7.5-13.8c4.7-1.9,9.6-3.7,14.6-5.3c5-1.7,10-3.1,14.9-4.4c4.7,2,9.5,4.2,14.2,6.6
		c4.8,2.4,9.3,4.9,13.8,7.5c1.9,4.7,3.7,9.6,5.3,14.6c1.7,5,3.1,10,4.4,14.9c-2,4.7-4.2,9.5-6.6,14.2c-2.4,4.8-4.9,9.3-7.5,13.8
		c-4.7,1.9-9.6,3.7-14.6,5.3c-5,1.7-10,3.1-14.9,4.4c-4.7-2-9.5-4.2-14.2-6.6c-4.8-2.4-9.3-4.9-13.8-7.5c-1.9-4.7-3.7-9.6-5.3-14.6
		c-1.7-5-3.1-10-4.4-14.9C68.2,99.2,70.4,94.4,72.8,89.7L72.8,89.7z M146.9,127.1c1.1-2.2,2.1-4.4,3.2-6.6c0.6,3,1.2,6,1.7,9
		c-2.7,1.4-5.4,2.7-8.2,4C144.7,131.4,145.8,129.2,146.9,127.1L146.9,127.1z M147.1,86c2.6,1.7,5.1,3.4,7.6,5.2
		c-0.9,2.9-1.9,5.7-3,8.6c-0.7-2.3-1.4-4.6-2.2-6.9C148.7,90.5,147.9,88.3,147.1,86L147.1,86z M122.6,154.6c-2.9-0.9-5.7-1.9-8.6-3
		c2.3-0.7,4.6-1.4,6.9-2.2c2.3-0.8,4.6-1.6,6.9-2.4C126.1,149.7,124.4,152.2,122.6,154.6L122.6,154.6z M87.5,157.9
		c5.2-0.9,10.4-2,15.8-3.4c5.1,2.1,10.2,4,15.1,5.7c-5.6,7.3-11.3,13.7-17,19C96.7,173.1,92,166,87.5,157.9L87.5,157.9z M80.3,143.5
		c2.1,1.1,4.2,2.3,6.4,3.4c2.2,1.1,4.4,2.1,6.6,3.2c-3.1,0.6-6.1,1.2-9,1.7C82.9,149.1,81.6,146.3,80.3,143.5L80.3,143.5z
		 M51.9,154.3c0.9-7.7,2.6-16.1,5.2-24.9c4.3,3,8.8,5.9,13.6,8.8c2.1,5.1,4.3,10,6.6,14.7C68.2,153.9,59.6,154.5,51.9,154.3
		L51.9,154.3z M59.2,103.3c-2.1,5.1-4,10.2-5.7,15.1c-7.3-5.6-13.7-11.3-19-17c6.1-4.8,13.3-9.4,21.3-13.9
		C56.7,92.8,57.9,98,59.2,103.3L59.2,103.3z M84.4,57.1c-3,4.3-5.9,8.8-8.8,13.6c-5.1,2.1-10,4.3-14.7,6.7
		c-1.2-9.1-1.7-17.7-1.5-25.4C67.2,52.8,75.6,54.6,84.4,57.1L84.4,57.1z M91.1,59.1c2.9,0.9,5.7,1.9,8.6,3c-2.3,0.7-4.6,1.4-6.9,2.2
		c-2.3,0.8-4.6,1.6-6.9,2.4C87.7,64.1,89.4,61.6,91.1,59.1L91.1,59.1z M126.3,55.9c-5.2,0.9-10.4,2-15.8,3.4
		c-5.1-2.1-10.2-4-15.1-5.7c5.6-7.3,11.3-13.7,17-19C117.1,40.6,121.8,47.8,126.3,55.9L126.3,55.9z M133.5,70.3
		c-2.1-1.1-4.2-2.3-6.4-3.4c-2.2-1.1-4.4-2.1-6.6-3.2c3.1-0.6,6.1-1.2,9-1.7C130.9,64.7,132.2,67.4,133.5,70.3L133.5,70.3z
		 M161.9,59.5c-0.9,7.7-2.7,16.1-5.2,24.9c-4.3-3-8.8-5.9-13.6-8.8c-2.1-5.1-4.3-10-6.6-14.7C145.5,59.8,154.1,59.3,161.9,59.5
		L161.9,59.5z M179.3,112.3c-6.1,4.8-13.3,9.4-21.3,13.9c-0.9-5.1-2.1-10.4-3.4-15.7c2.1-5.1,4-10.2,5.7-15.1
		C167.5,100.9,173.9,106.6,179.3,112.3L179.3,112.3z"/>
	<path d="M121.3,124.4c1.8-1.2,3.2-2.6,4.2-4.2c1-1.6,1.7-3.3,1.9-5.1c0.3-1.8,0-3.8-0.6-5.8l0-0.1c-0.6-1.8-1.5-3.3-2.6-4.4
		c-1.1-1.1-2.5-1.9-4.1-2.4c-1.6-0.5-3.4-0.8-5.4-0.9c-2-0.1-4.3,0-6.7,0.3c-1.5,0.1-2.7,0.2-3.6,0.2c-1,0-1.8,0-2.4-0.2
		c-0.6-0.1-1.1-0.3-1.4-0.6c-0.3-0.3-0.6-0.6-0.7-1.1l0-0.1c-0.2-0.7-0.1-1.4,0.4-2.1c0.5-0.7,1.4-1.3,2.7-1.7
		c1.8-0.6,3.7-0.9,5.8-0.8c2.1,0,4.3,0.4,6.5,1.1l2.9-9.5c-2.7-1-5.5-1.6-8.5-1.6c-2.9,0-6.1,0.5-9.5,1.6c-2.4,0.8-4.4,1.8-6.1,3
		c-1.7,1.2-3,2.6-4,4.2c-1,1.6-1.5,3.2-1.7,5c-0.2,1.8,0,3.6,0.6,5.4l0,0.1c0.7,2,1.6,3.6,2.8,4.7c1.2,1.1,2.7,1.9,4.3,2.4
		c1.6,0.5,3.5,0.7,5.4,0.7c2,0,4.1-0.1,6.4-0.3c1.5-0.1,2.6-0.2,3.6-0.2c0.9,0,1.7,0.1,2.3,0.2c0.6,0.1,1.1,0.3,1.3,0.6
		c0.3,0.3,0.5,0.6,0.6,1l0,0.1c0.3,0.9,0.1,1.7-0.5,2.4c-0.6,0.7-1.7,1.3-3.1,1.8c-4.6,1.5-9.4,1.3-14.4-0.5l-3.7,9.3
		c3.2,1.4,6.5,2.1,10.1,2.2c3.5,0,7.1-0.5,10.6-1.7C117.5,126.6,119.5,125.6,121.3,124.4L121.3,124.4z"/>
	<path d="M102.9,83.3l-1.9-5.7l-8.1,2.7l2,6c1.3-0.8,2.8-1.5,4.5-2.1C100.5,83.8,101.7,83.6,102.9,83.3L102.9,83.3z"/>
	<path d="M109.8,131.6l1.7,5.1l8.1-2.7l-1.5-4.6c-0.7,0.3-1.3,0.6-2.1,0.8C113.9,130.9,111.8,131.3,109.8,131.6L109.8,131.6z"/>
	<path d="M213.2,71.8c-1.8-5.6-7.9-8.6-13.5-6.8c-5.6,1.8-8.6,7.9-6.8,13.5c1.8,5.6,7.9,8.6,13.5,6.8
		C212,83.5,215.1,77.4,213.2,71.8L213.2,71.8z"/>
	<path d="M162,21.2c2.7-5.3,0.5-11.7-4.7-14.3c-5.3-2.7-11.7-0.5-14.3,4.7c-2.7,5.3-0.5,11.7,4.7,14.3
		C152.9,28.6,159.4,26.5,162,21.2L162,21.2z"/>
	<path d="M85.3,7.3c-1.8-5.6-7.9-8.6-13.5-6.8C66.2,2.4,63.2,8.4,65,14c1.8,5.6,7.9,8.6,13.5,6.8C84.1,19,87.1,12.9,85.3,7.3
		L85.3,7.3z"/>
	<path d="M21.2,51.8C16,49.1,9.5,51.2,6.9,56.5c-2.7,5.3-0.5,11.7,4.7,14.3c5.3,2.7,11.7,0.5,14.3-4.7
		C28.6,60.8,26.5,54.4,21.2,51.8L21.2,51.8z"/>
	<path d="M7.3,128.5c-5.6,1.8-8.6,7.9-6.8,13.5c1.8,5.6,7.9,8.6,13.5,6.8c5.6-1.8,8.6-7.9,6.8-13.5C19,129.7,12.9,126.6,7.3,128.5
		L7.3,128.5z"/>
	<path d="M51.8,192.5c-2.7,5.3-0.5,11.7,4.7,14.3c5.3,2.7,11.7,0.5,14.3-4.7c2.7-5.3,0.5-11.7-4.7-14.3
		C60.8,185.2,54.4,187.3,51.8,192.5L51.8,192.5z"/>
	<path d="M128.5,206.4c1.8,5.6,7.9,8.6,13.5,6.8c5.6-1.8,8.6-7.9,6.8-13.5c-1.8-5.6-7.9-8.6-13.5-6.8
		C129.7,194.8,126.6,200.8,128.5,206.4L128.5,206.4z"/>
	<path d="M192.5,162c5.3,2.7,11.7,0.5,14.3-4.7c2.7-5.3,0.5-11.7-4.7-14.3c-5.3-2.7-11.7-0.5-14.3,4.7
		C185.2,152.9,187.3,159.4,192.5,162L192.5,162z"/>
</g>
</svg>
