<?xml version="1.0" encoding="utf-8"?>
<!-- Generator: Adobe Illustrator 25.0.0, SVG Export Plug-In . SVG Version: 6.00 Build 0)  -->
<svg version="1.1" id="Layer_1" xmlns="http://www.w3.org/2000/svg" xmlns:xlink="http://www.w3.org/1999/xlink" x="0px" y="0px"
	 viewBox="0 0 360 360" style="enable-background:new 0 0 360 360;" xml:space="preserve">
<style type="text/css">
	.st0{fill:#FFFFFF;}
</style>
<g>
	<path class="st0" d="M-145.9,226.1c-3.4-1.5-6.3-3.6-8.7-6.2c-2.4-2.6-4.3-5.7-5.7-9.2c-1.4-3.5-2-7.3-2-11.2v-0.2
		c0-4,0.7-7.7,2-11.2c1.4-3.5,3.2-6.5,5.6-9.1c2.4-2.6,5.3-4.6,8.6-6.2c3.4-1.5,7-2.3,11-2.3c4,0,7.7,0.8,11.1,2.3
		c3.4,1.6,6.3,3.6,8.7,6.2c2.4,2.6,4.3,5.7,5.7,9.2c1.4,3.5,2,7.3,2,11.2v0.2c0,4-0.7,7.7-2,11.2c-1.4,3.5-3.2,6.5-5.6,9.1
		c-2.4,2.6-5.3,4.6-8.6,6.2c-3.4,1.5-7,2.3-11,2.3C-138.8,228.4-142.5,227.7-145.9,226.1L-145.9,226.1z M-117.8,238.2
		c5.2-2.2,9.7-5.3,13.5-9.1c3.8-3.8,6.7-8.3,8.8-13.4c2.1-5.1,3.1-10.5,3.1-16.2v-0.2c0-5.7-1-11.1-3.1-16.2
		c-2.1-5.1-5-9.5-8.7-13.3c-3.7-3.8-8.2-6.8-13.4-9c-5.2-2.2-10.9-3.3-17.2-3.3s-12,1.1-17.2,3.4c-5.2,2.2-9.7,5.3-13.5,9.1
		c-3.8,3.8-6.7,8.3-8.8,13.4c-2.1,5.1-3.1,10.5-3.1,16.2v0.2c0,5.7,1,11.1,3.1,16.2c2.1,5.1,5,9.5,8.7,13.3c3.7,3.8,8.2,6.8,13.4,9
		c5.2,2.2,10.9,3.3,17.2,3.3C-128.7,241.6-123,240.4-117.8,238.2L-117.8,238.2z M-59.2,227.5v-22.3h22.6c5.6,0,9.8,0.9,12.6,2.8
		c2.7,1.9,4.1,4.6,4.1,8.1v0.2c0,3.7-1.4,6.5-4.2,8.4c-2.8,1.9-6.6,2.8-11.5,2.8H-59.2L-59.2,227.5z M-59.2,193.1v-21.6h20.5
		c4.6,0,8.2,0.9,10.6,2.7c2.4,1.8,3.6,4.4,3.6,7.6v0.2c0,3.7-1.4,6.5-4.2,8.3c-2.8,1.8-6.5,2.7-11.1,2.7H-59.2L-59.2,193.1z
		 M-73.4,240.2h37.6c4.5,0,8.6-0.5,12.3-1.5c3.7-1,6.9-2.4,9.5-4.2c2.6-1.9,4.7-4.2,6.1-7c1.4-2.8,2.1-6,2.1-9.6v-0.2
		c0-2.8-0.4-5.2-1.2-7.3c-0.8-2.1-1.9-3.9-3.3-5.5c-1.4-1.5-3.1-2.9-5.1-4c-2-1.1-4.1-2.1-6.5-3c1.5-0.8,2.9-1.7,4.3-2.8
		c1.4-1.1,2.7-2.3,3.7-3.8c1-1.4,1.9-3.1,2.5-5c0.7-1.9,1-4.1,1-6.6v-0.2c0-5.3-1.8-9.8-5.4-13.5c-4.8-4.8-11.9-7.2-21.2-7.2h-36.4
		V240.2L-73.4,240.2z M41.3,239.5c3.3-1.2,6.2-3,8.6-5.4c2.4-2.4,4.3-5.4,5.6-8.9c1.3-3.6,2-7.8,2-12.7v-53.7H42.8v53.3
		c0,5.4-1.2,9.4-3.5,12c-2.4,2.6-5.5,3.9-9.4,3.9c-3.5,0-6.5-0.8-9-2.5c-2.5-1.7-5-4-7.4-7l-9.4,9.6c2.7,3.7,6.2,6.8,10.3,9.4
		c4.2,2.5,9.4,3.8,15.7,3.8C34.2,241.3,37.9,240.7,41.3,239.5L41.3,239.5z M78.7,240.2h60.8v-12.9H92.9v-21.7h40.8v-12.9H92.9v-20.9
		h46v-12.9H78.7V240.2L78.7,240.2z M206.4,240.6c3.1-0.7,6-1.6,8.7-2.9c2.6-1.3,5.1-2.8,7.4-4.5c2.3-1.7,4.5-3.7,6.6-6l-9.2-9.3
		c-3.5,3.3-7,5.8-10.6,7.7c-3.6,1.9-7.8,2.8-12.8,2.8c-3.9,0-7.5-0.8-10.7-2.3c-3.3-1.5-6.1-3.6-8.5-6.2c-2.4-2.6-4.3-5.7-5.6-9.2
		c-1.3-3.5-2-7.3-2-11.2v-0.2c0-4,0.7-7.7,2-11.2c1.3-3.5,3.2-6.5,5.6-9.1c2.4-2.6,5.2-4.6,8.5-6.2c3.3-1.5,6.9-2.3,10.7-2.3
		c4.6,0,8.8,0.9,12.4,2.8c3.6,1.9,7.1,4.3,10.3,7.3l9.2-10.6c-1.9-1.9-4-3.6-6.2-5.1c-2.2-1.5-4.5-2.9-7.1-4c-2.6-1.1-5.4-2-8.4-2.6
		c-3.1-0.6-6.4-0.9-10.2-0.9c-6.2,0-11.9,1.1-17,3.3c-5.1,2.2-9.5,5.2-13.3,9.1c-3.7,3.8-6.6,8.3-8.7,13.4
		c-2.1,5.1-3.1,10.5-3.1,16.3v0.2c0,5.8,1.1,11.3,3.2,16.4c2.1,5.1,5,9.5,8.7,13.3c3.7,3.8,8.1,6.7,13.1,8.9
		c5,2.2,10.5,3.3,16.5,3.3C199.8,241.6,203.3,241.2,206.4,240.6L206.4,240.6z M265.5,240.2h14.4v-68.1h25.8v-13.2h-66v13.2h25.8
		V240.2L265.5,240.2z M362.8,239.7c3.6-1.1,6.6-2.7,9.1-4.8c2.5-2.1,4.5-4.6,5.9-7.7c1.4-3,2.1-6.4,2.1-10.2v-0.2
		c0-3.3-0.6-6.3-1.7-8.8c-1.1-2.5-2.8-4.7-5-6.6c-2.2-1.9-4.9-3.5-8.2-4.8c-3.3-1.3-7.1-2.5-11.4-3.6c-3.9-0.9-7.1-1.8-9.6-2.7
		c-2.5-0.9-4.5-1.8-5.9-2.7c-1.4-1-2.4-2.1-3-3.3c-0.5-1.2-0.8-2.6-0.8-4.1V180c0-2.7,1.2-5,3.5-6.9c2.3-1.9,5.6-2.8,9.8-2.8
		c3.7,0,7.4,0.7,11,2.1c3.6,1.4,7.3,3.5,11,6.2l7.7-10.8c-4.2-3.3-8.7-5.9-13.4-7.6c-4.8-1.7-10.1-2.6-16.1-2.6
		c-4,0-7.7,0.6-11.1,1.7c-3.4,1.2-6.3,2.8-8.7,4.8c-2.4,2.1-4.3,4.5-5.7,7.4c-1.4,2.9-2.1,6.1-2.1,9.6v0.2c0,3.7,0.6,6.9,1.8,9.5
		c1.2,2.6,3,4.9,5.2,6.7c2.3,1.8,5.1,3.4,8.5,4.6c3.4,1.3,7.2,2.4,11.6,3.4c3.8,0.9,6.9,1.7,9.3,2.6c2.4,0.9,4.2,1.8,5.6,2.8
		c1.4,1,2.3,2.1,2.8,3.2c0.5,1.1,0.8,2.4,0.8,3.9v0.2c0,3.1-1.3,5.6-3.9,7.4c-2.6,1.9-6.1,2.8-10.5,2.8c-5.1,0-9.7-0.9-13.7-2.7
		c-4-1.8-8-4.4-12-7.8l-8.6,10.2c4.9,4.4,10.2,7.7,15.9,9.8c5.7,2.1,11.7,3.2,18,3.2C355.3,241.3,359.2,240.8,362.8,239.7
		L362.8,239.7z"/>
	<path class="st0" d="M-177.1,124h22.5V94.9h38.5V76.1h-38.5V62.4h42.5V42.6h-65.1V124L-177.1,124z M-99.7,124H-77V42.6h-22.7V124
		L-99.7,124z M-60.5,124h22.2V79.3L-3.5,124h19.8V42.6H-5.9v43l-33.5-43h-21.1V124L-60.5,124z M62,92l9.2-23.1L80.2,92H62L62,92z
		 M25.8,124h23.7l5.8-14.5h31.4l5.9,14.5h24.2L82.2,42H60.4L25.8,124L25.8,124z M126.3,124h22.2V79.3l34.8,44.6h19.8V42.6h-22.2v43
		l-33.5-43h-21.1V124L126.3,124z M270.5,124.2c3.6-0.9,6.9-2.2,9.8-3.8c2.9-1.6,5.5-3.6,7.8-5.8c2.3-2.2,4.4-4.7,6.3-7.3l-17-12.1
		c-1.2,1.5-2.5,2.8-3.8,4c-1.3,1.2-2.6,2.2-4.1,3.1c-1.4,0.9-3,1.6-4.8,2s-3.7,0.7-5.8,0.7c-2.9,0-5.5-0.6-7.8-1.7
		c-2.4-1.1-4.4-2.7-6.1-4.6c-1.7-1.9-3-4.2-4-6.9c-1-2.7-1.5-5.5-1.5-8.5v-0.2c0-2.9,0.5-5.7,1.5-8.4c1-2.6,2.3-4.9,4-6.9
		c1.7-1.9,3.7-3.5,6.1-4.6c2.4-1.1,5-1.7,7.8-1.7c4,0,7.3,0.9,10.1,2.6c2.8,1.7,5.3,4,7.7,7l17-13.1c-1.8-2.5-3.8-4.8-6.1-6.9
		c-2.3-2.1-4.8-3.9-7.7-5.4c-2.8-1.5-5.9-2.7-9.4-3.5c-3.4-0.8-7.2-1.2-11.4-1.2c-6.2,0-11.9,1.1-17.1,3.3c-5.2,2.2-9.7,5.2-13.5,9
		c-3.8,3.8-6.8,8.3-8.9,13.5c-2.2,5.2-3.3,10.7-3.3,16.6v0.2c0,6,1.1,11.6,3.3,16.8c2.2,5.2,5.2,9.6,8.9,13.4
		c3.8,3.8,8.2,6.7,13.3,8.8c5.1,2.1,10.6,3.1,16.4,3.1C262.8,125.6,266.9,125.1,270.5,124.2L270.5,124.2z M306.1,124h22.7V42.6
		h-22.7V124L306.1,124z M374.9,92l9.2-23.1l9.1,23.1H374.9L374.9,92z M338.7,124h23.7l5.8-14.5h31.4l5.9,14.5h24.2L395.1,42h-21.7
		L338.7,124L338.7,124z M439.2,124h61.9v-19.8h-39.4V42.6h-22.5V124L439.2,124z"/>
	<path class="st0" d="M-158.7,313.4c1.4-0.3,2.7-0.7,3.9-1.3c1.2-0.6,2.3-1.3,3.3-2c1-0.8,2-1.7,3-2.7l-4.1-4.2
		c-1.6,1.5-3.2,2.6-4.8,3.5c-1.6,0.9-3.5,1.3-5.8,1.3c-1.7,0-3.4-0.3-4.8-1c-1.5-0.7-2.8-1.6-3.8-2.8c-1.1-1.2-1.9-2.6-2.5-4.2
		c-0.6-1.6-0.9-3.3-0.9-5v-0.1c0-1.8,0.3-3.5,0.9-5c0.6-1.6,1.4-2.9,2.5-4.1c1.1-1.2,2.4-2.1,3.8-2.8c1.5-0.7,3.1-1,4.8-1
		c2.1,0,4,0.4,5.6,1.3c1.6,0.8,3.2,1.9,4.7,3.3l4.1-4.8c-0.9-0.8-1.8-1.6-2.8-2.3c-1-0.7-2-1.3-3.2-1.8c-1.2-0.5-2.4-0.9-3.8-1.2
		c-1.4-0.3-2.9-0.4-4.6-0.4c-2.8,0-5.3,0.5-7.6,1.5c-2.3,1-4.3,2.4-6,4.1c-1.7,1.7-3,3.7-3.9,6c-0.9,2.3-1.4,4.7-1.4,7.3v0.1
		c0,2.6,0.5,5.1,1.4,7.4c0.9,2.3,2.3,4.3,3.9,6c1.7,1.7,3.6,3,5.9,4c2.3,1,4.7,1.5,7.4,1.5C-161.6,313.8-160.1,313.7-158.7,313.4
		L-158.7,313.4z M-132.6,307.6c-1-0.5-1.9-1.1-2.7-1.9c-0.7-0.8-1.3-1.8-1.7-2.8c-0.4-1.1-0.6-2.2-0.6-3.4v-0.1
		c0-1.2,0.2-2.3,0.6-3.4c0.4-1.1,0.9-2,1.7-2.8c0.7-0.8,1.6-1.4,2.6-1.9c1-0.5,2.2-0.7,3.4-0.7c1.2,0,2.4,0.2,3.4,0.7
		c1,0.5,1.9,1.1,2.7,1.9c0.7,0.8,1.3,1.7,1.7,2.8c0.4,1.1,0.6,2.2,0.6,3.5v0.1c0,1.2-0.2,2.3-0.6,3.4c-0.4,1.1-0.9,2-1.7,2.8
		c-0.7,0.8-1.6,1.4-2.6,1.9c-1,0.5-2.2,0.7-3.5,0.7C-130.5,308.3-131.6,308.1-132.6,307.6L-132.6,307.6z M-123.5,312.7
		c1.8-0.8,3.4-1.8,4.7-3.1c1.3-1.3,2.3-2.8,3.1-4.6c0.7-1.7,1.1-3.6,1.1-5.5v-0.1c0-2-0.4-3.8-1.1-5.6c-0.7-1.7-1.8-3.2-3.1-4.5
		c-1.3-1.3-2.9-2.3-4.7-3.1c-1.8-0.8-3.8-1.1-5.9-1.1c-2.1,0-4.1,0.4-5.9,1.2c-1.8,0.8-3.3,1.8-4.7,3.1c-1.3,1.3-2.3,2.8-3.1,4.6
		c-0.8,1.7-1.1,3.6-1.1,5.6v0.1c0,2,0.4,3.8,1.1,5.5c0.7,1.7,1.8,3.3,3.1,4.5c1.3,1.3,2.9,2.3,4.7,3.1c1.8,0.7,3.7,1.1,5.8,1.1
		C-127.3,313.8-125.3,313.4-123.5,312.7L-123.5,312.7z M-108.2,313.2h6.4v-15.5c0-2.2,0.5-3.8,1.6-5.1c1.1-1.2,2.5-1.8,4.3-1.8
		c1.8,0,3.1,0.6,4.1,1.7c1,1.1,1.5,2.8,1.5,5v15.7h6.4v-15.5c0-2.2,0.5-3.9,1.6-5.1c1.1-1.2,2.5-1.7,4.2-1.7c1.8,0,3.1,0.6,4.1,1.7
		c1,1.1,1.5,2.8,1.5,5v15.6h6.4v-17.6c0-3.4-0.9-6-2.6-7.8c-1.7-1.8-4.1-2.7-7.1-2.7c-2.1,0-3.9,0.4-5.4,1.3c-1.5,0.9-2.8,2.1-4,3.6
		c-0.7-1.5-1.8-2.7-3.2-3.6c-1.4-0.9-3-1.3-5-1.3c-1,0-2,0.1-2.8,0.4c-0.9,0.3-1.6,0.6-2.3,1.1c-0.7,0.5-1.3,1-1.8,1.5
		c-0.5,0.6-1,1.2-1.5,1.8v-4.2h-6.4V313.2L-108.2,313.2z M-58.5,313.2h6.4v-15.5c0-2.2,0.5-3.8,1.6-5.1c1.1-1.2,2.5-1.8,4.3-1.8
		c1.8,0,3.1,0.6,4.1,1.7c1,1.1,1.5,2.8,1.5,5v15.7h6.4v-15.5c0-2.2,0.5-3.9,1.6-5.1c1.1-1.2,2.5-1.7,4.2-1.7c1.8,0,3.1,0.6,4.1,1.7
		c1,1.1,1.5,2.8,1.5,5v15.6h6.4v-17.6c0-3.4-0.9-6-2.6-7.8c-1.7-1.8-4.1-2.7-7.1-2.7c-2.1,0-3.9,0.4-5.4,1.3c-1.5,0.9-2.8,2.1-4,3.6
		c-0.7-1.5-1.8-2.7-3.2-3.6c-1.4-0.9-3-1.3-5-1.3c-1,0-2,0.1-2.8,0.4c-0.9,0.3-1.6,0.6-2.3,1.1c-0.7,0.5-1.3,1-1.8,1.5
		c-0.5,0.6-1,1.2-1.5,1.8v-4.2h-6.4V313.2L-58.5,313.2z M1.1,307.6c-1-0.5-1.9-1.1-2.7-1.9c-0.7-0.8-1.3-1.8-1.7-2.8
		c-0.4-1.1-0.6-2.2-0.6-3.4v-0.1c0-1.2,0.2-2.3,0.6-3.4c0.4-1.1,0.9-2,1.7-2.8c0.7-0.8,1.6-1.4,2.6-1.9c1-0.5,2.2-0.7,3.4-0.7
		c1.2,0,2.4,0.2,3.4,0.7c1,0.5,1.9,1.1,2.6,1.9c0.7,0.8,1.3,1.7,1.7,2.8c0.4,1.1,0.6,2.2,0.6,3.5v0.1c0,1.2-0.2,2.3-0.6,3.4
		c-0.4,1.1-0.9,2-1.7,2.8c-0.7,0.8-1.6,1.4-2.6,1.9c-1,0.5-2.2,0.7-3.5,0.7C3.2,308.3,2.1,308.1,1.1,307.6L1.1,307.6z M10.2,312.7
		c1.8-0.8,3.4-1.8,4.7-3.1c1.3-1.3,2.3-2.8,3.1-4.6c0.7-1.7,1.1-3.6,1.1-5.5v-0.1c0-2-0.4-3.8-1.1-5.6c-0.7-1.7-1.8-3.2-3.1-4.5
		c-1.3-1.3-2.9-2.3-4.7-3.1S6.5,285,4.4,285c-2.1,0-4.1,0.4-5.9,1.2c-1.8,0.8-3.3,1.8-4.7,3.1c-1.3,1.3-2.3,2.8-3.1,4.6
		c-0.8,1.7-1.1,3.6-1.1,5.6v0.1c0,2,0.4,3.8,1.1,5.5c0.7,1.7,1.8,3.3,3.1,4.5c1.3,1.3,2.9,2.3,4.7,3.1c1.8,0.7,3.7,1.1,5.8,1.1
		C6.4,313.8,8.4,313.4,10.2,312.7L10.2,312.7z M35.4,307.7c-1-0.4-1.8-1-2.5-1.8c-0.7-0.8-1.3-1.7-1.7-2.8c-0.4-1.1-0.6-2.3-0.6-3.6
		v-0.1c0-1.4,0.2-2.6,0.6-3.7c0.4-1.1,1-2,1.7-2.8c0.7-0.8,1.6-1.4,2.5-1.8c1-0.4,2-0.6,3-0.6c1,0,2,0.2,3,0.6c1,0.4,1.8,1,2.6,1.8
		c0.7,0.8,1.3,1.7,1.7,2.8c0.4,1.1,0.7,2.3,0.7,3.6v0.1c0,1.3-0.2,2.5-0.7,3.6c-0.4,1.1-1,2-1.7,2.8c-0.7,0.8-1.6,1.4-2.6,1.8
		c-1,0.4-2,0.6-3,0.6C37.4,308.3,36.3,308.1,35.4,307.7L35.4,307.7z M42.6,312.3c1.5-1,2.8-2.2,3.8-3.7l-0.1,4.6h6.4V275h-6.4v14.9
		c-1-1.3-2.3-2.4-3.8-3.4c-1.5-1-3.4-1.5-5.6-1.5c-1.6,0-3.2,0.3-4.8,0.9c-1.5,0.6-2.9,1.6-4.1,2.8c-1.2,1.2-2.1,2.7-2.8,4.5
		c-0.7,1.8-1.1,3.8-1.1,6.1v0.1c0,2.3,0.4,4.3,1.1,6.1c0.7,1.8,1.7,3.3,2.9,4.5c1.2,1.2,2.5,2.1,4.1,2.8c1.5,0.6,3.1,0.9,4.8,0.9
		C39.2,313.8,41,313.3,42.6,312.3L42.6,312.3z M60.9,313.2h6.4v-27.6h-6.4V313.2L60.9,313.2z M60.7,281.4h6.9v-6h-6.9V281.4
		L60.7,281.4z M88,313.3c0.9-0.2,1.8-0.6,2.6-1v-5.2c-1.3,0.6-2.6,0.9-3.9,0.9c-1.1,0-1.9-0.3-2.5-0.8c-0.6-0.5-0.9-1.4-0.9-2.6V291
		h7.4v-5.4h-7.4V278h-6.4v7.6h-3.5v5.4h3.5v14.5c0,1.5,0.2,2.8,0.6,3.8c0.4,1,0.9,1.9,1.7,2.5c0.7,0.6,1.6,1.1,2.6,1.4
		c1,0.3,2.1,0.4,3.2,0.4C86,313.7,87.1,313.5,88,313.3L88,313.3z M97.3,313.2h6.4v-27.6h-6.4V313.2L97.3,313.2z M97.1,281.4h6.9v-6
		h-6.9V281.4L97.1,281.4z M116.7,297.5c0.3-2.2,1.1-3.9,2.3-5.3c1.3-1.3,2.9-2,4.8-2c1,0,2,0.2,2.8,0.6c0.8,0.4,1.5,0.9,2.1,1.5
		c0.6,0.6,1.1,1.4,1.4,2.3c0.3,0.9,0.6,1.8,0.7,2.8H116.7L116.7,297.5z M131.1,312.4c1.8-0.9,3.4-2.2,4.7-3.8l-3.7-3.3
		c-1.1,1.1-2.2,1.9-3.4,2.5c-1.1,0.6-2.5,0.8-4.1,0.8c-2.1,0-3.8-0.6-5.3-1.8c-1.4-1.2-2.3-2.9-2.7-5.2H137c0-0.3,0.1-0.6,0.1-0.9
		c0-0.3,0-0.6,0-0.9c0-2-0.3-3.9-0.8-5.7c-0.6-1.8-1.4-3.4-2.5-4.7c-1.1-1.4-2.5-2.4-4.1-3.2c-1.7-0.8-3.6-1.2-5.8-1.2
		c-2,0-3.8,0.4-5.4,1.1c-1.6,0.8-3.1,1.8-4.3,3.1c-1.2,1.3-2.1,2.8-2.8,4.6c-0.7,1.7-1,3.6-1,5.6v0.1c0,2.1,0.4,4.1,1.1,5.8
		c0.7,1.8,1.7,3.3,3,4.5c1.3,1.3,2.8,2.2,4.5,2.9c1.7,0.7,3.6,1,5.6,1C127.1,313.8,129.3,313.4,131.1,312.4L131.1,312.4z M157,313.2
		c1.3-0.4,2.3-0.9,3.3-1.6c0.9-0.7,1.6-1.6,2.2-2.7c0.5-1.1,0.8-2.3,0.8-3.8V305c0-1.3-0.3-2.3-0.8-3.2c-0.5-0.9-1.2-1.6-2-2.2
		c-0.8-0.6-1.7-1.1-2.7-1.5c-1-0.4-2-0.8-3-1.1c-0.8-0.2-1.6-0.5-2.3-0.8c-0.8-0.3-1.4-0.5-2-0.8c-0.6-0.3-1-0.6-1.4-1
		c-0.3-0.4-0.5-0.8-0.5-1.3V293c0-0.8,0.3-1.5,1-2c0.7-0.5,1.6-0.8,2.8-0.8c1.2,0,2.4,0.2,3.8,0.7c1.4,0.5,2.7,1.1,4,1.9l2.5-4.5
		c-1.5-1-3.1-1.8-4.9-2.3c-1.8-0.6-3.5-0.8-5.3-0.8c-1.4,0-2.6,0.2-3.8,0.6c-1.2,0.4-2.2,0.9-3.1,1.7c-0.9,0.7-1.6,1.6-2.1,2.7
		c-0.5,1-0.8,2.2-0.8,3.5v0.1c0,1.3,0.3,2.4,0.8,3.3c0.5,0.9,1.2,1.7,2,2.3c0.8,0.6,1.7,1.1,2.8,1.5c1,0.4,2,0.7,3.1,1
		c0.8,0.2,1.6,0.5,2.3,0.7c0.7,0.2,1.4,0.5,2,0.8c0.6,0.3,1,0.6,1.4,1c0.3,0.4,0.5,0.8,0.5,1.4v0.1c0,0.9-0.4,1.6-1.1,2.2
		c-0.8,0.5-1.8,0.8-3.2,0.8c-1.4,0-2.9-0.3-4.5-0.9c-1.6-0.6-3.1-1.4-4.6-2.5l-2.8,4.3c1.7,1.4,3.6,2.4,5.7,3.1c2,0.7,4.1,1.1,6,1.1
		C154.4,313.7,155.7,313.5,157,313.2L157,313.2z M192.4,295.6v-13.2h7.5c2.4,0,4.3,0.6,5.8,1.7c1.4,1.1,2.2,2.7,2.2,4.9v0.1
		c0,1.9-0.7,3.5-2.1,4.7c-1.4,1.2-3.4,1.8-5.8,1.8H192.4L192.4,295.6z M186.1,313.2h6.4v-11.8h7.3c2,0,3.9-0.3,5.7-0.8
		c1.8-0.5,3.3-1.3,4.7-2.4c1.3-1,2.4-2.3,3.1-3.9c0.8-1.6,1.2-3.4,1.2-5.4v-0.1c0-1.8-0.3-3.5-1-5c-0.6-1.5-1.6-2.8-2.8-3.9
		c-1.2-1.1-2.7-1.9-4.4-2.5c-1.7-0.6-3.7-0.9-5.8-0.9h-14.4V313.2L186.1,313.2z M237.3,303.2c0,0.9-0.2,1.7-0.5,2.4
		c-0.4,0.7-0.9,1.3-1.5,1.8c-0.7,0.5-1.4,0.9-2.3,1.2c-0.9,0.3-1.9,0.4-2.9,0.4c-1.5,0-2.8-0.3-3.8-1c-1-0.7-1.5-1.7-1.5-3v-0.1
		c0-1.3,0.6-2.4,1.7-3.1c1.1-0.8,2.7-1.1,4.7-1.1c1.2,0,2.4,0.1,3.5,0.3c1.1,0.2,2,0.5,2.9,0.8V303.2L237.3,303.2z M243.4,313.2
		v-16.4c0-3.7-1-6.6-3-8.6c-2-2-5-3.1-9.1-3.1c-2.3,0-4.2,0.2-5.8,0.6c-1.6,0.4-3.2,1-4.7,1.7l1.7,5.1c1.3-0.5,2.5-0.9,3.7-1.3
		c1.2-0.3,2.6-0.5,4.2-0.5c2.2,0,3.9,0.5,5,1.5c1.2,1,1.8,2.5,1.8,4.4v0.5c-1.1-0.3-2.2-0.6-3.4-0.8c-1.2-0.2-2.6-0.3-4.3-0.3
		c-1.6,0-3.1,0.2-4.5,0.5c-1.4,0.4-2.6,0.9-3.6,1.7c-1,0.8-1.8,1.7-2.3,2.8c-0.6,1.1-0.8,2.5-0.8,4v0.1c0,1.4,0.3,2.6,0.8,3.7
		c0.5,1.1,1.3,2,2.1,2.7c0.9,0.7,1.9,1.3,3.1,1.6c1.2,0.4,2.4,0.5,3.8,0.5c2.1,0,3.9-0.4,5.3-1.1c1.5-0.8,2.7-1.7,3.6-2.8v3.4H243.4
		L243.4,313.2z M259.6,321.3c0.9-0.3,1.7-0.7,2.4-1.3c0.7-0.6,1.4-1.4,2-2.4c0.6-1,1.2-2.2,1.7-3.6l11-28.4h-6.6l-7.2,20.5
		l-7.8-20.5h-6.7l11.5,27.6c-0.5,1.2-1.1,2.1-1.7,2.5c-0.6,0.5-1.3,0.7-2.2,0.7c-0.7,0-1.3-0.1-1.9-0.3c-0.6-0.2-1.2-0.4-1.8-0.8
		l-2.1,4.7c1,0.5,2,0.9,3,1.2c1,0.3,2.2,0.4,3.5,0.4C257.7,321.7,258.7,321.6,259.6,321.3L259.6,321.3z M292,307.6
		c-1-0.5-1.9-1.1-2.7-1.9c-0.7-0.8-1.3-1.8-1.7-2.8c-0.4-1.1-0.6-2.2-0.6-3.4v-0.1c0-1.2,0.2-2.3,0.6-3.4c0.4-1.1,0.9-2,1.7-2.8
		c0.7-0.8,1.6-1.4,2.6-1.9s2.2-0.7,3.4-0.7s2.4,0.2,3.4,0.7c1,0.5,1.9,1.1,2.7,1.9c0.7,0.8,1.3,1.7,1.7,2.8c0.4,1.1,0.6,2.2,0.6,3.5
		v0.1c0,1.2-0.2,2.3-0.6,3.4c-0.4,1.1-0.9,2-1.7,2.8c-0.7,0.8-1.6,1.4-2.6,1.9c-1,0.5-2.2,0.7-3.5,0.7
		C294.1,308.3,293,308.1,292,307.6L292,307.6z M301.2,312.7c1.8-0.8,3.4-1.8,4.7-3.1c1.3-1.3,2.3-2.8,3.1-4.6
		c0.7-1.7,1.1-3.6,1.1-5.5v-0.1c0-2-0.4-3.8-1.1-5.6c-0.7-1.7-1.8-3.2-3.1-4.5c-1.3-1.3-2.9-2.3-4.7-3.1c-1.8-0.8-3.8-1.1-5.9-1.1
		c-2.1,0-4.1,0.4-5.9,1.2c-1.8,0.8-3.3,1.8-4.7,3.1c-1.3,1.3-2.3,2.8-3.1,4.6c-0.8,1.7-1.1,3.6-1.1,5.6v0.1c0,2,0.4,3.8,1.1,5.5
		c0.7,1.7,1.8,3.3,3.1,4.5c1.3,1.3,2.9,2.3,4.7,3.1c1.8,0.7,3.7,1.1,5.8,1.1C297.4,313.8,299.3,313.4,301.2,312.7L301.2,312.7z
		 M331.2,312.3c1.4-1,2.5-2.1,3.4-3.5v4.3h6.4v-27.6h-6.4v15.5c0,2.2-0.6,3.8-1.7,5c-1.1,1.2-2.6,1.8-4.5,1.8
		c-1.9,0-3.3-0.6-4.3-1.7c-1-1.2-1.5-2.8-1.5-5v-15.6h-6.4v17.6c0,3.2,0.9,5.8,2.6,7.7c1.7,1.9,4.1,2.9,7.2,2.9
		C328.1,313.8,329.8,313.3,331.2,312.3L331.2,312.3z M361.3,313.3c0.9-0.2,1.8-0.6,2.6-1v-5.2c-1.3,0.6-2.6,0.9-3.9,0.9
		c-1.1,0-1.9-0.3-2.5-0.8c-0.6-0.5-0.9-1.4-0.9-2.6V291h7.4v-5.4h-7.4V278h-6.4v7.6h-3.5v5.4h3.5v14.5c0,1.5,0.2,2.8,0.6,3.8
		c0.4,1,0.9,1.9,1.7,2.5c0.7,0.6,1.6,1.1,2.6,1.4c1,0.3,2.1,0.4,3.2,0.4C359.4,313.7,360.4,313.5,361.3,313.3L361.3,313.3z
		 M395.7,313.2h6.5v-30.6h11.6v-6h-29.7v6h11.6V313.2L395.7,313.2z M424.7,297.5c0.3-2.2,1.1-3.9,2.3-5.3c1.3-1.3,2.9-2,4.8-2
		c1,0,2,0.2,2.8,0.6c0.8,0.4,1.5,0.9,2.1,1.5c0.6,0.6,1.1,1.4,1.4,2.3c0.3,0.9,0.6,1.8,0.7,2.8H424.7L424.7,297.5z M439.1,312.4
		c1.8-0.9,3.4-2.2,4.7-3.8l-3.7-3.3c-1.1,1.1-2.2,1.9-3.4,2.5c-1.1,0.6-2.5,0.8-4.1,0.8c-2.1,0-3.8-0.6-5.3-1.8
		c-1.4-1.2-2.3-2.9-2.7-5.2H445c0-0.3,0.1-0.6,0.1-0.9c0-0.3,0-0.6,0-0.9c0-2-0.3-3.9-0.8-5.7c-0.6-1.8-1.4-3.4-2.5-4.7
		c-1.1-1.4-2.5-2.4-4.1-3.2c-1.7-0.8-3.6-1.2-5.8-1.2c-2,0-3.8,0.4-5.4,1.1c-1.6,0.8-3.1,1.8-4.3,3.1c-1.2,1.3-2.1,2.8-2.8,4.6
		c-0.7,1.7-1,3.6-1,5.6v0.1c0,2.1,0.4,4.1,1.1,5.8c0.7,1.8,1.7,3.3,3,4.5c1.3,1.3,2.8,2.2,4.5,2.9c1.7,0.7,3.6,1,5.6,1
		C435.1,313.8,437.3,313.4,439.1,312.4L439.1,312.4z M451.5,313.2h6.4v-10.5c0-1.8,0.2-3.4,0.7-4.8c0.5-1.4,1.1-2.5,1.9-3.4
		c0.8-0.9,1.8-1.6,3-2c1.1-0.5,2.4-0.7,3.8-0.7h0.4v-6.7c-2.4-0.1-4.5,0.5-6.1,1.7s-2.8,2.9-3.7,5v-6.2h-6.4V313.2L451.5,313.2z
		 M473.1,313.2h6.4v-15.5c0-2.2,0.5-3.8,1.6-5.1c1.1-1.2,2.5-1.8,4.3-1.8s3.1,0.6,4.1,1.7c1,1.1,1.5,2.8,1.5,5v15.7h6.4v-15.5
		c0-2.2,0.5-3.9,1.6-5.1c1.1-1.2,2.5-1.7,4.2-1.7c1.8,0,3.1,0.6,4.1,1.7c1,1.1,1.5,2.8,1.5,5v15.6h6.4v-17.6c0-3.4-0.9-6-2.6-7.8
		c-1.7-1.8-4.1-2.7-7.1-2.7c-2.1,0-3.9,0.4-5.4,1.3c-1.5,0.9-2.8,2.1-4,3.6c-0.7-1.5-1.8-2.7-3.2-3.6c-1.4-0.9-3-1.3-5-1.3
		c-1,0-2,0.1-2.8,0.4c-0.9,0.3-1.6,0.6-2.3,1.1c-0.7,0.5-1.3,1-1.8,1.5c-0.5,0.6-1,1.2-1.5,1.8v-4.2h-6.4V313.2L473.1,313.2z
		 M536.2,313.2c1.3-0.4,2.3-0.9,3.3-1.6c0.9-0.7,1.6-1.6,2.2-2.7c0.5-1.1,0.8-2.3,0.8-3.8V305c0-1.3-0.3-2.3-0.8-3.2
		c-0.5-0.9-1.2-1.6-2-2.2c-0.8-0.6-1.7-1.1-2.7-1.5c-1-0.4-2-0.8-3-1.1c-0.8-0.2-1.6-0.5-2.3-0.8c-0.8-0.3-1.4-0.5-2-0.8
		c-0.6-0.3-1-0.6-1.4-1c-0.3-0.4-0.5-0.8-0.5-1.3V293c0-0.8,0.3-1.5,1-2c0.7-0.5,1.6-0.8,2.8-0.8c1.2,0,2.4,0.2,3.8,0.7
		c1.4,0.5,2.7,1.1,4,1.9l2.5-4.5c-1.5-1-3.1-1.8-4.9-2.3c-1.8-0.6-3.5-0.8-5.3-0.8c-1.4,0-2.6,0.2-3.8,0.6c-1.2,0.4-2.2,0.9-3.1,1.7
		c-0.9,0.7-1.6,1.6-2.1,2.7c-0.5,1-0.8,2.2-0.8,3.5v0.1c0,1.3,0.3,2.4,0.8,3.3c0.5,0.9,1.2,1.7,2,2.3c0.8,0.6,1.7,1.1,2.8,1.5
		c1,0.4,2,0.7,3.1,1c0.8,0.2,1.6,0.5,2.3,0.7c0.7,0.2,1.4,0.5,2,0.8c0.6,0.3,1,0.6,1.4,1c0.3,0.4,0.5,0.8,0.5,1.4v0.1
		c0,0.9-0.4,1.6-1.1,2.2c-0.8,0.5-1.8,0.8-3.2,0.8c-1.4,0-2.9-0.3-4.5-0.9c-1.6-0.6-3.1-1.4-4.6-2.5l-2.8,4.3
		c1.7,1.4,3.6,2.4,5.7,3.1c2,0.7,4.1,1.1,6,1.1C533.7,313.7,535,313.5,536.2,313.2L536.2,313.2z"/>
</g>
</svg>
