<?xml version="1.0" encoding="utf-8"?>
<!-- Generator: Adobe Illustrator 24.1.0, SVG Export Plug-In . SVG Version: 6.00 Build 0)  -->
<svg version="1.1" id="Layer_1" xmlns="http://www.w3.org/2000/svg" xmlns:xlink="http://www.w3.org/1999/xlink" x="0px" y="0px"
	 viewBox="0 0 720 241.04" style="enable-background:new 0 0 720 241.04;" xml:space="preserve">
<style type="text/css">
	.st0{fill:#00000A;}
</style>
<g>
	<path class="st0" d="M93.74,168.12c9.53-11.57,14.3-27.87,14.3-48.9c0-21.66-4.53-38.15-13.59-49.49
		C85.39,58.4,72.22,52.73,54.96,52.73c-19.3,0-33.35,6.91-42.13,20.71h-0.71L9.89,55.2H0v185.84h11.65v-48.72
		c0-6.91-0.16-13.26-0.47-19.07l-0.35-9.89h0.82c9.02,14.75,23.38,22.13,43.08,22.13C71.2,185.48,84.21,179.7,93.74,168.12
		L93.74,168.12z M21.71,162.3c-6.71-8.55-10.06-22.83-10.06-42.84v-3.77c0-18.52,3.49-31.87,10.47-40.07
		c6.98-8.2,17.93-12.3,32.84-12.3c27.15,0,40.72,18.79,40.72,56.38c0,17.5-3.59,31.11-10.77,40.84
		c-7.18,9.73-17.32,14.59-30.42,14.59C39.35,175.13,28.42,170.85,21.71,162.3L21.71,162.3z M164.76,0h-11.65v183.13h11.65V0
		L164.76,0z M289.15,183.78c6.12-1.14,12.79-3.28,20.01-6.41v-10.59c-8.47,3.38-15.48,5.57-21.01,6.59
		c-5.53,1.02-11.95,1.53-19.24,1.53c-14.99,0-26.5-4.63-34.54-13.89c-8.04-9.26-12.14-22.67-12.3-40.25h92.15v-9.42
		c0-18.05-4.35-32.32-13.06-42.84c-8.71-10.51-20.6-15.77-35.66-15.77c-17.03,0-30.56,6.14-40.6,18.42
		c-10.04,12.28-15.07,28.62-15.07,49.02c0,20.64,5.2,36.68,15.59,48.14c10.4,11.46,24.89,17.18,43.49,17.18
		C276.28,185.48,283.03,184.91,289.15,183.78L289.15,183.78z M292.21,75.62c6.43,8.36,9.65,19.95,9.65,34.78h-79.09
		c1.26-15.3,5.61-27.01,13.06-35.13c7.45-8.12,17.34-12.18,29.66-12.18C276.87,63.08,285.78,67.26,292.21,75.62L292.21,75.62z
		 M344.22,183.13h12.83l40.49-57.08l40.25,57.08h13.53l-47.08-65.79l43.9-62.14h-12.83l-37.78,53.9l-38.13-53.9h-13.42l44.61,62.14
		L344.22,183.13L344.22,183.13z M487.45,55.2v83.56c0,31.15,14.55,46.73,43.66,46.73c21.26,0,36.05-6.67,44.37-20.01h0.71
		l2.12,17.65h9.89V55.2h-11.53v70.62c0,17.34-3.59,29.86-10.77,37.54c-7.18,7.69-18.38,11.53-33.6,11.53
		c-11.38,0-19.77-2.92-25.19-8.77c-5.41-5.84-8.12-15.2-8.12-28.07V55.2H487.45L487.45,55.2z M716.06,134.88
		c-2.63-4.24-6.57-8.02-11.83-11.36c-5.26-3.33-13.65-7.08-25.19-11.24c-13.81-4.94-23.09-9.42-27.84-13.42
		c-4.75-4-7.12-9.34-7.12-16.01c0-6.12,3.06-10.91,9.18-14.36c6.12-3.45,14.4-5.18,24.83-5.18c10.75,0,22.4,2.59,34.96,7.77
		l4.35-10.59c-12.4-5.18-25.5-7.77-39.31-7.77c-14.44,0-25.68,2.79-33.72,8.36c-8.04,5.57-12.06,13.14-12.06,22.72
		c0,6.04,1.31,11.16,3.94,15.36c2.63,4.2,6.53,7.96,11.71,11.3c5.18,3.34,14.16,7.32,26.95,11.95c11.93,4.24,20.5,8.55,25.72,12.95
		c5.22,4.39,7.83,9.81,7.83,16.24c0,6.98-3.28,12.57-9.83,16.77c-6.55,4.2-16.14,6.3-28.78,6.3c-14.28,0-27.86-3.22-40.72-9.65
		v12.59c10.04,5.26,23.62,7.89,40.72,7.89c16.01,0,28.36-3.08,37.07-9.24c8.71-6.16,13.06-14.97,13.06-26.42
		C720,144.1,718.69,139.11,716.06,134.88L716.06,134.88z"/>
</g>
</svg>
