<?xml version="1.0" encoding="utf-8"?>
<!-- Generator: Adobe Illustrator 25.0.0, SVG Export Plug-In . SVG Version: 6.00 Build 0)  -->
<svg version="1.1" id="Layer_1" xmlns="http://www.w3.org/2000/svg" xmlns:xlink="http://www.w3.org/1999/xlink" x="0px" y="0px"
	 viewBox="0 0 720 130.3" style="enable-background:new 0 0 720 130.3;" xml:space="preserve">
<style type="text/css">
	.st0{fill:#00000A;}
</style>
<g>
	<path class="st0" d="M130.3,126.2V4.1c0-2.2-1.8-4.1-4.1-4.1H4.1C1.8,0,0,1.8,0,4.1v122.2c0,2.2,1.8,4.1,4.1,4.1h122.2
		C128.5,130.3,130.3,128.5,130.3,126.2L130.3,126.2z M93.1,81.5c0,5.8-3.3,10.7-8.6,13.2l-19.3,10.1L45.7,94.7
		c-5.2-2.6-8.5-7.4-8.5-13.2V71l11.6,3.5v7c0,1.3,0.8,2.1,2.1,2.8l14.2,7.1l14.2-7.1c1.3-0.7,2.1-1.5,2.1-2.8v-9.3L37.2,59.3V38.4
		c0-2.9,1.5-5.5,4-7c3.7-2.2,11.8-5.9,23.9-5.9c12.2,0,20.2,3.7,23.9,5.9c2.5,1.5,4,4.1,4,7v13.9l-11.6-3.5v-8.3
		c-3.2-1.5-8.6-3.3-16.3-3.3c-7.8,0-13.1,1.8-16.3,3.3v10.6L93.1,64V81.5L93.1,81.5z"/>
	<path class="st0" d="M194.3,65.1c-9.4,0-17.4-3-24.6-7.6l4.5-6.8c7.2,4.6,13.8,6.8,21.3,6.8c8.7,0,12.8-3.3,12.8-7.3
		c0-11.3-36.8-4.5-36.8-22.5c0-8.8,8.8-15.7,22.9-15.7c9.5,0,17.8,3.6,22.6,8.4l-5.5,5.6c-4.2-3.6-10.6-6.5-17.2-6.5
		c-8.3,0-13.8,3-13.8,7.2c0,10.5,36.9,4.9,36.9,22.6C217.2,58.8,207.7,65.1,194.3,65.1L194.3,65.1z M253.2,43.5v19.8h-8.9V43.4
		L222,13.8h10.4l16.7,22.9L265,13.8h10.3L253.2,43.5L253.2,43.5z M337.5,63.4V24.6l-2.5,5.3l-17.5,33.5h-5.4l-17.3-33.5l-2.5-5.3
		v38.8h-8.6V13.8h12.4l16.7,33.3l2.3,5.1l2.3-5.1l16.4-33.3h12.3v49.5H337.5L337.5,63.4z M394.7,28.6c0-4.1-2.8-7.1-9.5-7.1h-16.4
		v16h16.8c6.8,0,9.1-3.3,9.1-7.3V28.6L394.7,28.6z M384.2,44.7h-15.5v18.7h-8.9V13.8h24.4c13.5,0,19.5,6.1,19.5,14.7v1.3
		C403.7,38.5,397.7,44.7,384.2,44.7L384.2,44.7z M452.3,63.4V42h-29.8v21.3h-8.9V13.8h8.9v21h29.8v-21h8.9v49.5H452.3L452.3,63.4z
		 M515.1,35.6c0-8.5-5.9-15.8-16.7-15.8c-10.9,0-16.7,7.3-16.7,15.8v6c0,8.5,5.8,15.9,16.7,15.9c10.9,0,16.7-7.4,16.7-15.9V35.6
		L515.1,35.6z M498.4,65.1c-15.9,0-25.6-11.3-25.6-23.4v-6.2c0-12.3,9.7-23.4,25.6-23.4c16,0,25.7,11.1,25.7,23.4v6.2
		C524.1,53.8,514.3,65.1,498.4,65.1L498.4,65.1z M575.6,63.4l-27.7-31.3l-3.6-4.6v35.9h-8.8V13.8h8.3l26.8,31.4l3.6,4.6v-36h8.8
		v49.5H575.6L575.6,63.4z M622.6,43.5v19.8h-8.9V43.4l-22.3-29.6h10.4l16.7,22.9l15.8-22.9h10.3L622.6,43.5L622.6,43.5z"/>
	<path class="st0" d="M173.2,118.1h6.5v-9.4h5.1l6.3,9.4h7.6l-7.2-10.5c3.7-1.4,6.3-4.4,6.3-9.1v-0.1c0-2.8-0.9-5.1-2.5-6.7
		c-1.9-1.9-4.8-3-8.6-3h-13.5V118.1L173.2,118.1z M179.7,103v-8.5h6.4c3.2,0,5.1,1.4,5.1,4.2v0.1c0,2.5-1.8,4.2-5,4.2H179.7
		L179.7,103z M203.6,118.1H226v-5.8h-16v-6.2h13.9v-5.8h-13.9v-6h15.8v-5.8h-22.2V118.1L203.6,118.1z M242.3,118.6
		c6.4,0,10.8-3.3,10.8-9.1v-0.1c0-5.1-3.4-7.3-9.3-8.8c-5.1-1.3-6.4-1.9-6.4-3.9v-0.1c0-1.4,1.3-2.6,3.8-2.6c2.5,0,5.1,1.1,7.7,2.9
		l3.4-4.9c-3-2.4-6.6-3.7-10.9-3.7c-6,0-10.3,3.5-10.3,8.9v0.1c0,5.8,3.8,7.5,9.8,9c4.9,1.3,5.9,2.1,5.9,3.7v0.1
		c0,1.7-1.6,2.8-4.3,2.8c-3.4,0-6.1-1.4-8.8-3.6l-3.8,4.6C233.3,117,237.8,118.6,242.3,118.6L242.3,118.6z M265,118.1h6.5V94.7h9v-6
		H256v6h9V118.1L265,118.1z M295.5,118.1h6.6l2.7-6.6h12.5l2.7,6.6h6.8L314,88.5h-6L295.5,118.1L295.5,118.1z M307.1,105.8l3.9-9.6
		l3.9,9.6H307.1L307.1,105.8z M331.2,118.1h6.5v-8.8h4.9c6.6,0,11.9-3.5,11.9-10.3v-0.1c0-6-4.2-10.2-11.3-10.2h-12V118.1
		L331.2,118.1z M337.7,103.6v-9h5c3.2,0,5.3,1.6,5.3,4.5v0.1c0,2.5-1.9,4.5-5.1,4.5H337.7L337.7,103.6z M359.6,118.1h6.5V88.7h-6.5
		V118.1L359.6,118.1z M396.5,118.6c6.4,0,10.8-3.3,10.8-9.1v-0.1c0-5.1-3.4-7.3-9.3-8.8c-5.1-1.3-6.4-1.9-6.4-3.9v-0.1
		c0-1.4,1.3-2.6,3.8-2.6s5.1,1.1,7.7,2.9l3.4-4.9c-3-2.4-6.6-3.7-10.9-3.7c-6,0-10.3,3.5-10.3,8.9v0.1c0,5.8,3.8,7.5,9.8,9
		c4.9,1.3,5.9,2.1,5.9,3.7v0.1c0,1.7-1.6,2.8-4.3,2.8c-3.4,0-6.1-1.4-8.8-3.6l-3.8,4.6C387.6,117,392.1,118.6,396.5,118.6
		L396.5,118.6z M413,118.1h6.5v-8.8h4.9c6.6,0,11.9-3.5,11.9-10.3v-0.1c0-6-4.2-10.2-11.3-10.2h-12V118.1L413,118.1z M419.5,103.6
		v-9h5c3.2,0,5.3,1.6,5.3,4.5v0.1c0,2.5-1.9,4.5-5.1,4.5H419.5L419.5,103.6z M441.1,118.1h22.4v-5.8h-16v-6.2h13.9v-5.8h-13.9v-6
		h15.8v-5.8h-22.2V118.1L441.1,118.1z M483.1,118.7c5.7,0,9-2,12.1-5.3l-4.1-4.2c-2.3,2.1-4.4,3.5-7.7,3.5c-5,0-8.5-4.2-8.5-9.3
		v-0.1c0-5.1,3.6-9.2,8.5-9.2c2.9,0,5.3,1.3,7.5,3.3l4.1-4.8c-2.7-2.7-6.1-4.5-11.6-4.5c-9,0-15.3,6.9-15.3,15.2v0.1
		C468,112,474.4,118.7,483.1,118.7L483.1,118.7z M500.6,118.1h6.5V88.7h-6.5V118.1L500.6,118.1z M514.5,118.1h6.5v-11.4H535v-5.9
		h-14.1v-6.3h15.9v-5.9h-22.4V118.1L514.5,118.1z M542.4,118.1h6.5V88.7h-6.5V118.1L542.4,118.1z M570,118.7c5.7,0,9-2,12.1-5.3
		l-4.1-4.2c-2.3,2.1-4.4,3.5-7.7,3.5c-5,0-8.5-4.2-8.5-9.3v-0.1c0-5.1,3.6-9.2,8.5-9.2c2.9,0,5.3,1.3,7.5,3.3l4.1-4.8
		c-2.7-2.7-6.1-4.5-11.6-4.5c-9,0-15.3,6.9-15.3,15.2v0.1C554.9,112,561.3,118.7,570,118.7L570,118.7z M584.7,118.1h6.6l2.7-6.6
		h12.5l2.7,6.6h6.8l-12.6-29.7h-6L584.7,118.1L584.7,118.1z M596.3,105.8l3.9-9.6l3.9,9.6H596.3L596.3,105.8z M623.5,118.1h6.5V94.7
		h9v-6h-24.4v6h9V118.1L623.5,118.1z M644.2,118.1h6.5V88.7h-6.5V118.1L644.2,118.1z M672.4,118.7c9.1,0,15.7-6.9,15.7-15.2v-0.1
		c0-8.4-6.5-15.1-15.6-15.1c-9.1,0-15.7,6.9-15.7,15.2v0.1C656.8,111.9,663.3,118.7,672.4,118.7L672.4,118.7z M672.5,112.7
		c-5.2,0-8.9-4.2-8.9-9.3v-0.1c0-5.1,3.6-9.2,8.8-9.2s8.9,4.2,8.9,9.3v0.1C681.3,108.6,677.7,112.7,672.5,112.7L672.5,112.7z
		 M693.8,118.1h6.4V99.4l14.3,18.7h5.5V88.7h-6.4v18.1l-13.8-18.1h-6V118.1L693.8,118.1z"/>
</g>
</svg>
