<?xml version="1.0" encoding="utf-8"?>
<!-- Generator: Adobe Illustrator 28.0.0, SVG Export Plug-In . SVG Version: 6.00 Build 0)  -->
<svg version="1.1" id="Layer_1" xmlns="http://www.w3.org/2000/svg" xmlns:xlink="http://www.w3.org/1999/xlink" x="0px" y="0px"
	 viewBox="0 0 720 300.7" style="enable-background:new 0 0 720 300.7;" xml:space="preserve">
<style type="text/css">
	.st0{fill:#00B5E3;}
	.st1{fill:#0076A5;}
	.st2{fill:url(#SVGID_1_);}
	.st3{fill:url(#SVGID_00000145028539653594047100000004133962526902533304_);}
	.st4{fill:url(#SVGID_00000087372223592713640050000013686438628765749423_);}
	.st5{fill:#0087BF;}
</style>
<g>
	<path class="st0" d="M720,259.7v-32.2h-22.3v13.2h7.9V258c0,0.2-0.2,0.5-0.5,0.5h-13.4c-0.4,0-0.5-0.2-0.5-0.5v-52.9
		c0-0.4,0.1-0.5,0.5-0.5h13.4c0.2,0,0.5,0.1,0.5,0.5v10.7H720v-12.4c0-7.1-4.9-12.1-12.2-12.1h-18.8c-7.1,0-12.1,4.9-12.1,12.1v56.5
		c0,7.3,4.9,12.2,12.1,12.2h18.8C715,271.8,720,266.9,720,259.7 M666.8,271.6v-80.2h-14v42.7l-0.4-1.7l-13.3-41h-15.3v80.2H638v-48
		l0.4,1.6l15.6,46.4L666.8,271.6L666.8,271.6z M613.6,191.4h-14.3v80.2h14.3V191.4z M589.1,271.6v-80.2h-14v42.7l-0.4-1.7l-13.3-41
		h-15.3v80.2h14v-48l0.4,1.6l15.6,46.4L589.1,271.6L589.1,271.6z M536,271.6v-80.2h-14v42.7l-0.4-1.7l-13.3-41H493v80.2h14v-48
		l0.4,1.6l15.6,46.4L536,271.6L536,271.6z M454.5,248.1l5.9-30.5l0.4-2.8l0.4,2.8l5.8,30.5L454.5,248.1L454.5,248.1z M471.6,271.6
		h15l-17.2-80.2h-17.3L435,271.6h15l2.2-10.8h17.4L471.6,271.6z M428.7,259.6v-12.4h-14.3V258c0,0.2-0.2,0.5-0.5,0.5h-13.4
		c-0.4,0-0.5-0.2-0.5-0.5v-52.9c0-0.4,0.1-0.5,0.5-0.5h13.4c0.2,0,0.5,0.1,0.5,0.5v10.7h14.3v-12.4c0-7-5-12.1-12.2-12.1h-18.9
		c-7,0-12.1,5-12.1,12.1v56.3c0,7.1,5,12.2,12.1,12.2h18.8C423.6,271.7,428.7,266.6,428.7,259.6 M361.2,247.7V258
		c0,0.2-0.2,0.5-0.5,0.5h-13.4c-0.4,0-0.5-0.2-0.5-0.5v-10.7h-14.3v12.4c0,7.3,4.8,12.2,12.1,12.2h18.8c7.3,0,12.2-4.9,12.2-12.2
		v-10.7c0-4.9-1.8-8.9-5-12.1l-23.1-22.9c-0.4-0.4-0.5-0.6-0.5-1V205c0-0.4,0.1-0.5,0.5-0.5h13.4c0.2,0,0.5,0.1,0.5,0.5v10.7h14.3
		v-12.4c0-7.1-4.9-12.1-12.2-12.1h-18.9c-7.3,0-12.1,4.9-12.1,12.1v8.5c0,4.9,1.7,8.9,5,12.1l23.1,22.9
		C360.9,246.9,361.2,247.2,361.2,247.7"/>
	<path class="st0" d="M529.4,175.4v-13.2h-22.9v-22.3h17.2v-12.5h-17.2v-19h22.9V95.1h-37.2v80.2H529.4z M467,162.2h-13.9v-53.8H467
		c0.2,0,0.5,0.1,0.5,0.5v52.9C467.4,162,467.2,162.2,467,162.2 M481.7,163.2v-56c0-7.1-4.9-12.1-12.2-12.1h-30.8v80.2h30.8
		C476.8,175.4,481.7,170.5,481.7,163.2 M414.3,108.8v52.9c0,0.2-0.2,0.5-0.5,0.5h-13.4c-0.4,0-0.5-0.2-0.5-0.5v-52.9
		c0-0.4,0.1-0.5,0.5-0.5h13.4C414.1,108.3,414.3,108.4,414.3,108.8 M428.6,163.4v-56.5c0-7.1-4.9-12.1-12.2-12.1h-18.8
		c-7.1,0-12.1,4.9-12.1,12.1v56.5c0,7.3,4.9,12.2,12.1,12.2h18.8C423.7,175.6,428.6,170.6,428.6,163.4 M375.5,163.3v-12.4h-14.3
		v10.7c0,0.2-0.2,0.5-0.5,0.5h-13.4c-0.4,0-0.5-0.2-0.5-0.5v-52.9c0-0.4,0.1-0.5,0.5-0.5h13.4c0.2,0,0.5,0.1,0.5,0.5v10.7h14.3
		v-12.5c0-7-5-12.1-12.2-12.1h-18.8c-7.1,0.1-12.1,5.1-12.1,12.1v56.4c0,7.1,5,12.2,12.1,12.2h18.8
		C370.4,175.5,375.5,170.5,375.5,163.3"/>
	<polygon class="st1" points="332.5,38.7 332.5,75.6 340.6,75.6 340.6,61.3 358.2,61.3 358.2,53.9 340.6,53.9 340.6,46 360.7,46 
		360.7,38.7 	"/>
	<rect x="368" y="38.7" class="st1" width="8.1" height="37.1"/>
	<polygon class="st1" points="385.3,38.7 392.8,38.7 410.2,61.4 410.2,38.7 418.2,38.7 418.2,75.6 411.3,75.6 393.3,52.1 
		393.3,75.6 385.3,75.6 	"/>
	<path class="st1" d="M456,57.2L456,57.2c0-6.4-4.7-11.7-11.2-11.7c-6.6,0-11.1,5.2-11.1,11.5v0.1c0,6.3,4.6,11.6,11.2,11.6
		S456,63.5,456,57.2L456,57.2z M425.2,57.2L425.2,57.2c0-10.7,8.3-19.2,19.7-19.2c11.4,0,19.6,8.5,19.6,19v0.1
		c0,10.6-8.3,19.1-19.7,19.1C433.4,76.3,425.2,67.8,425.2,57.2"/>
	<path class="st1" d="M468.6,70.2l4.8-5.8c3.3,2.7,6.8,4.5,11,4.5c3.3,0,5.4-1.3,5.4-3.5v-0.2c0-2.1-1.2-3.1-7.4-4.7
		c-7.4-1.9-12.3-4-12.3-11.3v-0.1c0-6.7,5.4-11.1,12.9-11.1c5-0.1,9.9,1.6,13.8,4.7l-4.2,6.1c-3.3-2.3-6.5-3.7-9.6-3.7
		s-4.7,1.4-4.7,3.2v0.1c0,2.5,1.6,3.2,8,4.9c7.5,2,11.7,4.6,11.7,11.1v0.1c0,7.4-5.6,11.5-13.6,11.5C478.5,76.2,473,74.1,468.6,70.2
		"/>
</g>
<g>
	
		<linearGradient id="SVGID_1_" gradientUnits="userSpaceOnUse" x1="0" y1="151.65" x2="139.1" y2="151.65" gradientTransform="matrix(1 0 0 -1 0 302)">
		<stop  offset="0" style="stop-color:#0076A5"/>
		<stop  offset="1" style="stop-color:#00B5E3"/>
	</linearGradient>
	<path class="st2" d="M139.1,0l-5.5,3.7C111.7,18.5,88.4,28.1,64.3,32c-17,2.9-35.1,2.9-52.2,0L0,30l0.7,12.4
		c2.6,46.4,12.2,90.7,28.4,131.5c25.1,63,65,96.4,104.5,123.1l5.5,3.7v-47.9l0,0c-32.4-22.5-57.5-46.9-74.4-89.4
		C53.3,134.8,46.2,104,43.5,71.6C56,72.8,68.8,72.4,81,70.3c20.2-3.3,39.7-10.9,58.1-22.6V0L139.1,0z"/>
	<g>
		
			<linearGradient id="SVGID_00000080206752733285461990000006783214934966819719_" gradientUnits="userSpaceOnUse" x1="139.1" y1="247.6" x2="278.2" y2="247.6" gradientTransform="matrix(1 0 0 -1 0 302)">
			<stop  offset="0" style="stop-color:#0076A5"/>
			<stop  offset="1" style="stop-color:#00B5E3"/>
		</linearGradient>
		<path style="fill:url(#SVGID_00000080206752733285461990000006783214934966819719_);" d="M266,32c-17,2.9-35.1,2.9-52.2,0
			c-24.1-4-47.4-13.5-69.3-28.3L139.1,0v47.7c18.4,11.7,37.9,19.3,58,22.6c12.2,2.1,25.1,2.5,37.6,1.3c-1.1,12.6-2.8,25-5.2,37.2
			c8.9-4.3,23.9-9.8,41-9.3c3.5-18.6,5.9-37.6,7-57l0.7-12.4L266,32z"/>
		
			<linearGradient id="SVGID_00000160182729749806760570000002119329705240970166_" gradientUnits="userSpaceOnUse" x1="139" y1="91.05" x2="257.3" y2="91.05" gradientTransform="matrix(1 0 0 -1 0 302)">
			<stop  offset="0" style="stop-color:#0076A5"/>
			<stop  offset="1" style="stop-color:#00B5E3"/>
		</linearGradient>
		<path style="fill:url(#SVGID_00000160182729749806760570000002119329705240970166_);" d="M248.1,121.2l-68.8,58l22.2,9
			c-16,28-37,46.9-62.5,64.6l0,0v47.9l5.5-3.7c33.1-22.4,66.6-49.6,91.3-95l21.5,8.7L248.1,121.2z"/>
	</g>
	<polygon class="st0" points="171.5,89.2 171.5,115 106.6,135.8 106.6,110.1 171.5,89.2 	"/>
	<polygon class="st0" points="106.6,152.1 106.6,197.7 131.9,197.7 131.9,169.7 171.5,157 171.5,131.3 	"/>
	<path class="st5" d="M171.5,131.2C171.5,131.1,171.5,131.1,171.5,131.2c0-0.1-0.1-0.1-0.1-0.1l-25-8l-39.9,12.8v0.1v0.1l0,0l25,8
		l39.8-12.8L171.5,131.2L171.5,131.2z"/>
</g>
</svg>
