<?xml version="1.0" encoding="utf-8"?>
<!-- Generator: Adobe Illustrator 22.1.0, SVG Export Plug-In . SVG Version: 6.00 Build 0)  -->
<svg version="1.1" id="Layer_1" xmlns="http://www.w3.org/2000/svg" xmlns:xlink="http://www.w3.org/1999/xlink" x="0px" y="0px"
	 viewBox="0 0 670.2 182.8" style="enable-background:new 0 0 670.2 182.8;" xml:space="preserve">
<style type="text/css">
	.st0{fill:#00588A;}
</style>
<path class="st0" d="M118,102.4c0,14-11.7,19.5-25.6,19.5c-15,0-24.9-6.1-31.5-11.7l6.5-7.7c4.7,4,12.9,10,25.1,10
	c7.9,0,14.2-2.9,14.2-8.8c0-6.4-6.2-7.8-15.6-8.5C78.6,94.2,64,93.1,64,78.9c0-13.8,12.7-17.9,23.4-17.9c12,0,22,4.6,26.7,8
	l-6.6,7.8c-3.3-2.7-10.5-6.4-20.5-6.4c-6.3,0-11.9,2.2-11.9,7.6c0,5.7,8,6,16.1,6.6C101.7,85.4,118,86.5,118,102.4z M226.7,95.3
	h-0.2l-19.4-32.7h-11.1v57.4h10.8V83.9h0.4l17.6,29.5h2.5l17.6-29.5h0.4v36.2h11.3V62.7h-10.7L226.7,95.3z M380.9,85.4h-29.1V62.7
	h-11.3v57.4h11.3v-25h29.1v25h11.3V62.7h-11.3V85.4z M438.6,61c-17.5,0-31.2,13.6-31.2,30.3c0,17,13.7,30.5,31.2,30.5
	c17.5,0,31.5-13.5,31.5-30.5C470.1,74.5,456.1,61,438.6,61z M438.6,112c-10.9,0-19.4-9.4-19.4-20.7c0-11.2,8.5-20.4,19.4-20.4
	c11,0,19.7,9.2,19.7,20.4C458.3,102.6,449.7,112,438.6,112z M526.5,100.4L526.5,100.4l-31.3-37.7h-9.8v57.4h11.3V82.4h0.1l31.2,37.7
	h9.8V62.7h-11.3V100.4z M596.3,62.7L580.2,90h-0.3l-16.2-27.3H550l24,38.3v19.1h11.3V101l24-38.3H596.3z M155.8,90h-0.3l-16.2-27.3
	h-13.7l24,38.3v19.1h11.2V101l24-38.3H172L155.8,90z M303.8,62.7h-29.7v57.4h11.2v-18.7l18.5,0c8.4,0,13.8-2.3,17.5-5.9
	c3.6-3.4,5.8-8.2,5.8-13.5c0-4.7-1.7-9-5-12.6C318.3,65.1,312.6,62.7,303.8,62.7z M313.1,88.6c-2.7,2.6-6.2,2.9-8.9,2.9l-18.8,0
	V72.4h18.8c3,0,6.5,0.4,9.2,3.2c1.6,1.7,2.6,3.9,2.6,6.4C315.9,84.4,314.9,86.9,313.1,88.6z"/>
</svg>
