<?xml version="1.0" encoding="utf-8"?>
<!-- Generator: Adobe Illustrator 25.0.0, SVG Export Plug-In . SVG Version: 6.00 Build 0)  -->
<svg version="1.1" id="Layer_1" xmlns="http://www.w3.org/2000/svg" xmlns:xlink="http://www.w3.org/1999/xlink" x="0px" y="0px"
	 viewBox="0 0 504 504" style="enable-background:new 0 0 504 504;" xml:space="preserve">
<style type="text/css">
	.st0{fill:#000029;}
	.st1{fill:#008FFF;}
</style>
<g>
	<path class="st0" d="M504,488.3V15.7C504,7,497,0,488.3,0H15.7C7,0,0,7,0,15.7v472.7C0,497,7,504,15.7,504h472.7
		C497,504,504,497,504,488.3L504,488.3z"/>
	<path class="st1" d="M360.1,202.4v-53.9c0-11-6-21.4-15.6-27.1C330.2,113,299,98.8,252,98.8s-78.2,14.2-92.6,22.7
		c-9.6,5.7-15.6,16-15.6,27.1v80.9L315.1,279v36c0,4.9-3.1,8.3-8.3,10.8L252,353.4l-55.1-27.6c-4.9-2.4-8-5.8-8-10.7v-27l-45.1-13.5
		v40.5c0,22.3,12.8,41.2,33,51.1l75.1,39l74.8-38.9c20.6-10,33.3-28.9,33.3-51.2v-67.6l-171.2-49.6v-41.1
		c12.2-5.9,33.1-12.9,63.1-12.9s50.8,7,63.1,12.9v32.1L360.1,202.4L360.1,202.4z"/>
</g>
</svg>
