<?xml version="1.0" encoding="utf-8"?>
<!-- Generator: Adobe Illustrator 28.0.0, SVG Export Plug-In . SVG Version: 6.00 Build 0)  -->
<svg version="1.1" id="Layer_1" xmlns="http://www.w3.org/2000/svg" xmlns:xlink="http://www.w3.org/1999/xlink" x="0px" y="0px"
	 viewBox="0 0 721.8 300.7" style="enable-background:new 0 0 721.8 300.7;" xml:space="preserve">
<path d="M171.5,131.3v-0.1V131.3L171.5,131.3L171.5,131.3z M169.1,130.3l-19.8-6.3l-40.2,12.9l19.9,6.4L169.1,130.3L169.1,130.3z"/>
<path d="M139.1,0l-5.5,3.7C111.7,18.5,88.4,28.1,64.3,32c-17,2.9-35.1,2.9-52.2,0L0,30l0.7,12.4c2.6,46.4,12.2,90.7,28.4,131.5
	c25,63,65,96.4,104.5,123.1l5.5,3.7v-47.9l0,0c-32.4-22.5-57.5-46.9-74.4-89.4C53.3,134.8,46.2,104,43.5,71.6
	C56,72.8,68.8,72.4,81,70.3c20.2-3.3,39.7-10.9,58.1-22.6V0L139.1,0z"/>
<path d="M277.5,42.4l0.7-12.4L266,32c-17,2.9-35.1,2.9-52.2,0c-24.1-4-47.4-13.5-69.3-28.3L139.1,0v47.7
	c18.4,11.7,37.9,19.3,58,22.6c12.2,2.1,25.1,2.5,37.6,1.3c-1.1,12.6-2.8,25-5.2,37.2c8.9-4.3,23.9-9.8,41-9.3
	C274,80.9,276.4,61.9,277.5,42.4L277.5,42.4z M139.1,252.8L139.1,252.8v47.9l5.5-3.7c36.1-24.4,72.6-54.5,97.7-107.6
	c-7.6-1.1-13.9-2.2-14.6-3.1c-1.1-1.3-11.3-6.1-19.8-10.2C191.2,210.9,168.1,232.6,139.1,252.8L139.1,252.8z"/>
<polygon points="179.4,179.2 179.4,179.2 257.3,210.7 257.3,210.7 248.1,121.2 248.1,121.2 "/>
<polygon points="171.5,89.2 171.5,115 106.6,135.8 106.6,110.1 171.5,89.2 "/>
<polygon points="106.6,152.1 106.6,197.7 131.9,197.7 131.9,169.7 171.5,157 171.5,131.3 "/>
<g>
	<path d="M721.8,259.4v-32.2h-22.3v13.2h7.9v17.3c0,0.2-0.2,0.5-0.5,0.5h-13.4c-0.4,0-0.5-0.2-0.5-0.5v-52.9c0-0.4,0.1-0.5,0.5-0.5
		H707c0.2,0,0.5,0.1,0.5,0.5v10.7h14.3V203c0-7.1-4.9-12.1-12.2-12.1h-18.8c-7.1,0-12.1,4.9-12.1,12.1v56.5
		c0,7.3,4.9,12.2,12.1,12.2h18.8C716.8,271.6,721.8,266.7,721.8,259.4 M668.6,271.4v-80.2h-14v42.7l-0.4-1.7l-13.3-41h-15.3v80.2
		h14.1v-48l0.4,1.6l15.6,46.4L668.6,271.4L668.6,271.4z M615.4,191.2h-14.3v80.2h14.3V191.2z M590.9,271.4v-80.2h-14v42.7l-0.4-1.7
		l-13.3-41h-15.3v80.2h14v-48l0.4,1.6l15.6,46.4L590.9,271.4L590.9,271.4z M537.8,271.4v-80.2h-14v42.7l-0.4-1.7l-13.3-41h-15.3
		v80.2h14v-48l0.4,1.6l15.6,46.4L537.8,271.4L537.8,271.4z M456.3,247.8l5.9-30.5l0.4-2.8l0.4,2.8l5.8,30.5L456.3,247.8L456.3,247.8
		z M473.4,271.4h15l-17.2-80.2h-17.3l-17.2,80.2h15l2.2-10.8h17.4L473.4,271.4z M430.5,259.3V247h-14.3v10.7c0,0.2-0.2,0.5-0.5,0.5
		h-13.4c-0.4,0-0.5-0.2-0.5-0.5v-52.9c0-0.4,0.1-0.5,0.5-0.5h13.4c0.2,0,0.5,0.1,0.5,0.5v10.7h14.3V203c0-7-5-12.1-12.2-12.1h-18.9
		c-7,0-12.1,5-12.1,12.1v56.3c0,7.1,5,12.2,12.1,12.2h18.8C425.4,271.5,430.5,266.4,430.5,259.3 M363,247.4v10.3
		c0,0.2-0.2,0.5-0.5,0.5h-13.4c-0.4,0-0.5-0.2-0.5-0.5V247h-14.3v12.4c0,7.3,4.8,12.2,12.1,12.2h18.8c7.3,0,12.2-4.9,12.2-12.2
		v-10.7c0-4.9-1.8-8.9-5-12.1l-23.1-22.9c-0.4-0.4-0.5-0.6-0.5-1v-7.9c0-0.4,0.1-0.5,0.5-0.5h13.4c0.2,0,0.5,0.1,0.5,0.5v10.7h14.3
		v-12.4c0-7.1-4.9-12.1-12.2-12.1h-18.9c-7.3,0-12.1,4.9-12.1,12.1v8.5c0,4.9,1.7,8.9,5,12.1l23.1,22.9
		C362.7,246.7,363,247,363,247.4"/>
	<path d="M531.2,175.1v-13.2h-22.9v-22.3h17.2v-12.5h-17.2v-19h22.9V94.9h-37.2v80.2H531.2z M468.8,161.9H455v-53.8h13.9
		c0.2,0,0.5,0.1,0.5,0.5v52.9C469.2,161.7,469,161.9,468.8,161.9 M483.5,163v-56c0-7.1-4.9-12.1-12.2-12.1h-30.8v80.2h30.8
		C478.6,175.1,483.5,170.2,483.5,163 M416.1,108.6v52.9c0,0.2-0.2,0.5-0.5,0.5h-13.4c-0.4,0-0.5-0.2-0.5-0.5v-52.9
		c0-0.4,0.1-0.5,0.5-0.5h13.4C415.9,108.1,416.1,108.2,416.1,108.6 M430.4,163.2v-56.5c0-7.1-4.9-12.1-12.2-12.1h-18.8
		c-7.1,0-12.1,4.9-12.1,12.1v56.5c0,7.3,4.9,12.2,12.1,12.2h18.8C425.5,175.3,430.4,170.4,430.4,163.2 M377.3,163.1v-12.4H363v10.7
		c0,0.2-0.2,0.5-0.5,0.5h-13.4c-0.4,0-0.5-0.2-0.5-0.5v-52.9c0-0.4,0.1-0.5,0.5-0.5h13.4c0.2,0,0.5,0.1,0.5,0.5v10.7h14.3v-12.5
		c0-7-5-12.1-12.2-12.1h-18.8c-7.1,0.1-12.1,5.1-12.1,12.1v56.4c0,7.1,5,12.2,12.1,12.2h18.8C372.2,175.2,377.3,170.2,377.3,163.1"
		/>
	<polygon points="334.3,38.4 334.3,75.4 342.4,75.4 342.4,61 360,61 360,53.7 342.4,53.7 342.4,45.8 362.5,45.8 362.5,38.4 	"/>
	<rect x="369.8" y="38.4" width="8.1" height="37.1"/>
	<polygon points="387.1,38.4 394.6,38.4 412,61.1 412,38.4 420,38.4 420,75.4 413.1,75.4 395.1,51.9 395.1,75.4 387.1,75.4 	"/>
	<path d="M457.8,57L457.8,57c0-6.4-4.7-11.7-11.2-11.7c-6.6,0-11.1,5.2-11.1,11.5v0.1c0,6.3,4.6,11.6,11.2,11.6S457.8,63.3,457.8,57
		L457.8,57z M427,57L427,57c0-10.7,8.3-19.2,19.7-19.2s19.6,8.5,19.6,19v0.1c0,10.6-8.3,19.1-19.7,19.1C435.2,76,427,67.5,427,57"/>
	<path d="M470.4,70l4.8-5.8c3.3,2.7,6.8,4.5,11,4.5c3.3,0,5.4-1.3,5.4-3.5v-0.2c0-2.1-1.2-3.1-7.4-4.7c-7.4-1.9-12.3-4-12.3-11.3V49
		c0-6.7,5.4-11.1,12.9-11.1c5-0.1,9.9,1.6,13.8,4.7l-4.2,6.1c-3.3-2.3-6.5-3.7-9.6-3.7s-4.7,1.4-4.7,3.2v0.1c0,2.5,1.6,3.2,8,4.9
		c7.5,2,11.7,4.6,11.7,11.1v0.1c0,7.4-5.6,11.5-13.6,11.5C480.3,75.9,474.8,73.9,470.4,70"/>
</g>
</svg>
