<?xml version="1.0" encoding="utf-8"?>
<!-- Generator: Adobe Illustrator 25.4.1, SVG Export Plug-In . SVG Version: 6.00 Build 0)  -->
<svg version="1.1" id="Layer_1" xmlns="http://www.w3.org/2000/svg" xmlns:xlink="http://www.w3.org/1999/xlink" x="0px" y="0px"
	 viewBox="0 0 717.4 496.2" style="enable-background:new 0 0 717.4 496.2;" xml:space="preserve">
<style type="text/css">
	.st0{fill:#FFFFFF;}
</style>
<g>
	<path class="st0" d="M16.5,337.3v-20.6h15.7c4,0,7.2,0.9,9.4,2.6c2.2,1.7,3.3,4.3,3.3,7.6v0.2c0,3.2-1.1,5.7-3.4,7.5
		c-2.3,1.8-5.3,2.8-9.2,2.8H16.5L16.5,337.3z M5.9,368.1h10.7v-21.3h13.3H30l15.1,21.3h12.7L41.2,345c2.2-0.6,4.1-1.4,5.9-2.5
		c1.8-1.1,3.3-2.4,4.6-3.9c1.3-1.5,2.3-3.3,3-5.3c0.7-2,1.1-4.3,1.1-6.8v-0.2c0-2.7-0.4-5.1-1.3-7.3c-0.9-2.2-2.1-4.2-3.8-5.9
		c-2-1.9-4.5-3.4-7.4-4.5c-3-1.1-6.4-1.6-10.2-1.6H5.9V368.1L5.9,368.1z M83.3,368.1H129v-9.7H94v-16.3h30.7v-9.7H94v-15.7h34.6V307
		H83.3V368.1L83.3,368.1z M172.2,343.8l10.5-24.5l10.6,24.5H172.2L172.2,343.8z M151,368.1h11l6.3-14.8h28.9l6.2,14.8h11.4
		l-26.9-61.6h-10L151,368.1L151,368.1z M250.2,358.4v-41.8h12.1c3.2,0,6.1,0.5,8.7,1.6c2.6,1.1,4.8,2.5,6.7,4.3
		c1.8,1.8,3.3,4,4.3,6.6c1,2.6,1.5,5.4,1.5,8.3v0.2c0,3-0.5,5.7-1.5,8.3c-1,2.5-2.4,4.7-4.3,6.6c-1.8,1.8-4.1,3.3-6.7,4.3
		c-2.6,1-5.5,1.5-8.7,1.5H250.2L250.2,358.4z M239.5,368.1h22.8c4.8,0,9.2-0.8,13.1-2.4c4-1.6,7.4-3.7,10.3-6.5
		c2.9-2.7,5.1-6,6.7-9.7c1.6-3.7,2.4-7.7,2.4-12.1v-0.2c0-4.3-0.8-8.3-2.4-12c-1.6-3.7-3.8-6.9-6.7-9.7c-2.9-2.7-6.3-4.9-10.3-6.4
		c-4-1.5-8.4-2.3-13.1-2.3h-22.8V368.1L239.5,368.1z M322.8,368.1h10.7V307h-10.7V368.1L322.8,368.1z M364.2,368.1h10.7v-43.5
		l33.7,43.5h9V307h-10.7v42.3L374.1,307h-9.9V368.1L364.2,368.1z M447.5,368.1h45.7v-9.7h-35v-16.3h30.7v-9.7h-30.7v-15.7h34.6V307
		h-45.3V368.1L447.5,368.1z M550.7,367.8c2.7-0.8,5-2,6.9-3.6c1.9-1.6,3.4-3.5,4.5-5.8c1.1-2.3,1.6-4.8,1.6-7.7v-0.2
		c0-2.5-0.4-4.7-1.3-6.6c-0.8-1.9-2.1-3.6-3.7-5c-1.6-1.4-3.7-2.6-6.2-3.6c-2.5-1-5.3-1.9-8.5-2.7c-2.9-0.7-5.3-1.4-7.2-2
		c-1.9-0.6-3.4-1.3-4.5-2.1c-1.1-0.7-1.8-1.5-2.2-2.4c-0.4-0.9-0.6-1.9-0.6-3.1v-0.2c0-2,0.9-3.8,2.6-5.2c1.7-1.4,4.2-2.1,7.3-2.1
		c2.8,0,5.6,0.5,8.3,1.6c2.7,1.1,5.5,2.6,8.3,4.7l5.8-8.1c-3.1-2.5-6.5-4.4-10.1-5.7c-3.6-1.3-7.6-2-12.1-2c-3,0-5.8,0.4-8.4,1.3
		c-2.6,0.9-4.7,2.1-6.6,3.6c-1.8,1.5-3.2,3.4-4.3,5.6c-1,2.2-1.6,4.6-1.6,7.2v0.2c0,2.8,0.5,5.2,1.4,7.2c0.9,2,2.2,3.7,3.9,5
		c1.7,1.4,3.9,2.5,6.4,3.5c2.5,1,5.4,1.8,8.7,2.6c2.9,0.6,5.2,1.3,7,1.9c1.8,0.6,3.2,1.3,4.2,2.1c1,0.8,1.7,1.6,2.1,2.4
		c0.4,0.8,0.6,1.8,0.6,2.9v0.2c0,2.3-1,4.2-2.9,5.6c-2,1.4-4.6,2.1-7.9,2.1c-3.8,0-7.3-0.7-10.3-2.1c-3-1.4-6-3.3-9-5.9l-6.5,7.7
		c3.7,3.3,7.7,5.8,12,7.4c4.3,1.6,8.8,2.4,13.5,2.4C545.1,369,548,368.6,550.7,367.8L550.7,367.8z M620.9,367.8c2.7-0.8,5-2,6.9-3.6
		c1.9-1.6,3.4-3.5,4.5-5.8c1.1-2.3,1.6-4.8,1.6-7.7v-0.2c0-2.5-0.4-4.7-1.3-6.6c-0.8-1.9-2.1-3.6-3.7-5c-1.6-1.4-3.7-2.6-6.2-3.6
		c-2.5-1-5.3-1.9-8.5-2.7c-2.9-0.7-5.3-1.4-7.2-2c-1.9-0.6-3.4-1.3-4.5-2.1c-1.1-0.7-1.8-1.5-2.2-2.4c-0.4-0.9-0.6-1.9-0.6-3.1v-0.2
		c0-2,0.9-3.8,2.6-5.2c1.7-1.4,4.2-2.1,7.3-2.1c2.8,0,5.6,0.5,8.3,1.6c2.7,1.1,5.5,2.6,8.3,4.7l5.8-8.1c-3.1-2.5-6.5-4.4-10.1-5.7
		c-3.6-1.3-7.6-2-12.1-2c-3,0-5.8,0.4-8.4,1.3c-2.6,0.9-4.7,2.1-6.6,3.6c-1.8,1.5-3.2,3.4-4.3,5.6c-1,2.2-1.6,4.6-1.6,7.2v0.2
		c0,2.8,0.5,5.2,1.4,7.2c0.9,2,2.2,3.7,3.9,5c1.7,1.4,3.9,2.5,6.4,3.5c2.5,1,5.4,1.8,8.7,2.6c2.9,0.6,5.2,1.3,7,1.9
		c1.8,0.6,3.2,1.3,4.2,2.1c1,0.8,1.7,1.6,2.1,2.4c0.4,0.8,0.6,1.8,0.6,2.9v0.2c0,2.3-1,4.2-2.9,5.6c-2,1.4-4.6,2.1-7.9,2.1
		c-3.8,0-7.3-0.7-10.3-2.1c-3-1.4-6-3.3-9-5.9l-6.5,7.7c3.7,3.3,7.7,5.8,12,7.4c4.3,1.6,8.8,2.4,13.5,2.4
		C615.3,369,618.2,368.6,620.9,367.8L620.9,367.8z"/>
	<path class="st0" d="M72.7,269.3c5.7-1.7,10.5-4.1,14.6-7.4c4-3.2,7.2-7.1,9.4-11.7c2.2-4.6,3.4-9.8,3.4-15.7v-0.3
		c0-5.3-1-9.9-2.9-13.8s-4.8-7.2-8.5-9.9c-3.7-2.7-8.2-5-13.5-7c-5.3-1.9-11.2-3.6-17.8-5c-3.9-0.9-7.2-1.7-9.7-2.5
		c-2.6-0.8-4.6-1.6-6.1-2.5c-1.5-0.8-2.5-1.7-3.1-2.7c-0.6-1-0.9-2.1-0.9-3.4v-0.3c0-2.1,1-3.8,2.9-5.2c1.9-1.4,4.8-2.1,8.6-2.1
		c5.1,0,10.5,1,16,2.9c5.5,1.9,10.9,4.7,16.1,8.4L97,168.5c-6.2-5.1-13.2-8.9-20.9-11.5c-7.7-2.6-16.5-3.9-26.3-3.9
		c-6.9,0-13,0.9-18.5,2.7c-5.5,1.8-10.1,4.3-14,7.6c-3.9,3.3-6.8,7.1-8.8,11.6c-2,4.5-3,9.4-3,14.7v0.3c0,5.9,1.1,10.8,3.4,14.8
		c2.2,4,5.3,7.3,9.2,10c3.9,2.7,8.4,4.9,13.7,6.5c5.2,1.7,10.9,3.2,17,4.7c3.9,0.9,7.1,1.7,9.6,2.5c2.5,0.8,4.4,1.7,5.9,2.5
		c1.5,0.9,2.5,1.8,3,2.7c0.5,0.9,0.8,2,0.8,3.2v0.3c0,2.5-1.1,4.4-3.4,5.8c-2.2,1.4-5.5,2-9.7,2c-13.3,0-25.7-4.6-37.2-13.8L0,252.7
		c7.1,6.4,15.3,11.2,24.5,14.3c9.2,3.2,19,4.8,29.2,4.8C60.7,271.8,67,270.9,72.7,269.3L72.7,269.3z M163.7,240.9
		c-3.6-1.7-6.7-4-9.3-6.8c-2.6-2.8-4.6-6.1-6-9.8c-1.4-3.7-2.1-7.6-2.1-11.8v-0.3c0-4.1,0.7-8.1,2.1-11.8c1.4-3.7,3.3-7,5.9-9.7
		c2.6-2.8,5.6-5,9.2-6.6c3.6-1.6,7.5-2.5,11.9-2.5c4.4,0,8.4,0.8,12,2.5c3.6,1.7,6.7,4,9.4,6.8c2.6,2.8,4.7,6.1,6.1,9.8
		c1.4,3.7,2.1,7.6,2.1,11.8v0.3c0,4.2-0.7,8.1-2.1,11.8c-1.4,3.7-3.4,7-5.9,9.7c-2.5,2.8-5.6,5-9.2,6.6c-3.6,1.6-7.6,2.5-12,2.5
		C171.3,243.5,167.3,242.6,163.7,240.9L163.7,240.9z M200,267.4c7.5-3.1,14.1-7.4,19.7-12.8c5.6-5.4,9.9-11.7,13-19
		c3.1-7.3,4.7-15,4.7-23.2v-0.3c0-8.2-1.6-15.9-4.7-23.1c-3.1-7.2-7.4-13.5-12.9-18.8c-5.5-5.3-12-9.6-19.5-12.7
		c-7.5-3.1-15.7-4.7-24.6-4.7c-8.8,0-17,1.6-24.6,4.7c-7.5,3.1-14.1,7.4-19.7,12.8c-5.6,5.4-9.9,11.7-13,19
		c-3.1,7.3-4.7,15-4.7,23.2v0.3c0,8.2,1.6,15.9,4.7,23.1s7.4,13.5,12.9,18.8c5.5,5.4,12,9.6,19.5,12.7c7.5,3.1,15.7,4.7,24.6,4.7
		S192.5,270.6,200,267.4L200,267.4z M330,268.8c6.6-2.1,12.2-5.3,16.9-9.6c4.6-4.3,8.2-9.8,10.8-16.5c2.6-6.7,3.9-14.7,3.9-24v-63.6
		h-32.4v64.5c0,8.1-1.9,14-5.7,17.9c-3.8,3.8-8.9,5.7-15.3,5.7c-6.4,0-11.5-2-15.3-6c-3.8-4-5.7-10.1-5.7-18.4v-63.7h-32.4v64.4
		c0,9,1.2,16.7,3.7,23.3c2.5,6.6,6,12.1,10.6,16.4c4.6,4.3,10.2,7.5,16.7,9.6c6.6,2.1,13.9,3.1,22.1,3.1
		C316,272,323.4,270.9,330,268.8L330,268.8z M414.4,210.2v-27.5h20.8c5.3,0,9.6,1.1,12.6,3.4c3.1,2.2,4.6,5.7,4.6,10.2v0.3
		c0,4.2-1.5,7.5-4.4,9.9c-2.9,2.5-7.2,3.7-12.6,3.7H414.4L414.4,210.2z M382.6,269.8h31.8v-34.7H428h0.3l23.1,34.7h36.7l-27.4-40
		c7.2-3.1,12.9-7.5,17.2-13.3c4.3-5.8,6.4-13.1,6.4-21.9v-0.3c0-11.2-3.4-20.1-10.2-26.7c-3.8-3.9-8.8-7-14.9-9.2
		c-6.1-2.2-13.6-3.3-22.4-3.3h-54.2V269.8L382.6,269.8z M575,270.2c5.1-1.3,9.7-3.1,13.8-5.4c4.1-2.3,7.8-5,11-8.2
		c3.2-3.2,6.2-6.6,8.9-10.3l-23.9-17c-1.7,2.1-3.5,4-5.3,5.7c-1.8,1.7-3.7,3.2-5.7,4.4c-2,1.3-4.3,2.2-6.7,2.9c-2.5,0.7-5.2,1-8.1,1
		c-4,0-7.7-0.8-11.1-2.4c-3.3-1.6-6.2-3.7-8.6-6.5c-2.4-2.7-4.3-6-5.7-9.7c-1.4-3.8-2-7.8-2-12v-0.3c0-4.1,0.7-8.1,2-11.8
		c1.4-3.7,3.2-6.9,5.7-9.7c2.4-2.7,5.3-4.9,8.6-6.5c3.3-1.6,7-2.4,11.1-2.4c5.6,0,10.3,1.2,14.2,3.6c3.9,2.4,7.5,5.7,10.8,9.8
		l23.9-18.5c-2.5-3.5-5.4-6.7-8.6-9.7c-3.2-2.9-6.8-5.5-10.8-7.6c-4-2.1-8.4-3.8-13.2-4.9c-4.8-1.1-10.2-1.7-16.1-1.7
		c-8.7,0-16.8,1.5-24.2,4.6c-7.4,3.1-13.7,7.3-19.1,12.7c-5.4,5.4-9.6,11.7-12.6,19c-3.1,7.3-4.6,15-4.6,23.3v0.3
		c0,8.5,1.6,16.4,4.7,23.7c3.1,7.3,7.3,13.5,12.6,18.8c5.3,5.3,11.5,9.4,18.8,12.4c7.2,2.9,14.9,4.4,23.1,4.4
		C564.2,272.1,569.9,271.5,575,270.2L575,270.2z M624.5,269.8h92.9v-27h-61.6v-18.2h55v-25.1h-55v-17.4h60.8v-27h-92.1V269.8
		L624.5,269.8z"/>
	<path class="st0" d="M54.6,88c-3.6-1.7-6.7-4-9.3-6.8c-2.6-2.8-4.6-6.1-6-9.8c-1.4-3.7-2.1-7.6-2.1-11.8v-0.3
		c0-4.1,0.7-8.1,2.1-11.8c1.4-3.7,3.3-7,5.9-9.7c2.6-2.8,5.6-5,9.2-6.6c3.6-1.6,7.5-2.5,11.9-2.5c4.4,0,8.4,0.8,12,2.5
		c3.6,1.7,6.7,4,9.4,6.8c2.6,2.8,4.7,6.1,6.1,9.8c1.4,3.7,2.1,7.6,2.1,11.8v0.3c0,4.2-0.7,8.1-2.1,11.8c-1.4,3.7-3.4,7-5.9,9.7
		c-2.5,2.8-5.6,5-9.2,6.6c-3.6,1.6-7.6,2.5-12,2.5C62.2,90.6,58.2,89.7,54.6,88L54.6,88z M90.9,114.6c7.5-3.1,14.1-7.4,19.7-12.8
		c5.6-5.4,9.9-11.7,13-19c3.1-7.3,4.7-15,4.7-23.2v-0.3c0-8.2-1.6-15.9-4.7-23.1c-3.1-7.2-7.4-13.5-12.9-18.8
		c-5.5-5.3-12-9.6-19.5-12.7C83.7,1.6,75.5,0,66.7,0c-8.8,0-17,1.6-24.6,4.7C34.6,7.8,28,12,22.4,17.4c-5.6,5.4-9.9,11.7-13,19
		c-3.1,7.3-4.7,15-4.7,23.2v0.3c0,8.2,1.6,15.9,4.7,23.1c3.1,7.2,7.4,13.5,12.9,18.8c5.5,5.4,12,9.6,19.5,12.7
		c7.5,3.1,15.7,4.7,24.6,4.7C75.2,119.2,83.4,117.7,90.9,114.6L90.9,114.6z M178.9,59.3V28.8h14.9c5.8,0,10.3,1.3,13.5,3.9
		c3.2,2.6,4.8,6.3,4.8,11.3v0.3c0,4.6-1.6,8.3-4.8,11c-3.2,2.7-7.7,4-13.3,4H178.9L178.9,59.3z M147.1,116.9h31.8V84.2h15.7
		c7.1,0,13.7-0.9,19.7-2.6c6.1-1.7,11.3-4.4,15.6-7.9c4.4-3.5,7.8-7.8,10.2-12.9c2.5-5.1,3.7-11.1,3.7-17.9v-0.3
		c0-6.3-1.1-12-3.4-17c-2.2-5-5.4-9.3-9.6-12.7c-4.2-3.4-9.2-6.1-15.1-7.9c-5.9-1.8-12.4-2.7-19.7-2.7h-49.1V116.9L147.1,116.9z
		 M259.6,116.9h92.9v-27h-61.6V71.7h55V46.7h-55V29.3h60.8v-27h-92.1V116.9L259.6,116.9z M371.2,116.9h31.3V54.1l49.1,62.9h27.9V2.3
		h-31.3v60.6L400.9,2.3h-29.7V116.9L371.2,116.9z"/>
	<path class="st0" d="M15.4,479.3c-1-0.4-1.8-1-2.5-1.8c-0.7-0.8-1.3-1.7-1.6-2.7c-0.4-1-0.6-2.2-0.6-3.4c0-1.8,0.3-3.5,1-5.1
		c0.6-1.6,1.5-3,2.6-4.2c1.1-1.2,2.3-2.2,3.7-2.9c1.4-0.7,2.8-1.1,4.3-1.1c2.3,0,4.1,0.7,5.5,2.2c1.4,1.5,2.1,3.5,2.1,6.1
		c0,1.9-0.3,3.6-0.9,5.2c-0.6,1.6-1.4,3.1-2.4,4.3c-1,1.2-2.2,2.2-3.5,2.9c-1.3,0.7-2.7,1-4.2,1C17.5,480,16.4,479.8,15.4,479.3
		L15.4,479.3z M26.3,485c2.1-1,4-2.5,5.7-4.3c1.7-1.8,3-4,4-6.5c1-2.5,1.5-5.3,1.5-8.2c0-2.2-0.3-4.2-0.9-6
		c-0.6-1.8-1.5-3.3-2.6-4.5c-1.1-1.2-2.4-2.2-4-2.9c-1.5-0.7-3.2-1-5-1c-2.1,0-4,0.5-5.6,1.4c-1.6,1-3.2,2.2-4.6,3.7l4.4-17.3h-7.3
		L0,485.8h7.3l1.5-6c1,1.9,2.3,3.4,4,4.7c1.7,1.3,4,1.9,6.8,1.9C21.9,486.5,24.1,486,26.3,485L26.3,485z M51,494.1
		c2-1.4,4.1-3.8,6.3-7.3l20.6-34.5h-8l-14.1,24.9l-2.7-24.9h-7.5l4.7,33.7c-1.1,1.5-2,2.5-2.8,3c-0.8,0.5-1.7,0.8-2.6,0.8
		c-0.7,0-1.4-0.1-2.1-0.4c-0.7-0.3-1.4-0.6-2-1l-3.9,5.7c1,0.7,2.1,1.3,3.2,1.7c1.1,0.4,2.5,0.6,4,0.6
		C46.6,496.2,48.9,495.5,51,494.1L51,494.1z"/>
	<polygon class="st0" points="126.5,414.7 182.2,414.7 182.2,429.3 142.6,429.3 142.6,444.9 177.5,444.9 177.5,459.5 142.6,459.5 
		142.6,487.8 126.5,487.8 126.5,414.7 	"/>
	<polygon class="st0" points="196.6,414.7 212.6,414.7 212.6,487.7 196.6,487.7 196.6,414.7 	"/>
	<polygon class="st0" points="230.9,414.7 245.7,414.7 280,459.7 280,414.7 295.8,414.7 295.8,487.7 282.1,487.7 246.7,441.3 
		246.7,487.7 230.9,487.7 230.9,414.7 	"/>
	<path class="st0" d="M309.6,451.4v-0.2c0-20.8,16.4-37.7,38.9-37.7c22.5,0,38.7,16.8,38.7,37.7v0.2c0,20.8-16.4,37.7-38.9,37.7
		C325.8,489.1,309.6,472.2,309.6,451.4L309.6,451.4z M370.5,451.4v-0.2c0.4-12.3-9.2-22.5-21.4-23c-0.2,0-0.5,0-0.7,0
		c-12.9,0-21.9,10.2-21.9,22.7v0.2c-0.4,12.3,9.1,22.5,21.4,23c0.3,0,0.5,0,0.8,0C361.5,474.2,370.5,463.9,370.5,451.4L370.5,451.4z
		"/>
	<path class="st0" d="M395.5,477.1l9.5-11.4c6,5.5,13.7,8.7,21.8,8.9c6.6,0,10.6-2.5,10.6-6.9v-0.2c0-4.1-2.5-6.2-14.7-9.3
		c-14.7-3.8-24.2-7.8-24.2-22.4v-0.2c0-13.2,10.7-22,25.6-22c9.9-0.2,19.5,3.1,27.2,9.3l-8.3,12.1c-6.5-4.5-12.8-7.2-19-7.2
		c-6.2,0-9.4,2.8-9.4,6.4v0.2c0,4.8,3.1,6.4,15.8,9.6c14.8,3.9,23.2,9.2,23.2,21.9v0.2c0,14.5-11.1,22.6-26.8,22.6
		C415.1,488.8,404.1,484.6,395.5,477.1L395.5,477.1z"/>
</g>
</svg>
