<?xml version="1.0" encoding="utf-8"?>
<!-- Generator: Adobe Illustrator 27.0.0, SVG Export Plug-In . SVG Version: 6.00 Build 0)  -->
<svg version="1.1" id="Layer_1" xmlns="http://www.w3.org/2000/svg" xmlns:xlink="http://www.w3.org/1999/xlink" x="0px" y="0px"
	 viewBox="0 0 720 77.4" style="enable-background:new 0 0 720 77.4;" xml:space="preserve">
<style type="text/css">
	.st0{fill:#404041;}
</style>
<g>
	<path class="st0" d="M27.6,28.6c2-1.3,3.7-1.9,5.2-1.9c0.7,0,2,0.5,3.9,1.5c1.9,1,3.5,1.5,4.9,1.5c1.9,0,3.5-0.6,4.7-1.7
		c1.2-1.1,1.8-2.6,1.8-4.3c0-2.3-0.9-4.1-2.6-5.4c-1.8-1.3-4.2-2-7.2-2c-3.3,0-6.4,0.8-9.3,2.3c-2.9,1.5-6,4-9.3,7.6v-6.7
		c0-0.6-0.2-1.1-0.7-1.4c-0.5-0.3-1.1-0.5-1.9-0.5H7.3c-2.1,0-3.6,0.4-4.5,1.1c-0.8,0.8-1.3,2-1.3,3.8c0,1.8,0.4,3.1,1.3,3.8
		c0.9,0.8,2.4,1.2,4.4,1.2h2v22H5.8c-2.1,0-3.6,0.4-4.5,1.1c-0.9,0.8-1.3,2-1.3,3.8c0,1.8,0.4,3.1,1.3,3.8c0.9,0.8,2.4,1.2,4.5,1.2
		h25.5c2.1,0,3.5-0.4,4.4-1.2c0.9-0.8,1.3-2.1,1.3-3.8c0-1.7-0.4-3-1.3-3.8c-0.9-0.8-2.3-1.1-4.4-1.1H20.6V34.7
		C23.3,31.9,25.6,29.9,27.6,28.6L27.6,28.6z M95.8,41c2.7,0,4.5-0.3,5.4-1c0.9-0.7,1.3-1.9,1.3-3.7c0-5.6-2.2-10.3-6.5-14.1
		c-4.3-3.8-9.8-5.8-16.4-5.8c-7.4,0-13.4,2.1-18,6.2c-4.6,4.1-6.9,9.4-6.9,15.8c0,6.5,2.3,11.7,6.9,15.8c4.6,4.1,10.6,6.2,18,6.2
		c6.2,0,11.5-1,15.7-3.1c4.2-2.1,6.4-4.5,6.4-7.3c0-1.3-0.4-2.4-1.1-3.2c-0.7-0.8-1.6-1.2-2.8-1.2c-0.8,0-3,0.9-6.7,2.7
		C87.5,50.1,83.8,51,80,51c-3.8,0-6.8-0.8-9.1-2.5c-2.3-1.7-3.8-4.2-4.6-7.5H95.8L95.8,41z M66.3,33.9c0.8-3,2.2-5.2,4.2-6.6
		c2-1.5,4.7-2.2,8-2.2c3.4,0,6.2,0.8,8.4,2.3c2.1,1.5,3.5,3.7,4,6.5H66.3L66.3,33.9z M140.4,29.1c2,2.1,2.9,4.9,2.9,8.2
		c0,3.3-1,6-2.9,8.1c-2,2.1-4.5,3.2-7.5,3.2c-3,0-5.5-1.1-7.4-3.2c-2-2.1-2.9-4.8-2.9-8.1c0-3.3,1-6,2.9-8.2c2-2.1,4.4-3.2,7.4-3.2
		C135.9,25.9,138.4,27,140.4,29.1L140.4,29.1z M138.9,17.6c-2.1-0.9-4.5-1.3-7.2-1.3c-6.3,0-11.5,2-15.6,5.9c-4.1,4-6.1,9-6.1,15.1
		c0,5.9,1.9,10.8,5.8,14.6c3.9,3.8,8.9,5.7,15,5.7c2.3,0,4.5-0.3,6.6-0.9c2.1-0.6,4.3-1.5,6.4-2.7v2c0,4.2-0.8,7.2-2.5,8.8
		c-1.7,1.6-4.7,2.4-9,2.4c-1.9,0-3.9-0.1-6.2-0.4c-2.2-0.3-3.5-0.4-3.9-0.4c-1.6,0-2.8,0.5-3.7,1.4c-0.9,0.9-1.4,2.1-1.4,3.5
		c0,2.1,1.2,3.6,3.5,4.6c2.3,1,6,1.4,10.9,1.4c8,0,13.8-1.5,17.4-4.5c3.6-3,5.4-7.8,5.4-14.4V27.3h0.8c1.6,0,2.8-0.4,3.7-1.3
		c0.8-0.8,1.3-2.1,1.3-3.7c0-1.7-0.4-3-1.3-3.8c-0.9-0.8-2.3-1.2-4.4-1.2h-7.4c-0.9,0-1.5,0.2-2,0.5c-0.4,0.3-0.7,0.8-0.7,1.4v2.4
		C142.7,19.8,140.9,18.5,138.9,17.6L138.9,17.6z M198.2,40.4c0,3-0.8,5.5-2.4,7.3c-1.6,1.9-3.7,2.8-6.2,2.8c-2.4,0-4.1-0.8-5.1-2.3
		c-1-1.5-1.6-4.1-1.6-7.8v-21c0-0.6-0.2-1.1-0.6-1.4c-0.4-0.3-1.1-0.5-1.9-0.5h-8.6c-2.1,0-3.6,0.4-4.5,1.1c-0.9,0.8-1.3,2-1.3,3.8
		c0,1.6,0.4,2.9,1.3,3.7c0.9,0.8,2.1,1.3,3.7,1.3h0.8v15.1c0,6,1.2,10.5,3.6,13.4c2.4,2.9,6,4.4,10.9,4.4c2.9,0,5.4-0.5,7.5-1.6
		c2.1-1.1,3.9-2.7,5.4-4.9v3.4c0,0.6,0.2,1.1,0.7,1.5c0.5,0.4,1.1,0.5,2,0.5h7.7c2.1,0,3.6-0.4,4.5-1.2c0.9-0.8,1.3-2.1,1.3-3.9
		c0-1.6-0.4-2.8-1.3-3.6c-0.9-0.8-2.1-1.3-3.8-1.3h-0.7v-30c0-0.6-0.2-1.1-0.7-1.4c-0.5-0.3-1.1-0.5-1.9-0.5h-8.6
		c-2.1,0-3.6,0.4-4.4,1.1c-0.9,0.8-1.3,2-1.3,3.8c0,1.6,0.4,2.9,1.3,3.7c0.8,0.8,2.1,1.3,3.7,1.3h0.7V40.4L198.2,40.4z M252.8,1.9
		c0-0.6-0.2-1.1-0.7-1.4c-0.5-0.3-1.1-0.5-2-0.5h-13.7c-2.1,0-3.6,0.4-4.5,1.2c-0.9,0.8-1.3,2.1-1.3,3.8c0,1.8,0.4,3,1.3,3.8
		c0.9,0.8,2.4,1.2,4.5,1.2h5v39.3h-9.8c-2.1,0-3.6,0.4-4.4,1.1c-0.8,0.7-1.3,2-1.3,3.8c0,1.8,0.4,3.1,1.3,3.8
		c0.9,0.8,2.3,1.2,4.4,1.2h31c2.1,0,3.5-0.4,4.4-1.2c0.9-0.8,1.3-2.1,1.3-3.8c0-1.7-0.4-3-1.3-3.8c-0.9-0.8-2.3-1.1-4.4-1.1h-9.8
		V1.9L252.8,1.9z M321.9,32.5c0-5.9-1.4-10.1-4.2-12.6c-2.8-2.5-7.4-3.7-13.9-3.7c-6.2,0-11.1,0.7-14.7,2.1
		c-3.6,1.4-5.4,3.4-5.4,5.8c0,1.4,0.4,2.5,1.3,3.3c0.9,0.8,2,1.2,3.5,1.2c1.5,0,3.8-0.7,6.9-2.2c3.1-1.5,5.7-2.2,7.7-2.2
		c2.6,0,4.5,0.7,5.9,2.1c1.3,1.4,2,3.5,2,6.2v0.9c-2-0.3-3.9-0.6-5.5-0.7c-1.6-0.2-3.2-0.2-4.7-0.2c-6.5,0-11.6,1.3-15.3,3.8
		c-3.6,2.5-5.4,6-5.4,10.5c0,4.2,1.4,7.5,4.2,9.9c2.8,2.4,6.7,3.6,11.6,3.6c2.9,0,5.8-0.4,8.6-1.3c2.8-0.9,5.5-2.1,8-3.8
		c0.5,1.5,1.1,2.5,1.9,3.1c0.7,0.6,1.9,0.9,3.4,0.9h4.3c2.1,0,3.6-0.4,4.5-1.2c0.9-0.8,1.3-2,1.3-3.8c0-1.6-0.4-2.8-1.3-3.7
		c-0.9-0.9-2.1-1.3-3.8-1.3h-0.7V32.5L321.9,32.5z M310.9,47.6c-1.8,1.3-3.6,2.2-5.5,2.8c-1.9,0.6-3.8,0.9-5.9,0.9
		c-2.3,0-4-0.5-5.3-1.4c-1.2-0.9-1.8-2.3-1.8-4c0-2,1-3.5,2.9-4.6c1.9-1.1,4.5-1.7,7.9-1.7c1.1,0,2.3,0.1,3.6,0.2
		c1.3,0.2,2.7,0.4,4.2,0.7V47.6L310.9,47.6z M364.4,28.6c2-1.3,3.7-1.9,5.2-1.9c0.7,0,2,0.5,3.9,1.5c1.9,1,3.5,1.5,4.9,1.5
		c1.9,0,3.5-0.6,4.7-1.7c1.2-1.1,1.8-2.6,1.8-4.3c0-2.3-0.9-4.1-2.6-5.4c-1.8-1.3-4.2-2-7.2-2c-3.3,0-6.4,0.8-9.3,2.3
		c-2.9,1.5-6,4-9.3,7.6v-6.7c0-0.6-0.2-1.1-0.7-1.4c-0.5-0.3-1.1-0.5-1.9-0.5h-9.7c-2.1,0-3.6,0.4-4.5,1.1c-0.8,0.8-1.3,2-1.3,3.8
		c0,1.8,0.4,3.1,1.3,3.8c0.9,0.8,2.4,1.2,4.4,1.2h2v22h-3.5c-2.1,0-3.6,0.4-4.5,1.1c-0.9,0.8-1.3,2-1.3,3.8c0,1.8,0.4,3.1,1.3,3.8
		c0.9,0.8,2.4,1.2,4.5,1.2h25.5c2.1,0,3.5-0.4,4.4-1.2c0.9-0.8,1.3-2.1,1.3-3.8c0-1.7-0.4-3-1.3-3.8c-0.9-0.8-2.3-1.1-4.4-1.1h-10.8
		V34.7C360.1,31.9,362.5,29.9,364.4,28.6L364.4,28.6z M395.1,33.8c-0.4,0.4-0.5,0.9-0.5,1.5V41c0,0.8,0.2,1.4,0.5,1.8
		c0.3,0.5,0.8,0.7,1.4,0.7h37.9c0.5,0,1.1-0.3,1.5-0.8c0.5-0.5,0.7-1.1,0.7-1.7v-5.7c0-0.7-0.2-1.2-0.6-1.6
		c-0.4-0.4-0.9-0.5-1.7-0.5h-37.9C396,33.2,395.5,33.4,395.1,33.8L395.1,33.8z M468.6,9.4c0-2.1-0.4-3.5-1.3-4.4
		c-0.9-0.8-2.3-1.3-4.3-1.3c-2,0-3.4,0.4-4.3,1.3c-0.9,0.8-1.3,2.3-1.3,4.4V20H453c-2.1,0-3.6,0.4-4.4,1.1c-0.9,0.7-1.3,2-1.3,3.8
		c0,1.8,0.4,3.1,1.3,3.8c0.9,0.8,2.3,1.2,4.4,1.2h4.3v11.6v1c0,4,0.2,6.8,0.6,8.5c0.4,1.7,1.1,3.1,2.1,4.3c1.4,1.6,3.2,2.8,5.6,3.6
		c2.4,0.8,5.1,1.3,8.3,1.3c5.4,0,10.2-1,14.5-2.9c4.2-1.9,6.4-4,6.4-6.4c0-1.4-0.5-2.6-1.3-3.6c-0.9-1-2-1.5-3.2-1.5
		c-1.1,0-3.3,0.7-6.5,2c-3.2,1.4-6,2-8.4,2c-2.5,0-4.3-0.6-5.3-1.8c-1-1.2-1.5-3.4-1.5-6.7V29.9h13.9c2.1,0,3.6-0.4,4.5-1.2
		c0.9-0.8,1.3-2.1,1.3-3.8c0-1.7-0.4-3-1.3-3.8c-0.9-0.8-2.4-1.1-4.5-1.1h-13.9V9.4L468.6,9.4z M546.5,32.5c0-5.9-1.4-10.1-4.2-12.6
		c-2.8-2.5-7.4-3.7-13.9-3.7c-6.2,0-11.1,0.7-14.7,2.1c-3.6,1.4-5.4,3.4-5.4,5.8c0,1.4,0.4,2.5,1.3,3.3c0.9,0.8,2,1.2,3.5,1.2
		c1.5,0,3.8-0.7,6.9-2.2c3.1-1.5,5.7-2.2,7.7-2.2c2.6,0,4.5,0.7,5.9,2.1c1.3,1.4,2,3.5,2,6.2v0.9c-2-0.3-3.9-0.6-5.5-0.7
		c-1.6-0.2-3.2-0.2-4.7-0.2c-6.5,0-11.6,1.3-15.3,3.8c-3.6,2.5-5.4,6-5.4,10.5c0,4.2,1.4,7.5,4.2,9.9c2.8,2.4,6.7,3.6,11.6,3.6
		c2.9,0,5.8-0.4,8.6-1.3s5.5-2.1,8-3.8c0.5,1.5,1.1,2.5,1.8,3.1c0.7,0.6,1.9,0.9,3.4,0.9h4.3c2.1,0,3.6-0.4,4.5-1.2
		c0.9-0.8,1.3-2,1.3-3.8c0-1.6-0.4-2.8-1.3-3.7c-0.9-0.9-2.1-1.3-3.8-1.3h-0.7V32.5L546.5,32.5z M535.5,47.6
		c-1.8,1.3-3.6,2.2-5.5,2.8c-1.9,0.6-3.8,0.9-5.9,0.9c-2.3,0-4-0.5-5.3-1.4c-1.2-0.9-1.8-2.3-1.8-4c0-2,1-3.5,2.9-4.6
		c1.9-1.1,4.5-1.7,7.9-1.7c1.1,0,2.3,0.1,3.6,0.2c1.3,0.2,2.7,0.4,4.2,0.7V47.6L535.5,47.6z M593.3,30.4c2,2.2,3,5,3,8.4
		c0,3.5-1,6.3-2.9,8.6c-2,2.2-4.5,3.3-7.5,3.3s-5.5-1.1-7.4-3.3c-1.9-2.2-2.9-5.1-2.9-8.6c0-3.4,1-6.2,2.9-8.4
		c2-2.2,4.4-3.3,7.4-3.3C588.9,27.1,591.4,28.2,593.3,30.4L593.3,30.4z M575.8,3c0-1.1-0.2-1.8-0.7-2.3C574.7,0.2,574,0,573,0h-8.5
		c-2.1,0-3.6,0.4-4.5,1.2c-0.9,0.8-1.3,2.1-1.3,3.8c0,1.6,0.4,2.9,1.3,3.7c0.9,0.9,2.1,1.3,3.8,1.3h0.7v39.3h-0.7
		c-1.6,0-2.9,0.4-3.7,1.2c-0.8,0.8-1.3,2-1.3,3.6c0,1.8,0.4,3.1,1.3,3.9c0.9,0.8,2.3,1.2,4.4,1.2h7c0.9,0,1.5-0.2,2-0.5
		c0.5-0.3,0.7-0.8,0.7-1.4v-3c1.4,2,3.1,3.5,5.3,4.5c2.2,1,4.7,1.5,7.7,1.5c6.2,0,11.4-2,15.5-6c4.1-4,6.2-8.9,6.2-14.8
		c0-6.5-2-11.8-6.1-16c-4-4.1-9.2-6.2-15.6-6.2c-2.2,0-4.3,0.4-6.3,1.1c-2,0.7-3.7,1.7-5.2,3V3L575.8,3z M645.8,1.9
		c0-0.6-0.2-1.1-0.7-1.4c-0.5-0.3-1.1-0.5-2-0.5h-13.7c-2.1,0-3.6,0.4-4.5,1.2c-0.9,0.8-1.3,2.1-1.3,3.8c0,1.8,0.4,3,1.3,3.8
		c0.9,0.8,2.4,1.2,4.5,1.2h5v39.3h-9.8c-2.1,0-3.6,0.4-4.4,1.1c-0.8,0.7-1.3,2-1.3,3.8c0,1.8,0.4,3.1,1.3,3.8
		c0.9,0.8,2.3,1.2,4.4,1.2h31c2.1,0,3.5-0.4,4.4-1.2c0.9-0.8,1.3-2.1,1.3-3.8c0-1.7-0.4-3-1.3-3.8c-0.9-0.8-2.3-1.1-4.4-1.1h-9.8
		V1.9L645.8,1.9z M713.3,41c2.7,0,4.5-0.3,5.4-1c0.9-0.7,1.3-1.9,1.3-3.7c0-5.6-2.2-10.3-6.5-14.1c-4.3-3.8-9.8-5.8-16.4-5.8
		c-7.4,0-13.4,2.1-18,6.2c-4.6,4.1-6.9,9.4-6.9,15.8c0,6.5,2.3,11.7,6.9,15.8c4.6,4.1,10.6,6.2,18,6.2c6.2,0,11.5-1,15.7-3.1
		c4.2-2.1,6.3-4.5,6.3-7.3c0-1.3-0.4-2.4-1.1-3.2c-0.7-0.8-1.6-1.2-2.8-1.2c-0.8,0-3,0.9-6.7,2.7c-3.7,1.8-7.4,2.7-11.2,2.7
		c-3.8,0-6.8-0.8-9.1-2.5c-2.3-1.7-3.8-4.2-4.6-7.5H713.3L713.3,41z M683.9,33.9c0.8-3,2.2-5.2,4.2-6.6c2-1.5,4.7-2.2,8-2.2
		c3.4,0,6.2,0.8,8.4,2.3c2.1,1.5,3.5,3.7,4,6.5H683.9L683.9,33.9z"/>
</g>
</svg>
