<?xml version="1.0" encoding="utf-8"?>
<!-- Generator: Adobe Illustrator 24.1.0, SVG Export Plug-In . SVG Version: 6.00 Build 0)  -->
<svg version="1.1" id="Layer_1" xmlns="http://www.w3.org/2000/svg" xmlns:xlink="http://www.w3.org/1999/xlink" x="0px" y="0px"
	 viewBox="0 0 719.13 137.34" style="enable-background:new 0 0 719.13 137.34;" xml:space="preserve">
<style type="text/css">
	.st0{fill:#6D7181;}
	.st1{fill:#00000A;}
</style>
<g>
	<path class="st0" d="M137.34,137.34H88.38c26.96,0,42.46-18.74,42.46-42.7c0-43.43-51.75-35.48-53.4-55.19H77.4
		c0,0-0.31-1.73-2.99-4.24c-2.67-2.51-5.03-3.93-11.79-4.4c-2.26-0.16-5.31-0.21-8.39-0.21c-4.62,0-9.27,0.12-11.29,0.18
		c-0.38,2.48-0.59,5.08-0.59,7.83c-0.48,47.34,54.74,37.1,54.9,58.93c0,6.38-4.36,9.85-10.01,9.85c-5.5,0-13.62-8.21-11.85-20.08
		c-5.66,1.79-12.04,2.87-19.33,2.87H42.15c1.21,31.76,21.63,47.16,46.22,47.16H0V0h69.18C56.78,3.93,47.45,12.8,43.92,26.17
		c2.97-0.3,8.77-0.78,14.48-0.78c5.55,0,11,0.45,13.66,1.95c3.11,1.76,4.8,4.62,5.66,7.13c0.84-4.08,3.17-6.89,6.53-6.89
		c0.08,0,0.17,0,0.25,0.01c5.81,0,10.17,3.86,10.5,12.37h34.39C128.52,19.05,118.06,5.22,101.29,0h36.05V137.34"/>
	<path class="st1" d="M106.6,44.21c0-1.44-0.06-2.85-0.16-4.25c-0.23-3.29-0.75-6.44-1.52-9.46c-0.09-0.36-0.17-0.73-0.27-1.08
		c-0.19-0.69-0.42-1.36-0.65-2.04c-0.14-0.44-0.28-0.88-0.43-1.31c-0.23-0.62-0.48-1.23-0.74-1.83c-0.19-0.46-0.38-0.92-0.58-1.37
		c-0.26-0.57-0.55-1.12-0.83-1.68c-0.24-0.46-0.47-0.92-0.72-1.37c-0.29-0.53-0.61-1.04-0.93-1.55c-0.28-0.45-0.57-0.9-0.86-1.35
		c-0.33-0.49-0.67-0.96-1.02-1.43c-0.33-0.44-0.66-0.88-1.01-1.3c-0.36-0.44-0.73-0.88-1.11-1.31c-0.38-0.43-0.77-0.84-1.16-1.25
		c-0.39-0.4-0.78-0.8-1.19-1.19c-0.43-0.41-0.87-0.8-1.32-1.19c-0.42-0.36-0.83-0.72-1.26-1.06c-0.49-0.39-0.99-0.75-1.5-1.12
		c-0.44-0.32-0.87-0.64-1.33-0.94c-0.55-0.36-1.12-0.71-1.69-1.05c-0.45-0.27-0.9-0.55-1.37-0.81c-0.63-0.35-1.28-0.66-1.93-0.98
		c-0.45-0.22-0.89-0.46-1.36-0.67c-0.75-0.34-1.54-0.64-2.32-0.95c-0.4-0.16-0.79-0.33-1.2-0.48c-1.21-0.44-2.46-0.84-3.76-1.2H0
		v137.34h37.51V90.18h4.64h13.92c1.9,0,3.73-0.09,5.52-0.22c5.05-0.4,9.63-1.32,13.81-2.64l-0.01,0.09
		c2.06-0.64,3.98-1.42,5.83-2.25c-33.11-11.2-34.63-21.49-37.25-26.2h-6.46V27.51h6.06h13.46c11.58,0,18.27,2.46,20.38,11.04
		c0.01,0.2-0.01,0.39,0,0.59c0.01,0.25,0.07,0.47,0.1,0.71l0.01,0.1c1.23,9.43,14.26,12.4,27.16,18.17
		C105.94,53.68,106.6,49,106.6,44.21L106.6,44.21z"/>
	<path class="st0" d="M335.81,107.62h-24.22L296.1,78.86h-2.32v28.76h-21.68l0,0h-45.17V75.57c-4.73,3.54-11.25,5.73-19.65,5.73
		h-10.73v26.33h-21.68V29.64h1.15h50.91h49.89h2.56h26.9c19.36,0,29.09,11.06,29.09,25c0,10.18-5.53,19.03-17.15,22.57
		L335.81,107.62 M248.6,76.21v14.05h23.49V76.21H248.6 M293.77,47.78v16.26h10.73c5.86,0,8.85-2.88,8.85-8.19
		c0-4.87-2.99-8.07-8.85-8.07H293.77 M196.54,47.12v16.92h8.63c6.53,0,9.18-3.32,9.18-8.41c0-5.2-2.65-8.52-9.18-8.52H196.54
		 M248.6,47.01v12.72h23.49V47.01H248.6"/>
	<path class="st1" d="M690.92,90.52V77.57h22.86c-0.52-2.78-0.83-5.68-0.83-8.73c0-3,0.3-5.87,0.81-8.62h-22.84v-0.23V47.27h28.21
		V29.9H681.8h-12.56h-10.56L641.1,86.2l-17.7-56.3h-7.27h-15.96h-4.62h-20.39h-1.29h-20.79h-63.93h-0.76H361.87
		c-3.23-0.79-6.78-1.22-10.63-1.22c-16.48,0-29.2,8.19-29.2,23.45c-0.33,27.1,37.5,21.24,37.61,33.74c0,3.65-2.99,5.64-6.86,5.64
		c-3.98,0-7.41-1.99-7.85-7.85h-22.98l11.52,19.92c5.43,3.32,12.33,5.07,20.09,5.07c2.87,0,5.52-0.29,8-0.77h27.15V81.56h10.73
		c3.16,0,6.03-0.34,8.67-0.91v9.89v17.35h17.35h58.86v-0.22c1.5,0.14,3.03,0.22,4.61,0.22c19.58,0,33.52-11.09,37.39-28.49h-23.34
		c-2.77,5.76-7.96,8.92-14.38,8.92c-9.96,0-16.48-7.61-16.48-19.47c0-11.75,6.53-19.36,16.48-19.36c6.41,0,11.61,3.15,14.38,8.92
		h23.34c-0.92-4.13-2.42-7.89-4.41-11.24h10.79v60.73h21.68V47.16h19.28v43.47h-9.94v17.26h9.94h21.68h10.16V90.63h-9.94V47.16
		h10.59l21.02,60.73h27.76l14.32-41.55v41.55h49.89V90.52H690.92L690.92,90.52z M388.71,47.38h8.63c6.53,0,9.18,3.32,9.18,8.52
		c0,5.09-2.65,8.41-9.18,8.41h-8.63V47.38L388.71,47.38z M367.03,52.91v11.15c-10.29-4.53-21.87-6.24-21.87-12.7
		c0-3.76,2.54-5.64,5.75-5.53c3.98,0,6.97,2.21,7.19,7.08H367.03L367.03,52.91z M450.1,68.84c0,8.27,2,15.64,5.66,21.7h-30.3V77.57
		h22.8c-0.52-2.78-0.83-5.68-0.83-8.73c0-3,0.3-5.87,0.81-8.62h-19.94c0.22-1.42,0.35-2.86,0.35-4.32c0-3.08-0.43-5.97-1.26-8.65
		h28.36C452.1,53.28,450.1,60.62,450.1,68.84L450.1,68.84z"/>
</g>
</svg>
