<?xml version="1.0" encoding="utf-8"?>
<!-- Generator: Adobe Illustrator 27.0.0, SVG Export Plug-In . SVG Version: 6.00 Build 0)  -->
<svg version="1.1" id="Layer_1" xmlns="http://www.w3.org/2000/svg" xmlns:xlink="http://www.w3.org/1999/xlink" x="0px" y="0px"
	 viewBox="0 0 720 386.5" style="enable-background:new 0 0 720 386.5;" xml:space="preserve">
<style type="text/css">
	.st0{fill:#FFFFFF;}
	.st1{opacity:0.6;fill:#FFFFFF;}
</style>
<path class="st0" d="M682.5,385.6H720v-10.4h-26v-41.8h-11.5V385.6z M631.5,385.6h39.7v-10.2h-28.3v-11h24.6v-10.2h-24.6v-10.6h28
	v-10.2h-39.3V385.6z M572.2,385.6h20.4c4.1,0,7.8-0.7,11.2-2c3.4-1.3,6.3-3.2,8.8-5.5c2.5-2.3,4.4-5.1,5.7-8.3c1.3-3.2,2-6.6,2-10.3
	v-0.1c0-3.7-0.7-7.1-2-10.3c-1.3-3.2-3.2-5.9-5.7-8.2c-2.5-2.3-5.4-4.2-8.8-5.5c-3.4-1.3-7.1-2-11.2-2h-20.4V385.6z M583.6,375.2
	v-31.5h8.9c2.3,0,4.5,0.4,6.4,1.2c1.9,0.8,3.6,1.9,5,3.2c1.4,1.4,2.4,3.1,3.2,5c0.8,1.9,1.2,4.1,1.2,6.3v0.1c0,2.3-0.4,4.4-1.2,6.3
	c-0.8,1.9-1.8,3.5-3.2,4.9c-1.4,1.4-3,2.5-5,3.2c-1.9,0.7-4.1,1.1-6.4,1.1H583.6z M544.2,384.3c3.4-1.4,6.3-3.4,8.8-5.8
	c2.5-2.5,4.4-5.3,5.8-8.6c1.4-3.3,2.1-6.7,2.1-10.5v-0.1c0-3.7-0.7-7.2-2-10.5c-1.4-3.3-3.3-6.1-5.7-8.5c-2.5-2.4-5.4-4.3-8.8-5.7
	c-3.4-1.4-7.1-2.1-11.1-2.1s-7.7,0.7-11.1,2.1c-3.4,1.4-6.3,3.4-8.8,5.8c-2.5,2.5-4.4,5.3-5.8,8.6c-1.4,3.3-2.1,6.7-2.1,10.5v0.1
	c0,3.7,0.7,7.2,2,10.5c1.4,3.3,3.3,6.1,5.7,8.5c2.5,2.4,5.4,4.3,8.8,5.7c3.4,1.4,7.1,2.1,11.1,2.1S540.8,385.8,544.2,384.3
	 M526.9,374.6c-1.9-0.9-3.6-2.1-5-3.5c-1.4-1.5-2.5-3.2-3.3-5.2c-0.8-2-1.2-4.1-1.2-6.3v-0.1c0-2.2,0.4-4.3,1.2-6.3
	c0.8-2,1.8-3.7,3.2-5.2c1.4-1.5,3-2.7,4.9-3.5c1.9-0.8,4-1.3,6.4-1.3c2.3,0,4.4,0.4,6.3,1.3c1.9,0.9,3.6,2.1,5,3.5
	c1.4,1.5,2.5,3.2,3.3,5.2c0.8,2,1.2,4.1,1.2,6.3v0.1c0,2.2-0.4,4.3-1.2,6.3c-0.8,2-1.8,3.7-3.2,5.2c-1.4,1.5-3,2.7-5,3.5
	c-1.9,0.8-4.1,1.3-6.3,1.3C530.9,375.9,528.8,375.4,526.9,374.6 M442,385.6h11.3v-33.8l14.5,22.1h0.3l14.7-22.3v34.1h11.3v-52.2
	h-12.4l-13.7,22.1l-13.7-22.1H442V385.6z M379.9,385.6h11.5v-20.8l20.1-31.4h-13l-12.7,21l-12.5-21h-13.4l20.1,31.6V385.6z
	 M328,385.6h11.5V344h15.9v-10.6h-43.2V344H328V385.6z M290.3,385.6h11.5v-52.2h-11.5V385.6z M234.8,385.6h11.5v-16.7h8.9h0.1
	l11.2,16.7h13.4l-12.8-18.6c3.3-1.2,6-3.2,8.1-5.9c2.1-2.7,3.1-6.1,3.1-10.3v-0.1c0-5-1.5-8.9-4.5-11.9c-3.5-3.5-8.6-5.3-15.2-5.3
	h-23.9V385.6z M246.3,358.7v-15h11.4c2.8,0,5,0.6,6.6,1.9c1.6,1.2,2.4,3.1,2.4,5.6v0.1c0,2.2-0.8,4-2.3,5.4c-1.5,1.3-3.7,2-6.5,2
	H246.3z M208.6,384.9c2.8-1,5.2-2.4,7.2-4.4c2-2,3.5-4.4,4.6-7.3c1.1-2.9,1.6-6.4,1.6-10.4v-29.5h-11.5v29.9c0,4.2-1,7.3-3,9.4
	c-2,2.1-4.7,3.1-8.3,3.1c-3.5,0-6.3-1.1-8.3-3.2c-2-2.2-3-5.4-3-9.7v-29.5h-11.5v29.8c0,7.7,2,13.5,6,17.4c4,3.9,9.5,5.8,16.6,5.8
	C202.6,386.4,205.8,385.9,208.6,384.9 M140.2,385.6h11.5V344h15.9v-10.6h-43.2V344h15.9V385.6z M63.6,385.6h11.7l4.8-11.7h22.1
	l4.8,11.7h12L96.6,333H86L63.6,385.6z M84.2,363.7l6.9-16.9l6.9,16.9H84.2z M2.3,385.6h11.3v-33.8l14.5,22.1h0.3l14.7-22.3v34.1
	h11.3v-52.2H42.1l-13.7,22.1l-13.7-22.1H2.3V385.6z"/>
<path class="st0" d="M532.5,311h39.7v-10.2h-28.3v-11h24.6v-10.2h-24.6V269h28v-10.2h-39.3V311z M507.7,311.3c2-0.4,3.9-1,5.6-1.9
	c1.7-0.8,3.3-1.8,4.7-2.9c1.4-1.1,2.8-2.4,4.2-3.9l-7.3-7.4c-2,1.9-4.1,3.4-6.2,4.5c-2.1,1.1-4.6,1.6-7.6,1.6
	c-2.2,0-4.3-0.4-6.2-1.3c-1.9-0.9-3.5-2-4.8-3.5c-1.3-1.5-2.3-3.2-3.1-5.2c-0.7-2-1.1-4.1-1.1-6.3v-0.1c0-2.2,0.4-4.3,1.1-6.3
	c0.7-2,1.8-3.7,3.1-5.2c1.3-1.5,2.9-2.7,4.8-3.5c1.9-0.8,3.9-1.3,6.1-1.3c2.6,0,5,0.5,7.1,1.6c2.1,1,4.2,2.5,6.2,4.3l7.3-8.4
	c-1.2-1.2-2.5-2.3-3.9-3.3c-1.4-1-2.9-1.8-4.5-2.5c-1.6-0.7-3.5-1.2-5.5-1.6c-2-0.4-4.2-0.6-6.7-0.6c-4,0-7.7,0.7-11,2.1
	c-3.3,1.4-6.2,3.4-8.6,5.8c-2.4,2.5-4.2,5.3-5.6,8.6c-1.3,3.3-2,6.7-2,10.5v0.1c0,3.7,0.7,7.2,2,10.5c1.3,3.3,3.2,6.1,5.6,8.5
	c2.4,2.4,5.2,4.3,8.5,5.7c3.3,1.4,6.8,2.1,10.7,2.1C503.4,311.9,505.7,311.7,507.7,311.3 M421.5,311H433v-16.7h8.9h0.1l11.2,16.7
	h13.4l-12.8-18.6c3.3-1.2,6-3.2,8.1-5.9c2.1-2.7,3.1-6.1,3.1-10.3V276c0-5-1.5-8.9-4.5-11.9c-3.5-3.5-8.6-5.3-15.2-5.3h-23.9V311z
	 M433,284.2v-15h11.4c2.8,0,5,0.6,6.6,1.9c1.6,1.2,2.4,3.1,2.4,5.6v0.1c0,2.2-0.8,4-2.3,5.4c-1.5,1.3-3.7,2-6.5,2H433z M395.3,310.4
	c2.8-1,5.2-2.4,7.2-4.4c2-2,3.5-4.4,4.6-7.3c1.1-2.9,1.6-6.4,1.6-10.4v-29.5h-11.5v29.9c0,4.2-1,7.3-3,9.4c-2,2.1-4.7,3.1-8.3,3.1
	c-3.5,0-6.3-1.1-8.3-3.2c-2-2.2-3-5.4-3-9.7v-29.5h-11.5v29.8c0,7.7,2,13.5,6,17.4c4,3.9,9.5,5.8,16.6,5.8
	C389.3,311.8,392.5,311.3,395.3,310.4 M336.1,309.8c3.4-1.4,6.3-3.4,8.8-5.8c2.5-2.5,4.4-5.3,5.8-8.6c1.4-3.3,2.1-6.7,2.1-10.5v-0.1
	c0-3.7-0.7-7.2-2.1-10.5c-1.4-3.3-3.3-6.1-5.7-8.5c-2.5-2.4-5.4-4.3-8.8-5.7c-3.4-1.4-7.1-2.1-11.1-2.1c-4,0-7.7,0.7-11.1,2.1
	c-3.4,1.4-6.3,3.4-8.8,5.8c-2.5,2.5-4.4,5.3-5.8,8.6c-1.4,3.3-2.1,6.7-2.1,10.5v0.1c0,3.7,0.7,7.2,2.1,10.5c1.4,3.3,3.3,6.1,5.7,8.5
	c2.5,2.4,5.4,4.3,8.8,5.7c3.4,1.4,7.1,2.1,11.1,2.1S332.7,311.2,336.1,309.8 M318.8,300c-1.9-0.9-3.6-2-5-3.5
	c-1.4-1.5-2.5-3.2-3.3-5.2c-0.8-2-1.2-4.1-1.2-6.3v-0.1c0-2.2,0.4-4.3,1.2-6.3c0.8-2,1.8-3.7,3.2-5.2c1.4-1.5,3-2.7,4.9-3.5
	c1.9-0.8,4-1.3,6.4-1.3c2.3,0,4.4,0.4,6.3,1.3c1.9,0.9,3.6,2,5,3.5c1.4,1.5,2.5,3.2,3.3,5.2c0.8,2,1.2,4.1,1.2,6.3v0.1
	c0,2.2-0.4,4.3-1.2,6.3c-0.8,2-1.8,3.7-3.2,5.2c-1.4,1.5-3,2.7-5,3.5c-1.9,0.8-4.1,1.3-6.3,1.3C322.8,301.3,320.7,300.9,318.8,300
	 M277.3,310.7c2.3-0.7,4.3-1.8,6-3.1c1.7-1.4,3-3.1,3.9-5.1c0.9-2,1.4-4.3,1.4-6.9v-0.1c0-2.3-0.4-4.2-1.1-5.9
	c-0.7-1.6-1.8-3.1-3.2-4.3c-1.4-1.2-3.2-2.3-5.2-3.1c-2.1-0.9-4.4-1.7-7.1-2.3c-2.2-0.6-4.1-1.1-5.6-1.6c-1.5-0.4-2.6-0.9-3.5-1.4
	c-0.8-0.5-1.4-1.1-1.8-1.7c-0.3-0.6-0.5-1.4-0.5-2.2v-0.1c0-1.3,0.6-2.4,1.7-3.2c1.1-0.9,2.8-1.3,5-1.3c2.2,0,4.5,0.5,6.7,1.4
	c2.2,0.9,4.5,2.2,6.9,3.8l6-8.6c-2.7-2.1-5.6-3.8-8.8-4.9c-3.2-1.1-6.7-1.7-10.5-1.7c-2.7,0-5.1,0.4-7.4,1.1
	c-2.2,0.7-4.1,1.8-5.8,3.2c-1.6,1.4-2.9,3-3.7,5c-0.9,1.9-1.3,4.1-1.3,6.5v0.1c0,2.6,0.4,4.7,1.2,6.5c0.8,1.7,2,3.2,3.5,4.4
	c1.5,1.2,3.3,2.2,5.5,2.9c2.1,0.8,4.5,1.5,7.2,2.2c2.2,0.5,4,1.1,5.3,1.6c1.4,0.5,2.4,1,3.2,1.5c0.8,0.5,1.3,1,1.6,1.6
	c0.3,0.6,0.4,1.2,0.4,2v0.1c0,1.5-0.7,2.7-2,3.6c-1.3,0.9-3.2,1.3-5.6,1.3c-3,0-5.7-0.6-8.2-1.7c-2.5-1.1-5-2.7-7.3-4.6l-6.8,8.1
	c3.1,2.8,6.6,4.9,10.4,6.3c3.8,1.4,7.7,2,11.7,2C272.4,311.8,274.9,311.4,277.3,310.7 M168.6,311h11.3v-33.2l25.3,33.2h9.8v-52.2
	h-11.3V291l-24.5-32.1h-10.6V311z M117.6,311h39.7v-10.2h-28.3v-11h24.6v-10.2h-24.6V269h28v-10.2h-39.3V311z M66.7,311h11.5v-15.7
	h8.7c2.9,0,5.7-0.4,8.2-1.2c2.6-0.8,4.8-1.9,6.7-3.5c1.9-1.5,3.4-3.5,4.5-5.7c1.1-2.3,1.6-4.9,1.6-8v-0.1c0-2.7-0.5-5.1-1.4-7.3
	c-0.9-2.2-2.2-4.1-4-5.7c-1.7-1.6-3.8-2.8-6.3-3.7c-2.5-0.9-5.3-1.3-8.4-1.3H66.7V311z M78.2,285.1v-16h8.9c2.9,0,5.2,0.7,6.8,2
	c1.7,1.3,2.5,3.3,2.5,5.9v0.1c0,2.2-0.8,4.1-2.4,5.6c-1.6,1.5-3.8,2.3-6.7,2.3H78.2z M38.8,309.8c3.4-1.4,6.3-3.4,8.8-5.8
	c2.5-2.5,4.4-5.3,5.8-8.6c1.4-3.3,2.1-6.7,2.1-10.5v-0.1c0-3.7-0.7-7.2-2-10.5c-1.4-3.3-3.3-6.1-5.7-8.5c-2.5-2.4-5.4-4.3-8.8-5.7
	c-3.4-1.4-7.1-2.1-11.1-2.1s-7.7,0.7-11.1,2.1c-3.4,1.4-6.3,3.4-8.8,5.8c-2.5,2.5-4.4,5.3-5.8,8.6c-1.4,3.3-2.1,6.7-2.1,10.5v0.1
	c0,3.7,0.7,7.2,2.1,10.5c1.4,3.3,3.3,6.1,5.7,8.5c2.5,2.4,5.4,4.3,8.8,5.7c3.4,1.4,7.1,2.1,11.1,2.1
	C31.7,311.9,35.4,311.2,38.8,309.8 M21.4,300c-1.9-0.9-3.6-2-5-3.5c-1.4-1.5-2.5-3.2-3.3-5.2c-0.8-2-1.2-4.1-1.2-6.3v-0.1
	c0-2.2,0.4-4.3,1.2-6.3c0.8-2,1.8-3.7,3.2-5.2c1.4-1.5,3-2.7,4.9-3.5c1.9-0.8,4-1.3,6.4-1.3c2.3,0,4.4,0.4,6.3,1.3
	c1.9,0.9,3.6,2,5,3.5c1.4,1.5,2.5,3.2,3.3,5.2c0.8,2,1.2,4.1,1.2,6.3v0.1c0,2.2-0.4,4.3-1.2,6.3c-0.8,2-1.8,3.7-3.2,5.2
	c-1.4,1.5-3,2.7-5,3.5c-1.9,0.8-4.1,1.3-6.3,1.3C25.5,301.3,23.3,300.9,21.4,300"/>
<polygon class="st0" points="95.9,29 0,59.8 0,97.9 96,67.2 96,29 "/>
<polygon class="st0" points="0,122 0,189.5 37.3,189.5 37.3,148.1 96,129.3 96,91.2 "/>
<path class="st1" d="M96,91c0,0,0-0.1-0.1-0.1c0,0,0,0-0.1,0L58.9,79L0,97.9v0.2c0,0,0,0.1,0.1,0.1c0,0,0,0,0.1,0l37,11.8L96,91.2
	L96,91z"/>
<path class="st0" d="M311.7,108.3V29H284v109.5c3.3-2.2,6.6-4.6,9.9-7.1l4.9-3.6l-12.1-13.3L311.7,108.3z"/>
<path class="st0" d="M277.7,142.8V60.1h-27.8V159C258.5,154.7,267.8,149.3,277.7,142.8"/>
<path class="st0" d="M243.7,162V91.3h-27.8V170c4.4-0.2,9.7-1.3,15.5-3.2C235.3,165.5,239.4,163.9,243.7,162"/>
<path class="st0" d="M296.6,117.5l10.1,11.1l-9.7,7.1c-94,69-127.8,39.7-81.8-25.4c-58.2,50.6-25.7,130.1,105.7,33.9l10.3,11.3
	l18.2-51.3L296.6,117.5z"/>
<rect x="141" y="0" class="st0" width="1.5" height="218.5"/>
</svg>
