<?xml version="1.0" encoding="utf-8"?>
<!-- Generator: Adobe Illustrator 27.0.0, SVG Export Plug-In . SVG Version: 6.00 Build 0)  -->
<svg version="1.1" id="Layer_1" xmlns="http://www.w3.org/2000/svg" xmlns:xlink="http://www.w3.org/1999/xlink" x="0px" y="0px"
	 viewBox="0 0 625.6 540" style="enable-background:new 0 0 625.6 540;" xml:space="preserve">
<style type="text/css">
	.st0{fill:#F2BD6B;}
	.st1{fill:#CC7C29;}
	.st2{fill:#FDB714;}
	.st3{fill:#404041;}
</style>
<g>
	<polygon class="st0" points="577.8,377 598.7,360 598.7,95.9 564.5,115.3 564.5,169.1 551.8,176.6 551.8,367.8 577.8,377 	"/>
	<polygon class="st1" points="324.5,304.2 558.6,165.8 558.6,118.6 556.3,119.9 555.3,120.6 555.3,120.5 324.5,251.6 324.5,304.2 	
		"/>
	<polygon class="st0" points="414,258.1 367.1,285.8 367.1,311 393.2,320.3 414,303.2 414,258.1 	"/>
	<polygon class="st2" points="5.9,165.3 295.6,261.2 619.7,77.2 619.7,51.8 367.9,6.1 5.9,144.2 5.9,165.3 	"/>
	<polygon class="st0" points="64.8,457.2 91,436.1 91,254.1 71.7,247.5 71.7,193.3 32,180.1 32,445.6 64.8,457.2 	"/>
	<polygon class="st1" points="77.5,243.3 253.8,302.7 253.8,253.5 77.5,195.2 77.5,243.3 	"/>
	<polygon class="st0" points="292.5,533.4 318.7,512.3 318.7,254.9 296.3,267.6 259.6,255.5 259.6,521.8 292.5,533.4 	"/>
	<path class="st3" d="M625.6,80.6V47L368.1,0.1L367.3,0L1.9,139.4L0,140.1v29.4l26.1,8.6v271.6l39.8,14l30.9-24.9V256l156.9,52.9
		V526l39.8,14l30.9-24.9V311l36.8-21.7v25.8l33,11.8l25.5-20.9v-51.4L546,180.1v191.8l33,11.8l25.5-20.9V92.6L625.6,80.6L625.6,80.6
		z M551.8,176.6l12.6-7.5v-53.8l34.2-19.4V360L577.8,377l-26-9.3V176.6L551.8,176.6z M367.1,285.8l46.8-27.7v45.1l-20.8,17.1
		l-26-9.3V285.8L367.1,285.8z M324.5,251.6l230.8-131v0.1l1.1-0.7l2.3-1.3v47.1L324.5,304.2V251.6L324.5,251.6z M259.6,255.5
		l36.6,12.1l22.4-12.7v257.4l-26.2,21.1l-32.8-11.6V255.5L259.6,255.5z M77.5,243.3v-48.1l176.3,58.3v49.2L77.5,243.3L77.5,243.3z
		 M32,180.1l39.7,13.1v54.3l19.3,6.5v182l-26.2,21.1L32,445.6V180.1L32,180.1z M619.7,77.2l-324.1,184L5.9,165.3v-21.2l362-138.1
		l251.9,45.8V77.2L619.7,77.2z"/>
</g>
</svg>
