<?xml version="1.0" encoding="utf-8"?>
<!-- Generator: Adobe Illustrator 25.4.1, SVG Export Plug-In . SVG Version: 6.00 Build 0)  -->
<svg version="1.1" id="Layer_1" xmlns="http://www.w3.org/2000/svg" xmlns:xlink="http://www.w3.org/1999/xlink" x="0px" y="0px"
	 viewBox="0 0 722.2 251.7" style="enable-background:new 0 0 722.2 251.7;" xml:space="preserve">
<style type="text/css">
	.st0{fill:#00000A;}
</style>
<g>
	<path class="st0" d="M199.4,251.7h7.6v-10.6l4-4.2l10.7,14.7h9.2l-14.7-19.9l14.1-14.7h-9.2L207,232.2V217h-7.6V251.7L199.4,251.7z
		 M235.9,251.7h7.6V217h-7.6V251.7L235.9,251.7z M260.2,251.7h7.6v-27.6h10.5v-7h-28.7v7h10.5V251.7L260.2,251.7z"/>
	<path class="st0" d="M199.4,192.3h13.5c10.9,0,18.4-7.6,18.4-17.3v-0.1c0-9.8-7.5-17.2-18.4-17.2h-13.5V192.3L199.4,192.3z
		 M212.9,164.5c6.2,0,10.4,4.3,10.4,10.4v0.1c0,6.1-4.2,10.3-10.4,10.3H207v-20.9H212.9L212.9,164.5z M238.1,192.3h26.4v-6.8h-18.8
		v-7.3H262v-6.8h-16.3v-7h18.6v-6.8h-26.1V192.3L238.1,192.3z M282.3,192.5h6.7l14-34.9h-8.2l-9.1,24.4l-9.1-24.4h-8.4L282.3,192.5
		L282.3,192.5z M308.4,192.3h26.4v-6.8h-18.8v-7.3h16.3v-6.8h-16.3v-7h18.6v-6.8h-26.1V192.3L308.4,192.3z M341.5,192.3h24.9v-6.9
		h-17.3v-27.7h-7.6V192.3L341.5,192.3z M387,192.9c10.7,0,18.5-8.1,18.5-17.9v-0.1c0-9.8-7.7-17.8-18.4-17.8s-18.5,8.1-18.5,17.9
		v0.1C368.6,184.9,376.3,192.9,387,192.9L387,192.9z M387.1,185.9c-6.1,0-10.5-4.9-10.5-10.9v-0.1c0-5.9,4.3-10.8,10.4-10.8
		s10.5,5,10.5,10.9v0.1C397.5,181,393.2,185.9,387.1,185.9L387.1,185.9z M412.2,192.3h7.6v-10.4h5.8c7.8,0,14-4.2,14-12.2v-0.1
		c0-7.1-5-12-13.3-12h-14.1V192.3L412.2,192.3z M419.8,175.1v-10.6h5.9c3.8,0,6.2,1.8,6.2,5.2v0.1c0,3-2.2,5.2-6,5.2H419.8
		L419.8,175.1z M445.3,192.3h26.4v-6.8h-18.8v-7.3h16.3v-6.8h-16.3v-7h18.6v-6.8h-26.1V192.3L445.3,192.3z M478.4,192.3h7.6v-11.1h6
		l7.4,11.1h8.9l-8.5-12.4c4.4-1.6,7.4-5.1,7.4-10.7v-0.1c0-3.3-1-6-3-7.9c-2.3-2.3-5.7-3.5-10.1-3.5h-15.8V192.3L478.4,192.3z
		 M486,174.5v-10h7.6c3.7,0,6,1.7,6,5v0.1c0,2.9-2.1,4.9-5.8,4.9H486L486,174.5z"/>
	<path class="st0" d="M208.6,133.2h6.6l7.8-22.7l7.8,22.7h6.6l11.8-34.9h-8l-7.2,23.5l-7.8-23.6h-6.5l-7.8,23.6l-7.2-23.5h-8.2
		L208.6,133.2L208.6,133.2z M269.8,133.5c10.7,0,18.5-8.1,18.5-17.9v-0.1c0-9.9-7.7-17.8-18.4-17.8c-10.7,0-18.5,8.1-18.5,17.9v0.1
		C251.4,125.5,259.1,133.5,269.8,133.5L269.8,133.5z M269.9,126.5c-6.1,0-10.5-4.9-10.5-10.9v-0.1c0-5.9,4.3-10.8,10.4-10.8
		c6.1,0,10.5,4.9,10.5,10.9v0.1C280.3,121.6,276,126.5,269.9,126.5L269.9,126.5z M295,132.9h7.6v-11.1h6l7.4,11.1h8.9l-8.5-12.4
		c4.4-1.6,7.4-5.1,7.4-10.7v-0.1c0-3.3-1-6-3-7.9c-2.3-2.3-5.7-3.5-10.1-3.5H295V132.9L295,132.9z M302.6,115.1v-10h7.6
		c3.7,0,6,1.7,6,5v0.1c0,2.9-2.1,4.9-5.8,4.9H302.6L302.6,115.1z M330.8,132.9h7.6v-10.6l4-4.2l10.7,14.7h9.2L347.5,113l14.1-14.7
		h-9.2l-14.1,15.1V98.3h-7.6V132.9L330.8,132.9z M366.9,132.9h7.6v-13.4H391v-6.9h-16.5v-7.4h18.8v-6.9h-26.4V132.9L366.9,132.9z
		 M399.4,132.9h24.9V126H407V98.3h-7.6V132.9L399.4,132.9z M444.8,133.5c10.7,0,18.5-8.1,18.5-17.9v-0.1c0-9.9-7.7-17.8-18.4-17.8
		s-18.5,8.1-18.5,17.9v0.1C426.5,125.5,434.1,133.5,444.8,133.5L444.8,133.5z M444.9,126.5c-6.1,0-10.5-4.9-10.5-10.9v-0.1
		c0-5.9,4.3-10.8,10.4-10.8s10.5,4.9,10.5,10.9v0.1C455.3,121.6,451.1,126.5,444.9,126.5L444.9,126.5z M477.2,133.2h6.6l7.8-22.7
		l7.8,22.7h6.6L518,98.3h-8l-7.2,23.5l-7.8-23.6h-6.5l-7.8,23.6l-7.2-23.5h-8.2L477.2,133.2L477.2,133.2z"/>
	<path class="st0" d="M146,141.4V4.5c0-2.5-2-4.5-4.5-4.5H4.5C2,0,0,2,0,4.5v136.9c0,2.5,2,4.5,4.5,4.5h136.9
		C143.9,146,146,143.9,146,141.4L146,141.4z M104.3,91.2c0,6.4-3.7,11.9-9.7,14.8L73,117.3L51.2,106c-5.9-2.9-9.6-8.3-9.6-14.8V79.5
		l13,3.9v7.8c0,1.4,0.9,2.4,2.3,3.1l16,8l15.9-8c1.5-0.7,2.4-1.7,2.4-3.1V80.8L41.7,66.5V43c0-3.2,1.7-6.2,4.5-7.8
		c4.2-2.5,13.2-6.6,26.8-6.6c13.6,0,22.6,4.1,26.8,6.6c2.8,1.6,4.5,4.6,4.5,7.8v15.6l-13-3.9v-9.3c-3.5-1.7-9.6-3.7-18.3-3.7
		c-8.7,0-14.7,2-18.3,3.7v11.9l49.6,14.4V91.2L104.3,91.2z"/>
	<path class="st0" d="M217.6,73c-10.5,0-19.5-3.4-27.6-8.5l5-7.6c8.1,5.2,15.5,7.7,23.8,7.7c9.7,0,14.3-3.7,14.3-8.2
		c0-12.7-41.2-5.1-41.2-25.2c0-9.8,9.8-17.6,25.7-17.6c10.7,0,19.9,4,25.3,9.4l-6.2,6.3c-4.7-4.1-11.8-7.3-19.3-7.3
		c-9.2,0-15.5,3.3-15.5,8.1c0,11.7,41.3,5.5,41.3,25.3C243.3,65.9,232.7,73,217.6,73L217.6,73z M283.7,48.7V71h-10V48.7l-25-33.1
		h11.7l18.7,25.7l17.7-25.7h11.5L283.7,48.7L283.7,48.7z M378,71V27.5l-2.7,5.9L355.6,71h-6l-19.4-37.6l-2.7-5.9V71h-9.6V15.5h13.9
		l18.7,37.3l2.6,5.7l2.6-5.7L374,15.5h13.7V71H378L378,71z M442.1,32c0-4.6-3.1-8-10.7-8h-18.4v17.9h18.8c7.6,0,10.2-3.7,10.2-8.2
		V32L442.1,32z M430.4,50.1h-17.3V71h-10V15.5h27.3c15.2,0,21.8,6.8,21.8,16.5v1.5C452.2,43.2,445.6,50.1,430.4,50.1L430.4,50.1z
		 M506.7,71V47.1h-33.4V71h-10V15.5h10V39h33.4V15.5h10V71H506.7L506.7,71z M577,39.8c0-9.5-6.6-17.7-18.7-17.7
		c-12.2,0-18.7,8.2-18.7,17.7v6.7c0,9.5,6.5,17.8,18.7,17.8c12.2,0,18.7-8.3,18.7-17.8V39.8L577,39.8z M558.3,73
		c-17.8,0-28.7-12.7-28.7-26.2v-6.9c0-13.8,10.9-26.2,28.7-26.2c17.9,0,28.8,12.4,28.8,26.2v6.9C587.1,60.3,576.2,73,558.3,73
		L558.3,73z M644.8,71l-31.1-35.1l-4-5.2V71h-9.9V15.5h9.2l30.1,35.1l4.1,5.2V15.5h9.8V71H644.8L644.8,71z M697.5,48.7V71h-10V48.7
		l-25-33.1h11.7l18.7,25.7l17.7-25.7h11.5L697.5,48.7L697.5,48.7z"/>
</g>
</svg>
