<?xml version="1.0" encoding="utf-8"?>
<!-- Generator: Adobe Illustrator 24.1.0, SVG Export Plug-In . SVG Version: 6.00 Build 0)  -->
<svg version="1.1" id="Layer_1" xmlns="http://www.w3.org/2000/svg" xmlns:xlink="http://www.w3.org/1999/xlink" x="0px" y="0px"
	 viewBox="0 0 414.72 233.58" style="enable-background:new 0 0 414.72 233.58;" xml:space="preserve">
<style type="text/css">
	.st0{fill:#041E42;}
	.st1{fill:#0047BB;}
</style>
<g>
	<path class="st0" d="M23.2,232.7c5.57-0.03,10.61-1.36,15.13-4c4.52-2.64,8.03-6.29,10.52-10.96c2.49-4.67,3.73-9.95,3.73-15.84
		v-2.96c-0.03-5.83-1.32-11.1-3.87-15.8c-2.55-4.7-6.09-8.34-10.63-10.92c-4.54-2.58-9.65-3.87-15.33-3.87H2.03v64.34H23.2
		L23.2,232.7z M22.76,180.33c4.57,0,8.04,1.58,10.43,4.73c2.39,3.15,3.58,7.84,3.58,14.05v2.78c0,6.25-1.19,10.95-3.58,14.12
		c-2.39,3.17-5.8,4.75-10.25,4.75h-5.39v-40.43H22.76L22.76,180.33z M101.68,232.7v-0.75c-1.3-2.33-1.98-5.69-2.03-10.08V200.7
		c-0.09-5.19-1.9-9.27-5.44-12.24c-3.54-2.97-8.35-4.46-14.45-4.46c-6.1,0-11.11,1.44-15.05,4.33c-3.93,2.88-5.9,6.63-5.9,11.25
		h14.89c0-3.49,1.77-5.24,5.3-5.24c3.8,0,5.7,2.21,5.7,6.62v2.53h-4.6c-7.31,0-12.87,1.32-16.7,3.98
		c-3.83,2.65-5.74,6.57-5.74,11.75c0,4.12,1.58,7.55,4.73,10.27c3.15,2.73,6.98,4.09,11.49,4.09c4.92,0,8.75-1.72,11.49-5.17
		c0.41,1.89,0.88,3.31,1.41,4.29H101.68L101.68,232.7z M73.97,221.71c-0.91-0.84-1.37-1.94-1.37-3.29c0-4.65,2.59-6.98,7.78-6.98
		h4.33v7.64c-0.53,1-1.41,1.9-2.63,2.7c-1.22,0.8-2.76,1.19-4.62,1.19C76.05,222.97,74.89,222.55,73.97,221.71L73.97,221.71z
		 M110.34,173v11.89h-6.1v10.34h6.1v23.73c0,4.92,1.22,8.59,3.67,11c2.45,2.42,6.23,3.62,11.36,3.62c2.92,0,5.71-0.43,8.4-1.28
		v-10.65c-1,0.18-2.24,0.26-3.71,0.26c-1.91,0-3.2-0.35-3.84-1.06c-0.65-0.71-0.97-1.96-0.97-3.76v-21.87h7.87v-10.34h-7.87V173
		H110.34L110.34,173z M180.78,232.7v-0.75c-1.3-2.33-1.97-5.69-2.03-10.08V200.7c-0.09-5.19-1.9-9.27-5.43-12.24
		c-3.54-2.97-8.35-4.46-14.45-4.46c-6.1,0-11.11,1.44-15.05,4.33c-3.93,2.88-5.9,6.63-5.9,11.25h14.89c0-3.49,1.77-5.24,5.3-5.24
		c3.8,0,5.7,2.21,5.7,6.62v2.53h-4.6c-7.31,0-12.87,1.32-16.7,3.98c-3.83,2.65-5.74,6.57-5.74,11.75c0,4.12,1.58,7.55,4.73,10.27
		c3.15,2.73,6.98,4.09,11.49,4.09c4.92,0,8.75-1.72,11.49-5.17c0.41,1.89,0.88,3.31,1.41,4.29H180.78L180.78,232.7z M153.07,221.71
		c-0.91-0.84-1.37-1.94-1.37-3.29c0-4.65,2.59-6.98,7.78-6.98h4.33v7.64c-0.53,1-1.41,1.9-2.63,2.7c-1.22,0.8-2.76,1.19-4.62,1.19
		C155.15,222.97,153.99,222.55,153.07,221.71L153.07,221.71z"/>
	<path class="st1" d="M37.3,150.04h16.62v-0.66L40.48,123.4c3.86-1.82,6.69-4.21,8.51-7.15c1.81-2.94,2.72-6.65,2.72-11.12
		c0-6.18-2.15-10.96-6.45-14.35c-4.3-3.38-10.27-5.08-17.9-5.08H2.03v64.34h15.51v-22.76h8.4L37.3,150.04L37.3,150.04z M17.54,97.63
		h9.81c2.92,0,5.13,0.79,6.63,2.37c1.5,1.58,2.25,3.76,2.25,6.53s-0.74,4.94-2.23,6.49c-1.49,1.55-3.71,2.33-6.65,2.33h-9.81V97.63
		L17.54,97.63z M94.5,148.65c3.4-1.52,6.03-3.56,7.89-6.12l-6.81-8.04c-2.65,3.3-6.33,4.95-11.05,4.95c-2.86,0-5.18-0.77-6.98-2.3
		c-1.8-1.53-2.96-3.64-3.49-6.32h29.61v-5.79c0-7.45-1.94-13.26-5.83-17.43c-3.89-4.17-9.19-6.25-15.91-6.25
		c-4.77,0-8.9,1.02-12.37,3.07c-3.48,2.05-6.12,4.94-7.93,8.68c-1.81,3.74-2.72,8.06-2.72,12.95v1.24c0,7.01,2.27,12.71,6.81,17.08
		c4.54,4.38,10.47,6.56,17.81,6.56C87.44,150.93,91.1,150.17,94.5,148.65L94.5,148.65z M87.27,114.8c1.27,1.31,1.87,3.16,1.81,5.55
		v1.15H74.06c0.82-5.77,3.42-8.66,7.78-8.66C84.2,112.83,86.01,113.49,87.27,114.8L87.27,114.8z M127.88,150.04v-37.47h9.32v-10.34
		h-9.32v-3.67c0-3.89,2.25-5.83,6.76-5.83c1.53,0,2.75,0.13,3.67,0.4l-0.04-10.96c-2.53-0.62-4.86-0.93-6.98-0.93
		c-5.8,0-10.31,1.5-13.52,4.51c-3.21,3-4.82,7.23-4.82,12.68v3.8h-6.94v10.34h6.94v37.47H127.88L127.88,150.04z M175.5,148.65
		c3.4-1.52,6.03-3.56,7.89-6.12l-6.8-8.04c-2.65,3.3-6.33,4.95-11.05,4.95c-2.86,0-5.19-0.77-6.98-2.3
		c-1.8-1.53-2.96-3.64-3.49-6.32h29.61v-5.79c0-7.45-1.95-13.26-5.83-17.43c-3.89-4.17-9.19-6.25-15.91-6.25
		c-4.77,0-8.9,1.02-12.37,3.07c-3.48,2.05-6.12,4.94-7.93,8.68c-1.81,3.74-2.72,8.06-2.72,12.95v1.24c0,7.01,2.27,12.71,6.81,17.08
		c4.54,4.38,10.47,6.56,17.81,6.56C168.44,150.93,172.1,150.17,175.5,148.65L175.5,148.65z M168.27,114.8
		c1.27,1.31,1.87,3.16,1.81,5.55v1.15h-15.02c0.82-5.77,3.42-8.66,7.78-8.66C165.2,112.83,167.01,113.49,168.27,114.8L168.27,114.8z
		 M219.84,101.88c-1.18-0.35-2.56-0.53-4.15-0.53c-4.48,0-7.97,2.34-10.47,7.03l-0.49-6.14h-13.96v47.81h14.89v-30.27
		c1.32-2.95,4.33-4.42,9.01-4.42l4.91,0.35L219.84,101.88L219.84,101.88z M258.22,148.65c3.4-1.52,6.03-3.56,7.89-6.12l-6.8-8.04
		c-2.65,3.3-6.33,4.95-11.05,4.95c-2.86,0-5.19-0.77-6.98-2.3c-1.8-1.53-2.96-3.64-3.49-6.32h29.61v-5.79
		c0-7.45-1.95-13.26-5.83-17.43c-3.89-4.17-9.19-6.25-15.91-6.25c-4.77,0-8.9,1.02-12.37,3.07c-3.48,2.05-6.12,4.94-7.93,8.68
		c-1.81,3.74-2.72,8.06-2.72,12.95v1.24c0,7.01,2.27,12.71,6.8,17.08c4.54,4.38,10.47,6.56,17.81,6.56
		C251.16,150.93,254.82,150.17,258.22,148.65L258.22,148.65z M251,114.8c1.27,1.31,1.87,3.16,1.81,5.55v1.15h-15.02
		c0.82-5.77,3.42-8.66,7.78-8.66C247.92,112.83,249.73,113.49,251,114.8L251,114.8z M273.09,102.23v47.81h14.89v-33.76
		c1.41-2.3,3.58-3.45,6.5-3.45c2.56,0,4.33,0.57,5.3,1.7c0.97,1.13,1.46,2.91,1.46,5.32v30.18h14.94v-30.8
		c-0.09-5.98-1.36-10.46-3.82-13.43c-2.46-2.97-6.18-4.46-11.16-4.46c-5.8,0-10.36,2.17-13.66,6.5l-0.49-5.61H273.09L273.09,102.23z
		 M339.16,136.65c-1.15-1.86-1.72-5.18-1.72-9.99c0-2.74,0.1-4.89,0.31-6.45c0.65-4.92,2.9-7.38,6.76-7.38
		c2.03,0,3.65,0.66,4.86,1.99c1.21,1.32,1.81,3.23,1.81,5.7h13.96c0-5.89-1.83-10.56-5.48-14.01c-3.65-3.45-8.59-5.17-14.8-5.17
		c-4.6,0-8.57,0.99-11.93,2.98c-3.36,1.99-5.93,4.83-7.71,8.53c-1.78,3.7-2.67,7.96-2.67,12.79v0.62c0,7.72,2,13.76,6.01,18.12
		c4.01,4.36,9.49,6.54,16.44,6.54c5.92,0,10.76-1.68,14.52-5.04c3.76-3.36,5.63-7.66,5.63-12.9h-13.96
		c0.03,2.03-0.53,3.62-1.68,4.75c-1.15,1.13-2.77,1.7-4.86,1.7C342.13,139.44,340.3,138.51,339.16,136.65L339.16,136.65z
		 M405.55,148.65c3.4-1.52,6.03-3.56,7.89-6.12l-6.81-8.04c-2.65,3.3-6.33,4.95-11.05,4.95c-2.86,0-5.18-0.77-6.98-2.3
		c-1.8-1.53-2.96-3.64-3.49-6.32h29.61v-5.79c0-7.45-1.94-13.26-5.83-17.43c-3.89-4.17-9.19-6.25-15.91-6.25
		c-4.77,0-8.9,1.02-12.37,3.07c-3.48,2.05-6.12,4.94-7.93,8.68c-1.81,3.74-2.72,8.06-2.72,12.95v1.24c0,7.01,2.27,12.71,6.8,17.08
		c4.54,4.38,10.47,6.56,17.81,6.56C398.49,150.93,402.15,150.17,405.55,148.65L405.55,148.65z M398.33,114.8
		c1.27,1.31,1.87,3.16,1.81,5.55v1.15h-15.02c0.82-5.77,3.42-8.66,7.78-8.66C395.25,112.83,397.06,113.49,398.33,114.8L398.33,114.8
		z"/>
	<path class="st0" d="M32.99,54.95c-1.49,1.1-3.51,1.66-6.08,1.66c-4.01,0-6.9-0.82-8.68-2.45c-1.78-1.64-2.67-4.18-2.67-7.62H0
		c0,4.24,1.07,7.99,3.2,11.25c2.14,3.26,5.32,5.82,9.55,7.69c4.23,1.87,8.95,2.81,14.16,2.81c7.39,0,13.21-1.61,17.45-4.82
		c4.24-3.21,6.36-7.63,6.36-13.26c0-7.04-3.48-12.56-10.43-16.57c-2.86-1.65-6.51-3.19-10.96-4.62c-4.45-1.43-7.56-2.81-9.32-4.15
		c-1.77-1.34-2.65-2.84-2.65-4.49c0-1.88,0.8-3.44,2.41-4.66c1.61-1.22,3.79-1.83,6.56-1.83c2.74,0,4.91,0.72,6.52,2.17
		c1.61,1.44,2.41,3.48,2.41,6.1h15.47c0-3.92-1.02-7.4-3.05-10.45c-2.03-3.05-4.88-5.4-8.55-7.05c-3.67-1.65-7.81-2.47-12.44-2.47
		c-4.74,0-9.01,0.76-12.81,2.28c-3.8,1.52-6.74,3.64-8.82,6.36c-2.08,2.73-3.12,5.87-3.12,9.43c0,7.16,4.17,12.79,12.51,16.88
		c2.56,1.27,5.86,2.58,9.9,3.93c4.04,1.36,6.86,2.67,8.46,3.93c1.61,1.27,2.41,3.03,2.41,5.3C35.22,52.29,34.47,53.85,32.99,54.95
		L32.99,54.95z M92.11,66c3.4-1.52,6.03-3.56,7.89-6.12l-6.81-8.04c-2.65,3.3-6.33,4.95-11.05,4.95c-2.86,0-5.19-0.77-6.98-2.3
		c-1.8-1.53-2.96-3.64-3.49-6.32h29.61v-5.79c0-7.45-1.94-13.26-5.83-17.43c-3.89-4.17-9.19-6.25-15.91-6.25
		c-4.77,0-8.9,1.02-12.37,3.07c-3.48,2.05-6.12,4.94-7.93,8.68c-1.81,3.74-2.72,8.06-2.72,12.95v1.24c0,7.01,2.27,12.7,6.81,17.08
		c4.54,4.37,10.47,6.56,17.81,6.56C85.05,68.27,88.71,67.51,92.11,66L92.11,66z M84.89,32.15c1.27,1.31,1.87,3.16,1.81,5.55v1.15
		H71.68c0.82-5.77,3.42-8.66,7.78-8.66C81.81,30.18,83.62,30.84,84.89,32.15L84.89,32.15z M122.01,54
		c-1.15-1.86-1.72-5.18-1.72-9.99c0-2.74,0.1-4.89,0.31-6.45c0.65-4.92,2.9-7.38,6.76-7.38c2.03,0,3.65,0.66,4.86,1.99
		c1.21,1.33,1.81,3.23,1.81,5.7h13.96c0-5.89-1.83-10.56-5.48-14.01c-3.65-3.45-8.59-5.17-14.8-5.17c-4.6,0-8.57,0.99-11.93,2.98
		c-3.36,1.99-5.93,4.83-7.71,8.53c-1.78,3.7-2.67,7.96-2.67,12.79v0.62c0,7.72,2,13.76,6.01,18.12c4.01,4.36,9.49,6.54,16.44,6.54
		c5.92,0,10.76-1.68,14.52-5.04c3.76-3.36,5.63-7.66,5.63-12.9h-13.96c0.03,2.03-0.53,3.62-1.68,4.75c-1.15,1.13-2.77,1.7-4.86,1.7
		C124.98,56.78,123.16,55.86,122.01,54L122.01,54z M183.21,67.39h13.96V19.58h-14.98v33.54c-1.44,2.45-3.87,3.67-7.29,3.67
		c-3.98,0-5.97-2.05-5.97-6.14V19.58h-14.89v30.98c0,5.72,1.35,10.1,4.04,13.15c2.69,3.05,6.67,4.57,11.91,4.57
		c5.36,0,9.62-2.02,12.77-6.05L183.21,67.39L183.21,67.39z M234.51,19.22c-1.18-0.35-2.56-0.53-4.15-0.53
		c-4.48,0-7.97,2.34-10.47,7.03l-0.49-6.14h-13.96v47.81h14.89V37.12c1.33-2.95,4.33-4.42,9.01-4.42l4.9,0.35L234.51,19.22
		L234.51,19.22z M255.33,19.58h-14.94v47.81h14.94V19.58L255.33,19.58z M241.81,12.46c1.53,1.36,3.52,2.03,5.97,2.03
		c2.45,0,4.43-0.68,5.97-2.03c1.53-1.35,2.3-3.09,2.3-5.21c0-2.12-0.77-3.86-2.3-5.21C252.2,0.68,250.22,0,247.77,0
		c-2.45,0-4.43,0.68-5.97,2.03c-1.53,1.36-2.3,3.09-2.3,5.21C239.51,9.37,240.27,11.11,241.81,12.46L241.81,12.46z M266.95,7.69
		v11.89h-6.1v10.34h6.1v23.73c0,4.92,1.22,8.59,3.67,11c2.44,2.42,6.23,3.62,11.36,3.62c2.92,0,5.71-0.43,8.4-1.28V56.34
		c-1,0.18-2.24,0.27-3.71,0.27c-1.91,0-3.2-0.35-3.84-1.06c-0.65-0.71-0.97-1.96-0.97-3.76V29.92h7.86V19.58h-7.86V7.69H266.95
		L266.95,7.69z M307.12,19.58h-15.91l16.62,48.29l-1.19,3.18c-0.53,1.56-1.35,2.65-2.45,3.25c-1.1,0.6-2.7,0.91-4.79,0.91h-1.94
		v10.61c2.15,0.59,4.2,0.88,6.14,0.88c7.01,0,11.9-3.09,14.67-9.28l0.84-2.03l19.49-55.81h-15.95l-7.95,26.96L307.12,19.58
		L307.12,19.58z"/>
</g>
</svg>
