<?xml version="1.0" encoding="utf-8"?>
<!-- Generator: Adobe Illustrator 26.0.1, SVG Export Plug-In . SVG Version: 6.00 Build 0)  -->
<svg version="1.1" id="Layer_1" xmlns="http://www.w3.org/2000/svg" xmlns:xlink="http://www.w3.org/1999/xlink" x="0px" y="0px"
	 viewBox="0 0 722.16 428.23" style="enable-background:new 0 0 722.16 428.23;" xml:space="preserve">
<style type="text/css">
	.st0{fill:#FFFFFF;}
</style>
<g>
	<path class="st0" d="M36.16,426.05c3.33-1.46,6.21-3.21,8.63-5.27v-20.42H24.38v8.93h10.41v6.76c-2.64,1.89-5.89,2.84-9.74,2.84
		c-2.1,0-4.02-0.37-5.74-1.11c-1.72-0.74-3.22-1.78-4.5-3.13c-1.28-1.35-2.26-2.93-2.95-4.74c-0.69-1.82-1.04-3.8-1.04-5.96v-0.14
		c0-2.02,0.35-3.92,1.04-5.69c0.69-1.77,1.66-3.32,2.89-4.64c1.23-1.32,2.66-2.38,4.3-3.16c1.63-0.79,3.39-1.18,5.27-1.18
		c1.34,0,2.57,0.11,3.69,0.34c1.12,0.23,2.16,0.54,3.12,0.94c0.96,0.4,1.89,0.9,2.79,1.48c0.89,0.58,1.79,1.25,2.69,2.01l6.51-7.86
		c-1.21-1.03-2.46-1.95-3.76-2.75c-1.3-0.8-2.69-1.48-4.16-2.01c-1.48-0.54-3.08-0.95-4.8-1.24c-1.72-0.29-3.64-0.44-5.74-0.44
		c-3.58,0-6.87,0.64-9.87,1.91c-3,1.28-5.6,3.02-7.79,5.24c-2.19,2.22-3.91,4.79-5.14,7.72C0.61,397.42,0,400.56,0,403.92v0.13
		c0,3.49,0.6,6.72,1.81,9.67c1.21,2.95,2.9,5.51,5.07,7.66c2.17,2.15,4.77,3.83,7.79,5.04c3.02,1.21,6.37,1.81,10.04,1.81
		C29.01,428.23,32.83,427.5,36.16,426.05L36.16,426.05z M55.67,427.42H91.4v-9.2H65.88v-9.87h22.16v-9.2H65.88v-9.54h25.18v-9.2
		H55.67V427.42L55.67,427.42z M101.61,427.42h10.21v-29.88l22.77,29.88h8.8v-47.01h-10.21v28.94l-22.03-28.94h-9.54V427.42
		L101.61,427.42z M155.6,427.42h35.73v-9.2h-25.52v-9.87h22.16v-9.2h-22.16v-9.54h25.18v-9.2H155.6V427.42L155.6,427.42z
		 M211.88,403.25v-13.5h10.27c2.55,0,4.54,0.56,5.98,1.68c1.43,1.12,2.15,2.8,2.15,5.04v0.14c0,2.01-0.68,3.63-2.05,4.83
		c-1.37,1.21-3.32,1.81-5.88,1.81H211.88L211.88,403.25z M201.54,427.42h10.34v-15.04h7.99h0.13l10.07,15.04h12.09l-11.48-16.79
		c3-1.12,5.43-2.88,7.29-5.27c1.86-2.4,2.79-5.5,2.79-9.3v-0.13c0-4.48-1.34-8.06-4.03-10.74c-3.18-3.18-7.75-4.77-13.7-4.77h-21.49
		V427.42L201.54,427.42z M265.54,407.75l6.25-15.24l6.25,15.24H265.54L265.54,407.75z M247,427.42h10.54l4.3-10.54h19.88l4.3,10.54
		h10.81l-20.15-47.35h-9.54L247,427.42L247,427.42z M315.97,427.42h10.34v-37.47h14.3v-9.54h-38.95v9.54h14.3V427.42L315.97,427.42z
		 M366.71,417.52c-1.72-0.78-3.22-1.85-4.5-3.19c-1.28-1.34-2.26-2.91-2.95-4.7c-0.69-1.79-1.04-3.69-1.04-5.71v-0.13
		c0-2.02,0.35-3.91,1.04-5.68c0.69-1.77,1.66-3.32,2.89-4.67c1.23-1.34,2.71-2.39,4.43-3.16c1.72-0.76,3.64-1.14,5.74-1.14
		c2.06,0,3.96,0.39,5.71,1.18c1.75,0.78,3.26,1.85,4.53,3.19c1.28,1.34,2.26,2.91,2.96,4.7c0.69,1.79,1.04,3.69,1.04,5.71v0.13
		c0,2.02-0.35,3.91-1.04,5.68c-0.69,1.77-1.66,3.32-2.89,4.67c-1.23,1.34-2.72,2.39-4.47,3.16c-1.75,0.76-3.65,1.14-5.71,1.14
		C370.35,418.7,368.43,418.3,366.71,417.52L366.71,417.52z M382.36,426.32c3.07-1.28,5.71-3.02,7.92-5.24
		c2.22-2.22,3.95-4.79,5.2-7.72c1.25-2.93,1.88-6.08,1.88-9.44v-0.13c0-3.36-0.62-6.5-1.85-9.44c-1.23-2.93-2.95-5.48-5.17-7.66
		c-2.22-2.17-4.85-3.89-7.89-5.17c-3.05-1.28-6.38-1.91-10.01-1.91c-3.63,0-6.97,0.64-10.04,1.91c-3.07,1.28-5.71,3.02-7.92,5.24
		c-2.22,2.22-3.95,4.79-5.2,7.72c-1.25,2.93-1.88,6.08-1.88,9.44v0.13c0,3.36,0.61,6.5,1.85,9.44c1.23,2.93,2.96,5.49,5.17,7.66
		c2.22,2.17,4.85,3.89,7.89,5.17c3.04,1.28,6.38,1.91,10.01,1.91C375.94,428.23,379.29,427.59,382.36,426.32L382.36,426.32z
		 M417.85,403.25v-13.5h10.27c2.55,0,4.54,0.56,5.98,1.68c1.43,1.12,2.15,2.8,2.15,5.04v0.14c0,2.01-0.68,3.63-2.05,4.83
		c-1.37,1.21-3.33,1.81-5.88,1.81H417.85L417.85,403.25z M407.51,427.42h10.34v-15.04h7.99h0.14l10.07,15.04h12.09l-11.48-16.79
		c3-1.12,5.43-2.88,7.29-5.27c1.86-2.4,2.79-5.5,2.79-9.3v-0.13c0-4.48-1.34-8.06-4.03-10.74c-3.18-3.18-7.75-4.77-13.7-4.77h-21.49
		V427.42L407.51,427.42z"/>
	<path class="st0" d="M198.09,191.93V6.16c0-3.4-2.76-6.16-6.16-6.16H6.16C2.76,0,0,2.76,0,6.16v185.77c0,3.4,2.76,6.16,6.16,6.16
		h185.77C195.33,198.09,198.09,195.33,198.09,191.93L198.09,191.93z M141.55,123.84c0,8.75-5.02,16.19-13.1,20.13l-29.4,15.29
		l-29.51-15.34c-7.97-3.88-12.99-11.32-12.99-20.07V107.9l17.71,5.31v10.62c0,1.92,1.2,3.26,3.14,4.21l21.65,10.85l21.54-10.79
		c2.05-1,3.25-2.34,3.25-4.26v-14.17L56.55,90.19v-31.8c0-4.34,2.35-8.41,6.12-10.64c5.65-3.33,17.9-8.92,36.38-8.92
		c18.48,0,30.73,5.59,36.38,8.92c3.78,2.22,6.12,6.3,6.12,10.64v21.18l-17.71-5.31V61.63c-4.81-2.32-13.01-5.08-24.79-5.08
		c-11.79,0-19.98,2.76-24.79,5.08V77.8l67.29,19.48V123.84L141.55,123.84z"/>
	<path class="st0" d="M37.41,346.07c-14.24,0-26.45-4.63-37.41-11.53l6.78-10.29c10.96,7.01,21.02,10.4,32.33,10.4
		c13.22,0,19.44-5.09,19.44-11.08c0-17.18-55.95-6.89-55.95-34.25c0-13.34,13.34-23.85,34.81-23.85c14.47,0,27.01,5.43,34.36,12.77
		l-8.36,8.59c-6.33-5.54-16.05-9.95-26.22-9.95c-12.55,0-21.02,4.52-21.02,10.96c0,15.94,56.06,7.46,56.06,34.36
		C72.22,336.46,57.87,346.07,37.41,346.07L37.41,346.07z M127.05,313.18v30.18h-13.56v-30.29l-33.91-44.98H95.4l25.43,34.81
		l24.08-34.81h15.6L127.05,313.18L127.05,313.18z M255.11,343.36v-59l-3.73,8.03l-26.67,50.98h-8.14l-26.33-50.98l-3.73-8.03v59h-13
		v-75.28h18.88l25.32,50.64l3.5,7.69l3.51-7.69l24.98-50.64h18.65v75.28H255.11L255.11,343.36z M342.11,290.46
		c0-6.22-4.18-10.85-14.47-10.85h-24.98v24.3h25.55c10.29,0,13.9-4.98,13.9-11.08V290.46L342.11,290.46z M326.17,314.99h-23.51
		v28.37H289.1v-75.28h37.07c20.57,0,29.61,9.27,29.61,22.38v2.03C355.79,305.6,346.74,314.99,326.17,314.99L326.17,314.99z
		 M429.69,343.36v-32.44h-45.32v32.44H370.8v-75.28h13.56v31.88h45.32v-31.88h13.56v75.28H429.69L429.69,343.36z M525.15,301.08
		c0-12.88-8.93-23.96-25.43-23.96c-16.51,0-25.32,11.08-25.32,23.96v9.16c0,12.88,8.81,24.19,25.32,24.19
		c16.5,0,25.43-11.3,25.43-24.19V301.08L525.15,301.08z M499.72,346.07c-24.19,0-39-17.18-39-35.6v-9.38c0-18.76,14.81-35.6,39-35.6
		c24.3,0,39.11,16.84,39.11,35.6v9.38C538.83,328.89,524.02,346.07,499.72,346.07L499.72,346.07z M617.14,343.36l-42.16-47.59
		l-5.43-7.01v54.59H556.1v-75.28h12.54l40.8,47.7l5.54,7.01v-54.71h13.34v75.28H617.14L617.14,343.36z M688.7,313.18v30.18h-13.57
		v-30.29l-33.91-44.98h15.83l25.43,34.81l24.08-34.81h15.6L688.7,313.18L688.7,313.18z"/>
</g>
</svg>
