<?xml version="1.0" encoding="utf-8"?>
<!-- Generator: Adobe Illustrator 24.1.0, SVG Export Plug-In . SVG Version: 6.00 Build 0)  -->
<svg version="1.1" id="Layer_1" xmlns="http://www.w3.org/2000/svg" xmlns:xlink="http://www.w3.org/1999/xlink" x="0px" y="0px"
	 viewBox="0 0 504 225.93" style="enable-background:new 0 0 504 225.93;" xml:space="preserve">
<style type="text/css">
	.st0{fill:#041E42;}
	.st1{fill:#0086BF;}
</style>
<g>
	<path class="st0" d="M14.63,188.07v-27.53h15.61c5.02,0,9.02,1.15,12.01,3.44c2.98,2.29,4.48,5.7,4.48,10.21v0.22
		c0,4-1.47,7.28-4.42,9.83c-2.95,2.55-6.97,3.82-12.06,3.82H14.63L14.63,188.07z M1.35,224.62h13.27v-24.48h15.16
		c4.22,0,8.18-0.56,11.89-1.69c3.71-1.12,6.94-2.77,9.71-4.95c2.76-2.18,4.94-4.88,6.54-8.11c1.6-3.23,2.4-6.98,2.4-11.26v-0.22
		c0-3.84-0.67-7.33-2.01-10.44c-1.34-3.12-3.26-5.8-5.77-8.05c-2.5-2.25-5.55-3.97-9.14-5.17c-3.59-1.2-7.6-1.8-12.02-1.8H1.35
		V224.62L1.35,224.62z M118.03,211.46c-3.18-1.45-5.9-3.39-8.18-5.82c-2.28-2.43-4.04-5.29-5.31-8.6c-1.26-3.3-1.9-6.8-1.9-10.5
		v-0.22c0-3.7,0.63-7.18,1.9-10.45c1.27-3.26,3.02-6.11,5.26-8.54c2.24-2.43,4.93-4.35,8.07-5.77c3.14-1.41,6.59-2.12,10.35-2.12
		c3.76,0,7.22,0.73,10.4,2.18c3.18,1.45,5.9,3.39,8.18,5.82c2.27,2.43,4.04,5.29,5.31,8.6c1.27,3.3,1.9,6.8,1.9,10.5v0.22
		c0,3.7-0.63,7.18-1.9,10.44c-1.26,3.26-3.02,6.11-5.26,8.54c-2.24,2.43-4.93,4.35-8.07,5.77c-3.14,1.41-6.59,2.12-10.35,2.12
		C124.67,213.63,121.21,212.91,118.03,211.46L118.03,211.46z M144.32,222.77c4.86-2.1,9.07-4.95,12.62-8.54
		c3.55-3.59,6.31-7.76,8.27-12.51c1.96-4.75,2.94-9.81,2.94-15.18v-0.22c0-5.37-0.98-10.43-2.94-15.18
		c-1.96-4.75-4.68-8.9-8.16-12.46c-3.48-3.55-7.65-6.36-12.51-8.43c-4.86-2.07-10.23-3.1-16.1-3.1s-11.24,1.05-16.1,3.16
		c-4.86,2.1-9.07,4.95-12.62,8.54c-3.55,3.59-6.31,7.76-8.27,12.51c-1.96,4.75-2.94,9.81-2.94,15.18v0.22
		c0,5.37,0.98,10.43,2.94,15.18c1.96,4.75,4.68,8.9,8.16,12.46c3.48,3.56,7.65,6.37,12.51,8.43c4.86,2.07,10.23,3.1,16.1,3.1
		C134.09,225.93,139.46,224.88,144.32,222.77L144.32,222.77z M202.2,224.62h53.31v-12.08h-40.04v-64.08H202.2V224.62L202.2,224.62z
		 M288.15,224.62h13.27v-76.16h-13.27V224.62L288.15,224.62z M384.92,225c2.94-0.61,5.64-1.52,8.11-2.72
		c2.46-1.2,4.77-2.61,6.91-4.24c2.14-1.63,4.19-3.5,6.15-5.6l-8.6-8.7c-3.26,3.05-6.57,5.46-9.9,7.23
		c-3.34,1.78-7.33,2.67-11.97,2.67c-3.63,0-6.98-0.71-10.06-2.12c-3.08-1.41-5.75-3.35-8-5.82c-2.25-2.47-3.99-5.35-5.22-8.65
		c-1.23-3.3-1.85-6.8-1.85-10.5v-0.22c0-3.7,0.62-7.18,1.85-10.45c1.23-3.26,2.97-6.11,5.22-8.54c2.25-2.43,4.91-4.35,8-5.77
		c3.08-1.41,6.44-2.12,10.06-2.12c4.35,0,8.23,0.87,11.64,2.61c3.41,1.74,6.64,4.03,9.68,6.86l8.59-9.9
		c-1.81-1.74-3.74-3.34-5.77-4.79c-2.03-1.45-4.24-2.7-6.64-3.75c-2.39-1.05-5.02-1.87-7.89-2.45c-2.87-0.58-6.04-0.87-9.52-0.87
		c-5.8,0-11.1,1.03-15.88,3.1c-4.79,2.07-8.93,4.9-12.44,8.49c-3.5,3.59-6.22,7.76-8.16,12.51c-1.94,4.75-2.9,9.85-2.9,15.29v0.22
		c0,5.44,0.99,10.55,2.96,15.34c1.97,4.79,4.69,8.94,8.16,12.46c3.47,3.52,7.56,6.29,12.27,8.32c4.71,2.03,9.86,3.05,15.45,3.05
		C378.74,225.93,381.98,225.62,384.92,225L384.92,225z M460.26,224.62h13.49v-30.36l30.25-45.8h-15.34l-21.54,33.73l-21.33-33.73
		h-15.78l30.25,46.13V224.62L460.26,224.62z"/>
	<path class="st1" d="M0,105.93h28.78V68.84h49.11V44.81H28.78V27.3h54.3V2.08H0V105.93L0,105.93z M137.72,79.74
		c-3.27-1.53-6.08-3.58-8.4-6.16c-2.33-2.57-4.14-5.54-5.43-8.9c-1.29-3.36-1.93-6.92-1.93-10.68v-0.3c0-3.76,0.62-7.32,1.86-10.68
		c1.24-3.36,3.02-6.31,5.35-8.83s5.11-4.53,8.33-6.01c3.22-1.48,6.82-2.23,10.79-2.23c3.97,0,7.59,0.77,10.86,2.3
		c3.27,1.53,6.1,3.59,8.48,6.16c2.38,2.57,4.21,5.54,5.5,8.9c1.29,3.36,1.94,6.92,1.94,10.68v0.3c0,3.76-0.65,7.32-1.94,10.68
		c-1.29,3.36-3.07,6.31-5.36,8.83c-2.28,2.52-5.06,4.53-8.33,6.01c-3.27,1.48-6.9,2.22-10.86,2.22
		C144.62,82.04,141,81.28,137.72,79.74L137.72,79.74z M170.62,103.78c6.82-2.82,12.76-6.68,17.8-11.57
		c5.04-4.9,8.98-10.63,11.8-17.21c2.82-6.58,4.23-13.58,4.23-20.99v-0.3c0-7.42-1.41-14.39-4.23-20.92
		c-2.82-6.53-6.7-12.21-11.65-17.06c-4.95-4.84-10.83-8.68-17.65-11.5C164.09,1.41,156.67,0,148.66,0c-8.01,0-15.43,1.41-22.25,4.23
		c-6.82,2.82-12.76,6.68-17.8,11.57c-5.04,4.9-8.98,10.63-11.79,17.21c-2.82,6.58-4.23,13.58-4.23,20.99v0.3
		c0,7.42,1.41,14.39,4.23,20.92c2.82,6.53,6.7,12.22,11.65,17.06c4.94,4.85,10.83,8.68,17.65,11.5s14.24,4.23,22.26,4.23
		C156.37,108.01,163.79,106.6,170.62,103.78L170.62,103.78z M277.44,105.42c5.14-1.53,9.54-3.75,13.2-6.67
		c3.66-2.91,6.5-6.44,8.53-10.59c2.03-4.15,3.04-8.89,3.04-14.22v-0.3c0-4.84-0.89-9.01-2.67-12.51c-1.78-3.51-4.35-6.49-7.72-8.96
		c-3.36-2.47-7.44-4.57-12.24-6.3c-4.8-1.73-10.16-3.23-16.1-4.52c-3.56-0.79-6.51-1.55-8.83-2.29c-2.33-0.74-4.15-1.48-5.49-2.22
		c-1.34-0.74-2.28-1.56-2.82-2.45c-0.54-0.89-0.82-1.92-0.82-3.11V31c0-1.88,0.86-3.45,2.6-4.74c1.73-1.28,4.33-1.93,7.79-1.93
		c4.65,0,9.47,0.87,14.47,2.6c4.99,1.73,9.87,4.28,14.61,7.64l14.39-20.39c-5.64-4.58-11.94-8.03-18.92-10.37
		c-6.97-2.34-14.91-3.51-23.81-3.51c-6.23,0-11.82,0.82-16.76,2.44c-4.95,1.63-9.18,3.92-12.68,6.89
		c-3.51,2.96-6.18,6.47-8.01,10.52c-1.83,4.05-2.74,8.49-2.74,13.33v0.29c0,5.33,1.01,9.8,3.04,13.4c2.03,3.6,4.8,6.62,8.31,9.03
		c3.51,2.42,7.64,4.4,12.39,5.93c4.75,1.53,9.89,2.94,15.43,4.22c3.56,0.79,6.45,1.56,8.68,2.3c2.23,0.74,4,1.51,5.34,2.29
		c1.34,0.79,2.25,1.6,2.74,2.44c0.49,0.84,0.74,1.8,0.74,2.89v0.29c0,2.27-1.02,4.03-3.04,5.26c-2.03,1.23-4.97,1.85-8.83,1.85
		c-12.07,0-23.29-4.15-33.68-12.46l-16.02,19.18c6.43,5.77,13.82,10.1,22.18,12.99c8.36,2.88,17.18,4.33,26.48,4.33
		C266.56,107.71,272.29,106.95,277.44,105.42L277.44,105.42z M374.17,105.42c5.14-1.53,9.54-3.75,13.2-6.67
		c3.66-2.91,6.5-6.44,8.53-10.59c2.03-4.15,3.04-8.89,3.04-14.22v-0.3c0-4.84-0.89-9.01-2.67-12.51c-1.78-3.51-4.35-6.49-7.71-8.96
		c-3.36-2.47-7.44-4.57-12.24-6.3c-4.8-1.73-10.16-3.23-16.1-4.52c-3.56-0.79-6.5-1.55-8.83-2.29c-2.32-0.74-4.15-1.48-5.49-2.22
		c-1.33-0.74-2.28-1.56-2.82-2.45c-0.54-0.89-0.82-1.92-0.82-3.11V31c0-1.88,0.86-3.45,2.6-4.74c1.73-1.28,4.33-1.93,7.79-1.93
		c4.65,0,9.47,0.87,14.46,2.6c4.99,1.73,9.87,4.28,14.61,7.64l14.39-20.39c-5.64-4.58-11.94-8.03-18.92-10.37
		C370.24,1.47,362.3,0.3,353.4,0.3c-6.23,0-11.82,0.82-16.77,2.44c-4.95,1.63-9.18,3.92-12.68,6.89c-3.51,2.96-6.18,6.47-8.01,10.52
		c-1.83,4.05-2.75,8.49-2.75,13.33v0.29c0,5.33,1.01,9.8,3.04,13.4c2.03,3.6,4.8,6.62,8.31,9.03c3.51,2.42,7.64,4.4,12.39,5.93
		c4.75,1.53,9.89,2.94,15.43,4.22c3.56,0.79,6.45,1.56,8.68,2.3c2.23,0.74,4.01,1.51,5.34,2.29c1.33,0.79,2.25,1.6,2.74,2.44
		c0.49,0.84,0.74,1.8,0.74,2.89v0.29c0,2.27-1.02,4.03-3.04,5.26c-2.03,1.23-4.97,1.85-8.83,1.85c-12.07,0-23.29-4.15-33.68-12.46
		L308.3,90.39c6.43,5.77,13.82,10.1,22.18,12.99c8.36,2.88,17.18,4.33,26.48,4.33C363.29,107.71,369.03,106.95,374.17,105.42
		L374.17,105.42z"/>
</g>
</svg>
