<?xml version="1.0" encoding="utf-8"?>
<!-- Generator: Adobe Illustrator 25.0.0, SVG Export Plug-In . SVG Version: 6.00 Build 0)  -->
<svg version="1.1" id="Layer_1" xmlns="http://www.w3.org/2000/svg" xmlns:xlink="http://www.w3.org/1999/xlink" x="0px" y="0px"
	 viewBox="0 0 360 360" style="enable-background:new 0 0 360 360;" xml:space="preserve">
<style type="text/css">
	.st0{fill:#FFFFFF;}
</style>
<g>
	<path class="st0" d="M103.2,187.7c-2.3-1-4.2-2.4-5.9-4.2c-1.6-1.7-2.9-3.8-3.8-6.2c-0.9-2.4-1.4-4.9-1.4-7.6v-0.2
		c0-2.7,0.5-5.2,1.4-7.5c0.9-2.3,2.2-4.4,3.8-6.1c1.6-1.7,3.5-3.1,5.8-4.1c2.3-1,4.7-1.5,7.4-1.5c2.7,0,5.2,0.5,7.5,1.6
		c2.3,1,4.2,2.4,5.9,4.2c1.6,1.7,2.9,3.8,3.8,6.2c0.9,2.4,1.4,4.9,1.4,7.6v0.2c0,2.7-0.5,5.2-1.4,7.5c-0.9,2.3-2.2,4.4-3.8,6.1
		c-1.6,1.7-3.5,3.1-5.8,4.1c-2.3,1-4.7,1.5-7.4,1.5C108,189.2,105.5,188.7,103.2,187.7L103.2,187.7z M122.1,195.8
		c3.5-1.5,6.5-3.6,9.1-6.1c2.6-2.6,4.5-5.6,5.9-9c1.4-3.4,2.1-7.1,2.1-10.9v-0.2c0-3.9-0.7-7.5-2.1-10.9c-1.4-3.4-3.4-6.4-5.9-9
		c-2.5-2.6-5.5-4.6-9-6.1c-3.5-1.5-7.4-2.2-11.6-2.2c-4.2,0-8.1,0.8-11.6,2.3c-3.5,1.5-6.5,3.6-9.1,6.1c-2.6,2.6-4.5,5.6-5.9,9
		c-1.4,3.4-2.1,7.1-2.1,10.9v0.2c0,3.9,0.7,7.5,2.1,10.9c1.4,3.4,3.4,6.4,5.9,9c2.5,2.6,5.5,4.6,9,6.1c3.5,1.5,7.4,2.2,11.6,2.2
		S118.6,197.3,122.1,195.8L122.1,195.8z M161.5,188.6v-15h15.2c3.8,0,6.6,0.6,8.5,1.9c1.8,1.3,2.8,3.1,2.8,5.4v0.2
		c0,2.5-0.9,4.4-2.8,5.6c-1.9,1.3-4.4,1.9-7.7,1.9H161.5L161.5,188.6z M161.5,165.5v-14.6h13.8c3.1,0,5.5,0.6,7.1,1.8
		c1.6,1.2,2.5,2.9,2.5,5.1v0.2c0,2.5-0.9,4.4-2.8,5.6c-1.9,1.2-4.4,1.8-7.5,1.8H161.5L161.5,165.5z M152,197.1h25.3
		c3,0,5.8-0.3,8.3-1c2.5-0.7,4.6-1.6,6.4-2.9c1.8-1.3,3.1-2.8,4.1-4.7c1-1.9,1.4-4,1.4-6.5V182c0-1.9-0.3-3.5-0.8-4.9
		c-0.5-1.4-1.3-2.6-2.2-3.7c-1-1-2.1-1.9-3.4-2.7c-1.3-0.8-2.8-1.4-4.4-2c1-0.5,2-1.1,2.9-1.9c1-0.7,1.8-1.6,2.5-2.5
		c0.7-1,1.3-2.1,1.7-3.4c0.4-1.3,0.7-2.8,0.7-4.4v-0.2c0-3.6-1.2-6.6-3.7-9.1c-3.2-3.2-8-4.9-14.3-4.9H152V197.1L152,197.1z
		 M229.2,196.7c2.2-0.8,4.2-2,5.8-3.6c1.6-1.6,2.9-3.6,3.8-6c0.9-2.4,1.3-5.2,1.3-8.5v-36.2h-9.9v35.9c0,3.7-0.8,6.4-2.4,8.1
		c-1.6,1.7-3.7,2.6-6.3,2.6c-2.3,0-4.4-0.6-6.1-1.7c-1.7-1.1-3.4-2.7-5-4.7l-6.3,6.5c1.8,2.5,4.1,4.6,7,6.3
		c2.8,1.7,6.3,2.5,10.6,2.5C224.5,197.9,227,197.5,229.2,196.7L229.2,196.7z M254.4,197.1h40.9v-8.7H264v-14.6h27.5v-8.7H264v-14.1
		h31v-8.7h-40.5V197.1L254.4,197.1z M340.5,197.4c2.1-0.4,4.1-1.1,5.8-2c1.8-0.9,3.4-1.9,5-3.1c1.5-1.2,3-2.5,4.4-4l-6.2-6.3
		c-2.3,2.2-4.7,3.9-7.1,5.2c-2.4,1.3-5.3,1.9-8.6,1.9c-2.6,0-5-0.5-7.2-1.5c-2.2-1-4.1-2.4-5.8-4.2c-1.6-1.8-2.9-3.8-3.8-6.2
		c-0.9-2.4-1.3-4.9-1.3-7.6v-0.2c0-2.7,0.4-5.2,1.3-7.5c0.9-2.3,2.1-4.4,3.8-6.1c1.6-1.7,3.5-3.1,5.8-4.1c2.2-1,4.6-1.5,7.2-1.5
		c3.1,0,5.9,0.6,8.4,1.9c2.5,1.3,4.8,2.9,7,4.9l6.2-7.1c-1.3-1.3-2.7-2.4-4.1-3.4c-1.5-1-3.1-1.9-4.8-2.7c-1.7-0.8-3.6-1.3-5.7-1.8
		c-2.1-0.4-4.3-0.6-6.8-0.6c-4.2,0-8,0.7-11.4,2.2c-3.4,1.5-6.4,3.5-8.9,6.1c-2.5,2.6-4.5,5.6-5.9,9c-1.4,3.4-2.1,7.1-2.1,11v0.2
		c0,3.9,0.7,7.6,2.1,11c1.4,3.4,3.4,6.4,5.9,9c2.5,2.5,5.4,4.5,8.8,6c3.4,1.5,7.1,2.2,11.1,2.2C336,198.1,338.4,197.9,340.5,197.4
		L340.5,197.4z M380.3,197.1h9.7v-45.9h17.4v-8.9h-44.5v8.9h17.4V197.1L380.3,197.1z M445.8,196.8c2.4-0.7,4.4-1.8,6.2-3.2
		c1.7-1.4,3-3.1,4-5.2c1-2,1.4-4.3,1.4-6.9v-0.2c0-2.2-0.4-4.2-1.1-5.9c-0.8-1.7-1.9-3.2-3.3-4.5c-1.5-1.3-3.3-2.4-5.5-3.2
		c-2.2-0.9-4.8-1.7-7.7-2.4c-2.6-0.6-4.8-1.2-6.5-1.8c-1.7-0.6-3-1.2-4-1.8c-1-0.7-1.6-1.4-2-2.2c-0.4-0.8-0.5-1.7-0.5-2.8v-0.2
		c0-1.8,0.8-3.4,2.3-4.6c1.6-1.3,3.8-1.9,6.6-1.9c2.5,0,5,0.5,7.4,1.4c2.5,1,4.9,2.4,7.4,4.2l5.2-7.3c-2.8-2.2-5.8-4-9-5.1
		c-3.2-1.2-6.8-1.8-10.8-1.8c-2.7,0-5.2,0.4-7.5,1.2c-2.3,0.8-4.3,1.9-5.9,3.2c-1.6,1.4-2.9,3.1-3.8,5c-0.9,2-1.4,4.1-1.4,6.5v0.2
		c0,2.5,0.4,4.6,1.2,6.4c0.8,1.8,2,3.3,3.5,4.5c1.5,1.2,3.5,2.3,5.7,3.1c2.3,0.9,4.9,1.6,7.8,2.3c2.6,0.6,4.6,1.1,6.2,1.7
		c1.6,0.6,2.9,1.2,3.8,1.9c0.9,0.7,1.5,1.4,1.9,2.2c0.3,0.8,0.5,1.6,0.5,2.6v0.2c0,2.1-0.9,3.8-2.6,5c-1.7,1.3-4.1,1.9-7.1,1.9
		c-3.4,0-6.5-0.6-9.2-1.8c-2.7-1.2-5.4-3-8.1-5.3l-5.8,6.9c3.3,3,6.9,5.2,10.7,6.6c3.9,1.4,7.9,2.2,12.1,2.2
		C440.7,197.9,443.4,197.6,445.8,196.8L445.8,196.8z"/>
	<path class="st0" d="M82.2,118.9h15.2V99.3h25.9V86.6H97.4v-9.2H126V64.1H82.2V118.9L82.2,118.9z M134.3,118.9h15.3V64.1h-15.3
		V118.9L134.3,118.9z M160.7,118.9h14.9V88.8l23.5,30.1h13.3V64.1h-14.9v29l-22.6-29h-14.2V118.9L160.7,118.9z M243.2,97.4l6.2-15.6
		l6.1,15.6H243.2L243.2,97.4z M218.8,118.9h16l3.9-9.8h21.1l4,9.8h16.3l-23.3-55.2h-14.6L218.8,118.9L218.8,118.9z M286.5,118.9
		h14.9V88.8l23.5,30.1h13.3V64.1h-14.9v29l-22.6-29h-14.2V118.9L286.5,118.9z M383.6,119c2.4-0.6,4.6-1.5,6.6-2.6
		c2-1.1,3.7-2.4,5.2-3.9c1.5-1.5,3-3.2,4.3-4.9l-11.4-8.1c-0.8,1-1.7,1.9-2.5,2.7c-0.9,0.8-1.8,1.5-2.7,2.1c-1,0.6-2,1.1-3.2,1.4
		c-1.2,0.3-2.5,0.5-3.9,0.5c-1.9,0-3.7-0.4-5.3-1.1c-1.6-0.8-3-1.8-4.1-3.1c-1.1-1.3-2-2.9-2.7-4.7c-0.7-1.8-1-3.7-1-5.8v-0.2
		c0-2,0.3-3.9,1-5.6c0.7-1.8,1.6-3.3,2.7-4.6c1.1-1.3,2.5-2.3,4.1-3.1c1.6-0.8,3.4-1.1,5.3-1.1c2.7,0,4.9,0.6,6.8,1.7
		c1.9,1.1,3.6,2.7,5.2,4.7l11.4-8.8c-1.2-1.7-2.6-3.2-4.1-4.6c-1.5-1.4-3.3-2.6-5.2-3.6c-1.9-1-4-1.8-6.3-2.3
		c-2.3-0.5-4.9-0.8-7.7-0.8c-4.2,0-8,0.7-11.5,2.2c-3.5,1.5-6.6,3.5-9.1,6.1c-2.6,2.6-4.6,5.6-6,9.1c-1.5,3.5-2.2,7.2-2.2,11.2v0.2
		c0,4.1,0.7,7.8,2.2,11.3c1.5,3.5,3.5,6.5,6,9c2.5,2.5,5.5,4.5,9,5.9c3.4,1.4,7.1,2.1,11,2.1C378.5,120,381.2,119.7,383.6,119
		L383.6,119z M407.6,118.9h15.3V64.1h-15.3V118.9L407.6,118.9z M453.9,97.4l6.2-15.6l6.1,15.6H453.9L453.9,97.4z M429.6,118.9h16
		l3.9-9.8h21.1l4,9.8h16.3l-23.3-55.2h-14.6L429.6,118.9L429.6,118.9z M497.3,118.9H539v-13.3h-26.5V64.1h-15.2V118.9L497.3,118.9z"
		/>
	<path class="st0" d="M96.5,292.4c1.1-0.2,2-0.5,2.9-1c0.9-0.4,1.7-0.9,2.5-1.5c0.8-0.6,1.5-1.3,2.2-2l-3.1-3.1
		c-1.2,1.1-2.4,2-3.6,2.6c-1.2,0.6-2.6,1-4.3,1c-1.3,0-2.5-0.3-3.6-0.8c-1.1-0.5-2.1-1.2-2.9-2.1c-0.8-0.9-1.4-1.9-1.9-3.1
		c-0.4-1.2-0.7-2.4-0.7-3.8v-0.1c0-1.3,0.2-2.6,0.7-3.8c0.4-1.2,1.1-2.2,1.9-3.1c0.8-0.9,1.8-1.6,2.9-2.1c1.1-0.5,2.3-0.8,3.6-0.8
		c1.6,0,3,0.3,4.2,0.9c1.2,0.6,2.4,1.4,3.5,2.5l3.1-3.6c-0.7-0.6-1.3-1.2-2.1-1.7c-0.7-0.5-1.5-1-2.4-1.4c-0.9-0.4-1.8-0.7-2.8-0.9
		c-1-0.2-2.2-0.3-3.4-0.3c-2.1,0-4,0.4-5.7,1.1c-1.7,0.7-3.2,1.8-4.5,3.1c-1.3,1.3-2.2,2.8-2.9,4.5c-0.7,1.7-1,3.5-1,5.5v0.1
		c0,2,0.4,3.8,1.1,5.5c0.7,1.7,1.7,3.2,2.9,4.5c1.2,1.3,2.7,2.3,4.4,3c1.7,0.7,3.5,1.1,5.6,1.1C94.3,292.7,95.5,292.6,96.5,292.4
		L96.5,292.4z M116,288.1c-0.8-0.4-1.4-0.8-2-1.4c-0.6-0.6-1-1.3-1.3-2.1c-0.3-0.8-0.5-1.6-0.5-2.6v-0.1c0-0.9,0.1-1.7,0.4-2.5
		c0.3-0.8,0.7-1.5,1.2-2.1c0.5-0.6,1.2-1.1,2-1.4c0.8-0.4,1.6-0.5,2.5-0.5c0.9,0,1.8,0.2,2.5,0.5c0.8,0.4,1.4,0.8,2,1.4
		c0.6,0.6,1,1.3,1.3,2.1c0.3,0.8,0.5,1.7,0.5,2.6v0.1c0,0.9-0.1,1.7-0.4,2.5c-0.3,0.8-0.7,1.5-1.2,2.1c-0.5,0.6-1.2,1.1-2,1.4
		c-0.8,0.4-1.6,0.5-2.6,0.5C117.6,288.6,116.8,288.4,116,288.1L116,288.1z M122.9,291.9c1.4-0.6,2.5-1.4,3.5-2.3
		c1-1,1.7-2.1,2.3-3.4c0.6-1.3,0.8-2.7,0.8-4.1v-0.1c0-1.5-0.3-2.9-0.8-4.2c-0.5-1.3-1.3-2.4-2.3-3.4c-1-1-2.1-1.7-3.5-2.3
		c-1.3-0.6-2.8-0.8-4.4-0.8c-1.6,0-3.1,0.3-4.4,0.9c-1.3,0.6-2.5,1.4-3.5,2.3c-1,1-1.7,2.1-2.3,3.4c-0.6,1.3-0.8,2.7-0.8,4.2v0.1
		c0,1.5,0.3,2.8,0.8,4.1c0.5,1.3,1.3,2.4,2.3,3.4c1,1,2.1,1.7,3.5,2.3s2.8,0.8,4.4,0.8C120,292.7,121.5,292.4,122.9,291.9
		L122.9,291.9z M134.3,292.2h4.8v-11.6c0-1.6,0.4-2.9,1.2-3.8c0.8-0.9,1.9-1.4,3.2-1.4c1.3,0,2.4,0.4,3.1,1.3
		c0.7,0.9,1.1,2.1,1.1,3.7v11.8h4.8v-11.6c0-1.7,0.4-2.9,1.2-3.8c0.8-0.9,1.9-1.3,3.2-1.3c1.3,0,2.4,0.4,3.1,1.3
		c0.7,0.9,1.1,2.1,1.1,3.7v11.7h4.8v-13.2c0-2.5-0.6-4.5-1.9-5.9c-1.3-1.4-3.1-2.1-5.3-2.1c-1.6,0-2.9,0.3-4.1,1
		c-1.1,0.7-2.1,1.6-3,2.7c-0.5-1.1-1.3-2-2.4-2.7c-1-0.7-2.3-1-3.8-1c-0.8,0-1.5,0.1-2.1,0.3c-0.6,0.2-1.2,0.5-1.7,0.8
		c-0.5,0.3-1,0.7-1.3,1.1c-0.4,0.4-0.8,0.9-1.1,1.3v-3.2h-4.8V292.2L134.3,292.2z M171.5,292.2h4.8v-11.6c0-1.6,0.4-2.9,1.2-3.8
		c0.8-0.9,1.9-1.4,3.2-1.4c1.3,0,2.3,0.4,3.1,1.3c0.7,0.9,1.1,2.1,1.1,3.7v11.8h4.8v-11.6c0-1.7,0.4-2.9,1.2-3.8
		c0.8-0.9,1.9-1.3,3.2-1.3c1.3,0,2.4,0.4,3.1,1.3c0.7,0.9,1.1,2.1,1.1,3.7v11.7h4.8v-13.2c0-2.5-0.6-4.5-1.9-5.9
		c-1.3-1.4-3.1-2.1-5.3-2.1c-1.6,0-2.9,0.3-4.1,1c-1.1,0.7-2.1,1.6-3,2.7c-0.5-1.1-1.3-2-2.4-2.7c-1-0.7-2.3-1-3.8-1
		c-0.8,0-1.5,0.1-2.1,0.3c-0.6,0.2-1.2,0.5-1.7,0.8c-0.5,0.3-1,0.7-1.3,1.1c-0.4,0.4-0.8,0.9-1.1,1.3v-3.2h-4.8V292.2L171.5,292.2z
		 M216.1,288.1c-0.8-0.4-1.4-0.8-2-1.4c-0.6-0.6-1-1.3-1.3-2.1c-0.3-0.8-0.5-1.6-0.5-2.6v-0.1c0-0.9,0.1-1.7,0.4-2.5
		c0.3-0.8,0.7-1.5,1.2-2.1c0.5-0.6,1.2-1.1,2-1.4c0.8-0.4,1.6-0.5,2.5-0.5c0.9,0,1.8,0.2,2.5,0.5c0.8,0.4,1.4,0.8,2,1.4
		c0.6,0.6,1,1.3,1.3,2.1c0.3,0.8,0.5,1.7,0.5,2.6v0.1c0,0.9-0.1,1.7-0.4,2.5c-0.3,0.8-0.7,1.5-1.2,2.1s-1.2,1.1-2,1.4
		c-0.8,0.4-1.6,0.5-2.6,0.5C217.7,288.6,216.8,288.4,216.1,288.1L216.1,288.1z M222.9,291.9c1.4-0.6,2.5-1.4,3.5-2.3
		c1-1,1.7-2.1,2.3-3.4c0.6-1.3,0.8-2.7,0.8-4.1v-0.1c0-1.5-0.3-2.9-0.8-4.2c-0.5-1.3-1.3-2.4-2.3-3.4c-1-1-2.1-1.7-3.5-2.3
		c-1.3-0.6-2.8-0.8-4.4-0.8c-1.6,0-3.1,0.3-4.4,0.9c-1.3,0.6-2.5,1.4-3.5,2.3c-1,1-1.7,2.1-2.3,3.4c-0.6,1.3-0.8,2.7-0.8,4.2v0.1
		c0,1.5,0.3,2.8,0.8,4.1c0.5,1.3,1.3,2.4,2.3,3.4c1,1,2.1,1.7,3.5,2.3c1.3,0.6,2.8,0.8,4.4,0.8C220.1,292.7,221.6,292.4,222.9,291.9
		L222.9,291.9z M234.4,292.2h4.8v-11.6c0-1.6,0.4-2.9,1.3-3.8c0.9-0.9,2-1.3,3.3-1.3c1.4,0,2.5,0.4,3.2,1.3c0.8,0.9,1.1,2.1,1.1,3.7
		v11.7h4.8v-13.1c0-2.4-0.6-4.4-1.9-5.8c-1.3-1.4-3.1-2.2-5.4-2.2c-0.8,0-1.5,0.1-2.2,0.3c-0.6,0.2-1.2,0.5-1.8,0.8
		c-0.5,0.3-1,0.7-1.4,1.2c-0.4,0.4-0.8,0.9-1.1,1.4v-3.2h-4.8V292.2L234.4,292.2z M277.7,292.2h4.9v-22.9h8.7v-4.5H269v4.5h8.7
		V292.2L277.7,292.2z M299.3,280.5c0.2-1.6,0.8-2.9,1.7-3.9c1-1,2.2-1.5,3.6-1.5c0.8,0,1.5,0.1,2.1,0.4c0.6,0.3,1.1,0.7,1.6,1.2
		c0.4,0.5,0.8,1.1,1.1,1.7c0.3,0.7,0.4,1.4,0.5,2.1H299.3L299.3,280.5z M310.1,291.7c1.4-0.7,2.5-1.6,3.5-2.8l-2.8-2.5
		c-0.8,0.8-1.7,1.4-2.5,1.8c-0.9,0.4-1.9,0.6-3.1,0.6c-1.5,0-2.9-0.5-3.9-1.4c-1.1-0.9-1.8-2.2-2-3.9h15.2c0-0.2,0-0.5,0.1-0.7
		c0-0.2,0-0.4,0-0.6c0-1.5-0.2-2.9-0.6-4.2c-0.4-1.3-1-2.5-1.9-3.5c-0.8-1-1.9-1.8-3.1-2.4s-2.7-0.9-4.3-0.9c-1.5,0-2.8,0.3-4.1,0.8
		c-1.2,0.6-2.3,1.3-3.2,2.3c-0.9,1-1.6,2.1-2.1,3.4c-0.5,1.3-0.7,2.7-0.7,4.2v0.1c0,1.6,0.3,3,0.8,4.4c0.5,1.3,1.3,2.4,2.2,3.4
		s2.1,1.7,3.4,2.2c1.3,0.5,2.7,0.8,4.2,0.8C307.1,292.7,308.8,292.4,310.1,291.7L310.1,291.7z M319.4,292.2h4.8v-11.6
		c0-1.6,0.4-2.9,1.2-3.8c0.8-0.9,1.9-1.4,3.2-1.4c1.3,0,2.3,0.4,3.1,1.3c0.7,0.9,1.1,2.1,1.1,3.7v11.8h4.8v-11.6
		c0-1.7,0.4-2.9,1.2-3.8c0.8-0.9,1.9-1.3,3.2-1.3c1.3,0,2.4,0.4,3.1,1.3c0.7,0.9,1.1,2.1,1.1,3.7v11.7h4.8v-13.2
		c0-2.5-0.6-4.5-1.9-5.9c-1.3-1.4-3.1-2.1-5.3-2.1c-1.6,0-2.9,0.3-4.1,1s-2.1,1.6-3,2.7c-0.5-1.1-1.3-2-2.4-2.7c-1-0.7-2.3-1-3.8-1
		c-0.8,0-1.5,0.1-2.1,0.3c-0.6,0.2-1.2,0.5-1.7,0.8c-0.5,0.3-1,0.7-1.3,1.1c-0.4,0.4-0.8,0.9-1.1,1.3v-3.2h-4.8V292.2L319.4,292.2z
		 M364.9,288.1c-0.7-0.3-1.4-0.8-1.9-1.3c-0.5-0.6-1-1.3-1.3-2.1c-0.3-0.8-0.5-1.7-0.5-2.7v-0.1c0-1,0.2-1.9,0.5-2.7
		c0.3-0.8,0.8-1.5,1.3-2.1c0.5-0.6,1.2-1,1.9-1.3c0.7-0.3,1.5-0.5,2.3-0.5c0.8,0,1.6,0.2,2.3,0.5c0.7,0.3,1.3,0.8,1.9,1.3
		c0.5,0.6,1,1.3,1.3,2.1c0.3,0.8,0.5,1.7,0.5,2.7v0.1c0,1-0.2,1.9-0.5,2.8c-0.3,0.8-0.7,1.5-1.3,2.1c-0.5,0.6-1.2,1-1.9,1.3
		c-0.7,0.3-1.5,0.5-2.3,0.5C366.4,288.6,365.7,288.4,364.9,288.1L364.9,288.1z M356.6,298.5h4.8V289c0.7,1,1.7,1.8,2.8,2.5
		c1.1,0.7,2.5,1.1,4.2,1.1c1.2,0,2.4-0.2,3.6-0.7c1.2-0.5,2.2-1.2,3.1-2.1c0.9-0.9,1.6-2,2.1-3.4c0.5-1.3,0.8-2.9,0.8-4.6v-0.1
		c0-1.7-0.3-3.2-0.8-4.6c-0.5-1.3-1.3-2.5-2.2-3.4c-0.9-0.9-1.9-1.6-3.1-2.1c-1.1-0.5-2.3-0.7-3.6-0.7c-1.7,0-3.1,0.4-4.2,1.1
		c-1.1,0.7-2.1,1.7-2.8,2.8v-3.4h-4.8V298.5L356.6,298.5z M383.1,292.2h4.8v-28.6h-4.8V292.2L383.1,292.2z M406.7,284.8
		c0,0.7-0.1,1.2-0.4,1.8c-0.3,0.5-0.7,1-1.2,1.4c-0.5,0.4-1.1,0.7-1.7,0.9c-0.7,0.2-1.4,0.3-2.2,0.3c-1.1,0-2.1-0.3-2.8-0.8
		c-0.8-0.5-1.2-1.3-1.2-2.3V286c0-1,0.4-1.8,1.3-2.3c0.8-0.6,2-0.9,3.5-0.9c0.9,0,1.8,0.1,2.6,0.2c0.8,0.2,1.5,0.4,2.1,0.6V284.8
		L406.7,284.8z M411.3,292.2V280c0-2.8-0.7-4.9-2.2-6.4c-1.5-1.5-3.8-2.3-6.8-2.3c-1.7,0-3.1,0.2-4.3,0.5c-1.2,0.3-2.4,0.7-3.5,1.3
		l1.3,3.8c0.9-0.4,1.9-0.7,2.8-0.9c0.9-0.2,2-0.4,3.1-0.4c1.6,0,2.9,0.4,3.8,1.1c0.9,0.8,1.3,1.9,1.3,3.3v0.4
		c-0.8-0.3-1.6-0.5-2.5-0.6c-0.9-0.2-1.9-0.2-3.2-0.2c-1.2,0-2.3,0.1-3.3,0.4c-1,0.3-1.9,0.7-2.7,1.3c-0.7,0.6-1.3,1.3-1.7,2.1
		c-0.4,0.8-0.6,1.8-0.6,3v0.1c0,1,0.2,2,0.6,2.8c0.4,0.8,0.9,1.5,1.6,2c0.7,0.5,1.4,0.9,2.3,1.2c0.9,0.3,1.8,0.4,2.8,0.4
		c1.6,0,2.9-0.3,4-0.9c1.1-0.6,2-1.3,2.7-2.1v2.5H411.3L411.3,292.2z M426.3,292.3c0.7-0.2,1.3-0.4,1.9-0.8v-3.9
		c-0.9,0.5-1.9,0.7-2.9,0.7c-0.8,0-1.4-0.2-1.9-0.6c-0.4-0.4-0.7-1.1-0.7-2v-10.1h5.6v-4.1h-5.6v-5.7h-4.8v5.7h-2.6v4.1h2.6v10.9
		c0,1.1,0.1,2.1,0.4,2.9c0.3,0.8,0.7,1.4,1.2,1.9c0.5,0.5,1.2,0.8,1.9,1c0.7,0.2,1.5,0.3,2.4,0.3
		C424.8,292.6,425.6,292.5,426.3,292.3L426.3,292.3z M436.6,280.5c0.2-1.6,0.8-2.9,1.7-3.9c1-1,2.2-1.5,3.6-1.5
		c0.8,0,1.5,0.1,2.1,0.4s1.1,0.7,1.6,1.2c0.4,0.5,0.8,1.1,1.1,1.7c0.3,0.7,0.4,1.4,0.5,2.1H436.6L436.6,280.5z M447.4,291.7
		c1.4-0.7,2.5-1.6,3.5-2.8l-2.8-2.5c-0.8,0.8-1.7,1.4-2.5,1.8c-0.9,0.4-1.9,0.6-3.1,0.6c-1.5,0-2.8-0.5-3.9-1.4
		c-1.1-0.9-1.8-2.2-2-3.9h15.2c0-0.2,0-0.5,0.1-0.7c0-0.2,0-0.4,0-0.6c0-1.5-0.2-2.9-0.6-4.2c-0.4-1.3-1-2.5-1.9-3.5
		c-0.8-1-1.9-1.8-3.1-2.4c-1.2-0.6-2.7-0.9-4.3-0.9c-1.5,0-2.8,0.3-4.1,0.8c-1.2,0.6-2.3,1.3-3.2,2.3c-0.9,1-1.6,2.1-2.1,3.4
		c-0.5,1.3-0.7,2.7-0.7,4.2v0.1c0,1.6,0.3,3,0.8,4.4c0.5,1.3,1.3,2.4,2.2,3.4c1,0.9,2.1,1.7,3.4,2.2c1.3,0.5,2.7,0.8,4.2,0.8
		C444.4,292.7,446,292.4,447.4,291.7L447.4,291.7z"/>
	<path class="st0" d="M85.1,236v-9.9h5.6c1.8,0,3.2,0.4,4.3,1.2c1.1,0.8,1.6,2.1,1.6,3.7v0.1c0,1.4-0.5,2.6-1.6,3.5
		c-1.1,0.9-2.5,1.4-4.3,1.4H85.1L85.1,236z M80.3,249.2h4.8v-8.8h5.5c1.5,0,2.9-0.2,4.3-0.6c1.3-0.4,2.5-1,3.5-1.8
		c1-0.8,1.8-1.8,2.4-2.9c0.6-1.2,0.9-2.5,0.9-4.1V231c0-1.4-0.2-2.6-0.7-3.8c-0.5-1.1-1.2-2.1-2.1-2.9c-0.9-0.8-2-1.4-3.3-1.9
		c-1.3-0.4-2.7-0.6-4.3-0.6H80.3V249.2L80.3,249.2z M105.9,249.2h4.8v-7.9c0-1.4,0.2-2.5,0.5-3.6c0.3-1,0.8-1.9,1.4-2.6
		c0.6-0.7,1.4-1.2,2.2-1.5c0.9-0.3,1.8-0.5,2.9-0.5h0.3v-5c-1.8-0.1-3.3,0.4-4.5,1.3c-1.2,0.9-2.1,2.2-2.8,3.8v-4.7h-4.8V249.2
		L105.9,249.2z M129.4,245c-0.8-0.4-1.4-0.8-2-1.4c-0.6-0.6-1-1.3-1.3-2.1c-0.3-0.8-0.5-1.6-0.5-2.6v-0.1c0-0.9,0.1-1.7,0.4-2.5
		c0.3-0.8,0.7-1.5,1.2-2.1c0.5-0.6,1.2-1.1,2-1.4c0.8-0.4,1.6-0.5,2.5-0.5c0.9,0,1.8,0.2,2.5,0.5c0.8,0.4,1.4,0.8,2,1.4
		c0.6,0.6,1,1.3,1.3,2.1c0.3,0.8,0.5,1.7,0.5,2.6v0.1c0,0.9-0.1,1.7-0.4,2.5c-0.3,0.8-0.7,1.5-1.2,2.1c-0.5,0.6-1.2,1.1-2,1.4
		c-0.8,0.4-1.6,0.5-2.6,0.5C131,245.6,130.2,245.4,129.4,245L129.4,245z M136.3,248.8c1.4-0.6,2.5-1.3,3.5-2.3c1-1,1.7-2.1,2.3-3.4
		c0.6-1.3,0.8-2.7,0.8-4.1v-0.1c0-1.5-0.3-2.9-0.8-4.2c-0.5-1.3-1.3-2.4-2.3-3.4c-1-1-2.1-1.7-3.5-2.3c-1.3-0.6-2.8-0.8-4.4-0.8
		c-1.6,0-3.1,0.3-4.4,0.9c-1.3,0.6-2.5,1.3-3.5,2.3c-1,1-1.7,2.1-2.3,3.4c-0.6,1.3-0.8,2.7-0.8,4.2v0.1c0,1.5,0.3,2.8,0.8,4.1
		c0.5,1.3,1.3,2.4,2.3,3.4c1,1,2.1,1.7,3.5,2.3c1.3,0.6,2.8,0.8,4.4,0.8C133.5,249.7,134.9,249.4,136.3,248.8L136.3,248.8z
		 M155.1,245c-0.7-0.3-1.3-0.8-1.9-1.3c-0.5-0.6-1-1.3-1.3-2.1c-0.3-0.8-0.5-1.7-0.5-2.7v-0.1c0-1,0.2-1.9,0.5-2.8s0.7-1.5,1.3-2.1
		c0.5-0.6,1.2-1,1.9-1.3c0.7-0.3,1.5-0.5,2.3-0.5c0.8,0,1.5,0.2,2.3,0.5c0.7,0.3,1.4,0.8,1.9,1.3c0.5,0.6,1,1.3,1.3,2.1
		c0.3,0.8,0.5,1.7,0.5,2.7v0.1c0,1-0.2,1.9-0.5,2.7c-0.3,0.8-0.8,1.5-1.3,2.1c-0.5,0.6-1.2,1-1.9,1.4s-1.5,0.5-2.3,0.5
		C156.6,245.5,155.8,245.4,155.1,245L155.1,245z M160.5,248.5c1.1-0.8,2.1-1.7,2.8-2.7l0,3.4h4.8v-28.6h-4.8v11.1
		c-0.8-1-1.7-1.8-2.8-2.5c-1.1-0.7-2.5-1.1-4.2-1.1c-1.2,0-2.4,0.2-3.6,0.7c-1.2,0.5-2.2,1.2-3.1,2.1c-0.9,0.9-1.6,2-2.1,3.4
		c-0.5,1.3-0.8,2.9-0.8,4.6v0.1c0,1.7,0.3,3.2,0.8,4.6c0.5,1.3,1.3,2.5,2.2,3.4c0.9,0.9,1.9,1.6,3.1,2.1c1.1,0.5,2.3,0.7,3.6,0.7
		C158,249.6,159.4,249.2,160.5,248.5L160.5,248.5z M185,248.5c1-0.7,1.9-1.6,2.5-2.6v3.2h4.8v-20.7h-4.8v11.6c0,1.6-0.4,2.9-1.3,3.8
		c-0.9,0.9-2,1.3-3.3,1.3c-1.4,0-2.5-0.4-3.2-1.3c-0.8-0.9-1.1-2.1-1.1-3.7v-11.7h-4.8v13.1c0,2.4,0.6,4.4,1.9,5.8
		c1.3,1.4,3.1,2.2,5.4,2.2C182.7,249.6,184,249.3,185,248.5L185,248.5z M212.8,248.6c1.3-0.7,2.5-1.6,3.5-2.8l-2.9-2.8
		c-0.8,0.8-1.6,1.4-2.4,1.9c-0.8,0.5-1.8,0.7-3,0.7c-0.9,0-1.7-0.2-2.5-0.5c-0.8-0.4-1.4-0.8-2-1.4c-0.5-0.6-1-1.3-1.3-2.1
		c-0.3-0.8-0.4-1.7-0.4-2.6v-0.1c0-0.9,0.1-1.7,0.4-2.5c0.3-0.8,0.7-1.5,1.2-2.1c0.5-0.6,1.1-1.1,1.9-1.4c0.7-0.4,1.5-0.5,2.4-0.5
		c1.2,0,2.2,0.2,3,0.7c0.8,0.5,1.6,1.1,2.3,1.9l2.9-3.2c-1-1.1-2.1-1.9-3.4-2.6s-2.9-1-4.9-1c-1.5,0-3,0.3-4.3,0.9
		c-1.3,0.6-2.5,1.3-3.4,2.3c-1,1-1.7,2.1-2.2,3.4c-0.5,1.3-0.8,2.7-0.8,4.2v0.1c0,1.5,0.3,2.8,0.8,4.1c0.5,1.3,1.3,2.4,2.2,3.4
		c1,1,2.1,1.7,3.4,2.3c1.3,0.6,2.7,0.8,4.3,0.8C209.8,249.7,211.5,249.3,212.8,248.6L212.8,248.6z M229.9,249.3
		c0.7-0.2,1.3-0.4,1.9-0.8v-3.9c-0.9,0.5-1.9,0.7-2.9,0.7c-0.8,0-1.4-0.2-1.9-0.6c-0.4-0.4-0.7-1.1-0.7-2v-10.1h5.6v-4.1h-5.6v-5.7
		h-4.8v5.7h-2.6v4.1h2.6v10.9c0,1.1,0.1,2.1,0.4,2.9c0.3,0.8,0.7,1.4,1.2,1.9c0.5,0.5,1.2,0.8,1.9,1c0.7,0.2,1.5,0.3,2.4,0.3
		C228.4,249.5,229.2,249.5,229.9,249.3L229.9,249.3z M265.2,249.3c1.1-0.2,2-0.5,2.9-1c0.9-0.4,1.7-0.9,2.5-1.5
		c0.8-0.6,1.5-1.3,2.2-2l-3.1-3.1c-1.2,1.1-2.4,2-3.6,2.6c-1.2,0.6-2.6,1-4.3,1c-1.3,0-2.5-0.3-3.6-0.8c-1.1-0.5-2.1-1.2-2.9-2.1
		c-0.8-0.9-1.4-1.9-1.9-3.1c-0.4-1.2-0.7-2.4-0.7-3.8v-0.1c0-1.3,0.2-2.6,0.7-3.8c0.4-1.2,1.1-2.2,1.9-3.1c0.8-0.9,1.8-1.6,2.9-2.1
		c1.1-0.5,2.3-0.8,3.6-0.8c1.6,0,3,0.3,4.2,0.9c1.2,0.6,2.4,1.4,3.5,2.5l3.1-3.6c-0.7-0.6-1.3-1.2-2.1-1.7c-0.7-0.5-1.5-1-2.4-1.3
		c-0.9-0.4-1.8-0.7-2.8-0.9c-1-0.2-2.2-0.3-3.4-0.3c-2.1,0-4,0.4-5.7,1.1c-1.7,0.7-3.2,1.8-4.5,3.1c-1.3,1.3-2.2,2.8-2.9,4.5
		c-0.7,1.7-1,3.5-1,5.5v0.1c0,2,0.4,3.8,1.1,5.5c0.7,1.7,1.7,3.2,2.9,4.5c1.2,1.3,2.7,2.3,4.4,3c1.7,0.7,3.5,1.1,5.6,1.1
		C262.9,249.7,264.1,249.6,265.2,249.3L265.2,249.3z M284.6,245c-0.8-0.4-1.4-0.8-2-1.4c-0.6-0.6-1-1.3-1.3-2.1
		c-0.3-0.8-0.5-1.6-0.5-2.6v-0.1c0-0.9,0.1-1.7,0.4-2.5c0.3-0.8,0.7-1.5,1.2-2.1c0.5-0.6,1.2-1.1,2-1.4c0.8-0.4,1.6-0.5,2.5-0.5
		c0.9,0,1.8,0.2,2.5,0.5c0.8,0.4,1.4,0.8,2,1.4c0.6,0.6,1,1.3,1.3,2.1c0.3,0.8,0.5,1.7,0.5,2.6v0.1c0,0.9-0.1,1.7-0.4,2.5
		c-0.3,0.8-0.7,1.5-1.2,2.1c-0.5,0.6-1.2,1.1-2,1.4c-0.8,0.4-1.6,0.5-2.6,0.5C286.2,245.6,285.4,245.4,284.6,245L284.6,245z
		 M291.5,248.8c1.4-0.6,2.5-1.3,3.5-2.3c1-1,1.7-2.1,2.3-3.4c0.6-1.3,0.8-2.7,0.8-4.1v-0.1c0-1.5-0.3-2.9-0.8-4.2
		c-0.5-1.3-1.3-2.4-2.3-3.4c-1-1-2.1-1.7-3.5-2.3c-1.3-0.6-2.8-0.8-4.4-0.8c-1.6,0-3.1,0.3-4.4,0.9c-1.3,0.6-2.5,1.3-3.5,2.3
		c-1,1-1.7,2.1-2.3,3.4c-0.6,1.3-0.8,2.7-0.8,4.2v0.1c0,1.5,0.3,2.8,0.8,4.1c0.5,1.3,1.3,2.4,2.3,3.4c1,1,2.1,1.7,3.5,2.3
		c1.3,0.6,2.8,0.8,4.4,0.8C288.7,249.7,290.1,249.4,291.5,248.8L291.5,248.8z M303,249.2h4.8v-11.6c0-1.6,0.4-2.9,1.3-3.8
		c0.9-0.9,2-1.3,3.3-1.3c1.4,0,2.5,0.4,3.2,1.3c0.8,0.9,1.1,2.1,1.1,3.7v11.7h4.8V236c0-2.4-0.6-4.4-1.9-5.8
		c-1.3-1.4-3.1-2.2-5.4-2.2c-0.8,0-1.5,0.1-2.2,0.3c-0.6,0.2-1.2,0.5-1.8,0.8c-0.5,0.3-1,0.7-1.4,1.2c-0.4,0.4-0.8,0.9-1.1,1.4v-3.2
		H303V249.2L303,249.2z M336.5,249.3c0.7-0.2,1.3-0.4,1.9-0.8v-3.9c-0.9,0.5-1.9,0.7-2.9,0.7c-0.8,0-1.4-0.2-1.9-0.6
		c-0.4-0.4-0.7-1.1-0.7-2v-10.1h5.6v-4.1H333v-5.7h-4.8v5.7h-2.6v4.1h2.6v10.9c0,1.1,0.1,2.1,0.4,2.9c0.3,0.8,0.7,1.4,1.2,1.9
		c0.5,0.5,1.2,0.8,1.9,1c0.7,0.2,1.5,0.3,2.4,0.3C335.1,249.5,335.9,249.5,336.5,249.3L336.5,249.3z M343.3,249.2h4.8v-7.9
		c0-1.4,0.2-2.5,0.5-3.6c0.3-1,0.8-1.9,1.4-2.6c0.6-0.7,1.4-1.2,2.2-1.5c0.9-0.3,1.8-0.5,2.9-0.5h0.3v-5c-1.8-0.1-3.3,0.4-4.5,1.3
		c-1.2,0.9-2.1,2.2-2.8,3.8v-4.7h-4.8V249.2L343.3,249.2z M366.8,245c-0.8-0.4-1.4-0.8-2-1.4c-0.6-0.6-1-1.3-1.3-2.1
		c-0.3-0.8-0.5-1.6-0.5-2.6v-0.1c0-0.9,0.1-1.7,0.4-2.5c0.3-0.8,0.7-1.5,1.2-2.1c0.5-0.6,1.2-1.1,2-1.4c0.8-0.4,1.6-0.5,2.5-0.5
		c0.9,0,1.8,0.2,2.5,0.5c0.8,0.4,1.4,0.8,2,1.4c0.6,0.6,1,1.3,1.3,2.1c0.3,0.8,0.5,1.7,0.5,2.6v0.1c0,0.9-0.1,1.7-0.4,2.5
		c-0.3,0.8-0.7,1.5-1.2,2.1c-0.5,0.6-1.2,1.1-2,1.4c-0.8,0.4-1.6,0.5-2.6,0.5C368.4,245.6,367.6,245.4,366.8,245L366.8,245z
		 M373.7,248.8c1.4-0.6,2.5-1.3,3.5-2.3c1-1,1.7-2.1,2.3-3.4c0.6-1.3,0.8-2.7,0.8-4.1v-0.1c0-1.5-0.3-2.9-0.8-4.2
		c-0.5-1.3-1.3-2.4-2.3-3.4c-1-1-2.1-1.7-3.5-2.3c-1.3-0.6-2.8-0.8-4.4-0.8c-1.6,0-3.1,0.3-4.4,0.9c-1.3,0.6-2.5,1.3-3.5,2.3
		c-1,1-1.7,2.1-2.3,3.4c-0.6,1.3-0.8,2.7-0.8,4.2v0.1c0,1.5,0.3,2.8,0.8,4.1c0.5,1.3,1.3,2.4,2.3,3.4c1,1,2.1,1.7,3.5,2.3
		c1.3,0.6,2.8,0.8,4.4,0.8C370.8,249.7,372.3,249.4,373.7,248.8L373.7,248.8z M385.4,249.2h4.8v-28.6h-4.8V249.2L385.4,249.2z"/>
	<path class="st0" d="M31.8,163.5c-2.4,0.5-4.9,0.4-7.2-0.2c-2.9,6-8.1,12.3-15.2,18.6c-6.3-6.7-13.9-13.5-22.7-20.1
		c3.2-10.5,5.2-20.5,6.3-29.6c9.5,0.8,17.5,2.8,23.3,5.9c1.5-1.9,3.4-3.4,5.6-4.4c-7-4.4-16.8-7.1-28.4-8.2
		c0.7-11.7-0.6-21.8-3.9-29.3c-1.4,2.1-3.2,3.8-5.2,4.9c2.2,6.3,3,14.5,2.4,24c-9.2-0.3-19.4,0.4-30.2,1.9
		c-5.2-9.7-10.8-18.3-16.6-25.5c7.3-6.1,14.3-10.4,20.7-12.3c-0.3-2.4,0-4.8,0.8-7.1c-8,1.8-16.9,6.8-25.9,14.3
		c-7.8-8.7-15.8-15-23.5-18c0.5,2.4,0.4,4.9-0.2,7.2c6,2.9,12.3,8.1,18.6,15.2c-6.7,6.3-13.5,13.9-20.1,22.7
		c-10.5-3.2-20.5-5.2-29.6-6.3c0.8-9.5,2.8-17.5,5.9-23.3c-1.9-1.5-3.4-3.4-4.4-5.6c-4.4,7-7.1,16.8-8.2,28.4
		c-11.7-0.7-21.8,0.6-29.3,3.9c2.1,1.4,3.8,3.2,4.9,5.2c6.3-2.2,14.5-3,24-2.4c-0.3,9.2,0.2,19.4,1.8,30.3
		c-9.6,5.2-18.2,10.7-25.4,16.5c-6.1-7.3-10.4-14.3-12.3-20.7c-2.4,0.3-4.8,0-7.1-0.8c1.8,8,6.8,16.9,14.3,25.9
		c-8.7,7.8-15,15.8-18,23.5c2.4-0.5,4.9-0.4,7.2,0.2c2.9-6,8.1-12.3,15.2-18.6c6.3,6.7,13.9,13.5,22.7,20.1
		c-3.2,10.5-5.2,20.5-6.3,29.6c-9.5-0.8-17.5-2.8-23.3-5.9c-1.5,1.9-3.4,3.4-5.6,4.4c7,4.4,16.8,7.1,28.4,8.2
		c-0.7,11.7,0.6,21.8,3.9,29.3c1.4-2.1,3.2-3.8,5.2-4.9c-2.2-6.3-3-14.5-2.4-24c9.2,0.3,19.4-0.4,30.2-1.9
		c5.2,9.7,10.8,18.3,16.6,25.5c-7.3,6.1-14.3,10.4-20.7,12.3c0.3,2.4,0,4.8-0.8,7.1c8-1.8,16.9-6.8,25.9-14.3
		c7.8,8.7,15.8,15,23.5,18c-0.5-2.4-0.4-4.9,0.2-7.2c-6-2.9-12.3-8.1-18.6-15.2c6.7-6.3,13.5-13.9,20.1-22.7
		c10.5,3.2,20.5,5.2,29.6,6.3c-0.8,9.5-2.8,17.5-5.9,23.3c1.9,1.5,3.4,3.4,4.4,5.6c4.4-7,7.1-16.8,8.2-28.4
		c11.7,0.7,21.8-0.6,29.3-3.9c-2.1-1.4-3.8-3.2-4.9-5.2c-6.3,2.2-14.5,3-24,2.4c0.3-9.2-0.2-19.4-1.8-30.3
		c9.6-5.2,18.2-10.7,25.4-16.5c6.1,7.3,10.4,14.3,12.3,20.7c2.4-0.3,4.8,0,7.1,0.8c-1.8-8-6.8-16.9-14.3-25.9
		C22.6,179.2,28.8,171.2,31.8,163.5L31.8,163.5z M-47.5,232.2c3.1-4.4,6.1-9.1,9-14c5.3-2.2,10.4-4.5,15.2-6.9
		c1.2,9.4,1.7,18.3,1.5,26.3C-29.7,236.6-38.3,234.8-47.5,232.2L-47.5,232.2z M-117,157.4c2.8-1.4,5.6-2.8,8.5-4.2
		c-1.2,2.2-2.4,4.4-3.5,6.6c-1.1,2.3-2.2,4.5-3.3,6.8C-115.9,163.6-116.5,160.5-117,157.4L-117,157.4z M-116.8,188.1
		c0.7,2.4,1.4,4.8,2.2,7.2c0.8,2.4,1.6,4.8,2.5,7.1c-2.7-1.8-5.3-3.5-7.8-5.3C-119,194.1-117.9,191.1-116.8,188.1L-116.8,188.1z
		 M-105.9,163c2.5-4.9,5.1-9.6,7.8-14.2c4.9-2,9.9-3.8,15.1-5.5c5.2-1.7,10.3-3.2,15.4-4.5c4.9,2.1,9.8,4.3,14.7,6.8
		c4.9,2.5,9.6,5.1,14.2,7.8c2,4.9,3.8,9.9,5.5,15.1c1.7,5.2,3.2,10.3,4.5,15.4c-2.1,4.9-4.3,9.8-6.8,14.7c-2.5,4.9-5.1,9.6-7.8,14.2
		c-4.9,2-9.9,3.8-15.1,5.5c-5.2,1.7-10.3,3.2-15.4,4.5c-4.9-2.1-9.8-4.3-14.7-6.8c-4.9-2.5-9.6-5.1-14.2-7.8
		c-2-4.9-3.8-9.9-5.5-15.1c-1.7-5.2-3.2-10.3-4.5-15.4C-110.6,172.8-108.4,167.9-105.9,163L-105.9,163z M-29.3,201.6
		c1.1-2.3,2.2-4.5,3.3-6.8c0.7,3.1,1.2,6.2,1.8,9.2c-2.8,1.4-5.6,2.8-8.5,4.2C-31.6,206-30.5,203.8-29.3,201.6L-29.3,201.6z
		 M-29.2,159.2c2.7,1.8,5.3,3.5,7.8,5.3c-1,2.9-2,5.9-3.1,8.9c-0.7-2.4-1.4-4.8-2.2-7.2C-27.5,163.9-28.3,161.5-29.2,159.2
		L-29.2,159.2z M-54.4,230c-2.9-1-5.9-2-8.9-3.1c2.4-0.7,4.8-1.4,7.2-2.2c2.4-0.8,4.8-1.6,7.1-2.5C-50.8,224.9-52.6,227.5-54.4,230
		L-54.4,230z M-90.6,233.4c5.3-1,10.8-2.1,16.3-3.5c5.3,2.2,10.5,4.2,15.6,5.9c-5.8,7.5-11.7,14.1-17.5,19.6
		C-81.2,249.2-86,241.7-90.6,233.4L-90.6,233.4z M-98.1,218.6c2.2,1.2,4.4,2.4,6.6,3.5c2.3,1.1,4.5,2.2,6.8,3.3
		c-3.2,0.7-6.3,1.2-9.3,1.7C-95.4,224.3-96.8,221.5-98.1,218.6L-98.1,218.6z M-127.4,229.7c1-8,2.7-16.6,5.3-25.7
		c4.4,3.1,9.1,6.1,14,9c2.2,5.3,4.4,10.3,6.8,15.1C-110.5,229.3-119.4,229.9-127.4,229.7L-127.4,229.7z M-119.8,177.1
		c-2.2,5.3-4.2,10.5-5.9,15.6c-7.5-5.8-14.1-11.7-19.6-17.5c6.3-4.9,13.8-9.7,22-14.3C-122.4,166.2-121.2,171.6-119.8,177.1
		L-119.8,177.1z M-93.8,129.3c-3.1,4.4-6.1,9.1-9,14c-5.3,2.2-10.4,4.5-15.2,6.9c-1.2-9.4-1.7-18.3-1.5-26.3
		C-111.6,125-102.9,126.7-93.8,129.3L-93.8,129.3z M-86.9,131.5c2.9,1,5.9,2,8.9,3.1c-2.4,0.7-4.8,1.4-7.2,2.2
		c-2.4,0.8-4.8,1.6-7.1,2.5C-90.5,136.6-88.7,134-86.9,131.5L-86.9,131.5z M-50.6,128.1c-5.3,1-10.8,2.1-16.3,3.5
		c-5.3-2.2-10.5-4.2-15.6-5.9c5.8-7.5,11.7-14.1,17.5-19.6C-60.1,112.3-55.2,119.8-50.6,128.1L-50.6,128.1z M-43.2,142.9
		c-2.2-1.2-4.4-2.4-6.7-3.5s-4.5-2.2-6.8-3.3c3.2-0.7,6.3-1.2,9.3-1.7C-45.8,137.2-44.5,140-43.2,142.9L-43.2,142.9z M-13.9,131.8
		c-1,8-2.7,16.6-5.4,25.8c-4.4-3.1-9.1-6.1-14-9c-2.2-5.3-4.4-10.3-6.8-15.1C-30.7,132.2-21.9,131.6-13.9,131.8L-13.9,131.8z
		 M4.1,186.3c-6.3,4.9-13.8,9.7-22,14.3c-1-5.3-2.1-10.7-3.5-16.2c2.2-5.3,4.2-10.5,5.9-15.6C-8,174.6-1.4,180.5,4.1,186.3
		L4.1,186.3z"/>
	<path class="st0" d="M-55.8,198.8c1.8-1.3,3.3-2.7,4.3-4.3c1.1-1.6,1.7-3.4,2-5.3c0.3-1.9,0-3.9-0.6-6l0-0.1
		c-0.6-1.9-1.5-3.4-2.7-4.6c-1.2-1.1-2.5-2-4.2-2.5c-1.6-0.5-3.5-0.8-5.6-0.9c-2.1-0.1-4.4,0-6.9,0.3c-1.5,0.2-2.8,0.2-3.8,0.2
		c-1,0-1.8,0-2.4-0.2c-0.6-0.1-1.1-0.3-1.4-0.6c-0.3-0.3-0.6-0.6-0.7-1.1l0-0.1c-0.2-0.7-0.1-1.5,0.4-2.2c0.5-0.7,1.4-1.3,2.8-1.8
		c1.8-0.6,3.8-0.9,6-0.9c2.2,0,4.4,0.4,6.7,1.1l3-9.9c-2.8-1.1-5.7-1.6-8.8-1.6c-3,0-6.3,0.6-9.8,1.7c-2.4,0.8-4.5,1.8-6.3,3.1
		c-1.7,1.3-3.1,2.7-4.1,4.3c-1,1.6-1.6,3.3-1.8,5.2s0,3.7,0.6,5.6l0,0.1c0.7,2.1,1.7,3.7,2.9,4.9c1.3,1.2,2.7,2,4.4,2.5
		c1.7,0.5,3.6,0.7,5.6,0.7c2.1,0,4.3-0.1,6.6-0.3c1.5-0.1,2.7-0.2,3.7-0.2c1,0,1.8,0.1,2.4,0.2c0.6,0.1,1.1,0.3,1.4,0.6
		c0.3,0.3,0.5,0.6,0.7,1l0,0.1c0.3,0.9,0.1,1.7-0.5,2.5c-0.6,0.7-1.7,1.4-3.2,1.9c-4.7,1.6-9.7,1.4-14.8-0.5l-3.8,9.6
		c3.3,1.4,6.7,2.2,10.4,2.2c3.7,0,7.3-0.5,10.9-1.7C-59.7,201.1-57.6,200.1-55.8,198.8L-55.8,198.8z"/>
	<path class="st0" d="M-74.8,156.4l-1.9-5.9l-8.4,2.8l2,6.2c1.4-0.8,2.9-1.6,4.6-2.1C-77.2,156.9-76,156.7-74.8,156.4L-74.8,156.4z"
		/>
	<path class="st0" d="M-67.6,206.2l1.7,5.2l8.4-2.8l-1.6-4.7c-0.7,0.3-1.4,0.6-2.1,0.9C-63.4,205.5-65.5,206-67.6,206.2L-67.6,206.2
		z"/>
	<path class="st0" d="M39.2,144.5c-1.9-5.8-8.1-8.9-13.9-7c-5.8,1.9-8.9,8.1-7,13.9c1.9,5.8,8.1,8.9,13.9,7
		C37.9,156.6,41.1,150.3,39.2,144.5L39.2,144.5z"/>
	<path class="st0" d="M-13.7,92.3c2.7-5.4,0.6-12.1-4.9-14.8c-5.4-2.7-12.1-0.6-14.8,4.9c-2.7,5.4-0.6,12.1,4.9,14.8
		C-23.1,99.9-16.5,97.7-13.7,92.3L-13.7,92.3z"/>
	<path class="st0" d="M-92.9,78c-1.9-5.8-8.1-8.9-13.9-7c-5.8,1.9-8.9,8.1-7,13.9c1.9,5.8,8.1,8.9,13.9,7C-94.2,90-91,83.7-92.9,78
		L-92.9,78z"/>
	<path class="st0" d="M-159.1,123.8c-5.4-2.7-12.1-0.6-14.8,4.9c-2.7,5.4-0.6,12.1,4.9,14.8c5.4,2.7,12.1,0.6,14.8-4.9
		C-151.5,133.2-153.6,126.6-159.1,123.8L-159.1,123.8z"/>
	<path class="st0" d="M-173.4,203c-5.8,1.9-8.9,8.1-7,13.9c1.9,5.8,8.1,8.9,13.9,7c5.8-1.9,8.9-8.1,7-13.9
		C-161.4,204.3-167.6,201.1-173.4,203L-173.4,203z"/>
	<path class="st0" d="M-127.6,269.2c-2.7,5.4-0.6,12.1,4.9,14.8c5.4,2.7,12.1,0.6,14.8-4.9c2.7-5.4,0.6-12.1-4.9-14.8
		C-118.2,261.6-124.8,263.8-127.6,269.2L-127.6,269.2z"/>
	<path class="st0" d="M-48.3,283.5c1.9,5.8,8.1,8.9,13.9,7c5.8-1.9,8.9-8.1,7-13.9c-1.9-5.8-8.1-8.9-13.9-7
		C-47.1,271.5-50.3,277.8-48.3,283.5L-48.3,283.5z"/>
	<path class="st0" d="M17.8,237.7c5.4,2.7,12.1,0.6,14.8-4.9c2.7-5.4,0.6-12.1-4.9-14.8c-5.4-2.7-12.1-0.6-14.8,4.9
		C10.2,228.3,12.4,234.9,17.8,237.7L17.8,237.7z"/>
</g>
</svg>
