<?xml version="1.0" encoding="utf-8"?>
<!-- Generator: Adobe Illustrator 27.9.0, SVG Export Plug-In . SVG Version: 6.00 Build 0)  -->
<svg version="1.1" id="Layer_1" xmlns="http://www.w3.org/2000/svg" xmlns:xlink="http://www.w3.org/1999/xlink" x="0px" y="0px"
	 viewBox="0 0 626.7 540" style="enable-background:new 0 0 626.7 540;" xml:space="preserve">
<g>
	<path d="M29.1,538.6h33.5v-73.3h29.1v-26H0v26h29.1V538.6L29.1,538.6z M128.4,469.4V461H97.9v77.6h32.1v-34.5
		c0-12.3,6.8-16.7,16.5-16.7c2.3,0,4.3,0.1,7.1,0.6v-28.4C142.7,459.6,134,462.8,128.4,469.4L128.4,469.4z M214.9,461v5.2
		c-4.7-4.5-11.2-6.7-19.7-6.7c-20.3,0-37.4,15.2-37.4,40.1c0,25,17.2,40.3,37.4,40.3c9.6,0,16.6-2.6,21.3-7.8v6.4H247V461H214.9
		L214.9,461z M202.8,515c-7.1,0-12.6-5.2-12.6-15.3c0-10.1,5.5-15.2,12.6-15.2c7.1,0,12.6,5.1,12.6,15.2
		C215.5,509.8,209.9,515,202.8,515L202.8,515z M314.9,433.3v32.9c-4.7-4.5-11.2-6.7-19.7-6.7c-20.3,0-37.4,15.2-37.4,40.1
		c0,25,17.2,40.3,37.4,40.3c9.6,0,16.6-2.6,21.3-7.8v6.4H347V433.3H314.9L314.9,433.3z M302.8,515c-7.1,0-12.6-5.2-12.6-15.3
		c0-10.1,5.5-15.2,12.6-15.2c7.1,0,12.6,5.1,12.6,15.2C315.5,509.8,309.9,515,302.8,515L302.8,515z M443.7,499.7
		c0-26.2-19.7-40.1-42.7-40.1c-25.1,0-44,16.6-44,40.1c0,23.1,18.4,40.3,47,40.3c15.5,0,26.4-4.3,33.9-12.5l-16.7-16.9
		c-5.1,3.8-9.1,5.7-16.2,5.7c-7.9,0-13.3-3.1-15.6-9.1h53.9C443.4,505,443.7,502,443.7,499.7L443.7,499.7z M401.3,481.4
		c6.5,0,11.2,3.8,12.5,10.4h-25C390.1,485.2,394.6,481.4,401.3,481.4L401.3,481.4z M484.3,469.4V461h-30.5v77.6h32.1v-34.5
		c0-12.3,6.8-16.7,16.5-16.7c2.3,0,4.3,0.1,7.1,0.6v-28.4C498.6,459.6,489.9,462.8,484.3,469.4L484.3,469.4z"/>
	<polygon points="592.7,475.9 624.4,431.8 585.7,431.8 574.1,449.5 592.7,475.9 	"/>
	<polygon points="584.9,484.7 547.8,431.8 509.5,431.8 546.7,484.7 508.2,538.5 546.4,538.5 584.9,484.7 	"/>
	<polygon points="573.6,519.9 585.6,538.5 626.7,538.5 593.6,492 573.6,519.9 	"/>
	<path d="M438.8,274.9c0.1-0.9,0.3-1.8,0.3-2.8V66.4c0-3-0.6-5.9-1.7-8.5l-64.5,89.7L329,85.1l27.4-41.6H267l87.6,124.6l-90.9,126.8
		h92.3l-28.3-43.7l47.2-65.8L438.8,274.9L438.8,274.9z M188.6,60.2c-0.6,2-1,4-1,6.2v205.7c0,1,0.2,1.9,0.3,2.9l76.6-106.8
		L188.6,60.2L188.6,60.2z"/>
	<path d="M484.3,281v-220C484.3,27.3,457,0,423.4,0h-220c-33.7,0-60.9,27.3-60.9,60.9v220c0,33.7,27.3,60.9,60.9,60.9h220
		C457,341.9,484.3,314.6,484.3,281L484.3,281z M466.7,277.2c0,26-21.1,47.1-47.1,47.1H207.1c-26,0-47.1-21.1-47.1-47.1V64.7
		c0-26,21.1-47.1,47.1-47.1h212.5c26,0,47.1,21.1,47.1,47.1V277.2L466.7,277.2z"/>
</g>
</svg>
