<?xml version="1.0" encoding="utf-8"?>
<!-- Generator: Adobe Illustrator 24.2.3, SVG Export Plug-In . SVG Version: 6.00 Build 0)  -->
<svg version="1.1" id="Layer_1" xmlns="http://www.w3.org/2000/svg" xmlns:xlink="http://www.w3.org/1999/xlink" x="0px" y="0px"
	 viewBox="0 0 648 648" style="enable-background:new 0 0 648 648;" xml:space="preserve">
<style type="text/css">
	.st0{fill:#D1D1CF;}
	.st1{fill:#7AB0D4;}
</style>
<g>
	<polygon class="st0" points="589.2,324.8 551.7,362.5 361.6,362.5 361.5,552.5 324.1,590.1 286.5,552.5 286.4,362.5 96.5,362.5 
		58.9,325 96.5,287.5 286.5,287.4 286.5,97.4 324.2,59.8 361.6,97.2 361.5,287.4 551.8,287.4 589.2,324.8 	"/>
	<polygon class="st0" points="443.8,444.3 395.9,444.4 324.1,372.6 253.3,443.2 205.5,443.3 205.5,395.4 276.1,324.6 202.7,251.2 
		202.7,203.3 250.5,203.4 324.1,276.8 397.5,203.5 445.4,203.5 445.4,251.2 371.9,324.6 443.8,396.6 443.8,444.3 	"/>
	<polygon class="st1" points="368,80.4 324.2,36.5 280.3,80.4 262,62.1 324.2,0 386.3,62.1 368,80.4 	"/>
	<polygon class="st1" points="62.1,386 0,323.8 62.1,261.7 80.4,280 36.6,323.8 80.4,367.7 62.1,386 	"/>
	<polygon class="st1" points="323.8,648 261.7,585.9 280,567.6 323.8,611.4 367.7,567.6 386,585.9 323.8,648 	"/>
	<polygon class="st1" points="585.9,386.3 567.6,368 611.4,324.2 567.6,280.3 585.9,262 648,324.2 585.9,386.3 	"/>
	<polygon class="st1" points="533.4,197.5 451.7,197.5 451.7,115.7 477.5,115.7 477.5,171.6 533.4,171.6 533.4,197.5 	"/>
	<polygon class="st0" points="544.2,157.9 491.3,157.9 491.3,105 508,105 508,141.2 544.2,141.2 544.2,157.9 	"/>
	<polygon class="st1" points="196.7,197.5 115,197.5 115,171.6 170.9,171.6 170.9,115.7 196.7,115.7 196.7,197.5 	"/>
	<polygon class="st0" points="157.1,157.9 104.2,157.9 104.2,141.2 140.4,141.2 140.4,105 157.1,105 157.1,157.9 	"/>
	<polygon class="st1" points="477.5,532.6 451.7,532.6 451.7,450.9 533.4,450.9 533.4,476.7 477.5,476.7 477.5,532.6 	"/>
	<polygon class="st0" points="508,543.4 491.3,543.4 491.3,490.5 544.2,490.5 544.2,507.2 508,507.2 508,543.4 	"/>
	<polygon class="st1" points="196.7,532.6 170.9,532.6 170.9,476.7 115,476.7 115,450.9 196.7,450.9 196.7,532.6 	"/>
	<polygon class="st0" points="157.1,543.4 140.4,543.4 140.4,507.2 104.2,507.2 104.2,490.5 157.1,490.5 157.1,543.4 	"/>
</g>
</svg>
