<?xml version="1.0" encoding="utf-8"?>
<!-- Generator: Adobe Illustrator 22.1.0, SVG Export Plug-In . SVG Version: 6.00 Build 0)  -->
<svg version="1.1" id="Layer_1" xmlns="http://www.w3.org/2000/svg" xmlns:xlink="http://www.w3.org/1999/xlink" x="0px" y="0px"
	 viewBox="0 0 576 720" style="enable-background:new 0 0 576 720;" xml:space="preserve">
<style type="text/css">
	.st0{fill:#0086BF;}
</style>
<g>
	<path class="st0" d="M204.7,278.8h18.9v2.7h-15.9v9.4h14.2v2.7h-14.2V305h-3V278.8z"/>
	<path class="st0" d="M228.7,278.2h3.3v3.2h-3.3V278.2z M228.9,285.6h2.9V305h-2.9V285.6z"/>
	<path class="st0" d="M238.3,285.6h2.9v3.4c1.3-2.1,3.3-3.8,6.6-3.8c4.7,0,7.4,3.2,7.4,7.8v12h-2.9v-11.3c0-3.6-2-5.9-5.4-5.9
		c-3.3,0-5.8,2.4-5.8,6.1V305h-2.9V285.6z"/>
	<path class="st0" d="M262.2,299.9v-11.7h-2.7v-2.5h2.7v-5.9h2.9v5.9h6.2v2.5h-6.2v11.3c0,2.4,1.3,3.2,3.3,3.2c1,0,1.8-0.2,2.8-0.7
		v2.5c-1,0.5-2.1,0.8-3.5,0.8C264.6,305.4,262.2,303.8,262.2,299.9z"/>
	<path class="st0" d="M274.4,295.4L274.4,295.4c0-5.7,3.9-10.2,9.3-10.2c5.7,0,9,4.6,9,10.2c0,0.4,0,0.6,0,0.9h-15.4
		c0.4,4.2,3.4,6.6,6.8,6.6c2.7,0,4.5-1.1,6.1-2.7l1.8,1.6c-2,2.2-4.3,3.6-8,3.6C278.8,305.5,274.4,301.4,274.4,295.4z M289.8,294.3
		c-0.3-3.5-2.3-6.6-6.2-6.6c-3.4,0-5.9,2.8-6.3,6.6H289.8z"/>
	<path class="st0" d="M296.4,295.4L296.4,295.4c0-5.6,4.3-10.2,9.9-10.2c3.7,0,6,1.5,7.8,3.5l-1.9,2c-1.5-1.6-3.3-2.9-5.9-2.9
		c-3.9,0-6.9,3.3-6.9,7.5v0.1c0,4.2,3.1,7.5,7.1,7.5c2.5,0,4.4-1.2,5.9-2.9l1.8,1.7c-1.9,2.2-4.3,3.8-7.9,3.8
		C300.7,305.5,296.4,300.9,296.4,295.4z"/>
	<path class="st0" d="M318.9,277.6h2.9V289c1.3-2.1,3.3-3.8,6.6-3.8c4.7,0,7.4,3.2,7.4,7.8v12h-2.9v-11.3c0-3.6-1.9-5.9-5.4-5.9
		c-3.3,0-5.8,2.4-5.8,6.1V305h-2.9V277.6z"/>
	<path class="st0" d="M203.5,336L203.5,336c0-7.3,5.4-13.7,13.4-13.7c8,0,13.4,6.3,13.4,13.5v0.1c0,7.2-5.4,13.6-13.4,13.6
		C208.9,349.5,203.5,343.2,203.5,336z M227.2,336L227.2,336c0-6-4.4-10.9-10.4-10.9s-10.3,4.8-10.3,10.8v0.1c0,6,4.4,10.8,10.4,10.8
		S227.2,341.9,227.2,336z"/>
	<path class="st0" d="M235.9,329.6h2.9v3.9c1.6-2.3,3.9-4.3,7.4-4.3c4.7,0,9.3,3.7,9.3,10.1v0.1c0,6.3-4.6,10.1-9.3,10.1
		c-3.6,0-5.9-2-7.4-4.1v9.7h-2.9V329.6z M252.5,339.4L252.5,339.4c0-4.7-3.2-7.6-6.8-7.6c-3.6,0-7,3-7,7.5v0.1c0,4.5,3.4,7.5,7,7.5
		C249.4,346.8,252.5,344.1,252.5,339.4z"/>
	<path class="st0" d="M259.4,339.4L259.4,339.4c0-5.7,3.9-10.2,9.3-10.2c5.7,0,9,4.6,9,10.2c0,0.4,0,0.6,0,0.9h-15.4
		c0.4,4.2,3.4,6.6,6.8,6.6c2.7,0,4.5-1.1,6.1-2.7l1.8,1.6c-2,2.2-4.3,3.6-8,3.6C263.8,349.5,259.4,345.4,259.4,339.4z M274.8,338.3
		c-0.3-3.5-2.3-6.6-6.2-6.6c-3.4,0-5.9,2.8-6.3,6.6H274.8z"/>
	<path class="st0" d="M282.6,329.6h2.9v3.4c1.3-2.1,3.3-3.8,6.6-3.8c4.7,0,7.4,3.2,7.4,7.8v12h-2.9v-11.3c0-3.6-1.9-5.9-5.4-5.9
		c-3.3,0-5.8,2.4-5.8,6.1V349h-2.9V329.6z"/>
	<path class="st0" d="M315.4,345.2l1.8-2.2c2.7,2.5,5.4,3.7,9,3.7c3.5,0,5.9-1.9,5.9-4.5v-0.1c0-2.4-1.3-3.8-6.8-5
		c-6-1.3-8.8-3.3-8.8-7.6v-0.1c0-4.1,3.6-7.2,8.6-7.2c3.8,0,6.6,1.1,9.2,3.2l-1.7,2.3c-2.4-2-4.9-2.9-7.6-2.9
		c-3.4,0-5.6,1.9-5.6,4.2v0.1c0,2.5,1.4,3.9,7.1,5.1c5.9,1.3,8.6,3.4,8.6,7.4v0.1c0,4.5-3.8,7.4-9,7.4
		C321.9,349.4,318.5,348,315.4,345.2z"/>
	<path class="st0" d="M339.2,339.4L339.2,339.4c0-5.6,4.3-10.2,10.1-10.2c5.8,0,10.1,4.6,10.1,10.1v0.1c0,5.5-4.3,10.1-10.2,10.1
		C343.5,349.5,339.2,344.9,339.2,339.4z M356.5,339.4L356.5,339.4c0-4.2-3.1-7.7-7.2-7.7c-4.2,0-7.1,3.4-7.1,7.5v0.1
		c0,4.2,3.1,7.5,7.2,7.5C353.5,346.9,356.5,343.5,356.5,339.4z"/>
	<path class="st0" d="M364.2,341.7v-12h2.9V341c0,3.6,2,5.9,5.4,5.9c3.3,0,5.8-2.4,5.8-6.1v-11.1h2.8V349h-2.8v-3.4
		c-1.3,2.1-3.3,3.8-6.6,3.8C366.9,349.4,364.2,346.3,364.2,341.7z"/>
	<path class="st0" d="M387.4,329.6h2.9v5.1c1.4-3.2,4.2-5.6,7.9-5.4v3.1h-0.2c-4.2,0-7.7,3-7.7,8.9v7.7h-2.9V329.6z"/>
	<path class="st0" d="M400.3,339.4L400.3,339.4c0-5.6,4.3-10.2,9.9-10.2c3.7,0,6,1.5,7.8,3.5l-1.9,2c-1.5-1.6-3.3-2.9-5.9-2.9
		c-3.9,0-6.9,3.3-6.9,7.5v0.1c0,4.2,3.1,7.5,7.1,7.5c2.5,0,4.4-1.2,5.9-2.9l1.8,1.7c-1.9,2.2-4.3,3.8-7.9,3.8
		C404.6,349.5,400.3,344.9,400.3,339.4z"/>
	<path class="st0" d="M421,339.4L421,339.4c0-5.7,3.9-10.2,9.3-10.2c5.7,0,9,4.6,9,10.2c0,0.4,0,0.6,0,0.9h-15.4
		c0.4,4.2,3.4,6.6,6.8,6.6c2.7,0,4.5-1.1,6.1-2.7l1.8,1.6c-2,2.2-4.3,3.6-8,3.6C425.4,349.5,421,345.4,421,339.4z M436.4,338.3
		c-0.3-3.5-2.3-6.6-6.2-6.6c-3.4,0-5.9,2.8-6.3,6.6H436.4z"/>
	<path class="st0" d="M204.7,366.8h18.9v2.7h-15.9v9.4h14.2v2.7h-14.2V393h-3V366.8z"/>
	<path class="st0" d="M226.9,383.4L226.9,383.4c0-5.6,4.3-10.2,10.1-10.2c5.8,0,10.1,4.6,10.1,10.1v0.1c0,5.5-4.3,10.1-10.2,10.1
		C231.1,393.5,226.9,388.9,226.9,383.4z M244.1,383.4L244.1,383.4c0-4.2-3.1-7.7-7.2-7.7c-4.2,0-7.1,3.4-7.1,7.5v0.1
		c0,4.2,3.1,7.5,7.2,7.5C241.2,390.9,244.1,387.5,244.1,383.4z"/>
	<path class="st0" d="M251.8,385.7v-12h2.9V385c0,3.6,2,5.9,5.4,5.9c3.3,0,5.8-2.4,5.8-6.1v-11.1h2.9V393h-2.9v-3.4
		c-1.3,2.1-3.3,3.8-6.6,3.8C254.5,393.4,251.8,390.3,251.8,385.7z"/>
	<path class="st0" d="M275,373.6h2.9v3.4c1.3-2.1,3.3-3.8,6.6-3.8c4.7,0,7.4,3.2,7.4,7.8v12h-2.9v-11.3c0-3.6-1.9-5.9-5.4-5.9
		c-3.3,0-5.8,2.4-5.8,6.1V393H275V373.6z"/>
	<path class="st0" d="M296.8,383.4L296.8,383.4c0-6.4,4.6-10.2,9.3-10.2c3.6,0,5.9,2,7.4,4.1v-11.7h2.9V393h-2.9v-3.9
		c-1.6,2.3-3.9,4.3-7.4,4.3C301.4,393.4,296.8,389.8,296.8,383.4z M313.6,383.3L313.6,383.3c0-4.5-3.4-7.5-7-7.5
		c-3.8,0-6.8,2.8-6.8,7.5v0.1c0,4.6,3.2,7.5,6.8,7.5C310.2,390.8,313.6,387.8,313.6,383.3z"/>
	<path class="st0" d="M321.4,387.4L321.4,387.4c0-4.2,3.4-6.3,8.3-6.3c2.5,0,4.2,0.3,6,0.8v-0.7c0-3.5-2.1-5.3-5.8-5.3
		c-2.3,0-4.1,0.6-5.9,1.4l-0.9-2.4c2.1-1,4.2-1.6,7.1-1.6c2.7,0,4.8,0.7,6.3,2.1c1.3,1.3,2,3.2,2,5.7V393h-2.8v-2.9
		c-1.3,1.8-3.6,3.3-7,3.3C325,393.4,321.4,391.4,321.4,387.4z M335.7,385.9V384c-1.4-0.4-3.3-0.8-5.7-0.8c-3.6,0-5.7,1.6-5.7,4v0.1
		c0,2.4,2.2,3.9,4.9,3.9C332.7,391.1,335.7,389,335.7,385.9z"/>
	<path class="st0" d="M345.4,387.9v-11.7h-2.7v-2.5h2.7v-5.9h2.9v5.9h6.2v2.5h-6.2v11.3c0,2.4,1.3,3.2,3.3,3.2c1,0,1.8-0.2,2.8-0.7
		v2.5c-1,0.5-2.1,0.8-3.5,0.8C347.7,393.4,345.4,391.8,345.4,387.9z"/>
	<path class="st0" d="M359.6,366.2h3.3v3.2h-3.3V366.2z M359.8,373.6h2.9V393h-2.9V373.6z"/>
	<path class="st0" d="M368,383.4L368,383.4c0-5.6,4.3-10.2,10.1-10.2c5.8,0,10.1,4.6,10.1,10.1v0.1c0,5.5-4.3,10.1-10.2,10.1
		C372.3,393.5,368,388.9,368,383.4z M385.3,383.4L385.3,383.4c0-4.2-3.1-7.7-7.2-7.7c-4.2,0-7.1,3.4-7.1,7.5v0.1
		c0,4.2,3.1,7.5,7.2,7.5C382.3,390.9,385.3,387.5,385.3,383.4z"/>
	<path class="st0" d="M393.3,373.6h2.9v3.4c1.3-2.1,3.3-3.8,6.6-3.8c4.7,0,7.4,3.2,7.4,7.8v12h-2.9v-11.3c0-3.6-2-5.9-5.4-5.9
		c-3.3,0-5.8,2.4-5.8,6.1V393h-2.9V373.6z"/>
</g>
<g>
	<path class="st0" d="M204.8,204.4h22.1v5.8h-15.7v6.2H225v5.8h-13.9v11.3h-6.4V204.4z"/>
	<path class="st0" d="M232.6,204.4h6.4v29.1h-6.4V204.4z"/>
	<path class="st0" d="M246.3,204.4h5.9l13.6,17.9v-17.9h6.3v29.1h-5.4L252.6,215v18.5h-6.3V204.4z"/>
	<path class="st0" d="M277.6,219.1L277.6,219.1c0-8.3,6.5-15.1,15.5-15.1c9,0,15.4,6.7,15.4,15v0.1c0,8.3-6.5,15-15.5,15
		S277.6,227.3,277.6,219.1z M301.8,219.1L301.8,219.1c0-5.1-3.7-9.2-8.8-9.2s-8.7,4.1-8.7,9.1v0.1c0,5,3.7,9.1,8.8,9.1
		S301.8,224,301.8,219.1z"/>
	<path class="st0" d="M311.8,229.3l3.8-4.5c2.6,2.2,5.4,3.5,8.7,3.5c2.6,0,4.2-1,4.2-2.7v-0.1c0-1.6-1-2.5-5.9-3.7
		c-5.9-1.5-9.6-3.1-9.6-8.9v-0.1c0-5.3,4.2-8.8,10.2-8.8c4.2,0,7.9,1.3,10.8,3.7l-3.3,4.8c-2.6-1.8-5.1-2.9-7.6-2.9
		s-3.7,1.1-3.7,2.5v0.1c0,1.9,1.2,2.5,6.3,3.8c5.9,1.5,9.2,3.7,9.2,8.7v0.1c0,5.8-4.4,9-10.7,9C319.7,233.9,315.3,232.4,311.8,229.3
		z"/>
</g>
</svg>
