<?xml version="1.0" encoding="utf-8"?>
<!-- Generator: Adobe Illustrator 24.1.0, SVG Export Plug-In . SVG Version: 6.00 Build 0)  -->
<svg version="1.1" id="Layer_1" xmlns="http://www.w3.org/2000/svg" xmlns:xlink="http://www.w3.org/1999/xlink" x="0px" y="0px"
	 viewBox="0 0 731.48 139.32" style="enable-background:new 0 0 731.48 139.32;" xml:space="preserve">
<style type="text/css">
	.st0{opacity:0.6;fill:#00000A;}
	.st1{fill:#00000A;}
	.st2{opacity:0.4;fill:#00000A;}
</style>
<g>
	<path class="st0" d="M169,75.43L169,75.43z M170.42,79.31L170.42,79.31z M172.98,92.51L172.98,92.51z M226.4,116.96
		c0-12.35-10.01-22.36-22.36-22.36c-0.86,0-1.7,0.06-2.54,0.15c0.09-1.16,0.14-2.34,0.14-3.52c0-23.92-17.2-43.75-39.72-47.46v18.97
		c2.62,3.51,5.48,8.98,4.89,7.84c13.05,5.25,22.29,18.15,22.29,33.27c0,0.88-0.04,1.76-0.1,2.62c0.62-0.07,1.25-0.12,1.89-0.12
		c9.19,0,16.64,7.45,16.64,16.65c0,8.07-5.75,14.8-13.38,16.32c0,0,9.08,0,9.89,0C216.38,139.32,226.4,129.31,226.4,116.96
		L226.4,116.96z"/>
	<path class="st1" d="M137.05,53.93c-6.43-3.1-13.34-4.67-20.53-4.67h-3.96c-7.19,0-14.1,1.57-20.53,4.67L89,55.39v-3.36V41.23
		c0-6.82,2.66-13.23,7.48-18.06c4.82-4.82,11.24-7.48,18.06-7.48c14.08,0,25.54,11.46,25.54,25.54v10.79v3.36L137.05,53.93
		L137.05,53.93z M105.45,97.9c-3.65-2.8-5.85-7.18-5.85-11.81c0-8.21,6.68-14.89,14.89-14.89c8.21,0,14.89,6.68,14.89,14.89
		c0,4.53-2.03,8.73-5.5,11.54c1.81,4.62,3.63,9.24,5.44,13.86l1.13,2.89h-3.1h-24.7h-2.98l0.98-2.81
		C102.27,107.01,103.86,102.45,105.45,97.9 M168.08,137.21V96.59c0-11.65-3.98-23.03-11.23-32.12V40.76
		C156.85,18.28,138.56,0,116.09,0H113C90.52,0,72.24,18.28,72.24,40.76v23.71c-7.25,9.09-11.23,20.47-11.23,32.12v40.62v2.11h2.11
		h102.84h2.11V137.21L168.08,137.21z"/>
	<path class="st1" d="M67.17,62.74L67.17,62.74z M67.17,59.88v-9.22c-0.89-0.12-1.8-0.19-2.73-0.19c-10.46,0-19.03,8.02-19.93,18.25
		c-2.78-0.69-5.69-1.07-8.68-1.07C16.04,67.66,0,83.7,0,103.49c0,19.67,15.85,35.62,35.47,35.82v0.01h20.47l0,0h-6.32v-0.01
		c-17.43-0.17-31.5-14.35-31.5-31.82c0-17.58,14.25-31.83,31.83-31.83c2.66,0,5.24,0.33,7.71,0.95
		C52.49,68.87,60.49,59.52,67.17,59.88L67.17,59.88z"/>
	<path class="st0" d="M67.17,62.74c0,0,0-2.51,0-2.86c-6.67-0.36-14.67,8.99-9.51,16.73c-2.47-0.61-5.05-0.95-7.71-0.95
		c-17.58,0-31.83,14.25-31.83,31.83c0,17.47,14.08,31.65,31.5,31.82v0.01h6.32v-0.14c-10.89-2.14-19.11-11.71-19.11-23.23
		c0-11.57,8.3-21.19,19.27-23.27C56.85,81.89,60.69,71.43,67.17,62.74L67.17,62.74z"/>
	<path class="st2" d="M56.1,92.69c-10.97,2.07-19.27,11.69-19.27,23.26c0,11.52,8.22,21.09,19.11,23.23v-1.97V96.59
		C55.94,95.28,56.01,93.98,56.1,92.69L56.1,92.69z"/>
	<path class="st1" d="M244.67,114.15c0-13.9-11.27-25.17-25.17-25.17c-0.97,0-1.92,0.07-2.86,0.17c0.1-1.31,0.16-2.63,0.16-3.97
		c0-29.9-23.87-54.14-53.31-54.14c-0.87,0-1.74,0.02-2.6,0.07c0.67,3.11,1.03,6.34,1.03,9.65v3.01
		c22.52,3.71,39.72,23.54,39.72,47.46c0,1.19-0.05,2.36-0.14,3.52c0.83-0.09,1.68-0.15,2.54-0.15c12.35,0,22.36,10.01,22.36,22.36
		c0,12.35-10.01,22.36-22.35,22.36c0,0,14.54,0,15.45,0C233.4,139.32,244.67,128.05,244.67,114.15L244.67,114.15z M204.03,139.32
		L204.03,139.32z"/>
	<path class="st2" d="M207.52,123c0-9.19-7.45-16.65-16.64-16.65c-0.64,0-1.27,0.04-1.89,0.12c0.06-0.87,0.1-1.74,0.1-2.62
		c0-15.12-9.24-28.02-22.29-33.27c4.13,8,6.34,16.94,6.34,26.01v40.62v2.11v0h20.99C201.77,137.8,207.52,131.07,207.52,123
		L207.52,123z"/>
	<path class="st1" d="M319.99,126.51c-0.56-0.4-1.2-0.57-1.9-0.51c-0.7,0.06-1.28,0.35-1.72,0.88c-0.84,0.97-1.79,1.8-2.84,2.51
		c-1.05,0.7-2.17,1.24-3.38,1.6c-1.21,0.36-2.46,0.54-3.74,0.54c-3.67,0-6.81-1.37-9.42-4.11c-2.62-2.74-3.93-6.04-3.93-9.91
		c0-3.87,1.31-7.17,3.93-9.9c2.62-2.74,5.76-4.11,9.42-4.11c3.74,0,6.92,1.39,9.54,4.17c0.48,0.52,1.06,0.81,1.72,0.85
		c0.66,0.04,1.26-0.16,1.78-0.6l2.11-1.63c0.6-0.48,0.92-1.11,0.97-1.87c0.08-0.76-0.14-1.43-0.66-1.99
		c-2.05-2.13-4.41-3.77-7.07-4.92c-2.66-1.15-5.46-1.72-8.39-1.72c-3.87,0-7.44,0.97-10.72,2.9c-3.28,1.93-5.88,4.57-7.79,7.91
		c-1.91,3.34-2.87,6.99-2.87,10.93c0,3.95,0.96,7.59,2.87,10.93c1.91,3.34,4.51,5.98,7.79,7.91c3.28,1.93,6.85,2.9,10.72,2.9
		c3.06,0,5.99-0.64,8.79-1.9c2.8-1.27,5.22-3.07,7.28-5.41c0.44-0.56,0.64-1.21,0.6-1.93c-0.08-0.73-0.42-1.33-1.03-1.81
		L319.99,126.51L319.99,126.51z M331.71,96.5c-0.72,0-1.34,0.25-1.84,0.76c-0.5,0.5-0.76,1.12-0.76,1.84v36.78
		c0,0.73,0.25,1.34,0.76,1.84c0.5,0.5,1.12,0.76,1.84,0.76h21.8c0.73,0,1.35-0.25,1.87-0.76c0.52-0.5,0.79-1.12,0.79-1.84v-2.6
		c0-0.72-0.26-1.35-0.79-1.87c-0.52-0.52-1.15-0.78-1.87-0.78h-15.94c-0.4,0-0.6-0.2-0.6-0.6v-4.41c0-0.4,0.2-0.6,0.6-0.6h12.14
		c0.73,0,1.35-0.25,1.87-0.76c0.52-0.5,0.78-1.12,0.78-1.84v-2.6c0-0.72-0.26-1.35-0.78-1.87c-0.52-0.52-1.15-0.79-1.87-0.79h-12.14
		c-0.4,0-0.6-0.2-0.6-0.6v-11.6c0-0.4,0.2-0.6,0.6-0.6h15.94c0.73,0,1.35-0.26,1.87-0.79c0.52-0.52,0.79-1.15,0.79-1.87v-2.6
		c0-0.72-0.26-1.34-0.79-1.84c-0.52-0.5-1.15-0.76-1.87-0.76H331.71L331.71,96.5z M364.74,96.5c-0.72,0-1.34,0.25-1.84,0.76
		c-0.5,0.5-0.75,1.12-0.75,1.84v36.78c0,0.73,0.25,1.34,0.75,1.84c0.5,0.5,1.12,0.76,1.84,0.76h2.6c0.72,0,1.35-0.25,1.87-0.76
		c0.52-0.5,0.78-1.12,0.78-1.84v-6.22c0-0.4,0.2-0.6,0.6-0.6h4.17c0.28,0,0.56,0,0.85,0c0.24,0,0.42,0.08,0.54,0.24l5.74,8.09
		c0.52,0.73,1.23,1.09,2.11,1.09h3.2c0.93,0,1.65-0.32,2.17-0.97c0.81-1.05,0.83-2.09,0.06-3.14l-5.32-7.49
		c-0.2-0.36-0.14-0.64,0.18-0.85c2.13-1.53,3.79-3.46,4.98-5.8c1.19-2.33,1.78-4.81,1.78-7.43v-0.78c0-4.27-1.52-7.92-4.56-10.96
		c-3.04-3.04-6.71-4.56-11.02-4.56H364.74L364.74,96.5z M383.23,113.23c0,2.42-0.87,4.49-2.6,6.22c-1.73,1.73-3.8,2.6-6.22,2.6h-3.8
		c-0.4,0-0.6-0.2-0.6-0.6v-17.33c0-0.4,0.2-0.6,0.6-0.6h4.23c2.33,0,4.32,0.83,5.95,2.48c1.63,1.65,2.45,3.62,2.45,5.92V113.23
		L383.23,113.23z M397.84,96.5c-0.72,0-1.34,0.25-1.84,0.76c-0.5,0.5-0.75,1.12-0.75,1.84v2.42c0,0.73,0.25,1.35,0.75,1.87
		c0.5,0.52,1.12,0.79,1.84,0.79h9.06c0.4,0,0.6,0.2,0.6,0.6v31.1c0,0.73,0.26,1.34,0.79,1.84c0.52,0.5,1.15,0.76,1.87,0.76h2.6
		c0.73,0,1.34-0.25,1.84-0.76c0.5-0.5,0.76-1.12,0.76-1.84v-31.1c0-0.4,0.2-0.6,0.6-0.6h9.06c0.73,0,1.35-0.26,1.87-0.79
		c0.52-0.52,0.79-1.15,0.79-1.87v-2.42c0-0.72-0.26-1.34-0.79-1.84c-0.52-0.5-1.15-0.76-1.87-0.76H397.84L397.84,96.5z M439.28,96.5
		c-0.73,0-1.34,0.25-1.84,0.76c-0.5,0.5-0.76,1.12-0.76,1.84v36.78c0,0.73,0.25,1.34,0.76,1.84c0.5,0.5,1.12,0.76,1.84,0.76h2.66
		c0.44,0,0.87-0.11,1.27-0.33c0.4-0.22,0.73-0.53,0.97-0.94c0.24-0.4,0.36-0.85,0.36-1.33V99.09c0-0.72-0.26-1.34-0.79-1.84
		c-0.52-0.5-1.13-0.76-1.81-0.76H439.28L439.28,96.5z M456.25,96.5c-0.72,0-1.35,0.25-1.87,0.76c-0.52,0.5-0.78,1.12-0.78,1.84
		v36.78c0,0.73,0.26,1.34,0.78,1.84c0.52,0.5,1.15,0.76,1.87,0.76h2.54c0.72,0,1.35-0.25,1.87-0.76c0.52-0.5,0.79-1.12,0.79-1.84
		v-10.27c0-0.4,0.2-0.6,0.6-0.6h12.14c0.73,0,1.35-0.26,1.87-0.79c0.52-0.52,0.79-1.15,0.79-1.87v-2.54c0-0.72-0.26-1.35-0.79-1.87
		c-0.52-0.52-1.15-0.79-1.87-0.79h-12.14c-0.4,0-0.6-0.2-0.6-0.6v-11.6c0-0.4,0.2-0.6,0.6-0.6h15.94c0.73,0,1.35-0.26,1.87-0.79
		c0.52-0.52,0.79-1.15,0.79-1.87v-2.6c0-0.44-0.12-0.87-0.36-1.3c-0.24-0.42-0.56-0.74-0.97-0.97c-0.4-0.22-0.85-0.33-1.33-0.33
		H456.25L456.25,96.5z M492.3,96.5c-0.73,0-1.34,0.25-1.84,0.76c-0.5,0.5-0.75,1.12-0.75,1.84v36.78c0,0.73,0.25,1.34,0.75,1.84
		c0.5,0.5,1.12,0.76,1.84,0.76h2.66c0.44,0,0.87-0.11,1.27-0.33c0.4-0.22,0.73-0.53,0.97-0.94c0.24-0.4,0.36-0.85,0.36-1.33V99.09
		c0-0.72-0.26-1.34-0.79-1.84c-0.52-0.5-1.13-0.76-1.81-0.76H492.3L492.3,96.5z M541.59,126.51c-0.57-0.4-1.2-0.57-1.9-0.51
		c-0.7,0.06-1.28,0.35-1.72,0.88c-0.85,0.97-1.79,1.8-2.84,2.51c-1.05,0.7-2.17,1.24-3.38,1.6s-2.46,0.54-3.75,0.54
		c-3.66,0-6.8-1.37-9.42-4.11c-2.62-2.74-3.93-6.04-3.93-9.91c0-3.87,1.31-7.17,3.93-9.9c2.62-2.74,5.76-4.11,9.42-4.11
		c3.75,0,6.93,1.39,9.54,4.17c0.48,0.52,1.06,0.81,1.72,0.85c0.67,0.04,1.26-0.16,1.78-0.6l2.11-1.63c0.6-0.48,0.93-1.11,0.97-1.87
		c0.08-0.76-0.14-1.43-0.66-1.99c-2.05-2.13-4.41-3.77-7.07-4.92c-2.66-1.15-5.46-1.72-8.4-1.72c-3.87,0-7.44,0.97-10.72,2.9
		c-3.28,1.93-5.88,4.57-7.79,7.91c-1.91,3.34-2.87,6.99-2.87,10.93c0,3.95,0.96,7.59,2.87,10.93c1.91,3.34,4.51,5.98,7.79,7.91
		c3.28,1.93,6.85,2.9,10.72,2.9c3.06,0,5.99-0.64,8.79-1.9c2.8-1.27,5.22-3.07,7.28-5.41c0.44-0.56,0.64-1.21,0.6-1.93
		c-0.08-0.73-0.42-1.33-1.03-1.81L541.59,126.51L541.59,126.51z M569.89,94.75c-0.58,0-1,0.26-1.24,0.79l-17.7,39.14
		c-0.52,1.17-0.3,2.19,0.67,3.08c0.48,0.48,1.13,0.72,1.93,0.72h2.54c1.21,0,2.05-0.56,2.54-1.69l1.75-4.17
		c0.08-0.28,0.26-0.42,0.54-0.42h17.94c0.24,0,0.42,0.14,0.54,0.42l1.75,4.17c0.44,1.13,1.29,1.69,2.54,1.69h2.48
		c0.81,0,1.47-0.24,1.99-0.72c0.93-0.89,1.15-1.91,0.66-3.08l-17.7-39.14C570.88,95.01,570.47,94.75,569.89,94.75L569.89,94.75z
		 M564.24,124.7c-0.16,0-0.27-0.06-0.33-0.18c-0.06-0.12-0.07-0.24-0.03-0.36l5.62-13.11c0.08-0.16,0.2-0.24,0.36-0.24
		s0.26,0.08,0.3,0.24l5.68,13.11c0.08,0.12,0.08,0.24,0,0.36c-0.08,0.12-0.18,0.18-0.3,0.18H564.24L564.24,124.7z M592.2,96.5
		c-0.72,0-1.34,0.25-1.84,0.76c-0.5,0.5-0.76,1.12-0.76,1.84v2.42c0,0.73,0.25,1.35,0.76,1.87c0.5,0.52,1.12,0.79,1.84,0.79h9.06
		c0.4,0,0.6,0.2,0.6,0.6v31.1c0,0.73,0.26,1.34,0.79,1.84c0.52,0.5,1.15,0.76,1.87,0.76h2.6c0.72,0,1.34-0.25,1.84-0.76
		c0.5-0.5,0.76-1.12,0.76-1.84v-31.1c0-0.4,0.2-0.6,0.6-0.6h9.06c0.72,0,1.35-0.26,1.87-0.79c0.52-0.52,0.79-1.15,0.79-1.87v-2.42
		c0-0.72-0.26-1.34-0.79-1.84c-0.52-0.5-1.15-0.76-1.87-0.76H592.2L592.2,96.5z M633.64,96.5c-0.72,0-1.34,0.25-1.84,0.76
		c-0.5,0.5-0.76,1.12-0.76,1.84v36.78c0,0.73,0.25,1.34,0.76,1.84c0.5,0.5,1.12,0.76,1.84,0.76h2.66c0.44,0,0.87-0.11,1.27-0.33
		c0.4-0.22,0.72-0.53,0.97-0.94c0.24-0.4,0.36-0.85,0.36-1.33V99.09c0-0.72-0.26-1.34-0.79-1.84c-0.52-0.5-1.13-0.76-1.81-0.76
		H633.64L633.64,96.5z M650.88,106.58c-1.95,3.34-2.93,6.99-2.93,10.93c0,3.95,0.98,7.59,2.93,10.93c1.95,3.34,4.6,5.98,7.94,7.91
		c3.34,1.93,6.98,2.9,10.9,2.9s7.56-0.97,10.9-2.9c3.34-1.93,5.99-4.57,7.94-7.91c1.95-3.34,2.93-6.99,2.93-10.93
		c0-3.95-0.98-7.59-2.93-10.93c-1.95-3.34-4.6-5.98-7.94-7.91c-3.34-1.93-6.98-2.9-10.9-2.9s-7.56,0.97-10.9,2.9
		C655.48,100.6,652.83,103.24,650.88,106.58L650.88,106.58z M669.69,131.53c-3.74,0-6.95-1.37-9.6-4.11
		c-2.66-2.74-3.99-6.04-3.99-9.91c0-3.87,1.33-7.17,3.99-9.9c2.66-2.74,5.86-4.11,9.6-4.11c3.74,0,6.95,1.37,9.63,4.11
		c2.68,2.74,4.02,6.04,4.02,9.9c0,3.87-1.34,7.17-4.02,9.91C676.65,130.16,673.44,131.53,669.69,131.53L669.69,131.53z
		 M726.23,96.56c-0.72,0-1.34,0.26-1.84,0.78c-0.5,0.52-0.76,1.15-0.76,1.87v20.66c0,0.24-0.13,0.42-0.39,0.54
		c-0.26,0.12-0.47,0.08-0.63-0.12l-23.13-24.4c-0.36-0.36-0.78-0.44-1.24-0.24c-0.46,0.2-0.69,0.54-0.69,1.03v39.14
		c0,0.73,0.25,1.35,0.76,1.87c0.5,0.52,1.12,0.79,1.84,0.79h2.6c0.73,0,1.35-0.26,1.87-0.79c0.52-0.52,0.79-1.15,0.79-1.87v-20.78
		c0-0.28,0.12-0.47,0.36-0.57c0.24-0.1,0.46-0.05,0.66,0.15l23.07,24.34c0.24,0.24,0.52,0.36,0.85,0.36c0.16,0,0.3-0.04,0.42-0.12
		c0.48-0.16,0.73-0.5,0.73-1.03V99.21c0-0.72-0.26-1.35-0.79-1.87c-0.52-0.52-1.15-0.78-1.87-0.78H726.23L726.23,96.56z"/>
	<path class="st1" d="M319.28,67.15c-0.55-0.39-1.17-0.56-1.86-0.5c-0.69,0.06-1.25,0.35-1.69,0.86c-0.83,0.95-1.76,1.77-2.78,2.46
		c-1.03,0.69-2.13,1.21-3.31,1.57c-1.18,0.35-2.41,0.53-3.67,0.53c-3.59,0-6.67-1.34-9.23-4.02c-2.57-2.68-3.85-5.92-3.85-9.7
		c0-3.79,1.28-7.02,3.85-9.7c2.56-2.68,5.64-4.02,9.23-4.02c3.67,0,6.79,1.36,9.35,4.08c0.47,0.51,1.04,0.79,1.69,0.83
		c0.65,0.04,1.23-0.16,1.75-0.59l2.07-1.6c0.59-0.47,0.91-1.08,0.95-1.83c0.08-0.75-0.14-1.4-0.65-1.95
		c-2.01-2.09-4.32-3.7-6.92-4.82c-2.6-1.12-5.35-1.69-8.23-1.69c-3.79,0-7.29,0.95-10.5,2.84c-3.21,1.89-5.76,4.48-7.63,7.75
		c-1.87,3.28-2.81,6.84-2.81,10.71c0,3.87,0.94,7.44,2.81,10.71c1.87,3.27,4.42,5.86,7.63,7.75c3.22,1.89,6.72,2.84,10.5,2.84
		c3,0,5.87-0.62,8.61-1.86c2.74-1.24,5.12-3.01,7.13-5.3c0.43-0.55,0.63-1.18,0.59-1.89c-0.08-0.71-0.41-1.3-1.01-1.77L319.28,67.15
		L319.28,67.15z M336.86,71.17c-0.28,0-0.5-0.09-0.68-0.27c-0.18-0.18-0.27-0.4-0.27-0.68V40.28c0-0.35-0.07-0.69-0.21-1.01
		c-0.14-0.32-0.33-0.59-0.56-0.83c-0.24-0.24-0.51-0.41-0.83-0.53c-0.32-0.12-0.63-0.18-0.95-0.18h-2.6c-0.71,0-1.31,0.25-1.81,0.74
		c-0.49,0.49-0.74,1.09-0.74,1.8v36.04c0,0.71,0.25,1.31,0.74,1.8c0.49,0.49,1.1,0.74,1.81,0.74h20.12c0.71,0,1.31-0.25,1.81-0.74
		c0.49-0.49,0.74-1.1,0.74-1.8v-2.54c0-0.71-0.25-1.32-0.74-1.84c-0.49-0.51-1.1-0.77-1.81-0.77H336.86L336.86,71.17z M362.21,47.62
		c-1.91,3.28-2.87,6.84-2.87,10.71c0,3.87,0.96,7.44,2.87,10.71c1.91,3.27,4.51,5.86,7.78,7.75c3.27,1.89,6.83,2.84,10.68,2.84
		c3.85,0,7.41-0.95,10.68-2.84c3.27-1.89,5.87-4.48,7.78-7.75c1.91-3.27,2.87-6.84,2.87-10.71c0-3.87-0.96-7.44-2.87-10.71
		c-1.91-3.27-4.51-5.86-7.78-7.75c-3.27-1.89-6.83-2.84-10.68-2.84c-3.85,0-7.41,0.95-10.68,2.84
		C366.72,41.76,364.13,44.35,362.21,47.62L362.21,47.62z M380.65,72.06c-3.67,0-6.8-1.34-9.41-4.02c-2.6-2.68-3.91-5.92-3.91-9.7
		c0-3.79,1.3-7.02,3.91-9.7c2.6-2.68,5.74-4.02,9.41-4.02c3.67,0,6.82,1.34,9.44,4.02c2.62,2.68,3.93,5.92,3.93,9.7
		c0,3.79-1.31,7.02-3.93,9.7C387.46,70.72,384.32,72.06,380.65,72.06L380.65,72.06z M434.61,37.74c-0.71,0-1.32,0.25-1.83,0.74
		c-0.51,0.49-0.77,1.09-0.77,1.8v24.2c0,2.01-0.71,3.73-2.13,5.15c-1.42,1.42-3.14,2.13-5.15,2.13h-2.07
		c-2.01,0-3.73-0.71-5.15-2.13c-1.42-1.42-2.13-3.14-2.13-5.15v-24.2c0-0.71-0.26-1.31-0.77-1.8c-0.51-0.49-1.12-0.74-1.83-0.74
		h-2.31c-0.67,0-1.26,0.25-1.78,0.74c-0.51,0.49-0.77,1.09-0.77,1.8v24.38c0,3.91,1.39,7.25,4.17,10.03s6.14,4.17,10.09,4.17h3.02
		c3.94,0,7.31-1.39,10.09-4.17c2.78-2.78,4.17-6.12,4.17-10.03V40.28c0-0.71-0.26-1.31-0.77-1.8c-0.51-0.49-1.12-0.74-1.83-0.74
		H434.61L434.61,37.74z M450.77,37.74c-0.67,0-1.26,0.25-1.78,0.74c-0.51,0.49-0.77,1.09-0.77,1.8v36.04c0,0.71,0.26,1.31,0.77,1.8
		c0.51,0.49,1.1,0.74,1.78,0.74h10.71c3.59,0,6.9-0.88,9.94-2.63c3.04-1.75,5.43-4.15,7.19-7.19c1.76-3.04,2.63-6.35,2.63-9.94v-1.6
		c0-3.59-0.88-6.9-2.63-9.94c-1.76-3.04-4.15-5.43-7.19-7.19c-3.04-1.75-6.35-2.63-9.94-2.63H450.77L450.77,37.74z M473.73,58.8
		c0,3.75-1.33,6.95-3.99,9.62c-2.66,2.66-5.87,3.99-9.62,3.99h-3.61c-0.39,0-0.59-0.22-0.59-0.65V44.84c0-0.43,0.2-0.65,0.59-0.65
		h2.66c4.02,0,7.46,1.42,10.3,4.26c2.84,2.84,4.26,6.27,4.26,10.3V58.8L473.73,58.8z M515.02,54.78c-2.13-0.87-3.65-1.58-4.56-2.13
		c-3.08-1.81-4.36-3.65-3.85-5.5c0.28-0.87,0.81-1.62,1.6-2.25c0.79-0.63,1.5-0.97,2.13-1.01c1.58-0.08,2.81,0.02,3.7,0.3
		c0.89,0.28,1.9,0.95,3.05,2.01c0.47,0.43,1.03,0.66,1.66,0.68c0.63,0.02,1.2-0.15,1.72-0.5l1.6-1.24c0.63-0.47,0.97-1.11,1.01-1.92
		c0.04-0.81-0.24-1.49-0.83-2.04c-3.16-3-7.1-4.5-11.84-4.5c-2.41,0-4.6,0.78-6.57,2.34c-1.97,1.56-3.31,3.6-4.02,6.12
		c-0.43,1.38-0.58,2.7-0.44,3.96c0.14,1.26,0.39,2.39,0.77,3.37c0.37,0.99,0.94,1.92,1.69,2.81c0.75,0.89,1.5,1.64,2.25,2.25
		c0.75,0.61,1.58,1.17,2.48,1.69c1.22,0.75,3.08,1.64,5.56,2.66c2.84,1.14,4.67,2.09,5.5,2.84c0.83,0.75,1.16,1.87,1.01,3.37
		c-0.08,1.03-0.38,1.9-0.92,2.63c-0.53,0.73-1.18,1.23-1.95,1.51c-0.77,0.28-1.42,0.46-1.95,0.56c-0.53,0.1-1.06,0.15-1.57,0.15
		c-3.12,0-5.9-1.42-8.34-4.26c-0.44-0.51-0.99-0.81-1.66-0.89c-0.67-0.08-1.28,0.06-1.84,0.41l-1.54,1.12
		c-0.63,0.43-0.99,1.01-1.07,1.72c-0.12,0.75,0.04,1.42,0.47,2.01c0.99,1.3,2.07,2.43,3.26,3.37c1.18,0.95,2.23,1.65,3.14,2.1
		c0.91,0.45,1.93,0.8,3.08,1.04c1.14,0.24,1.98,0.37,2.52,0.41c0.53,0.04,1.17,0.06,1.92,0.06c0.83,0,1.76-0.09,2.78-0.27
		c1.03-0.18,2.18-0.53,3.46-1.06c1.28-0.53,2.46-1.19,3.52-1.98c1.07-0.79,2-1.87,2.81-3.25c0.81-1.38,1.31-2.96,1.51-4.73
		c0.12-1.22,0.08-2.39-0.12-3.49c-0.2-1.1-0.47-2.05-0.83-2.84c-0.35-0.79-0.88-1.56-1.57-2.31c-0.69-0.75-1.32-1.35-1.89-1.8
		c-0.57-0.45-1.34-0.94-2.31-1.45c-0.97-0.51-1.71-0.88-2.22-1.09c-0.51-0.22-1.24-0.52-2.19-0.92L515.02,54.78L515.02,54.78z
		 M534.78,37.74c-0.71,0-1.31,0.25-1.81,0.74c-0.49,0.49-0.74,1.09-0.74,1.8v36.04c0,0.71,0.25,1.31,0.74,1.8
		c0.49,0.49,1.1,0.74,1.81,0.74h21.36c0.71,0,1.32-0.25,1.83-0.74c0.51-0.49,0.77-1.1,0.77-1.8v-2.54c0-0.71-0.26-1.32-0.77-1.84
		c-0.51-0.51-1.12-0.77-1.83-0.77h-15.62c-0.39,0-0.59-0.2-0.59-0.59v-4.32c0-0.39,0.2-0.59,0.59-0.59h11.89
		c0.71,0,1.32-0.25,1.83-0.74c0.51-0.49,0.77-1.09,0.77-1.8v-2.54c0-0.71-0.26-1.32-0.77-1.83c-0.51-0.51-1.12-0.77-1.83-0.77
		h-11.89c-0.39,0-0.59-0.2-0.59-0.59V46.02c0-0.39,0.2-0.59,0.59-0.59h15.62c0.71,0,1.32-0.26,1.83-0.77
		c0.51-0.51,0.77-1.12,0.77-1.83v-2.54c0-0.71-0.26-1.31-0.77-1.8c-0.51-0.49-1.12-0.74-1.83-0.74H534.78L534.78,37.74z
		 M567.15,37.74c-0.71,0-1.31,0.25-1.8,0.74c-0.49,0.49-0.74,1.09-0.74,1.8v36.04c0,0.71,0.25,1.31,0.74,1.8
		c0.49,0.49,1.09,0.74,1.8,0.74h2.55c0.71,0,1.32-0.25,1.83-0.74c0.51-0.49,0.77-1.1,0.77-1.8v-6.1c0-0.39,0.2-0.59,0.59-0.59h4.08
		c0.28,0,0.55,0,0.83,0c0.24,0,0.41,0.08,0.53,0.24l5.62,7.93c0.51,0.71,1.2,1.07,2.07,1.07h3.14c0.91,0,1.62-0.32,2.13-0.95
		c0.79-1.03,0.81-2.05,0.06-3.08l-5.21-7.34c-0.2-0.36-0.14-0.63,0.18-0.83c2.09-1.5,3.72-3.39,4.88-5.68
		c1.16-2.29,1.75-4.71,1.75-7.28v-0.77c0-4.18-1.49-7.76-4.47-10.74c-2.98-2.98-6.58-4.47-10.8-4.47H567.15L567.15,37.74z
		 M585.26,54.13c0,2.37-0.85,4.4-2.54,6.1c-1.7,1.7-3.73,2.54-6.09,2.54h-3.73c-0.39,0-0.59-0.2-0.59-0.59V45.19
		c0-0.39,0.2-0.59,0.59-0.59h4.14c2.29,0,4.23,0.81,5.83,2.43c1.6,1.62,2.4,3.55,2.4,5.8V54.13L585.26,54.13z M631.12,37.8
		c-1.22,0-2.05,0.55-2.48,1.66l-4.5,10.83l-6.04,13.08c-0.08,0.24-0.25,0.36-0.5,0.36c-0.26,0-0.44-0.12-0.56-0.36l-5.98-13.08
		l-4.5-10.83c-0.47-1.1-1.32-1.66-2.54-1.66h-2.43c-0.79,0-1.42,0.24-1.89,0.71c-0.95,0.87-1.16,1.89-0.65,3.08l17.52,38.94
		c0.2,0.43,0.54,0.65,1.03,0.65c0.49,0,0.84-0.22,1.04-0.65l17.46-38.94c0.51-1.18,0.32-2.21-0.59-3.08
		c-0.51-0.47-1.16-0.71-1.95-0.71H631.12L631.12,37.8z M647.75,37.74c-0.71,0-1.31,0.25-1.8,0.74c-0.49,0.49-0.74,1.09-0.74,1.8
		v36.04c0,0.71,0.25,1.31,0.74,1.8c0.49,0.49,1.09,0.74,1.8,0.74h2.6c0.43,0,0.85-0.11,1.24-0.33c0.39-0.22,0.71-0.52,0.95-0.92
		c0.24-0.39,0.36-0.83,0.36-1.3V40.28c0-0.71-0.26-1.31-0.77-1.8c-0.51-0.49-1.1-0.74-1.78-0.74H647.75L647.75,37.74z M696.03,67.15
		c-0.55-0.39-1.17-0.56-1.86-0.5c-0.69,0.06-1.25,0.35-1.69,0.86c-0.83,0.95-1.76,1.77-2.78,2.46c-1.03,0.69-2.13,1.21-3.31,1.57
		c-1.18,0.35-2.41,0.53-3.67,0.53c-3.59,0-6.67-1.34-9.23-4.02c-2.56-2.68-3.85-5.92-3.85-9.7c0-3.79,1.28-7.02,3.85-9.7
		c2.56-2.68,5.64-4.02,9.23-4.02c3.67,0,6.78,1.36,9.35,4.08c0.47,0.51,1.04,0.79,1.69,0.83c0.65,0.04,1.23-0.16,1.75-0.59l2.07-1.6
		c0.59-0.47,0.91-1.08,0.95-1.83c0.08-0.75-0.14-1.4-0.65-1.95c-2.01-2.09-4.32-3.7-6.92-4.82s-5.35-1.69-8.22-1.69
		c-3.79,0-7.29,0.95-10.5,2.84c-3.22,1.89-5.76,4.48-7.63,7.75c-1.87,3.28-2.81,6.84-2.81,10.71c0,3.87,0.94,7.44,2.81,10.71
		c1.87,3.27,4.42,5.86,7.63,7.75c3.22,1.89,6.72,2.84,10.5,2.84c3,0,5.87-0.62,8.61-1.86c2.74-1.24,5.12-3.01,7.13-5.3
		c0.43-0.55,0.63-1.18,0.59-1.89c-0.08-0.71-0.41-1.3-1.01-1.77L696.03,67.15L696.03,67.15z M707.51,37.74
		c-0.71,0-1.31,0.25-1.81,0.74c-0.49,0.49-0.74,1.09-0.74,1.8v36.04c0,0.71,0.25,1.31,0.74,1.8c0.49,0.49,1.09,0.74,1.81,0.74h21.36
		c0.71,0,1.32-0.25,1.83-0.74c0.51-0.49,0.77-1.1,0.77-1.8v-2.54c0-0.71-0.26-1.32-0.77-1.84c-0.51-0.51-1.12-0.77-1.83-0.77h-15.62
		c-0.4,0-0.59-0.2-0.59-0.59v-4.32c0-0.39,0.2-0.59,0.59-0.59h11.89c0.71,0,1.32-0.25,1.83-0.74c0.51-0.49,0.77-1.09,0.77-1.8v-2.54
		c0-0.71-0.26-1.32-0.77-1.83c-0.51-0.51-1.12-0.77-1.83-0.77h-11.89c-0.4,0-0.59-0.2-0.59-0.59V46.02c0-0.39,0.2-0.59,0.59-0.59
		h15.62c0.71,0,1.32-0.26,1.83-0.77c0.51-0.51,0.77-1.12,0.77-1.83v-2.54c0-0.71-0.26-1.31-0.77-1.8c-0.51-0.49-1.12-0.74-1.83-0.74
		H707.51L707.51,37.74z"/>
</g>
</svg>
