<?xml version="1.0" encoding="utf-8"?>
<!-- Generator: Adobe Illustrator 24.1.0, SVG Export Plug-In . SVG Version: 6.00 Build 0)  -->
<svg version="1.1" id="Layer_1" xmlns="http://www.w3.org/2000/svg" xmlns:xlink="http://www.w3.org/1999/xlink" x="0px" y="0px"
	 viewBox="0 0 533.72 108.35" style="enable-background:new 0 0 533.72 108.35;" xml:space="preserve">
<style type="text/css">
	.st0{fill:#FFFFFF;}
</style>
<g>
	<path class="st0" d="M115.21,92.45V82.11h7.86c2.02,0,3.59,0.43,4.7,1.3c1.11,0.86,1.67,2.13,1.67,3.8v0.09
		c0,1.58-0.57,2.84-1.71,3.76c-1.14,0.92-2.68,1.39-4.61,1.39H115.21L115.21,92.45z M109.86,107.91h5.34V97.23h6.68h0.09l7.56,10.69
		h6.35L127.6,96.3c1.08-0.29,2.07-0.71,2.96-1.25c0.89-0.54,1.66-1.2,2.3-1.97c0.64-0.77,1.15-1.66,1.51-2.67
		c0.37-1.01,0.55-2.14,0.55-3.39v-0.09c0-1.34-0.22-2.57-0.66-3.68c-0.44-1.11-1.07-2.09-1.88-2.93c-0.99-0.96-2.23-1.72-3.72-2.26
		c-1.49-0.54-3.2-0.81-5.12-0.81h-13.67V107.91L109.86,107.91z M148.71,107.91h22.91v-4.86h-17.56v-8.19h15.37V90h-15.37v-7.88
		h17.35v-4.86h-22.69V107.91L148.71,107.91z M193.26,95.74l5.26-12.26l5.3,12.26H193.26L193.26,95.74z M182.61,107.91h5.52l3.15-7.4
		h14.5l3.11,7.4h5.69L201.1,77.03h-4.99L182.61,107.91L182.61,107.91z M232.37,103.05V82.11h6.04c1.61,0,3.07,0.26,4.38,0.79
		s2.43,1.25,3.35,2.18c0.92,0.92,1.64,2.03,2.15,3.32c0.51,1.29,0.77,2.68,0.77,4.18v0.09c0,1.49-0.26,2.88-0.77,4.16
		c-0.51,1.28-1.23,2.38-2.15,3.3c-0.92,0.92-2.04,1.64-3.35,2.16c-1.31,0.51-2.77,0.77-4.38,0.77H232.37L232.37,103.05z
		 M227.03,107.91h11.43c2.39,0,4.59-0.39,6.59-1.18c2-0.79,3.72-1.87,5.17-3.24c1.45-1.37,2.56-2.99,3.35-4.86
		c0.79-1.87,1.18-3.88,1.18-6.05v-0.09c0-2.16-0.39-4.17-1.18-6.02c-0.79-1.85-1.9-3.47-3.35-4.84c-1.45-1.37-3.17-2.45-5.17-3.22
		c-2-0.77-4.2-1.16-6.59-1.16h-11.43V107.91L227.03,107.91z M268.77,107.91h5.34V77.25h-5.34V107.91L268.77,107.91z M289.53,107.91
		h5.34V86.1l16.87,21.81h4.5V77.25h-5.34v21.2l-16.39-21.2h-4.98V107.91L289.53,107.91z M331.31,107.91h22.91v-4.86h-17.56v-8.19
		h15.37V90h-15.37v-7.88H354v-4.86h-22.69V107.91L331.31,107.91z M383.04,107.74c1.34-0.41,2.49-1.01,3.44-1.8
		c0.95-0.79,1.7-1.75,2.24-2.89c0.54-1.14,0.8-2.42,0.8-3.85v-0.09c0-1.26-0.21-2.36-0.64-3.31c-0.42-0.95-1.05-1.78-1.87-2.5
		c-0.82-0.71-1.85-1.32-3.1-1.82c-1.24-0.5-2.67-0.95-4.28-1.36c-1.46-0.35-2.67-0.68-3.62-1.01c-0.95-0.32-1.7-0.66-2.24-1.03
		c-0.54-0.37-0.91-0.77-1.12-1.23c-0.21-0.45-0.31-0.97-0.31-1.55v-0.09c0-1.02,0.44-1.88,1.31-2.58c0.88-0.7,2.1-1.05,3.68-1.05
		c1.4,0,2.79,0.27,4.16,0.81c1.37,0.54,2.76,1.32,4.16,2.34l2.89-4.07c-1.58-1.26-3.26-2.21-5.06-2.87
		c-1.8-0.66-3.82-0.99-6.07-0.99c-1.52,0-2.92,0.22-4.2,0.66c-1.28,0.44-2.38,1.04-3.29,1.82c-0.91,0.77-1.63,1.71-2.15,2.8
		c-0.52,1.09-0.78,2.3-0.78,3.61v0.09c0,1.4,0.23,2.6,0.68,3.59c0.45,0.99,1.11,1.83,1.98,2.52c0.86,0.69,1.93,1.27,3.2,1.75
		c1.27,0.48,2.73,0.91,4.37,1.29c1.44,0.32,2.6,0.64,3.49,0.96c0.89,0.32,1.6,0.67,2.11,1.05c0.51,0.38,0.86,0.78,1.05,1.21
		c0.19,0.42,0.29,0.91,0.29,1.47v0.09c0,1.17-0.49,2.1-1.47,2.8c-0.98,0.7-2.3,1.05-3.96,1.05c-1.93,0-3.65-0.34-5.17-1.03
		c-1.52-0.69-3.02-1.67-4.51-2.96l-3.24,3.86c1.84,1.66,3.84,2.9,6,3.7c2.16,0.8,4.42,1.2,6.79,1.2
		C380.22,108.35,381.69,108.15,383.04,107.74L383.04,107.74z M418.25,107.74c1.34-0.41,2.49-1.01,3.45-1.8
		c0.95-0.79,1.7-1.75,2.24-2.89c0.54-1.14,0.8-2.42,0.8-3.85v-0.09c0-1.26-0.21-2.36-0.64-3.31c-0.42-0.95-1.05-1.78-1.87-2.5
		c-0.82-0.71-1.85-1.32-3.1-1.82c-1.24-0.5-2.67-0.95-4.28-1.36c-1.46-0.35-2.67-0.68-3.62-1.01c-0.95-0.32-1.7-0.66-2.24-1.03
		c-0.54-0.37-0.91-0.77-1.12-1.23c-0.21-0.45-0.31-0.97-0.31-1.55v-0.09c0-1.02,0.44-1.88,1.31-2.58c0.88-0.7,2.1-1.05,3.68-1.05
		c1.4,0,2.79,0.27,4.16,0.81c1.37,0.54,2.76,1.32,4.16,2.34l2.89-4.07c-1.58-1.26-3.26-2.21-5.06-2.87
		c-1.8-0.66-3.82-0.99-6.07-0.99c-1.52,0-2.92,0.22-4.2,0.66c-1.28,0.44-2.38,1.04-3.29,1.82c-0.91,0.77-1.63,1.71-2.15,2.8
		c-0.52,1.09-0.78,2.3-0.78,3.61v0.09c0,1.4,0.23,2.6,0.68,3.59c0.45,0.99,1.11,1.83,1.98,2.52c0.86,0.69,1.93,1.27,3.2,1.75
		c1.27,0.48,2.73,0.91,4.37,1.29c1.43,0.32,2.6,0.64,3.49,0.96c0.89,0.32,1.6,0.67,2.11,1.05c0.51,0.38,0.86,0.78,1.05,1.21
		c0.19,0.42,0.28,0.91,0.28,1.47v0.09c0,1.17-0.49,2.1-1.47,2.8c-0.98,0.7-2.3,1.05-3.96,1.05c-1.93,0-3.65-0.34-5.17-1.03
		c-1.52-0.69-3.02-1.67-4.51-2.96l-3.24,3.86c1.84,1.66,3.84,2.9,6,3.7c2.16,0.8,4.42,1.2,6.79,1.2
		C415.43,108.35,416.91,108.15,418.25,107.74L418.25,107.74z"/>
	<path class="st0" d="M24.99,44.14c-1.81-0.85-3.36-1.98-4.65-3.41c-1.29-1.42-2.29-3.07-3.01-4.93c-0.71-1.86-1.07-3.83-1.07-5.91
		v-0.16c0-2.08,0.34-4.05,1.03-5.91c0.69-1.86,1.67-3.49,2.96-4.89c1.29-1.4,2.83-2.5,4.61-3.33c1.78-0.82,3.77-1.23,5.97-1.23
		c2.2,0,4.2,0.42,6.01,1.27c1.81,0.85,3.38,1.99,4.69,3.41c1.32,1.42,2.33,3.07,3.05,4.93c0.71,1.86,1.07,3.83,1.07,5.91v0.16
		c0,2.08-0.36,4.05-1.07,5.91c-0.71,1.86-1.7,3.49-2.96,4.89c-1.26,1.4-2.8,2.5-4.61,3.33C35.2,45,33.2,45.42,31,45.42
		C28.81,45.42,26.8,44.99,24.99,44.14L24.99,44.14z M43.2,57.45c3.78-1.56,7.06-3.7,9.85-6.41c2.79-2.71,4.97-5.88,6.53-9.53
		c1.56-3.64,2.34-7.51,2.34-11.62v-0.16c0-4.11-0.78-7.97-2.34-11.58c-1.56-3.61-3.71-6.76-6.45-9.44c-2.74-2.68-6-4.8-9.77-6.36
		C39.58,0.78,35.48,0,31.04,0c-4.43,0-8.54,0.78-12.32,2.34c-3.78,1.56-7.06,3.7-9.85,6.41c-2.79,2.71-4.97,5.89-6.53,9.53
		C0.78,21.91,0,25.79,0,29.89v0.16c0,4.11,0.78,7.97,2.34,11.58c1.56,3.61,3.71,6.76,6.45,9.44c2.74,2.68,6,4.8,9.77,6.36
		c3.78,1.56,7.88,2.34,12.32,2.34C35.31,59.79,39.42,59.01,43.2,57.45L43.2,57.45z M90.15,45.83c-1.09-0.49-2.04-1.19-2.86-2.09
		c-0.82-0.9-1.46-1.97-1.92-3.2c-0.46-1.23-0.7-2.59-0.7-4.07V36.3c0-1.48,0.23-2.82,0.7-4.02c0.46-1.2,1.1-2.26,1.92-3.16
		c0.82-0.9,1.77-1.6,2.86-2.09c1.09-0.49,2.26-0.74,3.52-0.74c2.56,0,4.72,0.93,6.46,2.79c1.74,1.86,2.62,4.27,2.62,7.23v0.16
		c0,3.01-0.87,5.45-2.62,7.31c-1.74,1.86-3.9,2.79-6.46,2.79C92.41,46.56,91.24,46.32,90.15,45.83L90.15,45.83z M69.31,71.78H85
		V53.22c0.71,0.82,1.5,1.63,2.37,2.42c0.87,0.79,1.86,1.48,2.95,2.05c1.09,0.57,2.31,1.04,3.65,1.4c1.34,0.36,2.85,0.53,4.55,0.53
		c2.62,0,5.12-0.53,7.49-1.6c2.38-1.07,4.45-2.6,6.23-4.6c1.77-2,3.2-4.43,4.26-7.31c1.07-2.87,1.6-6.12,1.6-9.73v-0.16
		c0-3.56-0.53-6.76-1.6-9.61c-1.06-2.85-2.5-5.26-4.3-7.23c-1.8-1.97-3.89-3.49-6.27-4.56c-2.38-1.07-4.88-1.6-7.49-1.6
		c-1.64,0-3.13,0.19-4.46,0.57c-1.34,0.38-2.54,0.89-3.6,1.52c-1.07,0.63-2.04,1.36-2.91,2.18c-0.87,0.82-1.69,1.7-2.46,2.63v-5.91
		H69.31V71.78L69.31,71.78z M137.8,32.77c0.44-2.46,1.31-4.42,2.63-5.87c1.31-1.45,3.01-2.18,5.09-2.18c2.14,0,3.89,0.73,5.26,2.18
		c1.37,1.45,2.19,3.41,2.46,5.87H137.8L137.8,32.77z M158.21,57.24c3.15-1.64,5.79-3.83,7.93-6.57l-8.62-7.14
		c-1.59,1.59-3.16,2.74-4.72,3.45c-1.56,0.71-3.27,1.07-5.13,1.07c-2.46,0-4.53-0.6-6.2-1.81c-1.67-1.2-2.81-3.04-3.41-5.5h29.73
		c0.05-0.55,0.08-1.09,0.08-1.64c0-0.55,0-1.07,0-1.56c0-3.28-0.45-6.39-1.36-9.32c-0.9-2.93-2.27-5.5-4.11-7.72
		c-1.84-2.22-4.16-3.98-6.98-5.3c-2.82-1.31-6.15-1.97-9.98-1.97c-3.29,0-6.3,0.6-9.03,1.81c-2.74,1.2-5.11,2.86-7.1,4.97
		c-2,2.11-3.55,4.57-4.64,7.39c-1.1,2.82-1.64,5.84-1.64,9.07v0.16c0,3.45,0.59,6.6,1.77,9.44c1.18,2.85,2.82,5.27,4.93,7.27
		c2.11,2,4.61,3.56,7.51,4.68c2.9,1.12,6.1,1.68,9.61,1.68C151.27,59.7,155.06,58.88,158.21,57.24L158.21,57.24z M174.51,58.64
		h15.69V34.57c0-2.46,0.61-4.32,1.82-5.58c1.22-1.26,2.77-1.89,4.66-1.89c1.84,0,3.32,0.63,4.46,1.89c1.13,1.26,1.7,3.12,1.7,5.58
		v24.06h15.69V29.56c0-5.09-1.34-9.09-4-11.99c-2.67-2.9-6.4-4.35-11.19-4.35c-1.57,0-3,0.21-4.3,0.62c-1.3,0.41-2.49,0.94-3.57,1.6
		c-1.08,0.66-2.05,1.42-2.92,2.3c-0.87,0.88-1.65,1.78-2.35,2.71v-6.24h-15.69V58.64L174.51,58.64z M282.34,58.35
		c2.85-0.85,5.28-2.08,7.31-3.69c2.03-1.61,3.6-3.57,4.72-5.86c1.12-2.29,1.68-4.92,1.68-7.87v-0.16c0-2.68-0.49-4.99-1.48-6.93
		c-0.99-1.94-2.41-3.59-4.27-4.96c-1.86-1.37-4.12-2.53-6.77-3.49c-2.66-0.96-5.63-1.79-8.91-2.5c-1.97-0.44-3.6-0.86-4.89-1.27
		c-1.29-0.41-2.3-0.82-3.04-1.23c-0.74-0.41-1.26-0.86-1.56-1.35c-0.3-0.49-0.45-1.07-0.45-1.72v-0.16c0-1.04,0.48-1.91,1.44-2.62
		c0.96-0.71,2.4-1.07,4.31-1.07c2.57,0,5.24,0.48,8.01,1.44c2.76,0.96,5.46,2.37,8.09,4.23l7.97-11.29
		c-3.12-2.53-6.61-4.45-10.47-5.74c-3.86-1.29-8.25-1.94-13.18-1.94c-3.45,0-6.54,0.45-9.28,1.35c-2.74,0.9-5.08,2.17-7.02,3.81
		c-1.94,1.64-3.42,3.58-4.43,5.82c-1.01,2.24-1.52,4.7-1.52,7.38v0.16c0,2.95,0.56,5.43,1.68,7.42c1.12,2,2.65,3.66,4.6,5
		c1.94,1.34,4.23,2.43,6.86,3.28c2.63,0.85,5.47,1.63,8.54,2.34c1.97,0.44,3.57,0.86,4.81,1.27c1.23,0.41,2.22,0.83,2.96,1.27
		c0.74,0.44,1.24,0.89,1.52,1.35c0.27,0.46,0.41,1,0.41,1.6v0.16c0,1.26-0.56,2.23-1.68,2.91c-1.12,0.68-2.75,1.02-4.89,1.02
		c-6.68,0-12.89-2.3-18.64-6.9l-8.87,10.62c3.56,3.2,7.65,5.59,12.28,7.19c4.63,1.6,9.51,2.4,14.66,2.4
		C276.32,59.62,279.49,59.2,282.34,58.35L282.34,58.35z M321.93,45.59c-1.15-0.54-2.15-1.26-3-2.16c-0.85-0.9-1.51-1.94-1.97-3.13
		c-0.47-1.19-0.7-2.47-0.7-3.83V36.3c0-1.3,0.22-2.55,0.66-3.75c0.44-1.19,1.05-2.24,1.85-3.14c0.79-0.9,1.76-1.6,2.91-2.12
		c1.15-0.52,2.44-0.77,3.86-0.77c1.37,0,2.63,0.27,3.78,0.81c1.15,0.54,2.15,1.26,3,2.16c0.85,0.9,1.51,1.94,1.97,3.14
		s0.7,2.47,0.7,3.83v0.16c0,1.3-0.22,2.55-0.66,3.75c-0.44,1.19-1.05,2.24-1.85,3.14c-0.8,0.9-1.77,1.6-2.92,2.12
		c-1.15,0.52-2.44,0.77-3.86,0.77C324.33,46.4,323.08,46.13,321.93,45.59L321.93,45.59z M335.39,57.86c3.01-1.23,5.61-2.9,7.8-5.01
		c2.19-2.11,3.9-4.57,5.13-7.39c1.23-2.82,1.85-5.82,1.85-8.99V36.3c0-3.17-0.6-6.16-1.81-8.95c-1.2-2.79-2.9-5.23-5.09-7.31
		c-2.19-2.08-4.78-3.74-7.76-4.97c-2.98-1.23-6.26-1.85-9.81-1.85s-6.84,0.62-9.85,1.85c-3.01,1.23-5.61,2.9-7.8,5.01
		c-2.19,2.11-3.9,4.57-5.13,7.39c-1.23,2.82-1.85,5.82-1.85,8.99v0.16c0,3.18,0.6,6.16,1.81,8.95c1.2,2.79,2.9,5.24,5.09,7.35
		c2.19,2.11,4.78,3.76,7.76,4.97c2.98,1.2,6.25,1.81,9.81,1.81C329.1,59.7,332.38,59.09,335.39,57.86L335.39,57.86z M379.48,57.49
		c2.11-1.42,3.87-3.07,5.27-4.93v6.08h15.69V14.21h-15.69v24.06c0,2.46-0.61,4.33-1.82,5.58c-1.22,1.26-2.74,1.89-4.58,1.89
		c-1.89,0-3.41-0.63-4.54-1.89c-1.14-1.26-1.7-3.12-1.7-5.58V14.21h-15.69v29.07c0,5.09,1.33,9.09,4,11.99
		c2.67,2.9,6.4,4.35,11.19,4.35C374.75,59.62,377.37,58.91,379.48,57.49L379.48,57.49z M408.81,58.64h15.69v-13.8
		c0-5.15,1.09-8.92,3.29-11.33c2.19-2.41,5.34-3.61,9.44-3.61h1.31V13.47c-3.72-0.16-6.68,0.66-8.87,2.46
		c-2.19,1.81-3.91,4.22-5.17,7.23v-8.95h-15.69V58.64L408.81,58.64z M477.39,56.91c3.12-1.86,5.72-4.32,7.8-7.39l-10.43-7.56
		c-1.26,1.42-2.53,2.55-3.82,3.37c-1.29,0.82-2.86,1.23-4.72,1.23c-1.31,0-2.52-0.26-3.61-0.78c-1.1-0.52-2.03-1.23-2.79-2.14
		c-0.77-0.9-1.37-1.97-1.81-3.2c-0.44-1.23-0.66-2.56-0.66-3.98V36.3c0-1.37,0.22-2.64,0.66-3.82c0.44-1.18,1.04-2.22,1.81-3.12
		c0.77-0.9,1.68-1.61,2.75-2.14c1.07-0.52,2.23-0.78,3.49-0.78c1.92,0,3.5,0.41,4.76,1.23c1.26,0.82,2.44,1.97,3.53,3.45l10.59-7.88
		c-1.92-3.01-4.41-5.42-7.47-7.23c-3.07-1.81-6.9-2.71-11.5-2.71c-3.5,0-6.72,0.62-9.65,1.85c-2.93,1.23-5.43,2.9-7.51,5.01
		c-2.08,2.11-3.71,4.57-4.89,7.39c-1.18,2.82-1.77,5.79-1.77,8.91v0.16c0,3.12,0.59,6.09,1.77,8.91c1.18,2.82,2.79,5.27,4.85,7.35
		c2.05,2.08,4.5,3.74,7.35,4.97c2.85,1.23,5.94,1.85,9.28,1.85C470.27,59.7,474.27,58.77,477.39,56.91L477.39,56.91z M503.67,32.77
		c0.44-2.46,1.31-4.42,2.63-5.87c1.31-1.45,3.01-2.18,5.09-2.18c2.14,0,3.89,0.73,5.26,2.18c1.37,1.45,2.19,3.41,2.46,5.87H503.67
		L503.67,32.77z M524.07,57.24c3.15-1.64,5.79-3.83,7.93-6.57l-8.62-7.14c-1.59,1.59-3.16,2.74-4.72,3.45
		c-1.56,0.71-3.27,1.07-5.13,1.07c-2.46,0-4.53-0.6-6.2-1.81c-1.67-1.2-2.81-3.04-3.41-5.5h29.73c0.05-0.55,0.08-1.09,0.08-1.64
		c0-0.55,0-1.07,0-1.56c0-3.28-0.45-6.39-1.35-9.32c-0.9-2.93-2.27-5.5-4.11-7.72c-1.84-2.22-4.16-3.98-6.98-5.3
		s-6.15-1.97-9.98-1.97c-3.28,0-6.3,0.6-9.03,1.81c-2.74,1.2-5.1,2.86-7.1,4.97c-2,2.11-3.55,4.57-4.64,7.39
		c-1.1,2.82-1.64,5.84-1.64,9.07v0.16c0,3.45,0.59,6.6,1.77,9.44c1.18,2.85,2.82,5.27,4.93,7.27c2.11,2,4.61,3.56,7.52,4.68
		c2.9,1.12,6.1,1.68,9.61,1.68C517.13,59.7,520.92,58.88,524.07,57.24L524.07,57.24z"/>
</g>
</svg>
