<?xml version="1.0" standalone="no"?>
<!DOCTYPE svg PUBLIC "-//W3C//DTD SVG 20010904//EN"
 "http://www.w3.org/TR/2001/REC-SVG-20010904/DTD/svg10.dtd">
<svg version="1.0" xmlns="http://www.w3.org/2000/svg"
 width="317.000000pt" height="317.000000pt" viewBox="0 0 317.000000 317.000000"
 preserveAspectRatio="xMidYMid meet">
<metadata>
Created by potrace 1.11, written by Peter Selinger 2001-2013
</metadata>
<g transform="translate(0.000000,317.000000) scale(0.100000,-0.100000)"
fill="#000000" stroke="none">
<path d="M2270 3088 c-135 -44 -364 -118 -510 -165 -146 -46 -283 -91 -305
-98 -22 -8 -141 -46 -265 -86 -124 -39 -299 -95 -390 -125 l-165 -54 0 -376
c0 -327 2 -377 15 -384 9 -5 166 -57 350 -115 184 -59 339 -110 343 -114 4 -4
-12 -13 -35 -20 -38 -11 -471 -150 -618 -198 l-55 -18 0 -668 0 -667 367 0
368 0 1 48 c0 26 1 210 1 409 l0 361 146 47 c81 25 208 66 282 90 74 24 230
73 345 110 116 37 248 79 295 94 l85 27 3 382 2 381 -222 71 c-123 39 -252 81
-288 93 -36 12 -67 22 -70 22 -29 7 -118 37 -130 45 -13 9 -13 10 0 10 8 0
110 31 225 68 116 38 272 88 348 112 l137 44 0 378 c0 208 -3 378 -7 377 -5
-1 -118 -37 -253 -81z"/>
</g>
</svg>
