<?xml version="1.0" encoding="utf-8"?>
<!-- Generator: Adobe Illustrator 27.0.0, SVG Export Plug-In . SVG Version: 6.00 Build 0)  -->
<svg version="1.1" id="Layer_1" xmlns="http://www.w3.org/2000/svg" xmlns:xlink="http://www.w3.org/1999/xlink" x="0px" y="0px"
	 viewBox="0 0 720 135.3" style="enable-background:new 0 0 720 135.3;" xml:space="preserve">
<g>
	<path d="M156.8,20.2v-8.4L92.3,0L92,0L0.5,34.9L0,35.1v7.4l6.5,2.2v68l10,3.5l7.7-6.3V64.2l39.3,13.3v54.4l10,3.5l7.7-6.2V77.9
		l9.2-5.4V79l8.3,3l6.4-5.2V63.8l31.6-18.7v48.1l8.3,3l6.4-5.2V23.2L156.8,20.2L156.8,20.2z M138.3,44.3l3.2-1.9V28.9L150,24v66.2
		l-5.2,4.3l-6.5-2.3V44.3L138.3,44.3z M92,71.6l11.7-6.9V76l-5.2,4.3L92,77.9V71.6L92,71.6z M81.3,63l57.8-32.8v0l0.3-0.2l0.6-0.3
		v11.8L81.3,76.2V63L81.3,63z M65.1,64l9.2,3l5.6-3.2v64.5l-6.6,5.3l-8.2-2.9V64L65.1,64z M19.4,61V48.9l44.2,14.6v12.3L19.4,61
		L19.4,61z M8,45.1l9.9,3.3V62l4.8,1.6v45.6l-6.6,5.3L8,111.7V45.1L8,45.1z M155.3,19.3L74.1,65.5l-72.6-24v-5.3L92.2,1.5L155.3,13
		V19.3L155.3,19.3z"/>
	<path d="M223.5,60.5c1.4-0.9,2.7-1.4,3.7-1.4c0.5,0,1.5,0.4,2.8,1.1c1.3,0.7,2.5,1.1,3.5,1.1c1.4,0,2.5-0.4,3.4-1.2
		c0.9-0.8,1.3-1.8,1.3-3.1c0-1.6-0.6-2.9-1.9-3.9c-1.3-1-3-1.4-5.1-1.4c-2.4,0-4.6,0.5-6.7,1.6c-2.1,1.1-4.3,2.9-6.7,5.4v-4.8
		c0-0.4-0.2-0.8-0.5-1c-0.3-0.2-0.8-0.4-1.4-0.4h-7c-1.5,0-2.6,0.3-3.2,0.8c-0.6,0.5-0.9,1.4-0.9,2.7c0,1.3,0.3,2.2,0.9,2.7
		c0.6,0.6,1.7,0.8,3.2,0.8h1.4v15.8h-2.5c-1.5,0-2.6,0.3-3.2,0.8c-0.6,0.5-0.9,1.4-0.9,2.7c0,1.3,0.3,2.2,0.9,2.8
		c0.6,0.6,1.7,0.8,3.2,0.8h18.3c1.5,0,2.5-0.3,3.2-0.8c0.6-0.6,0.9-1.5,0.9-2.8c0-1.3-0.3-2.2-0.9-2.7c-0.6-0.5-1.7-0.8-3.2-0.8
		h-7.7V64.8C220.4,62.8,222.1,61.4,223.5,60.5L223.5,60.5z M272.4,69.3c1.9,0,3.2-0.2,3.8-0.7c0.6-0.5,0.9-1.4,0.9-2.6
		c0-4-1.6-7.4-4.7-10.1c-3.1-2.8-7-4.1-11.7-4.1c-5.3,0-9.6,1.5-12.9,4.4c-3.3,2.9-5,6.7-5,11.3c0,4.6,1.7,8.4,5,11.4
		c3.3,2.9,7.6,4.4,12.9,4.4c4.5,0,8.2-0.7,11.3-2.2c3-1.5,4.6-3.2,4.6-5.3c0-0.9-0.3-1.7-0.8-2.3c-0.5-0.6-1.2-0.9-2-0.9
		c-0.5,0-2.1,0.7-4.8,2c-2.6,1.3-5.3,2-8,2c-2.7,0-4.9-0.6-6.5-1.8c-1.6-1.2-2.7-3-3.3-5.4H272.4L272.4,69.3z M251.3,64.3
		c0.6-2.1,1.6-3.7,3-4.8c1.5-1,3.4-1.6,5.7-1.6c2.5,0,4.5,0.6,6,1.7c1.5,1.1,2.5,2.7,2.9,4.7H251.3L251.3,64.3z M304.4,60.8
		c1.4,1.5,2.1,3.5,2.1,5.9c0,2.3-0.7,4.3-2.1,5.8c-1.4,1.5-3.2,2.3-5.4,2.3c-2.1,0-3.9-0.8-5.3-2.3c-1.4-1.5-2.1-3.5-2.1-5.8
		c0-2.4,0.7-4.3,2.1-5.9c1.4-1.5,3.2-2.3,5.3-2.3C301.2,58.5,303,59.2,304.4,60.8L304.4,60.8z M303.3,52.6c-1.5-0.6-3.2-0.9-5.2-0.9
		c-4.5,0-8.3,1.4-11.2,4.3c-2.9,2.8-4.4,6.4-4.4,10.8c0,4.3,1.4,7.8,4.2,10.5c2.8,2.7,6.4,4.1,10.8,4.1c1.6,0,3.2-0.2,4.7-0.6
		c1.5-0.4,3.1-1.1,4.6-2v1.5c0,3-0.6,5.1-1.8,6.3c-1.2,1.2-3.3,1.8-6.5,1.8c-1.4,0-2.8-0.1-4.4-0.3c-1.6-0.2-2.5-0.3-2.8-0.3
		c-1.1,0-2,0.3-2.7,1c-0.7,0.6-1,1.5-1,2.5c0,1.5,0.8,2.6,2.5,3.3c1.7,0.7,4.3,1,7.8,1c5.7,0,9.9-1.1,12.5-3.2
		c2.6-2.1,3.9-5.6,3.9-10.3V59.5h0.6c1.2,0,2-0.3,2.6-0.9c0.6-0.6,0.9-1.5,0.9-2.7c0-1.3-0.3-2.2-0.9-2.7c-0.6-0.6-1.7-0.8-3.2-0.8
		h-5.3c-0.6,0-1.1,0.1-1.4,0.3c-0.3,0.2-0.5,0.6-0.5,1v1.7C306.1,54.1,304.8,53.2,303.3,52.6L303.3,52.6z M345.9,68.9
		c0,2.2-0.6,3.9-1.8,5.2c-1.2,1.3-2.7,2-4.5,2c-1.7,0-2.9-0.5-3.7-1.6c-0.7-1.1-1.1-3-1.1-5.6V53.8c0-0.4-0.2-0.8-0.5-1
		c-0.3-0.2-0.8-0.4-1.3-0.4h-6.2c-1.5,0-2.6,0.3-3.2,0.8c-0.6,0.5-0.9,1.4-0.9,2.7c0,1.2,0.3,2.1,0.9,2.7c0.6,0.6,1.5,0.9,2.7,0.9
		h0.6v10.8c0,4.3,0.9,7.5,2.6,9.6c1.7,2.1,4.3,3.1,7.8,3.1c2.1,0,3.8-0.4,5.4-1.2c1.5-0.8,2.8-1.9,3.8-3.5v2.5
		c0,0.5,0.2,0.8,0.5,1.1c0.3,0.3,0.8,0.4,1.4,0.4h5.5c1.5,0,2.6-0.3,3.2-0.8c0.6-0.6,1-1.5,1-2.8c0-1.1-0.3-2-0.9-2.6
		c-0.6-0.6-1.5-0.9-2.7-0.9H354V53.8c0-0.4-0.2-0.8-0.5-1c-0.3-0.2-0.8-0.4-1.4-0.4h-6.2c-1.5,0-2.6,0.3-3.2,0.8
		c-0.6,0.5-0.9,1.4-0.9,2.7c0,1.2,0.3,2.1,0.9,2.7c0.6,0.6,1.5,0.9,2.7,0.9h0.5V68.9L345.9,68.9z M385,41.3c0-0.4-0.2-0.8-0.5-1
		c-0.3-0.2-0.8-0.4-1.4-0.4h-9.8c-1.5,0-2.6,0.3-3.2,0.8c-0.6,0.6-1,1.5-1,2.8c0,1.3,0.3,2.2,1,2.7c0.6,0.6,1.7,0.9,3.2,0.9h3.6
		v28.2h-7c-1.5,0-2.6,0.3-3.2,0.8c-0.6,0.5-0.9,1.4-0.9,2.7c0,1.3,0.3,2.2,0.9,2.8c0.6,0.6,1.7,0.8,3.1,0.8h22.2
		c1.5,0,2.5-0.3,3.2-0.8c0.6-0.6,0.9-1.5,0.9-2.8c0-1.3-0.3-2.2-0.9-2.7c-0.6-0.5-1.7-0.8-3.2-0.8h-7V41.3L385,41.3z M434.6,63.2
		c0-4.2-1-7.2-3-9c-2-1.8-5.3-2.7-10-2.7c-4.5,0-8,0.5-10.6,1.5c-2.6,1-3.9,2.4-3.9,4.2c0,1,0.3,1.8,1,2.4c0.6,0.6,1.5,0.9,2.5,0.9
		c1,0,2.7-0.5,4.9-1.6c2.2-1.1,4.1-1.6,5.5-1.6c1.9,0,3.3,0.5,4.2,1.5c1,1,1.4,2.5,1.4,4.4v0.6c-1.5-0.2-2.8-0.4-4-0.5
		c-1.2-0.1-2.3-0.2-3.3-0.2c-4.7,0-8.3,0.9-10.9,2.7c-2.6,1.8-3.9,4.3-3.9,7.6c0,3,1,5.4,3,7.1c2,1.7,4.8,2.6,8.3,2.6
		c2.1,0,4.1-0.3,6.2-0.9c2-0.6,4-1.5,5.8-2.7c0.3,1.1,0.8,1.8,1.3,2.2c0.5,0.4,1.3,0.6,2.4,0.6h3.1c1.5,0,2.5-0.3,3.2-0.8
		c0.6-0.6,1-1.5,1-2.7c0-1.1-0.3-2-0.9-2.6c-0.6-0.6-1.5-0.9-2.7-0.9h-0.5V63.2L434.6,63.2z M426.7,74c-1.3,0.9-2.6,1.6-3.9,2
		c-1.3,0.4-2.8,0.6-4.3,0.6c-1.6,0-2.9-0.3-3.8-1c-0.9-0.7-1.3-1.6-1.3-2.9c0-1.4,0.7-2.5,2-3.3c1.4-0.8,3.2-1.2,5.6-1.2
		c0.8,0,1.6,0.1,2.6,0.2c0.9,0.1,1.9,0.3,3,0.5V74L426.7,74z M465.1,60.5c1.4-0.9,2.7-1.4,3.7-1.4c0.5,0,1.5,0.4,2.8,1.1
		c1.3,0.7,2.5,1.1,3.5,1.1c1.4,0,2.5-0.4,3.4-1.2c0.9-0.8,1.3-1.8,1.3-3.1c0-1.6-0.6-2.9-1.9-3.9c-1.3-1-3-1.4-5.1-1.4
		c-2.4,0-4.6,0.5-6.7,1.6c-2.1,1.1-4.3,2.9-6.7,5.4v-4.8c0-0.4-0.2-0.8-0.5-1c-0.3-0.2-0.8-0.4-1.4-0.4h-7c-1.5,0-2.6,0.3-3.2,0.8
		c-0.6,0.5-0.9,1.4-0.9,2.7c0,1.3,0.3,2.2,0.9,2.7c0.6,0.6,1.7,0.8,3.2,0.8h1.4v15.8h-2.5c-1.5,0-2.6,0.3-3.2,0.8
		c-0.6,0.5-0.9,1.4-0.9,2.7c0,1.3,0.3,2.2,0.9,2.8c0.6,0.6,1.7,0.8,3.2,0.8h18.3c1.5,0,2.5-0.3,3.2-0.8c0.6-0.6,0.9-1.5,0.9-2.8
		c0-1.3-0.3-2.2-0.9-2.7c-0.6-0.5-1.7-0.8-3.2-0.8H460V64.8C462,62.8,463.6,61.4,465.1,60.5L465.1,60.5z M487.1,64.2
		c-0.3,0.3-0.4,0.6-0.4,1.1v4.1c0,0.5,0.1,1,0.4,1.3c0.2,0.3,0.6,0.5,1,0.5h27.2c0.4,0,0.8-0.2,1.1-0.6c0.3-0.4,0.5-0.8,0.5-1.2
		v-4.1c0-0.5-0.1-0.9-0.4-1.1c-0.3-0.3-0.7-0.4-1.2-0.4h-27.2C487.7,63.7,487.3,63.9,487.1,64.2L487.1,64.2z M539.7,46.6
		c0-1.5-0.3-2.5-0.9-3.1c-0.6-0.6-1.7-0.9-3.1-0.9c-1.4,0-2.5,0.3-3.1,0.9c-0.6,0.6-0.9,1.7-0.9,3.1v7.6h-3.1
		c-1.5,0-2.6,0.3-3.2,0.8c-0.6,0.5-0.9,1.4-0.9,2.7c0,1.3,0.3,2.2,0.9,2.8c0.6,0.6,1.7,0.8,3.2,0.8h3.1v8.3v0.7
		c0,2.8,0.2,4.9,0.5,6.1c0.3,1.2,0.8,2.2,1.5,3.1c1,1.1,2.3,2,4,2.6c1.7,0.6,3.7,0.9,5.9,0.9c3.9,0,7.3-0.7,10.4-2.1
		c3-1.4,4.6-2.9,4.6-4.6c0-1-0.3-1.8-1-2.5c-0.6-0.7-1.4-1.1-2.3-1.1c-0.8,0-2.3,0.5-4.7,1.5c-2.3,1-4.3,1.5-6,1.5
		c-1.8,0-3.1-0.4-3.8-1.3c-0.7-0.9-1.1-2.5-1.1-4.8v-8.3h10c1.5,0,2.5-0.3,3.2-0.8c0.6-0.6,1-1.5,1-2.8c0-1.3-0.3-2.2-0.9-2.7
		c-0.6-0.5-1.7-0.8-3.2-0.8h-10V46.6L539.7,46.6z M595.6,63.2c0-4.2-1-7.2-3-9c-2-1.8-5.3-2.7-10-2.7c-4.5,0-8,0.5-10.6,1.5
		c-2.6,1-3.9,2.4-3.9,4.2c0,1,0.3,1.8,0.9,2.4c0.6,0.6,1.5,0.9,2.5,0.9c1,0,2.7-0.5,4.9-1.6c2.2-1.1,4.1-1.6,5.5-1.6
		c1.9,0,3.3,0.5,4.2,1.5c1,1,1.4,2.5,1.4,4.4v0.6c-1.5-0.2-2.8-0.4-4-0.5c-1.2-0.1-2.3-0.2-3.3-0.2c-4.7,0-8.3,0.9-10.9,2.7
		c-2.6,1.8-3.9,4.3-3.9,7.6c0,3,1,5.4,3,7.1c2,1.7,4.8,2.6,8.3,2.6c2.1,0,4.1-0.3,6.2-0.9c2-0.6,4-1.5,5.8-2.7
		c0.3,1.1,0.8,1.8,1.3,2.2c0.5,0.4,1.3,0.6,2.4,0.6h3.1c1.5,0,2.6-0.3,3.2-0.8c0.6-0.6,1-1.5,1-2.7c0-1.1-0.3-2-0.9-2.6
		c-0.6-0.6-1.5-0.9-2.7-0.9h-0.5V63.2L595.6,63.2z M587.7,74c-1.3,0.9-2.6,1.6-3.9,2c-1.3,0.4-2.8,0.6-4.3,0.6c-1.6,0-2.9-0.3-3.8-1
		c-0.9-0.7-1.3-1.6-1.3-2.9c0-1.4,0.7-2.5,2-3.3c1.4-0.8,3.2-1.2,5.7-1.2c0.8,0,1.6,0.1,2.6,0.2c0.9,0.1,1.9,0.3,3,0.5V74L587.7,74z
		 M629.2,61.7c1.4,1.6,2.1,3.6,2.1,6c0,2.5-0.7,4.5-2.1,6.1c-1.4,1.6-3.2,2.4-5.4,2.4c-2.2,0-3.9-0.8-5.3-2.4
		c-1.4-1.6-2.1-3.6-2.1-6.1c0-2.4,0.7-4.5,2.1-6.1c1.4-1.6,3.2-2.4,5.3-2.4C626,59.3,627.8,60.1,629.2,61.7L629.2,61.7z M616.6,42.1
		c0-0.8-0.2-1.3-0.5-1.6c-0.3-0.3-0.8-0.5-1.5-0.5h-6.1c-1.5,0-2.6,0.3-3.2,0.8c-0.6,0.6-0.9,1.5-0.9,2.8c0,1.2,0.3,2.1,0.9,2.7
		c0.6,0.6,1.5,0.9,2.7,0.9h0.5v28.2H608c-1.2,0-2.1,0.3-2.7,0.9c-0.6,0.6-0.9,1.5-0.9,2.6c0,1.3,0.3,2.2,0.9,2.8
		c0.6,0.6,1.7,0.8,3.2,0.8h5c0.6,0,1.1-0.1,1.4-0.4c0.3-0.2,0.5-0.6,0.5-1v-2.1c1,1.4,2.3,2.5,3.8,3.3c1.6,0.7,3.4,1.1,5.5,1.1
		c4.5,0,8.2-1.4,11.1-4.3c2.9-2.8,4.4-6.4,4.4-10.6c0-4.7-1.4-8.5-4.3-11.4c-2.9-3-6.6-4.5-11.2-4.5c-1.6,0-3.1,0.3-4.5,0.8
		c-1.4,0.5-2.7,1.2-3.7,2.1V42.1L616.6,42.1z M666.8,41.3c0-0.4-0.2-0.8-0.5-1c-0.3-0.2-0.8-0.4-1.4-0.4h-9.8
		c-1.5,0-2.6,0.3-3.2,0.8c-0.6,0.6-0.9,1.5-0.9,2.8c0,1.3,0.3,2.2,1,2.7c0.6,0.6,1.7,0.9,3.2,0.9h3.6v28.2h-7
		c-1.5,0-2.6,0.3-3.2,0.8c-0.6,0.5-0.9,1.4-0.9,2.7c0,1.3,0.3,2.2,0.9,2.8c0.6,0.6,1.7,0.8,3.1,0.8h22.2c1.5,0,2.5-0.3,3.2-0.8
		c0.6-0.6,0.9-1.5,0.9-2.8c0-1.3-0.3-2.2-0.9-2.7c-0.6-0.5-1.7-0.8-3.2-0.8h-7V41.3L666.8,41.3z M715.2,69.3c1.9,0,3.2-0.2,3.8-0.7
		c0.6-0.5,0.9-1.4,0.9-2.6c0-4-1.6-7.4-4.7-10.1c-3.1-2.8-7-4.1-11.7-4.1c-5.3,0-9.6,1.5-12.9,4.4c-3.3,2.9-5,6.7-5,11.3
		c0,4.6,1.7,8.4,5,11.4c3.3,2.9,7.6,4.4,12.9,4.4c4.5,0,8.2-0.7,11.3-2.2c3-1.5,4.6-3.2,4.6-5.3c0-0.9-0.3-1.7-0.8-2.3
		c-0.5-0.6-1.2-0.9-2-0.9c-0.5,0-2.1,0.7-4.8,2c-2.6,1.3-5.3,2-8,2c-2.7,0-4.9-0.6-6.5-1.8c-1.6-1.2-2.7-3-3.3-5.4H715.2L715.2,69.3
		z M694.1,64.3c0.6-2.1,1.6-3.7,3-4.8c1.5-1,3.4-1.6,5.7-1.6c2.5,0,4.5,0.6,6,1.7c1.5,1.1,2.5,2.7,2.9,4.7H694.1L694.1,64.3z"/>
</g>
</svg>
