<?xml version="1.0" encoding="utf-8"?>
<!-- Generator: Adobe Illustrator 25.0.0, SVG Export Plug-In . SVG Version: 6.00 Build 0)  -->
<svg version="1.1" id="Layer_1" xmlns="http://www.w3.org/2000/svg" xmlns:xlink="http://www.w3.org/1999/xlink" x="0px" y="0px"
	 viewBox="0 0 576 576" style="enable-background:new 0 0 576 576;" xml:space="preserve">
<g>
	<path d="M555.3,243c-6.4,1.2-12.8,1.1-18.8-0.6c-7.5,15.6-21.2,32.2-39.8,48.6c-16.4-17.6-36.2-35.3-59.2-52.4
		c8.3-27.4,13.7-53.5,16.4-77.3c24.8,2.2,45.6,7.3,60.9,15.4c3.8-4.9,8.9-8.8,14.7-11.6c-18.2-11.5-43.7-18.6-74.2-21.4
		c1.7-30.5-1.6-56.8-10.2-76.5c-3.6,5.4-8.3,9.8-13.7,12.9c5.8,16.3,7.8,37.7,6.2,62.5c-23.9-0.9-50.5,1-78.7,5
		c-13.6-25.3-28.2-47.7-43.3-66.5c19-16,37.4-27.1,54-32.2c-0.7-6.2,0.1-12.5,2.2-18.6c-21,4.8-44,17.8-67.6,37.3
		c-20.4-22.8-41.3-39-61.4-46.9c1.2,6.4,1.1,12.8-0.6,18.8c15.6,7.5,32.2,21.2,48.6,39.8c-17.6,16.4-35.3,36.2-52.4,59.2
		c-27.4-8.2-53.5-13.7-77.3-16.4c2.2-24.7,7.3-45.6,15.4-60.9c-4.9-3.8-8.8-8.9-11.6-14.7c-11.5,18.2-18.6,43.7-21.4,74.2
		c-30.5-1.7-56.8,1.6-76.5,10.2c5.4,3.6,9.8,8.3,12.9,13.7c16.3-5.8,37.7-7.8,62.5-6.2c-0.9,24,0.6,50.6,4.8,79
		c-25.2,13.5-47.5,28-66.2,43c-16-19-27.1-37.4-32.2-54c-6.2,0.7-12.5-0.1-18.6-2.2c4.8,21,17.8,44,37.3,67.6
		c-22.8,20.4-39,41.3-46.9,61.4c6.4-1.2,12.8-1.1,18.8,0.6c7.5-15.6,21.2-32.2,39.8-48.6c16.4,17.6,36.2,35.3,59.2,52.4
		c-8.3,27.4-13.7,53.5-16.4,77.3c-24.7-2.2-45.6-7.3-60.9-15.4c-3.8,4.9-8.9,8.8-14.7,11.6c18.2,11.5,43.7,18.6,74.2,21.4
		c-1.7,30.5,1.6,56.8,10.2,76.5c3.6-5.4,8.3-9.8,13.7-12.9c-5.8-16.3-7.8-37.7-6.2-62.5c23.9,0.9,50.5-1,78.7-5
		c13.6,25.3,28.2,47.7,43.3,66.5c-19,16-37.4,27.1-54,32.2c0.7,6.2-0.1,12.5-2.2,18.6c21-4.8,44-17.8,67.6-37.3
		c20.4,22.8,41.3,39,61.4,46.9c-1.2-6.4-1.1-12.8,0.6-18.8c-15.6-7.5-32.2-21.2-48.6-39.8c17.6-16.4,35.3-36.2,52.4-59.2
		c27.4,8.3,53.5,13.7,77.3,16.4c-2.2,24.7-7.3,45.6-15.4,60.9c4.9,3.8,8.8,8.9,11.6,14.7c11.5-18.2,18.6-43.7,21.4-74.2
		c30.5,1.7,56.8-1.6,76.5-10.2c-5.4-3.6-9.8-8.3-12.9-13.7c-16.3,5.8-37.7,7.8-62.5,6.2c0.9-24-0.6-50.6-4.8-79
		c25.2-13.5,47.5-28,66.2-43c16,19,27.1,37.4,32.2,54c6.2-0.7,12.5,0.1,18.6,2.2c-4.8-21-17.8-44-37.3-67.6
		C531.2,284,547.5,263.1,555.3,243L555.3,243z M348.5,422.2c8-11.6,15.9-23.8,23.6-36.6c13.8-5.7,27-11.7,39.7-18
		c3.2,24.5,4.5,47.6,3.9,68.5C394.9,433.6,372.3,429,348.5,422.2L348.5,422.2z M167.1,227.2c7.2-3.7,14.6-7.4,22.2-10.9
		c-3.1,5.7-6.1,11.4-9.1,17.4c-3,5.9-5.8,11.8-8.5,17.7C169.9,243.2,168.4,235.1,167.1,227.2L167.1,227.2z M167.5,307.1
		c1.9,6.2,3.8,12.4,5.8,18.7c2.1,6.3,4.2,12.4,6.4,18.5c-7-4.6-13.8-9.2-20.4-13.9C161.9,322.7,164.6,315,167.5,307.1L167.5,307.1z
		 M196,241.6c6.5-12.8,13.3-25.1,20.3-37.1c12.7-5.1,25.9-9.9,39.4-14.4c13.5-4.5,26.9-8.4,40.2-11.9c12.7,5.4,25.6,11.2,38.4,17.7
		c12.8,6.5,25.1,13.3,37.1,20.3c5.1,12.7,9.9,25.9,14.4,39.4c4.5,13.5,8.4,27,11.9,40.2c-5.4,12.7-11.2,25.6-17.7,38.4
		c-6.5,12.8-13.3,25.1-20.3,37.1c-12.7,5.1-25.9,9.9-39.4,14.4c-13.5,4.5-26.9,8.4-40.2,11.9c-12.7-5.4-25.6-11.2-38.4-17.7
		c-12.8-6.5-25.1-13.3-37.1-20.3c-5.1-12.7-9.9-25.9-14.4-39.4c-4.5-13.5-8.4-26.9-11.9-40.2C183.7,267.3,189.6,254.5,196,241.6
		L196,241.6z M395.8,342.3c3-5.9,5.8-11.8,8.5-17.7c1.7,8.1,3.3,16.2,4.6,24.1c-7.2,3.7-14.6,7.4-22.2,10.9
		C389.8,354,392.8,348.3,395.8,342.3L395.8,342.3z M396.2,231.7c7,4.6,13.8,9.2,20.4,13.9c-2.5,7.7-5.2,15.5-8.1,23.3
		c-1.9-6.2-3.8-12.4-5.8-18.7C400.6,243.9,398.4,237.8,396.2,231.7L396.2,231.7z M330.4,416.6c-7.7-2.5-15.5-5.2-23.3-8.1
		c6.2-1.9,12.4-3.8,18.7-5.8c6.3-2.1,12.4-4.2,18.5-6.4C339.7,403.2,335.1,410.1,330.4,416.6L330.4,416.6z M235.8,425.5
		c13.9-2.5,28.1-5.4,42.6-9.1c13.8,5.7,27.4,10.9,40.7,15.4c-15.1,19.6-30.5,36.8-45.7,51.2C260.5,466.5,247.8,447.2,235.8,425.5
		L235.8,425.5z M216.3,386.7c5.7,3.1,11.4,6.1,17.4,9.1c5.9,3,11.8,5.8,17.7,8.5c-8.2,1.7-16.3,3.1-24.3,4.5
		C223.3,401.7,219.8,394.3,216.3,386.7L216.3,386.7z M139.9,415.7c2.5-20.8,7.1-43.4,14-67.2c11.6,8,23.8,15.9,36.6,23.6
		c5.6,13.7,11.6,26.9,17.8,39.5C183.9,414.8,160.7,416.3,139.9,415.7L139.9,415.7z M159.6,278.5c-5.7,13.8-10.9,27.4-15.4,40.7
		c-19.6-15.1-36.8-30.5-51.2-45.7c16.4-12.9,35.9-25.4,57.4-37.4C152.9,249.9,156,264.1,159.6,278.5L159.6,278.5z M227.5,153.8
		c-8,11.6-15.9,23.8-23.6,36.6c-13.8,5.7-27,11.7-39.7,18c-3.2-24.5-4.5-47.6-3.9-68.5C181.1,142.4,203.7,147,227.5,153.8
		L227.5,153.8z M245.6,159.4c7.7,2.5,15.5,5.2,23.3,8.1c-6.2,1.9-12.4,3.8-18.7,5.8c-6.3,2.1-12.4,4.2-18.5,6.4
		C236.3,172.8,240.9,165.9,245.6,159.4L245.6,159.4z M340.2,150.5c-13.9,2.5-28.1,5.4-42.6,9.1c-13.8-5.7-27.4-10.9-40.7-15.4
		c15.1-19.6,30.5-36.8,45.7-51.2C315.5,109.5,328.2,128.8,340.2,150.5L340.2,150.5z M359.7,189.3c-5.7-3.1-11.4-6.2-17.4-9.1
		c-5.9-3-11.8-5.8-17.7-8.5c8.2-1.7,16.3-3.1,24.3-4.5C352.7,174.3,356.2,181.7,359.7,189.3L359.7,189.3z M436.1,160.3
		c-2.5,20.8-7.1,43.4-14,67.2c-11.6-8-23.8-15.9-36.6-23.6c-5.6-13.7-11.6-26.9-17.8-39.5C392.1,161.3,415.3,159.7,436.1,160.3
		L436.1,160.3z M483,302.5c-16.4,12.9-35.9,25.4-57.4,37.4c-2.5-13.8-5.5-27.9-9.2-42.3c5.7-13.8,10.9-27.4,15.4-40.7
		C451.4,271.9,468.6,287.3,483,302.5L483,302.5z"/>
	<path d="M326.8,335.1c4.7-3.3,8.5-7.1,11.3-11.3c2.8-4.2,4.5-8.8,5.2-13.7c0.7-4.9,0.1-10.1-1.7-15.6l-0.1-0.3
		c-1.6-4.9-4-8.9-7-11.9c-3-3-6.6-5.2-10.9-6.6c-4.3-1.4-9.2-2.2-14.6-2.3c-5.5-0.1-11.5,0.1-18,0.8c-3.9,0.4-7.2,0.6-9.8,0.6
		c-2.6,0-4.8-0.1-6.4-0.4c-1.6-0.3-2.9-0.8-3.7-1.6c-0.9-0.7-1.5-1.7-1.9-2.9l-0.1-0.3c-0.6-1.9-0.3-3.8,1.1-5.7
		c1.3-1.9,3.8-3.4,7.3-4.6c4.8-1.6,10-2.3,15.7-2.2c5.7,0.1,11.5,1,17.5,2.9l7.8-25.7c-7.3-2.8-14.9-4.2-22.9-4.2
		c-7.9,0-16.4,1.4-25.6,4.4c-6.4,2.1-11.8,4.8-16.3,8.2c-4.5,3.3-8.1,7.1-10.7,11.3c-2.6,4.2-4.1,8.7-4.6,13.5
		c-0.5,4.8,0.1,9.6,1.7,14.6l0.1,0.3c1.8,5.5,4.3,9.7,7.6,12.7c3.3,3,7.1,5.2,11.6,6.4c4.4,1.3,9.3,1.9,14.7,1.9
		c5.4,0,11.1-0.3,17.2-0.9c3.9-0.4,7.1-0.6,9.7-0.6c2.5,0,4.6,0.2,6.2,0.5c1.6,0.4,2.8,0.9,3.6,1.6c0.8,0.7,1.4,1.6,1.7,2.7l0.1,0.3
		c0.8,2.3,0.3,4.5-1.3,6.4c-1.7,1.9-4.5,3.6-8.4,4.9c-12.4,4.1-25.2,3.6-38.7-1.4l-9.9,25c8.5,3.7,17.6,5.7,27.1,5.8
		c9.5,0.1,19-1.4,28.6-4.5C316.5,341.1,322.1,338.4,326.8,335.1L326.8,335.1z"/>
	<path d="M277.2,224.5l-5.1-15.4l-21.9,7.2l5.3,16.2c3.6-2.1,7.5-4,12-5.5C270.9,225.8,274,225.2,277.2,224.5L277.2,224.5z"/>
	<path d="M295.8,354.5l4.5,13.6l21.9-7.2l-4.1-12.3c-1.8,0.8-3.6,1.6-5.6,2.2C306.9,352.7,301.4,353.8,295.8,354.5L295.8,354.5z"/>
	<path d="M574.5,193.5c-5-15.1-21.2-23.3-36.3-18.3s-23.3,21.2-18.3,36.3c5,15.1,21.2,23.3,36.3,18.3
		C571.3,224.9,579.5,208.6,574.5,193.5L574.5,193.5z"/>
	<path d="M436.5,57.2c7.2-14.2,1.4-31.5-12.7-38.6c-14.2-7.2-31.5-1.4-38.6,12.7c-7.2,14.2-1.4,31.5,12.7,38.6
		C412.1,77.1,429.4,71.4,436.5,57.2L436.5,57.2z"/>
	<path d="M229.8,19.8c-5-15.1-21.2-23.3-36.3-18.3c-15.1,5-23.3,21.2-18.3,36.3c5,15.1,21.2,23.3,36.3,18.3
		C226.6,51.1,234.8,34.9,229.8,19.8L229.8,19.8z"/>
	<path d="M57.2,139.5c-14.2-7.2-31.5-1.4-38.6,12.7c-7.2,14.2-1.4,31.5,12.7,38.6c14.2,7.2,31.5,1.4,38.6-12.7
		C77.1,163.9,71.4,146.6,57.2,139.5L57.2,139.5z"/>
	<path d="M19.8,346.2c-15.1,5-23.3,21.2-18.3,36.3c5,15.1,21.2,23.3,36.3,18.3c15.1-5,23.3-21.2,18.3-36.3
		C51.1,349.4,34.9,341.2,19.8,346.2L19.8,346.2z"/>
	<path d="M139.5,518.8c-7.2,14.2-1.4,31.5,12.7,38.6c14.2,7.1,31.5,1.4,38.6-12.7c7.2-14.2,1.4-31.5-12.7-38.6
		C163.9,498.9,146.6,504.6,139.5,518.8L139.5,518.8z"/>
	<path d="M346.2,556.2c5,15.1,21.2,23.3,36.3,18.3c15.1-5,23.3-21.2,18.3-36.3c-5-15.1-21.2-23.3-36.3-18.3
		C349.4,524.9,341.2,541.1,346.2,556.2L346.2,556.2z"/>
	<path d="M518.8,436.5c14.2,7.2,31.5,1.4,38.6-12.7c7.1-14.2,1.4-31.5-12.7-38.6c-14.2-7.2-31.5-1.4-38.6,12.7
		C498.9,412.1,504.6,429.4,518.8,436.5L518.8,436.5z"/>
</g>
</svg>
