<?xml version="1.0" encoding="utf-8"?>
<!-- Generator: Adobe Illustrator 26.0.2, SVG Export Plug-In . SVG Version: 6.00 Build 0)  -->
<svg version="1.1" id="Layer_1" xmlns="http://www.w3.org/2000/svg" xmlns:xlink="http://www.w3.org/1999/xlink" x="0px" y="0px"
	 viewBox="0 0 720 534.4" style="enable-background:new 0 0 720 534.4;" xml:space="preserve">
<style type="text/css">
	.st0{fill:#FFFFFF;}
</style>
<g>
	<path class="st0" d="M34,473.5v16.6c0,0.2-0.2,0.3-0.3,0.1c-2-2.9-5.2-4.7-9.3-4.7c-6.4,0-10.9,3.7-12.3,9.2
		c-0.6,2.3-0.7,5.1-0.7,8.6c0,3.6,0.1,6.3,0.8,8.6c1.5,5.5,5.9,9.1,12.3,9.1c4,0,7.3-1.7,9.3-4.7c0.1-0.2,0.3-0.1,0.3,0.1v3.2
		c0,0.5,0.3,0.8,0.8,0.8h2c0.5,0,0.8-0.3,0.8-0.8v-46.3c0-0.5-0.3-0.8-0.8-0.8h-2C34.4,472.7,34,473,34,473.5L34,473.5z M33.1,511.5
		c-1,3.6-3.8,6.4-8.3,6.4c-4.5,0-8-2.6-8.9-6.4c-0.5-1.7-0.9-3.2-0.9-8.2c0-5.2,0.4-6.7,1.1-8.4c1-3.6,4.3-6.2,8.7-6.2
		c4.4,0,7.3,2.7,8.2,6.3c0.6,1.7,0.9,3.2,0.9,8.4C34,508.5,33.7,510,33.1,511.5L33.1,511.5z M61,485.6c-6.8,0-11.6,3.3-12.5,8.1
		c-0.1,0.4,0.3,0.7,0.8,0.8l2.1,0.3c0.5,0.1,0.8-0.2,1-0.7c0.8-3.2,3.9-5.2,8.6-5.2c6.3,0,8.8,3.5,8.8,8.4v3.1
		c0,0.1-0.1,0.3-0.3,0.3h-8.2c-8.8,0-14.1,4.2-14.1,11c0,7.1,5.5,9.7,11.2,9.7c4.4,0,8.6-1.5,11-4.5c0.2-0.2,0.3-0.1,0.3,0.1v2.9
		c0,0.5,0.3,0.8,0.8,0.8h2c0.5,0,0.8-0.3,0.8-0.8v-22.7C73.4,490.2,69.3,485.6,61,485.6L61,485.6z M59,518c-4.6,0-8.3-2.1-8.3-6.8
		c0-4.9,4.5-7.7,10.9-7.7h7.8c0.1,0,0.3,0.1,0.3,0.3v6.2C69.7,515.4,64.4,518,59,518L59,518z M98.4,488.4v-1.4
		c0-0.5-0.3-0.8-0.8-0.8h-7.9c-0.1,0-0.3-0.1-0.3-0.3v-7.7c0-0.5-0.3-0.8-0.8-0.8h-1.9c-0.5,0-0.8,0.3-0.8,0.8v7.7
		c0,0.1-0.1,0.3-0.3,0.3h-4c-0.5,0-0.8,0.3-0.8,0.8v1.4c0,0.5,0.3,0.8,0.8,0.8h4c0.1,0,0.3,0.1,0.3,0.3V512c0.1,7,4,8.6,9.7,8.6
		c0.6,0,1.2-0.1,1.9-0.1c0.5,0,0.8-0.3,0.8-0.8v-1.6c0-0.5-0.3-0.8-0.8-0.8h-1.4c-4.5,0-6.6-1.5-6.6-6.3v-21.6
		c0-0.1,0.1-0.3,0.3-0.3h7.9C98.1,489.2,98.4,488.8,98.4,488.4L98.4,488.4z M120.1,485.6c-6.8,0-11.6,3.3-12.5,8.1
		c-0.1,0.4,0.3,0.7,0.8,0.8l2.1,0.3c0.5,0.1,0.8-0.2,1-0.7c0.8-3.2,3.9-5.2,8.6-5.2c6.3,0,8.8,3.5,8.8,8.4v3.1
		c0,0.1-0.1,0.3-0.3,0.3h-8.2c-8.8,0-14.1,4.2-14.1,11c0,7.1,5.5,9.7,11.2,9.7c4.4,0,8.6-1.5,11-4.5c0.2-0.2,0.3-0.1,0.3,0.1v2.9
		c0,0.5,0.3,0.8,0.8,0.8h2c0.5,0,0.8-0.3,0.8-0.8v-22.7C132.4,490.2,128.3,485.6,120.1,485.6L120.1,485.6z M118.1,518
		c-4.6,0-8.3-2.1-8.3-6.8c0-4.9,4.5-7.7,10.9-7.7h7.8c0.1,0,0.3,0.1,0.3,0.3v6.2C128.8,515.4,123.5,518,118.1,518L118.1,518z
		 M181.9,497.4h-11.7c-0.1,0-0.3-0.1-0.3-0.3v-12.1c0-0.5-0.3-0.8-0.8-0.8h-1.5c-0.5,0-0.8,0.3-0.8,0.8v12.1c0,0.1-0.1,0.3-0.3,0.3
		h-11.7c-0.5,0-0.8,0.3-0.8,0.8v1.5c0,0.5,0.3,0.8,0.8,0.8h11.7c0.1,0,0.3,0.1,0.3,0.3v11.4c0,0.5,0.3,0.8,0.8,0.8h1.5
		c0.5,0,0.8-0.3,0.8-0.8v-11.4c0-0.1,0.1-0.3,0.3-0.3h11.7c0.5,0,0.8-0.3,0.8-0.8v-1.5C182.7,497.8,182.4,497.4,181.9,497.4
		L181.9,497.4z M216.7,485.6c-6.8,0-11.6,3.3-12.5,8.1c-0.1,0.4,0.3,0.7,0.8,0.8l2.1,0.3c0.5,0.1,0.8-0.2,1-0.7
		c0.8-3.2,3.9-5.2,8.6-5.2c6.3,0,8.8,3.5,8.8,8.4v3.1c0,0.1-0.1,0.3-0.3,0.3h-8.2c-8.8,0-14.1,4.2-14.1,11c0,7.1,5.5,9.7,11.2,9.7
		c4.4,0,8.6-1.5,11-4.5c0.2-0.2,0.3-0.1,0.3,0.1v2.9c0,0.5,0.3,0.8,0.8,0.8h2c0.5,0,0.8-0.3,0.8-0.8v-22.7
		C229.1,490.2,224.9,485.6,216.7,485.6L216.7,485.6z M214.7,518c-4.6,0-8.3-2.1-8.3-6.8c0-4.9,4.5-7.7,10.9-7.7h7.8
		c0.1,0,0.3,0.1,0.3,0.3v6.2C225.4,515.4,220.1,518,214.7,518L214.7,518z M253.6,485.6c-4.3,0-7.7,1.6-9.7,4.7
		c-0.1,0.2-0.3,0.1-0.3-0.1v-3.2c0-0.5-0.3-0.8-0.8-0.8h-2c-0.5,0-0.8,0.3-0.8,0.8v32.9c0,0.5,0.3,0.8,0.8,0.8h2
		c0.5,0,0.8-0.3,0.8-0.8v-21.9c0-5.3,3.7-9,9.2-9c5.2,0,8.8,3.8,8.8,9.2v21.8c0,0.5,0.3,0.8,0.8,0.8h2c0.5,0,0.8-0.3,0.8-0.8v-22.5
		C265.3,490.3,260.6,485.6,253.6,485.6L253.6,485.6z M288.2,485.6c-6.8,0-11.6,3.3-12.5,8.1c-0.1,0.4,0.3,0.7,0.8,0.8l2.1,0.3
		c0.5,0.1,0.8-0.2,1-0.7c0.8-3.2,3.9-5.2,8.6-5.2c6.3,0,8.8,3.5,8.8,8.4v3.1c0,0.1-0.1,0.3-0.3,0.3h-8.2c-8.8,0-14.1,4.2-14.1,11
		c0,7.1,5.5,9.7,11.2,9.7c4.4,0,8.6-1.5,11-4.5c0.2-0.2,0.3-0.1,0.3,0.1v2.9c0,0.5,0.3,0.8,0.8,0.8h2c0.5,0,0.8-0.3,0.8-0.8v-22.7
		C300.5,490.2,296.4,485.6,288.2,485.6L288.2,485.6z M286.2,518c-4.6,0-8.3-2.1-8.3-6.8c0-4.9,4.5-7.7,10.9-7.7h7.8
		c0.1,0,0.3,0.1,0.3,0.3v6.2C296.9,515.4,291.6,518,286.2,518L286.2,518z M312.3,520.6h2c0.5,0,0.8-0.3,0.8-0.8v-46.3
		c0-0.5-0.3-0.8-0.8-0.8h-2c-0.5,0-0.8,0.3-0.8,0.8v46.3C311.4,520.3,311.8,520.6,312.3,520.6L312.3,520.6z M325.1,534.4h0.5
		c6.4,0,8.4-1.6,11.4-10.2l12.9-37.1c0.2-0.6-0.1-1-0.7-1h-2.1c-0.5,0-0.8,0.3-0.9,0.7l-9.4,28.6c-0.1,0.2-0.3,0.2-0.4,0l-9.7-28.6
		c-0.1-0.4-0.4-0.7-0.9-0.7h-2.1c-0.5,0-0.9,0.3-0.7,1l11.6,33.4c0.1,0.1,0.1,0.3,0,0.4c-2.7,8.5-4,10.3-9.1,10.3h-0.5
		c-0.3,0-0.5,0.3-0.5,0.8v1.5C324.6,534,324.8,534.4,325.1,534.4L325.1,534.4z M372.2,488.4v-1.4c0-0.5-0.3-0.8-0.8-0.8h-7.9
		c-0.1,0-0.3-0.1-0.3-0.3v-7.7c0-0.5-0.3-0.8-0.8-0.8h-1.9c-0.5,0-0.8,0.3-0.8,0.8v7.7c0,0.1-0.1,0.3-0.3,0.3h-4
		c-0.5,0-0.8,0.3-0.8,0.8v1.4c0,0.5,0.3,0.8,0.8,0.8h4c0.1,0,0.3,0.1,0.3,0.3V512c0.1,7,4,8.6,9.7,8.6c0.6,0,1.2-0.1,1.9-0.1
		c0.5,0,0.8-0.3,0.8-0.8v-1.6c0-0.5-0.3-0.8-0.8-0.8h-1.4c-4.5,0-6.6-1.5-6.6-6.3v-21.6c0-0.1,0.1-0.3,0.3-0.3h7.9
		C371.8,489.2,372.2,488.8,372.2,488.4L372.2,488.4z M384.7,479.2c1.8,0,3.2-1.3,3.2-3c0-1.7-1.3-2.9-3.2-2.9
		c-1.8,0-3.2,1.2-3.2,2.9C381.5,477.9,382.9,479.2,384.7,479.2L384.7,479.2z M383.7,520.6h2c0.5,0,0.8-0.3,0.8-0.8v-32.9
		c0-0.5-0.3-0.8-0.8-0.8h-2c-0.5,0-0.8,0.3-0.8,0.8v32.9C382.9,520.3,383.3,520.6,383.7,520.6L383.7,520.6z M411.5,521.2
		c6.6,0,11.6-3.6,12.9-8.7c0.1-0.4,0.2-0.8,0.3-1.1c0.1-0.5-0.3-0.9-0.8-1l-1.9-0.2c-0.5-0.1-0.9,0.1-1,0.6l-0.1,0.3
		c-0.7,3.8-4.5,6.9-9.5,6.9c-5.1,0-8.6-2.9-9.5-7.3c-0.3-1.4-0.6-3.8-0.6-7.3c0-3.3,0.3-5.9,0.6-7.3c0.9-4.2,4.3-7.3,9.5-7.3
		c5.1,0,8.7,3.1,9.5,6.8c0.1,0.3,0.1,0.5,0.1,0.8c0.1,0.5,0.5,0.8,1,0.8l1.9-0.3c0.5-0.1,0.8-0.3,0.8-0.9c-0.1-0.5-0.2-1.2-0.4-1.8
		c-1.2-4.7-6.2-8.6-12.9-8.6c-6.6,0-11.4,3.8-12.8,9.2c-0.5,2.1-0.9,4.6-0.9,8.5c0,3.6,0.3,6.3,0.9,8.6
		C400.2,517.4,404.9,521.2,411.5,521.2L411.5,521.2z M445.1,521c7.4,0,12.3-3.9,12.3-9.6c0-6.5-6.4-8.3-12.2-10
		c-4.9-1.4-8.9-2.7-8.9-6.6c0-3.6,3.4-6,8.5-6c5.5,0,8.8,2.7,8.8,6.1v0.4c0,0.3,0.3,0.5,0.8,0.5h1.9c0.5,0,0.8-0.3,0.8-0.8v-0.1
		c0-5.2-4.9-9.1-12.3-9.1c-7.1,0-12.1,3.6-12.1,9.2c0,6.2,5.9,8.1,11.7,9.9c4.8,1.4,9.3,2.6,9.3,6.7c0,3.6-3.5,6.4-8.7,6.4
		c-5.3,0-8.9-2.9-8.9-6.2v-0.8c0-0.4-0.3-0.7-0.8-0.7h-1.9c-0.5,0-0.8,0.3-0.8,0.8v0.8C432.5,516.9,437.5,521,445.1,521L445.1,521z
		 M506.7,494.7c-1.5-5.5-5.9-9.1-12.3-9.1c-4,0-7.3,1.7-9.3,4.7c-0.1,0.2-0.3,0.1-0.3-0.1v-3.2c0-0.5-0.3-0.8-0.8-0.8h-2
		c-0.5,0-0.8,0.3-0.8,0.8v46.3c0,0.5,0.3,0.8,0.8,0.8h2c0.5,0,0.8-0.3,0.8-0.8v-16.6c0-0.2,0.2-0.3,0.3-0.1c2,2.9,5.2,4.7,9.3,4.7
		c6.4,0,10.9-3.7,12.3-9.2c0.6-2.3,0.7-5.1,0.7-8.6C507.5,499.7,507.4,497,506.7,494.7L506.7,494.7L506.7,494.7z M502.8,511.7
		c-1,3.6-4.2,6.2-8.7,6.2c-4.4,0-7.3-2.7-8.2-6.3c-0.6-1.7-0.9-3.2-0.9-8.4c0-5,0.3-6.5,0.8-8.1c1-3.6,3.8-6.4,8.3-6.4
		c4.5,0,7.9,2.6,8.9,6.4c0.5,1.7,0.9,3.2,0.9,8.2C503.9,508.6,503.5,510.1,502.8,511.7L502.8,511.7L502.8,511.7z M518.9,520.6h2
		c0.5,0,0.8-0.3,0.8-0.8v-46.3c0-0.5-0.3-0.8-0.8-0.8h-2c-0.5,0-0.8,0.3-0.8,0.8v46.3C518.1,520.3,518.5,520.6,518.9,520.6
		L518.9,520.6z M545.1,485.6c-6.8,0-11.6,3.3-12.5,8.1c-0.1,0.4,0.3,0.7,0.8,0.8l2.1,0.3c0.5,0.1,0.8-0.2,1-0.7
		c0.8-3.2,3.9-5.2,8.6-5.2c6.3,0,8.8,3.5,8.8,8.4v3.1c0,0.1-0.1,0.3-0.3,0.3h-8.2c-8.8,0-14.1,4.2-14.1,11c0,7.1,5.5,9.7,11.2,9.7
		c4.4,0,8.6-1.5,11-4.5c0.2-0.2,0.3-0.1,0.3,0.1v2.9c0,0.5,0.3,0.8,0.8,0.8h2c0.5,0,0.8-0.3,0.8-0.8v-22.7
		C557.4,490.2,553.3,485.6,545.1,485.6L545.1,485.6z M543.1,518c-4.6,0-8.3-2.1-8.3-6.8c0-4.9,4.5-7.7,10.9-7.7h7.8
		c0.1,0,0.3,0.1,0.3,0.3v6.2C553.8,515.4,548.5,518,543.1,518L543.1,518z M582.5,488.4v-1.4c0-0.5-0.3-0.8-0.8-0.8h-7.9
		c-0.1,0-0.3-0.1-0.3-0.3v-7.7c0-0.5-0.3-0.8-0.8-0.8h-1.9c-0.5,0-0.8,0.3-0.8,0.8v7.7c0,0.1-0.1,0.3-0.3,0.3h-4
		c-0.5,0-0.8,0.3-0.8,0.8v1.4c0,0.5,0.3,0.8,0.8,0.8h4c0.1,0,0.3,0.1,0.3,0.3V512c0.1,7,4,8.6,9.7,8.6c0.6,0,1.2-0.1,1.9-0.1
		c0.5,0,0.8-0.3,0.8-0.8v-1.6c0-0.5-0.3-0.8-0.8-0.8h-1.4c-4.5,0-6.6-1.5-6.6-6.3v-21.6c0-0.1,0.1-0.3,0.3-0.3h7.9
		C582.2,489.2,582.5,488.8,582.5,488.4L582.5,488.4z M605.4,475.9h1.4c0.5,0,0.8-0.3,0.8-0.8v-1.6c0-0.5-0.3-0.8-0.8-0.8h-1.6
		c-8.1,0-10.3,3.6-10.3,11.2v1.9c0,0.1-0.1,0.3-0.3,0.3h-4.4c-0.5,0-0.8,0.3-0.8,0.8v1.7c0,0.5,0.3,0.8,0.8,0.8h4.4
		c0.1,0,0.3,0.1,0.3,0.3v30.1c0,0.5,0.3,0.8,0.8,0.8h2c0.5,0,0.8-0.3,0.8-0.8v-30.1c0-0.1,0.1-0.3,0.3-0.3h7.9
		c0.5,0,0.8-0.3,0.8-0.8v-1.7c0-0.5-0.3-0.8-0.8-0.8h-7.9c-0.1,0-0.3-0.1-0.3-0.3v-1.8C598.4,478.6,599.7,475.9,605.4,475.9
		L605.4,475.9z M625.7,521.2c6.4,0,11.4-3.7,12.9-9.3c0.6-2.3,0.8-5,0.8-8.6c0-3.4-0.1-6.2-0.8-8.5c-1.5-5.6-6.4-9.2-12.9-9.2
		c-6.6,0-11.4,3.7-12.9,9.2c-0.5,2.2-0.8,4.9-0.8,8.5c0,3.5,0.1,6.3,0.8,8.6C614.4,517.5,619.1,521.2,625.7,521.2L625.7,521.2z
		 M625.7,518c-5.1,0-8.6-2.9-9.6-7.3c-0.3-1.5-0.4-4-0.4-7.3c0-3.2,0.1-5.8,0.4-7.3c1-4.4,4.5-7.3,9.5-7.3c5,0,8.6,2.9,9.6,7.3
		c0.3,1.5,0.4,3.9,0.4,7.3c0,3-0.1,5.7-0.4,7.3C634.2,515,630.6,518,625.7,518L625.7,518z M663.1,485.8c-4.2,0-7.3,2.3-9.1,5.7
		c-0.1,0.3-0.3,0.2-0.3-0.1v-4.5c0-0.5-0.3-0.8-0.8-0.8h-2c-0.5,0-0.8,0.3-0.8,0.8v32.9c0,0.5,0.3,0.8,0.8,0.8h2
		c0.5,0,0.8-0.3,0.8-0.8v-20.3c0-5.4,3.7-9.8,8.8-9.9c1.4-0.1,2.5,0.1,3.3,0.4c0.5,0.2,0.9,0.1,1-0.5l0.5-2c0.1-0.5,0-0.8-0.4-1
		C666.1,486.2,664.9,485.8,663.1,485.8L663.1,485.8z M709,485.6c-4.7,0-8.6,1.9-10.6,6c-0.1,0.1-0.3,0.1-0.3-0.1
		c-1.7-3.8-5.2-5.9-10-5.9c-4,0-7.4,1.4-9.4,4.4c-0.1,0.2-0.3,0.1-0.3-0.1v-2.9c0-0.5-0.3-0.8-0.8-0.8h-2c-0.5,0-0.8,0.3-0.8,0.8
		v32.9c0,0.5,0.3,0.8,0.8,0.8h2c0.5,0,0.8-0.3,0.8-0.8v-22.3c0-5.3,3.4-8.6,8.8-8.6c5,0,8.4,3.3,8.4,8.8v22.2c0,0.5,0.3,0.8,0.8,0.8
		h1.9c0.5,0,0.8-0.3,0.8-0.8v-22.3c0-5.3,3.6-8.6,8.8-8.6c5,0,8.5,3.3,8.5,8.8v22.2c0,0.5,0.3,0.8,0.8,0.8h1.9
		c0.5,0,0.8-0.3,0.8-0.8v-22.9C720,489.9,715.6,485.6,709,485.6L709,485.6z"/>
	<path class="st0" d="M56.1,354.4v-9.5c0-1.7-1.2-2.9-2.9-2.9H33.4c-0.6,0-1-0.4-1-1v-21.8c0-1.7-1.2-2.9-2.9-2.9h-12
		c-1.7,0-2.9,1.2-2.9,2.9V341c0,0.6-0.4,1-1,1H2.9c-1.7,0-2.9,1.2-2.9,2.9v9.5c0,1.7,1.2,2.9,2.9,2.9h10.7c0.6,0,1,0.4,1,1v57.5
		c0,20.4,11.7,24.9,29.7,24.9c2.7,0,5.2-0.2,8-0.2c1.9-0.2,2.9-1.4,2.9-3.1v-10.1c0-1.7-1.2-2.9-2.9-2.9h-4.7
		c-10.3,0-15.2-4.1-15.2-15.3v-50.7c0-0.6,0.4-1,1-1h19.8C55,357.3,56.1,356.1,56.1,354.4L56.1,354.4z M122.4,341
		c-10.7,0-18.5,5.2-23.7,13.2c-0.4,0.8-1,0.6-1-0.4v-8.9c0-1.7-1.2-2.9-2.9-2.9H82c-1.7,0-2.9,1.2-2.9,2.9v93.1
		c0,1.7,1.2,2.9,2.9,2.9h12.8c1.7,0,2.9-1.2,2.9-2.9v-55.8c0-13,9.1-21.4,21-21.8c3.7-0.4,7.2,0,9.5,0.8c1.9,0.6,3.1,0.4,3.5-1.7
		l2.7-12.6c0.4-1.6,0-2.9-1.6-3.7C130.4,341.9,127.1,341,122.4,341L122.4,341z M186.7,340.4c-21.4,0-36.7,10.7-39.1,25.3
		c-0.2,1.4,1,2.3,2.7,2.5l14,1.7c1.7,0.2,2.7-0.6,3.3-2.3c1.9-6.8,8.5-11.1,19.4-11.1c13.8,0,20,7,20,18.1v5.1c0,0.6-0.4,1-1,1
		h-21.6c-25.6,0-40.2,12.4-40.2,32.4c0,20.8,15,29.3,32.4,29.3c11.7,0,22-3.7,29.1-10.5c0.6-0.6,1.2-0.2,1.2,0.6v5.4
		c0,1.7,1.2,2.9,2.9,2.9h12.8c1.7,0,2.9-1.2,2.9-2.9v-64.7C225.7,354.2,211,340.4,186.7,340.4L186.7,340.4z M181.5,426.6
		c-10.3,0-18.5-4.7-18.5-14.6c0-10.9,9.9-16.9,25.1-16.9h18.1c0.6,0,1,0.4,1,1v11.3C207.1,418.9,194.9,426.6,181.5,426.6
		L181.5,426.6z M290.4,442.4c19.4,0,35.2-10.3,39.6-26.2c0.4-1.4,0.8-2.5,1-3.7c0.2-1.7-0.8-2.7-2.5-3.1l-12.6-2.1
		c-1.7-0.2-3.1,1.6-3.3,2.5v0.2c0,0,0,0.4-0.2,0.8c-2.3,8.9-10.9,15.5-22.1,15.5c-11.5,0-19.2-6.6-21.8-16.7
		c-1-3.9-1.7-9.7-1.7-18.3c0-8.2,0.8-14.6,1.7-18.5c2.3-9.7,10.3-16.3,21.8-16.3c11.9,0,20.2,7.2,22.1,15.5l0.6,2.5
		c0.4,1.6,1.6,2.3,3.3,2.1l12.6-1.7c1.7-0.2,2.7-1.4,2.5-3.1c-0.2-1.6-0.6-3.5-1.4-5.4c-4.3-14.6-19.6-26-39.6-26
		c-19.6,0-34.6,10.7-39.6,27.2c-1.7,6-2.9,13-2.9,23.5c0,9.3,0.8,16.9,2.9,23.5C256.1,431.5,270.6,442.4,290.4,442.4L290.4,442.4z"
		/>
	<polygon class="st0" points="30.5,28.8 69.7,28.8 77.3,21.2 22.9,21.2 22.9,75.5 30.5,67.9 30.5,28.8 	"/>
	<polygon class="st0" points="240.8,28.8 240.8,65.6 248.4,73.2 248.4,21.2 196.4,21.2 204,28.8 240.8,28.8 	"/>
	<polygon class="st0" points="240.8,239 209.9,239 202.3,246.7 248.4,246.7 248.4,200.5 240.8,208.1 240.8,239 	"/>
	<polygon class="st0" points="30.5,239 30.5,205.8 22.9,198.1 22.9,246.7 71.4,246.7 63.8,239 30.5,239 	"/>
	<path class="st0" d="M166.8,0h-60L0,106.9v59.9l106.9,106.9h60l106.9-106.9v-60L166.8,0L166.8,0z M94.4,135.5l41.1-41.1l43.9,43.8
		l-41.1,41.1L94.4,135.5L94.4,135.5z M89,130.1l-22.3-22.3l98.5-98.6L266.1,110v46.1L164.6,54.6L89,130.1L89,130.1z M156.1,7.6
		L55.9,107.7l76.9,76.9l-23.7,23.7l-100-100L110,7.6H156.1L156.1,7.6z M109.1,219.1l75.5-75.5l22.4,22.3l-98.6,98.6L7.6,163.7
		l0-46.1L109.1,219.1L109.1,219.1z M117.6,266.1l100.2-100.2L140.8,89l23.8-23.8l100,100L163.7,266.1H117.6L117.6,266.1z"/>
</g>
</svg>
