<?xml version="1.0" encoding="utf-8"?>
<!-- Generator: Adobe Illustrator 26.0.2, SVG Export Plug-In . SVG Version: 6.00 Build 0)  -->
<svg version="1.1" id="Layer_1" xmlns="http://www.w3.org/2000/svg" xmlns:xlink="http://www.w3.org/1999/xlink" x="0px" y="0px"
	 viewBox="0 0 873.9 220.7" style="enable-background:new 0 0 873.9 220.7;" xml:space="preserve">
<style type="text/css">
	.st0{fill:#A100FF;}
</style>
<g>
	<path class="st0" d="M320.6,161.2v13.4c0,0.2-0.2,0.3-0.3,0.1c-1.6-2.4-4.2-3.8-7.5-3.8c-5.2,0-8.8,3-9.9,7.5
		c-0.5,1.9-0.6,4.1-0.6,7c0,2.9,0.1,5.1,0.6,7c1.2,4.4,4.7,7.3,9.9,7.3c3.3,0,5.9-1.4,7.5-3.8c0.1-0.2,0.3-0.1,0.3,0.1v2.6
		c0,0.4,0.3,0.7,0.7,0.7h1.6c0.4,0,0.7-0.3,0.7-0.7v-37.4c0-0.4-0.3-0.7-0.7-0.7h-1.6C320.9,160.5,320.6,160.8,320.6,161.2
		L320.6,161.2z M319.9,191.8c-0.8,2.9-3.1,5.2-6.7,5.2c-3.7,0-6.4-2.1-7.2-5.2c-0.4-1.4-0.7-2.5-0.7-6.6c0-4.2,0.3-5.4,0.9-6.7
		c0.8-2.9,3.4-5,7-5c3.5,0,5.9,2.2,6.6,5.1c0.5,1.4,0.7,2.6,0.7,6.7C320.6,189.3,320.3,190.6,319.9,191.8L319.9,191.8z M342.4,170.9
		c-5.5,0-9.3,2.7-10.1,6.5c-0.1,0.3,0.2,0.6,0.6,0.6l1.7,0.2c0.4,0.1,0.7-0.2,0.8-0.6c0.6-2.6,3.1-4.2,6.9-4.2
		c5.1,0,7.1,2.8,7.1,6.7v2.5c0,0.1-0.1,0.2-0.2,0.2h-6.6c-7.1,0-11.4,3.4-11.4,8.8c0,5.7,4.5,7.8,9.1,7.8c3.5,0,6.9-1.2,8.9-3.6
		c0.2-0.2,0.3-0.1,0.3,0.1v2.4c0,0.4,0.3,0.7,0.7,0.7h1.6c0.4,0,0.7-0.3,0.7-0.7v-18.3C352.3,174.6,349,170.9,342.4,170.9
		L342.4,170.9z M340.8,197.1c-3.7,0-6.7-1.7-6.7-5.5c0-4,3.6-6.2,8.8-6.2h6.3c0.1,0,0.2,0.1,0.2,0.2v5
		C349.4,194.9,345.1,197.1,340.8,197.1L340.8,197.1z M372.6,173.1V172c0-0.4-0.3-0.7-0.7-0.7h-6.4c-0.1,0-0.2-0.1-0.2-0.2v-6.2
		c0-0.4-0.3-0.7-0.7-0.7h-1.5c-0.4,0-0.7,0.3-0.7,0.7v6.2c0,0.1-0.1,0.2-0.2,0.2H359c-0.4,0-0.7,0.3-0.7,0.7v1.2
		c0,0.4,0.3,0.7,0.7,0.7h3.2c0.1,0,0.2,0.1,0.2,0.2v18.2c0.1,5.6,3.2,7,7.8,7c0.5,0,1-0.1,1.5-0.1c0.4,0,0.7-0.3,0.7-0.7v-1.3
		c0-0.4-0.3-0.7-0.7-0.7h-1.2c-3.6,0-5.4-1.2-5.4-5.1V174c0-0.1,0.1-0.2,0.2-0.2h6.4C372.3,173.8,372.6,173.5,372.6,173.1
		L372.6,173.1z M390,170.9c-5.5,0-9.3,2.7-10.1,6.5c-0.1,0.3,0.2,0.6,0.6,0.6l1.7,0.2c0.4,0.1,0.7-0.2,0.8-0.6
		c0.6-2.6,3.1-4.2,6.9-4.2c5.1,0,7.1,2.8,7.1,6.7v2.5c0,0.1-0.1,0.2-0.2,0.2h-6.6c-7.1,0-11.4,3.4-11.4,8.8c0,5.7,4.5,7.8,9.1,7.8
		c3.5,0,6.9-1.2,8.9-3.6c0.2-0.2,0.3-0.1,0.3,0.1v2.4c0,0.4,0.3,0.7,0.7,0.7h1.6c0.4,0,0.7-0.3,0.7-0.7v-18.3
		C400,174.6,396.7,170.9,390,170.9L390,170.9z M388.4,197.1c-3.7,0-6.7-1.7-6.7-5.5c0-4,3.6-6.2,8.8-6.2h6.3c0.1,0,0.2,0.1,0.2,0.2
		v5C397.1,194.9,392.7,197.1,388.4,197.1L388.4,197.1z M439.9,180.4h-9.5c-0.1,0-0.2-0.1-0.2-0.2v-9.7c0-0.4-0.3-0.7-0.7-0.7h-1.2
		c-0.4,0-0.7,0.3-0.7,0.7v9.7c0,0.1-0.1,0.2-0.2,0.2H418c-0.4,0-0.7,0.3-0.7,0.7v1.2c0,0.4,0.3,0.7,0.7,0.7h9.4
		c0.1,0,0.2,0.1,0.2,0.2v9.2c0,0.4,0.3,0.7,0.7,0.7h1.2c0.4,0,0.7-0.3,0.7-0.7v-9.2c0-0.1,0.1-0.2,0.2-0.2h9.5
		c0.4,0,0.7-0.3,0.7-0.7v-1.2C440.6,180.7,440.3,180.4,439.9,180.4L439.9,180.4z M468,170.9c-5.5,0-9.3,2.7-10.1,6.5
		c-0.1,0.3,0.2,0.6,0.6,0.6l1.7,0.2c0.4,0.1,0.7-0.2,0.8-0.6c0.6-2.6,3.1-4.2,6.9-4.2c5.1,0,7.1,2.8,7.1,6.7v2.5
		c0,0.1-0.1,0.2-0.2,0.2h-6.6c-7.1,0-11.4,3.4-11.4,8.8c0,5.7,4.5,7.8,9.1,7.8c3.5,0,6.9-1.2,8.9-3.6c0.2-0.2,0.3-0.1,0.3,0.1v2.4
		c0,0.4,0.3,0.7,0.7,0.7h1.6c0.4,0,0.7-0.3,0.7-0.7v-18.3C477.9,174.6,474.6,170.9,468,170.9L468,170.9z M466.4,197.1
		c-3.7,0-6.7-1.7-6.7-5.5c0-4,3.6-6.2,8.8-6.2h6.3c0.1,0,0.2,0.1,0.2,0.2v5C475,194.9,470.7,197.1,466.4,197.1L466.4,197.1z
		 M497.7,170.9c-3.5,0-6.2,1.3-7.8,3.8c-0.1,0.2-0.2,0.1-0.2-0.1V172c0-0.4-0.3-0.7-0.7-0.7h-1.6c-0.4,0-0.7,0.3-0.7,0.7v26.5
		c0,0.4,0.3,0.7,0.7,0.7h1.6c0.4,0,0.7-0.3,0.7-0.7v-17.7c0-4.3,3-7.3,7.5-7.3c4.2,0,7.1,3,7.1,7.4v17.6c0,0.4,0.3,0.7,0.7,0.7h1.6
		c0.4,0,0.7-0.3,0.7-0.7v-18.1C507.2,174.7,503.3,170.9,497.7,170.9L497.7,170.9z M525.6,170.9c-5.5,0-9.3,2.7-10.1,6.5
		c-0.1,0.3,0.2,0.6,0.6,0.6l1.7,0.2c0.4,0.1,0.7-0.2,0.8-0.6c0.6-2.6,3.1-4.2,6.9-4.2c5.1,0,7.1,2.8,7.1,6.7v2.5
		c0,0.1-0.1,0.2-0.2,0.2h-6.6c-7.1,0-11.4,3.4-11.4,8.8c0,5.7,4.5,7.8,9.1,7.8c3.5,0,6.9-1.2,8.9-3.6c0.2-0.2,0.3-0.1,0.3,0.1v2.4
		c0,0.4,0.3,0.7,0.7,0.7h1.6c0.4,0,0.7-0.3,0.7-0.7v-18.3C535.6,174.6,532.2,170.9,525.6,170.9L525.6,170.9z M524,197.1
		c-3.7,0-6.7-1.7-6.7-5.5c0-4,3.6-6.2,8.8-6.2h6.3c0.1,0,0.2,0.1,0.2,0.2v5C532.6,194.9,528.3,197.1,524,197.1L524,197.1z
		 M545,199.2h1.6c0.4,0,0.7-0.3,0.7-0.7v-37.4c0-0.4-0.3-0.7-0.7-0.7H545c-0.4,0-0.7,0.3-0.7,0.7v37.4
		C544.4,198.9,544.6,199.2,545,199.2L545,199.2z M555.4,210.2h0.4c5.2,0,6.8-1.3,9.2-8.2l10.4-29.9c0.2-0.5-0.1-0.8-0.6-0.8h-1.7
		c-0.4,0-0.6,0.2-0.7,0.6l-7.6,23c-0.1,0.2-0.3,0.2-0.3,0l-7.8-23c-0.1-0.3-0.3-0.6-0.7-0.6h-1.7c-0.4,0-0.7,0.3-0.6,0.8l9.4,26.9
		c0.1,0.1,0.1,0.2,0,0.3c-2.2,6.9-3.2,8.3-7.4,8.3h-0.4c-0.2,0-0.4,0.3-0.4,0.7v1.2C555,210,555.1,210.2,555.4,210.2L555.4,210.2z
		 M593.3,173.1V172c0-0.4-0.3-0.7-0.7-0.7h-6.4c-0.1,0-0.2-0.1-0.2-0.2v-6.2c0-0.4-0.3-0.7-0.7-0.7h-1.5c-0.4,0-0.7,0.3-0.7,0.7v6.2
		c0,0.1-0.1,0.2-0.2,0.2h-3.2c-0.4,0-0.7,0.3-0.7,0.7v1.2c0,0.4,0.3,0.7,0.7,0.7h3.2c0.1,0,0.2,0.1,0.2,0.2v18.2
		c0.1,5.6,3.2,7,7.8,7c0.5,0,1-0.1,1.5-0.1c0.4,0,0.7-0.3,0.7-0.7v-1.3c0-0.4-0.3-0.7-0.7-0.7h-1.2c-3.6,0-5.4-1.2-5.4-5.1V174
		c0-0.1,0.1-0.2,0.2-0.2h6.4C593,173.8,593.3,173.5,593.3,173.1L593.3,173.1z M603.4,165.7c1.5,0,2.5-1.1,2.5-2.4
		c0-1.4-1-2.4-2.5-2.4c-1.4,0-2.5,1-2.5,2.4C600.9,164.7,602,165.7,603.4,165.7L603.4,165.7z M602.7,199.2h1.6
		c0.4,0,0.7-0.3,0.7-0.7V172c0-0.4-0.3-0.7-0.7-0.7h-1.6c-0.4,0-0.7,0.3-0.7,0.7v26.5C602,198.9,602.3,199.2,602.7,199.2
		L602.7,199.2z M625.1,199.6c5.3,0,9.4-2.9,10.4-7c0.1-0.3,0.2-0.7,0.2-0.9c0.1-0.4-0.2-0.7-0.6-0.8l-1.5-0.2
		c-0.4-0.1-0.7,0.1-0.8,0.5l-0.1,0.2c-0.6,3.1-3.6,5.5-7.7,5.5c-4.1,0-6.9-2.4-7.6-5.9c-0.3-1.1-0.5-3-0.5-5.9
		c0-2.7,0.2-4.8,0.5-5.9c0.7-3.4,3.5-5.9,7.6-5.9c4.1,0,7,2.5,7.7,5.5c0.1,0.2,0.1,0.4,0.1,0.7c0.1,0.4,0.4,0.7,0.8,0.6l1.5-0.2
		c0.4-0.1,0.7-0.3,0.6-0.7c-0.1-0.4-0.2-0.9-0.3-1.4c-1-3.8-5-7-10.4-7c-5.3,0-9.2,3-10.3,7.5c-0.4,1.7-0.7,3.7-0.7,6.9
		c0,2.9,0.2,5.1,0.7,6.9C615.9,196.6,619.7,199.6,625.1,199.6L625.1,199.6z M652.1,199.5c6,0,9.9-3.1,9.9-7.7c0-5.3-5.1-6.7-9.8-8.1
		c-3.9-1.2-7.2-2.2-7.2-5.3c0-2.9,2.8-4.8,6.8-4.8c4.4,0,7.1,2.2,7.1,4.9v0.3c0,0.2,0.3,0.4,0.7,0.4h1.5c0.4,0,0.7-0.3,0.7-0.7v-0.1
		c0-4.2-3.9-7.3-9.9-7.3c-5.7,0-9.7,2.9-9.7,7.4c0,5,4.8,6.5,9.4,8c3.9,1.2,7.5,2.1,7.5,5.4c0,2.9-2.8,5.2-7,5.2
		c-4.3,0-7.2-2.4-7.2-5v-0.6c0-0.3-0.3-0.6-0.7-0.6h-1.5c-0.4,0-0.7,0.3-0.7,0.7v0.6C642,196.2,646.1,199.5,652.1,199.5L652.1,199.5
		z M701.9,178.2c-1.2-4.4-4.7-7.3-9.9-7.3c-3.3,0-5.9,1.4-7.5,3.8c-0.1,0.2-0.3,0.1-0.3-0.1V172c0-0.4-0.3-0.7-0.7-0.7H682
		c-0.4,0-0.7,0.3-0.7,0.7v37.4c0,0.4,0.3,0.7,0.7,0.7h1.6c0.4,0,0.7-0.3,0.7-0.7V196c0-0.2,0.2-0.3,0.3-0.1c1.6,2.4,4.2,3.8,7.5,3.8
		c5.2,0,8.8-3,9.9-7.5c0.5-1.9,0.6-4.1,0.6-7C702.5,182.3,702.4,180.1,701.9,178.2L701.9,178.2L701.9,178.2z M698.7,192
		c-0.8,2.9-3.4,5-7,5c-3.5,0-5.9-2.2-6.6-5.1c-0.5-1.4-0.7-2.6-0.7-6.7c0-4,0.2-5.2,0.7-6.5c0.8-2.9,3.1-5.2,6.7-5.2
		c3.6,0,6.4,2.1,7.2,5.2c0.4,1.4,0.7,2.5,0.7,6.6C699.6,189.5,699.2,190.7,698.7,192L698.7,192L698.7,192z M711.7,199.2h1.6
		c0.4,0,0.7-0.3,0.7-0.7v-37.4c0-0.4-0.3-0.7-0.7-0.7h-1.6c-0.4,0-0.7,0.3-0.7,0.7v37.4C711.1,198.9,711.3,199.2,711.7,199.2
		L711.7,199.2z M732.8,170.9c-5.5,0-9.3,2.7-10.1,6.5c-0.1,0.3,0.2,0.6,0.6,0.6l1.7,0.2c0.4,0.1,0.7-0.2,0.8-0.6
		c0.6-2.6,3.2-4.2,6.9-4.2c5.1,0,7.1,2.8,7.1,6.7v2.5c0,0.1-0.1,0.2-0.2,0.2H733c-7.1,0-11.4,3.4-11.4,8.8c0,5.7,4.5,7.8,9.1,7.8
		c3.5,0,6.9-1.2,8.9-3.6c0.2-0.2,0.3-0.1,0.3,0.1v2.4c0,0.4,0.3,0.7,0.7,0.7h1.6c0.4,0,0.7-0.3,0.7-0.7v-18.3
		C742.8,174.6,739.5,170.9,732.8,170.9L732.8,170.9z M731.2,197.1c-3.7,0-6.7-1.7-6.7-5.5c0-4,3.6-6.2,8.8-6.2h6.3
		c0.1,0,0.2,0.1,0.2,0.2v5C739.8,194.9,735.5,197.1,731.2,197.1L731.2,197.1z M763,173.1V172c0-0.4-0.3-0.7-0.7-0.7H756
		c-0.1,0-0.2-0.1-0.2-0.2v-6.2c0-0.4-0.3-0.7-0.7-0.7h-1.5c-0.4,0-0.7,0.3-0.7,0.7v6.2c0,0.1-0.1,0.2-0.2,0.2h-3.2
		c-0.4,0-0.7,0.3-0.7,0.7v1.2c0,0.4,0.3,0.7,0.7,0.7h3.2c0.1,0,0.2,0.1,0.2,0.2v18.2c0.1,5.6,3.2,7,7.8,7c0.5,0,1-0.1,1.5-0.1
		c0.4,0,0.7-0.3,0.7-0.7v-1.3c0-0.4-0.3-0.7-0.7-0.7h-1.2c-3.6,0-5.4-1.2-5.4-5.1V174c0-0.1,0.1-0.2,0.2-0.2h6.4
		C762.7,173.8,763,173.5,763,173.1L763,173.1z M781.4,163.1h1.1c0.4,0,0.7-0.3,0.7-0.7v-1.3c0-0.4-0.3-0.7-0.7-0.7h-1.3
		c-6.6,0-8.3,2.9-8.3,9.1v1.5c0,0.1-0.1,0.2-0.2,0.2h-3.5c-0.4,0-0.7,0.3-0.7,0.7v1.4c0,0.4,0.3,0.7,0.7,0.7h3.5
		c0.1,0,0.2,0.1,0.2,0.2v24.3c0,0.4,0.3,0.7,0.7,0.7h1.6c0.4,0,0.7-0.3,0.7-0.7v-24.3c0-0.1,0.1-0.2,0.2-0.2h6.3
		c0.4,0,0.7-0.3,0.7-0.7V172c0-0.4-0.3-0.7-0.7-0.7H776c-0.1,0-0.2-0.1-0.2-0.2v-1.4C775.8,165.3,776.8,163.1,781.4,163.1
		L781.4,163.1z M797.8,199.6c5.2,0,9.2-3,10.4-7.5c0.5-1.8,0.6-4,0.6-6.9c0-2.8-0.1-5-0.6-6.9c-1.2-4.5-5.1-7.5-10.4-7.5
		c-5.3,0-9.2,3-10.4,7.5c-0.4,1.8-0.6,3.9-0.6,6.9c0,2.8,0.1,5.1,0.7,6.9C788.7,196.6,792.5,199.6,797.8,199.6L797.8,199.6z
		 M797.8,197c-4.1,0-6.9-2.3-7.7-5.9c-0.3-1.2-0.3-3.2-0.3-5.9c0-2.5,0.1-4.6,0.3-5.9c0.8-3.5,3.6-5.9,7.7-5.9c4,0,6.9,2.4,7.7,5.9
		c0.3,1.2,0.3,3.2,0.3,5.9c0,2.4-0.1,4.6-0.3,5.9C804.7,194.7,801.8,197,797.8,197L797.8,197z M828,171.1c-3.4,0-5.9,1.8-7.4,4.6
		c-0.1,0.2-0.2,0.2-0.2-0.1V172c0-0.4-0.3-0.7-0.7-0.7h-1.6c-0.4,0-0.7,0.3-0.7,0.7v26.5c0,0.4,0.3,0.7,0.7,0.7h1.6
		c0.4,0,0.7-0.3,0.7-0.7v-16.4c0-4.4,3-7.9,7.1-8c1.2-0.1,2,0.1,2.7,0.3c0.4,0.2,0.7,0.1,0.8-0.4l0.4-1.6c0.1-0.4,0-0.7-0.3-0.8
		C830.4,171.4,829.4,171.1,828,171.1L828,171.1z M865,170.9c-3.8,0-7,1.5-8.5,4.8c-0.1,0.1-0.2,0.1-0.3-0.1c-1.4-3-4.2-4.7-8.1-4.7
		c-3.3,0-6,1.2-7.6,3.5c-0.1,0.2-0.3,0.1-0.3-0.1V172c0-0.4-0.3-0.7-0.7-0.7H838c-0.4,0-0.7,0.3-0.7,0.7v26.5c0,0.4,0.3,0.7,0.7,0.7
		h1.6c0.4,0,0.7-0.3,0.7-0.7v-18c0-4.3,2.8-7,7.1-7c4,0,6.8,2.7,6.8,7.1v17.9c0,0.4,0.3,0.7,0.7,0.7h1.5c0.4,0,0.7-0.3,0.7-0.7v-18
		c0-4.3,2.9-7,7.1-7c4,0,6.9,2.7,6.9,7.1v17.9c0,0.4,0.3,0.7,0.7,0.7h1.5c0.4,0,0.7-0.3,0.7-0.7v-18.5
		C873.9,174.4,870.3,170.9,865,170.9L865,170.9z"/>
	<path class="st0" d="M338.5,65.1v-7.7c0-1.4-0.9-2.4-2.4-2.4h-16c-0.5,0-0.8-0.3-0.8-0.8V36.7c0-1.4-0.9-2.4-2.4-2.4h-9.7
		c-1.4,0-2.4,0.9-2.4,2.4v17.6c0,0.5-0.3,0.8-0.8,0.8h-8.6c-1.4,0-2.4,0.9-2.4,2.4v7.7c0,1.4,0.9,2.4,2.4,2.4h8.6
		c0.5,0,0.8,0.3,0.8,0.8v46.4c0,16.5,9.4,20.1,24,20.1c2.2,0,4.2-0.2,6.4-0.2c1.6-0.2,2.3-1.1,2.3-2.5v-8.1c0-1.4-0.9-2.4-2.3-2.4
		h-3.8c-8.3,0-12.2-3.3-12.2-12.4V68.2c0-0.5,0.3-0.8,0.8-0.8h16C337.5,67.4,338.5,66.5,338.5,65.1L338.5,65.1z M391.9,54.3
		c-8.6,0-14.9,4.2-19.1,10.7c-0.3,0.6-0.8,0.5-0.8-0.3v-7.2c0-1.4-0.9-2.4-2.4-2.4h-10.3c-1.4,0-2.4,0.9-2.4,2.4v75.1
		c0,1.4,0.9,2.4,2.4,2.4h10.3c1.4,0,2.4-0.9,2.4-2.4v-45c0-10.5,7.4-17.2,16.9-17.5c3-0.3,5.8,0,7.7,0.6c1.6,0.5,2.5,0.3,2.8-1.4
		l2.2-10.2c0.3-1.3,0-2.4-1.3-3C398.3,55,395.6,54.3,391.9,54.3L391.9,54.3z M443.7,53.8c-17.2,0-29.6,8.6-31.5,20.4
		c-0.2,1.1,0.8,1.9,2.2,2l11.3,1.4c1.4,0.2,2.2-0.5,2.7-1.9c1.6-5.5,6.9-8.9,15.7-8.9c11.1,0,16.1,5.6,16.1,14.6v4.1
		c0,0.5-0.3,0.8-0.8,0.8H442c-20.7,0-32.4,10-32.4,26.2c0,16.8,12.1,23.7,26.2,23.7c9.4,0,17.7-3,23.5-8.5c0.5-0.5,0.9-0.2,0.9,0.5
		v4.4c0,1.4,0.9,2.4,2.4,2.4h10.3c1.4,0,2.4-0.9,2.4-2.4V80.3C475.2,64.9,463.3,53.8,443.7,53.8L443.7,53.8z M439.5,123.4
		c-8.3,0-14.9-3.8-14.9-11.8c0-8.8,8-13.6,20.2-13.6h14.6c0.5,0,0.8,0.3,0.8,0.8v9.1C460.2,117.1,450.3,123.4,439.5,123.4
		L439.5,123.4z M527.4,136.1c15.7,0,28.4-8.3,32-21.2c0.3-1.1,0.6-2,0.8-3c0.2-1.4-0.6-2.2-2-2.5l-10.2-1.7c-1.4-0.2-2.5,1.3-2.7,2
		v0.2c0,0,0,0.3-0.2,0.6c-1.9,7.2-8.8,12.5-17.9,12.5c-9.2,0-15.5-5.3-17.6-13.5c-0.8-3.1-1.4-7.8-1.4-14.7c0-6.6,0.6-11.8,1.4-14.9
		c1.9-7.8,8.3-13.2,17.6-13.2c9.6,0,16.3,5.8,17.9,12.5l0.5,2c0.3,1.3,1.3,1.9,2.7,1.7l10.2-1.4c1.4-0.2,2.2-1.1,2-2.5
		c-0.2-1.3-0.5-2.8-1.1-4.4c-3.4-11.8-15.8-21-32-21c-15.8,0-27.9,8.6-32,21.9c-1.4,4.9-2.4,10.5-2.4,19c0,7.5,0.6,13.6,2.4,19
		C499.7,127.3,511.4,136.1,527.4,136.1L527.4,136.1z"/>
	<polygon class="st0" points="24.6,23.2 56.2,23.2 62.3,17.1 18.5,17.1 18.5,60.9 24.6,54.8 24.6,23.2 	"/>
	<polygon class="st0" points="194.2,23.2 194.2,52.9 200.4,59 200.4,17.1 158.4,17.1 164.5,23.2 194.2,23.2 	"/>
	<polygon class="st0" points="194.2,192.8 169.3,192.8 163.1,198.9 200.4,198.9 200.4,161.7 194.2,167.8 194.2,192.8 	"/>
	<polygon class="st0" points="24.6,192.8 24.6,166 18.5,159.8 18.5,198.9 57.6,198.9 51.5,192.8 24.6,192.8 	"/>
	<path class="st0" d="M134.6,0H86.2L0,86.2v48.3l86.2,86.2h48.4l86.2-86.2V86.2L134.6,0L134.6,0z M76.1,109.3l33.1-33.1l35.4,35.3
		l-33.1,33.1L76.1,109.3L76.1,109.3z M71.8,104.9l-18-18l79.5-79.6l81.3,81.3v37.2L132.7,44L71.8,104.9L71.8,104.9z M125.9,6.1
		L45.1,86.9l62,62L88,168.1L7.4,87.5L88.7,6.1H125.9L125.9,6.1z M88,176.7l60.9-60.9l18,18l-79.5,79.5L6.1,132l0-37.2L88,176.7
		L88,176.7z M94.8,214.6l80.8-80.8l-62.1-62l19.2-19.2l80.6,80.6L132,214.6H94.8L94.8,214.6z"/>
</g>
</svg>
