<?xml version="1.0" encoding="utf-8"?>
<!-- Generator: Adobe Illustrator 24.1.0, SVG Export Plug-In . SVG Version: 6.00 Build 0)  -->
<svg version="1.1" id="Layer_1" xmlns="http://www.w3.org/2000/svg" xmlns:xlink="http://www.w3.org/1999/xlink" x="0px" y="0px"
	 viewBox="0 0 486.93 148.2" style="enable-background:new 0 0 486.93 148.2;" xml:space="preserve">
<style type="text/css">
	.st0{fill:#0B1F41;}
	.st1{fill:#5297C9;}
	.st2{fill:#1670A0;}
	.st3{fill:#2089C1;}
	.st4{fill:#0880B7;}
	.st5{fill:#FFFFFF;}
	.st6{fill:#F05323;}
	.st7{fill:#F58220;}
	.st8{fill:#0586BF;}
</style>
<g>
	<path class="st0" d="M148.2,74.1C148.2,33.17,115.02,0,74.1,0C33.17,0,0,33.17,0,74.1c0,22.38,9.94,42.43,25.62,56.02
		c24.67-8.35,44.36-20.15,48.48-51.18c0,0,19.47,36.01-17.96,67.06c5.75,1.43,11.77,2.2,17.96,2.2
		C115.02,148.2,148.2,115.02,148.2,74.1"/>
	<path class="st1" d="M74.1,148.2c-6.05,0-11.93-0.74-17.56-2.1c2.72,0.66,5.5,1.17,8.33,1.53c0,0,0.01,0,0.01,0
		c0.03,0,0.06,0.01,0.1,0.01C67.96,148,71.01,148.2,74.1,148.2L74.1,148.2L74.1,148.2L74.1,148.2c0.03,0,0.06,0,0.08,0
		c0.01,0,0.01,0,0.02,0c0.03,0,0.06,0,0.09,0c0,0,0,0,0,0c1.04,0,2.06-0.03,3.09-0.07C76.29,148.17,75.2,148.2,74.1,148.2
		 M77.39,148.12c0.01,0,0.02,0,0.04,0C77.41,148.12,77.4,148.12,77.39,148.12 M25.62,130.11c-0.12-0.11-0.24-0.21-0.37-0.32
		C25.38,129.9,25.5,130.01,25.62,130.11L25.62,130.11C25.62,130.11,25.62,130.11,25.62,130.11c9.52-3.22,18.3-6.96,25.73-12.12
		C43.93,123.15,35.15,126.89,25.62,130.11 M25.25,129.79c-0.01-0.01-0.03-0.02-0.04-0.03C25.23,129.77,25.24,129.78,25.25,129.79
		 M25.21,129.75c-0.01-0.01-0.02-0.02-0.03-0.03C25.19,129.73,25.2,129.74,25.21,129.75 M25.16,129.71c0,0-0.01-0.01-0.01-0.01
		C25.15,129.7,25.16,129.71,25.16,129.71 M78.31,92.12c-1.44-8.03-4.19-13.15-4.21-13.18l0,0C74.12,78.97,76.88,84.09,78.31,92.12"
		/>
	<path class="st2" d="M74.1,148.2c-3.09,0-6.13-0.19-9.12-0.56C67.96,148,71.01,148.2,74.1,148.2L74.1,148.2 M74.1,148.2
		c0.03,0,0.06,0,0.08,0C74.16,148.2,74.13,148.2,74.1,148.2 M74.2,148.2c0.03,0,0.06,0,0.09,0C74.25,148.2,74.23,148.2,74.2,148.2
		 M74.29,148.2c7.93-0.02,15.56-1.3,22.72-3.63c19.64-38.83-20.73-67.52-22.91-67.52c15.59,0,41.89,13.45,50.77,50.99
		c-12.51,11.78-29.11,19.27-47.45,20.08c-0.01,0-0.02,0-0.04,0c0,0-0.01,0-0.01,0C76.35,148.17,75.32,148.19,74.29,148.2
		 M64.88,147.62C64.88,147.62,64.87,147.62,64.88,147.62C64.87,147.62,64.88,147.62,64.88,147.62 M56.14,145.99L56.14,145.99
		c23.31-19.33,24.55-40.58,22.17-53.87c-1.44-8.03-4.19-13.15-4.21-13.18l0,0C74.1,78.94,93.57,114.95,56.14,145.99 M25.62,130.11
		c-0.12-0.11-0.24-0.21-0.37-0.32c0,0,0,0,0,0c-0.01-0.01-0.02-0.02-0.04-0.03c0,0-0.01-0.01-0.01-0.01
		c-0.01-0.01-0.02-0.02-0.03-0.03c-0.01-0.01-0.01-0.01-0.01-0.01c0,0-0.01-0.01-0.01-0.01C12.21,118.3,3.3,102.45,0.76,84.55
		c15.93,4.55,32.15,8,45.33,8c14.43,0,25.22-4.14,28.01-15.51l0,0c-5.34,31.07-41.7,35.6-60.62,39.6
		C16.97,121.61,21.04,126.15,25.62,130.11C25.62,130.11,25.62,130.11,25.62,130.11"/>
	<path class="st1" d="M51.35,117.99c11.82-8.21,20.22-20.01,22.74-39.06l0,0C71.57,97.99,63.17,109.79,51.35,117.99"/>
	<path class="st3" d="M74.1,148.2L74.1,148.2L74.1,148.2L74.1,148.2 M74.18,148.2c0.01,0,0.01,0,0.02,0
		C74.19,148.2,74.19,148.2,74.18,148.2 M74.28,148.2L74.28,148.2C74.29,148.2,74.29,148.2,74.28,148.2 M64.98,147.63
		c-0.03,0-0.06-0.01-0.1-0.01C64.91,147.63,64.94,147.63,64.98,147.63 M64.87,147.62c-2.83-0.35-5.61-0.87-8.33-1.53
		c-0.14-0.03-0.27-0.07-0.4-0.1l0,0C58.99,146.7,61.9,147.25,64.87,147.62 M25.62,130.11L25.62,130.11
		c24.67-8.35,44.36-20.15,48.48-51.18l0,0l0,0l0,0c-2.53,19.05-10.93,30.85-22.74,39.06C43.93,123.15,35.15,126.89,25.62,130.11"/>
	<path class="st4" d="M74.1,148.2c-3.09,0-6.13-0.19-9.12-0.56c-0.03,0-0.06-0.01-0.1-0.01c0,0-0.01,0-0.01,0
		c-2.97-0.37-5.88-0.92-8.73-1.63C93.57,114.95,74.1,78.94,74.1,78.94l0,0l0,0c-4.12,31.02-23.8,42.82-48.48,51.18
		c-4.58-3.97-8.65-8.5-12.15-13.47c18.93-4,55.29-8.52,60.62-39.6l0,0c2.18,0,42.55,28.69,22.91,67.52
		c-7.16,2.32-14.79,3.61-22.72,3.63h0c-0.03,0-0.06,0-0.09,0c-0.01,0-0.01,0-0.02,0C74.15,148.2,74.13,148.2,74.1,148.2L74.1,148.2"
		/>
	<path class="st5" d="M86.9,36.05c0-10.01-12.79-27.86-12.79-27.86S61.32,26.04,61.32,36.05s12.79,28.64,12.79,37.26
		C74.11,64.69,86.9,46.06,86.9,36.05L86.9,36.05z"/>
	<path class="st5" d="M79.67,62.34c3.79,1.75,9.6,5.34,9.6,10.97c5.38-9.67-1.21-19.33-4.22-22.96
		C83.3,54.38,81.3,58.52,79.67,62.34L79.67,62.34z"/>
	<path class="st5" d="M68.52,62.34c-3.79,1.75-9.6,5.34-9.6,10.97c-5.38-9.67,1.21-19.33,4.22-22.96
		C64.9,54.38,66.89,58.52,68.52,62.34L68.52,62.34z"/>
	<path class="st6" d="M82.34,77.68c0-4.57-1.92-8.5-4.68-10.35c-1.34,2.64-3.55,8.9-3.55,11.53c0-2.68-2.11-9.08-3.33-11.68
		c-2.88,1.79-4.9,5.81-4.9,10.49c0,6.34,6.67,18.77,8.23,18.77C75.67,96.45,82.34,84.02,82.34,77.68L82.34,77.68z"/>
	<path class="st7" d="M79.44,76.93c0-2.96-1.24-5.51-3.04-6.71c-0.87,1.71-2.3,5.78-2.3,7.48c0-1.74-1.37-5.89-2.16-7.58
		c-1.87,1.16-3.18,3.77-3.18,6.81c0,4.11,4.33,12.18,5.34,12.18S79.44,81.04,79.44,76.93L79.44,76.93z"/>
	<path class="st0" d="M179.21,129.14h5.14v-12.36h14.14v12.36h5.14V99.81h-5.14V112h-14.14V99.81h-5.14V129.14L179.21,129.14z
		 M225.8,117.49l5.05-11.73l5.09,11.73H225.8L225.8,117.49z M215.57,129.14h5.3l3.03-7.08h13.93l2.99,7.08h5.47L233.34,99.6h-4.8
		L215.57,129.14L215.57,129.14z M258.25,129.14h5.14v-20.87l16.21,20.87h4.33V99.81h-5.14v20.28l-15.75-20.28h-4.79V129.14
		L258.25,129.14z M303.54,124.49v-20.03h5.81c1.54,0,2.95,0.25,4.21,0.76c1.26,0.51,2.34,1.2,3.22,2.08
		c0.88,0.88,1.57,1.94,2.06,3.18c0.49,1.23,0.74,2.57,0.74,4v0.08c0,1.43-0.25,2.76-0.74,3.98c-0.49,1.22-1.18,2.27-2.06,3.16
		c-0.88,0.88-1.96,1.57-3.22,2.06c-1.26,0.49-2.67,0.74-4.21,0.74H303.54L303.54,124.49z M298.41,129.14h10.98
		c2.3,0,4.41-0.38,6.33-1.13c1.92-0.75,3.58-1.79,4.97-3.1c1.39-1.31,2.46-2.86,3.22-4.65c0.76-1.79,1.14-3.71,1.14-5.78v-0.08
		c0-2.07-0.38-3.99-1.14-5.76c-0.76-1.77-1.83-3.32-3.22-4.63c-1.39-1.31-3.04-2.34-4.97-3.08c-1.92-0.74-4.03-1.11-6.33-1.11
		h-10.98V129.14L298.41,129.14z M343.36,124.57v-8.05h8.18c2.04,0,3.56,0.34,4.55,1.03c0.99,0.69,1.49,1.65,1.49,2.91v0.08
		c0,1.34-0.5,2.35-1.51,3.02c-1.01,0.67-2.39,1.01-4.15,1.01H343.36L343.36,124.57z M343.36,112.17v-7.79h7.42
		c1.68,0,2.96,0.33,3.84,0.98c0.88,0.66,1.32,1.57,1.32,2.74v0.08c0,1.34-0.5,2.34-1.51,3c-1.01,0.66-2.35,0.98-4.03,0.98H343.36
		L343.36,112.17z M338.22,129.14h13.61c1.63,0,3.11-0.17,4.46-0.52c1.34-0.35,2.49-0.86,3.44-1.53c0.95-0.67,1.69-1.51,2.21-2.51
		c0.52-1.01,0.78-2.16,0.78-3.48v-0.08c0-1.01-0.14-1.89-0.42-2.64c-0.28-0.75-0.68-1.41-1.19-1.97c-0.52-0.56-1.13-1.04-1.84-1.44
		c-0.71-0.4-1.5-0.76-2.36-1.07c0.53-0.28,1.05-0.61,1.57-1.01c0.51-0.39,0.96-0.84,1.34-1.36c0.38-0.52,0.68-1.12,0.92-1.8
		c0.24-0.69,0.36-1.47,0.36-2.37v-0.08c0-1.93-0.66-3.55-1.97-4.86c-1.74-1.73-4.3-2.6-7.69-2.6h-13.19V129.14L338.22,129.14z
		 M385.63,124.07c-1.23-0.56-2.28-1.31-3.16-2.24c-0.88-0.94-1.57-2.04-2.05-3.31c-0.49-1.27-0.73-2.62-0.73-4.04v-0.08
		c0-1.43,0.24-2.77,0.73-4.02c0.49-1.26,1.17-2.35,2.03-3.29c0.87-0.94,1.91-1.68,3.12-2.22c1.21-0.55,2.55-0.82,4-0.82
		c1.45,0,2.79,0.28,4.02,0.84c1.23,0.56,2.28,1.31,3.16,2.24c0.88,0.94,1.56,2.04,2.05,3.31c0.49,1.27,0.73,2.62,0.73,4.04v0.08
		c0,1.42-0.25,2.77-0.73,4.02c-0.49,1.26-1.17,2.35-2.03,3.29c-0.87,0.94-1.91,1.68-3.12,2.22c-1.21,0.54-2.55,0.82-4,0.82
		S386.86,124.63,385.63,124.07L385.63,124.07z M395.8,128.43c1.88-0.81,3.51-1.91,4.88-3.29s2.44-2.99,3.2-4.82
		c0.76-1.83,1.14-3.78,1.14-5.85v-0.08c0-2.07-0.38-4.02-1.14-5.85c-0.76-1.83-1.81-3.43-3.16-4.8c-1.35-1.37-2.96-2.45-4.84-3.25
		c-1.88-0.8-3.96-1.19-6.23-1.19c-2.27,0-4.35,0.4-6.23,1.21c-1.88,0.81-3.51,1.91-4.88,3.29c-1.38,1.38-2.44,2.99-3.2,4.82
		c-0.76,1.83-1.14,3.78-1.14,5.85v0.08c0,2.07,0.38,4.02,1.14,5.85c0.76,1.83,1.81,3.43,3.16,4.8c1.35,1.37,2.96,2.45,4.84,3.25
		c1.88,0.8,3.96,1.19,6.23,1.19C391.85,129.64,393.92,129.24,395.8,128.43L395.8,128.43z M428.31,124.07
		c-1.23-0.56-2.28-1.31-3.16-2.24c-0.88-0.94-1.56-2.04-2.05-3.31c-0.49-1.27-0.73-2.62-0.73-4.04v-0.08c0-1.43,0.24-2.77,0.73-4.02
		c0.49-1.26,1.17-2.35,2.03-3.29c0.87-0.94,1.91-1.68,3.12-2.22c1.21-0.55,2.55-0.82,4-0.82s2.79,0.28,4.02,0.84
		c1.23,0.56,2.28,1.31,3.16,2.24c0.88,0.94,1.56,2.04,2.05,3.31c0.49,1.27,0.73,2.62,0.73,4.04v0.08c0,1.42-0.24,2.77-0.73,4.02
		c-0.49,1.26-1.17,2.35-2.03,3.29c-0.87,0.94-1.91,1.68-3.12,2.22c-1.21,0.54-2.55,0.82-4,0.82S429.54,124.63,428.31,124.07
		L428.31,124.07z M438.48,128.43c1.88-0.81,3.51-1.91,4.88-3.29s2.44-2.99,3.2-4.82c0.76-1.83,1.14-3.78,1.14-5.85v-0.08
		c0-2.07-0.38-4.02-1.14-5.85c-0.76-1.83-1.81-3.43-3.16-4.8c-1.35-1.37-2.96-2.45-4.84-3.25c-1.88-0.8-3.96-1.19-6.23-1.19
		c-2.27,0-4.35,0.4-6.23,1.21c-1.88,0.81-3.51,1.91-4.88,3.29s-2.44,2.99-3.2,4.82c-0.76,1.83-1.14,3.78-1.14,5.85v0.08
		c0,2.07,0.38,4.02,1.14,5.85c0.76,1.83,1.81,3.43,3.16,4.8c1.35,1.37,2.96,2.45,4.84,3.25c1.88,0.8,3.96,1.19,6.23,1.19
		C434.52,129.64,436.6,129.24,438.48,128.43L438.48,128.43z M460.87,129.14h5.14v-8.51l4.59-4.69l10.06,13.2h6.27l-12.79-16.72
		l12.25-12.61h-6.36l-14.02,14.75V99.81h-5.14V129.14L460.87,129.14z"/>
	<path class="st8" d="M205.69,65.12c-1.92-0.89-3.56-2.09-4.93-3.6c-1.37-1.5-2.43-3.23-3.19-5.2c-0.76-1.96-1.13-4.04-1.13-6.24
		v-0.17c0-2.19,0.36-4.27,1.09-6.24c0.73-1.96,1.77-3.68,3.14-5.16s3-2.64,4.89-3.51c1.89-0.87,4-1.3,6.33-1.3
		c2.33,0,4.45,0.45,6.37,1.34c1.92,0.9,3.58,2.09,4.97,3.6c1.39,1.5,2.47,3.24,3.23,5.2c0.76,1.96,1.14,4.04,1.14,6.24v0.17
		c0,2.2-0.38,4.28-1.14,6.24c-0.76,1.96-1.8,3.68-3.14,5.16c-1.34,1.47-2.97,2.64-4.89,3.51c-1.92,0.87-4.04,1.3-6.37,1.3
		C209.73,66.47,207.61,66.02,205.69,65.12L205.69,65.12z M224.98,79.16c4-1.65,7.48-3.9,10.44-6.76c2.96-2.86,5.27-6.21,6.92-10.05
		c1.65-3.84,2.48-7.93,2.48-12.26v-0.17c0-4.33-0.83-8.4-2.48-12.22c-1.65-3.81-3.93-7.13-6.83-9.96c-2.9-2.83-6.35-5.07-10.36-6.71
		c-4-1.65-8.35-2.47-13.05-2.47c-4.7,0-9.05,0.82-13.05,2.47c-4,1.65-7.48,3.9-10.44,6.76c-2.96,2.86-5.26,6.21-6.92,10.05
		c-1.65,3.84-2.48,7.93-2.48,12.26v0.17c0,4.33,0.83,8.4,2.48,12.22c1.65,3.81,3.93,7.13,6.83,9.96c2.9,2.83,6.35,5.07,10.36,6.71
		c4,1.65,8.35,2.47,13.05,2.47C216.63,81.63,220.98,80.81,224.98,79.16L224.98,79.16z M287.64,80.12c3.02-0.89,5.6-2.19,7.75-3.89
		c2.14-1.7,3.81-3.76,5-6.18c1.19-2.42,1.78-5.19,1.78-8.3v-0.17c0-2.82-0.52-5.26-1.57-7.31c-1.04-2.05-2.55-3.79-4.52-5.23
		c-1.97-1.44-4.37-2.67-7.18-3.68c-2.81-1.01-5.96-1.89-9.44-2.64c-2.09-0.46-3.82-0.91-5.18-1.34c-1.36-0.43-2.44-0.86-3.22-1.3
		c-0.78-0.43-1.34-0.91-1.65-1.43c-0.32-0.52-0.48-1.12-0.48-1.82v-0.17c0-1.1,0.51-2.02,1.52-2.77c1.02-0.75,2.54-1.12,4.57-1.12
		c2.73,0,5.55,0.51,8.49,1.52c2.93,1.01,5.79,2.5,8.57,4.46l8.44-11.91c-3.31-2.67-7.01-4.69-11.1-6.06
		c-4.09-1.37-8.75-2.05-13.97-2.05c-3.66,0-6.93,0.48-9.83,1.43c-2.9,0.95-5.38,2.29-7.44,4.02c-2.06,1.73-3.63,3.78-4.7,6.14
		c-1.07,2.36-1.61,4.96-1.61,7.78v0.17c0,3.11,0.59,5.72,1.78,7.83c1.19,2.11,2.81,3.86,4.87,5.28c2.06,1.41,4.48,2.57,7.27,3.46
		c2.78,0.89,5.8,1.72,9.05,2.46c2.09,0.46,3.79,0.91,5.09,1.34c1.31,0.43,2.35,0.88,3.13,1.34c0.78,0.46,1.32,0.94,1.61,1.43
		c0.29,0.49,0.44,1.05,0.44,1.69v0.17c0,1.33-0.6,2.35-1.79,3.07c-1.19,0.72-2.91,1.08-5.18,1.08c-7.08,0-13.66-2.43-19.76-7.28
		l-9.4,11.2c3.77,3.37,8.11,5.9,13.01,7.58c4.9,1.68,10.08,2.53,15.53,2.53C281.26,81.46,284.63,81.01,287.64,80.12L287.64,80.12z
		 M310.36,80.42h46.39V65.69h-29.5V19.77h-16.88V80.42L310.36,80.42z M402.39,80.59c2.7-0.69,5.13-1.65,7.31-2.86
		c2.18-1.21,4.12-2.66,5.83-4.33c1.71-1.67,3.29-3.49,4.74-5.46l-12.71-9.01c-0.93,1.1-1.87,2.09-2.83,2.99
		c-0.96,0.9-1.97,1.68-3.05,2.34c-1.07,0.66-2.26,1.17-3.57,1.52c-1.31,0.35-2.74,0.52-4.31,0.52c-2.15,0-4.11-0.42-5.88-1.26
		c-1.77-0.84-3.29-1.98-4.57-3.42c-1.28-1.44-2.28-3.16-3-5.16c-0.73-1.99-1.09-4.12-1.09-6.37v-0.17c0-2.19,0.36-4.27,1.09-6.24
		c0.73-1.96,1.73-3.67,3-5.11c1.28-1.44,2.8-2.58,4.57-3.42c1.77-0.84,3.73-1.26,5.88-1.26c2.96,0,5.48,0.64,7.57,1.91
		c2.09,1.27,4,3,5.74,5.2l12.71-9.79c-1.34-1.85-2.86-3.55-4.57-5.11c-1.71-1.56-3.63-2.9-5.74-4.03c-2.12-1.13-4.45-1.99-7.01-2.6
		c-2.55-0.61-5.4-0.91-8.53-0.91c-4.64,0-8.92,0.81-12.84,2.43c-3.92,1.62-7.3,3.86-10.14,6.71c-2.84,2.86-5.08,6.21-6.7,10.05
		c-1.63,3.84-2.44,7.96-2.44,12.35v0.17c0,4.51,0.83,8.68,2.48,12.52c1.65,3.84,3.89,7.16,6.7,9.96c2.81,2.8,6.14,4.98,9.97,6.54
		c3.83,1.56,7.92,2.34,12.27,2.34C396.66,81.63,399.69,81.28,402.39,80.59L402.39,80.59z"/>
</g>
</svg>
