<?xml version="1.0" encoding="UTF-8"?>
<svg id="Layer_1" data-name="Layer 1" xmlns="http://www.w3.org/2000/svg" version="1.1" viewBox="0 0 720 159">
  <defs>
    <style>
      .cls-1 {
        fill: #692832;
      }

      .cls-1, .cls-2 {
        stroke-width: 0px;
      }

      .cls-2 {
        fill: #c72731;
      }
    </style>
  </defs>
  <polygon class="cls-2" points="135.8 98.4 158.4 79.5 135.8 60.6 135.8 67.4 95.8 67.4 95.8 91.6 135.8 91.6 135.8 98.4 135.8 98.4"/>
  <polygon class="cls-2" points="22.6 98.4 0 79.5 22.6 60.6 22.6 67.4 62.6 67.4 62.6 91.6 22.6 91.6 22.6 98.4 22.6 98.4"/>
  <polygon class="cls-2" points="98.1 136.4 79.2 159 60.4 136.4 67.1 136.4 67.1 96.4 91.3 96.4 91.3 136.4 98.1 136.4 98.1 136.4"/>
  <polygon class="cls-1" points="38.5 38.5 38.5 62.6 62.6 62.6 62.6 38.5 38.5 38.5 38.5 38.5"/>
  <polygon class="cls-1" points="38.5 96.4 38.5 120.5 62.6 120.5 62.6 96.4 38.5 96.4 38.5 96.4"/>
  <polygon class="cls-1" points="67.1 67.4 67.1 91.6 91.3 91.6 91.3 67.4 67.1 67.4 67.1 67.4"/>
  <polygon class="cls-1" points="95.8 38.5 95.8 62.6 120 62.6 120 38.5 95.8 38.5 95.8 38.5"/>
  <polygon class="cls-1" points="95.8 96.4 95.8 120.5 120 120.5 120 96.4 95.8 96.4 95.8 96.4"/>
  <polygon class="cls-2" points="98.1 22.6 79.2 0 60.4 22.6 67.1 22.6 67.1 62.6 91.3 62.6 91.3 22.6 98.1 22.6 98.1 22.6"/>
  <path class="cls-1" d="M200.1,117.5h17.2v-31.2h32.9v31.2h17.2V41.5h-17.2v29.2h-32.9v-29.2h-17.2v76h0ZM301.8,117.5h17.3v-60.8h24.5v-15.1h-66.4v15.1h24.6v60.8h0ZM405.3,92.8c-1.1,1.3-2.3,2.6-3.5,3.8-1.2,1.3-2.6,2.4-4.2,3.3-1.6,1-3.3,1.7-5.4,2.3-2,.6-4.4.9-7.1.9s-6.3-.6-9-1.8c-2.7-1.2-4.9-2.9-6.8-5-1.9-2.1-3.4-4.6-4.4-7.5-1-2.9-1.5-6-1.5-9.3s.5-6.4,1.5-9.3c1-2.9,2.5-5.5,4.4-7.7,1.9-2.2,4.2-3.9,6.9-5.2,2.7-1.3,5.8-1.9,9.2-1.9s8,1,11.2,2.9c3.1,1.9,5.8,4.5,8.1,7.7l11.7-11.3c-3.5-4.9-7.9-8.6-13.2-11.2-5.3-2.6-11.4-3.9-18.5-3.9s-11.2,1-16,3.1c-4.8,2.1-9,4.9-12.4,8.5-3.5,3.6-6.1,7.9-8,12.8-1.9,4.9-2.8,10.2-2.8,15.8s.9,11.1,2.8,15.9c1.9,4.8,4.6,9,8,12.5,3.5,3.5,7.6,6.3,12.4,8.3,4.8,2,10.1,3,15.8,3s6.9-.4,10.1-1.3c3.2-.8,6.2-2,9-3.4,2.8-1.4,5.3-3.1,7.6-5.1,2.3-1.9,4.2-4,5.8-6.2l-11.7-10.7h0ZM506.6,89.6h13.4v9.6c-2,1.6-4.2,2.8-6.7,3.5-2.5.7-5.3,1.1-8.3,1.1s-6.3-.6-9.1-1.7c-2.8-1.1-5.2-2.8-7.2-4.8-2-2.1-3.6-4.6-4.8-7.6-1.1-3-1.7-6.3-1.7-9.9s.5-6.5,1.5-9.5c1-3,2.4-5.5,4.3-7.7,1.9-2.2,4.2-3.9,6.9-5.2,2.7-1.3,5.8-1.9,9.3-1.9s7.8.9,10.8,2.7c2.9,1.8,5.6,4.2,8,7.1l11.6-11c-3.4-4.6-7.7-8.1-12.9-10.6-5.2-2.5-11.3-3.8-18.2-3.8s-11.2,1-15.9,3.1c-4.8,2.1-8.9,4.9-12.4,8.5-3.5,3.6-6.2,7.8-8.1,12.7-1.9,4.9-2.8,10.1-2.8,15.8s.9,11.2,2.7,16.1c1.8,4.9,4.4,9,7.8,12.5,3.4,3.5,7.6,6.2,12.5,8.1,4.9,1.9,10.5,2.9,16.7,2.9s12.8-.9,18.1-2.8c5.3-1.9,9.9-4.5,13.8-7.9v-32.9h-29.3v13.9h0ZM549.6,117.5h16.7v-27.9h9.6l14.1,27.9h18.9l-16.9-30.4c3.9-2.2,7-5.1,9.2-8.8,2.2-3.7,3.2-8,3.2-12.9s-.6-6.3-1.7-9.2c-1.1-2.9-2.8-5.4-5-7.6-2.2-2.2-5-3.9-8.4-5.1-3.3-1.3-7.2-1.9-11.6-1.9h-28.2v76h0ZM566.4,75.8v-20.2h10.6c3.2,0,5.7.9,7.5,2.7,1.8,1.8,2.7,4.3,2.7,7.4s-.9,5.3-2.7,7.2c-1.8,1.9-4.3,2.8-7.5,2.8h-10.6ZM618.8,117.5h17.2V41.5h-17.2v76h0ZM650.8,117.5h28.6c5.8,0,11.3-.8,16.2-2.3,5-1.6,9.3-3.9,12.9-7.1,3.6-3.1,6.4-7.1,8.5-11.7,2-4.7,3.1-10.2,3.1-16.5s-1-12.3-3-17.2c-2-4.9-4.8-8.8-8.4-12-3.6-3.1-7.9-5.4-12.9-6.9-5-1.5-10.4-2.3-16.2-2.3h-28.7v76h0ZM668,102.2v-45.6h10.5c4.1,0,7.6.6,10.6,1.7,3,1.1,5.4,2.7,7.3,4.7,1.9,2,3.4,4.4,4.3,7.3.9,2.8,1.4,6,1.4,9.5,0,7-2.1,12.5-6.2,16.5-4.1,4-9.9,6-17.5,6h-10.5Z"/>
  <polygon class="cls-2" points="424.4 67.4 424.4 91.6 448.5 91.6 448.5 67.4 424.4 67.4 424.4 67.4"/>
</svg>