<?xml version="1.0" encoding="utf-8"?>
<!-- Generator: Adobe Illustrator 25.0.0, SVG Export Plug-In . SVG Version: 6.00 Build 0)  -->
<svg version="1.1" id="Layer_1" xmlns="http://www.w3.org/2000/svg" xmlns:xlink="http://www.w3.org/1999/xlink" x="0px" y="0px"
	 viewBox="0 0 724.5 144.1" style="enable-background:new 0 0 724.5 144.1;" xml:space="preserve">
<style type="text/css">
	.st0{fill:#00000A;}
</style>
<g>
	<path class="st0" d="M144.1,139.6V4.5c0-2.5-2-4.5-4.5-4.5H4.5C2,0,0,2,0,4.5v135.1c0,2.5,2,4.5,4.5,4.5h135.1
		C142.1,144.1,144.1,142.1,144.1,139.6L144.1,139.6z M103,90.1c0,6.4-3.7,11.8-9.5,14.6L72,115.8l-21.5-11.2
		c-5.8-2.8-9.4-8.2-9.4-14.6V78.5L54,82.4v7.7c0,1.4,0.9,2.4,2.3,3.1L72,101l15.7-7.8c1.5-0.7,2.4-1.7,2.4-3.1V79.8L41.1,65.6V42.5
		c0-3.2,1.7-6.1,4.5-7.7c4.1-2.4,13-6.5,26.5-6.5c13.4,0,22.4,4.1,26.5,6.5c2.7,1.6,4.5,4.6,4.5,7.7v15.4L90.1,54v-9.2
		c-3.5-1.7-9.5-3.7-18-3.7c-8.6,0-14.5,2-18,3.7v11.8L103,70.8V90.1L103,90.1z"/>
	<path class="st0" d="M214.9,72c-10.4,0-19.2-3.4-27.2-8.4l4.9-7.5c8,5.1,15.3,7.6,23.5,7.6c9.6,0,14.1-3.7,14.1-8.1
		c0-12.5-40.7-5-40.7-24.9c0-9.7,9.7-17.3,25.3-17.3c10.5,0,19.6,3.9,25,9.3l-6.1,6.2c-4.6-4-11.7-7.2-19.1-7.2
		c-9.1,0-15.3,3.3-15.3,8c0,11.6,40.8,5.4,40.8,25C240.2,65.1,229.7,72,214.9,72L214.9,72z M280.1,48.1v22h-9.9V48l-24.7-32.7H257
		l18.5,25.3l17.5-25.3h11.3L280.1,48.1L280.1,48.1z M373.2,70.1V27.2l-2.7,5.8l-19.4,37.1h-5.9L326,33l-2.7-5.8v42.9h-9.5V15.3h13.7
		L346,52.1l2.5,5.6l2.6-5.6l18.2-36.8h13.6v54.8H373.2L373.2,70.1z M436.5,31.6c0-4.5-3-7.9-10.5-7.9h-18.2v17.7h18.6
		c7.5,0,10.1-3.6,10.1-8.1V31.6L436.5,31.6z M424.9,49.4h-17.1v20.6h-9.9V15.3h27c15,0,21.5,6.7,21.5,16.3v1.5
		C446.5,42.6,439.9,49.4,424.9,49.4L424.9,49.4z M500.2,70.1V46.5h-33v23.6h-9.9V15.3h9.9v23.2h33V15.3h9.9v54.8H500.2L500.2,70.1z
		 M569.7,39.3c0-9.4-6.5-17.4-18.5-17.4c-12,0-18.4,8.1-18.4,17.4V46c0,9.4,6.4,17.6,18.4,17.6c12,0,18.5-8.2,18.5-17.6V39.3
		L569.7,39.3z M551.2,72c-17.6,0-28.4-12.5-28.4-25.9v-6.8c0-13.6,10.8-25.9,28.4-25.9c17.7,0,28.4,12.3,28.4,25.9v6.8
		C579.6,59.6,568.8,72,551.2,72L551.2,72z M636.6,70.1l-30.7-34.6l-3.9-5.1v39.7h-9.8V15.3h9.1L631,50l4,5.1V15.3h9.7v54.8H636.6
		L636.6,70.1z M688.6,48.1v22h-9.9V48l-24.7-32.7h11.5l18.5,25.3l17.5-25.3H713L688.6,48.1L688.6,48.1z"/>
	<path class="st0" d="M191.9,130.7h7.2V98.1h-7.2V130.7L191.9,130.7z M207.2,130.7h7.1V110l15.8,20.7h6.1V98.1h-7.1v20l-15.3-20
		h-6.6V130.7L207.2,130.7z M251.5,130.7h7.2v-26h9.9v-6.6h-27v6.6h9.9V130.7L251.5,130.7z M274.1,130.7h24.8v-6.4h-17.7v-6.8h15.4
		v-6.4h-15.4v-6.6h17.4v-6.4h-24.6V130.7L274.1,130.7z M320.9,131.2c6,0,10.6-2.3,13.9-5.2v-14.1h-14.1v6.2h7.2v4.7
		c-1.8,1.3-4.1,2-6.7,2c-5.8,0-9.9-4.4-9.9-10.3v-0.1c0-5.5,4.1-10.1,9.4-10.1c3.8,0,6,1.2,8.5,3.3l4.5-5.4
		c-3.4-2.9-6.9-4.5-12.8-4.5c-9.9,0-17.1,7.6-17.1,16.8v0.1C303.8,124.1,310.8,131.2,320.9,131.2L320.9,131.2z M341.7,130.7h7.2
		v-10.4h5.6l7,10.4h8.4l-8-11.6c4.1-1.5,7-4.8,7-10.1v-0.1c0-3.1-1-5.6-2.8-7.4c-2.1-2.1-5.3-3.3-9.5-3.3h-14.9V130.7L341.7,130.7z
		 M348.9,113.9v-9.4h7.1c3.5,0,5.6,1.6,5.6,4.7v0.1c0,2.7-2,4.6-5.5,4.6H348.9L348.9,113.9z M372.6,130.7h7.3l3-7.3h13.8l3,7.3h7.5
		l-14-32.8h-6.6L372.6,130.7L372.6,130.7z M385.4,117l4.3-10.6l4.3,10.6H385.4L385.4,117z M415.5,130.7h7.2v-26h9.9v-6.6h-27v6.6
		h9.9V130.7L415.5,130.7z M438.4,130.7h7.2V98.1h-7.2V130.7L438.4,130.7z M469.5,131.2c10.1,0,17.4-7.6,17.4-16.8v-0.1
		c0-9.3-7.2-16.7-17.3-16.7c-10.1,0-17.4,7.6-17.4,16.8v0.1C452.3,123.7,459.5,131.2,469.5,131.2L469.5,131.2z M469.6,124.6
		c-5.8,0-9.9-4.7-9.9-10.2v-0.1c0-5.6,4-10.1,9.8-10.1c5.8,0,9.9,4.7,9.9,10.2v0.1C479.4,120.1,475.4,124.6,469.6,124.6L469.6,124.6
		z M493.3,130.7h7.1V110l15.8,20.7h6.1V98.1h-7.1v20l-15.3-20h-6.6V130.7L493.3,130.7z M544,130.7h15.5c7.4,0,12.2-3,12.2-8.9v-0.1
		c0-4.4-2.3-6.6-6.1-8c2.3-1.3,4.3-3.3,4.3-7v-0.1c0-2.2-0.7-4-2.2-5.5c-1.9-1.9-4.8-2.9-8.5-2.9H544V130.7L544,130.7z M562.7,107.8
		c0,2.4-2,3.4-5.2,3.4H551v-6.9h7.1C561.1,104.4,562.7,105.6,562.7,107.8L562.7,107.8L562.7,107.8z M564.6,120.8L564.6,120.8
		c0,2.5-1.9,3.6-5.1,3.6H551v-7.2h8.3C562.9,117.2,564.6,118.6,564.6,120.8L564.6,120.8z M577.6,130.7h7.2v-10.4h5.6l7,10.4h8.4
		l-8-11.6c4.1-1.5,7-4.8,7-10.1v-0.1c0-3.1-1-5.6-2.8-7.4c-2.1-2.1-5.3-3.3-9.5-3.3h-14.9V130.7L577.6,130.7z M584.7,113.9v-9.4h7.1
		c3.5,0,5.6,1.6,5.6,4.7v0.1c0,2.7-2,4.6-5.5,4.6H584.7L584.7,113.9z M611.5,130.7h7.2V98.1h-7.2V130.7L611.5,130.7z M626.8,130.7
		h12.7c10.2,0,17.3-7.1,17.3-16.3v-0.1c0-9.2-7.1-16.2-17.3-16.2h-12.7V130.7L626.8,130.7z M639.5,104.6c5.9,0,9.8,4,9.8,9.8v0.1
		c0,5.8-4,9.7-9.8,9.7H634v-19.6H639.5L639.5,104.6z M678.9,131.2c6,0,10.6-2.3,13.9-5.2v-14.1h-14.1v6.2h7.2v4.7
		c-1.8,1.3-4.1,2-6.7,2c-5.8,0-9.9-4.4-9.9-10.3v-0.1c0-5.5,4.1-10.1,9.4-10.1c3.8,0,6,1.2,8.5,3.3l4.5-5.4
		c-3.4-2.9-6.9-4.5-12.8-4.5c-9.9,0-17.1,7.6-17.1,16.8v0.1C661.8,124.1,668.8,131.2,678.9,131.2L678.9,131.2z M699.7,130.7h24.8
		v-6.4h-17.7v-6.8h15.4v-6.4h-15.4v-6.6h17.4v-6.4h-24.6V130.7L699.7,130.7z"/>
</g>
</svg>
