<?xml version="1.0" encoding="utf-8"?>
<!-- Generator: Adobe Illustrator 25.4.1, SVG Export Plug-In . SVG Version: 6.00 Build 0)  -->
<svg version="1.1" id="Layer_1" xmlns="http://www.w3.org/2000/svg" xmlns:xlink="http://www.w3.org/1999/xlink" x="0px" y="0px"
	 viewBox="0 0 370.8 554.7" style="enable-background:new 0 0 370.8 554.7;" xml:space="preserve">
<style type="text/css">
	.st0{opacity:0.7;}
	.st1{opacity:0.55;}
	.st2{opacity:0.4;}
</style>
<g>
	<path class="st0" d="M46.4,223.6L46.4,223.6L46.4,223.6L46.4,223.6c-0.2-0.2-0.4-0.4-0.6-0.5c0.1,0.1,0.2,0.2,0.3,0.3
		c-0.1-0.1-0.2-0.2-0.4-0.3c-0.1-0.1-0.7-0.6-0.8-0.7c0,0,0,0,0,0l0,0l0,0c-0.2-0.1-0.3-0.3-0.5-0.4c0.1,0.1,0.3,0.2,0.4,0.4
		c-7.2-6.5-13.7-13.8-19.3-21.7c0,0,0,0,0,0c0,0,0,0-0.1-0.1c0,0,0,0,0,0c23.8-5,63.5-10.5,86.8-34l0,0l0,0
		c3.6-3.6,6.8-7.7,9.5-12.3l0,0c0.6,1.3,1.3,2.5,1.9,3.7l-0.1-0.3c0.1,0.3,0.3,0.5,0.4,0.8l0,0l0,0l0,0c0,0,0,0,0,0
		c0,0.1,0.1,0.1,0.1,0.2c0,0,0,0,0,0c0,0.1,0.1,0.1,0.1,0.2c-2.1,5.9-4.6,11.3-7.5,16.3l0,0l0,0c-15,25.3-40.4,38.3-70.1,48.4
		L46.4,223.6 M46.2,223.4C46.2,223.4,46.2,223.4,46.2,223.4l0.2,0.2l0,0l0,0L46.2,223.4L46.2,223.4L46.2,223.4
		c-0.1-0.1-0.2-0.2-0.3-0.3C46,223.2,46.1,223.3,46.2,223.4 M46.2,223.4L46.2,223.4L46.2,223.4 M45.4,222.7L45.4,222.7L45.4,222.7
		L45.4,222.7 M45,222.4L45,222.4L45,222.4 M44.5,221.9C44.5,221.9,44.5,221.9,44.5,221.9L44.5,221.9
		C44.5,221.9,44.5,221.9,44.5,221.9"/>
	<path class="st0" d="M129.7,254.7c-2.8,0-5.5-0.1-8.3-0.3l-0.1,0c-7.7-0.5-15.2-1.7-22.5-3.5c34.5-28.6,40.9-59.7,39.4-82.3
		c-0.3-4.5-0.9-8.6-1.7-12.3c0.2-0.4,0.4-0.8,0.6-1.3l0,0l0.1-0.2l0,0.1c2.1-4.2,4-9,5.3-13.4c7.3,6.4,16.5,16.1,23.7,28.3l0,0l0,0
		c2.7,4.5,5.1,9.4,7,14.6c3.3,8.9,5.4,18.7,5.1,29.3c-0.3,10.9-3,22.5-9.2,34.8c-11.8,3.8-24.4,6-37.5,6.2c-0.4,0-0.7,0-1.1,0h0h0h0
		h0h0h0h0h0h0h0h0h0h0h0h0h0h0h0h0h0h0h0h0h0h0h0L129.7,254.7L129.7,254.7L129.7,254.7"/>
	<polyline points="137.7,45.3 137.7,51.1 123.3,55.7 123.3,50 137.7,45.3 137.7,45.3 	"/>
	<polyline points="123.3,59.3 123.3,69.4 128.9,69.4 128.9,63.2 137.7,60.4 137.7,54.7 123.3,59.3 	"/>
	<polygon points="118,75 122.2,75 122.2,76.2 119.2,76.2 119.2,77.3 121.9,77.3 121.9,78.5 119.2,78.5 119.2,80.6 118,80.6 118,75 	
		"/>
	<polygon points="123.3,75 124.6,75 124.6,80.6 123.3,80.6 123.3,75 	"/>
	<polygon points="126,75 127.1,75 129.7,78.5 129.7,75 131,75 131,80.6 129.9,80.6 127.2,77.1 127.2,80.6 126,80.6 126,75 	"/>
	<path d="M138.6,79.8l0.7-0.9c0.5,0.4,1.1,0.7,1.7,0.7c0.5,0,0.8-0.2,0.8-0.5v0c0-0.3-0.2-0.5-1.1-0.7c-1.1-0.3-1.9-0.6-1.9-1.7v0
		c0-1,0.8-1.7,2-1.7c0.8,0,1.5,0.2,2.1,0.7l-0.6,0.9c-0.5-0.3-1-0.6-1.5-0.6c-0.5,0-0.7,0.2-0.7,0.5v0c0,0.4,0.2,0.5,1.2,0.7
		c1.1,0.3,1.8,0.7,1.8,1.7v0c0,1.1-0.8,1.7-2.1,1.7C140.1,80.7,139.3,80.4,138.6,79.8L138.6,79.8z"/>
	<path d="M132,77.9L132,77.9c0-1.6,1.3-2.9,3-2.9c1.7,0,3,1.3,3,2.9v0c0,1.6-1.3,2.9-3,2.9C133.3,80.7,132,79.4,132,77.9L132,77.9z
		 M136.7,77.9L136.7,77.9c0-1-0.7-1.7-1.6-1.8l-0.1,0c-1,0-1.7,0.8-1.7,1.7v0c0,0.9,0.7,1.7,1.6,1.8l0.1,0
		C136,79.6,136.7,78.8,136.7,77.9L136.7,77.9z"/>
	<polyline points="128.9,57.5 123.3,55.7 123.3,55.7 123.3,55.7 123.3,55.7 132.2,52.8 137.7,54.6 137.7,54.6 137.7,54.6 
		137.7,54.7 128.9,57.5 	"/>
	<path class="st1" d="M169.1,248.4C169.1,248.4,169.1,248.4,169.1,248.4c6.2-12.3,8.9-23.9,9.2-34.8c0.3-10.6-1.7-20.4-5.1-29.3
		c-1.9-5.2-4.3-10-7-14.6l0,0l0,0c-7.2-12.2-16.3-21.9-23.6-28.3c0.7-2.6,1.2-5.1,1.3-7.2c26.4,6.6,60.2,31.6,73.1,85.6l0,0l0,0.2
		c-12.9,12.1-28.3,21.6-45.3,27.6c-0.8,0.3-1.6,0.6-2.5,0.8C169.2,248.4,169.1,248.4,169.1,248.4"/>
	<path d="M178.3,213.6c0.3-10.6-1.7-20.4-5.1-29.3C176.6,193.3,178.6,203.1,178.3,213.6 M166.2,169.8L166.2,169.8L166.2,169.8
		L166.2,169.8L166.2,169.8"/>
	<path d="M143.9,134.3c-0.1,2.1-0.6,4.6-1.3,7.2l0,0C143.3,138.9,143.8,136.4,143.9,134.3"/>
	<path class="st1" d="M25.6,200.5c0,0-0.2-0.1-0.3-0.4c-11-15.8-18.5-34.1-21.5-54c0-0.3-0.1-0.5-0.1-0.8c0,0,0-0.1,0-0.1
		C31,153.1,58.8,159,81.4,159h0.2l0,0c15.9,0,29.2-2.9,38-10.1c0.7,1.8,1.5,3.6,2.3,5.2l0,0l0,0l0,0l0,0c-2.7,4.6-5.9,8.7-9.5,12.3
		l0,0l0,0C89.1,189.9,49.3,195.4,25.6,200.5L25.6,200.5L25.6,200.5C25.6,200.5,25.6,200.5,25.6,200.5
		C25.6,200.5,25.6,200.5,25.6,200.5"/>
	<path d="M25.6,200.5C25.6,200.5,25.6,200.5,25.6,200.5C25.6,200.5,25.6,200.5,25.6,200.5C25.6,200.5,25.7,200.5,25.6,200.5
		 M112.4,166.5L112.4,166.5L112.4,166.5L112.4,166.5L112.4,166.5 M121.9,154.2L121.9,154.2L121.9,154.2L121.9,154.2"/>
	<path d="M137.2,155l-0.1,0.1L137.2,155L137.2,155L137.2,155L137.2,155 M137.2,155L137.2,155L137.2,155"/>
	<polyline points="137.1,155.1 137.1,155.1 137.1,155.1 137.1,155.1 	"/>
	<path d="M137.1,155.1c-0.2,0.4-0.4,0.7-0.6,1.1C136.8,155.9,137,155.5,137.1,155.1"/>
	<path d="M137.1,155.1c-0.2,0.4-0.4,0.7-0.5,1l0,0C136.8,155.9,136.9,155.5,137.1,155.1L137.1,155.1"/>
	<path d="M124.3,158.8L124.3,158.8L124.3,158.8L124.3,158.8 M124.1,158.4L124.1,158.4L124.1,158.4L124.1,158.4z"/>
	<path d="M124.3,158.8L124.3,158.8L124.3,158.8z M124.3,158.8L124.3,158.8L124.3,158.8L124.3,158.8"/>
	<path d="M99,250.8L99,250.8L99,250.8 M99,250.8L99,250.8L99,250.8 M99.1,250.7L99.1,250.7L99.1,250.7 M138.2,168.6
		c1.5,22.6-4.8,53.6-39.2,82.2c34.1-28.4,40.6-59.2,39.2-81.7C138.3,168.8,138.2,168.7,138.2,168.6"/>
	<path d="M137.3,154.8l-0.1,0.2l0,0l0,0L137.3,154.8 M142.6,141.5L142.6,141.5L142.6,141.5L142.6,141.5"/>
	<path d="M140.3,148.1c-0.8,2-1.6,3.9-2.5,5.7c-0.2,0.3-0.3,0.7-0.5,1C138.4,152.7,139.4,150.4,140.3,148.1"/>
	<path d="M124.2,158.5c0.1,0.1,0.1,0.2,0.2,0.3l0,0C124.3,158.7,124.2,158.6,124.2,158.5"/>
	<path d="M124.1,158.4c0.1,0.1,0.2,0.3,0.2,0.4l0,0c-0.1-0.1-0.1-0.2-0.2-0.3L124.1,158.4"/>
	<path d="M142.2,34.1c-5.9-11-12.4-20.1-12.4-20.1s-10.3,14.4-16.8,29L142.2,34.1 M118.5,94.3c5.6,12.2,11.2,24.1,11.2,31.7
		c0-9.2,8.4-24.9,14.8-39.6L118.5,94.3"/>
	<path d="M139.3,107.1c6.5,3,16.5,9.2,16.5,18.8c9.3-16.6-2.1-33.2-7.2-39.5C145.5,93.4,142.1,100.6,139.3,107.1"/>
	<path d="M120.2,107.1c-6.5,3-16.5,9.2-16.5,18.8c-9.3-16.6,2.1-33.2,7.2-39.5C113.9,93.4,117.4,100.6,120.2,107.1"/>
	<path d="M143.9,133.5c0-7.8-3.3-14.6-8-17.8c-0.6,1.3-1.4,3-2.1,5c3.1,2.1,5.2,6.4,5.2,11.5c0,7.1-7.4,20.9-9.2,20.9
		c-1.7,0-9.2-13.9-9.2-20.9c0-5.2,2.2-9.7,5.5-11.7c0.1,0.1,0.1,0.2,0.2,0.4c-0.8-2.1-1.5-4.1-2.1-5.4c-5,3.1-8.4,10-8.4,18
		c0,10.9,11.5,32.3,14.1,32.3C132.4,165.7,143.9,144.4,143.9,133.5"/>
	<path class="st2" d="M217,220l-0.1-0.2l0,0c-12.8-54-46.7-79-73.1-85.6c0,0,0,0,0-0.1c0-0.2,0-0.5,0-0.7l0,0l0,0l0,0
		c0-5-1.3-9.5-3.5-13c-1.3-2-2.8-3.6-4.5-4.8c0,0,0,0,0,0.1c-2.3,4.6-6.1,15.3-6.1,19.7c0-3.2-1.8-9.6-3.6-14.7c0,0,0,0,0,0l0,0l0,0
		c-0.8-2.1-1.5-4.1-2.1-5.4l0,0c0,0,0,0,0,0c-5,3.1-8.4,10-8.4,18c0,3.2,1,7.4,2.5,11.6c0.4,1.3,0.9,2.6,1.5,3.8
		c-8.8,7.2-22.1,10.1-38,10.1l0,0h-0.2c-22.6,0-50.4-6-77.7-13.7c0,0,0,0,0,0c0,0,0,0,0,0c0,0,0,0.1,0,0.1c0,0,0,0,0,0
		c0,0-0.1-0.3-0.2-1c-0.8-5.6-1.1-11.3-1.1-17.1C2.4,57,59.4,0,129.7,0c70.3,0,127.3,57,127.3,127.3c0,35-14.1,66.6-36.9,89.6
		C219.1,218,218.1,219,217,220 M148.6,86.5c-3,6.9-6.4,14-9.2,20.6c6.5,3,16.5,9.2,16.5,18.8C165.1,109.4,153.7,92.8,148.6,86.5
		 M110.9,86.5c-5.2,6.2-16.5,22.8-7.2,39.5c0-9.7,10-15.8,16.5-18.8C117.4,100.6,113.9,93.4,110.9,86.5 M144.6,86.4l-26,8
		c5.6,12.2,11.2,24.1,11.2,31.7C129.8,116.8,138.2,101.1,144.6,86.4 M113,43.1L113,43.1c-3,6.7-5.2,13.5-5.2,18.9
		c0,8.5,5.3,20.5,10.7,32.4l26.2-8c3.9-9.1,7.1-17.8,7.1-24.3c0-7.9-4.6-18.6-9.6-27.9l-2.3,0.7l2.2-0.7
		c-5.9-11-12.4-20.1-12.4-20.1S119.5,28.5,113,43.1"/>
	<path d="M81.6,159L81.6,159L81.6,159L81.6,159 M3.7,145.4c0,0,0-0.1,0-0.1c0,0,0,0,0,0C3.7,145.3,3.7,145.4,3.7,145.4"/>
	<path d="M129.8,126c0-7.5-5.7-19.5-11.2-31.7l26-8C138.2,101.1,129.8,116.8,129.8,126 M113,43.1c6.5-14.6,16.8-29,16.8-29
		s6.5,9,12.4,20.1l-2.2,0.7L113,43.1"/>
	<path d="M155.8,126c0-9.7-10-15.8-16.5-18.8c2.8-6.6,6.2-13.7,9.2-20.6C153.7,92.8,165.1,109.4,155.8,126"/>
	<path d="M103.7,126c-9.3-16.6,2.1-33.2,7.2-39.5c3,6.9,6.4,14,9.2,20.6C113.6,110.1,103.7,116.3,103.7,126"/>
	<path d="M119.6,148.9c-0.5-1.3-1-2.6-1.5-3.8C118.6,146.4,119,147.6,119.6,148.9C119.6,148.9,119.6,148.9,119.6,148.9 M143.9,134.3
		L143.9,134.3C143.9,134.3,143.9,134.2,143.9,134.3C143.9,134.2,143.9,134.3,143.9,134.3 M126.2,120.9
		C126.2,120.9,126.2,120.8,126.2,120.9c-0.8-2.1-1.5-4.1-2.1-5.4l0,0C124.7,116.8,125.4,118.7,126.2,120.9 M140.4,120.5
		c-1.3-2-2.8-3.6-4.5-4.8c0,0,0,0,0,0.1c0,0,0,0,0-0.1C137.6,116.9,139.1,118.5,140.4,120.5"/>
	<path d="M8.5,472.5v-10.7h8.1c2.1,0,3.7,0.4,4.8,1.3c1.1,0.9,1.7,2.2,1.7,3.9v0.1c0,1.6-0.6,2.9-1.8,3.9c-1.2,1-2.8,1.4-4.8,1.4
		H8.5L8.5,472.5z M3,488.5h5.5v-11h6.9h0.1l7.8,11h6.5l-8.5-12c1.1-0.3,2.1-0.7,3-1.3c0.9-0.6,1.7-1.2,2.4-2
		c0.7-0.8,1.2-1.7,1.6-2.8c0.4-1,0.6-2.2,0.6-3.5v-0.1c0-1.4-0.2-2.6-0.7-3.8c-0.5-1.1-1.1-2.2-1.9-3c-1-1-2.3-1.8-3.8-2.3
		c-1.5-0.6-3.3-0.8-5.3-0.8H3V488.5L3,488.5z M43.1,488.5h23.6v-5H48.6V475h15.8v-5H48.6v-8.1h17.9v-5H43.1V488.5L43.1,488.5z
		 M89,475.9l5.4-12.6l5.5,12.6H89L89,475.9z M78,488.5h5.7l3.3-7.6h14.9l3.2,7.6h5.9l-13.9-31.8h-5.1L78,488.5L78,488.5z
		 M129.3,483.4v-21.6h6.2c1.7,0,3.2,0.3,4.5,0.8c1.4,0.5,2.5,1.3,3.5,2.2c0.9,1,1.7,2.1,2.2,3.4c0.5,1.3,0.8,2.8,0.8,4.3v0.1
		c0,1.5-0.3,3-0.8,4.3c-0.5,1.3-1.3,2.4-2.2,3.4c-0.9,1-2.1,1.7-3.5,2.2c-1.4,0.5-2.9,0.8-4.5,0.8H129.3L129.3,483.4z M123.8,488.5
		h11.8c2.5,0,4.7-0.4,6.8-1.2c2.1-0.8,3.8-1.9,5.3-3.3s2.6-3.1,3.5-5c0.8-1.9,1.2-4,1.2-6.2v-0.1c0-2.2-0.4-4.3-1.2-6.2
		c-0.8-1.9-2-3.6-3.5-5c-1.5-1.4-3.3-2.5-5.3-3.3c-2.1-0.8-4.3-1.2-6.8-1.2h-11.8V488.5L123.8,488.5z M166.8,488.5h5.5v-31.6h-5.5
		V488.5L166.8,488.5z M188.2,488.5h5.5V466l17.4,22.5h4.6v-31.6h-5.5v21.9l-16.9-21.9h-5.1V488.5L188.2,488.5z M231.3,488.5h23.6v-5
		h-18.1V475h15.8v-5h-15.8v-8.1h17.9v-5h-23.4V488.5L231.3,488.5z M284.6,488.3c1.4-0.4,2.6-1,3.6-1.9c1-0.8,1.8-1.8,2.3-3
		c0.6-1.2,0.8-2.5,0.8-4v-0.1c0-1.3-0.2-2.4-0.7-3.4c-0.4-1-1.1-1.8-1.9-2.6c-0.8-0.7-1.9-1.4-3.2-1.9c-1.3-0.5-2.8-1-4.4-1.4
		c-1.5-0.4-2.8-0.7-3.7-1c-1-0.3-1.8-0.7-2.3-1.1c-0.6-0.4-0.9-0.8-1.2-1.3c-0.2-0.5-0.3-1-0.3-1.6v-0.1c0-1.1,0.5-1.9,1.4-2.7
		c0.9-0.7,2.2-1.1,3.8-1.1c1.4,0,2.9,0.3,4.3,0.8c1.4,0.6,2.8,1.4,4.3,2.4l3-4.2c-1.6-1.3-3.4-2.3-5.2-3c-1.9-0.7-3.9-1-6.3-1
		c-1.6,0-3,0.2-4.3,0.7c-1.3,0.5-2.5,1.1-3.4,1.9c-0.9,0.8-1.7,1.8-2.2,2.9c-0.5,1.1-0.8,2.4-0.8,3.7v0.1c0,1.4,0.2,2.7,0.7,3.7
		c0.5,1,1.1,1.9,2,2.6c0.9,0.7,2,1.3,3.3,1.8c1.3,0.5,2.8,0.9,4.5,1.3c1.5,0.3,2.7,0.7,3.6,1c0.9,0.3,1.6,0.7,2.2,1.1
		c0.5,0.4,0.9,0.8,1.1,1.2c0.2,0.4,0.3,0.9,0.3,1.5v0.1c0,1.2-0.5,2.2-1.5,2.9c-1,0.7-2.4,1.1-4.1,1.1c-2,0-3.8-0.4-5.3-1.1
		c-1.6-0.7-3.1-1.7-4.7-3l-3.3,4c1.9,1.7,4,3,6.2,3.8c2.2,0.8,4.6,1.2,7,1.2C281.7,488.9,283.2,488.7,284.6,488.3L284.6,488.3z
		 M320.9,488.3c1.4-0.4,2.6-1,3.6-1.9c1-0.8,1.8-1.8,2.3-3c0.6-1.2,0.8-2.5,0.8-4v-0.1c0-1.3-0.2-2.4-0.7-3.4
		c-0.4-1-1.1-1.8-1.9-2.6c-0.8-0.7-1.9-1.4-3.2-1.9c-1.3-0.5-2.8-1-4.4-1.4c-1.5-0.4-2.8-0.7-3.7-1c-1-0.3-1.8-0.7-2.3-1.1
		c-0.6-0.4-0.9-0.8-1.2-1.3c-0.2-0.5-0.3-1-0.3-1.6v-0.1c0-1.1,0.5-1.9,1.4-2.7c0.9-0.7,2.2-1.1,3.8-1.1c1.4,0,2.9,0.3,4.3,0.8
		c1.4,0.6,2.8,1.4,4.3,2.4l3-4.2c-1.6-1.3-3.4-2.3-5.2-3c-1.9-0.7-3.9-1-6.3-1c-1.6,0-3,0.2-4.3,0.7c-1.3,0.5-2.5,1.1-3.4,1.9
		c-0.9,0.8-1.7,1.8-2.2,2.9c-0.5,1.1-0.8,2.4-0.8,3.7v0.1c0,1.4,0.2,2.7,0.7,3.7c0.5,1,1.1,1.9,2,2.6c0.9,0.7,2,1.3,3.3,1.8
		c1.3,0.5,2.8,0.9,4.5,1.3c1.5,0.3,2.7,0.7,3.6,1c0.9,0.3,1.6,0.7,2.2,1.1c0.5,0.4,0.9,0.8,1.1,1.2c0.2,0.4,0.3,0.9,0.3,1.5v0.1
		c0,1.2-0.5,2.2-1.5,2.9c-1,0.7-2.4,1.1-4.1,1.1c-2,0-3.8-0.4-5.3-1.1c-1.6-0.7-3.1-1.7-4.6-3l-3.3,4c1.9,1.7,4,3,6.2,3.8
		c2.2,0.8,4.6,1.2,7,1.2C318,488.9,319.5,488.7,320.9,488.3L320.9,488.3z"/>
	<path d="M37.6,437.4c2.9-0.9,5.4-2.1,7.5-3.8c2.1-1.7,3.7-3.7,4.9-6c1.2-2.4,1.7-5.1,1.7-8.1v-0.2c0-2.8-0.5-5.1-1.5-7.1
		c-1-2-2.5-3.7-4.4-5.1c-1.9-1.4-4.2-2.6-7-3.6c-2.7-1-5.8-1.8-9.2-2.6c-2-0.4-3.7-0.9-5-1.3c-1.3-0.4-2.4-0.8-3.1-1.3
		c-0.8-0.4-1.3-0.9-1.6-1.4c-0.3-0.5-0.5-1.1-0.5-1.8v-0.2c0-1.1,0.5-2,1.5-2.7c1-0.7,2.5-1.1,4.4-1.1c2.7,0,5.4,0.5,8.3,1.5
		c2.8,1,5.6,2.4,8.3,4.4l8.2-11.6c-3.2-2.6-6.8-4.6-10.8-5.9c-4-1.3-8.5-2-13.6-2c-3.6,0-6.7,0.5-9.6,1.4c-2.8,0.9-5.2,2.2-7.2,3.9
		c-2,1.7-3.5,3.7-4.6,6c-1,2.3-1.6,4.8-1.6,7.6v0.2c0,3,0.6,5.6,1.7,7.6c1.2,2.1,2.7,3.8,4.7,5.2c2,1.4,4.4,2.5,7.1,3.4
		c2.7,0.9,5.6,1.7,8.8,2.4c2,0.5,3.7,0.9,5,1.3c1.3,0.4,2.3,0.9,3,1.3c0.8,0.5,1.3,0.9,1.6,1.4c0.3,0.5,0.4,1,0.4,1.6v0.2
		c0,1.3-0.6,2.3-1.7,3c-1.2,0.7-2.8,1.1-5,1.1c-6.9,0-13.3-2.4-19.2-7.1L0,428.8c3.7,3.3,7.9,5.8,12.7,7.4c4.8,1.6,9.8,2.5,15.1,2.5
		C31.4,438.7,34.7,438.2,37.6,437.4L37.6,437.4z M84.6,422.7c-1.9-0.9-3.5-2-4.8-3.5c-1.3-1.5-2.4-3.2-3.1-5.1
		c-0.7-1.9-1.1-4-1.1-6.1v-0.2c0-2.1,0.4-4.2,1.1-6.1c0.7-1.9,1.7-3.6,3.1-5c1.3-1.4,2.9-2.6,4.8-3.4c1.8-0.8,3.9-1.3,6.2-1.3
		c2.3,0,4.3,0.4,6.2,1.3c1.9,0.9,3.5,2,4.8,3.5c1.4,1.5,2.4,3.2,3.1,5.1c0.7,1.9,1.1,4,1.1,6.1v0.2c0,2.1-0.4,4.2-1.1,6.1
		c-0.7,1.9-1.8,3.6-3.1,5c-1.3,1.4-2.9,2.6-4.8,3.4c-1.9,0.8-3.9,1.3-6.2,1.3C88.5,424,86.5,423.6,84.6,422.7L84.6,422.7z
		 M103.4,436.4c3.9-1.6,7.3-3.8,10.2-6.6c2.9-2.8,5.1-6.1,6.7-9.8c1.6-3.8,2.4-7.7,2.4-12v-0.2c0-4.2-0.8-8.2-2.4-11.9
		c-1.6-3.7-3.8-7-6.6-9.7c-2.8-2.8-6.2-5-10.1-6.6c-3.9-1.6-8.1-2.4-12.7-2.4c-4.6,0-8.8,0.8-12.7,2.4c-3.9,1.6-7.3,3.8-10.2,6.6
		c-2.9,2.8-5.1,6.1-6.7,9.8c-1.6,3.8-2.4,7.7-2.4,12v0.2c0,4.2,0.8,8.2,2.4,11.9c1.6,3.7,3.8,7,6.6,9.7c2.8,2.8,6.2,5,10.1,6.6
		c3.9,1.6,8.1,2.4,12.7,2.4C95.2,438.9,99.5,438,103.4,436.4L103.4,436.4z M170.5,437.2c3.4-1.1,6.3-2.7,8.7-5
		c2.4-2.2,4.3-5.1,5.6-8.5c1.3-3.5,2-7.6,2-12.4v-32.8h-16.8v33.4c0,4.2-1,7.3-2.9,9.2c-2,2-4.6,3-7.9,3c-3.3,0-5.9-1-7.9-3.1
		c-2-2.1-2.9-5.2-2.9-9.5v-32.9h-16.8v33.3c0,4.6,0.6,8.6,1.9,12.1c1.3,3.4,3.1,6.2,5.5,8.5c2.4,2.2,5.2,3.9,8.6,5
		c3.4,1.1,7.2,1.6,11.4,1.6C163.3,438.8,167.1,438.2,170.5,437.2L170.5,437.2z M214.2,406.9v-14.2h10.8c2.8,0,4.9,0.6,6.5,1.7
		c1.6,1.2,2.4,2.9,2.4,5.3v0.2c0,2.1-0.8,3.9-2.3,5.1c-1.5,1.3-3.7,1.9-6.5,1.9H214.2L214.2,406.9z M197.8,437.7h16.4v-17.9h7h0.2
		l11.9,17.9h19L238.1,417c3.7-1.6,6.7-3.9,8.9-6.9c2.2-3,3.3-6.8,3.3-11.3v-0.2c0-5.8-1.8-10.4-5.2-13.8c-2-2-4.5-3.6-7.7-4.7
		c-3.2-1.1-7-1.7-11.6-1.7h-28V437.7L197.8,437.7z M297.2,437.8c2.6-0.7,5-1.6,7.1-2.8c2.1-1.2,4-2.6,5.7-4.2
		c1.7-1.6,3.2-3.4,4.6-5.3l-12.4-8.8c-0.9,1.1-1.8,2-2.8,2.9c-0.9,0.9-1.9,1.6-3,2.3c-1,0.6-2.2,1.1-3.5,1.5
		c-1.3,0.3-2.7,0.5-4.2,0.5c-2.1,0-4-0.4-5.7-1.2c-1.7-0.8-3.2-1.9-4.4-3.3c-1.2-1.4-2.2-3.1-2.9-5c-0.7-1.9-1.1-4-1.1-6.2v-0.2
		c0-2.1,0.4-4.2,1.1-6.1c0.7-1.9,1.7-3.6,2.9-5c1.2-1.4,2.7-2.5,4.4-3.3c1.7-0.8,3.6-1.2,5.7-1.2c2.9,0,5.3,0.6,7.4,1.9
		c2,1.2,3.9,2.9,5.6,5.1l12.4-9.6c-1.3-1.8-2.8-3.5-4.4-5c-1.7-1.5-3.5-2.8-5.6-3.9c-2.1-1.1-4.3-1.9-6.8-2.5
		c-2.5-0.6-5.2-0.9-8.3-0.9c-4.5,0-8.7,0.8-12.5,2.4c-3.8,1.6-7.1,3.8-9.9,6.6c-2.8,2.8-4.9,6.1-6.5,9.8c-1.6,3.8-2.4,7.8-2.4,12.1
		v0.2c0,4.4,0.8,8.5,2.4,12.2c1.6,3.8,3.8,7,6.5,9.7c2.7,2.7,6,4.9,9.7,6.4c3.7,1.5,7.7,2.3,11.9,2.3
		C291.6,438.9,294.6,438.5,297.2,437.8L297.2,437.8z M322.8,437.7h48v-14H339v-9.4h28.4v-13H339v-9h31.4v-14h-47.6V437.7
		L322.8,437.7z"/>
	<path d="M28.2,343.7c-1.9-0.9-3.5-2-4.8-3.5c-1.3-1.5-2.4-3.2-3.1-5.1c-0.7-1.9-1.1-3.9-1.1-6.1v-0.2c0-2.1,0.4-4.2,1.1-6.1
		c0.7-1.9,1.7-3.6,3.1-5c1.3-1.4,2.9-2.6,4.8-3.4c1.8-0.8,3.9-1.3,6.2-1.3c2.3,0,4.3,0.4,6.2,1.3c1.9,0.9,3.5,2,4.8,3.5
		c1.4,1.5,2.4,3.2,3.1,5.1c0.7,1.9,1.1,4,1.1,6.1v0.2c0,2.1-0.4,4.2-1.1,6.1c-0.7,1.9-1.8,3.6-3.1,5c-1.3,1.4-2.9,2.6-4.8,3.4
		c-1.9,0.8-3.9,1.3-6.2,1.3C32.1,345,30.1,344.6,28.2,343.7L28.2,343.7z M47,357.4c3.9-1.6,7.3-3.8,10.2-6.6
		c2.9-2.8,5.1-6.1,6.7-9.8c1.6-3.8,2.4-7.7,2.4-12v-0.2c0-4.2-0.8-8.2-2.4-11.9c-1.6-3.7-3.8-7-6.6-9.7c-2.8-2.8-6.2-5-10.1-6.6
		c-3.9-1.6-8.1-2.4-12.7-2.4c-4.6,0-8.8,0.8-12.7,2.4c-3.9,1.6-7.3,3.8-10.2,6.6c-2.9,2.8-5.1,6.1-6.7,9.8c-1.6,3.8-2.4,7.7-2.4,12
		v0.2c0,4.2,0.8,8.2,2.4,11.9c1.6,3.7,3.8,7,6.6,9.7c2.8,2.8,6.2,5,10.1,6.6c3.9,1.6,8.1,2.4,12.7,2.4C38.9,359.8,43.1,359,47,357.4
		L47,357.4z M92.4,328.9v-15.7h7.7c3,0,5.3,0.7,7,2c1.7,1.3,2.5,3.3,2.5,5.8v0.2c0,2.4-0.8,4.3-2.5,5.7c-1.7,1.4-4,2.1-6.9,2.1H92.4
		L92.4,328.9z M76,358.7h16.4v-16.9h8.1c3.7,0,7.1-0.5,10.2-1.4c3.1-0.9,5.8-2.3,8.1-4.1c2.3-1.8,4-4,5.3-6.7
		c1.3-2.7,1.9-5.7,1.9-9.2v-0.2c0-3.3-0.6-6.2-1.7-8.8c-1.2-2.6-2.8-4.8-5-6.6c-2.1-1.8-4.7-3.1-7.8-4.1c-3-0.9-6.4-1.4-10.2-1.4H76
		V358.7L76,358.7z M134.2,358.7h48v-14h-31.8v-9.4h28.4v-13h-28.4v-9h31.4v-14h-47.6V358.7L134.2,358.7z M191.8,358.7H208v-32.5
		l25.4,32.5h14.4v-59.3h-16.2v31.3l-24.4-31.3h-15.4V358.7L191.8,358.7z"/>
	<path d="M8,546c-0.5-0.2-0.9-0.5-1.3-0.9c-0.4-0.4-0.6-0.9-0.8-1.4c-0.2-0.5-0.3-1.1-0.3-1.8c0-0.9,0.2-1.8,0.5-2.6
		c0.3-0.8,0.8-1.6,1.3-2.2c0.6-0.6,1.2-1.1,1.9-1.5c0.7-0.4,1.5-0.6,2.2-0.6c1.2,0,2.1,0.4,2.8,1.2c0.7,0.8,1.1,1.8,1.1,3.2
		c0,1-0.2,1.9-0.5,2.7c-0.3,0.8-0.7,1.6-1.2,2.2c-0.5,0.6-1.1,1.1-1.8,1.5c-0.7,0.4-1.4,0.5-2.2,0.5C9,546.3,8.5,546.2,8,546L8,546z
		 M13.6,548.9c1.1-0.5,2.1-1.3,2.9-2.2c0.9-0.9,1.5-2.1,2.1-3.4c0.5-1.3,0.8-2.7,0.8-4.3c0-1.1-0.2-2.2-0.5-3.1
		c-0.3-0.9-0.8-1.7-1.3-2.4c-0.6-0.6-1.3-1.1-2.1-1.5c-0.8-0.3-1.6-0.5-2.6-0.5c-1.1,0-2.1,0.2-2.9,0.7c-0.8,0.5-1.6,1.1-2.4,1.9
		l2.3-8.9H6.1l-6.1,24h3.8l0.8-3.1c0.5,1,1.2,1.8,2.1,2.4c0.9,0.7,2,1,3.5,1C11.3,549.7,12.5,549.4,13.6,548.9L13.6,548.9z
		 M26.3,553.6c1.1-0.7,2.1-2,3.2-3.8l10.7-17.9h-4.1l-7.3,12.9l-1.4-12.9h-3.9l2.4,17.4c-0.5,0.8-1,1.3-1.5,1.5
		c-0.4,0.3-0.9,0.4-1.4,0.4c-0.4,0-0.7-0.1-1.1-0.2c-0.4-0.1-0.7-0.3-1-0.5l-2,2.9c0.5,0.4,1.1,0.7,1.7,0.9c0.6,0.2,1.3,0.3,2.1,0.3
		C24.1,554.7,25.3,554.3,26.3,553.6L26.3,553.6z"/>
	<polygon points="65.4,512.5 94.2,512.5 94.2,520.1 73.7,520.1 73.7,528.1 91.7,528.1 91.7,535.7 73.7,535.7 73.7,550.3 65.4,550.3 
		65.4,512.5 	"/>
	<polygon points="101.6,512.5 109.9,512.5 109.9,550.3 101.6,550.3 101.6,512.5 	"/>
	<polygon points="119.3,512.5 127,512.5 144.7,535.8 144.7,512.5 152.9,512.5 152.9,550.3 145.8,550.3 127.5,526.3 127.5,550.3 
		119.3,550.3 119.3,512.5 	"/>
	<path d="M160,531.5v-0.1c0-10.7,8.5-19.5,20.1-19.5s20,8.7,20,19.5v0.1c0,10.7-8.5,19.5-20.1,19.5C168.4,551,160,542.3,160,531.5
		L160,531.5z M191.5,531.5v-0.1c0.2-6.3-4.7-11.6-11.1-11.9c-0.1,0-0.3,0-0.4,0c-6.7,0-11.3,5.3-11.3,11.8v0.1
		c-0.2,6.3,4.7,11.7,11.1,11.9c0.1,0,0.3,0,0.4,0C186.8,543.3,191.5,538,191.5,531.5L191.5,531.5z"/>
	<path d="M204.4,544.8l4.9-5.9c3.1,2.8,7.1,4.5,11.3,4.6c3.4,0,5.5-1.3,5.5-3.6v-0.1c0-2.1-1.3-3.2-7.6-4.8
		c-7.6-1.9-12.5-4.1-12.5-11.6v-0.1c0-6.8,5.5-11.4,13.2-11.4c5.1-0.1,10.1,1.6,14,4.8l-4.3,6.3c-3.4-2.3-6.6-3.7-9.8-3.7
		c-3.2,0-4.9,1.5-4.9,3.3v0.1c0,2.5,1.6,3.3,8.1,5c7.7,2,12,4.7,12,11.3v0.1c0,7.5-5.7,11.7-13.9,11.7
		C214.6,550.8,208.9,548.7,204.4,544.8L204.4,544.8z"/>
</g>
</svg>
