<?xml version="1.0" encoding="UTF-8"?>
<svg id="Layer_1" xmlns="http://www.w3.org/2000/svg" version="1.1" viewBox="0 0 720 478.9281">
  <!-- Generator: Adobe Illustrator 29.4.0, SVG Export Plug-In . SVG Version: 2.1.0 Build 152)  -->
  <defs>
    <style>
      .st0 {
        fill: #fff;
      }
    </style>
  </defs>
  <path class="st0" d="M20.7763,478.3911v-25.075h23.4629v-11.91h-23.4629v-13.702h28.4779v-12.896H6.0896v63.5829h14.6867ZM71.731,478.3911v-20.508h9.582l12.179,20.508h16.567l-13.97-23.642c1.612-.896,3.059-1.9839,4.343-3.269,1.283-1.283,2.374-2.731,3.269-4.343.896-1.612,1.581-3.327,2.06-5.149.477-1.821.716-3.717.716-5.687,0-2.626-.523-5.223-1.567-7.791-1.045-2.566-2.493-4.865-4.343-6.896-1.852-2.029-4.046-3.671-6.582-4.925-2.539-1.254-5.299-1.881-8.284-1.881h-28.6571v63.5829h14.6871ZM71.731,427.7041h12.985c1.671,0,3.224.777,4.657,2.328,1.432,1.554,2.149,3.643,2.149,6.269,0,2.568-.627,4.672-1.881,6.314-1.254,1.642-2.747,2.462-4.477,2.462h-13.433v-17.373h0ZM110.15,478.3911h15.045l4.836-14.239h19.791l4.925,14.239h15.045l-23.194-63.5829h-13.254l-23.194,63.5829h0ZM132.359,454.0331l7.612-22.478,7.433,22.478h-15.045ZM240.897,478.3911v-63.5829h-15.851l-16.567,33.225-16.478-33.225h-15.94v63.5829h14.686v-38.06l13.792,27.672h7.88l13.791-27.672v38.06h14.687ZM267.762,465.4951v-13.522h25.075v-11.9109h-25.075v-12.358h29.194v-12.896h-43.881v63.5829h44.687v-12.896h-30ZM384.449,414.7191l-12.179,41.463-13.254-41.374h-16.03l-12.985,41.463-12.269-41.463h-16.657l19.792,63.5829h15.224l14.955-39.582,15.134,39.4921h15.224l19.7921-63.5821h-16.747ZM447.047,476.2421c3.88-1.791,7.223-4.164,10.03-7.12,2.805-2.955,4.999-6.372,6.582-10.254,1.5811-3.88,2.373-7.91,2.373-12.089,0-3.999-.747-7.94-2.239-11.821-1.493-3.88-3.613-7.344-6.358-10.388-2.747-3.045-6.06-5.492-9.941-7.344-3.881-1.85-8.18-2.776-12.895-2.776-4.598,0-8.837.882-12.717,2.642-3.881,1.762-7.24,4.119-10.074,7.075-2.837,2.955-5.0461,6.373-6.627,10.253-1.583,3.882-2.374,7.912-2.374,12.09,0,4.12.762,8.12,2.284,12,1.522,3.882,3.656,7.33,6.403,10.344,2.745,3.015,6.059,5.448,9.94,7.298,3.881,1.851,8.179,2.776,12.896,2.776,4.597,0,8.835-.895,12.717-2.686h0ZM418.793,439.6591c.685-2.297,1.731-4.343,3.134-6.134,1.402-1.791,3.134-3.238,5.194-4.343,2.06-1.104,4.492-1.657,7.299-1.657,2.686,0,5.059.523,7.119,1.567,2.06,1.045,3.806,2.449,5.239,4.209,1.433,1.762,2.507,3.792,3.224,6.09.716,2.299,1.075,4.672,1.075,7.119,0,2.389-.345,4.732-1.03,7.03-.687,2.299-1.717,4.3589-3.09,6.179-1.374,1.822-3.105,3.3-5.194,4.433-2.09,1.135-4.538,1.702-7.343,1.702-2.687,0-5.075-.538-7.165-1.612-2.09-1.075-3.836-2.508-5.238-4.299-1.404-1.791-2.463-3.835-3.18-6.134-.716-2.298-1.074-4.671-1.074-7.12,0-2.387.343-4.731,1.03-7.03h0ZM489.226,478.3911v-20.508h9.582l12.179,20.508h16.567l-13.97-23.642c1.6121-.896,3.0591-1.9839,4.343-3.269,1.2841-1.283,2.374-2.731,3.269-4.343.8959-1.612,1.5809-3.327,2.0599-5.149.4771-1.821.7161-3.717.7161-5.687,0-2.626-.5231-5.223-1.567-7.791-1.045-2.566-2.493-4.865-4.343-6.896-1.852-2.029-4.046-3.671-6.582-4.925-2.5389-1.254-5.2989-1.881-8.2839-1.881h-28.657v63.5829h14.687ZM489.226,427.7041h12.985c1.671,0,3.224.777,4.657,2.328,1.4319,1.554,2.149,3.643,2.149,6.269,0,2.568-.627,4.672-1.8811,6.314-1.254,1.642-2.747,2.462-4.477,2.462h-13.433v-17.373h0ZM549.226,478.3911v-18.7169l6.627-6.895,18,25.612h16.747l-25.434-35.194,23.8219-28.3889h-16.478l-23.284,27.404v-27.404h-14.687v63.5829h14.687Z"/>
  <path class="st0" d="M.1791,388.8381h15.0449l4.8359-14.239h19.7912l4.9254,14.239h15.0449l-23.1942-63.583h-13.2539L.1791,388.8381H.1791ZM22.3883,364.4801l7.612-22.478,7.4329,22.478h-15.0449ZM80.777,388.8381v-63.583h-14.687v63.583h14.687ZM153.312,387.0021c3.462-1.522,6.433-3.582,8.911-6.179,2.477-2.597,4.402-5.626,5.776-9.09,1.373-3.461,2.06-7.104,2.06-10.925v-6.537h-27.941v12.895h12c-.418,1.195-1.045,2.329-1.88,3.403-.837,1.075-1.852,2.031-3.045,2.866-1.195.837-2.538,1.508-4.03,2.015-1.493.508-3.076.761-4.746.761-2.628,0-4.912-.582-6.851-1.746-1.941-1.164-3.537-2.671-4.791-4.523-1.254-1.85-2.18-3.909-2.776-6.179-.598-2.268-.896-4.507-.896-6.716,0-2.387.328-4.731.985-7.03.656-2.298,1.626-4.344,2.911-6.135,1.283-1.791,2.895-3.238,4.836-4.343,1.939-1.104,4.164-1.657,6.671-1.657,2.029,0,3.82.374,5.373,1.12,1.552.747,2.866,1.612,3.941,2.597,1.074.985,1.954,2.001,2.642,3.045.685,1.045,1.209,1.866,1.567,2.462l11.642-9.134c-2.449-4.178-5.747-7.418-9.896-9.717-4.15-2.297-8.971-3.447-14.463-3.447-4.836,0-9.179.895-13.03,2.686-3.851,1.791-7.119,4.164-9.806,7.12-2.686,2.955-4.746,6.344-6.179,10.164-1.433,3.821-2.149,7.762-2.149,11.821,0,4.24.775,8.328,2.328,12.269,1.552,3.94,3.731,7.419,6.537,10.433,2.806,3.015,6.149,5.433,10.03,7.253,3.881,1.822,8.15,2.7321,12.807,2.7321,4.178,0,7.999-.761,11.462-2.284h0ZM218.596,386.6891c3.88-1.791,7.223-4.164,10.03-7.12,2.805-2.955,5-6.372,6.582-10.254,1.581-3.88,2.373-7.91,2.373-12.089,0-3.999-.7469-7.94-2.239-11.821-1.493-3.88-3.612-7.344-6.358-10.388-2.747-3.045-6.06-5.492-9.94-7.344-3.882-1.85-8.18-2.776-12.896-2.776-4.598,0-8.836.882-12.716,2.642-3.882,1.762-7.24,4.119-10.075,7.075-2.836,2.955-5.046,6.373-6.627,10.253-1.583,3.882-2.373,7.912-2.373,12.09,0,4.12.761,8.12,2.283,12,1.523,3.882,3.657,7.33,6.403,10.344,2.746,3.015,6.059,5.448,9.941,7.298,3.88,1.851,8.179,2.776,12.895,2.776,4.597,0,8.835-.895,12.717-2.686h0ZM190.342,350.1061c.686-2.297,1.731-4.343,3.134-6.134,1.402-1.791,3.135-3.238,5.194-4.343,2.06-1.104,4.492-1.657,7.299-1.657,2.687,0,5.06.523,7.119,1.567,2.06,1.045,3.807,2.449,5.239,4.209,1.433,1.762,2.508,3.792,3.224,6.09.717,2.299,1.075,4.672,1.075,7.119,0,2.389-.344,4.732-1.03,7.03-.687,2.299-1.717,4.359-3.09,6.179-1.374,1.822-3.105,3.3-5.194,4.433-2.09,1.135-4.537,1.702-7.343,1.702-2.687,0-5.075-.538-7.164-1.612-2.091-1.075-3.837-2.508-5.239-4.299-1.404-1.791-2.463-3.835-3.179-6.134-.717-2.298-1.075-4.671-1.075-7.12,0-2.387.343-4.731,1.03-7.03h0ZM237.403,325.2551l24.358,63.583h12.359l24.089-63.583h-15.492l-14.776,45.135-14.956-45.135h-15.582ZM318.806,375.9421v-13.522h25.075v-11.911h-25.075v-12.358h29.195v-12.896h-43.881v63.583h44.687v-12.896h-30.001ZM372.448,388.8381v-20.508h9.583l12.179,20.508h16.567l-13.97-23.642c1.612-.896,3.059-1.984,4.343-3.269,1.283-1.283,2.373-2.731,3.269-4.343.895-1.612,1.581-3.327,2.06-5.149.477-1.821.716-3.717.716-5.687,0-2.626-.523-5.223-1.567-7.791-1.045-2.566-2.494-4.865-4.343-6.896-1.852-2.029-4.046-3.671-6.583-4.925-2.538-1.254-5.299-1.881-8.283-1.881h-28.657v63.583h14.686ZM372.448,338.1511h12.986c1.67,0,3.224.777,4.656,2.328,1.433,1.554,2.15,3.643,2.15,6.269,0,2.568-.627,4.672-1.881,6.314-1.254,1.642-2.747,2.462-4.478,2.462h-13.433v-17.373h0ZM461.733,388.8381h11.821v-63.583h-14.687v37.344l-29.642-37.344h-11.463v63.583h14.687v-36.359l29.284,36.359h0ZM479.821,388.8381h15.045l4.8361-14.239h19.7909l4.926,14.239h15.045l-23.195-63.583h-13.254l-23.194,63.583h0ZM502.03,364.4801l7.612-22.478,7.433,22.478h-15.045ZM589.703,388.8381h11.821v-63.583h-14.687v37.344l-29.642-37.344h-11.463v63.583h14.687v-36.359l29.284,36.359h0ZM612.314,368.5091c1.522,3.941,3.671,7.464,6.447,10.568,2.7771,3.105,6.0901,5.597,9.941,7.477,3.851,1.881,8.074,2.821,12.672,2.821,2.626,0,5.313-.329,8.059-.985,2.746-.656,5.343-1.612,7.791-2.865,2.448-1.254,4.6121-2.806,6.493-4.657,1.881-1.85,3.298-3.941,4.254-6.269l-12-7.075c-.658,1.612-1.523,2.971-2.597,4.075-1.075,1.105-2.255,2.001-3.538,2.687-1.2841.687-2.6281,1.195-4.03,1.522-1.403.3289-2.762.493-4.074.493-2.568,0-4.881-.522-6.941-1.568-2.059-1.043-3.821-2.462-5.283-4.253-1.4641-1.791-2.5831-3.851-3.358-6.18-.777-2.328-1.165-4.746-1.165-7.253,0-2.329.328-4.626.985-6.896.6571-2.268,1.671-4.298,3.045-6.09,1.373-1.791,3.104-3.253,5.194-4.388,2.089-1.133,4.537-1.701,7.344-1.701,1.312,0,2.655.134,4.03.403,1.372.269,2.715.747,4.029,1.433,1.313.687,2.522,1.582,3.627,2.686,1.104,1.106,2.015,2.494,2.732,4.165l11.283-7.881c-2.149-4.12-5.418-7.462-9.806-10.03-4.3879-2.566-9.568-3.851-15.537-3.851-5.015,0-9.493.926-13.433,2.776-3.9399,1.852-7.285,4.269-10.03,7.254-2.747,2.986-4.836,6.374-6.2689,10.164-1.4331,3.792-2.149,7.598-2.149,11.418,0,4.061.761,8.06,2.284,12h0ZM690,375.9421v-13.522h25.075v-11.911h-25.075v-12.358h29.194v-12.896h-43.881v63.583h44.687v-12.896h-30Z"/>
  <path class="st0" d="M258.102,228.2811V29.8212c0-16.4697-13.351-29.8212-29.821-29.8212h-27.496c10.585,3.4457,18.247,13.4524,18.247,25.2737,0,11.9176-7.783,22.0019-18.502,25.3674v156.82c10.719,3.366,18.502,13.451,18.502,25.368,0,11.821-7.662,21.827-18.247,25.2729h27.496c16.47,0,29.821-13.351,29.821-29.821h0Z"/>
  <path class="st0" d="M80.216,0H29.8212C13.3514.0002,0,13.3515,0,29.8212v157.0959L69.325,43.659c-4.547-4.7736-7.3564-11.2436-7.3564-18.3853,0-11.8213,7.6624-21.828,18.2474-25.2737h0Z"/>
  <path class="st0" d="M.2421,231.9071c1.7922,14.756,14.3392,26.195,29.5791,26.195h154.7768c-10.585-3.446-18.247-13.452-18.247-25.2729,0-7.13,2.825-13.567,7.359-18.338L94.614,51.0395c-2.024.5022-4.128.7979-6.305.7979-1.794,0-3.545-.1841-5.238-.5288L.2421,222.4501v9.457H.2421Z"/>
  <path class="st0" d="M108.072,42.7949l76.779,158.6662V50.6409c-10.718-3.3659-18.5-13.4499-18.5-25.3672,0-11.8213,7.662-21.828,18.247-25.2737h-88.195c10.584,3.4457,18.246,13.4524,18.246,25.2737,0,6.7219-2.495,12.8425-6.577,17.5212h0Z"/>
</svg>