<?xml version="1.0" encoding="utf-8"?>
<!-- Generator: Adobe Illustrator 28.2.0, SVG Export Plug-In . SVG Version: 6.00 Build 0)  -->
<svg version="1.1" id="Layer_1" xmlns="http://www.w3.org/2000/svg" xmlns:xlink="http://www.w3.org/1999/xlink" x="0px" y="0px"
	 viewBox="0 0 864 103.2" style="enable-background:new 0 0 864 103.2;" xml:space="preserve">
<g>
	<path d="M96.8,101.4L49.5,0h-2.2L0,101.4h11.6l10.1-22.7h53.5l10.3,22.7H96.8L96.8,101.4z M71.5,70.2H25.2l23.1-50.8L71.5,70.2
		L71.5,70.2z"/>
	<polygon points="108.8,101.4 119.4,101.4 119.4,1.8 108.8,1.8 108.8,101.4 	"/>
	<path d="M211.4,53.4c12.7-1.9,22.2-10.3,22.2-24.1c0-17.8-13.8-27.5-36-27.5h-20.9v99.7h10.6V57.2h9.3c25.1,0,23.3,44.2,54.5,44.2
		l2-10.6C231.5,91.1,227.5,58.5,211.4,53.4L211.4,53.4z M197.6,48.9h-10.3V10.3h11.3c15.4,0,24.6,6.6,24.6,19.3
		C223.1,42.4,213.6,48.9,197.6,48.9L197.6,48.9z"/>
	<path d="M410.7,101.4L363.5,0h-2.2L314,101.4h11.6l10.1-22.7h53.5l10.3,22.7H410.7L410.7,101.4z M385.5,70.2h-46.3l23.1-50.8
		L385.5,70.2L385.5,70.2z"/>
	<path d="M507.3,51.6c0-27.8-17.4-49.8-59.6-49.8h-24.9v99.7h24.9C490,101.4,507.3,79.3,507.3,51.6L507.3,51.6z M496.7,51.4
		c0,23-14.6,41-48.1,41h-15.3v-82h15.3C482.1,10.4,496.7,28.5,496.7,51.4L496.7,51.4z"/>
	<polygon points="525,101.4 535.6,101.4 535.6,1.8 525,1.8 525,101.4 	"/>
	<polygon points="654.7,1.8 654.7,12.4 712.6,12.4 712.6,1.8 654.7,1.8 	"/>
	<polygon points="251.1,1.8 251.1,12.4 309,12.4 309,1.8 251.1,1.8 	"/>
	<polygon points="654.7,46.5 654.7,57.1 712.6,57.1 712.6,46.5 654.7,46.5 	"/>
	<polygon points="251.1,46.5 251.1,57.1 309,57.1 309,46.5 251.1,46.5 	"/>
	<polygon points="654.7,90.8 654.7,101.4 712.6,101.4 712.6,90.8 654.7,90.8 	"/>
	<polygon points="251.1,90.8 251.1,101.4 309,101.4 309,90.8 251.1,90.8 	"/>
	<polygon points="640.1,102.7 642.5,102.7 642.5,1.8 631.9,1.8 631.9,80.4 560.2,0.2 558.1,0.2 558.1,101.4 568.7,101.4 568.7,23 
		640.1,102.7 	"/>
	<path d="M781.7,8.5c-6.1-4.5-15.3-8.2-26-8.2c-17.8,0-31,9-31,24.6c0,32.6,52.9,21.5,52.9,49.7c0,11.3-8.4,19.6-23.3,19.6
		c-9,0-19.6-3.4-28.9-10l-4.5,8c11.4,8.2,22.5,10.9,33.6,10.9c20.3,0,33.6-11.9,33.6-28.6c0-35.8-52.7-25.1-52.7-49.8
		c0-11.4,11.3-15.3,20.9-15.3c9.2,0,18,3.5,24.9,8.7C781.2,15,781.5,11.7,781.7,8.5L781.7,8.5z"/>
	<path d="M857.7,8.5c-6.1-4.5-15.3-8.2-26-8.2c-17.8,0-31,9-31,24.6c0,32.6,52.9,21.5,52.9,49.7c0,11.3-8.4,19.6-23.3,19.6
		c-9,0-19.6-3.4-28.9-10l-4.5,8c11.4,8.2,22.5,10.9,33.6,10.9c20.3,0,33.6-11.9,33.6-28.6c0-35.8-52.7-25.1-52.7-49.8
		c0-11.4,11.3-15.3,20.9-15.3c9.2,0,18,3.5,24.9,8.7C857.2,15,857.6,11.7,857.7,8.5L857.7,8.5z"/>
</g>
</svg>
