<?xml version="1.0" encoding="utf-8"?>
<!-- Generator: Adobe Illustrator 24.1.0, SVG Export Plug-In . SVG Version: 6.00 Build 0)  -->
<svg version="1.1" id="Layer_1" xmlns="http://www.w3.org/2000/svg" xmlns:xlink="http://www.w3.org/1999/xlink" x="0px" y="0px"
	 viewBox="0 0 537.91 537.91" style="enable-background:new 0 0 537.91 537.91;" xml:space="preserve">
<style type="text/css">
	.st0{fill:#0B1F41;}
	.st1{fill:#5297C9;}
	.st2{fill:#1670A0;}
	.st3{fill:#2089C1;}
	.st4{fill:#0880B7;}
	.st5{fill:#FFFFFF;}
	.st6{fill:#F05323;}
	.st7{fill:#F58220;}
</style>
<g>
	<path class="st0" d="M537.91,268.96C537.91,120.42,417.5,0,268.96,0S0,120.42,0,268.96c0,81.24,36.07,154,93,203.32
		c89.55-30.32,161.01-73.15,175.95-185.76c0,0,70.68,130.71-65.19,243.4c20.88,5.2,42.7,8,65.19,8
		C417.5,537.91,537.91,417.5,537.91,268.96"/>
	<path class="st1" d="M268.96,537.91c-22.49,0-44.31-2.8-65.19-8l0,0c0,0,0,0,0,0c0,0,0,0,0,0
		C224.64,535.11,246.47,537.91,268.96,537.91L268.96,537.91 M268.96,537.91c0.05,0,0.1,0,0.15,0
		C269.06,537.91,269.01,537.91,268.96,537.91 M269.14,537.91c0.05,0,0.1,0,0.15,0C269.24,537.91,269.19,537.91,269.14,537.91
		 M269.31,537.91c0.74,0,1.48-0.01,2.22-0.01c1.38-0.01,2.76-0.04,4.14-0.07C273.56,537.88,271.44,537.91,269.31,537.91
		 M275.69,537.83c0.03,0,0.04,0,0.06,0C275.74,537.83,275.72,537.83,275.69,537.83 M275.83,537.83L275.83,537.83L275.83,537.83
		 M93,472.28c-1.24-1.08-2.48-2.16-3.7-3.27c0.83,0.74,1.66,1.48,2.49,2.21C92.2,471.58,92.6,471.93,93,472.28L93,472.28
		 M89.27,468.99c-0.01-0.01-0.03-0.03-0.05-0.04C89.24,468.96,89.26,468.97,89.27,468.99 M124.11,460.84
		c72.73-29.28,128.76-72.81,143.76-166.84C252.87,388.03,196.84,431.55,124.11,460.84"/>
	<path class="st2" d="M271.53,537.9c28.1-0.27,55.15-4.89,80.57-13.15c71.29-140.93-75.25-245.08-83.15-245.08
		c56.6,0,152.06,48.83,184.3,185.08c-46.59,43.87-108.79,71.36-177.42,73.08h0c-0.03,0-0.05,0-0.08,0c-0.03,0-0.04,0-0.06,0
		c0,0-0.02,0-0.02,0C274.3,537.87,272.92,537.89,271.53,537.9 M203.76,529.91L203.76,529.91
		c125.29-103.91,74.95-223.15,66.35-241.09C278.71,306.77,329.05,426.01,203.76,529.91 M91.8,471.22c-0.84-0.73-1.67-1.47-2.49-2.21
		c-0.01-0.01-0.02-0.02-0.03-0.03c-0.01-0.01-0.03-0.03-0.05-0.04c-45.86-41.24-77.4-98.01-86.46-162.03
		c57.81,16.51,116.68,29.04,164.53,29.04c52.37,0,91.54-15.02,101.66-56.28l0,0c-19.38,112.8-151.35,129.2-220.05,143.73
		C61.29,440.99,75.66,457.08,91.8,471.22"/>
	<path class="st1" d="M268.96,537.91L268.96,537.91L268.96,537.91L268.96,537.91 M269.11,537.91c0.01,0,0.02,0,0.03,0
		C269.13,537.91,269.12,537.91,269.11,537.91 M269.29,537.91c0.01,0,0.01,0,0.02,0C269.3,537.91,269.3,537.91,269.29,537.91
		 M93,472.28L93,472.28c10.65-3.61,21.03-7.39,31.11-11.44C114.04,464.89,103.65,468.67,93,472.28"/>
	<path class="st3" d="M268.96,537.91c-22.49,0-44.31-2.8-65.19-8l0,0C224.64,535.11,246.47,537.91,268.96,537.91
		c0.86,0,1.72,0,2.58-0.01c-0.74,0.01-1.48,0.01-2.22,0.01c-0.01,0-0.01,0-0.02,0c-0.05,0-0.1,0-0.15,0c-0.01,0-0.02,0-0.03,0
		C269.06,537.91,269.01,537.91,268.96,537.91L268.96,537.91 M93,472.28c-0.4-0.35-0.81-0.7-1.21-1.05
		C92.2,471.58,92.6,471.93,93,472.28c89.55-30.32,161.01-73.15,175.95-185.76c0,0,0,0,0,0c-0.34,2.53-0.7,5.02-1.09,7.48
		c-14.99,94.03-71.02,137.55-143.76,166.84C114.04,464.89,103.65,468.67,93,472.28"/>
	<path class="st4" d="M268.96,537.91c-22.49,0-44.31-2.8-65.19-8c125.29-103.91,74.95-223.15,66.35-241.09
		c-0.73-1.52-1.15-2.31-1.15-2.31l0,0c0,0,0,0,0,0C254.02,399.13,182.55,441.95,93,472.28c-0.4-0.35-0.81-0.7-1.21-1.05
		c-16.14-14.15-30.51-30.24-42.89-47.83c68.7-14.53,200.67-30.94,220.05-143.73l0,0c7.9,0,154.43,104.15,83.15,245.08
		c-25.42,8.26-52.47,12.88-80.57,13.15C270.67,537.91,269.82,537.91,268.96,537.91"/>
	<path class="st5" d="M315.43,130.86C315.43,94.53,269,29.72,269,29.72s-46.42,64.81-46.42,101.14S269,234.81,269,266.09
		C269,234.81,315.43,167.19,315.43,130.86L315.43,130.86z"/>
	<path class="st5" d="M289.19,226.28c13.75,6.35,34.83,19.39,34.83,39.81c19.54-35.09-4.4-70.16-15.3-83.34
		C302.34,197.38,295.1,212.42,289.19,226.28L289.19,226.28z"/>
	<path class="st5" d="M248.72,226.28c-13.75,6.35-34.83,19.39-34.83,39.81c-19.54-35.09,4.4-70.16,15.3-83.34
		C235.57,197.38,242.81,212.42,248.72,226.28L248.72,226.28z"/>
	<path class="st6" d="M298.88,281.97c0-16.57-6.95-30.84-17-37.56C277,253.97,269,276.73,269,286.27c0-9.73-7.64-32.94-12.1-42.39
		c-10.46,6.48-17.77,21.08-17.77,38.08c0,23.01,24.22,68.13,29.87,68.13C274.66,350.09,298.88,304.98,298.88,281.97L298.88,281.97z"
		/>
	<path class="st7" d="M288.34,279.22c0-10.75-4.51-20.01-11.03-24.37c-3.16,6.21-8.35,20.97-8.35,27.16c0-6.31-4.96-21.37-7.85-27.5
		c-6.79,4.2-11.53,13.68-11.53,24.7c0,14.93,15.71,44.2,19.38,44.2C272.62,323.43,288.34,294.15,288.34,279.22L288.34,279.22z"/>
</g>
</svg>
