<?xml version="1.0" encoding="utf-8"?>
<!-- Generator: Adobe Illustrator 22.1.0, SVG Export Plug-In . SVG Version: 6.00 Build 0)  -->
<svg version="1.1" id="Layer_1" xmlns="http://www.w3.org/2000/svg" xmlns:xlink="http://www.w3.org/1999/xlink" x="0px" y="0px"
	 viewBox="0 0 576 720" style="enable-background:new 0 0 576 720;" xml:space="preserve">
<style type="text/css">
	.st0{fill:#0086BF;}
	.st1{fill:#00B5E2;}
</style>
<g>
	<path class="st0" d="M204.7,393.5h18.9v2.7h-15.9v9.4h14.2v2.7h-14.2v11.4h-3V393.5z"/>
	<path class="st0" d="M228.7,392.9h3.3v3.2h-3.3V392.9z M228.9,400.3h2.9v19.4h-2.9V400.3z"/>
	<path class="st0" d="M238.3,400.3h2.9v3.4c1.3-2.1,3.3-3.8,6.6-3.8c4.7,0,7.4,3.2,7.4,7.8v12h-2.9v-11.3c0-3.6-2-5.9-5.4-5.9
		c-3.3,0-5.8,2.4-5.8,6.1v11.1h-2.9V400.3z"/>
	<path class="st0" d="M262.2,414.6v-11.7h-2.7v-2.5h2.7v-5.9h2.9v5.9h6.2v2.5h-6.2v11.3c0,2.4,1.3,3.2,3.3,3.2c1,0,1.8-0.2,2.8-0.7
		v2.5c-1,0.5-2.1,0.8-3.5,0.8C264.6,420.1,262.2,418.5,262.2,414.6z"/>
	<path class="st0" d="M274.4,410.1L274.4,410.1c0-5.7,3.9-10.2,9.3-10.2c5.7,0,9,4.6,9,10.2c0,0.4,0,0.6,0,0.9h-15.4
		c0.4,4.2,3.4,6.6,6.8,6.6c2.7,0,4.5-1.1,6.1-2.7l1.8,1.6c-2,2.2-4.3,3.6-8,3.6C278.8,420.2,274.4,416.1,274.4,410.1z M289.8,409
		c-0.3-3.5-2.3-6.6-6.2-6.6c-3.4,0-5.9,2.8-6.3,6.6H289.8z"/>
	<path class="st0" d="M296.4,410.1L296.4,410.1c0-5.6,4.3-10.2,9.9-10.2c3.7,0,6,1.5,7.8,3.5l-1.9,2c-1.5-1.6-3.3-2.9-5.9-2.9
		c-3.9,0-6.9,3.3-6.9,7.5v0.1c0,4.2,3.1,7.5,7.1,7.5c2.5,0,4.4-1.2,5.9-2.9l1.8,1.7c-1.9,2.2-4.3,3.8-7.9,3.8
		C300.7,420.2,296.4,415.6,296.4,410.1z"/>
	<path class="st0" d="M318.9,392.3h2.9v11.4c1.3-2.1,3.3-3.8,6.6-3.8c4.7,0,7.4,3.2,7.4,7.8v12h-2.9v-11.3c0-3.6-1.9-5.9-5.4-5.9
		c-3.3,0-5.8,2.4-5.8,6.1v11.1h-2.9V392.3z"/>
	<path class="st0" d="M203.5,450.7L203.5,450.7c0-7.3,5.4-13.7,13.4-13.7c8,0,13.4,6.3,13.4,13.5v0.1c0,7.2-5.4,13.6-13.4,13.6
		C208.9,464.2,203.5,457.9,203.5,450.7z M227.2,450.7L227.2,450.7c0-6-4.4-10.9-10.4-10.9s-10.3,4.8-10.3,10.8v0.1
		c0,6,4.4,10.8,10.4,10.8S227.2,456.6,227.2,450.7z"/>
	<path class="st0" d="M235.9,444.3h2.9v3.9c1.6-2.3,3.9-4.3,7.4-4.3c4.7,0,9.3,3.7,9.3,10.1v0.1c0,6.3-4.6,10.1-9.3,10.1
		c-3.6,0-5.9-2-7.4-4.1v9.7h-2.9V444.3z M252.5,454.1L252.5,454.1c0-4.7-3.2-7.6-6.8-7.6c-3.6,0-7,3-7,7.5v0.1c0,4.5,3.4,7.5,7,7.5
		C249.4,461.5,252.5,458.8,252.5,454.1z"/>
	<path class="st0" d="M259.4,454.1L259.4,454.1c0-5.7,3.9-10.2,9.3-10.2c5.7,0,9,4.6,9,10.2c0,0.4,0,0.6,0,0.9h-15.4
		c0.4,4.2,3.4,6.6,6.8,6.6c2.7,0,4.5-1.1,6.1-2.7l1.8,1.6c-2,2.2-4.3,3.6-8,3.6C263.8,464.2,259.4,460.1,259.4,454.1z M274.8,453
		c-0.3-3.5-2.3-6.6-6.2-6.6c-3.4,0-5.9,2.8-6.3,6.6H274.8z"/>
	<path class="st0" d="M282.6,444.3h2.9v3.4c1.3-2.1,3.3-3.8,6.6-3.8c4.7,0,7.4,3.2,7.4,7.8v12h-2.9v-11.3c0-3.6-1.9-5.9-5.4-5.9
		c-3.3,0-5.8,2.4-5.8,6.1v11.1h-2.9V444.3z"/>
	<path class="st0" d="M315.4,459.9l1.8-2.2c2.7,2.5,5.4,3.7,9,3.7c3.5,0,5.9-1.9,5.9-4.5v-0.1c0-2.4-1.3-3.8-6.8-5
		c-6-1.3-8.8-3.3-8.8-7.6v-0.1c0-4.1,3.6-7.2,8.6-7.2c3.8,0,6.6,1.1,9.2,3.2l-1.7,2.3c-2.4-2-4.9-2.9-7.6-2.9
		c-3.4,0-5.6,1.9-5.6,4.2v0.1c0,2.5,1.4,3.9,7.1,5.1c5.9,1.3,8.6,3.4,8.6,7.4v0.1c0,4.5-3.8,7.4-9,7.4
		C321.9,464.1,318.5,462.7,315.4,459.9z"/>
	<path class="st0" d="M339.2,454.1L339.2,454.1c0-5.6,4.3-10.2,10.1-10.2c5.8,0,10.1,4.6,10.1,10.1v0.1c0,5.5-4.3,10.1-10.2,10.1
		C343.5,464.2,339.2,459.6,339.2,454.1z M356.5,454.1L356.5,454.1c0-4.2-3.1-7.7-7.2-7.7c-4.2,0-7.1,3.4-7.1,7.5v0.1
		c0,4.2,3.1,7.5,7.2,7.5C353.5,461.6,356.5,458.2,356.5,454.1z"/>
	<path class="st0" d="M364.2,456.4v-12h2.9v11.3c0,3.6,2,5.9,5.4,5.9c3.3,0,5.8-2.4,5.8-6.1v-11.1h2.8v19.4h-2.8v-3.4
		c-1.3,2.1-3.3,3.8-6.6,3.8C366.9,464.1,364.2,461,364.2,456.4z"/>
	<path class="st0" d="M387.4,444.3h2.9v5.1c1.4-3.2,4.2-5.6,7.9-5.4v3.1h-0.2c-4.2,0-7.7,3-7.7,8.9v7.7h-2.9V444.3z"/>
	<path class="st0" d="M400.3,454.1L400.3,454.1c0-5.6,4.3-10.2,9.9-10.2c3.7,0,6,1.5,7.8,3.5l-1.9,2c-1.5-1.6-3.3-2.9-5.9-2.9
		c-3.9,0-6.9,3.3-6.9,7.5v0.1c0,4.2,3.1,7.5,7.1,7.5c2.5,0,4.4-1.2,5.9-2.9l1.8,1.7c-1.9,2.2-4.3,3.8-7.9,3.8
		C404.6,464.2,400.3,459.6,400.3,454.1z"/>
	<path class="st0" d="M421,454.1L421,454.1c0-5.7,3.9-10.2,9.3-10.2c5.7,0,9,4.6,9,10.2c0,0.4,0,0.6,0,0.9h-15.4
		c0.4,4.2,3.4,6.6,6.8,6.6c2.7,0,4.5-1.1,6.1-2.7l1.8,1.6c-2,2.2-4.3,3.6-8,3.6C425.4,464.2,421,460.1,421,454.1z M436.4,453
		c-0.3-3.5-2.3-6.6-6.2-6.6c-3.4,0-5.9,2.8-6.3,6.6H436.4z"/>
	<path class="st0" d="M204.7,481.5h18.9v2.7h-15.9v9.4h14.2v2.7h-14.2v11.4h-3V481.5z"/>
	<path class="st0" d="M226.9,498.1L226.9,498.1c0-5.6,4.3-10.2,10.1-10.2c5.8,0,10.1,4.6,10.1,10.1v0.1c0,5.5-4.3,10.1-10.2,10.1
		C231.1,508.2,226.9,503.6,226.9,498.1z M244.1,498.1L244.1,498.1c0-4.2-3.1-7.7-7.2-7.7c-4.2,0-7.1,3.4-7.1,7.5v0.1
		c0,4.2,3.1,7.5,7.2,7.5C241.2,505.6,244.1,502.2,244.1,498.1z"/>
	<path class="st0" d="M251.8,500.4v-12h2.9v11.3c0,3.6,2,5.9,5.4,5.9c3.3,0,5.8-2.4,5.8-6.1v-11.1h2.9v19.4h-2.9v-3.4
		c-1.3,2.1-3.3,3.8-6.6,3.8C254.5,508.1,251.8,505,251.8,500.4z"/>
	<path class="st0" d="M275,488.3h2.9v3.4c1.3-2.1,3.3-3.8,6.6-3.8c4.7,0,7.4,3.2,7.4,7.8v12h-2.9v-11.3c0-3.6-1.9-5.9-5.4-5.9
		c-3.3,0-5.8,2.4-5.8,6.1v11.1H275V488.3z"/>
	<path class="st0" d="M296.8,498.1L296.8,498.1c0-6.4,4.6-10.2,9.3-10.2c3.6,0,5.9,2,7.4,4.1v-11.7h2.9v27.4h-2.9v-3.9
		c-1.6,2.3-3.9,4.3-7.4,4.3C301.4,508.1,296.8,504.5,296.8,498.1z M313.6,498L313.6,498c0-4.5-3.4-7.5-7-7.5c-3.8,0-6.8,2.8-6.8,7.5
		v0.1c0,4.6,3.2,7.5,6.8,7.5C310.2,505.5,313.6,502.5,313.6,498z"/>
	<path class="st0" d="M321.4,502.1L321.4,502.1c0-4.2,3.4-6.3,8.3-6.3c2.5,0,4.2,0.3,6,0.8v-0.7c0-3.5-2.1-5.3-5.8-5.3
		c-2.3,0-4.1,0.6-5.9,1.4l-0.9-2.4c2.1-1,4.2-1.6,7.1-1.6c2.7,0,4.8,0.7,6.3,2.1c1.3,1.3,2,3.2,2,5.7v11.9h-2.8v-2.9
		c-1.3,1.8-3.6,3.3-7,3.3C325,508.1,321.4,506.1,321.4,502.1z M335.7,500.6v-1.9c-1.4-0.4-3.3-0.8-5.7-0.8c-3.6,0-5.7,1.6-5.7,4v0.1
		c0,2.4,2.2,3.9,4.9,3.9C332.7,505.8,335.7,503.7,335.7,500.6z"/>
	<path class="st0" d="M345.4,502.6v-11.7h-2.7v-2.5h2.7v-5.9h2.9v5.9h6.2v2.5h-6.2v11.3c0,2.4,1.3,3.2,3.3,3.2c1,0,1.8-0.2,2.8-0.7
		v2.5c-1,0.5-2.1,0.8-3.5,0.8C347.7,508.1,345.4,506.5,345.4,502.6z"/>
	<path class="st0" d="M359.6,480.9h3.3v3.2h-3.3V480.9z M359.8,488.3h2.9v19.4h-2.9V488.3z"/>
	<path class="st0" d="M368,498.1L368,498.1c0-5.6,4.3-10.2,10.1-10.2c5.8,0,10.1,4.6,10.1,10.1v0.1c0,5.5-4.3,10.1-10.2,10.1
		C372.3,508.2,368,503.6,368,498.1z M385.3,498.1L385.3,498.1c0-4.2-3.1-7.7-7.2-7.7c-4.2,0-7.1,3.4-7.1,7.5v0.1
		c0,4.2,3.1,7.5,7.2,7.5C382.3,505.6,385.3,502.2,385.3,498.1z"/>
	<path class="st0" d="M393.3,488.3h2.9v3.4c1.3-2.1,3.3-3.8,6.6-3.8c4.7,0,7.4,3.2,7.4,7.8v12h-2.9v-11.3c0-3.6-2-5.9-5.4-5.9
		c-3.3,0-5.8,2.4-5.8,6.1v11.1h-2.9V488.3z"/>
</g>
<g>
	<polygon class="st1" points="307.2,165.3 307.2,194.9 232.6,218.8 232.6,189.3 307.1,165.3 	"/>
	<polygon class="st1" points="232.6,237.5 232.6,290 261.6,290 261.6,257.8 307.2,243.2 307.2,213.6 	"/>
</g>
<g>
	<path class="st0" d="M204.8,319.1h22.1v5.8h-15.7v6.2H225v5.8h-13.9v11.3h-6.4V319.1z"/>
	<path class="st0" d="M232.6,319.1h6.4v29.1h-6.4V319.1z"/>
	<path class="st0" d="M246.3,319.1h5.9l13.6,17.9v-17.9h6.3v29.1h-5.4l-14.1-18.5v18.5h-6.3V319.1z"/>
	<path class="st0" d="M277.6,333.8L277.6,333.8c0-8.3,6.5-15.1,15.5-15.1c9,0,15.4,6.7,15.4,15v0.1c0,8.3-6.5,15-15.5,15
		S277.6,342,277.6,333.8z M301.8,333.8L301.8,333.8c0-5.1-3.7-9.2-8.8-9.2s-8.7,4.1-8.7,9.1v0.1c0,5,3.7,9.1,8.8,9.1
		S301.8,338.7,301.8,333.8z"/>
	<path class="st0" d="M311.8,344l3.8-4.5c2.6,2.2,5.4,3.5,8.7,3.5c2.6,0,4.2-1,4.2-2.7v-0.1c0-1.6-1-2.5-5.9-3.7
		c-5.9-1.5-9.6-3.1-9.6-8.9v-0.1c0-5.3,4.2-8.8,10.2-8.8c4.2,0,7.9,1.3,10.8,3.7l-3.3,4.8c-2.6-1.8-5.1-2.9-7.6-2.9
		s-3.7,1.1-3.7,2.5v0.1c0,1.9,1.2,2.5,6.3,3.8c5.9,1.5,9.2,3.7,9.2,8.7v0.1c0,5.8-4.4,9-10.7,9C319.7,348.6,315.3,347.1,311.8,344z"
		/>
</g>
<path class="st0" d="M307.2,213.5C307.2,213.4,307.1,213.4,307.2,213.5c-0.1-0.1-0.1-0.1-0.1-0.1l-28.7-9.2l-45.8,14.7l0,0.2
	c0,0,0,0.1,0,0.1c0,0,0.1,0,0.1,0l28.7,9.2l45.8-14.7C307.2,213.6,307.2,213.5,307.2,213.5z"/>
</svg>
