<?xml version="1.0" encoding="utf-8"?>
<!-- Generator: Adobe Illustrator 27.0.0, SVG Export Plug-In . SVG Version: 6.00 Build 0)  -->
<svg version="1.1" id="Layer_1" xmlns="http://www.w3.org/2000/svg" xmlns:xlink="http://www.w3.org/1999/xlink" x="0px" y="0px"
	 viewBox="0 0 720 450.3" style="enable-background:new 0 0 720 450.3;" xml:space="preserve">
<style type="text/css">
	.st0{fill:#FFFFFF;}
	.st1{opacity:0.6;fill:#FFFFFF;}
</style>
<g>
	<polygon class="st0" points="197.6,59.8 0,123.3 0,201.7 197.8,138.4 197.8,59.8 	"/>
	<polygon class="st0" points="0,251.3 0,390.5 76.9,390.5 76.9,305.1 197.8,266.4 197.8,188 	"/>
	<path class="st1" d="M197.8,187.6c0-0.1,0-0.2-0.1-0.3c0,0-0.1-0.1-0.1-0.1l-76.1-24.4L0,201.7v0.4c0,0.1,0,0.2,0.1,0.3
		c0,0,0.1,0.1,0.1,0.1l76.2,24.4L197.8,188L197.8,187.6z"/>
	<path class="st0" d="M642.3,223.2V59.8h-57.2v225.7c6.7-4.6,13.5-9.5,20.5-14.5l10.2-7.4l-24.9-27.4L642.3,223.2z"/>
	<path class="st0" d="M572.2,294.2V123.9H515v203.7C532.7,318.8,551.9,307.6,572.2,294.2"/>
	<path class="st0" d="M502.1,333.7V188.1h-57.2v162.2c9.1-0.5,20-2.7,32-6.6C484.8,341,493.3,337.7,502.1,333.7"/>
	<path class="st0" d="M611.2,242.2l20.8,22.9L612,279.7c-193.8,142.1-263.4,81.8-168.7-52.3c-119.9,104.3-52.9,268.1,217.8,69.9
		l21.2,23.3L720,214.9L611.2,242.2z"/>
	<rect x="294.3" class="st0" width="3.1" height="450.3"/>
</g>
</svg>
