<?xml version="1.0" encoding="utf-8"?>
<!-- Generator: Adobe Illustrator 25.4.1, SVG Export Plug-In . SVG Version: 6.00 Build 0)  -->
<svg version="1.1" id="Layer_1" xmlns="http://www.w3.org/2000/svg" xmlns:xlink="http://www.w3.org/1999/xlink" x="0px" y="0px"
	 viewBox="0 0 715 219.2" style="enable-background:new 0 0 715 219.2;" xml:space="preserve">
<g>
	<path d="M276.4,201.8c1.2-0.4,2.2-0.9,3.1-1.6c0.8-0.7,1.5-1.6,2-2.6c0.5-1,0.7-2.1,0.7-3.4v-0.1c0-1.1-0.2-2.1-0.6-2.9
		c-0.4-0.8-0.9-1.6-1.7-2.2c-0.7-0.6-1.6-1.2-2.7-1.6c-1.1-0.4-2.4-0.8-3.8-1.2c-1.3-0.3-2.4-0.6-3.2-0.9c-0.8-0.3-1.5-0.6-2-0.9
		c-0.5-0.3-0.8-0.7-1-1.1s-0.3-0.9-0.3-1.4v-0.1c0-0.9,0.4-1.7,1.2-2.3c0.8-0.6,1.9-0.9,3.3-0.9c1.2,0,2.5,0.2,3.7,0.7
		c1.2,0.5,2.4,1.2,3.7,2.1l2.6-3.6c-1.4-1.1-2.9-2-4.5-2.5c-1.6-0.6-3.4-0.9-5.4-0.9c-1.3,0-2.6,0.2-3.7,0.6
		c-1.1,0.4-2.1,0.9-2.9,1.6c-0.8,0.7-1.4,1.5-1.9,2.5c-0.5,1-0.7,2-0.7,3.2v0.1c0,1.2,0.2,2.3,0.6,3.2c0.4,0.9,1,1.6,1.8,2.2
		c0.8,0.6,1.7,1.1,2.8,1.6c1.1,0.4,2.4,0.8,3.9,1.1c1.3,0.3,2.3,0.6,3.1,0.9c0.8,0.3,1.4,0.6,1.9,0.9c0.5,0.3,0.8,0.7,0.9,1.1
		c0.2,0.4,0.3,0.8,0.3,1.3v0.1c0,1-0.4,1.9-1.3,2.5c-0.9,0.6-2,0.9-3.5,0.9c-1.7,0-3.2-0.3-4.6-0.9c-1.3-0.6-2.7-1.5-4-2.6l-2.9,3.4
		c1.6,1.5,3.4,2.6,5.3,3.3c1.9,0.7,3.9,1.1,6,1.1C273.9,202.4,275.2,202.2,276.4,201.8L276.4,201.8z M296.5,202.1
		c0.7-0.2,1.3-0.4,1.9-0.8v-3.8c-0.9,0.5-1.9,0.7-2.9,0.7c-0.8,0-1.4-0.2-1.9-0.6c-0.4-0.4-0.7-1.1-0.7-2v-10.1h5.5v-4h-5.5v-5.6
		h-4.7v5.6h-2.6v4h2.6v10.8c0,1.1,0.1,2.1,0.4,2.9c0.3,0.8,0.7,1.4,1.2,1.8c0.5,0.5,1.2,0.8,1.9,1c0.7,0.2,1.5,0.3,2.4,0.3
		C295,202.3,295.8,202.2,296.5,202.1L296.5,202.1z M303.1,202h4.7v-7.8c0-1.3,0.2-2.5,0.5-3.6c0.3-1,0.8-1.9,1.4-2.5
		c0.6-0.7,1.4-1.2,2.2-1.5c0.9-0.3,1.8-0.5,2.8-0.5h0.3v-5c-1.8-0.1-3.3,0.3-4.5,1.3c-1.2,0.9-2.1,2.2-2.8,3.7v-4.6h-4.7V202
		L303.1,202z M330.1,201.3c1-0.7,1.8-1.6,2.5-2.6v3.2h4.7v-20.5h-4.7V193c0,1.6-0.4,2.8-1.3,3.7c-0.8,0.9-2,1.3-3.3,1.3
		c-1.4,0-2.5-0.4-3.2-1.3c-0.8-0.9-1.1-2.1-1.1-3.7v-11.6H319v13.1c0,2.4,0.6,4.3,1.9,5.8c1.3,1.4,3.1,2.1,5.4,2.1
		C327.8,202.4,329.1,202,330.1,201.3L330.1,201.3z M357.7,201.4c1.3-0.7,2.4-1.6,3.5-2.8l-2.8-2.8c-0.8,0.8-1.5,1.4-2.4,1.8
		c-0.8,0.5-1.8,0.7-2.9,0.7c-0.9,0-1.7-0.2-2.5-0.5c-0.8-0.4-1.4-0.8-1.9-1.4c-0.5-0.6-1-1.3-1.3-2.1c-0.3-0.8-0.4-1.7-0.4-2.6v-0.1
		c0-0.9,0.1-1.7,0.4-2.5c0.3-0.8,0.7-1.5,1.2-2.1c0.5-0.6,1.1-1,1.9-1.4c0.7-0.3,1.5-0.5,2.4-0.5c1.2,0,2.2,0.2,3,0.7
		c0.8,0.5,1.6,1.1,2.3,1.8l2.9-3.1c-1-1.1-2.1-1.9-3.4-2.6c-1.3-0.6-2.9-1-4.8-1c-1.5,0-2.9,0.3-4.3,0.9c-1.3,0.6-2.4,1.3-3.4,2.3
		c-1,1-1.7,2.1-2.2,3.4c-0.5,1.3-0.8,2.7-0.8,4.1v0.1c0,1.5,0.3,2.8,0.8,4.1c0.5,1.3,1.3,2.4,2.2,3.4c1,1,2.1,1.7,3.4,2.3
		c1.3,0.6,2.7,0.8,4.2,0.8C354.8,202.4,356.5,202.1,357.7,201.4L357.7,201.4z M374.7,202.1c0.7-0.2,1.3-0.4,1.9-0.8v-3.8
		c-0.9,0.5-1.9,0.7-2.9,0.7c-0.8,0-1.4-0.2-1.9-0.6c-0.4-0.4-0.7-1.1-0.7-2v-10.1h5.5v-4h-5.5v-5.6h-4.7v5.6h-2.6v4h2.6v10.8
		c0,1.1,0.1,2.1,0.4,2.9c0.3,0.8,0.7,1.4,1.2,1.8c0.5,0.5,1.2,0.8,1.9,1c0.7,0.2,1.5,0.3,2.4,0.3
		C373.3,202.3,374.1,202.2,374.7,202.1L374.7,202.1z M392.3,201.3c1-0.7,1.8-1.6,2.5-2.6v3.2h4.7v-20.5h-4.7V193
		c0,1.6-0.4,2.8-1.3,3.7c-0.8,0.9-2,1.3-3.3,1.3c-1.4,0-2.5-0.4-3.2-1.3c-0.8-0.9-1.1-2.1-1.1-3.7v-11.6h-4.7v13.1
		c0,2.4,0.6,4.3,1.9,5.8c1.3,1.4,3.1,2.1,5.4,2.1C390,202.4,391.3,202,392.3,201.3L392.3,201.3z M405.5,202h4.7v-7.8
		c0-1.3,0.2-2.5,0.5-3.6c0.3-1,0.8-1.9,1.4-2.5c0.6-0.7,1.4-1.2,2.2-1.5c0.9-0.3,1.8-0.5,2.8-0.5h0.3v-5c-1.8-0.1-3.3,0.3-4.5,1.3
		c-1.2,0.9-2.1,2.2-2.8,3.7v-4.6h-4.7V202L405.5,202z M425.1,190.3c0.2-1.6,0.8-2.9,1.7-3.9c0.9-1,2.1-1.5,3.6-1.5
		c0.8,0,1.5,0.1,2.1,0.4c0.6,0.3,1.1,0.7,1.6,1.1c0.4,0.5,0.8,1,1,1.7c0.3,0.7,0.4,1.4,0.5,2.1H425.1L425.1,190.3z M435.8,201.4
		c1.4-0.7,2.5-1.6,3.5-2.8l-2.8-2.4c-0.8,0.8-1.7,1.4-2.5,1.8c-0.9,0.4-1.9,0.6-3,0.6c-1.5,0-2.8-0.4-3.9-1.3
		c-1.1-0.9-1.7-2.2-2-3.9h15.1c0-0.2,0-0.5,0.1-0.7c0-0.2,0-0.4,0-0.6c0-1.5-0.2-2.9-0.6-4.2c-0.4-1.3-1-2.5-1.8-3.5
		c-0.8-1-1.8-1.8-3.1-2.4c-1.2-0.6-2.7-0.9-4.3-0.9c-1.5,0-2.8,0.3-4,0.8c-1.2,0.6-2.3,1.3-3.2,2.3c-0.9,1-1.6,2.1-2.1,3.4
		c-0.5,1.3-0.7,2.7-0.7,4.2v0.1c0,1.6,0.3,3,0.8,4.3c0.5,1.3,1.3,2.4,2.2,3.4c0.9,0.9,2.1,1.7,3.3,2.2c1.3,0.5,2.7,0.8,4.1,0.8
		C432.9,202.4,434.5,202.1,435.8,201.4L435.8,201.4z M452.3,197.9c-0.7-0.3-1.3-0.8-1.9-1.3c-0.5-0.6-1-1.3-1.3-2.1
		c-0.3-0.8-0.5-1.7-0.5-2.7v-0.1c0-1,0.2-1.9,0.5-2.7c0.3-0.8,0.7-1.5,1.3-2.1c0.5-0.6,1.2-1,1.9-1.3c0.7-0.3,1.5-0.4,2.3-0.4
		c0.8,0,1.5,0.2,2.2,0.5c0.7,0.3,1.4,0.8,1.9,1.3c0.5,0.6,1,1.3,1.3,2.1c0.3,0.8,0.5,1.7,0.5,2.7v0.1c0,1-0.2,1.9-0.5,2.7
		c-0.3,0.8-0.8,1.5-1.3,2.1c-0.5,0.6-1.2,1-1.9,1.3s-1.5,0.5-2.2,0.5C453.8,198.3,453.1,198.2,452.3,197.9L452.3,197.9z
		 M457.7,201.3c1.1-0.8,2.1-1.7,2.8-2.7l0,3.4h4.7v-28.4h-4.7v11c-0.8-1-1.7-1.8-2.8-2.5c-1.1-0.7-2.5-1.1-4.2-1.1
		c-1.2,0-2.4,0.2-3.5,0.7c-1.1,0.5-2.2,1.2-3,2.1c-0.9,0.9-1.6,2-2.1,3.3c-0.5,1.3-0.8,2.8-0.8,4.5v0.1c0,1.7,0.3,3.2,0.8,4.5
		c0.5,1.3,1.3,2.4,2.1,3.3c0.9,0.9,1.9,1.6,3,2.1c1.1,0.5,2.3,0.7,3.5,0.7C455.2,202.4,456.5,202,457.7,201.3L457.7,201.3z
		 M488,188.9v-9.8h5.6c1.8,0,3.2,0.4,4.3,1.2c1.1,0.8,1.6,2,1.6,3.6v0.1c0,1.4-0.5,2.6-1.6,3.5c-1.1,0.9-2.5,1.4-4.3,1.4H488
		L488,188.9z M483.3,202h4.7v-8.7h5.4c1.5,0,2.9-0.2,4.2-0.6c1.3-0.4,2.5-1,3.5-1.8c1-0.8,1.8-1.7,2.3-2.9c0.6-1.2,0.9-2.5,0.9-4
		v-0.1c0-1.4-0.2-2.6-0.7-3.7c-0.5-1.1-1.2-2.1-2.1-2.9c-0.9-0.8-2-1.4-3.3-1.8c-1.3-0.4-2.7-0.6-4.3-0.6h-10.7V202L483.3,202z
		 M508.7,202h4.7v-7.8c0-1.3,0.2-2.5,0.5-3.6c0.3-1,0.8-1.9,1.4-2.5c0.6-0.7,1.4-1.2,2.2-1.5c0.9-0.3,1.8-0.5,2.8-0.5h0.3v-5
		c-1.8-0.1-3.3,0.3-4.5,1.3c-1.2,0.9-2.1,2.2-2.8,3.7v-4.6h-4.7V202L508.7,202z M532.1,197.8c-0.8-0.4-1.4-0.8-2-1.4
		c-0.6-0.6-1-1.3-1.3-2.1c-0.3-0.8-0.5-1.6-0.5-2.5v-0.1c0-0.9,0.1-1.7,0.4-2.5c0.3-0.8,0.7-1.5,1.2-2.1s1.2-1,1.9-1.4
		c0.8-0.3,1.6-0.5,2.5-0.5s1.8,0.2,2.5,0.5c0.8,0.3,1.4,0.8,2,1.4c0.6,0.6,1,1.3,1.3,2.1c0.3,0.8,0.5,1.7,0.5,2.6v0.1
		c0,0.9-0.1,1.7-0.4,2.5c-0.3,0.8-0.7,1.5-1.2,2.1c-0.5,0.6-1.2,1.1-2,1.4c-0.8,0.3-1.6,0.5-2.6,0.5
		C533.7,198.4,532.8,198.2,532.1,197.8L532.1,197.8z M538.9,201.6c1.3-0.6,2.5-1.3,3.5-2.3c1-1,1.7-2.1,2.3-3.4
		c0.6-1.3,0.8-2.7,0.8-4.1v-0.1c0-1.5-0.3-2.9-0.8-4.1c-0.5-1.3-1.3-2.4-2.3-3.4c-1-1-2.1-1.7-3.5-2.3c-1.3-0.6-2.8-0.8-4.4-0.8
		c-1.6,0-3,0.3-4.4,0.9c-1.3,0.6-2.5,1.3-3.5,2.3c-1,1-1.7,2.1-2.3,3.4c-0.6,1.3-0.8,2.7-0.8,4.2v0.1c0,1.5,0.3,2.8,0.8,4.1
		c0.5,1.3,1.3,2.4,2.3,3.4c1,1,2.1,1.7,3.5,2.3c1.3,0.6,2.8,0.8,4.3,0.8C536.1,202.4,537.5,202.2,538.9,201.6L538.9,201.6z
		 M557.6,197.9c-0.7-0.3-1.3-0.8-1.9-1.3c-0.5-0.6-1-1.3-1.3-2.1c-0.3-0.8-0.5-1.7-0.5-2.7v-0.1c0-1,0.2-1.9,0.5-2.7
		c0.3-0.8,0.7-1.5,1.3-2.1c0.5-0.6,1.2-1,1.9-1.3c0.7-0.3,1.5-0.4,2.3-0.4c0.8,0,1.5,0.2,2.2,0.5c0.7,0.3,1.4,0.8,1.9,1.3
		c0.5,0.6,1,1.3,1.3,2.1c0.3,0.8,0.5,1.7,0.5,2.7v0.1c0,1-0.2,1.9-0.5,2.7c-0.3,0.8-0.8,1.5-1.3,2.1c-0.5,0.6-1.2,1-1.9,1.3
		c-0.7,0.3-1.5,0.5-2.2,0.5C559,198.3,558.3,198.2,557.6,197.9L557.6,197.9z M562.9,201.3c1.1-0.8,2.1-1.7,2.8-2.7l0,3.4h4.7v-28.4
		h-4.7v11c-0.8-1-1.7-1.8-2.8-2.5c-1.1-0.7-2.5-1.1-4.2-1.1c-1.2,0-2.4,0.2-3.5,0.7c-1.2,0.5-2.2,1.2-3,2.1c-0.9,0.9-1.6,2-2.1,3.3
		c-0.5,1.3-0.8,2.8-0.8,4.5v0.1c0,1.7,0.3,3.2,0.8,4.5c0.5,1.3,1.3,2.4,2.1,3.3c0.9,0.9,1.9,1.6,3,2.1c1.1,0.5,2.3,0.7,3.5,0.7
		C560.4,202.4,561.8,202,562.9,201.3L562.9,201.3z M587.2,201.3c1-0.7,1.8-1.6,2.5-2.6v3.2h4.7v-20.5h-4.7V193
		c0,1.6-0.4,2.8-1.3,3.7c-0.8,0.9-2,1.3-3.3,1.3c-1.4,0-2.5-0.4-3.2-1.3c-0.8-0.9-1.1-2.1-1.1-3.7v-11.6h-4.7v13.1
		c0,2.4,0.6,4.3,1.9,5.8c1.3,1.4,3.1,2.1,5.4,2.1C584.9,202.4,586.2,202,587.2,201.3L587.2,201.3z M614.8,201.4
		c1.3-0.7,2.4-1.6,3.5-2.8l-2.8-2.8c-0.8,0.8-1.5,1.4-2.4,1.8c-0.8,0.5-1.8,0.7-2.9,0.7c-0.9,0-1.7-0.2-2.5-0.5
		c-0.8-0.4-1.4-0.8-1.9-1.4c-0.5-0.6-1-1.3-1.3-2.1c-0.3-0.8-0.4-1.7-0.4-2.6v-0.1c0-0.9,0.1-1.7,0.4-2.5c0.3-0.8,0.7-1.5,1.2-2.1
		c0.5-0.6,1.1-1,1.9-1.4c0.7-0.3,1.5-0.5,2.4-0.5c1.2,0,2.2,0.2,3,0.7c0.8,0.5,1.6,1.1,2.3,1.8l2.9-3.1c-1-1.1-2.1-1.9-3.4-2.6
		c-1.3-0.6-2.9-1-4.8-1c-1.5,0-2.9,0.3-4.3,0.9c-1.3,0.6-2.4,1.3-3.4,2.3c-1,1-1.7,2.1-2.2,3.4c-0.5,1.3-0.8,2.7-0.8,4.1v0.1
		c0,1.5,0.3,2.8,0.8,4.1c0.5,1.3,1.3,2.4,2.2,3.4c1,1,2.1,1.7,3.4,2.3c1.3,0.6,2.7,0.8,4.2,0.8C611.9,202.4,613.6,202.1,614.8,201.4
		L614.8,201.4z M631.8,202.1c0.7-0.2,1.3-0.4,1.9-0.8v-3.8c-0.9,0.5-1.9,0.7-2.9,0.7c-0.8,0-1.4-0.2-1.9-0.6c-0.4-0.4-0.7-1.1-0.7-2
		v-10.1h5.5v-4h-5.5v-5.6h-4.7v5.6h-2.6v4h2.6v10.8c0,1.1,0.1,2.1,0.4,2.9c0.3,0.8,0.7,1.4,1.2,1.8c0.5,0.5,1.2,0.8,1.9,1
		c0.7,0.2,1.5,0.3,2.4,0.3C630.4,202.3,631.2,202.2,631.8,202.1L631.8,202.1z M648.5,202c0.9-0.3,1.7-0.7,2.4-1.2
		c0.7-0.5,1.2-1.2,1.6-2c0.4-0.8,0.6-1.7,0.6-2.8v-0.1c0-0.9-0.2-1.7-0.6-2.4c-0.4-0.6-0.9-1.2-1.5-1.6c-0.6-0.5-1.3-0.8-2-1.1
		c-0.8-0.3-1.5-0.6-2.3-0.8c-0.6-0.2-1.2-0.4-1.7-0.6c-0.6-0.2-1-0.4-1.5-0.6c-0.4-0.2-0.8-0.5-1-0.7c-0.3-0.3-0.4-0.6-0.4-0.9v-0.1
		c0-0.6,0.3-1.1,0.8-1.5c0.5-0.4,1.2-0.6,2.1-0.6c0.9,0,1.8,0.2,2.8,0.5c1,0.3,2,0.8,3,1.4l1.9-3.4c-1.1-0.7-2.3-1.3-3.6-1.7
		c-1.3-0.4-2.6-0.6-3.9-0.6c-1,0-2,0.1-2.9,0.4c-0.9,0.3-1.7,0.7-2.3,1.2c-0.7,0.5-1.2,1.2-1.6,2c-0.4,0.8-0.6,1.6-0.6,2.6v0.1
		c0,1,0.2,1.8,0.6,2.5c0.4,0.7,0.9,1.2,1.5,1.7c0.6,0.5,1.3,0.8,2.1,1.1c0.8,0.3,1.5,0.5,2.3,0.7c0.6,0.2,1.2,0.4,1.7,0.5
		c0.6,0.2,1,0.4,1.5,0.6c0.4,0.2,0.8,0.5,1,0.7c0.2,0.3,0.4,0.6,0.4,1v0.1c0,0.7-0.3,1.2-0.8,1.6c-0.6,0.4-1.3,0.6-2.4,0.6
		c-1.1,0-2.2-0.2-3.3-0.6c-1.2-0.4-2.3-1.1-3.4-1.9l-2.1,3.2c1.3,1,2.7,1.8,4.2,2.3c1.5,0.5,3,0.8,4.5,0.8
		C646.6,202.4,647.6,202.2,648.5,202L648.5,202z"/>
	<path d="M282.2,140.6c-2.3-1-4.2-2.4-5.8-4.2c-1.6-1.7-2.9-3.8-3.8-6.1c-0.9-2.4-1.4-4.9-1.4-7.5v-0.2c0-2.6,0.5-5.1,1.4-7.5
		c0.9-2.3,2.2-4.4,3.8-6.1c1.6-1.7,3.5-3.1,5.8-4.1c2.2-1,4.7-1.5,7.4-1.5c2.7,0,5.2,0.5,7.4,1.6c2.3,1,4.2,2.4,5.8,4.2
		c1.6,1.7,2.9,3.8,3.8,6.1c0.9,2.4,1.4,4.9,1.4,7.5v0.2c0,2.6-0.5,5.1-1.4,7.5c-0.9,2.3-2.2,4.4-3.8,6.1c-1.6,1.7-3.5,3.1-5.8,4.1
		c-2.2,1-4.7,1.5-7.4,1.5C286.9,142.1,284.5,141.6,282.2,140.6L282.2,140.6z M301,148.6c3.5-1.5,6.5-3.5,9-6.1
		c2.5-2.6,4.5-5.5,5.9-8.9c1.4-3.4,2.1-7,2.1-10.8v-0.2c0-3.8-0.7-7.4-2.1-10.8c-1.4-3.4-3.3-6.4-5.8-8.9c-2.5-2.5-5.5-4.5-8.9-6
		c-3.5-1.5-7.3-2.2-11.5-2.2c-4.2,0-8,0.8-11.5,2.3c-3.5,1.5-6.5,3.5-9,6.1c-2.5,2.6-4.5,5.5-5.9,8.9c-1.4,3.4-2.1,7-2.1,10.8v0.2
		c0,3.8,0.7,7.4,2.1,10.8c1.4,3.4,3.3,6.4,5.8,8.9c2.5,2.5,5.5,4.5,8.9,6c3.5,1.5,7.3,2.2,11.5,2.2
		C293.7,150.9,297.5,150.2,301,148.6L301,148.6z M340.1,141.5v-14.9h15.1c3.8,0,6.6,0.6,8.4,1.9c1.8,1.3,2.8,3.1,2.8,5.4v0.2
		c0,2.5-0.9,4.4-2.8,5.6c-1.9,1.2-4.4,1.9-7.7,1.9H340.1L340.1,141.5z M340.1,118.5V104h13.7c3.1,0,5.5,0.6,7.1,1.8
		c1.6,1.2,2.4,2.9,2.4,5.1v0.2c0,2.5-0.9,4.3-2.8,5.6c-1.9,1.2-4.3,1.8-7.4,1.8H340.1L340.1,118.5z M330.7,150h25.1
		c3,0,5.7-0.3,8.2-1c2.5-0.6,4.6-1.6,6.4-2.8c1.8-1.2,3.1-2.8,4.1-4.7c1-1.9,1.4-4,1.4-6.5v-0.2c0-1.9-0.3-3.5-0.8-4.9
		s-1.2-2.6-2.2-3.7c-1-1-2.1-1.9-3.4-2.7c-1.3-0.8-2.8-1.4-4.4-2c1-0.5,1.9-1.1,2.9-1.9c1-0.7,1.8-1.6,2.5-2.5
		c0.7-1,1.3-2.1,1.7-3.3c0.4-1.3,0.7-2.7,0.7-4.4v-0.2c0-3.6-1.2-6.6-3.6-9c-3.2-3.2-7.9-4.8-14.2-4.8h-24.4V150L330.7,150z
		 M407.4,149.5c2.2-0.8,4.1-2,5.8-3.6c1.6-1.6,2.8-3.6,3.7-6c0.9-2.4,1.3-5.2,1.3-8.5V95.6h-9.8v35.7c0,3.6-0.8,6.3-2.4,8
		c-1.6,1.7-3.7,2.6-6.3,2.6c-2.3,0-4.3-0.6-6-1.7c-1.7-1.1-3.3-2.7-4.9-4.7l-6.3,6.5c1.8,2.5,4.1,4.6,6.9,6.3
		c2.8,1.7,6.3,2.5,10.5,2.5C402.7,150.7,405.1,150.3,407.4,149.5L407.4,149.5z M432.4,150H473v-8.6h-31.2v-14.5h27.3v-8.6h-27.3v-14
		h30.8v-8.6h-40.3V150L432.4,150z M517.8,150.2c2.1-0.4,4-1.1,5.8-1.9c1.8-0.9,3.4-1.9,4.9-3c1.5-1.2,3-2.5,4.4-4l-6.1-6.2
		c-2.3,2.2-4.7,3.9-7.1,5.2c-2.4,1.3-5.2,1.9-8.6,1.9c-2.6,0-5-0.5-7.2-1.5c-2.2-1-4.1-2.4-5.7-4.2c-1.6-1.8-2.8-3.8-3.7-6.2
		c-0.9-2.4-1.3-4.9-1.3-7.5v-0.2c0-2.6,0.4-5.1,1.3-7.5c0.9-2.3,2.1-4.4,3.7-6.1c1.6-1.7,3.5-3.1,5.7-4.1c2.2-1,4.6-1.5,7.2-1.5
		c3.1,0,5.9,0.6,8.3,1.9c2.4,1.2,4.7,2.9,6.9,4.9l6.1-7.1c-1.3-1.2-2.7-2.4-4.1-3.4c-1.5-1-3-1.9-4.7-2.7c-1.7-0.8-3.6-1.3-5.6-1.7
		c-2-0.4-4.3-0.6-6.8-0.6c-4.1,0-7.9,0.7-11.3,2.2c-3.4,1.5-6.4,3.5-8.9,6.1c-2.5,2.6-4.4,5.5-5.8,8.9c-1.4,3.4-2.1,7-2.1,10.9v0.2
		c0,3.9,0.7,7.5,2.1,11c1.4,3.4,3.4,6.4,5.8,8.9c2.5,2.5,5.4,4.5,8.8,5.9c3.4,1.5,7,2.2,11,2.2C513.4,150.9,515.8,150.7,517.8,150.2
		L517.8,150.2z M557.4,150h9.6v-45.5h17.3v-8.9h-44.1v8.9h17.3V150L557.4,150z M622.4,149.7c2.4-0.7,4.4-1.8,6.1-3.2
		c1.7-1.4,3-3.1,4-5.1c1-2,1.4-4.3,1.4-6.8v-0.2c0-2.2-0.4-4.2-1.1-5.9s-1.9-3.2-3.3-4.4c-1.5-1.3-3.3-2.3-5.5-3.2
		c-2.2-0.9-4.7-1.7-7.6-2.4c-2.6-0.6-4.7-1.2-6.4-1.8c-1.7-0.6-3-1.2-4-1.8c-1-0.6-1.6-1.4-2-2.2c-0.4-0.8-0.5-1.7-0.5-2.8v-0.2
		c0-1.8,0.8-3.3,2.3-4.6c1.6-1.2,3.7-1.9,6.5-1.9c2.5,0,4.9,0.5,7.4,1.4c2.4,1,4.9,2.3,7.4,4.2l5.1-7.2c-2.8-2.2-5.8-3.9-9-5.1
		c-3.2-1.2-6.8-1.7-10.8-1.7c-2.7,0-5.2,0.4-7.5,1.2c-2.3,0.8-4.2,1.9-5.8,3.2c-1.6,1.4-2.9,3-3.8,5c-0.9,1.9-1.4,4.1-1.4,6.4v0.2
		c0,2.5,0.4,4.6,1.2,6.4c0.8,1.8,2,3.3,3.5,4.5c1.5,1.2,3.4,2.3,5.7,3.1c2.3,0.9,4.8,1.6,7.8,2.3c2.5,0.6,4.6,1.1,6.2,1.7
		c1.6,0.6,2.8,1.2,3.7,1.9c0.9,0.7,1.5,1.4,1.9,2.1c0.3,0.8,0.5,1.6,0.5,2.6v0.2c0,2.1-0.9,3.7-2.6,5c-1.7,1.2-4.1,1.9-7,1.9
		c-3.4,0-6.5-0.6-9.2-1.8c-2.7-1.2-5.4-3-8-5.2l-5.8,6.8c3.3,3,6.8,5.1,10.6,6.6c3.8,1.4,7.8,2.1,12,2.1
		C617.4,150.7,620,150.4,622.4,149.7L622.4,149.7z"/>
	<path d="M261.3,72.2h15.1V52.8h25.7V40.2h-25.7v-9.2h28.4V17.8h-43.5V72.2L261.3,72.2z M313.1,72.2h15.2V17.8h-15.2V72.2
		L313.1,72.2z M339.3,72.2h14.8V42.4l23.3,29.8h13.2V17.8h-14.8v28.8l-22.4-28.8h-14.1V72.2L339.3,72.2z M421.2,50.9l6.1-15.5
		l6.1,15.5H421.2L421.2,50.9z M397,72.2h15.9l3.9-9.7h21l4,9.7h16.2l-23.2-54.8h-14.5L397,72.2L397,72.2z M464.3,72.2h14.8V42.4
		l23.3,29.8h13.2V17.8h-14.8v28.8l-22.4-28.8h-14.1V72.2L464.3,72.2z M560.7,72.4c2.4-0.6,4.6-1.5,6.5-2.6c1.9-1.1,3.7-2.4,5.2-3.9
		s2.9-3.1,4.2-4.9L565.3,53c-0.8,1-1.7,1.9-2.5,2.7c-0.9,0.8-1.8,1.5-2.7,2.1c-1,0.6-2,1-3.2,1.4s-2.4,0.5-3.8,0.5
		c-1.9,0-3.7-0.4-5.2-1.1c-1.6-0.8-2.9-1.8-4.1-3.1c-1.1-1.3-2-2.8-2.7-4.6c-0.6-1.8-1-3.7-1-5.7v-0.2c0-2,0.3-3.8,1-5.6
		c0.6-1.8,1.5-3.3,2.7-4.6c1.1-1.3,2.5-2.3,4.1-3.1c1.6-0.8,3.3-1.1,5.2-1.1c2.6,0,4.9,0.6,6.8,1.7c1.9,1.1,3.6,2.7,5.1,4.7
		l11.3-8.8c-1.2-1.7-2.6-3.2-4.1-4.6c-1.5-1.4-3.2-2.6-5.1-3.6c-1.9-1-4-1.8-6.3-2.3c-2.3-0.5-4.8-0.8-7.6-0.8
		c-4.1,0-8,0.7-11.5,2.2c-3.5,1.5-6.5,3.5-9.1,6c-2.5,2.6-4.5,5.6-6,9c-1.5,3.4-2.2,7.1-2.2,11.1v0.2c0,4,0.7,7.8,2.2,11.2
		c1.5,3.4,3.5,6.4,6,8.9c2.5,2.5,5.5,4.5,8.9,5.9s7.1,2.1,11,2.1C555.6,73.3,558.3,73,560.7,72.4L560.7,72.4z M584.5,72.2h15.2V17.8
		h-15.2V72.2L584.5,72.2z M630.5,50.9l6.1-15.5l6.1,15.5H630.5L630.5,50.9z M606.3,72.2h15.9l3.9-9.7h21l4,9.7h16.2L644,17.5h-14.5
		L606.3,72.2L606.3,72.2z M673.6,72.2H715V59h-26.3V17.8h-15.1V72.2L673.6,72.2z"/>
	<path d="M211.3,92.5c-2.4,0.5-4.9,0.4-7.1-0.2c-2.8,5.9-8.1,12.2-15.1,18.5c-6.2-6.7-13.8-13.4-22.5-20c3.1-10.4,5.2-20.3,6.2-29.4
		c9.4,0.8,17.4,2.8,23.2,5.9c1.5-1.9,3.4-3.3,5.6-4.4c-6.9-4.4-16.6-7.1-28.2-8.2c0.6-11.6-0.6-21.6-3.9-29.1
		c-1.4,2-3.1,3.7-5.2,4.9c2.2,6.2,3,14.4,2.4,23.8c-9.1-0.3-19.2,0.4-30,1.9c-5.2-9.6-10.7-18.1-16.5-25.3
		c7.2-6.1,14.2-10.3,20.5-12.2c-0.3-2.3,0-4.8,0.8-7.1c-8,1.8-16.8,6.8-25.7,14.2c-7.8-8.7-15.7-14.9-23.3-17.8
		c0.5,2.4,0.4,4.9-0.2,7.1c5.9,2.8,12.2,8.1,18.5,15.1c-6.7,6.2-13.4,13.8-20,22.5c-10.4-3.1-20.3-5.2-29.4-6.2
		c0.8-9.4,2.8-17.4,5.9-23.2c-1.9-1.5-3.3-3.4-4.4-5.6c-4.4,6.9-7.1,16.6-8.2,28.2c-11.6-0.6-21.6,0.6-29.1,3.9
		c2,1.4,3.7,3.1,4.9,5.2c6.2-2.2,14.4-3,23.8-2.4c-0.3,9.1,0.2,19.3,1.8,30.1C46.5,87.8,38,93.3,30.9,99
		c-6.1-7.2-10.3-14.2-12.2-20.5c-2.3,0.3-4.8,0-7.1-0.8c1.8,8,6.8,16.8,14.2,25.7c-8.7,7.8-14.9,15.7-17.8,23.3
		c2.4-0.5,4.9-0.4,7.1,0.2c2.8-5.9,8.1-12.2,15.1-18.5c6.2,6.7,13.8,13.4,22.5,20c-3.1,10.4-5.2,20.3-6.2,29.4
		c-9.4-0.8-17.4-2.8-23.2-5.9c-1.5,1.9-3.4,3.3-5.6,4.4c6.9,4.4,16.6,7.1,28.2,8.2c-0.6,11.6,0.6,21.6,3.9,29.1
		c1.4-2,3.1-3.7,5.2-4.9c-2.2-6.2-3-14.4-2.4-23.8c9.1,0.3,19.2-0.4,30-1.9c5.2,9.6,10.7,18.1,16.5,25.3
		c-7.2,6.1-14.2,10.3-20.5,12.2c0.3,2.3,0,4.8-0.8,7.1c8-1.8,16.8-6.8,25.7-14.2c7.8,8.7,15.7,14.9,23.4,17.8
		c-0.5-2.4-0.4-4.9,0.2-7.1c-5.9-2.8-12.2-8.1-18.5-15.1c6.7-6.2,13.4-13.8,20-22.5c10.4,3.1,20.3,5.2,29.4,6.2
		c-0.8,9.4-2.8,17.4-5.9,23.2c1.9,1.5,3.3,3.4,4.4,5.6c4.4-6.9,7.1-16.6,8.2-28.2c11.6,0.6,21.6-0.6,29.1-3.9
		c-2-1.4-3.7-3.1-4.9-5.2c-6.2,2.2-14.4,3-23.8,2.4c0.3-9.1-0.2-19.3-1.8-30.1c9.6-5.2,18.1-10.7,25.2-16.4
		c6.1,7.2,10.3,14.2,12.2,20.5c2.3-0.3,4.8,0,7.1,0.8c-1.8-8-6.8-16.8-14.2-25.7C202.2,108.1,208.3,100.1,211.3,92.5L211.3,92.5z
		 M132.6,160.6c3.1-4.4,6.1-9.1,9-13.9c5.3-2.2,10.3-4.5,15.1-6.8c1.2,9.3,1.7,18.1,1.5,26.1C150.3,165,141.7,163.2,132.6,160.6
		L132.6,160.6z M63.6,86.5c2.8-1.4,5.5-2.8,8.5-4.1c-1.2,2.2-2.3,4.4-3.5,6.6c-1.1,2.2-2.2,4.5-3.2,6.7
		C64.7,92.5,64.1,89.5,63.6,86.5L63.6,86.5z M63.7,116.9c0.7,2.4,1.4,4.7,2.2,7.1c0.8,2.4,1.6,4.7,2.4,7c-2.7-1.7-5.3-3.5-7.8-5.3
		C61.6,122.8,62.6,119.9,63.7,116.9L63.7,116.9z M74.6,92c2.5-4.9,5.1-9.6,7.7-14.1c4.8-1.9,9.8-3.8,15-5.5
		c5.1-1.7,10.3-3.2,15.3-4.5c4.8,2.1,9.7,4.3,14.6,6.7c4.9,2.5,9.6,5.1,14.1,7.7c1.9,4.8,3.8,9.8,5.5,15c1.7,5.1,3.2,10.3,4.5,15.3
		c-2.1,4.8-4.3,9.7-6.7,14.6c-2.5,4.9-5.1,9.6-7.7,14.1c-4.8,1.9-9.8,3.8-15,5.5c-5.1,1.7-10.3,3.2-15.3,4.5
		c-4.8-2.1-9.7-4.3-14.6-6.7c-4.9-2.5-9.6-5.1-14.1-7.7c-1.9-4.8-3.8-9.8-5.5-15c-1.7-5.1-3.2-10.3-4.5-15.3
		C69.9,101.7,72.1,96.8,74.6,92L74.6,92z M150.6,130.3c1.1-2.2,2.2-4.5,3.2-6.7c0.7,3.1,1.2,6.2,1.7,9.2c-2.8,1.4-5.5,2.8-8.5,4.1
		C148.3,134.7,149.5,132.5,150.6,130.3L150.6,130.3z M150.8,88.2c2.7,1.7,5.3,3.5,7.8,5.3c-0.9,2.9-2,5.9-3.1,8.9
		c-0.7-2.4-1.4-4.7-2.2-7.1C152.4,92.8,151.6,90.5,150.8,88.2L150.8,88.2z M125.7,158.5c-2.9-0.9-5.9-2-8.9-3.1
		c2.4-0.7,4.7-1.4,7.1-2.2c2.4-0.8,4.7-1.6,7-2.4C129.3,153.4,127.5,156,125.7,158.5L125.7,158.5z M89.7,161.9
		c5.3-0.9,10.7-2.1,16.2-3.5c5.2,2.2,10.4,4.1,15.5,5.9c-5.7,7.5-11.6,14-17.4,19.5C99.1,177.5,94.3,170.2,89.7,161.9L89.7,161.9z
		 M82.3,147.2c2.2,1.2,4.4,2.3,6.6,3.5c2.2,1.1,4.5,2.2,6.7,3.2c-3.1,0.7-6.2,1.2-9.3,1.7C85,152.8,83.6,150,82.3,147.2L82.3,147.2z
		 M53.2,158.2c1-7.9,2.7-16.5,5.3-25.6c4.4,3.1,9.1,6.1,13.9,9c2.1,5.2,4.4,10.2,6.8,15C70,157.8,61.2,158.4,53.2,158.2L53.2,158.2z
		 M60.7,106c-2.2,5.2-4.1,10.4-5.9,15.5c-7.5-5.7-14-11.6-19.5-17.4c6.2-4.9,13.7-9.7,21.9-14.2C58.2,95.1,59.3,100.5,60.7,106
		L60.7,106z M86.6,58.5c-3.1,4.4-6.1,9.1-9,13.9c-5.3,2.2-10.3,4.5-15.1,6.8C61.3,70,60.8,61.2,61,53.2
		C68.9,54.2,77.5,55.9,86.6,58.5L86.6,58.5z M93.5,60.6c2.9,0.9,5.9,2,8.9,3.1c-2.4,0.7-4.7,1.4-7.1,2.2c-2.4,0.8-4.7,1.6-7,2.5
		C89.9,65.7,91.7,63.1,93.5,60.6L93.5,60.6z M129.5,57.3c-5.3,0.9-10.7,2.1-16.2,3.5c-5.2-2.2-10.4-4.1-15.5-5.9
		c5.7-7.5,11.6-14,17.4-19.5C120,41.7,124.9,49,129.5,57.3L129.5,57.3z M136.9,72c-2.2-1.2-4.4-2.3-6.6-3.5
		c-2.2-1.1-4.5-2.2-6.7-3.2c3.1-0.7,6.2-1.2,9.3-1.7C134.2,66.3,135.6,69.2,136.9,72L136.9,72z M166,61c-1,7.9-2.7,16.5-5.3,25.6
		c-4.4-3.1-9.1-6.1-13.9-9c-2.1-5.2-4.4-10.2-6.8-15C149.2,61.4,158,60.8,166,61L166,61z M183.8,115.1c-6.2,4.9-13.7,9.7-21.9,14.2
		c-0.9-5.3-2.1-10.6-3.5-16.1c2.2-5.2,4.1-10.4,5.9-15.5C171.8,103.5,178.3,109.3,183.8,115.1L183.8,115.1z"/>
	<path d="M124.4,127.5c1.8-1.3,3.2-2.7,4.3-4.3c1.1-1.6,1.7-3.3,2-5.2c0.3-1.9,0-3.8-0.6-5.9l0-0.1c-0.6-1.9-1.5-3.4-2.6-4.5
		c-1.1-1.1-2.5-2-4.2-2.5c-1.6-0.5-3.5-0.8-5.6-0.9c-2.1-0.1-4.4,0-6.8,0.3c-1.5,0.2-2.7,0.2-3.7,0.2c-1,0-1.8,0-2.4-0.2
		c-0.6-0.1-1.1-0.3-1.4-0.6c-0.3-0.3-0.6-0.6-0.7-1.1l0-0.1c-0.2-0.7-0.1-1.5,0.4-2.2c0.5-0.7,1.4-1.3,2.8-1.8
		c1.8-0.6,3.8-0.9,6-0.8c2.2,0,4.4,0.4,6.7,1.1l3-9.8c-2.8-1.1-5.7-1.6-8.7-1.6c-3,0-6.3,0.5-9.7,1.7c-2.4,0.8-4.5,1.8-6.2,3.1
		c-1.7,1.3-3.1,2.7-4.1,4.3c-1,1.6-1.6,3.3-1.8,5.1c-0.2,1.8,0,3.7,0.6,5.5l0,0.1c0.7,2.1,1.7,3.7,2.9,4.8c1.3,1.1,2.7,2,4.4,2.5
		c1.7,0.5,3.5,0.7,5.6,0.7c2,0,4.2-0.1,6.6-0.3c1.5-0.1,2.7-0.2,3.7-0.2c1,0,1.8,0.1,2.4,0.2c0.6,0.1,1.1,0.3,1.4,0.6
		c0.3,0.3,0.5,0.6,0.7,1l0,0.1c0.3,0.9,0.1,1.7-0.5,2.4c-0.6,0.7-1.7,1.4-3.2,1.9c-4.7,1.5-9.6,1.4-14.7-0.5l-3.8,9.5
		c3.2,1.4,6.7,2.2,10.3,2.2c3.6,0,7.2-0.5,10.9-1.7C120.4,129.8,122.6,128.8,124.4,127.5L124.4,127.5z"/>
	<path d="M105.5,85.4l-1.9-5.9l-8.3,2.7l2,6.2c1.4-0.8,2.9-1.5,4.6-2.1C103.1,85.9,104.3,85.7,105.5,85.4L105.5,85.4z"/>
	<path d="M112.6,134.9l1.7,5.2l8.3-2.7l-1.5-4.7c-0.7,0.3-1.4,0.6-2.1,0.9C116.8,134.2,114.7,134.6,112.6,134.9L112.6,134.9z"/>
	<path d="M218.6,73.6c-1.9-5.7-8.1-8.9-13.8-7c-5.7,1.9-8.9,8.1-7,13.8c1.9,5.7,8.1,8.9,13.8,7C217.4,85.6,220.5,79.4,218.6,73.6
		L218.6,73.6z"/>
	<path d="M166.1,21.8c2.7-5.4,0.6-12-4.8-14.7c-5.4-2.7-12-0.6-14.7,4.8c-2.7,5.4-0.6,12,4.8,14.7C156.8,29.3,163.4,27.2,166.1,21.8
		L166.1,21.8z"/>
	<path d="M87.5,7.5c-1.9-5.7-8.1-8.9-13.8-7c-5.7,1.9-8.9,8.1-7,13.8c1.9,5.7,8.1,8.9,13.8,7C86.2,19.5,89.4,13.3,87.5,7.5L87.5,7.5
		z"/>
	<path d="M21.8,53.1c-5.4-2.7-12-0.6-14.7,4.8c-2.7,5.4-0.6,12,4.8,14.7c5.4,2.7,12,0.6,14.7-4.8C29.3,62.4,27.2,55.8,21.8,53.1
		L21.8,53.1z"/>
	<path d="M7.5,131.7c-5.7,1.9-8.9,8.1-7,13.8c1.9,5.7,8.1,8.9,13.8,7c5.7-1.9,8.9-8.1,7-13.8C19.5,133,13.3,129.8,7.5,131.7
		L7.5,131.7z"/>
	<path d="M53.1,197.4c-2.7,5.4-0.6,12,4.8,14.7c5.4,2.7,12,0.6,14.7-4.8c2.7-5.4,0.5-12-4.8-14.7C62.4,189.9,55.8,192,53.1,197.4
		L53.1,197.4z"/>
	<path d="M131.7,211.7c1.9,5.7,8.1,8.9,13.8,7c5.7-1.9,8.9-8.1,7-13.8c-1.9-5.7-8.1-8.9-13.8-7C133,199.7,129.8,205.9,131.7,211.7
		L131.7,211.7z"/>
	<path d="M197.4,166.1c5.4,2.7,12,0.6,14.7-4.8c2.7-5.4,0.5-12-4.8-14.7c-5.4-2.7-12-0.5-14.7,4.8
		C189.9,156.8,192,163.4,197.4,166.1L197.4,166.1z"/>
</g>
</svg>
