<?xml version="1.0" encoding="utf-8"?>
<!-- Generator: Adobe Illustrator 24.1.0, SVG Export Plug-In . SVG Version: 6.00 Build 0)  -->
<svg version="1.1" id="Layer_1" xmlns="http://www.w3.org/2000/svg" xmlns:xlink="http://www.w3.org/1999/xlink" x="0px" y="0px"
	 viewBox="0 0 720 465.42" style="enable-background:new 0 0 720 465.42;" xml:space="preserve">
<style type="text/css">
	.st0{fill:#00000A;}
</style>
<g>
	<path class="st0" d="M64.34,463.18c4.82-1.49,8.97-3.65,12.45-6.48c3.48-2.83,6.18-6.33,8.13-10.5c1.94-4.17,2.91-8.93,2.91-14.28
		v-0.31c0-4.73-0.75-8.8-2.25-12.19c-1.49-3.4-3.71-6.35-6.65-8.88c-2.94-2.52-6.55-4.68-10.83-6.48c-4.28-1.8-9.16-3.42-14.63-4.86
		c-4.65-1.23-8.49-2.32-11.53-3.24c-3.04-0.93-5.44-1.9-7.2-2.93c-1.76-1.03-2.97-2.18-3.64-3.47c-0.67-1.28-1.01-2.8-1.01-4.55
		v-0.31c0-2.67,1.16-4.91,3.47-6.71c2.32-1.8,5.79-2.7,10.42-2.7c4.63,0,9.26,0.95,13.89,2.86c4.63,1.9,9.36,4.5,14.2,7.8
		l12.35-17.91c-5.56-4.42-11.65-7.82-18.29-10.19c-6.64-2.37-13.92-3.55-21.84-3.55c-5.56,0-10.64,0.77-15.26,2.31
		c-4.61,1.54-8.58,3.76-11.9,6.64c-3.32,2.88-5.9,6.3-7.74,10.27c-1.84,3.96-2.76,8.41-2.76,13.35v0.31c0,5.35,0.85,9.83,2.55,13.43
		c1.7,3.6,4.1,6.61,7.2,9.03c3.09,2.42,6.86,4.45,11.3,6.1c4.44,1.65,9.39,3.14,14.86,4.48c4.54,1.13,8.23,2.21,11.07,3.24
		c2.84,1.03,5.06,2.06,6.65,3.09c1.6,1.03,2.68,2.14,3.25,3.32c0.57,1.18,0.85,2.55,0.85,4.09v0.31c0,3.19-1.37,5.69-4.09,7.49
		c-2.73,1.8-6.56,2.7-11.5,2.7c-6.17,0-11.86-1.18-17.06-3.55c-5.2-2.37-10.26-5.56-15.2-9.57L2.47,448.13
		c6.48,5.86,13.68,10.21,21.61,13.04c7.92,2.83,16,4.24,24.23,4.24C54.18,465.42,59.52,464.67,64.34,463.18L64.34,463.18z
		 M146.64,463.95c2.98-0.87,5.71-2.03,8.18-3.47v-18.83c-3.6,2.06-7.46,3.09-11.58,3.09c-5.04,0-7.56-2.68-7.56-8.06v-35.47h19.45
		v-20.07h-19.45v-21.15h-23.46v21.15h-9.88v20.07h9.88v39.21c0,4.84,0.59,8.83,1.78,11.96c1.18,3.14,2.83,5.69,4.94,7.64
		c2.11,1.96,4.63,3.32,7.56,4.09c2.93,0.77,6.2,1.16,9.8,1.16C140.21,465.26,143.65,464.82,146.64,463.95L146.64,463.95z
		 M196.03,446.59c-2.37-1.75-3.55-4.22-3.55-7.41v-0.31c0-3.71,1.44-6.53,4.32-8.49c2.88-1.95,6.84-2.93,11.89-2.93
		c2.88,0,5.58,0.29,8.1,0.85c2.52,0.57,4.81,1.31,6.87,2.24v4.17c0,4.32-1.67,7.82-5.02,10.5c-3.35,2.68-7.8,4.01-13.35,4.01
		C201.49,449.21,198.4,448.34,196.03,446.59L196.03,446.59z M212.86,462.56c4.01-1.9,7.46-4.45,10.34-7.64v8.95h22.69v-48.01
		c0-5.56-0.72-10.57-2.16-15.05c-1.44-4.48-3.71-8.26-6.79-11.35c-2.99-2.98-6.77-5.27-11.35-6.87c-4.58-1.59-10.11-2.39-16.59-2.39
		c-7,0-12.97,0.62-17.91,1.85c-4.94,1.24-9.67,2.83-14.2,4.79l5.87,17.91c3.8-1.44,7.43-2.55,10.88-3.32
		c3.45-0.77,7.43-1.16,11.96-1.16c5.86,0,10.29,1.29,13.27,3.86c2.98,2.57,4.48,6.33,4.48,11.27v1.39
		c-2.99-1.03-6.05-1.85-9.18-2.47c-3.14-0.62-6.82-0.93-11.04-0.93c-4.94,0-9.44,0.54-13.51,1.62c-4.07,1.08-7.56,2.7-10.5,4.86
		c-2.93,2.16-5.22,4.89-6.87,8.18c-1.65,3.29-2.47,7.2-2.47,11.73v0.31c0,4.12,0.75,7.74,2.24,10.88c1.49,3.14,3.52,5.79,6.1,7.95
		c2.57,2.16,5.58,3.78,9.03,4.86c3.45,1.08,7.12,1.62,11.04,1.62C203.96,465.42,208.85,464.47,212.86,462.56L212.86,462.56z
		 M268.43,463.88h23.46v-46.04c0-5.54,1.31-9.73,3.94-12.55s6.2-4.24,10.73-4.24c4.53,0,8.03,1.41,10.5,4.24
		c2.47,2.82,3.71,7.01,3.71,12.55v46.04h23.46v-53.56c0-9.57-2.45-17.08-7.33-22.54c-4.89-5.45-11.81-8.18-20.76-8.18
		c-2.99,0-5.66,0.36-8.03,1.09c-2.37,0.73-4.53,1.71-6.48,2.96c-1.96,1.24-3.73,2.67-5.33,4.27c-1.6,1.61-3.06,3.29-4.4,5.05v-11.83
		h-23.46V463.88L268.43,463.88z M399.09,443.89c-2.42-1.08-4.55-2.62-6.41-4.63c-1.85-2.01-3.32-4.42-4.4-7.26
		c-1.08-2.83-1.62-5.94-1.62-9.34v-0.31c0-3.5,0.54-6.64,1.62-9.42c1.08-2.78,2.55-5.17,4.4-7.18c1.85-2.01,3.99-3.55,6.41-4.63
		c2.42-1.08,5.02-1.62,7.8-1.62c2.78,0,5.38,0.54,7.8,1.62c2.42,1.08,4.53,2.62,6.33,4.63c1.8,2.01,3.24,4.43,4.32,7.25
		c1.08,2.83,1.62,5.94,1.62,9.34v0.31c0,3.4-0.54,6.51-1.62,9.34c-1.08,2.83-2.52,5.25-4.32,7.26c-1.8,2.01-3.91,3.55-6.33,4.63
		c-2.42,1.08-5.02,1.62-7.8,1.62C404.11,445.51,401.51,444.97,399.09,443.89L399.09,443.89z M416.22,461.64
		c4.06-2.52,7.54-5.73,10.42-9.65v11.89h23.46V351.19h-23.46v40.75c-2.78-3.29-6.2-6.17-10.26-8.64c-4.07-2.47-9.24-3.71-15.51-3.71
		c-4.94,0-9.67,0.93-14.2,2.78c-4.53,1.85-8.52,4.61-11.96,8.26c-3.45,3.65-6.23,8.13-8.33,13.43c-2.11,5.3-3.16,11.4-3.16,18.29
		v0.31c0,6.9,1.05,12.99,3.16,18.29c2.11,5.3,4.91,9.78,8.41,13.43c3.5,3.65,7.51,6.41,12.04,8.26c4.53,1.85,9.21,2.78,14.05,2.78
		C407.04,465.42,412.16,464.16,416.22,461.64L416.22,461.64z M494.71,446.59c-2.37-1.75-3.55-4.22-3.55-7.41v-0.31
		c0-3.71,1.44-6.53,4.32-8.49c2.88-1.95,6.84-2.93,11.89-2.93c2.88,0,5.58,0.29,8.1,0.85c2.52,0.57,4.81,1.31,6.87,2.24v4.17
		c0,4.32-1.67,7.82-5.02,10.5c-3.35,2.68-7.79,4.01-13.35,4.01C500.17,449.21,497.08,448.34,494.71,446.59L494.71,446.59z
		 M511.54,462.56c4.01-1.9,7.46-4.45,10.34-7.64v8.95h22.69v-48.01c0-5.56-0.72-10.57-2.16-15.05c-1.44-4.48-3.7-8.26-6.79-11.35
		c-2.99-2.98-6.77-5.27-11.35-6.87c-4.58-1.59-10.11-2.39-16.59-2.39c-7,0-12.97,0.62-17.91,1.85c-4.94,1.24-9.67,2.83-14.2,4.79
		l5.86,17.91c3.81-1.44,7.43-2.55,10.88-3.32c3.45-0.77,7.43-1.16,11.96-1.16c5.87,0,10.29,1.29,13.27,3.86
		c2.98,2.57,4.48,6.33,4.48,11.27v1.39c-2.99-1.03-6.05-1.85-9.18-2.47c-3.14-0.62-6.82-0.93-11.04-0.93
		c-4.94,0-9.44,0.54-13.51,1.62c-4.07,1.08-7.56,2.7-10.5,4.86c-2.93,2.16-5.22,4.89-6.87,8.18c-1.65,3.29-2.47,7.2-2.47,11.73v0.31
		c0,4.12,0.74,7.74,2.24,10.88c1.49,3.14,3.52,5.79,6.1,7.95c2.57,2.16,5.58,3.78,9.03,4.86c3.45,1.08,7.12,1.62,11.04,1.62
		C502.64,465.42,507.53,464.47,511.54,462.56L511.54,462.56z M567.11,463.88h23.46v-30.56c0-9.98,2.24-17.34,6.71-22.07
		c4.48-4.73,10.62-7.1,18.45-7.1h1.23V379.6c-7-0.31-12.56,1.23-16.67,4.63c-4.12,3.4-7.36,7.92-9.72,13.58v-16.67h-23.46V463.88
		L567.11,463.88z M666.13,443.89c-2.42-1.08-4.55-2.62-6.41-4.63c-1.85-2.01-3.32-4.42-4.4-7.26c-1.08-2.83-1.62-5.94-1.62-9.34
		v-0.31c0-3.5,0.54-6.64,1.62-9.42c1.08-2.78,2.55-5.17,4.4-7.18c1.85-2.01,3.99-3.55,6.41-4.63c2.42-1.08,5.02-1.62,7.8-1.62
		c2.78,0,5.38,0.54,7.8,1.62c2.42,1.08,4.53,2.62,6.33,4.63c1.8,2.01,3.24,4.43,4.32,7.25c1.08,2.83,1.62,5.94,1.62,9.34v0.31
		c0,3.4-0.54,6.51-1.62,9.34c-1.08,2.83-2.52,5.25-4.32,7.26c-1.8,2.01-3.91,3.55-6.33,4.63c-2.42,1.08-5.02,1.62-7.8,1.62
		C671.15,445.51,668.55,444.97,666.13,443.89L666.13,443.89z M683.26,461.64c4.06-2.52,7.54-5.73,10.42-9.65v11.89h23.46V351.19
		h-23.46v40.75c-2.78-3.29-6.2-6.17-10.26-8.64c-4.07-2.47-9.24-3.71-15.51-3.71c-4.94,0-9.67,0.93-14.2,2.78
		c-4.53,1.85-8.52,4.61-11.96,8.26c-3.45,3.65-6.23,8.13-8.33,13.43c-2.11,5.3-3.16,11.4-3.16,18.29v0.31
		c0,6.9,1.05,12.99,3.16,18.29c2.11,5.3,4.91,9.78,8.41,13.43c3.5,3.65,7.51,6.41,12.04,8.26c4.53,1.85,9.21,2.78,14.05,2.78
		C674.08,465.42,679.2,464.16,683.26,461.64L683.26,461.64z"/>
	<path class="st0" d="M7.64,309.52H31.1v-70.08l30.1,45.69h0.62l30.41-46.15v70.54h23.46V201.46H90.07l-28.4,45.69l-28.4-45.69H7.64
		V309.52L7.64,309.52z M158.14,261.66c0.93-5.35,2.91-9.62,5.94-12.81c3.04-3.19,7.02-4.79,11.96-4.79c4.94,0,8.9,1.62,11.89,4.86
		c2.98,3.24,4.84,7.49,5.56,12.73H158.14L158.14,261.66z M197.96,307.28c5.56-2.73,10.29-6.51,14.2-11.35l-13.43-11.89
		c-3.29,2.99-6.48,5.15-9.57,6.48c-3.09,1.34-6.59,2.01-10.5,2.01c-5.25,0-9.65-1.36-13.2-4.09c-3.55-2.73-5.89-6.77-7.02-12.12
		h57.58c0.1-1.13,0.18-2.21,0.23-3.24c0.05-1.03,0.08-2.01,0.08-2.93c0-5.87-0.8-11.5-2.39-16.9c-1.6-5.4-4.07-10.19-7.41-14.36
		c-3.35-4.17-7.54-7.49-12.58-9.96c-5.04-2.47-11.01-3.7-17.91-3.7c-6.07,0-11.6,1.13-16.59,3.4c-4.99,2.26-9.29,5.35-12.89,9.26
		c-3.6,3.91-6.41,8.49-8.41,13.74c-2.01,5.25-3.01,10.8-3.01,16.67v0.31c0,6.38,1.08,12.17,3.24,17.37c2.16,5.2,5.17,9.7,9.03,13.51
		c3.86,3.81,8.44,6.74,13.74,8.8c5.3,2.06,11.04,3.09,17.21,3.09C185.87,311.37,192.41,310,197.96,307.28L197.96,307.28z
		 M272.05,309.59c2.98-0.87,5.71-2.03,8.18-3.47v-18.83c-3.6,2.06-7.46,3.09-11.58,3.09c-5.04,0-7.56-2.68-7.56-8.06v-35.47h19.45
		v-20.07H261.1v-21.15h-23.46v21.15h-9.88v20.07h9.88v39.21c0,4.84,0.59,8.83,1.78,11.96c1.18,3.14,2.83,5.69,4.94,7.64
		c2.11,1.96,4.63,3.32,7.56,4.09c2.93,0.77,6.2,1.16,9.8,1.16C265.62,310.9,269.07,310.47,272.05,309.59L272.05,309.59z
		 M319.13,292.23c-2.37-1.75-3.55-4.22-3.55-7.41v-0.31c0-3.7,1.44-6.53,4.32-8.49c2.88-1.95,6.84-2.93,11.89-2.93
		c2.88,0,5.58,0.29,8.1,0.85c2.52,0.57,4.81,1.31,6.87,2.24v4.17c0,4.32-1.67,7.82-5.02,10.5c-3.35,2.68-7.8,4.01-13.35,4.01
		C324.59,294.85,321.5,293.98,319.13,292.23L319.13,292.23z M335.96,308.2c4.01-1.9,7.46-4.45,10.34-7.64v8.95h22.69v-48.01
		c0-5.56-0.72-10.57-2.16-15.05c-1.44-4.48-3.71-8.26-6.79-11.34c-2.99-2.98-6.77-5.27-11.34-6.87c-4.58-1.59-10.11-2.39-16.59-2.39
		c-7,0-12.97,0.62-17.91,1.85c-4.94,1.23-9.67,2.83-14.2,4.79l5.87,17.91c3.81-1.44,7.43-2.55,10.88-3.32
		c3.45-0.77,7.43-1.16,11.96-1.16c5.87,0,10.29,1.29,13.27,3.86c2.98,2.57,4.48,6.33,4.48,11.27v1.39
		c-2.99-1.03-6.05-1.85-9.18-2.47c-3.14-0.62-6.82-0.93-11.04-0.93c-4.94,0-9.44,0.54-13.51,1.62c-4.07,1.08-7.56,2.7-10.5,4.86
		c-2.93,2.16-5.22,4.89-6.87,8.18c-1.65,3.29-2.47,7.2-2.47,11.73v0.31c0,4.12,0.74,7.74,2.24,10.88c1.49,3.14,3.52,5.79,6.1,7.95
		c2.57,2.16,5.58,3.78,9.03,4.86c3.45,1.08,7.12,1.62,11.04,1.62C327.06,311.06,331.95,310.11,335.96,308.2L335.96,308.2z
		 M421.4,289.53c-2.42-1.08-4.55-2.62-6.41-4.63c-1.85-2.01-3.32-4.42-4.4-7.25c-1.08-2.83-1.62-5.94-1.62-9.34v-0.31
		c0-3.5,0.54-6.64,1.62-9.42c1.08-2.78,2.55-5.17,4.4-7.18c1.85-2.01,3.99-3.55,6.41-4.63c2.42-1.08,5.02-1.62,7.8-1.62
		c2.78,0,5.38,0.54,7.8,1.62c2.42,1.08,4.53,2.62,6.33,4.63c1.8,2.01,3.24,4.43,4.32,7.25c1.08,2.83,1.62,5.94,1.62,9.34v0.31
		c0,3.4-0.54,6.51-1.62,9.34c-1.08,2.83-2.52,5.25-4.32,7.25c-1.8,2.01-3.91,3.55-6.33,4.63c-2.42,1.08-5.02,1.62-7.8,1.62
		C426.41,291.15,423.81,290.61,421.4,289.53L421.4,289.53z M438.53,307.28c4.06-2.52,7.54-5.74,10.42-9.65v11.89h23.46V196.83
		h-23.46v40.75c-2.78-3.29-6.2-6.17-10.26-8.64c-4.07-2.47-9.24-3.7-15.51-3.7c-4.94,0-9.67,0.93-14.2,2.78
		c-4.53,1.85-8.52,4.61-11.96,8.26c-3.45,3.65-6.23,8.13-8.34,13.43c-2.11,5.3-3.16,11.4-3.16,18.29v0.31
		c0,6.89,1.05,12.99,3.16,18.29c2.11,5.3,4.91,9.78,8.41,13.43c3.5,3.65,7.51,6.41,12.04,8.26c4.53,1.85,9.21,2.78,14.05,2.78
		C429.35,311.06,434.46,309.8,438.53,307.28L438.53,307.28z M514.7,292.23c-2.37-1.75-3.55-4.22-3.55-7.41v-0.31
		c0-3.7,1.44-6.53,4.32-8.49c2.88-1.95,6.84-2.93,11.89-2.93c2.88,0,5.58,0.29,8.1,0.85c2.52,0.57,4.81,1.31,6.87,2.24v4.17
		c0,4.32-1.67,7.82-5.02,10.5c-3.34,2.68-7.8,4.01-13.35,4.01C520.16,294.85,517.07,293.98,514.7,292.23L514.7,292.23z
		 M531.53,308.2c4.01-1.9,7.46-4.45,10.34-7.64v8.95h22.69v-48.01c0-5.56-0.72-10.57-2.16-15.05c-1.44-4.48-3.7-8.26-6.79-11.34
		c-2.99-2.98-6.77-5.27-11.35-6.87c-4.58-1.59-10.11-2.39-16.59-2.39c-7,0-12.97,0.62-17.91,1.85c-4.94,1.23-9.67,2.83-14.2,4.79
		l5.87,17.91c3.81-1.44,7.43-2.55,10.88-3.32c3.45-0.77,7.43-1.16,11.96-1.16c5.87,0,10.29,1.29,13.28,3.86
		c2.98,2.57,4.48,6.33,4.48,11.27v1.39c-2.99-1.03-6.05-1.85-9.18-2.47c-3.14-0.62-6.82-0.93-11.04-0.93
		c-4.94,0-9.44,0.54-13.51,1.62c-4.07,1.08-7.56,2.7-10.5,4.86c-2.93,2.16-5.22,4.89-6.87,8.18c-1.65,3.29-2.47,7.2-2.47,11.73v0.31
		c0,4.12,0.74,7.74,2.24,10.88c1.49,3.14,3.52,5.79,6.1,7.95c2.57,2.16,5.58,3.78,9.03,4.86c3.45,1.08,7.12,1.62,11.04,1.62
		C522.63,311.06,527.52,310.11,531.53,308.2L531.53,308.2z M623.06,309.59c2.98-0.87,5.71-2.03,8.18-3.47v-18.83
		c-3.6,2.06-7.46,3.09-11.58,3.09c-5.04,0-7.56-2.68-7.56-8.06v-35.47h19.45v-20.07H612.1v-21.15h-23.46v21.15h-9.88v20.07h9.88
		v39.21c0,4.84,0.59,8.83,1.78,11.96c1.18,3.14,2.83,5.69,4.94,7.64c2.11,1.96,4.63,3.32,7.56,4.09c2.93,0.77,6.2,1.16,9.8,1.16
		C616.63,310.9,620.08,310.47,623.06,309.59L623.06,309.59z M670.14,292.23c-2.37-1.75-3.55-4.22-3.55-7.41v-0.31
		c0-3.7,1.44-6.53,4.32-8.49c2.88-1.95,6.84-2.93,11.89-2.93c2.88,0,5.58,0.29,8.1,0.85c2.52,0.57,4.81,1.31,6.87,2.24v4.17
		c0,4.32-1.67,7.82-5.02,10.5c-3.34,2.68-7.79,4.01-13.35,4.01C675.6,294.85,672.51,293.98,670.14,292.23L670.14,292.23z
		 M686.97,308.2c4.01-1.9,7.46-4.45,10.34-7.64v8.95H720v-48.01c0-5.56-0.72-10.57-2.16-15.05c-1.44-4.48-3.7-8.26-6.79-11.34
		c-2.99-2.98-6.77-5.27-11.34-6.87c-4.58-1.59-10.11-2.39-16.59-2.39c-7,0-12.97,0.62-17.91,1.85c-4.94,1.23-9.67,2.83-14.2,4.79
		l5.87,17.91c3.81-1.44,7.43-2.55,10.88-3.32c3.45-0.77,7.43-1.16,11.96-1.16c5.87,0,10.29,1.29,13.28,3.86
		c2.98,2.57,4.48,6.33,4.48,11.27v1.39c-2.98-1.03-6.05-1.85-9.18-2.47c-3.14-0.62-6.82-0.93-11.04-0.93
		c-4.94,0-9.44,0.54-13.51,1.62c-4.07,1.08-7.56,2.7-10.5,4.86c-2.93,2.16-5.22,4.89-6.87,8.18c-1.65,3.29-2.47,7.2-2.47,11.73v0.31
		c0,4.12,0.74,7.74,2.24,10.88c1.49,3.14,3.52,5.79,6.1,7.95c2.57,2.16,5.58,3.78,9.03,4.86c3.45,1.08,7.12,1.62,11.04,1.62
		C678.07,311.06,682.95,310.11,686.97,308.2L686.97,308.2z"/>
	<path class="st0" d="M62.3,157.72h39.48l62.3-154.65h-46.72l-34.88,97.18L47.6,3.07H0L62.3,157.72L62.3,157.72z M240.48,117.9
		c-4.84-2.26-8.98-5.3-12.43-9.1c-3.45-3.8-6.12-8.19-8.03-13.16c-1.91-4.97-2.86-10.23-2.86-15.79v-0.44
		c0-5.56,0.91-10.82,2.75-15.79c1.83-4.97,4.47-9.32,7.92-13.05c3.45-3.73,7.55-6.69,12.32-8.88c4.76-2.19,10.08-3.29,15.95-3.29
		c5.86,0,11.22,1.13,16.06,3.4c4.84,2.27,9.02,5.3,12.54,9.1c3.52,3.8,6.23,8.19,8.14,13.16c1.91,4.97,2.86,10.24,2.86,15.79v0.44
		c0,5.56-0.96,10.82-2.86,15.79c-1.91,4.97-4.54,9.32-7.92,13.05c-3.37,3.73-7.48,6.69-12.32,8.88c-4.84,2.19-10.19,3.29-16.06,3.29
		C250.67,121.3,245.32,120.17,240.48,117.9L240.48,117.9z M289.11,153.44c10.09-4.17,18.87-9.87,26.32-17.11
		c7.46-7.24,13.27-15.72,17.44-25.45c4.17-9.72,6.25-20.07,6.25-31.04v-0.44c0-10.97-2.08-21.28-6.25-30.93
		c-4.17-9.65-9.91-18.06-17.22-25.23c-7.32-7.16-16.01-12.83-26.1-17C279.46,2.08,268.49,0,256.65,0c-11.84,0-22.81,2.08-32.9,6.25
		c-10.09,4.17-18.86,9.87-26.32,17.11c-7.46,7.24-13.27,15.72-17.44,25.45c-4.17,9.73-6.25,20.07-6.25,31.04v0.44
		c0,10.97,2.08,21.28,6.25,30.93s9.91,18.06,17.22,25.23c7.31,7.17,16.01,12.83,26.1,17c10.09,4.17,21.06,6.25,32.9,6.25
		C268.05,159.69,279.02,157.61,289.11,153.44L289.11,153.44z M362.16,156.62h42.77V3.07h-42.77V156.62L362.16,156.62z
		 M529.85,157.06c6.8-1.76,12.94-4.17,18.43-7.24c5.48-3.07,10.38-6.72,14.7-10.97c4.31-4.24,8.3-8.85,11.95-13.82l-32.03-22.81
		c-2.34,2.78-4.72,5.3-7.13,7.57c-2.41,2.27-4.97,4.24-7.68,5.92c-2.71,1.68-5.7,2.96-8.99,3.84c-3.29,0.88-6.91,1.32-10.86,1.32
		c-5.41,0-10.35-1.06-14.81-3.18c-4.46-2.12-8.3-5.01-11.52-8.67c-3.22-3.65-5.74-8.01-7.57-13.05c-1.83-5.05-2.74-10.42-2.74-16.12
		v-0.44c0-5.56,0.91-10.82,2.74-15.79c1.83-4.97,4.35-9.29,7.57-12.94c3.21-3.65,7.05-6.54,11.52-8.66
		c4.46-2.12,9.39-3.18,14.81-3.18c7.46,0,13.82,1.61,19.08,4.83c5.26,3.22,10.09,7.61,14.48,13.16l32.03-24.79
		c-3.37-4.68-7.21-8.99-11.52-12.94c-4.31-3.95-9.14-7.35-14.48-10.2c-5.34-2.85-11.22-5.05-17.66-6.58
		c-6.44-1.54-13.6-2.3-21.5-2.3c-11.7,0-22.49,2.05-32.36,6.14c-9.87,4.1-18.39,9.76-25.56,17c-7.17,7.24-12.8,15.72-16.89,25.45
		c-4.1,9.73-6.14,20.15-6.14,31.26v0.44c0,11.41,2.08,21.97,6.25,31.7c4.17,9.73,9.8,18.13,16.89,25.23
		c7.09,7.1,15.46,12.61,25.12,16.56c9.65,3.95,19.96,5.92,30.93,5.92C515.41,159.69,523.05,158.81,529.85,157.06L529.85,157.06z
		 M593.14,156.62h124.38v-36.19h-82.48V96.08h73.7V62.52h-73.7V39.26h81.38V3.07H593.14V156.62L593.14,156.62z"/>
</g>
</svg>
