<?xml version="1.0" encoding="utf-8"?>
<!-- Generator: Adobe Illustrator 25.0.0, SVG Export Plug-In . SVG Version: 6.00 Build 0)  -->
<svg version="1.1" id="Layer_1" xmlns="http://www.w3.org/2000/svg" xmlns:xlink="http://www.w3.org/1999/xlink" x="0px" y="0px"
	 viewBox="0 0 720 367.8" style="enable-background:new 0 0 720 367.8;" xml:space="preserve">
<style type="text/css">
	.st0{fill:#FFFFFF;}
</style>
<g>
	<path class="st0" d="M170.5,165.2V5.3c0-2.9-2.4-5.3-5.3-5.3H5.3C2.4,0,0,2.4,0,5.3v159.9c0,2.9,2.4,5.3,5.3,5.3h159.9
		C168.1,170.5,170.5,168.1,170.5,165.2L170.5,165.2z M121.8,106.6c0,7.5-4.3,13.9-11.3,17.3L85.2,137l-25.4-13.2
		c-6.9-3.3-11.2-9.7-11.2-17.3V92.8l15.2,4.6v9.1c0,1.7,1,2.8,2.7,3.6l18.6,9.3l18.5-9.3c1.8-0.9,2.8-2,2.8-3.7V94.4L48.7,77.6V50.2
		c0-3.7,2-7.2,5.3-9.2c4.9-2.9,15.4-7.7,31.3-7.7c15.9,0,26.4,4.8,31.3,7.7c3.2,1.9,5.3,5.4,5.3,9.2v18.2l-15.2-4.6V53
		c-4.1-2-11.2-4.4-21.3-4.4C75.1,48.7,68,51,63.9,53v13.9l57.9,16.8V106.6L121.8,106.6z"/>
	<path class="st0" d="M32.2,297.8c-12.3,0-22.8-4-32.2-9.9l5.8-8.9c9.4,6,18.1,8.9,27.8,8.9c11.4,0,16.7-4.4,16.7-9.5
		c0-14.8-48.1-5.9-48.1-29.5c0-11.5,11.5-20.5,30-20.5c12.4,0,23.2,4.7,29.6,11l-7.2,7.4c-5.4-4.8-13.8-8.6-22.6-8.6
		c-10.8,0-18.1,3.9-18.1,9.4c0,13.7,48.2,6.4,48.2,29.6C62.1,289.5,49.8,297.8,32.2,297.8L32.2,297.8z M109.3,269.5v26H97.7v-26.1
		l-29.2-38.7h13.6l21.9,30l20.7-30h13.4L109.3,269.5L109.3,269.5z M219.5,295.5v-50.8l-3.2,6.9l-23,43.9h-7l-22.7-43.9l-3.2-6.9
		v50.8h-11.2v-64.8h16.2l21.8,43.6l3,6.6l3-6.6l21.5-43.6h16v64.8H219.5L219.5,295.5z M294.4,249.9c0-5.3-3.6-9.3-12.5-9.3h-21.5
		v20.9h22c8.9,0,12-4.3,12-9.5V249.9L294.4,249.9z M280.7,271h-20.2v24.4h-11.7v-64.8h31.9c17.7,0,25.5,8,25.5,19.3v1.8
		C306.2,263,298.4,271,280.7,271L280.7,271z M369.7,295.5v-27.9h-39v27.9h-11.7v-64.8h11.7v27.4h39v-27.4h11.7v64.8H369.7
		L369.7,295.5z M451.9,259.1c0-11.1-7.7-20.6-21.9-20.6c-14.2,0-21.8,9.5-21.8,20.6v7.9c0,11.1,7.6,20.8,21.8,20.8
		c14.2,0,21.9-9.7,21.9-20.8V259.1L451.9,259.1z M430,297.8c-20.8,0-33.6-14.8-33.6-30.6v-8.1c0-16.1,12.7-30.6,33.6-30.6
		c20.9,0,33.7,14.5,33.7,30.6v8.1C463.7,283,450.9,297.8,430,297.8L430,297.8z M531.1,295.5l-36.3-40.9l-4.7-6v47h-11.6v-64.8h10.8
		l35.1,41l4.8,6v-47.1h11.5v64.8H531.1L531.1,295.5z M592.6,269.5v26H581v-26.1l-29.2-38.7h13.6l21.9,30l20.7-30h13.4L592.6,269.5
		L592.6,269.5z"/>
	<path class="st0" d="M4.6,367.1h8.5v-12.3h6.7l8.3,12.3h9.9l-9.4-13.8c4.9-1.8,8.2-5.7,8.2-11.9v-0.1c0-3.6-1.2-6.7-3.3-8.8
		c-2.5-2.5-6.3-3.9-11.2-3.9H4.6V367.1L4.6,367.1z M13.1,347.3v-11.1h8.4c4.1,0,6.7,1.9,6.7,5.5v0.1c0,3.2-2.4,5.5-6.5,5.5H13.1
		L13.1,347.3z M44.4,367.1h29.3v-7.5H52.8v-8.1H71V344H52.8v-7.8h20.6v-7.5H44.4V367.1L44.4,367.1z M95,367.7
		c8.3,0,14.1-4.3,14.1-11.9v-0.1c0-6.7-4.4-9.5-12.2-11.6c-6.7-1.7-8.3-2.5-8.3-5.1v-0.1c0-1.9,1.7-3.4,5-3.4s6.6,1.4,10,3.8
		l4.4-6.4c-3.9-3.1-8.7-4.9-14.3-4.9c-7.9,0-13.5,4.6-13.5,11.6v0.1c0,7.7,5,9.8,12.8,11.8c6.4,1.7,7.8,2.8,7.8,4.9v0.1
		c0,2.3-2.1,3.6-5.6,3.6c-4.4,0-8-1.8-11.5-4.7l-5,6C83.3,365.7,89.2,367.7,95,367.7L95,367.7z M124.7,367.1h8.5v-30.7h11.7v-7.8
		h-31.9v7.8h11.7V367.1L124.7,367.1z M164.6,367.1h8.6l3.5-8.6H193l3.5,8.6h8.9l-16.5-38.8h-7.8L164.6,367.1L164.6,367.1z
		 M179.8,351l5.1-12.5L190,351H179.8L179.8,351z M211.3,367.1h8.5v-11.6h6.4c8.6,0,15.6-4.6,15.6-13.5v-0.1
		c0-7.9-5.6-13.3-14.7-13.3h-15.7V367.1L211.3,367.1z M219.8,348v-11.8h6.6c4.2,0,6.9,2,6.9,5.8v0.1c0,3.3-2.5,5.8-6.7,5.8H219.8
		L219.8,348z M248.5,367.1h8.5v-38.5h-8.5V367.1L248.5,367.1z M296.8,367.7c8.3,0,14.1-4.3,14.1-11.9v-0.1c0-6.7-4.4-9.5-12.2-11.6
		c-6.7-1.7-8.3-2.5-8.3-5.1v-0.1c0-1.9,1.7-3.4,5-3.4c3.2,0,6.6,1.4,10,3.8l4.4-6.4c-3.9-3.1-8.7-4.9-14.3-4.9
		c-7.9,0-13.5,4.6-13.5,11.6v0.1c0,7.7,5,9.8,12.8,11.8c6.4,1.7,7.8,2.8,7.8,4.9v0.1c0,2.3-2.1,3.6-5.6,3.6c-4.4,0-8-1.8-11.5-4.7
		l-5,6C285.1,365.7,291,367.7,296.8,367.7L296.8,367.7z M318.3,367.1h8.5v-11.6h6.4c8.6,0,15.6-4.6,15.6-13.5v-0.1
		c0-7.9-5.6-13.3-14.7-13.3h-15.7V367.1L318.3,367.1z M326.8,348v-11.8h6.6c4.2,0,6.9,2,6.9,5.8v0.1c0,3.3-2.5,5.8-6.7,5.8H326.8
		L326.8,348z M355.1,367.1h29.3v-7.5h-20.9v-8.1h18.2V344h-18.2v-7.8h20.6v-7.5h-29.1V367.1L355.1,367.1z M410,367.8
		c7.4,0,11.8-2.6,15.8-6.9l-5.4-5.4c-3,2.8-5.7,4.5-10.1,4.5c-6.6,0-11.2-5.5-11.2-12.1v-0.1c0-6.6,4.7-12,11.2-12
		c3.9,0,6.9,1.7,9.9,4.3l5.4-6.2c-3.6-3.5-7.9-5.9-15.2-5.9c-11.8,0-20.1,9-20.1,19.9v0.1C390.3,359.1,398.7,367.8,410,367.8
		L410,367.8z M433,367.1h8.5v-38.5H433V367.1L433,367.1z M451.1,367.1h8.5v-14.9h18.4v-7.7h-18.4v-8.2h20.9v-7.7h-29.3V367.1
		L451.1,367.1z M487.6,367.1h8.5v-38.5h-8.5V367.1L487.6,367.1z M523.7,367.8c7.4,0,11.8-2.6,15.8-6.9l-5.4-5.4
		c-3,2.8-5.7,4.5-10.1,4.5c-6.6,0-11.2-5.5-11.2-12.1v-0.1c0-6.6,4.7-12,11.2-12c3.9,0,6.9,1.7,9.9,4.3l5.4-6.2
		c-3.6-3.5-7.9-5.9-15.2-5.9c-11.8,0-20.1,9-20.1,19.9v0.1C504,359.1,512.4,367.8,523.7,367.8L523.7,367.8z M543,367.1h8.6l3.5-8.6
		h16.3l3.5,8.6h8.9l-16.5-38.8h-7.8L543,367.1L543,367.1z M558.2,351l5.1-12.5l5.1,12.5H558.2L558.2,351z M593.8,367.1h8.5v-30.7
		H614v-7.8h-31.9v7.8h11.7V367.1L593.8,367.1z M620.9,367.1h8.5v-38.5h-8.5V367.1L620.9,367.1z M657.7,367.8
		c11.9,0,20.5-9,20.5-19.9v-0.1c0-11-8.5-19.8-20.4-19.8c-11.9,0-20.5,9-20.5,19.9v0.1C637.3,358.9,645.8,367.8,657.7,367.8
		L657.7,367.8z M657.8,360c-6.8,0-11.7-5.5-11.7-12.1v-0.1c0-6.6,4.7-12,11.6-12c6.8,0,11.7,5.5,11.7,12.1v0.1
		C669.4,354.6,664.6,360,657.8,360L657.8,360z M685.8,367.1h8.4v-24.5l18.7,24.5h7.2v-38.5h-8.4v23.7l-18.1-23.7h-7.8V367.1
		L685.8,367.1z"/>
</g>
</svg>
