<?xml version="1.0" encoding="utf-8"?>
<!-- Generator: Adobe Illustrator 24.1.0, SVG Export Plug-In . SVG Version: 6.00 Build 0)  -->
<svg version="1.1" id="Layer_1" xmlns="http://www.w3.org/2000/svg" xmlns:xlink="http://www.w3.org/1999/xlink" x="0px" y="0px"
	 viewBox="0 0 539.94 539.94" style="enable-background:new 0 0 539.94 539.94;" xml:space="preserve">
<style type="text/css">
	.st0{fill:#FFFFFF;}
</style>
<g>
	<path class="st0" d="M539.94,269.97C539.94,120.87,419.07,0,269.97,0v449.4l6.48-0.08l0.69,54.8l-7.18,0.09v35.73
		C419.07,539.94,539.94,419.07,539.94,269.97L539.94,269.97z M365.79,484.79l-26.74-47.84l36.01-20.13l5.23,9.36l-25.63,14.33
		l5.42,9.71l22.55-12.61l5.23,9.36l-22.55,12.61l5.61,10.05l25.97-14.52l5.23,9.36L365.79,484.79L365.79,484.79z M311.12,443.7
		c2.48-0.61,4.8-0.96,6.95-1.05c2.15-0.1,4.15,0.01,6,0.31c1.85,0.3,3.6,0.79,5.27,1.45c1.67,0.67,3.26,1.46,4.77,2.38l-5.36,10.41
		c-2.54-1.37-5.01-2.32-7.43-2.86c-2.42-0.54-4.97-0.48-7.65,0.18c-2.23,0.54-4.19,1.48-5.88,2.8c-1.69,1.33-3.04,2.92-4.03,4.77
		c-1,1.86-1.63,3.88-1.9,6.07c-0.27,2.19-0.13,4.42,0.43,6.7l0.04,0.15c0.56,2.28,1.46,4.34,2.72,6.19
		c1.26,1.84,2.74,3.36,4.46,4.55c1.71,1.19,3.63,2,5.75,2.43c2.12,0.42,4.32,0.36,6.6-0.2c3.04-0.74,5.48-1.93,7.31-3.56
		c1.83-1.63,3.55-3.66,5.16-6.09l9.29,5.71c-1.01,1.81-2.11,3.47-3.29,4.99c-1.19,1.53-2.55,2.92-4.1,4.18
		c-1.55,1.26-3.31,2.37-5.28,3.3c-1.98,0.94-4.25,1.72-6.84,2.35c-3.91,0.95-7.7,1.13-11.4,0.53c-3.69-0.6-7.06-1.84-10.09-3.7
		c-3.03-1.86-5.64-4.3-7.83-7.32c-2.18-3.01-3.74-6.42-4.67-10.22l-0.04-0.15c-0.93-3.8-1.11-7.53-0.55-11.19
		c0.56-3.65,1.75-7.04,3.57-10.14c1.82-3.1,4.25-5.79,7.3-8.07C303.44,446.34,307.01,444.7,311.12,443.7L311.12,443.7z
		 M340.17,203.81c16.14,18.35,25.03,41.94,25.03,66.44c0,24.39-8.82,47.91-24.84,66.22c-3.2,3.66-7.69,5.53-12.2,5.53
		c-3.79,0-7.59-1.32-10.66-4.01c-6.73-5.89-7.42-16.12-1.53-22.86c10.85-12.4,16.82-28.35,16.82-44.89
		c0-16.61-6.02-32.61-16.96-45.04c-5.91-6.72-5.25-16.95,1.46-22.86C324.02,196.44,334.26,197.09,340.17,203.81L340.17,203.81z
		 M391.27,155.09c28.27,31.54,43.83,72.44,43.83,115.16c0,42.51-15.43,83.26-43.44,114.73c-3.2,3.59-7.65,5.43-12.11,5.43
		c-3.83,0-7.68-1.35-10.76-4.1c-6.68-5.95-7.28-16.19-1.33-22.87c22.73-25.54,35.25-58.64,35.25-93.2
		c0-34.73-12.63-67.95-35.57-93.54c-5.97-6.66-5.41-16.9,1.25-22.87C375.06,147.87,385.3,148.43,391.27,155.09L391.27,155.09z
		 M504.19,270.25c0,60.07-22.56,117.39-63.53,161.39c-3.19,3.42-7.52,5.16-11.86,5.16c-3.96,0-7.92-1.44-11.04-4.34
		c-6.55-6.1-6.91-16.35-0.82-22.89c35.37-37.98,54.85-87.46,54.85-139.31c0-52.11-19.66-101.77-55.35-139.84
		c-6.12-6.52-5.79-16.77,0.74-22.89c6.53-6.12,16.78-5.79,22.9,0.74C481.43,152.34,504.19,209.88,504.19,270.25L504.19,270.25z"/>
	<path class="st0" d="M269.97,449.4V0C120.87,0,0,120.87,0,269.97c0,149.1,120.87,269.97,269.97,269.97v-35.73l-4.88,0.06
		l-0.69-54.8L269.97,449.4L269.97,449.4z M194.65,465.44l0.03-0.15c0.83-3.83,2.33-7.25,4.48-10.28c2.15-3.03,4.77-5.53,7.84-7.51
		c3.07-1.97,6.52-3.31,10.33-4c3.81-0.69,7.78-0.59,11.91,0.31c4.13,0.9,7.77,2.45,10.92,4.66c3.15,2.21,5.72,4.82,7.71,7.85
		c1.99,3.02,3.32,6.36,3.99,10c0.67,3.65,0.6,7.38-0.24,11.21l-0.03,0.15c-0.83,3.83-2.33,7.25-4.48,10.28
		c-2.15,3.03-4.77,5.53-7.84,7.51c-3.07,1.97-6.52,3.31-10.32,4c-3.81,0.69-7.78,0.59-11.91-0.31c-4.13-0.9-7.77-2.45-10.92-4.66
		c-3.15-2.21-5.72-4.82-7.71-7.85c-1.99-3.02-3.32-6.36-3.99-10C193.73,473.01,193.81,469.27,194.65,465.44L194.65,465.44z
		 M147.2,470.17l7.59-58.99l11.62,6.49l-6.33,40.68l31.34-26.7l11.34,6.34l-46.27,37.37L147.2,470.17L147.2,470.17z M246.03,266.69
		c-9.64,2.94-16.82,6.12-11.26,18.67c1.08,2.43-2.9,8.61-6.08,11.04c-4.01,3.06-9.61,4.05-17.9,7.23c6.12,4.11,9.68,6.52,13.26,8.9
		c6.33,4.21,10.14,8.52,3.69,16.17c-2.09,2.48-2.4,7.42-1.88,10.99c1.94,13.13-1.94,21.09-14.77,23.66
		c-8.99,1.8-18.66,1.8-27.83,0.77c-36.38-4.07-52.44,7.69-57.97,44.17c-1.87,12.32-2.58,24.81-3.9,38.06
		c-1.77-1.04-4.05-1.94-5.79-3.46C0.01,341.8,12.93,158.95,141.32,74.66c9.72-6.38,17.26-7.59,27.38-0.75
		c38.32,25.9,60.41,60.94,58.69,107.69c-0.93,25.28,6.23,45.18,24.55,62.22C262.95,254.05,260.49,262.27,246.03,266.69
		L246.03,266.69z M206.99,467.97c-0.5,2.29-0.58,4.55-0.23,6.76c0.35,2.21,1.08,4.24,2.2,6.09c1.12,1.85,2.56,3.43,4.33,4.75
		c1.77,1.32,3.85,2.24,6.25,2.76c2.34,0.51,4.61,0.55,6.78,0.11c2.18-0.43,4.13-1.26,5.87-2.49c1.74-1.22,3.22-2.76,4.45-4.6
		c1.23-1.84,2.09-3.91,2.59-6.21l0.03-0.15c0.5-2.3,0.58-4.55,0.23-6.76c-0.35-2.21-1.08-4.24-2.2-6.09
		c-1.12-1.85-2.58-3.43-4.37-4.76c-1.79-1.32-3.86-2.24-6.21-2.75c-2.4-0.52-4.67-0.56-6.82-0.12c-2.15,0.44-4.1,1.27-5.83,2.5
		c-1.74,1.22-3.22,2.76-4.45,4.6c-1.23,1.84-2.09,3.91-2.59,6.21L206.99,467.97L206.99,467.97z"/>
</g>
</svg>
