<?xml version="1.0" encoding="utf-8"?>
<!-- Generator: Adobe Illustrator 28.0.0, SVG Export Plug-In . SVG Version: 6.00 Build 0)  -->
<svg version="1.1" id="Layer_1" xmlns="http://www.w3.org/2000/svg" xmlns:xlink="http://www.w3.org/1999/xlink" x="0px" y="0px"
	 viewBox="0 0 422.7 529.1" style="enable-background:new 0 0 422.7 529.1;" xml:space="preserve">
<g>
	<path d="M126.6,96.9L126.6,96.9L126.6,96.9L126.6,96.9L126.6,96.9z M124.8,96.2l-14.6-4.6L80.5,101l14.7,4.7L124.8,96.2L124.8,96.2
		z"/>
	<path d="M102.7,0l-4.1,2.7c-16.2,10.9-33.4,18-51.1,20.9c-12.5,2.1-25.9,2.1-38.5,0L0,22.1l0.5,9.2c1.9,34.2,9,66.9,21,97
		c18.4,46.5,48,71.1,77.1,90.8l4.1,2.7v-35.3l0,0c-23.9-16.6-42.4-34.6-54.9-66c-8.4-21.1-13.7-43.8-15.6-67.7
		c9.2,0.9,18.7,0.6,27.7-1c14.9-2.4,29.3-8,42.9-16.7V0L102.7,0z"/>
	<path d="M204.8,31.3l0.5-9.2l-9,1.5c-12.5,2.1-25.9,2.1-38.5,0c-17.8-3-35-10-51.1-20.9l-4-2.7v35.2c13.6,8.6,28,14.2,42.8,16.7
		c9,1.5,18.5,1.8,27.7,1c-0.8,9.3-2.1,18.4-3.8,27.5c6.6-3.2,17.6-7.2,30.3-6.9C202.2,59.7,204,45.7,204.8,31.3L204.8,31.3z
		 M102.7,186.6L102.7,186.6v35.3l4.1-2.7c26.6-18,53.6-40.2,72.1-79.4c-5.6-0.8-10.3-1.6-10.8-2.3c-0.8-1-8.3-4.5-14.6-7.5
		C141.1,155.6,124.1,171.6,102.7,186.6L102.7,186.6z"/>
	<polygon points="132.4,132.2 132.4,132.2 189.9,155.5 189.9,155.5 183.1,89.4 183.1,89.4 	"/>
	<polygon points="126.6,65.8 126.6,84.9 78.7,100.2 78.7,81.2 	"/>
	<polygon points="78.7,112.2 78.7,145.9 97.3,145.9 97.3,125.2 126.6,115.9 126.6,96.9 	"/>
</g>
<g>
	<path d="M422.7,515.7v-35h-24.2v14.4h8.6v18.8c0,0.2-0.2,0.5-0.5,0.5H392c-0.4,0-0.5-0.2-0.5-0.5v-57.6c0-0.4,0.1-0.5,0.5-0.5h14.6
		c0.2,0,0.5,0.1,0.5,0.5v11.6h15.6v-13.6c0-7.7-5.3-13.1-13.2-13.1H389c-7.7,0-13.1,5.3-13.1,13.1v61.5c0,7.9,5.3,13.2,13.1,13.2
		h20.4C417.2,529,422.7,523.6,422.7,515.7 M364.8,528.7v-87.4h-15.3v46.5L349,486l-14.5-44.7h-16.6v87.4h15.4v-52.3l0.4,1.7
		l16.9,50.5H364.8L364.8,528.7z M306.9,441.4h-15.6v87.4h15.6V441.4z M280.2,528.7v-87.4h-15.3v46.5l-0.4-1.8L250,441.4h-16.6v87.4
		h15.3v-52.3l0.4,1.7l16.9,50.5H280.2L280.2,528.7z M222.3,528.7v-87.4H207v46.5l-0.4-1.8l-14.5-44.7h-16.6v87.4h15.3v-52.3l0.4,1.7
		l16.9,50.5H222.3L222.3,528.7z M133.6,503.1l6.5-33.3l0.4-3.1l0.4,3.1l6.4,33.3L133.6,503.1L133.6,503.1z M152.1,528.7h16.3
		l-18.7-87.4H131l-18.7,87.4h16.3l2.4-11.8h19L152.1,528.7z M105.4,515.6v-13.4H89.8v11.7c0,0.2-0.2,0.5-0.5,0.5H74.7
		c-0.4,0-0.5-0.2-0.5-0.5v-57.6c0-0.4,0.1-0.5,0.5-0.5h14.6c0.2,0,0.5,0.1,0.5,0.5v11.6h15.6v-13.6c0-7.6-5.4-13.1-13.2-13.1H71.7
		c-7.6,0-13.1,5.4-13.1,13.1v61.3c0,7.7,5.4,13.2,13.1,13.2h20.4C99.9,528.9,105.4,523.3,105.4,515.6 M31.9,502.7v11.2
		c0,0.2-0.2,0.5-0.5,0.5H16.8c-0.4,0-0.5-0.2-0.5-0.5v-11.7H0.7v13.6c0,7.9,5.2,13.2,13.1,13.2h20.4c7.9,0,13.2-5.3,13.2-13.2V504
		c0-5.3-2-9.7-5.4-13.1l-25.2-24.9c-0.4-0.4-0.5-0.6-0.5-1.1v-8.6c0-0.4,0.1-0.5,0.5-0.5h14.6c0.2,0,0.5,0.1,0.5,0.5v11.6h15.6
		v-13.6c0-7.7-5.3-13.1-13.2-13.1H13.9c-7.9,0-13.1,5.3-13.1,13.1v9.2c0,5.3,1.8,9.7,5.4,13.1l25.2,24.9
		C31.6,501.9,31.9,502.2,31.9,502.7"/>
	<path d="M215.1,423.9v-14.4h-24.9v-24.2h18.7v-13.7h-18.7v-20.7h24.9v-14.4h-40.6v87.4H215.1z M147.2,409.6h-15.1v-58.6h15.1
		c0.2,0,0.5,0.1,0.5,0.5V409C147.6,409.4,147.4,409.6,147.2,409.6 M163.2,410.7v-61c0-7.7-5.3-13.1-13.2-13.1h-33.6v87.4H150
		C157.9,423.9,163.2,418.6,163.2,410.7 M89.8,351.5V409c0,0.2-0.2,0.5-0.5,0.5H74.7c-0.4,0-0.5-0.2-0.5-0.5v-57.6
		c0-0.4,0.1-0.5,0.5-0.5h14.6C89.5,350.9,89.8,351,89.8,351.5 M105.3,410.9v-61.5c0-7.7-5.3-13.1-13.2-13.1H71.7
		c-7.7,0-13.1,5.3-13.1,13.1v61.5c0,7.9,5.3,13.2,13.1,13.2h20.4C100,424.1,105.3,418.8,105.3,410.9 M47.5,410.8v-13.4H31.9V409
		c0,0.2-0.2,0.5-0.5,0.5H16.8c-0.4,0-0.5-0.2-0.5-0.5v-57.6c0-0.4,0.1-0.5,0.5-0.5h14.6c0.2,0,0.5,0.1,0.5,0.5v11.6h15.6v-13.7
		c0-7.6-5.4-13.1-13.2-13.1H13.9c-7.7,0.1-13.1,5.5-13.1,13.1v61.4c0,7.7,5.4,13.2,13.1,13.2h20.4C42,424,47.5,418.6,47.5,410.8"/>
	<polygon points="0.7,275.1 0.7,315.3 9.5,315.3 9.5,299.7 28.7,299.7 28.7,291.7 9.5,291.7 9.5,283.1 31.4,283.1 31.4,275.1 	"/>
	<rect x="39.3" y="275.1" width="8.8" height="40.3"/>
	<polygon points="58.2,275.1 66.4,275.1 85.3,299.8 85.3,275.1 94,275.1 94,315.3 86.5,315.3 66.9,289.8 66.9,315.3 58.2,315.3 	"/>
	<path d="M135.2,295.3v-0.1c0-6.9-5.1-12.6-12.2-12.6c-7.2,0-12.1,5.6-12.1,12.5v0.1c0,6.9,5,12.6,12.2,12.6
		C130.3,307.8,135.2,302.2,135.2,295.3L135.2,295.3z M101.6,295.3v-0.1c0-11.5,9-20.8,21.5-20.8s21.4,9.2,21.4,20.7v0.1
		c0,11.5-9,20.8-21.5,20.8S101.6,306.8,101.6,295.3"/>
	<path d="M149,309.5l5.2-6.3c3.6,3,7.4,4.9,12,4.9c3.6,0,5.9-1.4,5.9-3.8v-0.2c0-2.3-1.3-3.4-8.1-5.1c-8.1-2.1-13.3-4.3-13.3-12.3
		v-0.1c0-7.3,5.9-12.1,14.1-12.1c5.4-0.1,10.8,1.7,15,5.1l-4.6,6.7c-3.6-2.5-7.1-4-10.5-4s-5.1,1.5-5.1,3.5v0.1
		c0,2.7,1.7,3.5,8.7,5.3c8.2,2.2,12.7,5,12.7,12.1v0.1c0,8-6.1,12.5-14.8,12.5C159.7,315.9,153.7,313.7,149,309.5"/>
</g>
</svg>
