<?xml version="1.0" encoding="utf-8"?>
<!-- Generator: Adobe Illustrator 27.0.0, SVG Export Plug-In . SVG Version: 6.00 Build 0)  -->
<svg version="1.1" id="Layer_1" xmlns="http://www.w3.org/2000/svg" xmlns:xlink="http://www.w3.org/1999/xlink" x="0px" y="0px"
	 viewBox="0 0 439.8 218.5" style="enable-background:new 0 0 439.8 218.5;" xml:space="preserve">
<g>
	<path d="M409.6,85.2c18.7,0,30.2-11.6,30.2-27.4v-0.2c0-15.6-11.1-21.6-22.5-23.5l21.2-20.2V0h-56.6v15.8h32.9l-20,20.1l2.9,11.7
		h7.7c10.3,0,16.4,3.8,16.4,10.7v0.2c0,6.2-4.9,10.2-11.9,10.2c-8.5,0-14.5-3.6-20.2-10.1l-12.7,12.1
		C384.1,79.2,394.5,85.2,409.6,85.2L409.6,85.2z"/>
	<path d="M0,127.4h21.8v-51H85V56.5H21.8V22H93V2.1H0V127.4L0,127.4z M139.2,107.5V22h24.7c6.6,0,12.5,1.1,17.9,3.2
		c5.4,2.2,9.9,5.1,13.7,8.9c3.8,3.8,6.7,8.3,8.8,13.6c2.1,5.3,3.1,11,3.1,17.1v0.4c0,6.1-1,11.8-3.1,17c-2.1,5.2-5,9.7-8.8,13.5
		c-3.8,3.8-8.3,6.7-13.7,8.8c-5.4,2.1-11.3,3.1-17.9,3.1H139.2L139.2,107.5z M117.3,127.4H164c9.8,0,18.8-1.6,26.9-4.8
		c8.2-3.2,15.2-7.6,21.1-13.2c5.9-5.6,10.5-12.2,13.7-19.9c3.2-7.6,4.8-15.9,4.8-24.7v-0.4c0-8.8-1.6-17-4.8-24.6
		c-3.2-7.6-7.8-14.2-13.7-19.8c-5.9-5.6-12.9-10-21.1-13.1c-8.2-3.2-17.1-4.7-26.9-4.7h-46.7V127.4L117.3,127.4z M331.6,128
		c4.8-1,9.3-2.5,13.3-4.5c4.1-2,7.8-4.3,11.4-7c3.5-2.7,6.9-5.8,10.1-9.2L352.2,93c-5.4,5-10.8,9-16.3,11.9
		c-5.5,2.9-12,4.4-19.7,4.4c-6,0-11.5-1.2-16.5-3.5c-5.1-2.3-9.5-5.5-13.1-9.6c-3.7-4.1-6.6-8.8-8.6-14.2c-2-5.4-3-11.2-3-17.3v-0.4
		c0-6.1,1-11.8,3-17.2c2-5.4,4.9-10,8.6-14c3.7-4,8.1-7.2,13.1-9.5c5.1-2.3,10.6-3.5,16.5-3.5c7.2,0,13.5,1.4,19.1,4.3
		c5.6,2.9,10.9,6.6,15.9,11.3l14.1-16.3c-3-2.9-6.1-5.5-9.5-7.9c-3.3-2.4-7-4.4-10.9-6.2c-3.9-1.7-8.3-3.1-13-4
		c-4.7-1-9.9-1.4-15.7-1.4c-9.5,0-18.2,1.7-26.1,5.1c-7.9,3.4-14.7,8-20.4,14c-5.8,5.9-10.2,12.8-13.4,20.6
		c-3.2,7.8-4.8,16.2-4.8,25.1v0.4c0,8.9,1.6,17.4,4.9,25.2c3.2,7.9,7.7,14.7,13.4,20.5c5.7,5.8,12.4,10.3,20.2,13.7
		c7.8,3.3,16.2,5,25.4,5C321.4,129.5,326.7,129,331.6,128L331.6,128z"/>
	<path d="M8.7,201.3v-9h10.4c2.3,0,4,0.4,5.1,1.2c1,0.8,1.6,1.9,1.6,3.2v0.1c0,1.5-0.6,2.6-1.7,3.3c-1.1,0.7-2.7,1.1-4.7,1.1H8.7
		L8.7,201.3z M8.7,184.9v-8.6h8.9c1.9,0,3.4,0.4,4.4,1.1c1,0.7,1.5,1.8,1.5,3.1v0.1c0,1.5-0.6,2.6-1.7,3.3s-2.7,1-4.7,1H8.7
		L8.7,184.9z M0,209.2h19.4c2.3,0,4.4-0.2,6.3-0.7c1.9-0.5,3.5-1.2,4.8-2.1c1.3-0.9,2.4-2.1,3.1-3.5c0.7-1.4,1.1-3,1.1-4.9v-0.1
		c0-2.7-0.7-4.8-2-6.4c-1.4-1.5-3.2-2.7-5.6-3.6c0.7-0.4,1.4-0.9,2.1-1.4c0.6-0.5,1.2-1.2,1.7-1.9c0.5-0.7,0.9-1.5,1.2-2.4
		c0.3-0.9,0.4-1.9,0.4-3.1V179c0-2.8-0.9-5.1-2.8-6.9c-2.4-2.4-6-3.6-10.6-3.6H0V209.2L0,209.2z M49.2,202.7
		c-0.9-0.7-1.3-1.6-1.3-2.8v-0.1c0-1.4,0.5-2.5,1.6-3.2c1.1-0.7,2.6-1.1,4.5-1.1c1.1,0,2.1,0.1,3.1,0.3c1,0.2,1.8,0.5,2.6,0.8v1.6
		c0,1.6-0.6,3-1.9,4c-1.3,1-2.9,1.5-5,1.5C51.2,203.7,50.1,203.3,49.2,202.7L49.2,202.7z M55.5,208.7c1.5-0.7,2.8-1.7,3.9-2.9v3.4
		H68v-18.1c0-2.1-0.3-4-0.8-5.7c-0.5-1.7-1.4-3.1-2.6-4.3c-1.1-1.1-2.6-2-4.3-2.6c-1.7-0.6-3.8-0.9-6.3-0.9c-2.6,0-4.9,0.2-6.8,0.7
		c-1.9,0.5-3.7,1.1-5.4,1.8l2.2,6.8c1.4-0.5,2.8-1,4.1-1.3c1.3-0.3,2.8-0.4,4.5-0.4c2.2,0,3.9,0.5,5,1.5c1.1,1,1.7,2.4,1.7,4.3v0.5
		c-1.1-0.4-2.3-0.7-3.5-0.9c-1.2-0.2-2.6-0.4-4.2-0.4c-1.9,0-3.6,0.2-5.1,0.6c-1.5,0.4-2.9,1-4,1.8c-1.1,0.8-2,1.8-2.6,3.1
		c-0.6,1.2-0.9,2.7-0.9,4.4v0.1c0,1.6,0.3,2.9,0.8,4.1c0.6,1.2,1.3,2.2,2.3,3c1,0.8,2.1,1.4,3.4,1.8c1.3,0.4,2.7,0.6,4.2,0.6
		C52.1,209.8,54,209.4,55.5,208.7L55.5,208.7z M97.9,208.3c1.9-1.1,3.7-2.4,5.2-4.1l-5.2-5.2c-1.1,1-2.2,1.8-3.3,2.4
		c-1.1,0.6-2.4,0.9-3.9,0.9c-1.2,0-2.3-0.2-3.3-0.7c-1-0.4-1.8-1.1-2.5-1.8c-0.7-0.8-1.2-1.7-1.6-2.7c-0.4-1-0.6-2.2-0.6-3.4v-0.1
		c0-1.2,0.2-2.3,0.6-3.3c0.4-1,0.9-1.9,1.6-2.7c0.7-0.8,1.5-1.4,2.4-1.8c0.9-0.4,1.9-0.7,3.1-0.7c1.6,0,2.9,0.3,4,0.9
		c1.1,0.6,2.1,1.5,3.1,2.5l5.4-5.8c-1.5-1.6-3.2-2.9-5.1-3.8c-1.9-0.9-4.4-1.4-7.3-1.4c-2.4,0-4.6,0.4-6.6,1.3c-2,0.9-3.7,2-5.2,3.5
		c-1.4,1.5-2.6,3.2-3.4,5.2c-0.8,2-1.2,4.1-1.2,6.3v0.1c0,2.2,0.4,4.3,1.2,6.3c0.8,2,1.9,3.7,3.4,5.1c1.4,1.5,3.2,2.6,5.2,3.5
		c2,0.9,4.2,1.3,6.5,1.3C93.4,209.9,96,209.4,97.9,208.3L97.9,208.3z M108.9,209.2h8.9v-9.5l3.1-3.3l8.2,12.8h10.1l-12.3-18.9
		l11.9-12.3h-10.6l-10.4,11.4v-22.7h-8.9V209.2L108.9,209.2z M156.7,201.7c-0.9-0.4-1.7-1-2.4-1.7c-0.7-0.8-1.2-1.7-1.6-2.7
		c-0.4-1.1-0.6-2.2-0.6-3.5v-0.1c0-1.3,0.2-2.5,0.6-3.5c0.4-1.1,1-2,1.6-2.7c0.7-0.8,1.5-1.3,2.4-1.7c0.9-0.4,1.9-0.6,2.9-0.6
		c1,0,2,0.2,2.9,0.6c0.9,0.4,1.7,1,2.4,1.7c0.7,0.8,1.3,1.7,1.7,2.7c0.4,1.1,0.6,2.2,0.6,3.5v0.1c0,1.3-0.2,2.5-0.6,3.6
		c-0.4,1-1,2-1.7,2.7c-0.7,0.8-1.5,1.3-2.4,1.7c-0.9,0.4-1.9,0.6-2.9,0.6C158.6,202.3,157.6,202.1,156.7,201.7L156.7,201.7z
		 M143.3,218.5h8.9v-13.4c1,1.2,2.3,2.3,3.9,3.3c1.5,0.9,3.5,1.4,5.9,1.4c1.9,0,3.6-0.3,5.4-1c1.7-0.7,3.2-1.7,4.5-3.1
		c1.3-1.4,2.3-3.1,3.1-5.1c0.8-2,1.2-4.3,1.2-6.9v-0.1c0-2.6-0.4-4.9-1.2-6.9c-0.8-2-1.9-3.7-3.2-5.1c-1.3-1.4-2.8-2.4-4.5-3.1
		c-1.7-0.7-3.5-1-5.3-1c-2.3,0-4.3,0.5-5.8,1.4c-1.5,1-2.8,2.2-3.9,3.6V178h-8.9V218.5L143.3,218.5z M183.1,209.2h8.9v-42.5h-8.9
		V209.2L183.1,209.2z M208.3,202.7c-0.9-0.7-1.3-1.6-1.3-2.8v-0.1c0-1.4,0.5-2.5,1.6-3.2c1.1-0.7,2.6-1.1,4.5-1.1
		c1.1,0,2.1,0.1,3.1,0.3c1,0.2,1.8,0.5,2.6,0.8v1.6c0,1.6-0.6,3-1.9,4c-1.3,1-2.9,1.5-5,1.5C210.3,203.7,209.2,203.3,208.3,202.7
		L208.3,202.7z M214.6,208.7c1.5-0.7,2.8-1.7,3.9-2.9v3.4h8.6v-18.1c0-2.1-0.3-4-0.8-5.7c-0.5-1.7-1.4-3.1-2.6-4.3
		c-1.1-1.1-2.6-2-4.3-2.6c-1.7-0.6-3.8-0.9-6.3-0.9c-2.6,0-4.9,0.2-6.8,0.7c-1.9,0.5-3.7,1.1-5.4,1.8l2.2,6.8c1.4-0.5,2.8-1,4.1-1.3
		c1.3-0.3,2.8-0.4,4.5-0.4c2.2,0,3.9,0.5,5,1.5c1.1,1,1.7,2.4,1.7,4.3v0.5c-1.1-0.4-2.3-0.7-3.5-0.9c-1.2-0.2-2.6-0.4-4.2-0.4
		c-1.9,0-3.6,0.2-5.1,0.6c-1.5,0.4-2.9,1-4,1.8c-1.1,0.8-2,1.8-2.6,3.1c-0.6,1.2-0.9,2.7-0.9,4.4v0.1c0,1.6,0.3,2.9,0.8,4.1
		c0.6,1.2,1.3,2.2,2.3,3c1,0.8,2.1,1.4,3.4,1.8c1.3,0.4,2.7,0.6,4.2,0.6C211.3,209.8,213.1,209.4,214.6,208.7L214.6,208.7z
		 M234.7,209.2h8.9v-17.4c0-2.1,0.5-3.7,1.5-4.7c1-1.1,2.3-1.6,4-1.6c1.7,0,3,0.5,4,1.6c0.9,1.1,1.4,2.6,1.4,4.7v17.4h8.9V189
		c0-3.6-0.9-6.4-2.8-8.5c-1.8-2.1-4.5-3.1-7.8-3.1c-1.1,0-2.1,0.1-3,0.4c-0.9,0.3-1.7,0.6-2.4,1.1c-0.7,0.5-1.4,1-2,1.6
		c-0.6,0.6-1.2,1.2-1.7,1.9V178h-8.9V209.2L234.7,209.2z M278.2,191.1c0.4-2,1.1-3.6,2.2-4.8c1.1-1.2,2.6-1.8,4.5-1.8
		c1.9,0,3.4,0.6,4.5,1.8c1.1,1.2,1.8,2.8,2.1,4.8H278.2L278.2,191.1z M293.2,208.4c2.1-1,3.9-2.5,5.4-4.3l-5.1-4.5
		c-1.2,1.1-2.4,1.9-3.6,2.4c-1.2,0.5-2.5,0.8-4,0.8c-2,0-3.6-0.5-5-1.5c-1.3-1-2.2-2.6-2.7-4.6H300c0-0.4,0.1-0.8,0.1-1.2
		c0-0.4,0-0.8,0-1.1c0-2.2-0.3-4.3-0.9-6.4c-0.6-2-1.5-3.8-2.8-5.4c-1.3-1.6-2.8-2.8-4.7-3.8c-1.9-0.9-4.2-1.4-6.8-1.4
		c-2.3,0-4.4,0.4-6.3,1.3c-1.9,0.9-3.5,2-4.9,3.5c-1.4,1.5-2.4,3.2-3.2,5.2c-0.8,2-1.1,4.1-1.1,6.3v0.1c0,2.4,0.4,4.6,1.2,6.6
		c0.8,2,2,3.7,3.4,5.1c1.5,1.4,3.2,2.5,5.2,3.3c2,0.8,4.2,1.2,6.5,1.2C288.6,209.9,291.1,209.4,293.2,208.4L293.2,208.4z"/>
</g>
</svg>
