<?xml version="1.0" encoding="UTF-8"?>
<svg id="Layer_1" xmlns="http://www.w3.org/2000/svg" version="1.1" viewBox="0 0 720 164.602">
  <!-- Generator: Adobe Illustrator 29.5.1, SVG Export Plug-In . SVG Version: 2.1.0 Build 141)  -->
  <defs>
    <style>
      .st0 {
        fill: #233158;
      }
    </style>
  </defs>
  <path class="st0" d="M0,2.0924v160.4176h32.5484v-65.562h46.2656v-27.434h-46.2656V29.5261h52.0776V2.0924H0ZM139.258,2.0924h-32.548v160.4176h32.548V2.0924h0ZM243.178,2.0924v89.0436L197.61,2.0924h-26.968v160.4176h32.548v-87.649l45.336,87.649h27.201V2.0924h-32.549ZM296.416,95.32h50.217v-26.038h-50.217v26.038h0ZM468.918,93.693v-22.784c0-49.52-20.924-70.909-53.007-70.909s-53.008,21.389-53.008,70.909v22.784c0,49.52,20.924,70.909,53.008,70.909s53.007-21.389,53.007-70.909h0ZM395.452,93.693v-22.784c0-32.0834,6.509-43.4753,20.459-43.4753s20.459,11.3919,20.459,43.4753v22.784c0,32.083-6.51,43.475-20.459,43.475s-20.459-11.392-20.459-43.475h0ZM591.9019,51.845c-4.417-35.1058-22.784-51.845-49.055-51.845-31.386,0-53.007,21.389-53.007,70.909v22.784c0,49.055,21.621,70.909,53.007,70.909,27.899,0,44.4061-15.809,49.055-51.845h-30.9209c-2.0921,16.274-6.5091,24.411-18.1341,24.411-14.414,0-20.4589-13.716-20.4589-43.475v-22.784c0-30.6884,6.0449-43.4753,20.4589-43.4753,11.625,0,16.507,9.2995,18.1341,24.4113h30.9209ZM720,162.51l-27.201-68.585c13.717-6.974,22.319-21.156,22.319-42.7775,0-32.5484-20.2271-49.0551-51.1481-49.0551h-50.217v160.4176h32.548v-63.005h16.042l23.481,63.005h34.176ZM646.301,72.072V29.7586h13.949c13.717,0,22.319,4.6497,22.319,21.3889s-8.602,20.9245-22.319,20.9245h-13.949Z"/>
</svg>