<?xml version="1.0" encoding="utf-8"?>
<!-- Generator: Adobe Illustrator 25.0.0, SVG Export Plug-In . SVG Version: 6.00 Build 0)  -->
<svg version="1.1" id="Layer_1" xmlns="http://www.w3.org/2000/svg" xmlns:xlink="http://www.w3.org/1999/xlink" x="0px" y="0px"
	 viewBox="0 0 718 337.1" style="enable-background:new 0 0 718 337.1;" xml:space="preserve">
<style type="text/css">
	.st0{fill:#000029;}
	.st1{fill:#008FFF;}
</style>
<g>
	<path class="st0" d="M156.2,151.4V4.9c0-2.7-2.2-4.9-4.9-4.9H4.9C2.2,0,0,2.2,0,4.9v146.5c0,2.7,2.2,4.9,4.9,4.9h146.5
		C154,156.2,156.2,154,156.2,151.4L156.2,151.4z"/>
	<path class="st1" d="M111.6,62.7V46c0-3.4-1.9-6.6-4.8-8.4c-4.5-2.6-14.1-7-28.7-7c-14.6,0-24.2,4.4-28.7,7c-3,1.8-4.8,5-4.8,8.4
		v25.1l53.1,15.4v11.2c0,1.5-1,2.6-2.6,3.4l-17,8.5L61,101c-1.5-0.7-2.5-1.8-2.5-3.3v-8.4l-14-4.2v12.6c0,6.9,4,12.8,10.2,15.8
		l23.3,12.1l23.2-12.1c6.4-3.1,10.3-9,10.3-15.9V76.7L58.6,61.4V48.6c3.8-1.8,10.3-4,19.6-4c9.3,0,15.8,2.2,19.6,4v10L111.6,62.7
		L111.6,62.7z"/>
	<path class="st0" d="M29.5,272.9c-11.2,0-20.9-3.7-29.5-9.1l5.3-8.1c8.6,5.5,16.6,8.2,25.5,8.2c10.4,0,15.3-4,15.3-8.7
		c0-13.6-44.1-5.4-44.1-27c0-10.5,10.5-18.8,27.5-18.8c11.4,0,21.3,4.3,27.1,10.1l-6.6,6.8c-5-4.4-12.7-7.8-20.7-7.8
		c-9.9,0-16.6,3.6-16.6,8.6c0,12.6,44.2,5.9,44.2,27.1C57,265.3,45.6,272.9,29.5,272.9L29.5,272.9z M100.2,247v23.8H89.5v-23.9
		l-26.7-35.5h12.5l20.1,27.5l19-27.5h12.3L100.2,247L100.2,247z M201.2,270.8v-46.5l-2.9,6.3l-21,40.2h-6.4L150,230.6l-2.9-6.3v46.5
		h-10.3v-59.4h14.9l20,39.9l2.8,6.1l2.8-6.1l19.7-39.9h14.7v59.4H201.2L201.2,270.8z M269.8,229.1c0-4.9-3.3-8.6-11.4-8.6h-19.7
		v19.2h20.1c8.1,0,11-3.9,11-8.7V229.1L269.8,229.1z M257.2,248.4h-18.5v22.4H228v-59.4h29.2c16.2,0,23.4,7.3,23.4,17.6v1.6
		C280.6,241,273.4,248.4,257.2,248.4L257.2,248.4z M338.9,270.8v-25.6h-35.7v25.6h-10.7v-59.4h10.7v25.1h35.7v-25.1h10.7v59.4H338.9
		L338.9,270.8z M414.1,237.4c0-10.2-7-18.9-20.1-18.9c-13,0-20,8.7-20,18.9v7.2c0,10.2,6.9,19.1,20,19.1c13,0,20.1-8.9,20.1-19.1
		V237.4L414.1,237.4z M394.1,272.9c-19.1,0-30.8-13.5-30.8-28.1v-7.4c0-14.8,11.7-28.1,30.8-28.1c19.2,0,30.8,13.3,30.8,28.1v7.4
		C424.9,259.4,413.3,272.9,394.1,272.9L394.1,272.9z M486.7,270.8l-33.2-37.5l-4.3-5.5v43.1h-10.6v-59.4h9.9l32.2,37.6l4.4,5.5
		v-43.1h10.5v59.4H486.7L486.7,270.8z M543.1,247v23.8h-10.7v-23.9l-26.7-35.5h12.5l20.1,27.5l19-27.5h12.3L543.1,247L543.1,247z"/>
	<path class="st1" d="M16.8,337c7.6,0,13-3.9,13-10.9v-0.1c0-6.2-4-8.7-11.2-10.6c-6.1-1.6-7.6-2.3-7.6-4.6v-0.1
		c0-1.7,1.6-3.1,4.5-3.1s6.1,1.3,9.2,3.5l4-5.9c-3.6-2.9-8-4.5-13.1-4.5c-7.2,0-12.4,4.2-12.4,10.6v0.1c0,7,4.6,9,11.7,10.8
		c5.9,1.5,7.1,2.5,7.1,4.5v0.1c0,2.1-1.9,3.3-5.1,3.3c-4,0-7.4-1.7-10.5-4.3l-4.6,5.5C6.1,335.1,11.4,337,16.8,337L16.8,337z
		 M34.8,336.5h26.1v-6.7H45.5l5.8-4.4c6.3-4.8,9.3-7.8,9.3-13.7v-0.1c0-6.6-4.8-10.9-12.1-10.9c-6.3,0-9.7,2.6-13.2,7.3l5.4,4.4
		c2.6-3.2,4.5-4.7,7.2-4.7c2.8,0,4.7,1.6,4.7,4.6c0,2.9-1.7,4.8-6.1,8.5l-11.8,9.6V336.5L34.8,336.5z M99.6,337.1
		c6.8,0,10.8-2.4,14.5-6.3l-4.9-5c-2.8,2.5-5.2,4.1-9.3,4.1c-6.1,0-10.2-5-10.2-11.1v-0.1c0-6.1,4.3-11,10.2-11c3.5,0,6.3,1.5,9,4
		l4.9-5.7c-3.3-3.2-7.3-5.4-13.9-5.4c-10.8,0-18.4,8.2-18.4,18.3v0.1C81.5,329.1,89.2,337.1,99.6,337.1L99.6,337.1z M136.4,337.1
		c10.9,0,18.8-8.2,18.8-18.3v-0.1c0-10-7.8-18.2-18.7-18.2c-10.9,0-18.8,8.2-18.8,18.3v0.1C117.7,329,125.5,337.1,136.4,337.1
		L136.4,337.1z M136.5,329.9c-6.3,0-10.7-5-10.7-11.1v-0.1c0-6.1,4.3-11,10.6-11c6.3,0,10.7,5,10.7,11.1v0.1
		C147.1,325,142.8,329.9,136.5,329.9L136.5,329.9z M162.2,336.5h7.6v-22.9l9.8,14.9h0.2l9.9-15.1v23h7.7v-35.3h-8.4l-9.3,14.9
		l-9.3-14.9h-8.4V336.5L162.2,336.5z M205.9,336.5h7.6v-22.9l9.8,14.9h0.2l9.9-15.1v23h7.7v-35.3h-8.4l-9.3,14.9l-9.3-14.9h-8.4
		V336.5L205.9,336.5z M266.9,337.1c10.9,0,18.8-8.2,18.8-18.3v-0.1c0-10-7.8-18.2-18.7-18.2c-10.9,0-18.8,8.2-18.8,18.3v0.1
		C248.2,329,256,337.1,266.9,337.1L266.9,337.1z M267,329.9c-6.3,0-10.7-5-10.7-11.1v-0.1c0-6.1,4.3-11,10.6-11
		c6.3,0,10.7,5,10.7,11.1v0.1C277.6,325,273.2,329.9,267,329.9L267,329.9z M292.6,336.5h7.7V314l17.1,22.4h6.6v-35.3h-7.7v21.7
		l-16.5-21.7h-7.2V336.5L292.6,336.5z M364.1,337.1c6.8,0,10.8-2.4,14.5-6.3l-4.9-5c-2.8,2.5-5.2,4.1-9.3,4.1
		c-6.1,0-10.2-5-10.2-11.1v-0.1c0-6.1,4.3-11,10.2-11c3.5,0,6.3,1.5,9,4l4.9-5.7c-3.3-3.2-7.3-5.4-13.9-5.4
		c-10.8,0-18.4,8.2-18.4,18.3v0.1C346,329.1,353.7,337.1,364.1,337.1L364.1,337.1z M400.9,337.1c10.9,0,18.8-8.2,18.8-18.3v-0.1
		c0-10-7.8-18.2-18.7-18.2c-10.9,0-18.8,8.2-18.8,18.3v0.1C382.2,329,390,337.1,400.9,337.1L400.9,337.1z M401,329.9
		c-6.3,0-10.7-5-10.7-11.1v-0.1c0-6.1,4.3-11,10.6-11c6.3,0,10.7,5,10.7,11.1v0.1C411.6,325,407.3,329.9,401,329.9L401,329.9z
		 M426.7,336.5h7.6v-22.9l9.8,14.9h0.2l9.9-15.1v23h7.7v-35.3h-8.4l-9.3,14.9l-9.3-14.9h-8.4V336.5L426.7,336.5z M470.5,336.5h7.8
		v-10.6h5.9c7.9,0,14.3-4.2,14.3-12.4v-0.1c0-7.2-5.1-12.2-13.5-12.2h-14.4V336.5L470.5,336.5z M478.2,319v-10.8h6
		c3.9,0,6.3,1.9,6.3,5.3v0.1c0,3-2.3,5.4-6.2,5.4H478.2L478.2,319z M521.3,337.1c10.9,0,18.8-8.2,18.8-18.3v-0.1
		c0-10-7.8-18.2-18.7-18.2c-10.9,0-18.8,8.2-18.8,18.3v0.1C502.6,329,510.4,337.1,521.3,337.1L521.3,337.1z M521.4,329.9
		c-6.3,0-10.7-5-10.7-11.1v-0.1c0-6.1,4.3-11,10.6-11c6.3,0,10.7,5,10.7,11.1v0.1C532,325,527.7,329.9,521.4,329.9L521.4,329.9z
		 M547,336.5h7.7V314l17.1,22.4h6.6v-35.3h-7.7v21.7l-16.5-21.7H547V336.5L547,336.5z M586.9,336.5h26.9v-6.9h-19.2v-7.4h16.6v-6.9
		h-16.6v-7.2h18.9v-6.9h-26.6V336.5L586.9,336.5z M620.7,336.5h7.7V314l17.1,22.4h6.6v-35.3h-7.7v21.7l-16.6-21.7h-7.2V336.5
		L620.7,336.5z M668.7,336.5h7.8v-28.1h10.7v-7.2H658v7.2h10.7V336.5L668.7,336.5z M705,337c7.6,0,13-3.9,13-10.9v-0.1
		c0-6.2-4-8.7-11.2-10.6c-6.1-1.6-7.6-2.3-7.6-4.6v-0.1c0-1.7,1.6-3.1,4.5-3.1c3,0,6.1,1.3,9.2,3.5l4-5.9c-3.6-2.9-8-4.5-13.1-4.5
		c-7.2,0-12.4,4.2-12.4,10.6v0.1c0,7,4.6,9,11.7,10.8c5.9,1.5,7.1,2.5,7.1,4.5v0.1c0,2.1-1.9,3.3-5.1,3.3c-4,0-7.4-1.7-10.5-4.3
		l-4.6,5.5C694.3,335.1,699.6,337,705,337L705,337z"/>
</g>
</svg>
