<?xml version="1.0" encoding="utf-8"?>
<!-- Generator: Adobe Illustrator 26.5.0, SVG Export Plug-In . SVG Version: 6.00 Build 0)  -->
<svg version="1.1" id="Layer_1" xmlns="http://www.w3.org/2000/svg" xmlns:xlink="http://www.w3.org/1999/xlink" x="0px" y="0px"
	 viewBox="0 0 499.6 540" style="enable-background:new 0 0 499.6 540;" xml:space="preserve">
<style type="text/css">
	.st0{fill:#FFFFFF;}
</style>
<g>
	<path class="st0" d="M308.1,235.8l0-0.3L308.1,235.8L308.1,235.8L308.1,235.8z M303.6,234l-35.6-11.4l-72.2,23.1l35.7,11.4
		L303.6,234L303.6,234z"/>
	<path class="st0" d="M249.8,0L240,6.7c-39.3,26.6-81.2,43.7-124.5,50.9c-30.6,5.2-63.1,5.2-93.7,0L0,53.9l1.3,22.3
		C6,159.6,23.1,239,52.2,312.3c45,113.1,116.8,173.1,187.7,221.1l9.8,6.6v-86.1c0,0,0,0-0.1,0c-58.2-40.4-103.2-84.2-133.6-160.5
		C95.8,242.1,83,186.7,78.1,128.6c22.4,2.2,45.5,1.3,67.5-2.4c36.2-6,71.3-19.6,104.3-40.6V0L249.8,0z"/>
	<path class="st0" d="M498.3,76.2l1.3-22.3l-21.8,3.7c-30.6,5.2-63.1,5.2-93.7,0c-43.3-7.2-85.2-24.3-124.5-50.9L249.8,0v85.7
		c33,20.9,68,34.6,104.3,40.6c21.9,3.7,45,4.5,67.5,2.4c-1.9,22.7-5.1,44.9-9.4,66.7c16-7.7,43-17.7,73.6-16.7
		C492.1,145.3,496.4,111.1,498.3,76.2L498.3,76.2z M249.9,454C249.8,454,249.8,454,249.9,454l-0.1,86l9.8-6.6
		c64.8-43.8,130.3-97.9,175.5-193.2c-13.7-2-25-4-26.3-5.5c-2-2.4-20.3-11-35.5-18.2C343.4,378.9,301.9,417.8,249.9,454L249.9,454z"
		/>
	<polygon class="st0" points="322.2,321.8 322.2,321.8 462.1,378.4 462.1,378.4 445.7,217.6 445.7,217.6 322.2,321.8 	"/>
	<polygon class="st0" points="308.1,160.3 308.1,206.6 191.5,243.9 191.5,197.7 308,160.3 308.1,160.3 	"/>
	<polygon class="st0" points="191.5,273.1 191.5,355.1 236.8,355.1 236.8,304.8 308.1,282 308.1,235.8 191.5,273.1 	"/>
</g>
</svg>
