<?xml version="1.0" encoding="utf-8"?>
<!-- Generator: Adobe Illustrator 24.1.0, SVG Export Plug-In . SVG Version: 6.00 Build 0)  -->
<svg version="1.1" id="Layer_1" xmlns="http://www.w3.org/2000/svg" xmlns:xlink="http://www.w3.org/1999/xlink" x="0px" y="0px"
	 viewBox="0 0 720.05 104.75" style="enable-background:new 0 0 720.05 104.75;" xml:space="preserve">
<style type="text/css">
	.st0{opacity:0.6;fill:#00000A;}
	.st1{fill:#00000A;}
</style>
<g>
	<path class="st0" d="M537.52,83.62c-16.66,0-27.31-7.93-31.73-19.6l15.64-9.07c2.83,6.57,7.7,10.99,16.66,10.99
		c8.61,0,10.76-3.4,10.76-6.46c0-4.87-4.53-6.8-16.43-10.08c-11.78-3.29-23.34-8.95-23.34-24.13c0-15.3,12.92-24.13,26.63-24.13
		c13.03,0,23.23,6.23,29.01,17.9l-15.3,8.95c-2.72-5.67-6.46-9.18-13.71-9.18c-5.67,0-8.5,2.83-8.5,6.01
		c0,3.63,1.93,6.12,14.28,9.86c12.01,3.63,25.49,7.82,25.49,24.59C566.98,74.55,554.74,83.62,537.52,83.62 M593.6,20.17v44.42h13.6
		c12.46,0,21.08-8.61,21.08-22.21c0-13.6-8.61-22.21-21.08-22.21H593.6 M607.2,82.03h-31.73V2.72h31.73
		c21.87,0,38.52,17.22,38.52,39.66C645.72,64.81,629.07,82.03,607.2,82.03 M720.05,82.03h-20.62l-25.38-36.71v36.71h-18.13V2.72
		h18.13v34.44L698.3,2.72h20.62l-26.74,38.64L720.05,82.03"/>
	<path class="st1" d="M31.73,2.72H0v79.31h31.73c21.87,0,38.52-17.22,38.52-39.66C70.25,19.94,53.59,2.72,31.73,2.72L31.73,2.72z
		 M31.73,64.58h-13.6V20.17h13.6c12.46,0,21.07,8.61,21.07,22.21C52.8,55.97,44.19,64.58,31.73,64.58L31.73,64.58z M88.38,20.39
		c5.55,0,10.2-4.65,10.2-10.2c0-5.55-4.65-10.2-10.2-10.2c-5.55,0-10.2,4.65-10.2,10.2C78.18,15.75,82.82,20.39,88.38,20.39
		L88.38,20.39z M79.88,82.03h17V25.38h-17V82.03L79.88,82.03z M124.86,41.92c0-2.04,1.81-3.17,4.76-3.17c3.74,0,6.01,2.04,7.59,4.99
		l14.5-7.82c-4.76-8.04-12.92-12.12-22.09-12.12c-11.78,0-22.21,6.23-22.21,18.58c0,19.6,27.87,16.32,27.87,22.55
		c0,2.27-2.04,3.51-6.12,3.51c-4.99,0-8.16-2.38-9.63-6.68l-14.73,8.38c4.42,9.18,13.03,13.48,24.36,13.48
		c12.24,0,23.57-5.55,23.57-18.58C152.73,44.08,124.86,48.38,124.86,41.92L124.86,41.92z M187.86,83.62
		c11.1,0,20.74-5.78,25.61-14.62l-14.84-8.5c-1.81,3.97-6.01,6.35-10.99,6.35c-7.37,0-12.8-5.33-12.8-13.14
		c0-7.82,5.44-13.14,12.8-13.14c4.99,0,9.07,2.38,10.99,6.35l14.84-8.61c-4.87-8.72-14.62-14.5-25.61-14.5
		c-17.22,0-30.03,13.03-30.03,29.91C157.83,70.59,170.64,83.62,187.86,83.62L187.86,83.62z M246.32,83.62
		c16.66,0,30.03-13.03,30.03-29.91c0-16.88-13.37-29.91-30.03-29.91c-16.65,0-30.02,13.03-30.02,29.91
		C216.3,70.59,229.67,83.62,246.32,83.62L246.32,83.62z M246.32,67.08c-7.36,0-13.03-5.33-13.03-13.37
		c0-8.04,5.67-13.37,13.03-13.37c7.36,0,13.03,5.33,13.03,13.37C259.35,61.75,253.69,67.08,246.32,67.08L246.32,67.08z
		 M319.86,25.38L308.08,61.3l-11.78-35.92h-18.81l20.96,56.65h19.26l20.96-56.65H319.86L319.86,25.38z M357.82,60.51h40.22
		c0.45-2.15,0.68-4.42,0.68-6.8c0-17.11-12.24-29.91-28.78-29.91c-17.9,0-30.14,13.03-30.14,29.91c0,16.88,12.01,29.91,31.38,29.91
		c10.76,0,19.15-3.96,24.7-11.67l-13.6-7.82c-2.27,2.49-6.23,4.3-10.88,4.3C365.18,68.44,359.97,66.4,357.82,60.51L357.82,60.51z
		 M357.48,47.81c1.59-5.78,5.89-8.95,12.35-8.95c5.1,0,10.2,2.38,12.01,8.95H357.48L357.48,47.81z M425.35,35.46V25.38h-17v56.65h17
		V56.43c0-11.22,9.97-14.05,17-12.92V24.25C435.2,24.25,427.61,27.87,425.35,35.46L425.35,35.46z M487.1,25.38l-10.65,34.67
		l-12.58-34.67h-18.69l22.55,54.05c-2.49,6.91-6.23,9.4-14.16,9.4v15.86c15.86,0.79,25.95-6.35,32.29-24.36l19.38-54.95H487.1
		L487.1,25.38z"/>
</g>
</svg>
