<?xml version="1.0" encoding="utf-8"?>
<!-- Generator: Adobe Illustrator 26.0.2, SVG Export Plug-In . SVG Version: 6.00 Build 0)  -->
<svg version="1.1" id="Layer_1" xmlns="http://www.w3.org/2000/svg" xmlns:xlink="http://www.w3.org/1999/xlink" x="0px" y="0px"
	 viewBox="0 0 484 643.6" style="enable-background:new 0 0 484 643.6;" xml:space="preserve">
<path d="M312,420.5v68.7c0,12.9-3.7,16.5-16.5,16.5h-54.6c55.7,40.5,123,79.4,204.6,114c25.8-20.3,38.4-53.8,38.4-101.1v-98.1H312z
	 M126.3,0C42.1,0,0,40.5,0,125l0,74.3c23.8,67.3,72.8,160.8,173.8,252.2V321.8V154.5c0-12.9,3.7-16.5,16.5-16.5h105.2
	c12.8,0,16.5,3.7,16.5,16.5v68.7h172V125C484,40.5,443.7,0,359.6,0H126.3z"/>
<path d="M0,302.2h26.9c-7.7-13.9-14.4-27.3-20.2-40.1H0V302.2z M0,246.6v5.1h2C1.3,249.9,0.7,248.3,0,246.6 M32.7,312.5H0v9.2v30.9
	h33.4v-38.8C33.2,313.4,32.9,313,32.7,312.5 M33.4,514.5H0v4.1c0,13.1,1.1,25,3.2,36h30.3V514.5z M420.3,633.7
	c-7.8-3.4-15.7-6.7-23.1-10.2v16.7C405.5,638.6,413.2,636.5,420.3,633.7 M346.7,643.6h12.9c9.7,0,18.7-0.6,27.2-1.7v-23.5
	c-2.1-1-4.1-2-6.1-3h-34V643.6z M346.7,605.1h12.8c-4.4-2.2-8.6-4.5-12.8-6.7V605.1z M195.3,554.6h40.1v-24.8
	c-7.1-5.1-14.2-10.1-21-15.3h-19.1V554.6z M235.3,565h-40.1v40.1h40.1V565z M245.7,554.6h26c-8.9-5.7-17.7-11.4-26-17.3V554.6z
	 M285.8,565h-40.1v40.1h40.1V565z M144.8,605.1h40.1V565h-40.1V605.1z M144.8,554.6h40.1v-40.1h-40.1V554.6z M144.8,504.1h36
	c-5-2-6.9-6.3-6.9-15V481c-6.4-5.7-13-11.3-19.1-17h-10V504.1z M336.3,592.7c-13.9-7.5-27.2-15.2-40.1-22.9v35.3h40.1V592.7z
	 M336.3,615.5h-40.1v28.1h40.1V615.5z M245.7,643.6h40.1v-28.1h-40.1V643.6z M195.3,643.6h40.1v-28.1h-40.1V643.6z M144.8,643.6
	h40.1v-28.1h-40.1V643.6z M94.3,641.3c9.9,1.5,20.5,2.3,32,2.3h8.1v-28.1H94.3V641.3z M134.4,514.5H94.3v40.1h40.1V514.5z
	 M94.3,504.1h40.1V464H94.3V504.1z M134.4,565H94.3v40.1h40.1V565z M96.7,403.1c-0.8-0.9-1.6-1.8-2.4-2.7v2.7H96.7z M65.5,363H43.8
	v40.1h40.1v-15.7C77.4,379.2,71.3,371.1,65.5,363 M43.8,352.6H58c-5-7.3-9.7-14.5-14.2-21.6V352.6z M83.9,413.5H43.8v40.1h40.1
	V413.5z M83.9,464H43.8v40.1h40.1V464z M83.9,514.5H43.8v40.1h40.1V514.5z M83.9,565H43.8v40.1h40.1V565z M83.9,615.5H43.8v7.2
	c11.2,7.7,24.5,13.3,40.1,16.8V615.5z M5.4,565c4.1,15.7,10.4,29.1,19.2,40.1h8.8V565H5.4z M0,464v40.1h33.4V464H0z M0,413.5l0,40.1
	h33.4v-40.1H0z M0,363v40.1h33.4V363H0z M134.4,444.4c-10.2-10.3-19.6-20.6-28.7-30.9H94.3v40.1h40.1V444.4z"/>
</svg>
