<?xml version="1.0" encoding="utf-8"?>
<!-- Generator: Adobe Illustrator 26.0.2, SVG Export Plug-In . SVG Version: 6.00 Build 0)  -->
<svg version="1.1" id="Layer_1" xmlns="http://www.w3.org/2000/svg" xmlns:xlink="http://www.w3.org/1999/xlink" x="0px" y="0px"
	 viewBox="0 0 519.6 674.5" style="enable-background:new 0 0 519.6 674.5;" xml:space="preserve">
<path d="M194,659.8c-1.1-1-1.7-2.4-1.7-4.1c0-5.8,3.2-8.7,9.7-8.7h5.4v9.5c-0.7,1.3-1.7,2.4-3.3,3.4s-3.4,1.5-5.7,1.5
	C196.6,661.3,195.1,660.8,194,659.8 M228.5,673.4v-0.9c-1.6-2.9-2.5-7.1-2.5-12.5v-26.3c-0.1-6.4-2.4-11.5-6.8-15.2
	c-4.4-3.7-10.4-5.6-18-5.6c-7.6,0-13.8,1.8-18.7,5.4c-4.9,3.6-7.3,8.3-7.3,14h18.5c0-4.3,2.2-6.5,6.6-6.5c4.7,0,7.1,2.7,7.1,8.2v3.1
	h-5.7c-9.1,0-16,1.7-20.8,5c-4.8,3.3-7.2,8.2-7.2,14.6c0,5.1,2,9.4,5.9,12.8c3.9,3.4,8.7,5.1,14.3,5.1c6.1,0,10.9-2.1,14.3-6.4
	c0.5,2.3,1.1,4.1,1.8,5.3H228.5z M140.8,599.1v14.8h-7.6v12.9h7.6v29.5c0,6.1,1.5,10.7,4.6,13.7c3,3,7.8,4.5,14.1,4.5
	c3.6,0,7.1-0.5,10.4-1.6v-13.3c-1.3,0.2-2.8,0.3-4.6,0.3c-2.4,0-4-0.4-4.8-1.3c-0.8-0.9-1.2-2.4-1.2-4.7v-27.2h9.8v-12.9h-9.8v-14.8
	H140.8z M95.6,659.8c-1.1-1-1.7-2.4-1.7-4.1c0-5.8,3.2-8.7,9.7-8.7h5.4v9.5c-0.7,1.3-1.7,2.4-3.3,3.4s-3.4,1.5-5.7,1.5
	C98.2,661.3,96.7,660.8,95.6,659.8 M130,673.4v-0.9c-1.6-2.9-2.5-7.1-2.5-12.5v-26.3c-0.1-6.4-2.4-11.5-6.8-15.2
	c-4.4-3.7-10.4-5.6-18-5.6c-7.6,0-13.8,1.8-18.7,5.4c-4.9,3.6-7.3,8.3-7.3,14h18.5c0-4.3,2.2-6.5,6.6-6.5c4.7,0,7.1,2.7,7.1,8.2v3.1
	h-5.7c-9.1,0-16,1.7-20.8,5c-4.8,3.3-7.2,8.2-7.2,14.6c0,5.1,2,9.4,5.9,12.8c3.9,3.4,8.7,5.1,14.3,5.1c6.1,0,10.9-2.1,14.3-6.4
	c0.5,2.3,1.1,4.1,1.8,5.3H130z M31.8,608.3c5.7,0,10,2,13,5.9c3,3.9,4.5,9.7,4.5,17.5v3.5c0,7.8-1.5,13.6-4.5,17.6
	c-3,3.9-7.2,5.9-12.8,5.9h-6.7v-50.3H31.8z M32.4,673.4c6.9,0,13.2-1.7,18.8-5c5.6-3.3,10-7.8,13.1-13.6c3.1-5.8,4.6-12.4,4.6-19.7
	v-3.7c0-7.3-1.6-13.8-4.8-19.7c-3.2-5.8-7.6-10.4-13.2-13.6c-5.6-3.2-12-4.8-19.1-4.8H6v80.1H32.4z"/>
<path d="M499.2,526.7c1.6,1.6,2.3,3.9,2.3,6.9v1.4h-18.7c1-7.2,4.2-10.8,9.7-10.8C495.3,524.3,497.6,525.1,499.2,526.7 M508.2,568.8
	c4.2-1.9,7.5-4.4,9.8-7.6l-8.5-10c-3.3,4.1-7.9,6.2-13.7,6.2c-3.6,0-6.5-1-8.7-2.9c-2.2-1.9-3.7-4.5-4.3-7.9h36.8v-7.2
	c0-9.3-2.4-16.5-7.3-21.7c-4.8-5.2-11.4-7.8-19.8-7.8c-5.9,0-11.1,1.3-15.4,3.8c-4.3,2.5-7.6,6.1-9.9,10.8c-2.3,4.7-3.4,10-3.4,16.1
	v1.5c0,8.7,2.8,15.8,8.5,21.3c5.6,5.4,13,8.2,22.2,8.2C499.4,571.7,503.9,570.7,508.2,568.8 M425.5,553.9c-1.4-2.3-2.1-6.5-2.1-12.4
	c0-3.4,0.1-6.1,0.4-8c0.8-6.1,3.6-9.2,8.4-9.2c2.5,0,4.5,0.8,6.1,2.5c1.5,1.7,2.3,4,2.3,7.1h17.4c0-7.3-2.3-13.1-6.8-17.4
	c-4.5-4.3-10.7-6.4-18.4-6.4c-5.7,0-10.7,1.2-14.8,3.7c-4.2,2.5-7.4,6-9.6,10.6c-2.2,4.6-3.3,9.9-3.3,15.9v0.8
	c0,9.6,2.5,17.1,7.5,22.5c5,5.4,11.8,8.1,20.5,8.1c7.4,0,13.4-2.1,18.1-6.3c4.7-4.2,7-9.5,7-16.1h-17.4c0,2.5-0.7,4.5-2.1,5.9
	c-1.4,1.4-3.4,2.1-6,2.1C429.2,557.4,427,556.2,425.5,553.9 M343.3,511.1v59.5h18.5v-42c1.8-2.9,4.5-4.3,8.1-4.3
	c3.2,0,5.4,0.7,6.6,2.1c1.2,1.4,1.8,3.6,1.8,6.6v37.6h18.6v-38.3c-0.1-7.4-1.7-13-4.8-16.7c-3.1-3.7-7.7-5.6-13.9-5.6
	c-7.2,0-12.9,2.7-17,8.1l-0.6-7H343.3z M315.8,526.7c1.6,1.6,2.3,3.9,2.3,6.9v1.4h-18.7c1-7.2,4.2-10.8,9.7-10.8
	C312,524.3,314.3,525.1,315.8,526.7 M324.8,568.8c4.2-1.9,7.5-4.4,9.8-7.6l-8.5-10c-3.3,4.1-7.9,6.2-13.7,6.2c-3.6,0-6.5-1-8.7-2.9
	s-3.7-4.5-4.3-7.9h36.8v-7.2c0-9.3-2.4-16.5-7.3-21.7c-4.8-5.2-11.4-7.8-19.8-7.8c-5.9,0-11.1,1.3-15.4,3.8
	c-4.3,2.5-7.6,6.1-9.9,10.8c-2.3,4.7-3.4,10-3.4,16.1v1.5c0,8.7,2.8,15.8,8.5,21.3c5.6,5.4,13,8.2,22.2,8.2
	C316,571.7,320.6,570.7,324.8,568.8 M277.1,510.6c-1.5-0.4-3.2-0.7-5.2-0.7c-5.6,0-9.9,2.9-13,8.7l-0.6-7.6h-17.4v59.5h18.5v-37.7
	c1.6-3.7,5.4-5.5,11.2-5.5l6.1,0.4L277.1,510.6z M212.9,526.7c1.6,1.6,2.3,3.9,2.3,6.9v1.4h-18.7c1-7.2,4.3-10.8,9.7-10.8
	C209.1,524.3,211.3,525.1,212.9,526.7 M221.9,568.8c4.2-1.9,7.5-4.4,9.8-7.6l-8.5-10c-3.3,4.1-7.9,6.2-13.7,6.2
	c-3.6,0-6.5-1-8.7-2.9s-3.7-4.5-4.3-7.9h36.8v-7.2c0-9.3-2.4-16.5-7.3-21.7c-4.8-5.2-11.4-7.8-19.8-7.8c-5.9,0-11.1,1.3-15.4,3.8
	c-4.3,2.5-7.6,6.1-9.9,10.8c-2.3,4.7-3.4,10-3.4,16.1v1.5c0,8.7,2.8,15.8,8.5,21.3c5.6,5.4,13,8.2,22.2,8.2
	C213.1,571.7,217.7,570.7,221.9,568.8 M162.6,570.6v-46.6h11.6v-12.9h-11.6v-4.6c0-4.8,2.8-7.3,8.4-7.3c1.9,0,3.4,0.2,4.6,0.5
	l-0.1-13.6c-3.2-0.8-6-1.2-8.7-1.2c-7.2,0-12.8,1.9-16.8,5.6c-4,3.7-6,9-6,15.8v4.7h-8.6v12.9h8.6v46.6H162.6z M112.1,526.7
	c1.6,1.6,2.3,3.9,2.3,6.9v1.4H95.7c1-7.2,4.2-10.8,9.7-10.8C108.3,524.3,110.5,525.1,112.1,526.7 M121.1,568.8
	c4.2-1.9,7.5-4.4,9.8-7.6l-8.5-10c-3.3,4.1-7.9,6.2-13.7,6.2c-3.6,0-6.5-1-8.7-2.9c-2.2-1.9-3.7-4.5-4.3-7.9h36.8v-7.2
	c0-9.3-2.4-16.5-7.3-21.7c-4.8-5.2-11.4-7.8-19.8-7.8c-5.9,0-11.1,1.3-15.4,3.8c-4.3,2.5-7.6,6.1-9.9,10.8c-2.3,4.7-3.4,10-3.4,16.1
	v1.5c0,8.7,2.8,15.8,8.5,21.3c5.6,5.4,13,8.2,22.2,8.2C112.3,571.7,116.9,570.7,121.1,568.8 M25.3,505.4h12.2c3.6,0,6.4,1,8.2,3
	c1.9,2,2.8,4.7,2.8,8.1c0,3.5-0.9,6.1-2.8,8.1c-1.9,1.9-4.6,2.9-8.3,2.9H25.3V505.4z M49.9,570.6h20.7v-0.8l-16.7-32.3
	c4.8-2.3,8.3-5.2,10.6-8.9c2.3-3.7,3.4-8.3,3.4-13.8c0-7.7-2.7-13.6-8-17.9c-5.3-4.2-12.8-6.3-22.3-6.3H6v80.1h19.3v-28.3h10.4
	L49.9,570.6z"/>
<path d="M424.6,408.2h-19.8l20.7,60.1l-1.5,4c-0.7,1.9-1.7,3.3-3.1,4c-1.4,0.7-3.4,1.1-6,1.1h-2.4v13.2c2.7,0.7,5.2,1.1,7.6,1.1
	c8.7,0,14.8-3.8,18.3-11.5l1-2.5l24.2-69.4h-19.8l-9.9,33.5L424.6,408.2z M370.1,451.1c-1.4-2.3-2.1-6.5-2.1-12.4
	c0-3.4,0.1-6.1,0.4-8c0.8-6.1,3.6-9.2,8.4-9.2c2.5,0,4.5,0.8,6,2.5c1.5,1.7,2.3,4,2.3,7.1h17.4c0-7.3-2.3-13.1-6.8-17.4
	c-4.5-4.3-10.7-6.4-18.4-6.4c-5.7,0-10.7,1.2-14.8,3.7c-4.2,2.5-7.4,6-9.6,10.6c-2.2,4.6-3.3,9.9-3.3,15.9v0.8
	c0,9.6,2.5,17.1,7.5,22.5c5,5.4,11.8,8.1,20.5,8.1c7.4,0,13.4-2.1,18.1-6.3c4.7-4.2,7-9.5,7-16.1H385c0,2.5-0.7,4.5-2.1,5.9
	s-3.4,2.1-6.1,2.1C373.8,454.5,371.5,453.4,370.1,451.1 M287.9,408.2v59.5h18.5v-42c1.8-2.9,4.4-4.3,8.1-4.3c3.2,0,5.4,0.7,6.6,2.1
	c1.2,1.4,1.8,3.6,1.8,6.6v37.6h18.6v-38.3c-0.1-7.4-1.7-13-4.8-16.7c-3.1-3.7-7.7-5.6-13.9-5.6c-7.2,0-12.9,2.7-17,8.1l-0.6-7H287.9
	z M260.4,423.9c1.6,1.6,2.3,3.9,2.3,6.9v1.4h-18.7c1-7.2,4.3-10.8,9.7-10.8C256.5,421.4,258.8,422.2,260.4,423.9 M269.4,466
	c4.2-1.9,7.5-4.4,9.8-7.6l-8.5-10c-3.3,4.1-7.9,6.2-13.7,6.2c-3.6,0-6.5-1-8.7-2.9c-2.2-1.9-3.7-4.5-4.3-7.9h36.8v-7.2
	c0-9.3-2.4-16.5-7.3-21.7c-4.8-5.2-11.4-7.8-19.8-7.8c-5.9,0-11.1,1.3-15.4,3.8c-4.3,2.5-7.6,6.1-9.9,10.8c-2.3,4.7-3.4,10-3.4,16.1
	v1.5c0,8.7,2.8,15.8,8.5,21.3c5.6,5.4,13,8.2,22.2,8.2C260.6,468.8,265.1,467.9,269.4,466 M221.6,407.8c-1.5-0.4-3.2-0.7-5.2-0.7
	c-5.6,0-9.9,2.9-13,8.7l-0.6-7.6h-17.4v59.5h18.5v-37.7c1.7-3.7,5.4-5.5,11.2-5.5l6.1,0.4L221.6,407.8z M178.9,407.8
	c-1.5-0.4-3.2-0.7-5.2-0.7c-5.6,0-9.9,2.9-13,8.7l-0.6-7.6h-17.4v59.5h18.5v-37.7c1.7-3.7,5.4-5.5,11.2-5.5l6.1,0.4L178.9,407.8z
	 M115.1,467.7h17.4v-59.5h-18.6V450c-1.8,3-4.8,4.6-9.1,4.6c-4.9,0-7.4-2.5-7.4-7.6v-38.7H78.8v38.5c0,7.1,1.7,12.6,5,16.4
	c3.4,3.8,8.3,5.7,14.8,5.7c6.7,0,12-2.5,15.9-7.5L115.1,467.7z M51.6,440.6c-0.1,4.5-1.4,7.9-3.7,10c-2.3,2.1-5.7,3.1-10.2,3.1
	c-5.2,0-8.9-1.8-11.1-5.5s-3.2-9.8-3.2-18.3v-5.7c0.1-7.9,1.3-13.6,3.5-17.2c2.2-3.6,5.8-5.4,10.6-5.4c4.7,0,8.2,1.1,10.6,3.2
	c2.3,2.1,3.5,5.6,3.7,10.5H71c-0.8-9-4.2-16-10.1-21.1c-5.9-5.1-13.7-7.7-23.4-7.7c-6.7,0-12.7,1.6-17.8,4.8
	c-5.1,3.2-9.1,7.8-11.8,13.6c-2.7,5.9-4.1,12.8-4.1,20.6v4c0,12.5,3,22.2,9.1,29c6,6.9,14.3,10.3,24.9,10.3c6.4,0,12-1.2,17-3.5
	c5-2.3,8.8-5.7,11.6-9.9c2.7-4.3,4.3-9.2,4.5-14.8H51.6z"/>
<path d="M163.8,220.7v36.1c0,6.8-1.9,8.7-8.6,8.7h-28.7c29.2,21.3,64.6,41.7,107.4,59.9c13.6-10.7,20.2-28.3,20.2-53.1v-51.5H163.8z
	 M66.3,0C22.1,0,0,21.2,0,65.6l0,39C12.5,140,38.2,189.1,91.3,237v-68.1V81.1c0-6.8,1.9-8.7,8.6-8.7h55.2c6.7,0,8.6,1.9,8.6,8.7
	v36.1h90.3V65.6c0-44.4-21.1-65.6-65.3-65.6H66.3z"/>
<path d="M0,158.6h14.1c-4-7.3-7.5-14.3-10.6-21H0V158.6z M0,129.5v2.7h1.1C0.7,131.2,0.4,130.4,0,129.5 M17.1,164.1H0v4.9v16.2h17.5
	v-20.4C17.4,164.5,17.3,164.3,17.1,164.1 M17.5,270.1H0v2.1c0,6.9,0.6,13.1,1.7,18.9h15.9V270.1z M220.7,332.7
	c-4.1-1.8-8.2-3.5-12.1-5.4v8.8C212.9,335.3,216.9,334.1,220.7,332.7 M182,337.9h6.8c5.1,0,9.8-0.3,14.3-0.9v-12.3
	c-1.1-0.5-2.1-1.1-3.2-1.6H182V337.9z M182,317.6h6.7c-2.3-1.2-4.5-2.3-6.7-3.5V317.6z M102.5,291.1h21v-13c-3.7-2.7-7.5-5.3-11-8
	h-10V291.1z M123.5,296.6h-21v21h21V296.6z M129,291.1h13.7c-4.6-3-9.3-6-13.7-9.1V291.1z M150.1,296.6h-21v21h21V296.6z M76,317.6
	h21v-21H76V317.6z M76,291.1h21v-21H76V291.1z M76,264.6h18.9c-2.6-1.1-3.6-3.3-3.6-7.9v-4.3c-3.4-3-6.8-5.9-10-8.9H76V264.6z
	 M176.6,311.1c-7.3-4-14.3-8-21-12v18.5h21V311.1z M176.6,323.1h-21v14.8h21V323.1z M129,337.9h21v-14.8h-21V337.9z M102.5,337.9h21
	v-14.8h-21V337.9z M76,337.9h21v-14.8H76V337.9z M49.5,336.6c5.2,0.8,10.8,1.2,16.8,1.2h4.3v-14.8h-21V336.6z M70.5,270.1h-21v21h21
	V270.1z M49.5,264.6h21v-21h-21V264.6z M70.5,296.6h-21v21h21V296.6z M50.7,211.6c-0.4-0.5-0.8-1-1.3-1.4v1.4H50.7z M34.4,190.6H23
	v21h21v-8.3C40.6,199.1,37.4,194.8,34.4,190.6 M23,185.1h7.5c-2.6-3.8-5.1-7.6-7.5-11.3V185.1z M44,217.1H23v21h21V217.1z M44,243.6
	H23v21h21V243.6z M44,270.1H23v21h21V270.1z M44,296.6H23v21h21V296.6z M44,323.1H23v3.8c5.9,4,12.9,7,21,8.8V323.1z M2.8,296.6
	c2.1,8.3,5.5,15.3,10.1,21h4.6v-21H2.8z M0,243.6v21h17.5v-21H0z M0,217.1l0,21h17.5v-21H0z M0,190.6v21h17.5v-21H0z M70.5,233.3
	c-5.4-5.4-10.3-10.8-15-16.2h-6v21h21V233.3z"/>
</svg>
