<?xml version="1.0" encoding="utf-8"?>
<!-- Generator: Adobe Illustrator 26.0.2, SVG Export Plug-In . SVG Version: 6.00 Build 0)  -->
<svg version="1.1" id="Layer_1" xmlns="http://www.w3.org/2000/svg" xmlns:xlink="http://www.w3.org/1999/xlink" x="0px" y="0px"
	 viewBox="0 0 992 356.8" style="enable-background:new 0 0 992 356.8;" xml:space="preserve">
<style type="text/css">
	.st0{fill:#FFFFFF;}
</style>
<path class="st0" d="M588.7,338.5c-1.4-1.3-2.1-3-2.1-5.1c0-7.2,4-10.8,12-10.8h6.7v11.8c-0.8,1.5-2.2,2.9-4.1,4.2
	c-1.9,1.2-4.3,1.8-7.1,1.8C591.9,340.5,590.1,339.8,588.7,338.5 M631.4,355.5v-1.2c-2-3.6-3-8.8-3.1-15.5v-32.6
	c-0.1-8-2.9-14.3-8.4-18.9c-5.4-4.6-12.9-6.9-22.3-6.9c-9.4,0-17.1,2.2-23.2,6.7s-9.1,10.2-9.1,17.3h23c0-5.4,2.7-8.1,8.2-8.1
	c5.9,0,8.8,3.4,8.8,10.2v3.9h-7.1c-11.3,0-19.9,2-25.8,6.1c-5.9,4.1-8.9,10.1-8.9,18.1c0,6.4,2.4,11.6,7.3,15.8
	c4.9,4.2,10.8,6.3,17.7,6.3c7.6,0,13.5-2.7,17.7-8c0.6,2.9,1.4,5.1,2.2,6.6H631.4z M522.8,263.4v18.3h-9.4v15.9h9.4v36.6
	c0,7.6,1.9,13.2,5.7,17c3.8,3.7,9.6,5.6,17.5,5.6c4.5,0,8.8-0.7,12.9-2v-16.4c-1.5,0.3-3.5,0.4-5.7,0.4c-3,0-4.9-0.5-5.9-1.6
	c-1-1.1-1.5-3-1.5-5.8v-33.7h12.1v-15.9h-12.1v-18.3H522.8z M466.7,338.5c-1.4-1.3-2.1-3-2.1-5.1c0-7.2,4-10.8,12-10.8h6.7v11.8
	c-0.8,1.5-2.2,2.9-4.1,4.2c-1.9,1.2-4.3,1.8-7.1,1.8C469.9,340.5,468.1,339.8,466.7,338.5 M509.5,355.5v-1.2c-2-3.6-3-8.8-3.1-15.5
	v-32.6c-0.1-8-2.9-14.3-8.4-18.9c-5.5-4.6-12.9-6.9-22.3-6.9c-9.4,0-17.1,2.2-23.2,6.7c-6.1,4.4-9.1,10.2-9.1,17.3h23
	c0-5.4,2.7-8.1,8.2-8.1c5.9,0,8.8,3.4,8.8,10.2v3.9h-7.1c-11.3,0-19.9,2-25.8,6.1c-5.9,4.1-8.9,10.1-8.9,18.1
	c0,6.4,2.4,11.6,7.3,15.8c4.9,4.2,10.8,6.3,17.7,6.3c7.6,0,13.5-2.7,17.7-8c0.6,2.9,1.4,5.1,2.2,6.6H509.5z M387.8,274.7
	c7,0,12.4,2.4,16.1,7.3c3.7,4.9,5.5,12.1,5.5,21.7v4.3c0,9.6-1.8,16.9-5.5,21.8c-3.7,4.9-8.9,7.3-15.8,7.3h-8.3v-62.3H387.8z
	 M388.5,355.5c8.6,0,16.4-2.1,23.3-6.2c7-4.1,12.4-9.7,16.2-16.9c3.8-7.2,5.8-15.3,5.8-24.4v-4.6c0-9-2-17.1-6-24.4
	c-3.9-7.2-9.4-12.9-16.4-16.8c-7-4-14.9-6-23.6-6h-31.9v99.2H388.5z"/>
<path class="st0" d="M966.8,173.7c2,2,2.9,4.9,2.8,8.6v1.8h-23.2c1.3-8.9,5.3-13.4,12-13.4C962,170.7,964.8,171.7,966.8,173.7
	 M977.9,225.9c5.2-2.3,9.3-5.5,12.2-9.4l-10.5-12.4c-4.1,5.1-9.8,7.6-17,7.6c-4.4,0-8-1.2-10.8-3.5c-2.8-2.4-4.6-5.6-5.4-9.7H992
	v-8.9c0-11.5-3-20.4-9-26.9c-6-6.4-14.2-9.6-24.5-9.6c-7.4,0-13.7,1.6-19.1,4.7c-5.4,3.2-9.4,7.6-12.2,13.4
	c-2.8,5.8-4.2,12.4-4.2,20v1.9c0,10.8,3.5,19.6,10.5,26.3c7,6.7,16.1,10.1,27.5,10.1C967,229.4,972.7,228.2,977.9,225.9
	 M875.6,207.4c-1.8-2.9-2.7-8-2.7-15.4c0-4.2,0.2-7.5,0.5-9.9c1-7.6,4.5-11.4,10.4-11.4c3.1,0,5.6,1,7.5,3.1c1.9,2,2.8,5,2.8,8.8
	h21.5c0-9.1-2.8-16.3-8.4-21.6c-5.6-5.3-13.2-8-22.8-8c-7.1,0-13.2,1.5-18.4,4.6c-5.2,3.1-9.1,7.5-11.9,13.2
	c-2.7,5.7-4.1,12.3-4.1,19.7v1c0,11.9,3.1,21.2,9.3,27.9c6.2,6.7,14.6,10.1,25.3,10.1c9.1,0,16.6-2.6,22.4-7.8
	c5.8-5.2,8.7-11.8,8.7-19.9h-21.5c0,3.1-0.8,5.6-2.6,7.3c-1.8,1.8-4.3,2.6-7.5,2.6C880.1,211.7,877.3,210.3,875.6,207.4
	 M773.7,154.3V228h23v-52c2.2-3.5,5.5-5.3,10-5.3c4,0,6.7,0.9,8.2,2.6c1.5,1.8,2.3,4.5,2.3,8.2V228h23v-47.5
	c-0.1-9.2-2.1-16.1-5.9-20.7c-3.8-4.6-9.5-6.9-17.2-6.9c-8.9,0-16,3.3-21,10l-0.8-8.7H773.7z M739.6,173.7c2,2,2.9,4.9,2.8,8.6v1.8
	h-23.2c1.3-8.9,5.3-13.4,12-13.4C734.9,170.7,737.7,171.7,739.6,173.7 M750.8,225.9c5.2-2.3,9.3-5.5,12.2-9.4l-10.5-12.4
	c-4.1,5.1-9.8,7.6-17,7.6c-4.4,0-8-1.2-10.8-3.5c-2.8-2.4-4.6-5.6-5.4-9.7h45.6v-8.9c0-11.5-3-20.4-9-26.9c-6-6.4-14.2-9.6-24.5-9.6
	c-7.4,0-13.7,1.6-19.1,4.7c-5.4,3.2-9.4,7.6-12.2,13.4s-4.2,12.4-4.2,20v1.9c0,10.8,3.5,19.6,10.5,26.3c7,6.7,16.1,10.1,27.4,10.1
	C739.9,229.4,745.5,228.2,750.8,225.9 M691.6,153.8c-1.8-0.5-4-0.8-6.4-0.8c-6.9,0-12.3,3.6-16.1,10.8l-0.8-9.5h-21.5V228h23v-46.7
	c2-4.5,6.7-6.8,13.9-6.8l7.6,0.5L691.6,153.8z M612.1,173.7c2,2,2.9,4.9,2.8,8.6v1.8h-23.2c1.3-8.9,5.3-13.4,12-13.4
	C607.4,170.7,610.2,171.7,612.1,173.7 M623.3,225.9c5.2-2.3,9.3-5.5,12.2-9.4l-10.5-12.4c-4.1,5.1-9.8,7.6-17,7.6
	c-4.4,0-8-1.2-10.8-3.5c-2.8-2.4-4.6-5.6-5.4-9.7h45.6v-8.9c0-11.5-3-20.4-9-26.9c-6-6.4-14.2-9.6-24.5-9.6
	c-7.4,0-13.7,1.6-19.1,4.7c-5.4,3.2-9.4,7.6-12.2,13.4c-2.8,5.8-4.2,12.4-4.2,20v1.9c0,10.8,3.5,19.6,10.5,26.3
	c7,6.7,16.1,10.1,27.4,10.1C612.4,229.4,618,228.2,623.3,225.9 M549.8,228v-57.8h14.4v-15.9h-14.4v-5.7c0-6,3.5-9,10.4-9
	c2.4,0,4.3,0.2,5.7,0.6l-0.1-16.9c-3.9-1-7.5-1.4-10.8-1.4c-8.9,0-15.9,2.3-20.8,6.9c-4.9,4.6-7.4,11.1-7.4,19.5v5.9h-10.7v15.9
	h10.7V228H549.8z M487.2,173.7c2,2,2.9,4.9,2.8,8.6v1.8h-23.2c1.3-8.9,5.3-13.4,12-13.4C482.5,170.7,485.3,171.7,487.2,173.7
	 M498.4,225.9c5.2-2.3,9.3-5.5,12.2-9.4l-10.5-12.4c-4.1,5.1-9.8,7.6-17,7.6c-4.4,0-8-1.2-10.8-3.5c-2.8-2.4-4.6-5.6-5.4-9.7h45.6
	v-8.9c0-11.5-3-20.4-9-26.9c-6-6.4-14.2-9.6-24.5-9.6c-7.4,0-13.7,1.6-19.1,4.7c-5.4,3.2-9.4,7.6-12.2,13.4
	c-2.8,5.8-4.2,12.4-4.2,20v1.9c0,10.8,3.5,19.6,10.5,26.3c7,6.7,16.1,10.1,27.4,10.1C487.5,229.4,493.1,228.2,498.4,225.9
	 M379.7,147.2h15.1c4.5,0,7.9,1.2,10.2,3.7c2.3,2.4,3.5,5.8,3.5,10.1c0,4.3-1.1,7.6-3.4,10c-2.3,2.4-5.7,3.6-10.3,3.6h-15.1V147.2z
	 M410.2,228h25.6v-1l-20.7-40c5.9-2.8,10.3-6.5,13.1-11c2.8-4.5,4.2-10.3,4.2-17.1c0-9.5-3.3-16.9-10-22.1
	c-6.6-5.2-15.8-7.8-27.6-7.8h-39V228h23.9V193h12.9L410.2,228z"/>
<path class="st0" d="M874.4,26.9h-24.5l25.6,74.4l-1.8,4.9c-0.8,2.4-2.1,4.1-3.8,5c-1.7,0.9-4.2,1.4-7.4,1.4h-3V129
	c3.3,0.9,6.5,1.4,9.5,1.4c10.8,0,18.3-4.8,22.6-14.3l1.3-3.1l30-86h-24.6L886,68.5L874.4,26.9z M806.8,80c-1.8-2.9-2.7-8-2.7-15.4
	c0-4.2,0.2-7.5,0.5-9.9c1-7.6,4.5-11.4,10.4-11.4c3.1,0,5.6,1,7.5,3.1c1.9,2,2.8,5,2.8,8.8h21.5c0-9.1-2.8-16.3-8.5-21.6
	c-5.6-5.3-13.2-8-22.8-8c-7.1,0-13.2,1.5-18.4,4.6c-5.2,3.1-9.1,7.5-11.9,13.2c-2.7,5.7-4.1,12.3-4.1,19.7v1
	c0,11.9,3.1,21.2,9.3,27.9c6.2,6.7,14.6,10.1,25.3,10.1c9.1,0,16.6-2.6,22.4-7.8c5.8-5.2,8.7-11.8,8.7-19.9h-21.5
	c0,3.1-0.8,5.6-2.6,7.3c-1.8,1.8-4.3,2.6-7.5,2.6C811.4,84.3,808.6,82.8,806.8,80 M705,26.9v73.7h23v-52c2.2-3.5,5.5-5.3,10-5.3
	c4,0,6.7,0.9,8.2,2.6c1.5,1.8,2.2,4.5,2.2,8.2v46.5h23V53.1c-0.1-9.2-2.1-16.1-5.9-20.7c-3.8-4.6-9.5-6.9-17.2-6.9
	c-8.9,0-16,3.3-21.1,10l-0.8-8.7H705z M670.9,46.3c2,2,2.9,4.9,2.8,8.6v1.8h-23.2c1.3-8.9,5.3-13.4,12-13.4
	C666.2,43.3,669,44.3,670.9,46.3 M682,98.5c5.2-2.3,9.3-5.5,12.2-9.4l-10.5-12.4c-4.1,5.1-9.8,7.6-17,7.6c-4.4,0-8-1.2-10.8-3.5
	c-2.8-2.4-4.6-5.6-5.4-9.7h45.6v-8.9c0-11.5-3-20.4-9-26.9c-6-6.4-14.2-9.6-24.5-9.6c-7.4,0-13.7,1.6-19.1,4.7
	c-5.4,3.2-9.4,7.6-12.2,13.4c-2.8,5.8-4.2,12.4-4.2,20v1.9c0,10.8,3.5,19.6,10.5,26.3c7,6.7,16.1,10.1,27.5,10.1
	C671.2,102,676.8,100.8,682,98.5 M622.9,26.4c-1.8-0.5-4-0.8-6.4-0.8c-6.9,0-12.3,3.6-16.1,10.8l-0.7-9.5h-21.5v73.7h23V54
	c2-4.5,6.7-6.8,13.9-6.8l7.6,0.5L622.9,26.4z M570,26.4c-1.8-0.5-4-0.8-6.4-0.8c-6.9,0-12.3,3.6-16.1,10.8l-0.8-9.5h-21.5v73.7h23
	V54c2-4.5,6.7-6.8,13.9-6.8l7.6,0.5L570,26.4z M490.9,100.6h21.5V26.9h-23.1v51.7c-2.2,3.8-6,5.7-11.2,5.7c-6.1,0-9.2-3.2-9.2-9.5
	V26.9h-23v47.8c0,8.8,2.1,15.6,6.2,20.3c4.2,4.7,10.3,7,18.4,7c8.3,0,14.8-3.1,19.7-9.3L490.9,100.6z M412.3,67
	c-0.2,5.6-1.7,9.7-4.6,12.3c-2.9,2.6-7.1,3.9-12.6,3.9c-6.5,0-11.1-2.3-13.7-6.8c-2.7-4.5-4-12.1-4-22.7v-7
	c0.1-9.8,1.6-16.9,4.4-21.3c2.8-4.4,7.1-6.7,13.1-6.7c5.9,0,10.2,1.3,13.1,4c2.9,2.6,4.4,7,4.6,13h23.8c-1-11.1-5.2-19.9-12.5-26.2
	c-7.3-6.3-17-9.5-29-9.5c-8.4,0-15.7,2-22.1,6c-6.4,4-11.2,9.6-14.6,16.9c-3.4,7.3-5.1,15.8-5.1,25.5v4.9c0,15.5,3.7,27.5,11.2,36
	c7.5,8.5,17.8,12.7,30.8,12.7c7.9,0,14.9-1.5,21.1-4.4c6.2-2.9,10.9-7,14.3-12.3c3.4-5.3,5.3-11.4,5.6-18.3H412.3z"/>
<path class="st0" d="M173,233.1v38.1c0,7.1-2,9.2-9.1,9.2h-30.3c30.9,22.5,68.2,44,113.5,63.2c14.3-11.3,21.3-29.8,21.3-56.1v-54.4
	H173z M70,0C23.3,0,0,22.4,0,69.3v41.2c13.2,37.3,40.4,89.1,96.4,139.8v-71.9V85.6c0-7.1,2-9.2,9.1-9.2h58.3c7.1,0,9.1,2,9.1,9.2
	v38.1h95.4V69.3c0-46.9-22.3-69.3-69-69.3H70z"/>
<path class="st0" d="M0,167.5h14.9c-4.2-7.7-8-15.1-11.2-22.2H0V167.5z M0,136.7v2.8h1.1C0.7,138.6,0.4,137.7,0,136.7 M18.1,173.3H0
	v5.1v17.1h18.5V174C18.4,173.7,18.2,173.5,18.1,173.3 M18.5,285.2H0v2.3c0,7.3,0.6,13.9,1.8,20h16.8V285.2z M233,351.3
	c-4.3-1.9-8.7-3.7-12.8-5.7v9.3C224.8,354.1,229.1,352.9,233,351.3 M192.2,356.8h7.1c5.4,0,10.4-0.3,15.1-0.9v-13
	c-1.2-0.5-2.3-1.1-3.4-1.7h-18.8V356.8z M192.2,335.5h7.1c-2.4-1.2-4.7-2.5-7.1-3.7V335.5z M108.3,307.5h22.2v-13.8
	c-3.9-2.8-7.9-5.6-11.6-8.5h-10.6V307.5z M130.5,313.2h-22.2v22.2h22.2V313.2z M136.2,307.5h14.4c-4.9-3.2-9.8-6.3-14.4-9.6V307.5z
	 M158.5,313.2h-22.2v22.2h22.2V313.2z M80.3,335.5h22.2v-22.2H80.3V335.5z M80.3,307.5h22.2v-22.2H80.3V307.5z M80.3,279.5h20
	c-2.8-1.1-3.8-3.5-3.8-8.3v-4.5c-3.6-3.1-7.2-6.3-10.6-9.4h-5.5V279.5z M186.5,328.6c-7.7-4.2-15.1-8.4-22.2-12.7v19.6h22.2V328.6z
	 M186.5,341.2h-22.2v15.6h22.2V341.2z M136.2,356.8h22.2v-15.6h-22.2V356.8z M108.3,356.8h22.2v-15.6h-22.2V356.8z M80.3,356.8h22.2
	v-15.6H80.3V356.8z M52.3,355.5c5.5,0.8,11.4,1.3,17.7,1.3h4.5v-15.6H52.3V355.5z M74.5,285.2H52.3v22.2h22.2V285.2z M52.3,279.5
	h22.2v-22.2H52.3V279.5z M74.5,313.2H52.3v22.2h22.2V313.2z M53.6,223.5c-0.4-0.5-0.9-1-1.3-1.5v1.5H53.6z M36.3,201.3h-12v22.2
	h22.2v-8.7C42.9,210.2,39.5,205.7,36.3,201.3 M24.3,195.5h7.9c-2.8-4-5.4-8-7.9-12V195.5z M46.5,229.3H24.3v22.2h22.2V229.3z
	 M46.5,257.3H24.3v22.2h22.2V257.3z M46.5,285.2H24.3v22.2h22.2V285.2z M46.5,313.2H24.3v22.2h22.2V313.2z M46.5,341.2H24.3v4
	c6.2,4.3,13.6,7.4,22.2,9.3V341.2z M3,313.2c2.3,8.7,5.8,16.2,10.7,22.2h4.9v-22.2H3z M0,257.3v22.2h18.5v-22.2H0z M0,229.3l0,22.2
	h18.5v-22.2H0z M0,201.3v22.2h18.5v-22.2H0z M74.5,246.4c-5.7-5.7-10.9-11.4-15.9-17.1h-6.3v22.2h22.2V246.4z"/>
</svg>
