<?xml version="1.0" encoding="utf-8"?>
<!-- Generator: Adobe Illustrator 23.0.3, SVG Export Plug-In . SVG Version: 6.00 Build 0)  -->
<svg version="1.1" id="Layer_1" xmlns="http://www.w3.org/2000/svg" xmlns:xlink="http://www.w3.org/1999/xlink" x="0px" y="0px"
	 viewBox="0 0 612 792" style="enable-background:new 0 0 612 792;" xml:space="preserve">
<style type="text/css">
	.st0{fill:#DFE1DF;}
	.st1{fill:#0054A6;}
	.st2{fill:#5D93CD;}
</style>
<g>
	<path d="M528.73,614.35c21.96,0,35.46-13.64,35.46-32.22v-0.28c0-18.31-13.08-25.35-26.45-27.6l24.9-23.8v-16.31h-66.57v18.57
		h38.72l-23.51,23.66l3.38,13.8h9.01c12.11,0,19.29,4.51,19.29,12.53v0.28c0,7.32-5.77,11.97-13.94,11.97
		c-9.99,0-17.03-4.22-23.79-11.83l-14.92,14.22C498.75,607.32,511,614.35,528.73,614.35L528.73,614.35z"/>
	<path d="M47,663.93h25.67v-59.96h74.26v-23.35H72.67v-40.6h83.73v-23.35H47V663.93L47,663.93z M210.68,640.57V540.01h29.03
		c7.71,0,14.73,1.27,21.04,3.8c6.31,2.54,11.68,6.02,16.1,10.46c4.42,4.44,7.85,9.75,10.31,15.95c2.45,6.2,3.68,12.89,3.68,20.07
		v0.42c0,7.18-1.23,13.84-3.68,19.96c-2.45,6.13-5.89,11.41-10.31,15.85c-4.42,4.44-9.78,7.89-16.1,10.35
		c-6.31,2.47-13.33,3.69-21.04,3.69H210.68L210.68,640.57z M185.01,663.93h54.91c11.5,0,22.05-1.89,31.66-5.68
		c9.61-3.79,17.88-8.97,24.83-15.57c6.94-6.59,12.31-14.38,16.1-23.35c3.79-8.97,5.68-18.65,5.68-29.03v-0.42
		c0-10.38-1.89-20.02-5.68-28.93c-3.79-8.9-9.15-16.65-16.1-23.25c-6.94-6.59-15.22-11.75-24.83-15.46
		c-9.61-3.71-20.16-5.58-31.66-5.58h-54.91V663.93L185.01,663.93z M436.94,664.66c5.68-1.19,10.9-2.95,15.67-5.26
		c4.77-2.31,9.22-5.05,13.36-8.21c4.14-3.15,8.1-6.77,11.89-10.83l-16.62-16.83c-6.31,5.89-12.7,10.55-19.14,13.99
		c-6.45,3.44-14.17,5.15-23.14,5.15c-7.01,0-13.5-1.37-19.46-4.1c-5.96-2.73-11.12-6.48-15.46-11.25
		c-4.35-4.77-7.72-10.34-10.1-16.73c-2.39-6.38-3.58-13.15-3.58-20.3v-0.42c0-7.15,1.19-13.89,3.58-20.2
		c2.38-6.31,5.75-11.82,10.1-16.52c4.34-4.7,9.5-8.41,15.46-11.15c5.96-2.73,12.45-4.1,19.46-4.1c8.42,0,15.92,1.68,22.51,5.05
		c6.59,3.37,12.83,7.78,18.72,13.25l16.62-19.14c-3.51-3.37-7.23-6.45-11.15-9.26c-3.93-2.8-8.21-5.22-12.83-7.26
		c-4.63-2.03-9.71-3.61-15.25-4.73c-5.54-1.12-11.68-1.68-18.41-1.68c-11.22,0-21.46,2-30.72,6c-9.26,4-17.27,9.47-24.05,16.41
		c-6.78,6.94-12.04,15.01-15.78,24.19c-3.75,9.19-5.62,19.04-5.62,29.56v0.42c0,10.52,1.91,20.41,5.72,29.66
		c3.82,9.26,9.08,17.29,15.78,24.09c6.7,6.8,14.61,12.17,23.73,16.09c9.12,3.92,19.07,5.89,29.87,5.89
		C424.98,666.45,431.26,665.85,436.94,664.66L436.94,664.66z"/>
	<path class="st0" d="M283.51,456.7"/>
	<path class="st1" d="M338.43,375.49V216.25l-128.42,74.14c0.08,0.67,0.4,1.26,0.4,1.96c0,7.98-5.38,14.46-12.64,16.67V456.7
		L338.43,375.49L338.43,375.49z"/>
	<path class="st2" d="M206.49,281.72l126.63-73.11v-0.39L192.71,128L52.31,208.22v0.4l126.63,73.11c3.23-4.19,8.07-7.06,13.78-7.06
		C198.42,274.66,203.26,277.53,206.49,281.72L206.49,281.72z"/>
	<path d="M175.42,290.4L47,216.25v159.23l140.66,81.21V309.02c-7.26-2.21-12.64-8.69-12.64-16.67
		C175.02,291.65,175.34,291.07,175.42,290.4L175.42,290.4z"/>
</g>
</svg>
