<?xml version="1.0" encoding="utf-8"?>
<!-- Generator: Adobe Illustrator 27.0.0, SVG Export Plug-In . SVG Version: 6.00 Build 0)  -->
<svg version="1.1" id="Layer_1" xmlns="http://www.w3.org/2000/svg" xmlns:xlink="http://www.w3.org/1999/xlink" x="0px" y="0px"
	 viewBox="0 0 720 138.3" style="enable-background:new 0 0 720 138.3;" xml:space="preserve">
<style type="text/css">
	.st0{fill:#FFFFFF;}
	.st1{opacity:0.6;fill:#FFFFFF;}
</style>
<path class="st0" d="M696.3,109.3H720v-6.6h-16.5V76.2h-7.3L696.3,109.3L696.3,109.3z M664,109.3h25.1v-6.5h-17.9v-6.9h15.6v-6.5
	h-15.6v-6.7h17.7v-6.5H664V109.3z M626.4,109.3h12.9c2.6,0,4.9-0.4,7.1-1.3c2.2-0.8,4-2,5.6-3.5s2.8-3.2,3.6-5.2s1.3-4.2,1.3-6.5
	v-0.1c0-2.3-0.4-4.5-1.3-6.5c-0.8-2-2.1-3.7-3.6-5.2c-1.6-1.5-3.4-2.6-5.6-3.5c-2.2-0.8-4.5-1.3-7.1-1.3h-12.9V109.3z M633.7,102.7
	V82.8h5.6c1.5,0,2.8,0.2,4.1,0.7c1.2,0.5,2.3,1.2,3.1,2.1c0.9,0.9,1.5,1.9,2,3.2c0.5,1.2,0.7,2.6,0.7,4v0.1c0,1.5-0.2,2.8-0.7,4
	s-1.2,2.2-2,3.1c-0.9,0.9-1.9,1.6-3.1,2c-1.2,0.5-2.6,0.7-4.1,0.7C639.3,102.7,633.7,102.7,633.7,102.7z M608.7,108.5
	c2.2-0.9,4-2.1,5.6-3.7s2.8-3.4,3.7-5.4c0.9-2.1,1.3-4.3,1.3-6.6v-0.1c0-2.4-0.4-4.6-1.3-6.6c-0.9-2.1-2.1-3.9-3.6-5.4
	c-1.6-1.5-3.4-2.7-5.5-3.6s-4.5-1.3-7-1.3s-4.9,0.4-7.1,1.3c-2.2,0.9-4,2.1-5.6,3.7s-2.8,3.4-3.7,5.4c-0.9,2.1-1.3,4.3-1.3,6.6v0.1
	c0,2.4,0.4,4.6,1.3,6.6c0.9,2.1,2.1,3.9,3.6,5.4c1.6,1.5,3.4,2.7,5.5,3.6s4.5,1.3,7,1.3C604.2,109.8,606.6,109.4,608.7,108.5
	 M597.8,102.3c-1.2-0.5-2.3-1.3-3.2-2.2c-0.9-0.9-1.6-2-2.1-3.3s-0.7-2.6-0.7-4v-0.1c0-1.4,0.2-2.7,0.7-4c0.5-1.2,1.2-2.3,2-3.3
	c0.9-0.9,1.9-1.7,3.1-2.2c1.2-0.5,2.6-0.8,4-0.8s2.8,0.3,4,0.8c1.2,0.6,2.3,1.3,3.2,2.2s1.6,2,2.1,3.3s0.7,2.6,0.7,4v0.1
	c0,1.4-0.2,2.7-0.7,4c-0.5,1.2-1.2,2.3-2,3.3s-1.9,1.7-3.1,2.2c-1.2,0.5-2.6,0.8-4,0.8C600.3,103.1,599,102.9,597.8,102.3
	 M544,109.3h7.2V87.8l9.2,14h0.2l9.3-14.1v21.6h7.2v-33h-7.8l-8.7,14l-8.7-14H544V109.3z M504.7,109.3h7.3V96.1l12.7-19.9h-8.3
	l-8,13.3l-7.9-13.3H492l12.7,20V109.3z M471.9,109.3h7.3V82.9h10.1v-6.7h-27.4v6.7H472v26.4H471.9z M448,109.3h7.3v-33H448V109.3z
	 M412.9,109.3h7.3V98.7h5.6h0.1l7.1,10.6h8.5l-8.1-11.8c2.1-0.8,3.8-2,5.1-3.7c1.3-1.7,2-3.9,2-6.5v-0.1c0-3.1-0.9-5.7-2.8-7.6
	c-2.2-2.2-5.4-3.4-9.6-3.4H413v33.1C413,109.3,412.9,109.3,412.9,109.3z M420.2,92.3v-9.5h7.2c1.8,0,3.2,0.4,4.2,1.2
	c1,0.8,1.5,2,1.5,3.5v0.1c0,1.4-0.5,2.5-1.4,3.4c-1,0.8-2.3,1.3-4.1,1.3H420.2z M396.3,108.9c1.8-0.6,3.3-1.5,4.6-2.8
	c1.3-1.2,2.2-2.8,2.9-4.6c0.7-1.9,1-4,1-6.6V76.2h-7.3v18.9c0,2.6-0.6,4.6-1.9,5.9s-3,2-5.2,2s-4-0.7-5.2-2.1
	c-1.3-1.4-1.9-3.4-1.9-6.1V76.2H376v18.9c0,4.9,1.3,8.5,3.8,11s6,3.7,10.5,3.7C392.5,109.8,394.5,109.5,396.3,108.9 M353,109.3h7.3
	V82.9h10.1v-6.7H343v6.7h10V109.3z M304.5,109.3h7.4l3-7.4h14l3,7.4h7.6L325.4,76h-6.7L304.5,109.3z M317.6,95.4l4.4-10.7l4.4,10.7
	H317.6z M265.7,109.3h7.2V87.8l9.2,14h0.2l9.3-14.1v21.6h7.2v-33H291l-8.7,14l-8.7-14h-7.8L265.7,109.3L265.7,109.3z"/>
<path class="st0" d="M601.3,62.1h25.1v-6.5h-17.9v-6.9h15.6v-6.5h-15.6v-6.7h17.7V29h-24.9L601.3,62.1L601.3,62.1z M585.6,62.2
	c1.3-0.3,2.5-0.7,3.6-1.2s2.1-1.1,3-1.9c0.9-0.7,1.8-1.5,2.6-2.5l-4.6-4.7c-1.3,1.2-2.6,2.1-3.9,2.8c-1.3,0.7-2.9,1-4.8,1
	c-1.4,0-2.7-0.3-3.9-0.8c-1.2-0.6-2.2-1.3-3-2.2s-1.5-2-2-3.3s-0.7-2.6-0.7-4v-0.1c0-1.4,0.2-2.7,0.7-4c0.5-1.2,1.1-2.3,2-3.3
	c0.8-0.9,1.9-1.7,3-2.2c1.2-0.5,2.5-0.8,3.8-0.8c1.7,0,3.2,0.3,4.5,1s2.7,1.6,3.9,2.7l4.6-5.3c-0.8-0.8-1.6-1.4-2.5-2.1
	c-0.9-0.6-1.8-1.2-2.9-1.6c-1-0.4-2.2-0.8-3.5-1c-1.3-0.3-2.7-0.4-4.2-0.4c-2.5,0-4.9,0.4-7,1.3s-3.9,2.1-5.4,3.7s-2.7,3.4-3.5,5.4
	c-0.8,2.1-1.3,4.3-1.3,6.6v0.1c0,2.4,0.4,4.6,1.3,6.7c0.9,2.1,2,3.9,3.5,5.4s3.3,2.7,5.4,3.6c2.1,0.9,4.3,1.3,6.7,1.3
	C582.9,62.6,584.4,62.5,585.6,62.2 M531,62.1h7.3V51.5h5.6h0.1l7.1,10.6h8.5l-8.1-11.8c2.1-0.8,3.8-2,5.1-3.7s2-3.9,2-6.5V40
	c0-3.1-0.9-5.7-2.8-7.6c-2.2-2.2-5.4-3.3-9.6-3.3H531V62.1z M538.3,45.1v-9.5h7.2c1.8,0,3.2,0.4,4.2,1.2s1.5,2,1.5,3.5v0.1
	c0,1.4-0.5,2.5-1.4,3.4c-1,0.8-2.3,1.3-4.1,1.3H538.3z M514.5,61.7c1.8-0.6,3.3-1.5,4.6-2.8c1.3-1.2,2.2-2.8,2.9-4.6
	c0.7-1.9,1-4,1-6.6V29h-7.3v19c0,2.6-0.6,4.6-1.9,5.9c-1.3,1.3-3,2-5.2,2s-4-0.7-5.2-2.1c-1.3-1.4-1.9-3.4-1.9-6.1V29h-7.3v18.9
	c0,4.9,1.3,8.5,3.8,11s6,3.7,10.5,3.7C510.7,62.6,512.7,62.3,514.5,61.7 M477,61.3c2.2-0.9,4-2.1,5.6-3.7c1.6-1.6,2.8-3.4,3.7-5.4
	c0.9-2.1,1.3-4.3,1.3-6.6v-0.1c0-2.4-0.4-4.6-1.3-6.6c-0.9-2.1-2.1-3.9-3.6-5.4s-3.4-2.7-5.5-3.6s-4.5-1.3-7-1.3s-4.9,0.4-7.1,1.3
	s-4,2.1-5.6,3.7s-2.8,3.4-3.7,5.4c-0.9,2.1-1.3,4.3-1.3,6.6v0.1c0,2.4,0.4,4.6,1.3,6.6c0.9,2.1,2.1,3.9,3.6,5.4
	c1.6,1.5,3.4,2.7,5.5,3.6c2.1,0.9,4.5,1.3,7,1.3C472.5,62.6,474.9,62.2,477,61.3 M466,55.1c-1.2-0.6-2.3-1.3-3.2-2.2
	c-0.9-0.9-1.6-2-2.1-3.3s-0.7-2.6-0.7-4v-0.1c0-1.4,0.2-2.7,0.7-4c0.5-1.2,1.2-2.3,2-3.3c0.9-0.9,1.9-1.7,3.1-2.2s2.6-0.8,4-0.8
	s2.8,0.3,4,0.8c1.2,0.6,2.3,1.3,3.2,2.2c0.9,0.9,1.6,2,2.1,3.3s0.7,2.6,0.7,4v0.1c0,1.4-0.2,2.7-0.7,4c-0.5,1.2-1.2,2.3-2,3.3
	c-0.9,0.9-1.9,1.7-3.1,2.2s-2.6,0.8-4,0.8C468.6,55.9,467.3,55.7,466,55.1 M439.8,61.9c1.5-0.5,2.7-1.1,3.8-2
	c1.1-0.9,1.9-1.9,2.5-3.2s0.9-2.7,0.9-4.4v-0.1c0-1.4-0.2-2.7-0.7-3.7s-1.1-1.9-2-2.7s-2-1.4-3.3-2s-2.8-1-4.5-1.5
	c-1.4-0.4-2.6-0.7-3.5-1s-1.7-0.6-2.2-0.9c-0.5-0.3-0.9-0.7-1.1-1.1c-0.2-0.4-0.3-0.9-0.3-1.4v-0.1c0-0.8,0.4-1.5,1.1-2.1
	c0.7-0.5,1.8-0.8,3.2-0.8c1.4,0,2.8,0.3,4.2,0.9c1.4,0.6,2.9,1.4,4.3,2.4l3.8-5.5c-1.7-1.4-3.6-2.4-5.6-3.1s-4.3-1.1-6.7-1.1
	c-1.7,0-3.3,0.2-4.7,0.7c-1.4,0.5-2.6,1.1-3.6,2c-1,0.9-1.8,1.9-2.4,3.1c-0.6,1.2-0.8,2.6-0.8,4.1v0.1c0,1.6,0.3,3,0.8,4.1
	s1.3,2,2.2,2.8c0.9,0.7,2.1,1.4,3.5,1.9s2.9,1,4.5,1.4c1.4,0.3,2.5,0.7,3.4,1s1.5,0.6,2,0.9c0.5,0.3,0.8,0.7,1,1
	c0.2,0.4,0.3,0.8,0.3,1.3V53c0,1-0.4,1.7-1.3,2.3c-0.8,0.6-2,0.8-3.5,0.8c-1.9,0-3.6-0.4-5.2-1.1c-1.6-0.7-3.1-1.7-4.6-2.9l-4.3,5.1
	c2,1.8,4.2,3.1,6.6,4s4.9,1.3,7.4,1.3C436.7,62.5,438.3,62.3,439.8,61.9 M371,62.1h7.2v-21l16,21h6.2V29h-7.2v20.3L377.7,29H371
	V62.1z M338.7,62.1h25.1v-6.5h-17.9v-6.9h15.6v-6.5h-15.6v-6.7h17.7V29h-24.9L338.7,62.1L338.7,62.1z M306.5,62.1h7.3v-9.9h5.5
	c1.9,0,3.6-0.2,5.2-0.7s3-1.2,4.2-2.2s2.2-2.2,2.9-3.6c0.7-1.4,1-3.1,1-5v-0.1c0-1.7-0.3-3.2-0.9-4.6c-0.6-1.4-1.4-2.6-2.5-3.6
	s-2.4-1.8-4-2.3c-1.6-0.6-3.3-0.8-5.3-0.8h-13.5L306.5,62.1L306.5,62.1z M313.8,45.7V35.6h5.6c1.8,0,3.3,0.4,4.3,1.3
	c1.1,0.8,1.6,2.1,1.6,3.7v0.1c0,1.4-0.5,2.6-1.5,3.6s-2.4,1.4-4.2,1.4C319.6,45.7,313.8,45.7,313.8,45.7z M288.8,61.3
	c2.2-0.9,4-2.1,5.6-3.7c1.6-1.6,2.8-3.4,3.7-5.4c0.9-2.1,1.3-4.3,1.3-6.6v-0.1c0-2.4-0.4-4.6-1.3-6.6c-0.9-2.1-2.1-3.9-3.6-5.4
	c-1.6-1.5-3.4-2.7-5.5-3.6s-4.5-1.3-7-1.3s-4.9,0.4-7.1,1.3s-4,2.1-5.6,3.7s-2.8,3.4-3.7,5.4c-0.9,2.1-1.3,4.3-1.3,6.6v0.1
	c0,2.4,0.4,4.6,1.3,6.6c0.9,2.1,2.1,3.9,3.6,5.4c1.6,1.5,3.4,2.7,5.5,3.6c2.1,0.9,4.5,1.3,7,1.3C284.3,62.6,286.7,62.2,288.8,61.3
	 M277.8,55.1c-1.2-0.6-2.3-1.3-3.2-2.2c-0.9-0.9-1.6-2-2.1-3.3s-0.7-2.6-0.7-4v-0.1c0-1.4,0.2-2.7,0.7-4c0.5-1.2,1.2-2.3,2-3.3
	c0.9-0.9,1.9-1.7,3.1-2.2s2.6-0.8,4-0.8s2.8,0.3,4,0.8c1.2,0.6,2.3,1.3,3.2,2.2c0.9,0.9,1.6,2,2.1,3.3s0.7,2.6,0.7,4v0.1
	c0,1.4-0.2,2.7-0.7,4c-0.5,1.2-1.2,2.3-2,3.3c-0.9,0.9-1.9,1.7-3.1,2.2s-2.6,0.8-4,0.8C280.4,55.9,279.1,55.7,277.8,55.1"/>
<polygon class="st0" points="60.7,18.4 0,37.9 0,62 60.8,42.5 60.8,18.4 "/>
<polygon class="st0" points="0,77.2 0,119.9 23.6,119.9 23.6,93.7 60.8,81.8 60.8,57.7 "/>
<path class="st1" d="M60.8,57.6C60.8,57.6,60.7,57.6,60.8,57.6C60.8,57.5,60.7,57.5,60.8,57.6L37.3,50L0,62v0.1v0.1l0,0l23.4,7.5
	l37.3-11.9L60.8,57.6z"/>
<path class="st0" d="M197.3,68.6V18.4h-17.6v69.3c2.1-1.4,4.2-2.9,6.3-4.5l3.1-2.3l-7.6-8.4L197.3,68.6z"/>
<path class="st0" d="M175.8,90.4V38.1h-17.6v62.6C163.6,97.9,169.5,94.5,175.8,90.4"/>
<path class="st0" d="M154.2,102.5V57.8h-17.6v49.8c2.8-0.2,6.1-0.8,9.8-2C148.9,104.8,151.5,103.7,154.2,102.5"/>
<path class="st0" d="M187.7,74.4l6.4,7l-6.1,4.5c-59.5,43.7-80.9,25.1-51.8-16.1c-36.8,32-16.3,82.4,66.9,21.5l6.5,7.2L221.2,66
	L187.7,74.4z"/>
<rect x="89.2" class="st0" width="0.9" height="138.3"/>
</svg>
