<?xml version="1.0" encoding="UTF-8"?>
<svg id="Layer_1" xmlns="http://www.w3.org/2000/svg" version="1.1" viewBox="0 0 719.9999 154.159">
  <!-- Generator: Adobe Illustrator 29.4.0, SVG Export Plug-In . SVG Version: 2.1.0 Build 152)  -->
  <defs>
    <style>
      .st0 {
        fill: #fff;
      }
    </style>
  </defs>
  <path class="st0" d="M20.6023,153.622v-25.081h23.4687v-11.914h-23.4687v-13.705h28.4849v-12.899H5.9119v63.599h14.6904ZM71.5689,153.622v-20.513h9.585l12.182,20.513h16.572l-13.974-23.648c1.612-.896,3.059-1.985,4.344-3.27,1.284-1.283,2.374-2.732,3.27-4.344.896-1.612,1.581-3.328,2.06-5.151.477-1.821.717-3.717.717-5.688,0-2.627-.524-5.224-1.568-7.793-1.045-2.567-2.494-4.866-4.344-6.897-1.852-2.03-4.047-3.673-6.584-4.927-2.539-1.254-5.3-1.881-8.286-1.881h-28.664v63.599h14.69ZM71.5689,102.922h12.989c1.671,0,3.225.777,4.658,2.329,1.433,1.554,2.15,3.643,2.15,6.27,0,2.569-.627,4.674-1.882,6.315-1.254,1.643-2.747,2.464-4.478,2.464h-13.437v-17.378h0ZM109.9979,153.622h15.049l4.837-14.243h19.796l4.927,14.243h15.048l-23.2-63.599h-13.257l-23.2,63.599h0ZM132.2129,129.257l7.614-22.483,7.435,22.483h-15.049ZM240.7779,153.622v-63.599h-15.855l-16.571,33.233-16.482-33.233h-15.944v63.599h14.69v-38.07l13.794,27.679h7.883l13.795-27.679v38.07h14.69ZM267.6489,140.723v-13.526h25.081v-11.914h-25.081v-12.361h29.202v-12.899h-43.892v63.599h44.698v-12.899h-30.008ZM384.3659,89.934l-12.182,41.473-13.258-41.384h-16.034l-12.988,41.474-12.272-41.474h-16.661l19.796,63.599h15.228l14.959-39.593,15.138,39.503h15.228l19.796-63.598h-16.75ZM446.9789,151.472c3.881-1.792,7.225-4.165,10.032-7.121,2.806-2.956,5.001-6.374,6.584-10.257,1.582-3.881,2.374-7.912,2.374-12.092,0-4.001-.7479-7.942-2.24-11.824-1.493-3.881-3.613-7.346-6.359-10.391-2.748-3.046-6.062-5.494-9.943-7.345-3.883-1.851-8.182-2.777-12.899-2.777-4.599,0-8.839.882-12.72,2.642-3.882,1.762-7.241,4.121-10.0771,7.077-2.8369,2.956-5.047,6.375-6.629,10.256-1.583,3.883-2.373,7.914-2.373,12.093,0,4.12.761,8.122,2.284,12.003,1.523,3.882,3.657,7.331,6.404,10.346,2.746,3.016,6.061,5.45,9.943,7.3,3.881,1.852,8.181,2.777,12.899,2.777,4.598,0,8.837-.896,12.72-2.687h0ZM418.7179,114.88c.686-2.298,1.731-4.344,3.135-6.136,1.402-1.791,3.135-3.238,5.195-4.344,2.061-1.104,4.493-1.657,7.301-1.657,2.687,0,5.061.523,7.121,1.567,2.06,1.046,3.807,2.45,5.24,4.211,1.433,1.762,2.508,3.792,3.225,6.091.716,2.299,1.075,4.673,1.075,7.121,0,2.389-.345,4.733-1.03,7.032-.688,2.299-1.718,4.359-3.091,6.18-1.374,1.823-3.106,3.301-5.195,4.434-2.091,1.135-4.539,1.702-7.345,1.702-2.688,0-5.077-.537-7.166-1.612-2.091-1.075-3.838-2.508-5.2401-4.3-1.404-1.791-2.464-3.836-3.18-6.136-.717-2.298-1.075-4.672-1.075-7.121,0-2.388.343-4.732,1.03-7.032h0ZM489.1679,153.622v-20.513h9.585l12.1819,20.513h16.572l-13.9739-23.648c1.6119-.896,3.059-1.985,4.3439-3.27,1.2841-1.283,2.374-2.732,3.27-4.344.895-1.612,1.5811-3.328,2.0601-5.151.477-1.821.7159-3.717.7159-5.688,0-2.627-.5229-5.224-1.5669-7.793-1.046-2.567-2.4941-4.866-4.3441-6.897-1.852-2.03-4.047-3.673-6.584-4.927-2.539-1.254-5.3009-1.881-8.2859-1.881h-28.6641v63.599h14.6901ZM489.1679,102.922h12.989c1.671,0,3.224.777,4.658,2.329,1.433,1.554,2.149,3.643,2.149,6.27,0,2.569-.627,4.674-1.881,6.315-1.254,1.643-2.747,2.464-4.478,2.464h-13.437v-17.378h0ZM549.1839,153.622v-18.722l6.628-6.897,18.005,25.619h16.75l-25.439-35.203,23.827-28.396h-16.4821l-23.289,27.41v-27.41h-14.691v63.599h14.691Z"/>
  <path class="st0" d="M0,64.046h15.0486l4.8371-14.2421h19.7961l4.9267,14.2421h15.0486L36.4571.4479h-13.2571L0,64.046h0ZM22.2146,39.6819l7.6139-22.4834,7.4348,22.4834h-15.0487ZM80.6179,64.046V.4479h-14.691v63.5981h14.691ZM153.1709,62.2101c3.463-1.5228,6.434-3.583,8.913-6.1807,2.477-2.5977,4.403-5.6279,5.778-9.0919,1.373-3.4627,2.06-7.1058,2.06-10.9282v-6.539h-27.948v12.8989h12.004c-.419,1.1952-1.046,2.3289-1.882,3.4038-.837,1.0749-1.851,2.0309-3.045,2.8664-1.195.837-2.539,1.5088-4.031,2.0155-1.493.508-3.076.7614-4.747.7614-2.629,0-4.913-.5823-6.853-1.7468-1.941-1.1644-3.538-2.6718-4.792-4.5235-1.254-1.8503-2.181-3.9105-2.777-6.1807-.598-2.2688-.896-4.5082-.896-6.7182,0-2.3877.328-4.732.985-7.0316.657-2.2982,1.627-4.3444,2.912-6.1359,1.283-1.7915,2.895-3.2387,4.837-4.3444,1.94-1.1043,4.165-1.6572,6.673-1.6572,2.03,0,3.821.3737,5.375,1.1197,1.552.7474,2.866,1.6124,3.941,2.5977,1.075.9853,1.955,2.0015,2.642,3.0456.686,1.0455,1.21,1.867,1.568,2.4633l11.645-9.1367c-2.45-4.1792-5.748-7.4193-9.898-9.7189-4.152-2.2982-8.973-3.4487-14.467-3.4487-4.837,0-9.181.8958-13.033,2.6873-3.852,1.7915-7.121,4.1652-9.808,7.1212-2.688,2.956-4.748,6.3459-6.181,10.1668-1.433,3.8224-2.15,7.7637-2.15,11.824,0,4.2408.775,8.3305,2.329,12.2718,1.552,3.9413,3.731,7.4207,6.539,10.4355,2.806,3.0162,6.15,5.4347,10.032,7.2556,3.882,1.8223,8.152,2.7318,12.81,2.7318,4.179,0,8.001-.7611,11.465-2.2839h0ZM218.4709,61.8966c3.881-1.7915,7.225-4.1653,10.033-7.1213,2.806-2.956,5.001-6.3738,6.584-10.2563,1.581-3.8812,2.373-7.9121,2.373-12.0927,0-4.0001-.747-7.9414-2.239-11.8239-1.493-3.8812-3.614-7.3452-6.36-10.3908-2.747-3.0455-6.062-5.4935-9.943-7.3452-3.882-1.8502-8.182-2.7768-12.899-2.7768-4.599,0-8.838.8818-12.719,2.6425-3.883,1.7621-7.242,4.1204-10.078,7.0764-2.837,2.956-5.047,6.3753-6.628,10.2564-1.583,3.8825-2.374,7.9134-2.374,12.0927,0,4.1204.762,8.1219,2.284,12.0031,1.523,3.8825,3.657,7.3311,6.405,10.3459,2.746,3.0162,6.06,5.4501,9.943,7.3004,3.881,1.8517,8.181,2.777,12.899,2.777,4.597,0,8.837-.8959,12.719-2.6874h0ZM190.2099,25.3051c.686-2.2982,1.732-4.3444,3.135-6.1359,1.403-1.7916,3.136-3.2388,5.196-4.3445,2.06-1.1042,4.493-1.6571,7.3-1.6571,2.687,0,5.061.5235,7.121,1.5676,2.061,1.0455,3.807,2.4493,5.241,4.21,1.433,1.7621,2.508,3.793,3.224,6.0911.717,2.2996,1.075,4.6733,1.075,7.1213,0,2.3891-.344,4.7335-1.03,7.0316-.687,2.2996-1.7169,4.3598-3.09,6.1807-1.375,1.8223-3.106,3.3003-5.196,4.434-2.091,1.1351-4.539,1.7019-7.345,1.7019-2.687,0-5.076-.5374-7.166-1.6123-2.091-1.0749-3.838-2.5081-5.24-4.2996-1.404-1.7915-2.463-3.8364-3.18-6.136-.716-2.2981-1.075-4.6719-1.075-7.1212,0-2.3877.343-4.7321,1.03-7.0316h0ZM237.2829.4479l24.364,63.5981h12.362L298.1049.4479h-15.497l-14.78,45.146L252.8689.4479h-15.586ZM318.7059,51.1475v-13.5258h25.082v-11.9136h-25.082v-12.3613h29.202V.4479h-43.892v63.5981h44.698v-12.8985h-30.008ZM372.3619,64.046v-20.5124h9.585l12.182,20.5124h16.571l-13.9731-23.6475c1.612-.8958,3.0591-1.9847,4.3441-3.2695,1.283-1.2834,2.374-2.7321,3.269-4.3444.896-1.6124,1.582-3.3283,2.061-5.1506.477-1.8209.716-3.7174.716-5.688,0-2.6271-.523-5.2248-1.567-7.7931-1.046-2.5669-2.494-4.8664-4.345-6.8973-1.851-2.0294-4.046-3.6726-6.584-4.9266-2.538-1.2541-5.3-1.8811-8.285-1.8811h-28.664v63.5981h14.69ZM372.3619,13.3468h12.988c1.672,0,3.225.7767,4.658,2.3289,1.434,1.5536,2.15,3.6432,2.15,6.2703,0,2.5683-.627,4.6733-1.881,6.315-1.254,1.6432-2.747,2.4634-4.479,2.4634h-13.436V13.3468h0ZM461.6679,64.046h11.824V.4479h-14.69v37.3529L429.1529.4479h-11.466v63.5981h14.69V27.6788l29.291,36.3672h0ZM479.7609,64.046h15.049l4.837-14.2421h19.796l4.9271,14.2421h15.049L516.2189.4479h-13.257l-23.201,63.5981h0ZM501.9759,39.6819l7.6141-22.4834,7.4349,22.4834h-15.049ZM589.67,64.046h11.824V.4479h-14.6901v37.3529L557.1539.4479h-11.465v63.5981h14.69V27.6788l29.291,36.3672h0ZM612.2869,43.7128c1.523,3.9413,3.673,7.4655,6.449,10.5699,2.777,3.1057,6.091,5.5984,9.9431,7.4795,3.8519,1.8811,8.0759,2.8218,12.6749,2.8218,2.6271,0,5.314-.329,8.062-.9855,2.746-.6564,5.344-1.6124,7.793-2.8664,2.448-1.2541,4.613-2.8062,6.494-4.6579,1.881-1.8503,3.2991-3.9413,4.255-6.2703l-12.003-7.0764c-.658,1.6123-1.523,2.9713-2.598,4.0756-1.0751,1.1057-2.2551,2.0015-3.5381,2.6873-1.285.6872-2.6289,1.1953-4.0309,1.5228-1.4041.3289-2.7631.4926-4.076.4926-2.568,0-4.882-.522-6.942-1.5675-2.0599-1.0441-3.822-2.4634-5.285-4.2549-1.464-1.7915-2.583-3.8517-3.359-6.1807-.777-2.3289-1.164-4.7474-1.164-7.2556,0-2.3289.3271-4.6271.985-6.8973.657-2.2687,1.671-4.2996,3.046-6.0911,1.373-1.7915,3.104-3.2541,5.195-4.3892,2.09-1.1337,4.5381-1.7019,7.3451-1.7019,1.3129,0,2.657.1344,4.031.4031,1.3729.2687,2.7169.7474,4.0309,1.4332,1.3131.6872,2.522,1.583,3.6281,2.6873,1.104,1.1057,2.015,2.4941,2.732,4.1652l11.2861-7.8826c-2.149-4.1205-5.4191-7.4642-9.8081-10.0325-4.3889-2.5668-9.571-3.8517-15.5409-3.8517-5.0171,0-9.4951.9266-13.437,2.7768-3.9411,1.8517-7.286,4.2703-10.0321,7.2556-2.748,2.9868-4.837,6.3753-6.271,10.1668-1.433,3.793-2.149,7.5999-2.149,11.4209,0,4.0617.761,8.0618,2.284,12.0031h0ZM689.9919,51.1475v-13.5258h25.081v-11.9136h-25.081v-12.3613h29.202V.4479h-43.892v63.5981h44.698v-12.8985h-30.008Z"/>
</svg>