<?xml version="1.0" encoding="utf-8"?>
<!-- Generator: Adobe Illustrator 25.0.0, SVG Export Plug-In . SVG Version: 6.00 Build 0)  -->
<svg version="1.1" id="Layer_1" xmlns="http://www.w3.org/2000/svg" xmlns:xlink="http://www.w3.org/1999/xlink" x="0px" y="0px"
	 viewBox="0 0 540 540" style="enable-background:new 0 0 540 540;" xml:space="preserve">
<style type="text/css">
	.st0{fill:#47AF67;}
	.st1{fill:#1C5E35;}
</style>
<g>
	<path class="st0" d="M540,270C540,120.9,419.1,0,270,0c-0.9,0-1.8,0.1-2.7,0.1l89.1,138.6h-47.9c0.5,38.1,4.2,49.4,32,72.5
		c68.9,58.2,70.9,153.3-0.3,210.5c-23.1-19.8-49.8-36.1-70.6-52.5c20.4-16.1,35.2-32.4,35.3-52.3c-0.1-16.8-10.5-31-26-44.8
		c-2.9-2.6-6.1-5.2-9.3-7.8c-44.2-33.5-47.7-85-47.3-125.6h-48.2l89-138.5C117.2,3.8,0,123.2,0,270c0,105,60,196,147.6,240.7
		c2.6-31,19.6-61.8,51.4-89c22.9,18.4,49.3,32.5,70.6,46.9c-8.7,5.9-15.9,11.6-21.6,17.3c-10.9,10.7-13.3,21-13.8,31.3
		c-0.3,6.9,0.4,13.9,3.8,20.9c10.5,1.2,21.2,2,32,2C419.1,540,540,419.1,540,270L540,270z"/>
	<path class="st1" d="M391.6,511c-2.5-31.2-19.5-62-51.4-89.4l0,0v0c-13.6-11.7-28.4-22.1-42.6-32c-9.9-7-19.5-13.7-28-20.5
		c-20.4-16.1-35.2-32.4-35.3-52.3c0.1-17.8,16.9-37.3,35-52.9c-26.3-20.1-38.1-46.7-43.2-73.5c-93.2,65.4-95.5,176.2-27.1,231.2
		c22.9,18.4,49.3,32.5,70.6,46.9c36.2,24.7,46.9,46.4,32.6,69.4C334.1,534.2,364.2,524.9,391.6,511L391.6,511z"/>
</g>
</svg>
