<?xml version="1.0" encoding="utf-8"?>
<!-- Generator: Adobe Illustrator 24.1.0, SVG Export Plug-In . SVG Version: 6.00 Build 0)  -->
<svg version="1.1" id="Layer_1" xmlns="http://www.w3.org/2000/svg" xmlns:xlink="http://www.w3.org/1999/xlink" x="0px" y="0px"
	 viewBox="0 0 531.39 149.03" style="enable-background:new 0 0 531.39 149.03;" xml:space="preserve">
<style type="text/css">
	.st0{opacity:0.4;fill:#FFFFFF;enable-background:new    ;}
	.st1{fill:#FFFFFF;}
	.st2{opacity:0.54;fill:#FFFFFF;enable-background:new    ;}
	.st3{opacity:0.7;fill:#FFFFFF;enable-background:new    ;}
</style>
<g>
	<path class="st0" d="M75.52,149.02c0.03,0,0.06,0,0.08,0c19.34-0.28,36.88-7.93,49.97-20.26c-7.5-31.68-27.33-46.3-42.78-50.18
		c0.01-0.16,0.01-0.31,0.01-0.46c0-4.59-1.93-8.54-4.71-10.41c-1.35,2.65-3.57,8.95-3.57,11.6c0-2.7-2.12-9.13-3.35-11.74
		c-2.9,1.8-4.92,5.84-4.92,10.55c0,2.46,0.99,5.82,2.31,9.03c-5.14,4.22-12.93,5.93-22.21,5.93c-13.26,0-29.56-3.47-45.58-8.05
		c2.53,17.84,11.36,33.66,24.19,45.1C9.65,116.48,0,96.63,0,74.51C0,33.36,33.36,0,74.51,0s74.51,33.36,74.51,74.51
		C149.02,115.33,116.2,148.48,75.52,149.02 M56.45,146.81L56.45,146.81c24.16-20.04,24.75-42.13,22.07-55.39
		c0.11-0.21,0.22-0.42,0.33-0.64c-0.11,0.22-0.22,0.43-0.33,0.64l0,0l0,0c0.44,2.18,0.79,4.6,0.97,7.21
		C80.37,111.89,76.63,130.07,56.45,146.81 M24.99,130.16c-0.01-0.01-0.02-0.02-0.03-0.02C24.97,130.14,24.98,130.15,24.99,130.16
		 M78.85,90.77C78.85,90.77,78.85,90.77,78.85,90.77C78.85,90.77,78.85,90.77,78.85,90.77"/>
	<path class="st1" d="M56.45,146.81L56.45,146.81L56.45,146.81L56.45,146.81C56.45,146.81,56.45,146.81,56.45,146.81 M25.73,130.81
		c0,0-0.01-0.01-0.01-0.01C25.72,130.8,25.73,130.81,25.73,130.81 M25.7,130.78c0,0-0.01-0.01-0.01-0.01
		C25.69,130.77,25.69,130.78,25.7,130.78 M25.66,130.75c-0.01-0.01-0.02-0.01-0.02-0.02C25.64,130.73,25.65,130.74,25.66,130.75
		 M25.63,130.72c-0.22-0.19-0.43-0.38-0.65-0.57c0.15,0.13,0.3,0.26,0.45,0.4C25.5,130.61,25.57,130.67,25.63,130.72 M24.96,130.13
		C24.95,130.13,24.95,130.13,24.96,130.13C24.95,130.13,24.96,130.13,24.96,130.13 M71.36,92.95L71.36,92.95L71.36,92.95
		c-0.05-0.08-0.09-0.16-0.14-0.25c0,0,0,0,0,0c0,0,0-0.01-0.01-0.01c0-0.01-0.01-0.01-0.01-0.02l0,0c-0.08-0.15-0.16-0.3-0.25-0.45
		C71.09,92.47,71.23,92.71,71.36,92.95L71.36,92.95 M78.84,90.78C78.84,90.77,78.85,90.77,78.84,90.78
		C78.85,90.77,78.84,90.78,78.84,90.78 M78.85,90.77c0.03-0.07,0.07-0.13,0.1-0.2c-0.02,0.04-0.04,0.07-0.06,0.11
		C78.88,90.71,78.86,90.74,78.85,90.77 M69.93,90.21c-0.47-0.98-0.94-2.02-1.37-3.07l0,0C68.99,88.2,69.45,89.23,69.93,90.21
		L69.93,90.21 M82.02,82.78C82.02,82.78,82.02,82.78,82.02,82.78c0.43-1.52,0.71-2.96,0.77-4.21h0
		C82.73,79.82,82.45,81.26,82.02,82.78"/>
	<path class="st2" d="M75.6,149.02c7.65-0.11,15.02-1.39,21.95-3.64c14.72-29.11-4.09-52.55-15.53-62.59
		c0.43-1.52,0.71-2.96,0.77-4.21c15.45,3.88,35.28,18.5,42.78,50.18C112.48,141.08,94.94,148.74,75.6,149.02 M56.45,146.81
		L56.45,146.81c20.19-16.74,23.91-34.92,23.03-48.17C80.37,111.89,76.63,130.07,56.45,146.81 M25.43,130.55
		c-0.15-0.13-0.3-0.26-0.45-0.4c-0.01-0.01-0.02-0.02-0.03-0.02c0,0,0,0-0.01-0.01c-12.83-11.44-21.66-27.26-24.19-45.1
		c16.02,4.57,32.33,8.05,45.58,8.05c9.29,0,17.07-1.7,22.21-5.93c0.43,1.05,0.89,2.09,1.37,3.07
		C58.2,110.13,29.62,113.9,13.55,117.3C16.98,122.17,20.96,126.63,25.43,130.55 M71.36,92.95c-0.05-0.08-0.09-0.16-0.14-0.25
		C71.27,92.78,71.31,92.86,71.36,92.95L71.36,92.95 M71.22,92.69C71.22,92.69,71.22,92.69,71.22,92.69
		C71.21,92.69,71.22,92.69,71.22,92.69 M71.2,92.67L71.2,92.67L71.2,92.67 M78.52,91.42L78.52,91.42c0.11-0.21,0.22-0.42,0.33-0.64
		c0,0,0,0,0-0.01s0,0,0-0.01c0.01-0.03,0.03-0.06,0.04-0.09C78.77,90.93,78.64,91.18,78.52,91.42"/>
	<path class="st1" d="M74.51,149.03c-6.23,0-12.28-0.78-18.06-2.22l0,0c4.28,1.06,8.7,1.77,13.23,2.06
		C71.28,148.97,72.89,149.02,74.51,149.03L74.51,149.03L74.51,149.03c0.01,0,0.02,0,0.03,0c0,0,0,0,0.01,0c0.01,0,0.02,0,0.02,0
		c0,0,0.01,0,0.01,0c0.01,0,0.01,0,0.02,0c0,0,0.01,0,0.01,0c0.01,0,0.01,0,0.02,0c0,0,0.01,0,0.01,0c0.01,0,0.01,0,0.02,0
		c0,0,0.01,0,0.01,0c0.01,0,0.01,0,0.02,0c0,0,0.01,0,0.01,0c0.01,0,0.01,0,0.01,0c0.01,0,0.01,0,0.01,0c0.01,0,0.01,0,0.01,0
		c0.01,0,0.01,0,0.02,0c0,0,0.01,0,0.01,0c0.01,0,0.01,0,0.02,0c0,0,0.01,0,0.01,0c0.01,0,0.01,0,0.02,0c0,0,0.01,0,0.01,0
		c0.01,0,0.01,0,0.02,0c0,0,0.01,0,0.01,0c0.01,0,0.01,0,0.02,0c0,0,0,0,0.01,0c0.01,0,0.01,0,0.02,0c0,0,0,0,0.01,0
		c0.01,0,0.02,0,0.02,0h0c0.19,0,0.38,0,0.57-0.01C75.18,149.02,74.85,149.03,74.51,149.03 M25.76,130.84
		c-0.01-0.01-0.02-0.02-0.03-0.03C25.74,130.82,25.75,130.83,25.76,130.84c20.83-7.05,38.13-16.56,45.59-37.89l0,0
		C63.9,114.28,46.6,123.78,25.76,130.84 M25.72,130.8c-0.01-0.01-0.02-0.01-0.02-0.02C25.71,130.79,25.71,130.79,25.72,130.8
		 M25.68,130.77c-0.01-0.01-0.02-0.02-0.03-0.02C25.67,130.75,25.68,130.76,25.68,130.77 M25.63,130.72L25.63,130.72L25.63,130.72
		 M70.96,92.22c-0.34-0.63-0.69-1.31-1.03-2.01l0,0C70.27,90.91,70.62,91.59,70.96,92.22 M78.95,90.57c1.2-2.42,2.34-5.21,3.07-7.79
		l0,0C81.29,85.35,80.14,88.14,78.95,90.57"/>
	<path class="st1" d="M74.51,149.02c-1.62,0-3.24-0.05-4.83-0.16C71.28,148.97,72.89,149.02,74.51,149.02L74.51,149.02
		 M74.54,149.02C74.54,149.02,74.54,149.02,74.54,149.02C74.54,149.02,74.54,149.02,74.54,149.02 M74.57,149.02
		C74.57,149.02,74.58,149.02,74.57,149.02C74.58,149.02,74.57,149.02,74.57,149.02 M74.6,149.02
		C74.6,149.02,74.61,149.02,74.6,149.02C74.61,149.02,74.6,149.02,74.6,149.02 M74.63,149.02c0,0,0.01,0,0.01,0
		C74.64,149.02,74.63,149.02,74.63,149.02 M74.66,149.02c0,0,0.01,0,0.01,0C74.67,149.02,74.66,149.02,74.66,149.02 M74.69,149.02
		c0.01,0,0.01,0,0.01,0C74.7,149.02,74.69,149.02,74.69,149.02 M74.72,149.02c0.01,0,0.01,0,0.01,0
		C74.73,149.02,74.72,149.02,74.72,149.02 M74.75,149.02c0.01,0,0.01,0,0.02,0C74.76,149.02,74.75,149.02,74.75,149.02
		 M74.78,149.02c0.01,0,0.01,0,0.02,0C74.79,149.02,74.78,149.02,74.78,149.02 M74.81,149.02c0.01,0,0.01,0,0.02,0
		C74.82,149.02,74.81,149.02,74.81,149.02 M74.83,149.02c0.01,0,0.01,0,0.02,0C74.85,149.02,74.84,149.02,74.83,149.02
		 M74.86,149.02c0.01,0,0.01,0,0.02,0C74.88,149.02,74.87,149.02,74.86,149.02 M74.89,149.02c0.01,0,0.02,0,0.02,0
		C74.91,149.02,74.9,149.02,74.89,149.02 M74.92,149.02c0.01,0,0.02,0,0.02,0C74.93,149.02,74.93,149.02,74.92,149.02 M74.95,149.02
		c0.22,0,0.44,0,0.65-0.01c-0.03,0-0.06,0-0.08,0C75.33,149.02,75.14,149.02,74.95,149.02 M79.49,98.63
		c-0.17-2.61-0.53-5.03-0.97-7.21l0,0C78.96,93.6,79.31,96.02,79.49,98.63"/>
	<path class="st1" d="M74.51,149.02L74.51,149.02c0.01,0,0.02,0,0.03,0C74.53,149.02,74.52,149.02,74.51,149.02 M74.55,149.02
		c0.01,0,0.02,0,0.02,0C74.57,149.02,74.55,149.02,74.55,149.02 M74.58,149.02c0.01,0,0.01,0,0.02,0
		C74.59,149.02,74.59,149.02,74.58,149.02 M74.61,149.02c0.01,0,0.01,0,0.02,0C74.62,149.02,74.62,149.02,74.61,149.02
		 M74.64,149.02c0.01,0,0.01,0,0.02,0C74.65,149.02,74.65,149.02,74.64,149.02 M74.67,149.02c0.01,0,0.01,0,0.02,0
		C74.68,149.02,74.68,149.02,74.67,149.02 M74.7,149.02c0.01,0,0.01,0,0.01,0C74.71,149.02,74.71,149.02,74.7,149.02 M74.73,149.02
		c0.01,0,0.01,0,0.01,0C74.74,149.02,74.74,149.02,74.73,149.02 M74.76,149.02c0,0,0.01,0,0.01,0
		C74.77,149.02,74.77,149.02,74.76,149.02 M74.8,149.02c0.01,0,0.01,0,0.01,0C74.8,149.02,74.8,149.02,74.8,149.02 M74.83,149.02
		c0,0,0.01,0,0.01,0C74.83,149.02,74.83,149.02,74.83,149.02 M74.85,149.02C74.86,149.02,74.86,149.02,74.85,149.02
		C74.86,149.02,74.86,149.02,74.85,149.02 M74.89,149.02L74.89,149.02C74.89,149.02,74.89,149.02,74.89,149.02 M74.91,149.02
		L74.91,149.02C74.92,149.02,74.92,149.02,74.91,149.02 M74.94,149.02L74.94,149.02L74.94,149.02 M69.68,148.87
		c-4.53-0.29-8.95-0.99-13.23-2.06l0,0C60.73,147.87,65.15,148.57,69.68,148.87 M25.76,130.84c-0.01-0.01-0.02-0.02-0.03-0.03
		c0,0-0.01-0.01-0.01-0.01c-0.01-0.01-0.02-0.01-0.02-0.02c0,0-0.01-0.01-0.01-0.01c-0.01-0.01-0.02-0.02-0.03-0.02
		s-0.02-0.01-0.02-0.02c0,0,0,0,0,0c-0.07-0.06-0.13-0.11-0.2-0.17C25.54,130.65,25.65,130.74,25.76,130.84
		c20.83-7.06,38.13-16.56,45.59-37.89l0,0C63.9,114.28,46.6,123.78,25.76,130.84 M71.22,92.7C71.22,92.7,71.22,92.69,71.22,92.7
		C71.22,92.69,71.22,92.7,71.22,92.7 M71.21,92.69c0-0.01-0.01-0.01-0.01-0.02C71.21,92.68,71.21,92.68,71.21,92.69 M71.2,92.67
		c-0.42-0.76-0.85-1.59-1.27-2.46l0,0c0.34,0.7,0.69,1.38,1.03,2.01C71.04,92.37,71.12,92.52,71.2,92.67 M78.89,90.68
		c0.02-0.04,0.04-0.07,0.06-0.11c1.2-2.42,2.34-5.22,3.07-7.79c0,0,0,0,0,0C81.28,85.39,80.11,88.23,78.89,90.68"/>
	<path class="st3" d="M74.51,149.02c-1.62,0-3.24-0.05-4.83-0.16c-4.53-0.29-8.95-0.99-13.23-2.06
		c20.19-16.74,23.91-34.92,23.03-48.17c-0.17-2.61-0.53-5.03-0.97-7.21c0.12-0.24,0.25-0.49,0.37-0.74c1.22-2.45,2.39-5.29,3.13-7.9
		c11.44,10.05,30.25,33.49,15.53,62.59c-6.93,2.25-14.3,3.53-21.95,3.64c-0.22,0-0.43,0.01-0.65,0.01h0c-0.01,0-0.02,0-0.02,0h-0.01
		c-0.01,0-0.02,0-0.02,0h-0.01c-0.01,0-0.01,0-0.02,0c-0.01,0,0,0-0.01,0c-0.01,0-0.01,0-0.02,0c0,0-0.01,0-0.01,0
		c-0.01,0-0.01,0-0.02,0c-0.01,0-0.01,0-0.01,0c-0.01,0-0.01,0-0.02,0c0,0-0.01,0-0.01,0c-0.01,0-0.01,0-0.02,0s-0.01,0-0.01,0
		s-0.01,0-0.01,0c-0.01,0-0.01,0-0.01,0c-0.01,0-0.01,0-0.01,0c-0.01,0-0.01,0-0.02,0c0,0-0.01,0-0.01,0c-0.01,0-0.01,0-0.02,0
		c0,0-0.01,0-0.01,0c-0.01,0-0.01,0-0.02,0c0,0-0.01,0-0.01,0c-0.01,0-0.01,0-0.02,0c0,0-0.01,0-0.01,0c-0.01,0-0.02,0-0.02,0
		c0,0,0,0-0.01,0C74.53,149.02,74.52,149.02,74.51,149.02 M25.76,130.84c-0.11-0.1-0.22-0.19-0.33-0.29
		c-4.47-3.92-8.45-8.38-11.89-13.25c16.07-3.4,44.65-7.17,56.38-27.09c0.42,0.87,0.85,1.7,1.27,2.46l0,0c0,0.01,0.01,0.01,0.01,0.02
		c0,0,0,0.01,0.01,0.01c0,0,0,0,0,0c0.05,0.08,0.09,0.17,0.14,0.25C63.9,114.28,46.6,123.78,25.76,130.84"/>
	<path class="st1" d="M87.39,36.25c0-10.06-12.86-28.02-12.86-28.02S61.66,26.19,61.66,36.25s12.86,28.8,12.86,37.46
		C74.52,65.05,87.39,46.32,87.39,36.25L87.39,36.25z"/>
	<path class="st1" d="M80.12,62.69c3.81,1.76,9.65,5.37,9.65,11.03c5.41-9.72-1.22-19.44-4.24-23.09
		C83.76,54.68,81.75,58.85,80.12,62.69L80.12,62.69z"/>
	<path class="st1" d="M68.91,62.69c-3.81,1.76-9.65,5.37-9.65,11.03c-5.41-9.72,1.22-19.44,4.24-23.09
		C65.26,54.68,67.27,58.85,68.91,62.69L68.91,62.69z"/>
	<path class="st1" d="M82.8,78.12c0-4.59-1.93-8.54-4.71-10.41c-0.37,0.73-0.82,1.76-1.26,2.9c1.8,1.21,3.05,3.77,3.05,6.75
		c0,4.14-4.35,12.25-5.37,12.25c-1.02,0-5.37-8.11-5.37-12.25c0-3.06,1.31-5.68,3.19-6.84c0.03,0.06,0.06,0.14,0.09,0.21
		c-0.44-1.25-0.89-2.37-1.26-3.15c-2.9,1.8-4.92,5.84-4.92,10.55c0,6.37,6.71,18.87,8.28,18.87C76.09,96.99,82.8,84.49,82.8,78.12
		L82.8,78.12z"/>
</g>
<path class="st1" d="M255.73,100.24v-6.81h5.18c1.33,0,2.36,0.28,3.1,0.85c0.73,0.57,1.1,1.41,1.1,2.51v0.06
	c0,1.04-0.38,1.87-1.13,2.48c-0.75,0.61-1.77,0.91-3.04,0.91H255.73L255.73,100.24z M252.21,110.42h3.52v-7.04h4.4h0.06l4.98,7.04
	h4.18l-5.45-7.64c0.71-0.19,1.36-0.47,1.95-0.82c0.59-0.35,1.09-0.79,1.51-1.3c0.42-0.51,0.75-1.1,1-1.76
	c0.24-0.66,0.36-1.41,0.36-2.23V96.6c0-0.88-0.15-1.69-0.43-2.42c-0.29-0.73-0.7-1.37-1.24-1.93c-0.65-0.64-1.47-1.13-2.45-1.49
	c-0.98-0.36-2.11-0.53-3.38-0.53h-9V110.42L252.21,110.42z M277.8,110.42h15.09v-3.2h-11.57v-5.39h10.13v-3.2h-10.13v-5.19h11.43
	v-3.2H277.8V110.42L277.8,110.42z M307.14,102.4l3.46-8.08l3.49,8.08H307.14L307.14,102.4z M300.13,110.42h3.64l2.08-4.88h9.55
	l2.05,4.88h3.75l-8.88-20.34h-3.29L300.13,110.42L300.13,110.42z M332.9,107.22V93.43h3.98c1.06,0,2.02,0.17,2.89,0.52
	c0.86,0.35,1.6,0.83,2.21,1.43c0.61,0.61,1.08,1.34,1.41,2.19c0.34,0.85,0.5,1.77,0.5,2.75v0.06c0,0.98-0.17,1.9-0.5,2.74
	c-0.34,0.84-0.81,1.56-1.41,2.17c-0.61,0.61-1.34,1.08-2.21,1.42c-0.87,0.34-1.83,0.51-2.89,0.51H332.9L332.9,107.22z
	 M329.38,110.42h7.53c1.58,0,3.02-0.26,4.34-0.78c1.32-0.52,2.45-1.23,3.4-2.13c0.95-0.9,1.69-1.97,2.21-3.2
	c0.52-1.23,0.78-2.56,0.78-3.98v-0.06c0-1.42-0.26-2.74-0.78-3.97c-0.52-1.22-1.26-2.28-2.21-3.19c-0.95-0.9-2.09-1.61-3.4-2.12
	c-1.32-0.51-2.76-0.77-4.34-0.77h-7.53V110.42L329.38,110.42z M356.87,110.42h3.52v-20.2h-3.52V110.42L356.87,110.42z
	 M370.55,110.42h3.52V96.05l11.11,14.37h2.97v-20.2h-3.52v13.96l-10.8-13.96h-3.28V110.42L370.55,110.42z M398.07,110.42h15.09v-3.2
	h-11.57v-5.39h10.13v-3.2h-10.13v-5.19h11.43v-3.2h-14.94V110.42L398.07,110.42z M432.14,110.3c0.88-0.27,1.64-0.66,2.27-1.18
	c0.63-0.52,1.12-1.15,1.47-1.9c0.35-0.75,0.53-1.6,0.53-2.54v-0.06c0-0.83-0.14-1.55-0.42-2.18c-0.28-0.63-0.69-1.17-1.23-1.65
	c-0.54-0.47-1.22-0.87-2.04-1.2c-0.82-0.33-1.76-0.62-2.82-0.89c-0.96-0.23-1.76-0.45-2.39-0.66c-0.63-0.21-1.12-0.44-1.48-0.68
	c-0.36-0.24-0.6-0.51-0.74-0.81s-0.2-0.64-0.2-1.03v-0.06c0-0.67,0.29-1.24,0.86-1.7c0.58-0.46,1.39-0.69,2.42-0.69
	c0.92,0,1.84,0.18,2.74,0.53c0.9,0.36,1.82,0.87,2.74,1.54l1.9-2.68c-1.04-0.83-2.15-1.46-3.33-1.89c-1.18-0.43-2.52-0.65-4-0.65
	c-1,0-1.92,0.14-2.77,0.43c-0.85,0.29-1.57,0.69-2.17,1.2c-0.6,0.51-1.07,1.12-1.42,1.85c-0.34,0.72-0.52,1.51-0.52,2.38v0.06
	c0,0.92,0.15,1.71,0.45,2.37c0.3,0.65,0.73,1.21,1.3,1.66c0.57,0.45,1.27,0.84,2.11,1.15c0.84,0.32,1.8,0.6,2.88,0.85
	c0.95,0.21,1.71,0.42,2.3,0.63c0.59,0.21,1.05,0.44,1.39,0.69c0.34,0.25,0.57,0.51,0.69,0.79c0.12,0.28,0.19,0.6,0.19,0.97v0.06
	c0,0.77-0.32,1.38-0.97,1.85c-0.64,0.46-1.51,0.69-2.61,0.69c-1.27,0-2.4-0.23-3.41-0.68c-1-0.45-1.99-1.1-2.97-1.95l-2.14,2.54
	c1.21,1.1,2.53,1.91,3.95,2.44c1.42,0.53,2.91,0.79,4.47,0.79C430.28,110.71,431.25,110.57,432.14,110.3L432.14,110.3z
	 M455.33,110.3c0.88-0.27,1.64-0.66,2.27-1.18c0.63-0.52,1.12-1.15,1.47-1.9c0.35-0.75,0.53-1.6,0.53-2.54v-0.06
	c0-0.83-0.14-1.55-0.42-2.18c-0.28-0.63-0.69-1.17-1.23-1.65c-0.54-0.47-1.22-0.87-2.04-1.2c-0.82-0.33-1.76-0.62-2.82-0.89
	c-0.96-0.23-1.76-0.45-2.39-0.66c-0.63-0.21-1.12-0.44-1.47-0.68c-0.36-0.24-0.6-0.51-0.74-0.81c-0.14-0.3-0.2-0.64-0.2-1.03v-0.06
	c0-0.67,0.29-1.24,0.87-1.7c0.58-0.46,1.39-0.69,2.42-0.69c0.92,0,1.84,0.18,2.74,0.53c0.9,0.36,1.82,0.87,2.74,1.54l1.9-2.68
	c-1.04-0.83-2.15-1.46-3.33-1.89c-1.18-0.43-2.52-0.65-4-0.65c-1,0-1.92,0.14-2.77,0.43c-0.85,0.29-1.57,0.69-2.17,1.2
	c-0.6,0.51-1.07,1.12-1.42,1.85c-0.34,0.72-0.51,1.51-0.51,2.38v0.06c0,0.92,0.15,1.71,0.45,2.37c0.3,0.65,0.73,1.21,1.3,1.66
	c0.57,0.45,1.27,0.84,2.11,1.15c0.84,0.32,1.8,0.6,2.88,0.85c0.95,0.21,1.71,0.42,2.3,0.63c0.59,0.21,1.05,0.44,1.39,0.69
	c0.34,0.25,0.57,0.51,0.69,0.79c0.12,0.28,0.19,0.6,0.19,0.97v0.06c0,0.77-0.32,1.38-0.97,1.85c-0.64,0.46-1.51,0.69-2.61,0.69
	c-1.27,0-2.4-0.23-3.4-0.68c-1-0.45-1.99-1.1-2.97-1.95l-2.14,2.54c1.21,1.1,2.53,1.91,3.95,2.44c1.42,0.53,2.91,0.79,4.47,0.79
	C453.48,110.71,454.45,110.57,455.33,110.3L455.33,110.3z"/>
<path class="st1" d="M196.3,68.42c-1.19-0.56-2.22-1.31-3.06-2.24c-0.85-0.94-1.51-2.02-1.98-3.25c-0.47-1.23-0.7-2.52-0.7-3.89
	v-0.11c0-1.37,0.23-2.67,0.68-3.89c0.45-1.23,1.1-2.3,1.95-3.22c0.85-0.92,1.86-1.65,3.04-2.19c1.18-0.54,2.49-0.81,3.93-0.81
	c1.45,0,2.77,0.28,3.96,0.84c1.19,0.56,2.22,1.31,3.09,2.24c0.87,0.94,1.54,2.02,2.01,3.25c0.47,1.23,0.71,2.52,0.71,3.89v0.11
	c0,1.37-0.24,2.67-0.71,3.89c-0.47,1.23-1.12,2.3-1.95,3.22c-0.83,0.92-1.84,1.65-3.04,2.19c-1.19,0.54-2.51,0.81-3.96,0.81
	C198.82,69.26,197.5,68.98,196.3,68.42L196.3,68.42z M208.3,77.18c2.49-1.03,4.65-2.43,6.49-4.22c1.84-1.79,3.27-3.88,4.3-6.27
	c1.03-2.4,1.54-4.95,1.54-7.65v-0.11c0-2.7-0.51-5.25-1.54-7.63c-1.03-2.38-2.44-4.45-4.25-6.22c-1.8-1.77-3.95-3.16-6.44-4.19
	c-2.49-1.03-5.19-1.54-8.11-1.54c-2.92,0-5.63,0.51-8.11,1.54c-2.49,1.03-4.65,2.43-6.49,4.22c-1.84,1.79-3.27,3.88-4.3,6.27
	c-1.03,2.4-1.54,4.95-1.54,7.65v0.11c0,2.7,0.51,5.25,1.54,7.63c1.03,2.38,2.44,4.45,4.25,6.22c1.8,1.77,3.95,3.16,6.44,4.19
	c2.49,1.03,5.19,1.54,8.11,1.54C203.1,78.72,205.81,78.21,208.3,77.18L208.3,77.18z M239.22,69.53c-0.72-0.32-1.35-0.78-1.89-1.38
	c-0.54-0.59-0.96-1.3-1.26-2.11c-0.3-0.81-0.46-1.7-0.46-2.68v-0.11c0-0.97,0.15-1.86,0.46-2.65c0.31-0.79,0.73-1.49,1.26-2.08
	c0.54-0.59,1.17-1.05,1.89-1.38c0.72-0.32,1.49-0.49,2.32-0.49c1.69,0,3.1,0.61,4.25,1.84c1.15,1.23,1.72,2.81,1.72,4.76v0.11
	c0,1.98-0.58,3.59-1.72,4.81c-1.15,1.23-2.57,1.84-4.25,1.84C240.71,70.01,239.94,69.85,239.22,69.53L239.22,69.53z M225.5,86.62
	h10.33V74.39c0.47,0.54,0.99,1.07,1.56,1.6c0.58,0.52,1.22,0.97,1.94,1.35c0.72,0.38,1.52,0.68,2.4,0.92
	c0.88,0.23,1.88,0.35,2.99,0.35c1.73,0,3.37-0.35,4.94-1.05c1.57-0.7,2.93-1.71,4.1-3.03c1.17-1.32,2.11-2.92,2.81-4.81
	c0.7-1.89,1.05-4.03,1.05-6.41V63.2c0-2.34-0.35-4.45-1.05-6.33c-0.7-1.87-1.65-3.46-2.83-4.76c-1.19-1.3-2.56-2.3-4.13-3
	c-1.57-0.7-3.21-1.05-4.94-1.05c-1.08,0-2.06,0.13-2.94,0.38c-0.88,0.25-1.67,0.59-2.38,1c-0.7,0.41-1.34,0.89-1.92,1.43
	c-0.58,0.54-1.11,1.12-1.62,1.73V48.7H225.5V86.62L225.5,86.62z M270.61,60.93c0.29-1.62,0.87-2.91,1.73-3.87
	c0.87-0.96,1.98-1.43,3.35-1.43c1.41,0,2.56,0.48,3.46,1.43c0.9,0.96,1.44,2.24,1.62,3.87H270.61L270.61,60.93z M284.05,77.04
	c2.07-1.08,3.81-2.52,5.22-4.33l-5.68-4.71c-1.05,1.05-2.08,1.8-3.11,2.27c-1.03,0.47-2.15,0.7-3.38,0.7c-1.62,0-2.98-0.4-4.08-1.19
	c-1.1-0.79-1.85-2-2.24-3.62h19.58c0.04-0.36,0.05-0.72,0.05-1.08c0-0.36,0-0.7,0-1.03c0-2.16-0.3-4.21-0.89-6.14
	c-0.6-1.93-1.5-3.62-2.71-5.08c-1.21-1.46-2.74-2.62-4.6-3.49c-1.86-0.87-4.05-1.3-6.57-1.3c-2.16,0-4.15,0.4-5.95,1.19
	c-1.8,0.79-3.36,1.88-4.68,3.27c-1.32,1.39-2.34,3.01-3.06,4.87c-0.72,1.86-1.08,3.85-1.08,5.98v0.11c0,2.27,0.39,4.35,1.16,6.22
	c0.78,1.88,1.86,3.47,3.24,4.79c1.39,1.32,3.04,2.34,4.95,3.08c1.91,0.74,4.02,1.11,6.33,1.11
	C279.48,78.67,281.98,78.13,284.05,77.04L284.05,77.04z M294.79,77.96h10.33V62.12c0-1.62,0.4-2.85,1.2-3.68
	c0.8-0.83,1.82-1.24,3.07-1.24c1.21,0,2.19,0.42,2.94,1.24c0.75,0.83,1.12,2.06,1.12,3.68v15.85h10.33V58.82
	c0-3.35-0.88-5.99-2.64-7.9c-1.76-1.91-4.21-2.87-7.37-2.87c-1.03,0-1.98,0.14-2.83,0.41c-0.85,0.27-1.64,0.62-2.35,1.05
	c-0.71,0.43-1.35,0.94-1.92,1.51c-0.57,0.58-1.09,1.17-1.55,1.79V48.7h-10.33V77.96L294.79,77.96z M365.81,77.78
	c1.87-0.56,3.48-1.37,4.81-2.43c1.33-1.06,2.37-2.35,3.11-3.86c0.74-1.51,1.11-3.24,1.11-5.18v-0.11c0-1.76-0.32-3.28-0.97-4.56
	c-0.65-1.28-1.59-2.37-2.81-3.27c-1.23-0.9-2.71-1.67-4.46-2.3c-1.75-0.63-3.71-1.18-5.87-1.65c-1.3-0.29-2.37-0.57-3.22-0.84
	c-0.85-0.27-1.51-0.54-2-0.81c-0.49-0.27-0.83-0.57-1.03-0.89c-0.2-0.32-0.3-0.7-0.3-1.13v-0.11c0-0.68,0.32-1.26,0.95-1.73
	c0.63-0.47,1.58-0.7,2.84-0.7c1.7,0,3.45,0.32,5.27,0.95c1.82,0.63,3.6,1.56,5.33,2.79l5.25-7.43c-2.06-1.67-4.36-2.93-6.9-3.78
	c-2.54-0.85-5.44-1.28-8.68-1.28c-2.27,0-4.31,0.3-6.11,0.89c-1.8,0.59-3.35,1.43-4.62,2.51c-1.28,1.08-2.25,2.36-2.92,3.83
	c-0.67,1.48-1,3.1-1,4.86v0.11c0,1.94,0.37,3.57,1.11,4.89c0.74,1.31,1.75,2.41,3.03,3.29c1.28,0.88,2.79,1.6,4.52,2.16
	c1.73,0.56,3.61,1.07,5.63,1.54c1.3,0.29,2.35,0.57,3.17,0.84c0.81,0.27,1.46,0.55,1.95,0.84c0.49,0.29,0.82,0.58,1,0.89
	c0.18,0.31,0.27,0.66,0.27,1.05v0.11c0,0.83-0.37,1.47-1.11,1.92c-0.74,0.45-1.81,0.67-3.22,0.67c-4.4,0-8.49-1.51-12.28-4.54
	l-5.84,6.99c2.34,2.1,5.04,3.68,8.09,4.74c3.05,1.05,6.27,1.58,9.66,1.58C361.85,78.61,363.94,78.33,365.81,77.78L365.81,77.78z
	 M391.89,69.37c-0.76-0.36-1.42-0.83-1.97-1.42c-0.56-0.59-0.99-1.28-1.3-2.06c-0.31-0.79-0.46-1.63-0.46-2.52v-0.11
	c0-0.86,0.14-1.68,0.43-2.47c0.29-0.79,0.69-1.48,1.22-2.07c0.52-0.59,1.16-1.06,1.92-1.4c0.76-0.34,1.6-0.51,2.54-0.51
	c0.9,0,1.73,0.18,2.49,0.54c0.76,0.36,1.41,0.83,1.97,1.42c0.56,0.59,0.99,1.28,1.3,2.07c0.31,0.79,0.46,1.63,0.46,2.52v0.11
	c0,0.86-0.14,1.68-0.43,2.47c-0.29,0.79-0.7,1.48-1.22,2.07c-0.52,0.59-1.16,1.05-1.92,1.39c-0.76,0.34-1.6,0.51-2.54,0.51
	C393.47,69.9,392.64,69.73,391.89,69.37L391.89,69.37z M400.76,77.45c1.98-0.81,3.7-1.91,5.14-3.3c1.44-1.39,2.57-3.01,3.38-4.87
	c0.81-1.86,1.22-3.83,1.22-5.92v-0.11c0-2.09-0.4-4.06-1.19-5.9c-0.79-1.84-1.91-3.44-3.35-4.81c-1.44-1.37-3.15-2.46-5.11-3.27
	c-1.97-0.81-4.12-1.22-6.46-1.22c-2.34,0-4.51,0.41-6.49,1.22c-1.98,0.81-3.7,1.91-5.14,3.3c-1.44,1.39-2.57,3.01-3.38,4.87
	c-0.81,1.86-1.22,3.83-1.22,5.92v0.11c0,2.09,0.4,4.06,1.19,5.9c0.79,1.84,1.91,3.45,3.35,4.84c1.44,1.39,3.15,2.48,5.11,3.27
	c1.96,0.79,4.12,1.19,6.46,1.19C396.61,78.67,398.77,78.26,400.76,77.45L400.76,77.45z M429.79,77.21c1.39-0.94,2.55-2.02,3.47-3.25
	v4h10.33V48.7h-10.33v15.85c0,1.62-0.4,2.85-1.2,3.68c-0.8,0.83-1.81,1.24-3.02,1.24c-1.25,0-2.24-0.41-2.99-1.24
	c-0.75-0.83-1.12-2.06-1.12-3.68V48.7h-10.33v19.15c0,3.35,0.88,5.99,2.64,7.9c1.76,1.91,4.22,2.87,7.37,2.87
	C426.68,78.61,428.4,78.14,429.79,77.21L429.79,77.21z M449.12,77.96h10.33v-9.09c0-3.39,0.72-5.88,2.16-7.46
	c1.44-1.59,3.52-2.38,6.22-2.38h0.87V48.21c-2.45-0.11-4.4,0.43-5.84,1.62c-1.44,1.19-2.58,2.78-3.41,4.76v-5.9h-10.33V77.96
	L449.12,77.96z M494.28,76.83c2.05-1.23,3.77-2.85,5.14-4.87l-6.87-4.98c-0.83,0.94-1.67,1.68-2.52,2.22
	c-0.85,0.54-1.88,0.81-3.11,0.81c-0.86,0-1.66-0.17-2.38-0.51c-0.72-0.34-1.34-0.81-1.84-1.41c-0.51-0.6-0.9-1.3-1.19-2.11
	c-0.29-0.81-0.43-1.69-0.43-2.62v-0.11c0-0.9,0.14-1.74,0.43-2.52c0.29-0.78,0.68-1.46,1.19-2.06c0.5-0.6,1.11-1.06,1.81-1.41
	c0.7-0.34,1.47-0.51,2.3-0.51c1.26,0,2.31,0.27,3.14,0.81c0.83,0.54,1.6,1.3,2.33,2.27l6.98-5.19c-1.26-1.98-2.9-3.57-4.92-4.76
	c-2.02-1.19-4.54-1.78-7.57-1.78c-2.31,0-4.43,0.41-6.36,1.22c-1.93,0.81-3.58,1.91-4.95,3.3c-1.37,1.39-2.44,3.01-3.22,4.87
	c-0.78,1.86-1.16,3.81-1.16,5.87v0.11c0,2.06,0.39,4.01,1.16,5.87c0.77,1.86,1.84,3.47,3.19,4.84c1.35,1.37,2.97,2.46,4.84,3.27
	c1.87,0.81,3.91,1.22,6.11,1.22C489.59,78.67,492.23,78.05,494.28,76.83L494.28,76.83z M511.59,60.93c0.29-1.62,0.87-2.91,1.73-3.87
	c0.86-0.96,1.98-1.43,3.35-1.43c1.41,0,2.56,0.48,3.46,1.43c0.9,0.96,1.44,2.24,1.62,3.87H511.59L511.59,60.93z M525.03,77.04
	c2.07-1.08,3.81-2.52,5.22-4.33l-5.68-4.71c-1.05,1.05-2.08,1.8-3.11,2.27c-1.03,0.47-2.16,0.7-3.38,0.7c-1.62,0-2.98-0.4-4.08-1.19
	c-1.1-0.79-1.85-2-2.24-3.62h19.58c0.04-0.36,0.05-0.72,0.05-1.08c0-0.36,0-0.7,0-1.03c0-2.16-0.3-4.21-0.89-6.14
	c-0.59-1.93-1.5-3.62-2.7-5.08c-1.21-1.46-2.74-2.62-4.6-3.49c-1.86-0.87-4.05-1.3-6.57-1.3c-2.16,0-4.15,0.4-5.95,1.19
	c-1.8,0.79-3.36,1.88-4.68,3.27c-1.32,1.39-2.33,3.01-3.06,4.87c-0.72,1.86-1.08,3.85-1.08,5.98v0.11c0,2.27,0.39,4.35,1.16,6.22
	c0.77,1.88,1.86,3.47,3.25,4.79c1.39,1.32,3.04,2.34,4.95,3.08c1.91,0.74,4.02,1.11,6.33,1.11
	C520.46,78.67,522.96,78.13,525.03,77.04L525.03,77.04z"/>
</svg>
