<?xml version="1.0" encoding="utf-8"?>
<!-- Generator: Adobe Illustrator 27.0.0, SVG Export Plug-In . SVG Version: 6.00 Build 0)  -->
<svg version="1.1" id="Layer_1" xmlns="http://www.w3.org/2000/svg" xmlns:xlink="http://www.w3.org/1999/xlink" x="0px" y="0px"
	 viewBox="0 0 625.6 540" style="enable-background:new 0 0 625.6 540;" xml:space="preserve">
<g>
	<path d="M625.6,80.6V47L368.1,0.1L367.3,0L1.9,139.4L0,140.1v29.4l26.1,8.6v271.6l39.8,14l30.9-24.9V256l156.9,52.9V526l39.8,14
		l30.9-24.9V311l36.8-21.7v25.8l33,11.8l25.5-20.9v-51.4L546,180.1v191.8l33,11.8l25.5-20.9V92.6L625.6,80.6L625.6,80.6z
		 M551.8,176.6l12.6-7.5v-53.8l34.2-19.4V360L577.8,377l-26-9.3V176.6L551.8,176.6z M367.1,285.8l46.8-27.7v45.1l-20.8,17.1l-26-9.3
		V285.8L367.1,285.8z M324.5,251.6l230.8-131v0.1l1.1-0.7l2.3-1.3v47.1L324.5,304.2V251.6L324.5,251.6z M259.6,255.5l36.6,12.1
		l22.4-12.7v257.4l-26.2,21.1l-32.8-11.6V255.5L259.6,255.5z M77.5,243.3v-48.1l176.3,58.3v49.2L77.5,243.3L77.5,243.3z M32,180.1
		l39.7,13.1v54.3l19.3,6.5v182l-26.2,21.1L32,445.6V180.1L32,180.1z M619.7,77.2l-324.1,184L5.9,165.3v-21.2l362-138.1l251.9,45.8
		V77.2L619.7,77.2z"/>
</g>
</svg>
