<?xml version="1.0" encoding="utf-8"?>
<!-- Generator: Adobe Illustrator 25.4.1, SVG Export Plug-In . SVG Version: 6.00 Build 0)  -->
<svg version="1.1" id="Layer_1" xmlns="http://www.w3.org/2000/svg" xmlns:xlink="http://www.w3.org/1999/xlink" x="0px" y="0px"
	 viewBox="0 0 722.2 146" style="enable-background:new 0 0 722.2 146;" xml:space="preserve">
<style type="text/css">
	.st0{fill:#00000A;}
</style>
<g>
	<path class="st0" d="M196.7,132.9h7.5v-22.5l9.7,14.6h0.2l9.8-14.8v22.6h7.6V98.3h-8.2l-9.1,14.6l-9.1-14.6h-8.2V132.9L196.7,132.9
		z M239.7,132.9H266v-6.8h-18.8v-7.3h16.3v-6.8h-16.3v-7h18.6v-6.8h-26.1V132.9L239.7,132.9z M272.8,132.9h13.5
		c10.9,0,18.4-7.6,18.4-17.3v-0.1c0-9.8-7.5-17.2-18.4-17.2h-13.5V132.9L272.8,132.9z M286.3,105.2c6.2,0,10.4,4.3,10.4,10.4v0.1
		c0,6.1-4.2,10.3-10.4,10.3h-5.9v-20.9H286.3L286.3,105.2z M311.9,132.9h7.6V98.3h-7.6V132.9L311.9,132.9z M325.2,132.9h7.8l3.2-7.8
		h14.6l3.2,7.8h8L347.1,98h-7L325.2,132.9L325.2,132.9z M338.8,118.4l4.6-11.2l4.6,11.2H338.8L338.8,118.4z M382.1,132.9h16.5
		c7.8,0,13-3.2,13-9.5v-0.1c0-4.7-2.5-7-6.5-8.5c2.5-1.4,4.5-3.6,4.5-7.5v-0.1c0-2.4-0.8-4.3-2.4-5.9c-2-2-5.1-3.1-9.1-3.1h-16.1
		V132.9L382.1,132.9z M402,108.6c0,2.6-2.1,3.7-5.5,3.7h-7V105h7.5C400.2,105,402,106.2,402,108.6L402,108.6L402,108.6z M404,122.4
		L404,122.4c0,2.7-2,3.9-5.4,3.9h-9.1v-7.6h8.8C402.2,118.6,404,120.1,404,122.4L404,122.4z M417.8,132.9h7.6v-11.1h6l7.4,11.1h8.9
		l-8.5-12.4c4.4-1.6,7.4-5.1,7.4-10.7v-0.1c0-3.3-1-6-3-7.9c-2.3-2.3-5.7-3.5-10.1-3.5h-15.8V132.9L417.8,132.9z M425.4,115.1v-10
		h7.6c3.7,0,6,1.7,6,5v0.1c0,2.9-2.1,4.9-5.8,4.9H425.4L425.4,115.1z M453.9,132.9h7.6V98.3h-7.6V132.9L453.9,132.9z M470.2,132.9
		h13.5c10.9,0,18.4-7.6,18.4-17.3v-0.1c0-9.8-7.5-17.2-18.4-17.2h-13.5V132.9L470.2,132.9z M483.7,105.2c6.2,0,10.4,4.3,10.4,10.4
		v0.1c0,6.1-4.2,10.3-10.4,10.3h-5.9v-20.9H483.7L483.7,105.2z M525.6,133.5c6.3,0,11.2-2.5,14.8-5.5v-15h-15v6.6h7.7v5
		c-1.9,1.4-4.4,2.1-7.2,2.1c-6.1,0-10.5-4.7-10.5-11v-0.1c0-5.9,4.4-10.8,10-10.8c4,0,6.4,1.3,9.1,3.5l4.8-5.8
		c-3.6-3.1-7.4-4.7-13.6-4.7c-10.5,0-18.2,8.1-18.2,17.9v0.1C507.4,125.9,514.8,133.5,525.6,133.5L525.6,133.5z M547.7,132.9h26.4
		v-6.8h-18.8v-7.3h16.3v-6.8h-16.3v-7h18.6v-6.8h-26.1V132.9L547.7,132.9z"/>
	<path class="st0" d="M146,141.4V4.5c0-2.5-2-4.5-4.5-4.5H4.5C2,0,0,2,0,4.5v136.9c0,2.5,2,4.5,4.5,4.5h136.9
		C143.9,146,146,143.9,146,141.4L146,141.4z M104.3,91.2c0,6.4-3.7,11.9-9.7,14.8L73,117.3L51.2,106c-5.9-2.9-9.6-8.3-9.6-14.8V79.5
		l13,3.9v7.8c0,1.4,0.9,2.4,2.3,3.1l16,8l15.9-8c1.5-0.7,2.4-1.7,2.4-3.1V80.8L41.7,66.5V43c0-3.2,1.7-6.2,4.5-7.8
		c4.2-2.5,13.2-6.6,26.8-6.6c13.6,0,22.6,4.1,26.8,6.6c2.8,1.6,4.5,4.6,4.5,7.8v15.6l-13-3.9v-9.3c-3.5-1.7-9.6-3.7-18.3-3.7
		c-8.7,0-14.7,2-18.3,3.7v11.9l49.6,14.4V91.2L104.3,91.2z"/>
	<path class="st0" d="M217.6,73c-10.5,0-19.5-3.4-27.6-8.5l5-7.6c8.1,5.2,15.5,7.7,23.8,7.7c9.7,0,14.3-3.7,14.3-8.2
		c0-12.7-41.2-5.1-41.2-25.2c0-9.8,9.8-17.6,25.7-17.6c10.7,0,19.9,4,25.3,9.4l-6.2,6.3c-4.7-4.1-11.8-7.3-19.3-7.3
		c-9.2,0-15.5,3.3-15.5,8.1c0,11.7,41.3,5.5,41.3,25.3C243.3,65.9,232.7,73,217.6,73L217.6,73z M283.7,48.7V71h-10V48.7l-25-33.1
		h11.7l18.7,25.7l17.7-25.7h11.5L283.7,48.7L283.7,48.7z M378,71V27.5l-2.7,5.9L355.6,71h-6l-19.4-37.6l-2.7-5.9V71h-9.6V15.5h13.9
		l18.7,37.3l2.6,5.7l2.6-5.7L374,15.5h13.7V71H378L378,71z M442.1,32c0-4.6-3.1-8-10.7-8h-18.4v17.9h18.8c7.6,0,10.2-3.7,10.2-8.2
		V32L442.1,32z M430.4,50.1h-17.3V71h-10V15.5h27.3c15.2,0,21.8,6.8,21.8,16.5v1.5C452.2,43.2,445.6,50.1,430.4,50.1L430.4,50.1z
		 M506.7,71V47.1h-33.4V71h-10V15.5h10V39h33.4V15.5h10V71H506.7L506.7,71z M577,39.8c0-9.5-6.6-17.7-18.7-17.7
		c-12.2,0-18.7,8.2-18.7,17.7v6.7c0,9.5,6.5,17.8,18.7,17.8c12.2,0,18.7-8.3,18.7-17.8V39.8L577,39.8z M558.3,73
		c-17.8,0-28.7-12.7-28.7-26.2v-6.9c0-13.8,10.9-26.2,28.7-26.2c17.9,0,28.8,12.4,28.8,26.2v6.9C587.1,60.3,576.2,73,558.3,73
		L558.3,73z M644.8,71l-31.1-35.1l-4-5.2V71h-9.9V15.5h9.2l30.1,35.1l4.1,5.2V15.5h9.8V71H644.8L644.8,71z M697.5,48.7V71h-10V48.7
		l-25-33.1h11.7l18.7,25.7l17.7-25.7h11.5L697.5,48.7L697.5,48.7z"/>
</g>
</svg>
