<?xml version="1.0" encoding="utf-8"?>
<!-- Generator: Adobe Illustrator 24.1.0, SVG Export Plug-In . SVG Version: 6.00 Build 0)  -->
<svg version="1.1" id="Layer_1" xmlns="http://www.w3.org/2000/svg" xmlns:xlink="http://www.w3.org/1999/xlink" x="0px" y="0px"
	 viewBox="0 0 547.45 542.12" style="enable-background:new 0 0 547.45 542.12;" xml:space="preserve">
<style type="text/css">
	.st0{fill:#FFFFFF;}
</style>
<g>
	<path class="st0" d="M547.45,514.53V27.59C547.45,12.35,535.1,0,519.86,0H27.59C12.35,0,0,12.35,0,27.59v486.94
		c0,15.24,12.35,27.59,27.59,27.59h492.26C535.1,542.12,547.45,529.77,547.45,514.53 M244.06,216.14H131.01V325.5h113.04v138.33
		H80.17V78.29h163.88V216.14 M263.28,228.65v-68.38l141.28,109.09l-141.28,112.5v-68.38H143.44v-84.83H263.28 M467.27,416.58H303.39
		v-51.35l120.87-96.26l-120.87-93.34v-50.08h163.88V416.58"/>
	<path class="st0" d="M244.06,463.83H80.17l0-385.53h163.88v137.85H131.01V325.5l0,0h113.04V463.83 M467.27,416.58H303.39v-51.35
		l120.87-96.26l-120.87-93.34v-50.08h163.88V416.58"/>
	<path class="st0" d="M244.06,463.83H80.17H244.06V325.5V463.83 M467.27,416.58L467.27,416.58V125.55l0,0V416.58 M131.01,325.5
		L131.01,325.5V216.14h113.04V78.29H80.17h0h163.88v137.85H131.01V325.5 M424.27,268.96L424.27,268.96"/>
</g>
</svg>
