<?xml version="1.0" encoding="utf-8"?>
<!-- Generator: Adobe Illustrator 25.4.1, SVG Export Plug-In . SVG Version: 6.00 Build 0)  -->
<svg version="1.1" id="Layer_1" xmlns="http://www.w3.org/2000/svg" xmlns:xlink="http://www.w3.org/1999/xlink" x="0px" y="0px"
	 viewBox="0 0 540 540" style="enable-background:new 0 0 540 540;" xml:space="preserve">
<style type="text/css">
	.st0{opacity:0.7;fill:#FFFFFF;}
	.st1{fill:#FFFFFF;}
	.st2{opacity:0.55;fill:#FFFFFF;}
	.st3{opacity:0.4;fill:#FFFFFF;}
</style>
<g>
	<path class="st0" d="M93.4,474.1l-0.1-0.1l0,0l0,0l0,0c-0.3-0.3-0.7-0.6-1-0.9c0.2,0.2,0.4,0.4,0.7,0.6c0.1,0.1,0.3,0.2,0.4,0.3
		l-0.1-0.1l0,0l-0.1-0.1l-0.1-0.1l0,0c-0.2-0.2-0.5-0.4-0.7-0.6c0.2,0.2,0.4,0.4,0.6,0.6c-0.3-0.2-0.5-0.4-0.8-0.7
		c-0.3-0.3-1.7-1.5-1.7-1.5c-15.4-13.8-29.2-29.3-41.1-46.2c0,0,0,0,0,0c0,0,0-0.1-0.1-0.2c0,0,0,0,0,0c50.4-10.7,134.7-22.3,184-72
		l0,0l0,0c7.7-7.7,14.5-16.4,20.2-26.1l0,0c1.3,2.7,2.7,5.4,4,7.8c-0.1-0.2-0.2-0.4-0.3-0.5c0.3,0.6,0.6,1.1,0.9,1.6l0,0.1l0,0l0,0
		c0,0,0,0,0,0c0.2,0.3,0.3,0.6,0.5,0.9c-4.4,12.6-9.8,24.1-16,34.5l0,0l0,0c-31.8,53.6-85.7,81.2-148.7,102.6
		C93.7,474,93.5,474.1,93.4,474.1 M91.1,472.1L91.1,472.1L91.1,472.1L91.1,472.1 M90.4,471.5L90.4,471.5c-0.3-0.3-0.7-0.6-1-0.9
		C89.8,470.9,90.1,471.2,90.4,471.5L90.4,471.5L90.4,471.5 M90.4,471.5L90.4,471.5L90.4,471.5 M89.4,470.6c0,0-0.1-0.1-0.1-0.1l0,0
		C89.3,470.5,89.4,470.6,89.4,470.6"/>
	<path class="st0" d="M270,540c-5.9,0-11.7-0.2-17.5-0.6l-0.2,0c-16.4-1.1-32.3-3.6-47.7-7.5c73.1-60.7,86.7-126.5,83.5-174.6
		c-0.6-9.5-1.9-18.2-3.5-26.1c0.4-0.9,0.9-1.8,1.3-2.7l0,0c0.1-0.1,0.1-0.3,0.2-0.4c0,0,0,0.1-0.1,0.1c4.4-8.8,8.5-19,11.2-28.3
		c15.6,13.7,34.9,34.2,50.2,60.1l0,0l0,0c4.6,7.7,8.7,15.9,12.4,24.6c8.7,20.9,14.1,44.3,13.2,69.7c-0.8,22.7-6.6,47-19.5,72.4
		c-25.1,8.2-51.8,12.8-79.5,13.2c-0.8,0-1.6,0-2.4,0h0h-0.1h0h-0.1h0h-0.1h0h-0.1h0h-0.1h0H271h-0.1h-0.1h0h0h-0.1h-0.1h-0.1h0h-0.1
		h0h-0.1h0h-0.1h0h-0.1h0L270,540"/>
	<polyline class="st1" points="286.9,96.1 286.9,108.3 256.4,118 256.4,105.9 286.9,96.1 286.9,96.1 	"/>
	<polyline class="st1" points="256.4,125.7 256.4,147.2 268.3,147.2 268.3,134 286.9,128 286.9,115.9 256.4,125.7 	"/>
	<polygon class="st1" points="245,159.1 254.1,159.1 254.1,161.5 247.6,161.5 247.6,164 253.3,164 253.3,166.4 247.6,166.4 
		247.6,171 245,171 245,159.1 	"/>
	<polygon class="st1" points="256.4,159.1 259,159.1 259,171 256.4,171 256.4,159.1 	"/>
	<polygon class="st1" points="262,159.1 264.4,159.1 270,166.4 270,159.1 272.6,159.1 272.6,171 270.4,171 264.6,163.4 264.6,171 
		262,171 262,159.1 	"/>
	<path class="st1" d="M288.8,169.3l1.5-1.9c1,0.9,2.2,1.4,3.6,1.4c1.1,0,1.7-0.4,1.7-1.1v0c0-0.7-0.4-1-2.4-1.5
		c-2.4-0.6-3.9-1.3-3.9-3.6v0c0-2.2,1.7-3.6,4.2-3.6c1.6,0,3.2,0.5,4.4,1.5l-1.4,2c-1.1-0.7-2.1-1.2-3.1-1.2c-1,0-1.5,0.5-1.5,1v0
		c0,0.8,0.5,1,2.6,1.6c2.4,0.6,3.8,1.5,3.8,3.6v0c0,2.4-1.8,3.7-4.4,3.7C292,171.2,290.2,170.5,288.8,169.3L288.8,169.3z"/>
	<path class="st1" d="M274.8,165.1L274.8,165.1c0-3.4,2.7-6.2,6.3-6.2s6.3,2.7,6.3,6.1v0c0,3.4-2.7,6.1-6.3,6.1
		C277.5,171.2,274.8,168.5,274.8,165.1L274.8,165.1z M284.7,165.1L284.7,165.1c0.1-2-1.5-3.7-3.5-3.8l-0.1,0c-2.1,0-3.6,1.7-3.6,3.7
		v0c-0.1,2,1.5,3.7,3.5,3.7l0.1,0C283.3,168.8,284.7,167.1,284.7,165.1L284.7,165.1z"/>
	<polyline class="st1" points="268.2,121.9 256.4,118.1 256.4,118.1 256.4,118.1 256.4,118 275.2,112 286.9,115.8 286.9,115.8 
		286.9,115.8 286.9,115.9 268.2,121.9 	"/>
	<path class="st2" d="M353.5,526.8C353.5,526.8,353.5,526.8,353.5,526.8c12.9-25.5,18.7-49.8,19.4-72.4c0.9-25.4-4.5-48.9-13.2-69.7
		c-3.6-8.7-7.8-16.9-12.4-24.6l0,0l0,0c-15.3-25.9-34.6-46.4-50.1-60.1c1.6-5.5,2.6-10.7,2.8-15.2c55.9,14.1,127.7,66.9,154.9,181.5
		c0,0.1,0.1,0.2,0.1,0.3c-27.3,25.7-59.9,45.8-96,58.4c-1.7,0.6-3.5,1.2-5.2,1.8C353.6,526.8,353.5,526.8,353.5,526.8"/>
	<path class="st1" d="M373,454.4c0.9-25.4-4.5-48.9-13.2-69.7C368.5,405.5,373.8,428.9,373,454.4 M347.4,360L347.4,360L347.4,360
		L347.4,360L347.4,360"/>
	<path class="st1" d="M300,284.7c-0.2,4.5-1.2,9.7-2.8,15.2l0,0C298.8,294.5,299.8,289.2,300,284.7"/>
	<path class="st2" d="M49.2,425.2c-0.1-0.1-0.3-0.3-0.6-0.8C25.3,391,9.3,352.1,3,310c-0.1-0.6-0.2-1.1-0.2-1.7c0,0,0-0.1,0-0.2
		c57.8,16.5,116.7,29.1,164.7,29.2c0.2,0,0.3,0,0.5,0l0,0l0,0l0,0c33.6,0,61.9-6.2,80.5-21.5c1.6,3.8,3.2,7.6,5,11.1l0,0l0,0l0,0
		l0,0c-5.7,9.7-12.6,18.4-20.2,26.1l0,0l0,0c-49.3,49.7-133.7,61.4-184,72l0,0l0,0c0,0,0,0,0,0C49.2,425.1,49.2,425.2,49.2,425.2"/>
	<path class="st1" d="M49.3,425.2C49.3,425.2,49.2,425.2,49.3,425.2c-0.1-0.1-0.1-0.1-0.1-0.2C49.3,425.2,49.3,425.2,49.3,425.2
		 M233.1,353L233.1,353L233.1,353L233.1,353L233.1,353 M253.4,326.9L253.4,326.9L253.4,326.9L253.4,326.9"/>
	<path class="st1" d="M285.8,328.7l-0.1,0.2l0,0l0,0l0,0L285.8,328.7 M285.9,328.6l-0.1,0.1L285.9,328.6"/>
	<polyline class="st1" points="285.7,328.9 285.7,329 285.7,329 285.7,328.9 	"/>
	<path class="st1" d="M285.7,329c-0.4,0.8-0.8,1.5-1.2,2.3C284.9,330.5,285.3,329.7,285.7,329"/>
	<path class="st1" d="M285.7,329c-0.4,0.8-0.8,1.5-1.1,2.2l0,0.1C284.9,330.5,285.3,329.7,285.7,329L285.7,329"/>
	<path class="st1" d="M258.6,336.8L258.6,336.8L258.6,336.8L258.6,336.8 M258,335.9L258,335.9L258,335.9L258,335.9z"/>
	<path class="st1" d="M258.6,336.8L258.6,336.8L258.6,336.8z M258.6,336.8L258.6,336.8L258.6,336.8L258.6,336.8"/>
	<path class="st1" d="M204.7,531.8L204.7,531.8L204.7,531.8 M204.9,531.7L204.9,531.7L204.9,531.7 M205,531.6L205,531.6L205,531.6
		 M288,357.4c3.2,47.9-10.3,113.6-83,174.2c72.3-60.2,86-125.5,83.1-173.3C288.1,358,288,357.7,288,357.4"/>
	<path class="st1" d="M286.1,328.2c-0.1,0.1-0.2,0.3-0.2,0.4l0,0l0-0.1C285.9,328.5,286,328.3,286.1,328.2 M297.2,300L297.2,300
		L297.2,300L297.2,300"/>
	<path class="st1" d="M292.4,313.9c-1.6,4.2-3.5,8.3-5.3,12.1c-0.3,0.7-0.7,1.4-1,2.1C288.3,323.7,290.5,318.9,292.4,313.9"/>
	<path class="st1" d="M258.2,336.1c0.1,0.2,0.2,0.4,0.4,0.7l0,0C258.5,336.6,258.3,336.4,258.2,336.1"/>
	<path class="st1" d="M258.1,335.9c0.2,0.3,0.3,0.6,0.5,0.9l0,0c-0.1-0.2-0.2-0.4-0.4-0.6L258.1,335.9"/>
	<path class="st1" d="M296.3,72.4C283.8,49,270,29.8,270,29.8s-21.8,30.5-35.6,61.5L296.3,72.4 M246.2,200
		c11.8,25.9,23.8,51.2,23.8,67.1c0-19.4,17.8-52.7,31.4-84L246.2,200"/>
	<path class="st1" d="M290.3,227.2c13.8,6.4,35,19.5,35,40c19.6-35.2-4.4-70.4-15.4-83.7C303.5,198.1,296.2,213.2,290.3,227.2"/>
	<path class="st1" d="M249.7,227.2c-13.8,6.4-35,19.5-35,40c-19.6-35.2,4.4-70.4,15.4-83.7C236.5,198.1,243.8,213.2,249.7,227.2"/>
	<path class="st1" d="M300,283.1c0-16.6-7-31-17.1-37.7c-1.4,2.7-3,6.4-4.6,10.5c6.5,4.4,11,13.7,11,24.4c0,15-15.8,44.4-19.5,44.4
		c-3.7,0-19.5-29.4-19.5-44.4c0-11.1,4.8-20.6,11.6-24.8c0.1,0.2,0.2,0.5,0.3,0.7c-1.6-4.5-3.2-8.6-4.6-11.4
		c-10.5,6.5-17.8,21.2-17.8,38.2c0,23.1,24.3,68.4,30,68.4C275.7,351.4,300,306.2,300,283.1"/>
	<path class="st3" d="M455.1,466.6c-0.1-0.2-0.1-0.2-0.1-0.4c-27.2-114.6-99-167.4-154.9-181.5c0,0,0-0.1,0-0.1c0-0.5,0-1,0-1.5l0,0
		l0,0l0,0c0-10-2.5-19.1-6.7-26.3c0,0,0,0,0,0c0,0,0-0.1-0.1-0.1c-2.8-4.8-6.3-8.6-10.3-11.3c0,0.1-0.1,0.1-0.1,0.2
		c-4.9,9.7-12.8,32.3-12.8,41.8c0-6.9-3.8-20.4-7.6-31.1c0,0,0,0,0,0l0,0l0,0c-1.6-4.5-3.2-8.6-4.6-11.4l0,0c0,0,0,0,0,0
		c-10.5,6.5-17.8,21.2-17.8,38.2c0,6.8,2.1,15.6,5.3,24.5c1,2.7,2,5.5,3.1,8.2c-18.6,15.3-46.8,21.5-80.5,21.5l0,0l0,0
		c-0.2,0-0.3,0-0.5,0c-47.9-0.1-106.8-12.6-164.7-29.2l0,0c0,0,0,0,0,0c0,0.1,0,0.1,0,0.2c0,0,0,0.1,0,0.1c0,0-0.1-0.6-0.4-2
		C0.8,294.4,0,282.3,0,270C0,120.9,120.9,0,270,0s270,120.9,270,270c0,74.1-29.9,141.3-78.3,190.1
		C459.6,462.3,457.3,464.4,455.1,466.6 M309.9,183.5c-6.4,14.7-13.7,29.8-19.6,43.7c13.8,6.4,35,19.5,35,40
		C344.9,231.9,320.9,196.7,309.9,183.5 M301.4,183.1L246.2,200c11.8,25.9,23.8,51.2,23.8,67.1C270,247.7,287.8,214.4,301.4,183.1
		 M230.1,183.5c-10.9,13.2-35,48.4-15.4,83.7c0-20.5,21.2-33.6,35-40C243.8,213.2,236.5,198.1,230.1,183.5 M296.6,72.3l-62.2,19
		c-6.3,14.3-11,28.6-11,40.1c0,18,11.3,43.5,22.8,68.6l55.6-17c8.4-19.3,15.1-37.7,15.1-51.6C317,114.7,307.2,92,296.6,72.3
		 M270,29.8c0,0-21.8,30.5-35.6,61.5l61.9-18.9C283.8,49,270,29.8,270,29.8"/>
	<path class="st1" d="M167.9,337.2L167.9,337.2L167.9,337.2L167.9,337.2 M2.8,308.3c0-0.1,0-0.1,0-0.2c0,0,0,0,0,0
		C2.8,308.2,2.8,308.2,2.8,308.3"/>
	<path class="st1" d="M270,267.1c0-15.9-12-41.3-23.8-67.1l55.2-16.9C287.8,214.4,270,247.7,270,267.1 M234.4,91.3
		C248.2,60.3,270,29.8,270,29.8s13.7,19.2,26.3,42.5L234.4,91.3"/>
	<path class="st1" d="M325.3,267.1c0-20.5-21.2-33.6-35-40c5.9-13.9,13.2-29,19.6-43.7C320.9,196.7,344.9,231.9,325.3,267.1"/>
	<path class="st1" d="M214.7,267.1c-19.6-35.2,4.4-70.4,15.4-83.7c6.4,14.7,13.7,29.8,19.6,43.7
		C235.9,233.5,214.7,246.6,214.7,267.1"/>
	<path class="st1" d="M248.4,315.8c-1.1-2.7-2.2-5.4-3.1-8.2C246.3,310.3,247.3,313.1,248.4,315.8
		C248.4,315.8,248.4,315.8,248.4,315.8 M300,284.7L300,284.7c0,0,0-0.1,0-0.1C300,284.6,300,284.7,300,284.7 M293.4,256.8
		C293.4,256.8,293.4,256.8,293.4,256.8C293.4,256.8,293.4,256.8,293.4,256.8 M293.3,256.7c-2.8-4.8-6.3-8.6-10.3-11.3
		c0,0.1-0.1,0.1-0.1,0.2c0-0.1,0.1-0.1,0.1-0.2C287,248,290.5,251.9,293.3,256.7 M262.5,256.3C262.5,256.3,262.5,256.2,262.5,256.3
		c-1.6-4.6-3.2-8.6-4.6-11.4l0,0C259.2,247.7,260.9,251.7,262.5,256.3"/>
</g>
</svg>
