<?xml version="1.0" encoding="utf-8"?>
<!-- Generator: Adobe Illustrator 27.9.0, SVG Export Plug-In . SVG Version: 6.00 Build 0)  -->
<svg version="1.1" id="Layer_1" xmlns="http://www.w3.org/2000/svg" xmlns:xlink="http://www.w3.org/1999/xlink" x="0px" y="0px"
	 viewBox="0 0 539.9 539.9" style="enable-background:new 0 0 539.9 539.9;" xml:space="preserve">
<style type="text/css">
	.st0{fill:#00B5E2;}
	.st1{fill:#00000A;}
</style>
<g>
	<path class="st0" d="M364,233L465.8,91.3c-5.3-13.2-18.3-22.6-33.4-22.6H338l-43.3,65.7L364,233L364,233z M367.3,292.7l-74.5,104
		l44.6,69h94.9c18.4,0,33.4-13.8,35.6-31.6l-0.3-0.5L367.3,292.7L367.3,292.7z"/>
	<path class="st1" d="M468,434c0.2-1.5,0.4-2.9,0.4-4.4V104.8c0-4.8-1-9.3-2.7-13.5L364,233l-69.3-98.5L338,68.7H196.7l138.4,196.8
		L191.6,465.7h145.8l-44.6-69l74.5-104L468,434L468,434z M73,95c-0.9,3.1-1.5,6.4-1.5,9.8v324.8c0,1.6,0.3,3.1,0.5,4.6l120.9-168.7
		L73,95L73,95z"/>
	<path class="st1" d="M539.9,443.7V96.2c0-53.2-43.1-96.2-96.2-96.2H96.2C43.1,0,0,43.1,0,96.2v347.4c0,53.2,43.1,96.2,96.2,96.2
		h347.4C496.8,539.9,539.9,496.8,539.9,443.7L539.9,443.7z M512.1,437.7c0,41.1-33.3,74.4-74.4,74.4H102.2
		c-41.1,0-74.4-33.3-74.4-74.4V102.2c0-41.1,33.3-74.4,74.4-74.4h335.5c41.1,0,74.4,33.3,74.4,74.4V437.7L512.1,437.7z"/>
</g>
</svg>
