<?xml version="1.0" encoding="utf-8"?>
<!-- Generator: Adobe Illustrator 26.0.1, SVG Export Plug-In . SVG Version: 6.00 Build 0)  -->
<svg version="1.1" id="Layer_1" xmlns="http://www.w3.org/2000/svg" xmlns:xlink="http://www.w3.org/1999/xlink" x="0px" y="0px"
	 viewBox="0 0 720 100.5" style="enable-background:new 0 0 720 100.5;" xml:space="preserve">
<style type="text/css">
	.st0{fill:#FE5000;}
	.st1{fill:#00C1D4;}
	.st2{fill:#8AD4E1;}
	.st3{fill:#BEE5ED;}
</style>
<g>
	<path class="st0" d="M227.5,57.9c-0.7,0-1.3,0.2-1.8,0.7c-0.5,0.5-0.7,1.1-0.7,1.8v36.3c0,0.7,0.2,1.3,0.7,1.8
		c0.5,0.5,1.1,0.7,1.8,0.7h2.6c0.4,0,0.9-0.1,1.3-0.3c0.4-0.2,0.7-0.5,1-0.9c0.2-0.4,0.4-0.8,0.4-1.3V60.5c0-0.7-0.3-1.3-0.8-1.8
		c-0.5-0.5-1.1-0.7-1.8-0.7H227.5L227.5,57.9z M269.9,57.9c-0.7,0-1.3,0.3-1.8,0.8c-0.5,0.5-0.7,1.1-0.7,1.8V81
		c0,0.2-0.1,0.4-0.4,0.5c-0.3,0.1-0.5,0.1-0.6-0.1l-22.8-24.1c-0.4-0.4-0.8-0.4-1.2-0.2c-0.5,0.2-0.7,0.5-0.7,1v38.6
		c0,0.7,0.2,1.3,0.7,1.8c0.5,0.5,1.1,0.8,1.8,0.8h2.6c0.7,0,1.3-0.3,1.8-0.8c0.5-0.5,0.8-1.1,0.8-1.8V76.2c0-0.3,0.1-0.5,0.4-0.6
		c0.2-0.1,0.5,0,0.7,0.1l22.8,24c0.2,0.2,0.5,0.4,0.8,0.4c0.2,0,0.3,0,0.4-0.1c0.5-0.2,0.7-0.5,0.7-1V60.6c0-0.7-0.3-1.3-0.8-1.8
		c-0.5-0.5-1.1-0.8-1.8-0.8H269.9L269.9,57.9z M283.7,57.9c-0.7,0-1.3,0.2-1.8,0.7c-0.5,0.5-0.8,1.1-0.8,1.8v36.3
		c0,0.7,0.3,1.3,0.8,1.8c0.5,0.5,1.1,0.7,1.8,0.7h2.5c0.7,0,1.3-0.2,1.8-0.7c0.5-0.5,0.8-1.1,0.8-1.8V86.6c0-0.4,0.2-0.6,0.6-0.6h12
		c0.7,0,1.3-0.3,1.8-0.8c0.5-0.5,0.8-1.1,0.8-1.8v-2.5c0-0.7-0.3-1.3-0.8-1.8c-0.5-0.5-1.1-0.8-1.8-0.8h-12c-0.4,0-0.6-0.2-0.6-0.6
		V66.2c0-0.4,0.2-0.6,0.6-0.6h15.7c0.7,0,1.3-0.3,1.8-0.8c0.5-0.5,0.8-1.1,0.8-1.8v-2.6c0-0.4-0.1-0.9-0.4-1.3c-0.2-0.4-0.6-0.7-1-1
		c-0.4-0.2-0.8-0.3-1.3-0.3H283.7L283.7,57.9z M316.3,57.9c-0.7,0-1.3,0.2-1.8,0.7c-0.5,0.5-0.7,1.1-0.7,1.8v36.3
		c0,0.7,0.2,1.3,0.7,1.8c0.5,0.5,1.1,0.7,1.8,0.7h2.6c0.7,0,1.3-0.2,1.8-0.7c0.5-0.5,0.8-1.1,0.8-1.8v-6.1c0-0.4,0.2-0.6,0.6-0.6
		h4.1c0.3,0,0.6,0,0.8,0c0.2,0,0.4,0.1,0.5,0.2l5.7,8c0.5,0.7,1.2,1.1,2.1,1.1h3.2c0.9,0,1.6-0.3,2.1-1c0.8-1,0.8-2.1,0.1-3.1
		l-5.2-7.4c-0.2-0.4-0.1-0.6,0.2-0.8c2.1-1.5,3.7-3.4,4.9-5.7c1.2-2.3,1.8-4.7,1.8-7.3v-0.8c0-4.2-1.5-7.8-4.5-10.8
		c-3-3-6.6-4.5-10.9-4.5H316.3L316.3,57.9z M334.5,74.4c0,2.4-0.9,4.4-2.6,6.1c-1.7,1.7-3.8,2.6-6.1,2.6h-3.8
		c-0.4,0-0.6-0.2-0.6-0.6V65.4c0-0.4,0.2-0.6,0.6-0.6h4.2c2.3,0,4.3,0.8,5.9,2.4c1.6,1.6,2.4,3.6,2.4,5.8V74.4L334.5,74.4z
		 M367.1,56.2c-0.6,0-1,0.3-1.2,0.8l-17.5,38.6c-0.5,1.2-0.3,2.2,0.7,3c0.5,0.5,1.1,0.7,1.9,0.7h2.5c1.2,0,2-0.6,2.5-1.7l1.7-4.1
		c0.1-0.3,0.3-0.4,0.5-0.4H376c0.2,0,0.4,0.1,0.5,0.4l1.7,4.1c0.4,1.1,1.3,1.7,2.5,1.7h2.4c0.8,0,1.4-0.2,2-0.7
		c0.9-0.9,1.1-1.9,0.7-3l-17.5-38.6C368.1,56.4,367.7,56.2,367.1,56.2L367.1,56.2z M361.5,85.7c-0.2,0-0.3-0.1-0.3-0.2
		c-0.1-0.1-0.1-0.2,0-0.4l5.5-12.9c0.1-0.2,0.2-0.2,0.4-0.2s0.3,0.1,0.3,0.2l5.6,12.9c0.1,0.1,0.1,0.2,0,0.4
		c-0.1,0.1-0.2,0.2-0.3,0.2H361.5L361.5,85.7z M409.3,75.1c-2.1-0.9-3.7-1.6-4.6-2.1c-3.1-1.8-4.4-3.7-3.9-5.5
		c0.3-0.9,0.8-1.6,1.6-2.3c0.8-0.6,1.5-1,2.1-1c1.6-0.1,2.8,0,3.7,0.3c0.9,0.3,1.9,1,3.1,2c0.5,0.4,1,0.7,1.7,0.7
		c0.6,0,1.2-0.1,1.7-0.5l1.6-1.3c0.6-0.5,1-1.1,1-1.9c0-0.8-0.2-1.5-0.8-2.1c-3.2-3-7.2-4.5-11.9-4.5c-2.4,0-4.6,0.8-6.6,2.4
		c-2,1.6-3.3,3.6-4.1,6.2c-0.4,1.4-0.6,2.7-0.4,4c0.1,1.3,0.4,2.4,0.8,3.4c0.4,1,0.9,1.9,1.7,2.8c0.8,0.9,1.5,1.6,2.3,2.3
		c0.8,0.6,1.6,1.2,2.5,1.7c1.2,0.8,3.1,1.6,5.6,2.7c2.9,1.2,4.7,2.1,5.5,2.9c0.8,0.8,1.2,1.9,1,3.4c-0.1,1-0.4,1.9-0.9,2.7
		c-0.5,0.7-1.2,1.2-2,1.5c-0.8,0.3-1.4,0.5-2,0.6c-0.5,0.1-1.1,0.1-1.6,0.1c-3.1,0-5.9-1.4-8.4-4.3c-0.4-0.5-1-0.8-1.7-0.9
		c-0.7-0.1-1.3,0.1-1.8,0.4l-1.5,1.1c-0.6,0.4-1,1-1.1,1.7c-0.1,0.8,0,1.4,0.5,2c1,1.3,2.1,2.4,3.3,3.4c1.2,1,2.2,1.7,3.2,2.1
		c0.9,0.5,1.9,0.8,3.1,1c1.2,0.2,2,0.4,2.5,0.4c0.5,0,1.2,0.1,1.9,0.1c0.8,0,1.8-0.1,2.8-0.3c1-0.2,2.2-0.5,3.5-1.1
		c1.3-0.5,2.5-1.2,3.5-2c1.1-0.8,2-1.9,2.8-3.3c0.8-1.4,1.3-3,1.5-4.8c0.1-1.2,0.1-2.4-0.1-3.5c-0.2-1.1-0.5-2.1-0.8-2.9
		c-0.4-0.8-0.9-1.6-1.6-2.3c-0.7-0.8-1.3-1.4-1.9-1.8c-0.6-0.5-1.4-0.9-2.3-1.5c-1-0.5-1.7-0.9-2.2-1.1c-0.5-0.2-1.3-0.5-2.2-0.9
		L409.3,75.1L409.3,75.1z M429.2,57.9c-0.7,0-1.3,0.2-1.8,0.7c-0.5,0.5-0.7,1.1-0.7,1.8v2.4c0,0.7,0.2,1.3,0.7,1.8
		c0.5,0.5,1.1,0.8,1.8,0.8h8.9c0.4,0,0.6,0.2,0.6,0.6v30.7c0,0.7,0.3,1.3,0.8,1.8c0.5,0.5,1.1,0.7,1.8,0.7h2.6
		c0.7,0,1.3-0.2,1.8-0.7c0.5-0.5,0.7-1.1,0.7-1.8V66.1c0-0.4,0.2-0.6,0.6-0.6h8.9c0.7,0,1.3-0.3,1.8-0.8c0.5-0.5,0.8-1.1,0.8-1.8
		v-2.4c0-0.7-0.3-1.3-0.8-1.8c-0.5-0.5-1.1-0.7-1.8-0.7H429.2L429.2,57.9z M467.1,57.9c-0.7,0-1.3,0.2-1.8,0.7
		c-0.5,0.5-0.7,1.1-0.7,1.8v36.3c0,0.7,0.2,1.3,0.7,1.8c0.5,0.5,1.1,0.7,1.8,0.7h2.6c0.7,0,1.3-0.2,1.8-0.7c0.5-0.5,0.8-1.1,0.8-1.8
		v-6.1c0-0.4,0.2-0.6,0.6-0.6h4.1c0.3,0,0.6,0,0.8,0c0.2,0,0.4,0.1,0.5,0.2l5.7,8c0.5,0.7,1.2,1.1,2.1,1.1h3.2c0.9,0,1.6-0.3,2.1-1
		c0.8-1,0.8-2.1,0.1-3.1l-5.2-7.4c-0.2-0.4-0.1-0.6,0.2-0.8c2.1-1.5,3.7-3.4,4.9-5.7c1.2-2.3,1.8-4.7,1.8-7.3v-0.8
		c0-4.2-1.5-7.8-4.5-10.8c-3-3-6.6-4.5-10.9-4.5H467.1L467.1,57.9z M485.4,74.4c0,2.4-0.9,4.4-2.6,6.1c-1.7,1.7-3.8,2.6-6.1,2.6
		h-3.8c-0.4,0-0.6-0.2-0.6-0.6V65.4c0-0.4,0.2-0.6,0.6-0.6h4.2c2.3,0,4.3,0.8,5.9,2.4c1.6,1.6,2.4,3.6,2.4,5.8V74.4L485.4,74.4z
		 M525.9,57.9c-0.7,0-1.3,0.2-1.8,0.7c-0.5,0.5-0.8,1.1-0.8,1.8v24.4c0,2-0.7,3.8-2.1,5.2c-1.4,1.4-3.2,2.1-5.2,2.1h-2.1
		c-2,0-3.8-0.7-5.2-2.1c-1.4-1.4-2.1-3.2-2.1-5.2V60.5c0-0.7-0.3-1.3-0.8-1.8c-0.5-0.5-1.1-0.7-1.8-0.7h-2.3c-0.7,0-1.3,0.2-1.8,0.7
		c-0.5,0.5-0.8,1.1-0.8,1.8V85c0,3.9,1.4,7.3,4.2,10.1c2.8,2.8,6.2,4.2,10.2,4.2h3c4,0,7.4-1.4,10.2-4.2c2.8-2.8,4.2-6.2,4.2-10.1
		V60.5c0-0.7-0.3-1.3-0.8-1.8c-0.5-0.5-1.1-0.7-1.8-0.7H525.9L525.9,57.9z M571.3,87.5c-0.6-0.4-1.2-0.6-1.9-0.5
		c-0.7,0.1-1.3,0.3-1.7,0.9c-0.8,1-1.8,1.8-2.8,2.5c-1,0.7-2.1,1.2-3.3,1.6c-1.2,0.4-2.4,0.5-3.7,0.5c-3.6,0-6.7-1.4-9.3-4.1
		c-2.6-2.7-3.9-6-3.9-9.8s1.3-7.1,3.9-9.8c2.6-2.7,5.7-4.1,9.3-4.1c3.7,0,6.8,1.4,9.4,4.1c0.5,0.5,1,0.8,1.7,0.8
		c0.7,0,1.2-0.2,1.8-0.6l2.1-1.6c0.6-0.5,0.9-1.1,1-1.8c0.1-0.8-0.1-1.4-0.7-2c-2-2.1-4.4-3.7-7-4.9c-2.6-1.1-5.4-1.7-8.3-1.7
		c-3.8,0-7.3,1-10.6,2.9c-3.2,1.9-5.8,4.5-7.7,7.8c-1.9,3.3-2.8,6.9-2.8,10.8c0,3.9,0.9,7.5,2.8,10.8c1.9,3.3,4.4,5.9,7.7,7.8
		c3.2,1.9,6.8,2.9,10.6,2.9c3,0,5.9-0.6,8.7-1.9c2.8-1.3,5.2-3,7.2-5.3c0.4-0.6,0.6-1.2,0.6-1.9c-0.1-0.7-0.4-1.3-1-1.8L571.3,87.5
		L571.3,87.5z M582.8,57.9c-0.7,0-1.3,0.2-1.8,0.7c-0.5,0.5-0.7,1.1-0.7,1.8v2.4c0,0.7,0.2,1.3,0.7,1.8c0.5,0.5,1.1,0.8,1.8,0.8h8.9
		c0.4,0,0.6,0.2,0.6,0.6v30.7c0,0.7,0.3,1.3,0.8,1.8c0.5,0.5,1.1,0.7,1.8,0.7h2.6c0.7,0,1.3-0.2,1.8-0.7c0.5-0.5,0.7-1.1,0.7-1.8
		V66.1c0-0.4,0.2-0.6,0.6-0.6h8.9c0.7,0,1.3-0.3,1.8-0.8c0.5-0.5,0.8-1.1,0.8-1.8v-2.4c0-0.7-0.3-1.3-0.8-1.8
		c-0.5-0.5-1.1-0.7-1.8-0.7H582.8L582.8,57.9z M645,57.9c-0.7,0-1.3,0.2-1.8,0.7c-0.5,0.5-0.8,1.1-0.8,1.8v24.4c0,2-0.7,3.8-2.1,5.2
		c-1.4,1.4-3.2,2.1-5.2,2.1H633c-2,0-3.8-0.7-5.2-2.1c-1.4-1.4-2.1-3.2-2.1-5.2V60.5c0-0.7-0.3-1.3-0.8-1.8
		c-0.5-0.5-1.1-0.7-1.8-0.7h-2.3c-0.7,0-1.3,0.2-1.8,0.7c-0.5,0.5-0.8,1.1-0.8,1.8V85c0,3.9,1.4,7.3,4.2,10.1s6.2,4.2,10.2,4.2h3
		c4,0,7.4-1.4,10.2-4.2c2.8-2.8,4.2-6.2,4.2-10.1V60.5c0-0.7-0.3-1.3-0.8-1.8c-0.5-0.5-1.1-0.7-1.8-0.7H645L645,57.9z M661.4,57.9
		c-0.7,0-1.3,0.2-1.8,0.7c-0.5,0.5-0.7,1.1-0.7,1.8v36.3c0,0.7,0.2,1.3,0.7,1.8c0.5,0.5,1.1,0.7,1.8,0.7h2.6c0.7,0,1.3-0.2,1.8-0.7
		c0.5-0.5,0.8-1.1,0.8-1.8v-6.1c0-0.4,0.2-0.6,0.6-0.6h4.1c0.3,0,0.6,0,0.8,0c0.2,0,0.4,0.1,0.5,0.2l5.7,8c0.5,0.7,1.2,1.1,2.1,1.1
		h3.2c0.9,0,1.6-0.3,2.1-1c0.8-1,0.8-2.1,0.1-3.1l-5.2-7.4c-0.2-0.4-0.1-0.6,0.2-0.8c2.1-1.5,3.7-3.4,4.9-5.7
		c1.2-2.3,1.8-4.7,1.8-7.3v-0.8c0-4.2-1.5-7.8-4.5-10.8c-3-3-6.6-4.5-10.9-4.5H661.4L661.4,57.9z M679.7,74.4c0,2.4-0.9,4.4-2.6,6.1
		c-1.7,1.7-3.8,2.6-6.1,2.6h-3.8c-0.4,0-0.6-0.2-0.6-0.6V65.4c0-0.4,0.2-0.6,0.6-0.6h4.2c2.3,0,4.3,0.8,5.9,2.4
		c1.6,1.6,2.4,3.6,2.4,5.8V74.4L679.7,74.4z M695.9,57.9c-0.7,0-1.3,0.2-1.8,0.7c-0.5,0.5-0.7,1.1-0.7,1.8v36.3
		c0,0.7,0.2,1.3,0.7,1.8s1.1,0.7,1.8,0.7h21.5c0.7,0,1.3-0.2,1.8-0.7c0.5-0.5,0.8-1.1,0.8-1.8v-2.6c0-0.7-0.3-1.3-0.8-1.8
		c-0.5-0.5-1.1-0.8-1.8-0.8h-15.7c-0.4,0-0.6-0.2-0.6-0.6v-4.4c0-0.4,0.2-0.6,0.6-0.6h12c0.7,0,1.3-0.2,1.8-0.7
		c0.5-0.5,0.8-1.1,0.8-1.8v-2.6c0-0.7-0.3-1.3-0.8-1.8c-0.5-0.5-1.1-0.8-1.8-0.8h-12c-0.4,0-0.6-0.2-0.6-0.6V66.2
		c0-0.4,0.2-0.6,0.6-0.6h15.7c0.7,0,1.3-0.3,1.8-0.8c0.5-0.5,0.8-1.1,0.8-1.8v-2.6c0-0.7-0.3-1.3-0.8-1.8c-0.5-0.5-1.1-0.7-1.8-0.7
		H695.9L695.9,57.9z"/>
	<path class="st1" d="M248.7,33.4c-0.4-0.3-0.9-0.4-1.4-0.4c-0.5,0-0.9,0.3-1.2,0.6c-0.6,0.7-1.3,1.3-2.1,1.8
		c-0.8,0.5-1.6,0.9-2.4,1.2c-0.9,0.3-1.8,0.4-2.7,0.4c-2.6,0-4.9-1-6.8-3c-1.9-2-2.8-4.4-2.8-7.2c0-2.8,0.9-5.2,2.8-7.2
		c1.9-2,4.2-3,6.8-3c2.7,0,5,1,6.9,3c0.3,0.4,0.8,0.6,1.2,0.6c0.5,0,0.9-0.1,1.3-0.4l1.5-1.2c0.4-0.3,0.7-0.8,0.7-1.4
		c0.1-0.6-0.1-1-0.5-1.4c-1.5-1.5-3.2-2.7-5.1-3.6c-1.9-0.8-3.9-1.2-6.1-1.2c-2.8,0-5.4,0.7-7.7,2.1c-2.4,1.4-4.2,3.3-5.6,5.7
		c-1.4,2.4-2.1,5-2.1,7.9c0,2.9,0.7,5.5,2.1,7.9c1.4,2.4,3.3,4.3,5.6,5.7c2.4,1.4,5,2.1,7.7,2.1c2.2,0,4.3-0.5,6.3-1.4
		c2-0.9,3.8-2.2,5.3-3.9c0.3-0.4,0.5-0.9,0.4-1.4c-0.1-0.5-0.3-1-0.7-1.3L248.7,33.4L248.7,33.4z M257.4,19c-1.4,2.4-2.1,5-2.1,7.9
		c0,2.9,0.7,5.5,2.1,7.9c1.4,2.4,3.3,4.3,5.7,5.7c2.4,1.4,5,2.1,7.9,2.1c2.8,0,5.5-0.7,7.9-2.1c2.4-1.4,4.3-3.3,5.7-5.7
		c1.4-2.4,2.1-5,2.1-7.9c0-2.8-0.7-5.5-2.1-7.9c-1.4-2.4-3.3-4.3-5.7-5.7c-2.4-1.4-5-2.1-7.9-2.1c-2.8,0-5.5,0.7-7.9,2.1
		C260.7,14.6,258.8,16.6,257.4,19L257.4,19z M271,37c-2.7,0-5-1-6.9-3c-1.9-2-2.9-4.4-2.9-7.2c0-2.8,1-5.2,2.9-7.2
		c1.9-2,4.2-3,6.9-3c2.7,0,5,1,7,3c1.9,2,2.9,4.4,2.9,7.2c0,2.8-1,5.2-2.9,7.2C276,36,273.7,37,271,37L271,37z M317.8,11.5
		l-10.9,16.4c-0.1,0.1-0.2,0.2-0.4,0.2c-0.2,0-0.3-0.1-0.4-0.2l-10.4-16.4c-0.2-0.3-0.5-0.5-0.9-0.4c-0.4,0.1-0.6,0.3-0.6,0.7
		l-3.2,28.1c-0.1,0.6,0.1,1,0.5,1.5c0.4,0.4,0.8,0.6,1.4,0.6h1.7c0.5,0,0.9-0.2,1.2-0.5c0.4-0.3,0.6-0.7,0.6-1.2l1.5-13.8
		c0-0.2,0.1-0.3,0.3-0.4c0.2-0.1,0.4,0,0.5,0.2l6.9,10.8c0.2,0.2,0.4,0.3,0.7,0.3c0.3,0,0.5-0.1,0.7-0.3l6.9-10.8
		c0.1-0.2,0.3-0.2,0.5-0.2c0.2,0,0.3,0.2,0.3,0.4l1.4,13.7c0,0.3,0.1,0.6,0.3,0.9c0.2,0.3,0.4,0.5,0.7,0.6c0.3,0.1,0.6,0.2,0.9,0.2
		h1.8c0.6,0,1.1-0.2,1.4-0.6c0.4-0.4,0.5-0.9,0.5-1.4l-2.7-28.1c-0.1-0.4-0.3-0.7-0.6-0.7C318.2,11,318,11.1,317.8,11.5L317.8,11.5
		L317.8,11.5z M329.5,11.7c-0.5,0-1,0.2-1.3,0.5c-0.4,0.4-0.5,0.8-0.5,1.3v26.6c0,0.5,0.2,1,0.5,1.3c0.4,0.4,0.8,0.5,1.3,0.5h1.9
		c0.5,0,1-0.2,1.4-0.5c0.4-0.4,0.6-0.8,0.6-1.3v-4.5c0-0.3,0.1-0.4,0.4-0.4h3c3.3,0,6-1.1,8.3-3.4c2.3-2.3,3.4-5.1,3.4-8.3v-0.6
		c0-3.1-1.1-5.7-3.3-7.9c-2.2-2.2-4.9-3.3-8-3.3H329.5L329.5,11.7z M342.8,23.8c0,1.7-0.6,3.2-1.9,4.5c-1.3,1.3-2.7,1.9-4.5,1.9
		h-2.7c-0.3,0-0.4-0.1-0.4-0.4V17.2c0-0.3,0.1-0.4,0.4-0.4h3.1c1.1,0,2.1,0.3,3.1,0.8c0.9,0.5,1.7,1.3,2.2,2.2
		c0.5,0.9,0.8,1.9,0.8,3.1V23.8L342.8,23.8z M359.2,36.3c-0.2,0-0.4-0.1-0.5-0.2c-0.1-0.1-0.2-0.3-0.2-0.5V13.6
		c0-0.3-0.1-0.5-0.2-0.7c-0.1-0.2-0.2-0.4-0.4-0.6c-0.2-0.2-0.4-0.3-0.6-0.4c-0.2-0.1-0.5-0.1-0.7-0.1h-1.9c-0.5,0-1,0.2-1.3,0.5
		c-0.4,0.4-0.5,0.8-0.5,1.3v26.6c0,0.5,0.2,1,0.5,1.3c0.4,0.4,0.8,0.5,1.3,0.5h14.8c0.5,0,1-0.2,1.3-0.5c0.4-0.4,0.5-0.8,0.5-1.3
		v-1.9c0-0.5-0.2-1-0.5-1.4c-0.4-0.4-0.8-0.6-1.3-0.6H359.2L359.2,36.3z M379.8,11.7c-0.5,0-1,0.2-1.3,0.5c-0.4,0.4-0.5,0.8-0.5,1.3
		v26.6c0,0.5,0.2,1,0.5,1.3c0.4,0.4,0.8,0.5,1.3,0.5h1.9c0.3,0,0.6-0.1,0.9-0.2c0.3-0.2,0.5-0.4,0.7-0.7c0.2-0.3,0.3-0.6,0.3-1V13.6
		c0-0.5-0.2-1-0.6-1.3c-0.4-0.4-0.8-0.5-1.3-0.5H379.8L379.8,11.7z M404,10.4c-0.4,0-0.7,0.2-0.9,0.6l-12.8,28.3
		c-0.4,0.8-0.2,1.6,0.5,2.2c0.3,0.3,0.8,0.5,1.4,0.5h1.8c0.9,0,1.5-0.4,1.8-1.2l1.3-3c0.1-0.2,0.2-0.3,0.4-0.3h13
		c0.2,0,0.3,0.1,0.4,0.3l1.3,3c0.3,0.8,0.9,1.2,1.8,1.2h1.8c0.6,0,1.1-0.2,1.4-0.5c0.7-0.6,0.8-1.4,0.5-2.2L404.9,11
		C404.7,10.6,404.4,10.4,404,10.4L404,10.4z M399.9,32.1c-0.1,0-0.2,0-0.2-0.1c0-0.1-0.1-0.2,0-0.3l4.1-9.5c0.1-0.1,0.1-0.2,0.3-0.2
		c0.1,0,0.2,0.1,0.2,0.2l4.1,9.5c0.1,0.1,0.1,0.2,0,0.3c-0.1,0.1-0.1,0.1-0.2,0.1H399.9L399.9,32.1z M442.9,11.7
		c-0.5,0-1,0.2-1.3,0.6c-0.4,0.4-0.5,0.8-0.5,1.4v14.9c0,0.2-0.1,0.3-0.3,0.4c-0.2,0.1-0.3,0.1-0.5-0.1l-16.7-17.6
		c-0.3-0.3-0.6-0.3-0.9-0.2c-0.3,0.1-0.5,0.4-0.5,0.7v28.3c0,0.5,0.2,1,0.5,1.4c0.4,0.4,0.8,0.6,1.3,0.6h1.9c0.5,0,1-0.2,1.4-0.6
		c0.4-0.4,0.6-0.8,0.6-1.4v-15c0-0.2,0.1-0.3,0.3-0.4c0.2-0.1,0.3,0,0.5,0.1l16.7,17.6c0.2,0.2,0.4,0.3,0.6,0.3c0.1,0,0.2,0,0.3-0.1
		c0.3-0.1,0.5-0.4,0.5-0.7V13.6c0-0.5-0.2-1-0.6-1.4c-0.4-0.4-0.8-0.6-1.4-0.6H442.9L442.9,11.7z M452.9,11.7c-0.5,0-1,0.2-1.3,0.5
		c-0.4,0.4-0.5,0.8-0.5,1.3v1.7c0,0.5,0.2,1,0.5,1.4c0.4,0.4,0.8,0.6,1.3,0.6h6.5c0.3,0,0.4,0.1,0.4,0.4v22.5c0,0.5,0.2,1,0.6,1.3
		c0.4,0.4,0.8,0.5,1.4,0.5h1.9c0.5,0,1-0.2,1.3-0.5c0.4-0.4,0.5-0.8,0.5-1.3V17.7c0-0.3,0.1-0.4,0.4-0.4h6.5c0.5,0,1-0.2,1.4-0.6
		c0.4-0.4,0.6-0.8,0.6-1.4v-1.7c0-0.5-0.2-1-0.6-1.3c-0.4-0.4-0.8-0.5-1.4-0.5H452.9L452.9,11.7z M495.5,11.7c-0.5,0-1,0.2-1.4,0.5
		c-0.4,0.4-0.6,0.8-0.6,1.3v26.6c0,0.5,0.2,1,0.6,1.3c0.4,0.4,0.8,0.5,1.4,0.5h1.8c0.5,0,1-0.2,1.4-0.5c0.4-0.4,0.6-0.8,0.6-1.3
		v-7.4c0-0.3,0.1-0.4,0.4-0.4h8.8c0.5,0,1-0.2,1.4-0.6c0.4-0.4,0.6-0.8,0.6-1.4v-1.8c0-0.5-0.2-1-0.6-1.4c-0.4-0.4-0.8-0.6-1.4-0.6
		h-8.8c-0.3,0-0.4-0.1-0.4-0.4v-8.4c0-0.3,0.1-0.4,0.4-0.4h11.5c0.5,0,1-0.2,1.4-0.6c0.4-0.4,0.6-0.8,0.6-1.4v-1.9
		c0-0.3-0.1-0.6-0.3-0.9c-0.2-0.3-0.4-0.5-0.7-0.7c-0.3-0.2-0.6-0.2-1-0.2H495.5L495.5,11.7z M521.5,11.7c-0.5,0-1,0.2-1.3,0.5
		c-0.4,0.4-0.5,0.8-0.5,1.3v26.6c0,0.5,0.2,1,0.5,1.3c0.4,0.4,0.8,0.5,1.3,0.5h1.9c0.3,0,0.6-0.1,0.9-0.2c0.3-0.2,0.5-0.4,0.7-0.7
		c0.2-0.3,0.3-0.6,0.3-1V13.6c0-0.5-0.2-1-0.6-1.3c-0.4-0.4-0.8-0.5-1.3-0.5H521.5L521.5,11.7z M552.6,11.7c-0.5,0-1,0.2-1.3,0.6
		c-0.4,0.4-0.5,0.8-0.5,1.4v14.9c0,0.2-0.1,0.3-0.3,0.4c-0.2,0.1-0.3,0.1-0.5-0.1l-16.7-17.6c-0.3-0.3-0.6-0.3-0.9-0.2
		c-0.3,0.1-0.5,0.4-0.5,0.7v28.3c0,0.5,0.2,1,0.5,1.4c0.4,0.4,0.8,0.6,1.3,0.6h1.9c0.5,0,1-0.2,1.4-0.6c0.4-0.4,0.6-0.8,0.6-1.4v-15
		c0-0.2,0.1-0.3,0.3-0.4c0.2-0.1,0.3,0,0.5,0.1l16.7,17.6c0.2,0.2,0.4,0.3,0.6,0.3c0.1,0,0.2,0,0.3-0.1c0.3-0.1,0.5-0.4,0.5-0.7
		V13.6c0-0.5-0.2-1-0.6-1.4c-0.4-0.4-0.8-0.6-1.4-0.6H552.6L552.6,11.7z M574.6,10.4c-0.4,0-0.7,0.2-0.9,0.6l-12.8,28.3
		c-0.4,0.8-0.2,1.6,0.5,2.2c0.3,0.3,0.8,0.5,1.4,0.5h1.8c0.9,0,1.5-0.4,1.8-1.2l1.3-3c0.1-0.2,0.2-0.3,0.4-0.3h13
		c0.2,0,0.3,0.1,0.4,0.3l1.3,3c0.3,0.8,0.9,1.2,1.8,1.2h1.8c0.6,0,1.1-0.2,1.4-0.5c0.7-0.6,0.8-1.4,0.5-2.2L575.5,11
		C575.3,10.6,575,10.4,574.6,10.4L574.6,10.4z M570.5,32.1c-0.1,0-0.2,0-0.2-0.1c0-0.1-0.1-0.2,0-0.3l4.1-9.5
		c0.1-0.1,0.1-0.2,0.3-0.2c0.1,0,0.2,0.1,0.2,0.2l4.1,9.5c0.1,0.1,0.1,0.2,0,0.3c-0.1,0.1-0.1,0.1-0.2,0.1H570.5L570.5,32.1z
		 M613.5,11.7c-0.5,0-1,0.2-1.3,0.6c-0.4,0.4-0.5,0.8-0.5,1.4v14.9c0,0.2-0.1,0.3-0.3,0.4c-0.2,0.1-0.3,0.1-0.5-0.1l-16.7-17.6
		c-0.3-0.3-0.6-0.3-0.9-0.2c-0.3,0.1-0.5,0.4-0.5,0.7v28.3c0,0.5,0.2,1,0.5,1.4c0.4,0.4,0.8,0.6,1.3,0.6h1.9c0.5,0,1-0.2,1.4-0.6
		c0.4-0.4,0.6-0.8,0.6-1.4v-15c0-0.2,0.1-0.3,0.3-0.4c0.2-0.1,0.3,0,0.5,0.1l16.7,17.6c0.2,0.2,0.4,0.3,0.6,0.3c0.1,0,0.2,0,0.3-0.1
		c0.3-0.1,0.5-0.4,0.5-0.7V13.6c0-0.5-0.2-1-0.6-1.4c-0.4-0.4-0.8-0.6-1.4-0.6H613.5L613.5,11.7z M646.9,33.4
		c-0.4-0.3-0.9-0.4-1.4-0.4c-0.5,0-0.9,0.3-1.2,0.6c-0.6,0.7-1.3,1.3-2.1,1.8c-0.8,0.5-1.6,0.9-2.4,1.2c-0.9,0.3-1.8,0.4-2.7,0.4
		c-2.6,0-4.9-1-6.8-3c-1.9-2-2.8-4.4-2.8-7.2c0-2.8,0.9-5.2,2.8-7.2c1.9-2,4.2-3,6.8-3c2.7,0,5,1,6.9,3c0.3,0.4,0.8,0.6,1.2,0.6
		c0.5,0,0.9-0.1,1.3-0.4l1.5-1.2c0.4-0.3,0.7-0.8,0.7-1.4c0.1-0.6-0.1-1-0.5-1.4c-1.5-1.5-3.2-2.7-5.1-3.6c-1.9-0.8-3.9-1.2-6.1-1.2
		c-2.8,0-5.4,0.7-7.7,2.1c-2.4,1.4-4.2,3.3-5.6,5.7c-1.4,2.4-2.1,5-2.1,7.9c0,2.9,0.7,5.5,2.1,7.9c1.4,2.4,3.3,4.3,5.6,5.7
		c2.4,1.4,5,2.1,7.7,2.1c2.2,0,4.3-0.5,6.3-1.4c2-0.9,3.8-2.2,5.3-3.9c0.3-0.4,0.5-0.9,0.4-1.4c-0.1-0.5-0.3-1-0.7-1.3L646.9,33.4
		L646.9,33.4z M657.5,11.7c-0.5,0-1,0.2-1.3,0.5c-0.4,0.4-0.5,0.8-0.5,1.3v26.6c0,0.5,0.2,1,0.5,1.3c0.4,0.4,0.8,0.5,1.3,0.5h1.9
		c0.3,0,0.6-0.1,0.9-0.2c0.3-0.2,0.5-0.4,0.7-0.7c0.2-0.3,0.3-0.6,0.3-1V13.6c0-0.5-0.2-1-0.6-1.3c-0.4-0.4-0.8-0.5-1.3-0.5H657.5
		L657.5,11.7z M681.7,10.4c-0.4,0-0.7,0.2-0.9,0.6L668,39.3c-0.4,0.8-0.2,1.6,0.5,2.2c0.3,0.3,0.8,0.5,1.4,0.5h1.8
		c0.9,0,1.5-0.4,1.8-1.2l1.3-3c0.1-0.2,0.2-0.3,0.4-0.3h13c0.2,0,0.3,0.1,0.4,0.3l1.3,3c0.3,0.8,0.9,1.2,1.8,1.2h1.8
		c0.6,0,1.1-0.2,1.4-0.5c0.7-0.6,0.8-1.4,0.5-2.2L682.6,11C682.4,10.6,682.1,10.4,681.7,10.4L681.7,10.4z M677.6,32.1
		c-0.1,0-0.2,0-0.2-0.1c0-0.1-0.1-0.2,0-0.3l4.1-9.5c0.1-0.1,0.1-0.2,0.3-0.2c0.1,0,0.2,0.1,0.2,0.2l4.1,9.5c0.1,0.1,0.1,0.2,0,0.3
		c-0.1,0.1-0.1,0.1-0.2,0.1H677.6L677.6,32.1z M706.3,36.3c-0.2,0-0.4-0.1-0.5-0.2c-0.1-0.1-0.2-0.3-0.2-0.5V13.6
		c0-0.3-0.1-0.5-0.2-0.7c-0.1-0.2-0.2-0.4-0.4-0.6c-0.2-0.2-0.4-0.3-0.6-0.4c-0.2-0.1-0.5-0.1-0.7-0.1h-1.9c-0.5,0-1,0.2-1.3,0.5
		c-0.4,0.4-0.5,0.8-0.5,1.3v26.6c0,0.5,0.2,1,0.5,1.3c0.4,0.4,0.8,0.5,1.3,0.5h14.8c0.5,0,1-0.2,1.3-0.5c0.4-0.4,0.5-0.8,0.5-1.3
		v-1.9c0-0.5-0.2-1-0.5-1.4c-0.4-0.4-0.8-0.6-1.3-0.6H706.3L706.3,36.3z"/>
	<path class="st2" d="M121.9,54.4L121.9,54.4z M122.9,57.2L122.9,57.2z M124.8,66.7L124.8,66.7z M163.3,84.4
		c0-8.9-7.2-16.1-16.1-16.1c-0.6,0-1.2,0-1.8,0.1c0.1-0.8,0.1-1.7,0.1-2.5c0-17.3-12.4-31.6-28.7-34.2v13.7c1.9,2.5,4,6.5,3.5,5.7
		c9.4,3.8,16.1,13.1,16.1,24c0,0.6,0,1.3-0.1,1.9c0.4-0.1,0.9-0.1,1.4-0.1c6.6,0,12,5.4,12,12c0,5.8-4.2,10.7-9.7,11.8
		c0,0,6.6,0,7.1,0C156.1,100.5,163.3,93.3,163.3,84.4L163.3,84.4z"/>
	<path class="st0" d="M98.9,38.9c-4.6-2.2-9.6-3.4-14.8-3.4h-2.9c-5.2,0-10.2,1.1-14.8,3.4L64.2,40v-2.4v-7.8c0-4.9,1.9-9.5,5.4-13
		c3.5-3.5,8.1-5.4,13-5.4c10.2,0,18.4,8.3,18.4,18.4v7.8V40L98.9,38.9L98.9,38.9z M76.1,70.6c-2.6-2-4.2-5.2-4.2-8.5
		c0-5.9,4.8-10.7,10.7-10.7s10.7,4.8,10.7,10.7c0,3.3-1.5,6.3-4,8.3c1.3,3.3,2.6,6.7,3.9,10l0.8,2.1h-2.2H74.1h-2.1l0.7-2
		C73.8,77.2,74.9,73.9,76.1,70.6 M121.2,99V69.7c0-8.4-2.9-16.6-8.1-23.2V29.4C113.1,13.2,100,0,83.7,0h-2.2
		C65.3,0,52.1,13.2,52.1,29.4v17.1C46.9,53.1,44,61.3,44,69.7V99v1.5h1.5h74.2h1.5V99L121.2,99z"/>
	<path class="st1" d="M48.5,45.3L48.5,45.3z M48.5,43.2v-6.6c-0.6-0.1-1.3-0.1-2-0.1c-7.5,0-13.7,5.8-14.4,13.2
		c-2-0.5-4.1-0.8-6.3-0.8C11.6,48.8,0,60.4,0,74.7c0,14.2,11.4,25.7,25.6,25.8v0h14.8l0,0h-4.6v0c-12.6-0.1-22.7-10.4-22.7-23
		c0-12.7,10.3-23,23-23c1.9,0,3.8,0.2,5.6,0.7C37.9,49.7,43.6,42.9,48.5,43.2L48.5,43.2z"/>
	<path class="st2" d="M48.5,45.3c0,0,0-1.8,0-2.1c-4.8-0.3-10.6,6.5-6.9,12.1c-1.8-0.4-3.6-0.7-5.6-0.7c-12.7,0-23,10.3-23,23
		c0,12.6,10.2,22.8,22.7,23v0h4.6v-0.1c-7.9-1.5-13.8-8.4-13.8-16.8c0-8.3,6-15.3,13.9-16.8C41,59.1,43.8,51.5,48.5,45.3L48.5,45.3z
		"/>
	<path class="st3" d="M40.5,66.9c-7.9,1.5-13.9,8.4-13.9,16.8c0,8.3,5.9,15.2,13.8,16.8V99V69.7C40.4,68.7,40.4,67.8,40.5,66.9
		L40.5,66.9z"/>
	<path class="st1" d="M176.5,82.3c0-10-8.1-18.2-18.2-18.2c-0.7,0-1.4,0-2.1,0.1c0.1-0.9,0.1-1.9,0.1-2.9
		c0-21.6-17.2-39.1-38.5-39.1c-0.6,0-1.3,0-1.9,0c0.5,2.2,0.7,4.6,0.7,7v2.2c16.2,2.7,28.7,17,28.7,34.2c0,0.9,0,1.7-0.1,2.5
		c0.6-0.1,1.2-0.1,1.8-0.1c8.9,0,16.1,7.2,16.1,16.1c0,8.9-7.2,16.1-16.1,16.1c0,0,10.5,0,11.1,0C168.4,100.5,176.5,92.4,176.5,82.3
		L176.5,82.3z M147.2,100.5L147.2,100.5z"/>
	<path class="st3" d="M149.7,88.7c0-6.6-5.4-12-12-12c-0.5,0-0.9,0-1.4,0.1c0-0.6,0.1-1.3,0.1-1.9c0-10.9-6.7-20.2-16.1-24
		c3,5.8,4.6,12.2,4.6,18.8V99v1.5l0,0H140C145.5,99.4,149.7,94.6,149.7,88.7L149.7,88.7z"/>
</g>
</svg>
