<?xml version="1.0" encoding="utf-8"?>
<!-- Generator: Adobe Illustrator 24.1.0, SVG Export Plug-In . SVG Version: 6.00 Build 0)  -->
<svg version="1.1" id="Layer_1" xmlns="http://www.w3.org/2000/svg" xmlns:xlink="http://www.w3.org/1999/xlink" x="0px" y="0px"
	 viewBox="0 0 532.16 149.03" style="enable-background:new 0 0 532.16 149.03;" xml:space="preserve">
<style type="text/css">
	.st0{fill:#0586BF;}
	.st1{fill:#0B1F41;}
	.st2{fill:#5297C9;}
	.st3{fill:#1670A0;}
	.st4{fill:#2089C1;}
	.st5{fill:#0880B7;}
	.st6{fill:#FFFFFF;}
	.st7{fill:#F05323;}
	.st8{fill:#F58220;}
</style>
<g>
	<path class="st0" d="M256.49,99.72v-6.81h5.18c1.33,0,2.36,0.28,3.1,0.85c0.73,0.57,1.1,1.41,1.1,2.51v0.06
		c0,1.04-0.38,1.87-1.13,2.48c-0.75,0.61-1.77,0.91-3.04,0.91H256.49L256.49,99.72z M252.97,109.91h3.52v-7.04h4.4h0.06l4.98,7.04
		h4.18l-5.45-7.64c0.71-0.19,1.36-0.47,1.95-0.82c0.59-0.35,1.09-0.79,1.51-1.3c0.42-0.51,0.75-1.1,1-1.76
		c0.24-0.66,0.36-1.41,0.36-2.23v-0.06c0-0.88-0.15-1.69-0.43-2.42c-0.29-0.73-0.7-1.37-1.24-1.93c-0.65-0.64-1.47-1.13-2.45-1.49
		c-0.98-0.36-2.11-0.53-3.38-0.53h-9V109.91L252.97,109.91z M278.56,109.91h15.09v-3.2h-11.57v-5.39h10.13v-3.2h-10.13v-5.19h11.43
		v-3.2h-14.94V109.91L278.56,109.91z M307.9,101.89l3.46-8.08l3.49,8.08H307.9L307.9,101.89z M300.89,109.91h3.64l2.08-4.88h9.55
		l2.05,4.88h3.75l-8.88-20.34h-3.29L300.89,109.91L300.89,109.91z M333.66,106.71V92.92h3.98c1.06,0,2.02,0.17,2.89,0.52
		c0.86,0.35,1.6,0.83,2.21,1.43c0.61,0.61,1.08,1.34,1.41,2.19c0.34,0.85,0.5,1.77,0.5,2.75v0.06c0,0.98-0.17,1.9-0.5,2.74
		c-0.34,0.84-0.81,1.56-1.41,2.17c-0.61,0.61-1.34,1.08-2.21,1.42c-0.87,0.34-1.83,0.51-2.89,0.51H333.66L333.66,106.71z
		 M330.14,109.91h7.53c1.58,0,3.02-0.26,4.34-0.78c1.32-0.52,2.45-1.23,3.4-2.13c0.95-0.9,1.69-1.97,2.21-3.2
		c0.52-1.23,0.78-2.56,0.78-3.98v-0.06c0-1.42-0.26-2.74-0.78-3.97c-0.52-1.22-1.26-2.28-2.21-3.19c-0.95-0.9-2.09-1.61-3.4-2.12
		c-1.32-0.51-2.76-0.77-4.34-0.77h-7.53V109.91L330.14,109.91z M357.64,109.91h3.52v-20.2h-3.52V109.91L357.64,109.91z
		 M371.31,109.91h3.52V95.54l11.11,14.37h2.97v-20.2h-3.52v13.96l-10.8-13.96h-3.28V109.91L371.31,109.91z M398.83,109.91h15.09
		v-3.2h-11.57v-5.39h10.13v-3.2h-10.13v-5.19h11.43v-3.2h-14.94V109.91L398.83,109.91z M432.9,109.79c0.88-0.27,1.64-0.66,2.27-1.18
		c0.63-0.52,1.12-1.15,1.47-1.9c0.35-0.75,0.53-1.6,0.53-2.54v-0.06c0-0.83-0.14-1.55-0.42-2.18c-0.28-0.63-0.69-1.17-1.23-1.65
		c-0.54-0.47-1.22-0.87-2.04-1.2c-0.82-0.33-1.76-0.62-2.82-0.89c-0.96-0.23-1.76-0.45-2.39-0.66c-0.63-0.21-1.12-0.44-1.48-0.68
		c-0.36-0.24-0.6-0.51-0.74-0.81s-0.2-0.64-0.2-1.03v-0.06c0-0.67,0.29-1.24,0.86-1.7c0.58-0.46,1.39-0.69,2.42-0.69
		c0.92,0,1.84,0.18,2.74,0.53c0.9,0.36,1.82,0.87,2.74,1.54l1.9-2.68c-1.04-0.83-2.15-1.46-3.33-1.89c-1.18-0.43-2.52-0.65-4-0.65
		c-1,0-1.92,0.14-2.77,0.43c-0.85,0.29-1.57,0.69-2.17,1.2c-0.6,0.51-1.07,1.12-1.42,1.85c-0.34,0.72-0.52,1.51-0.52,2.38v0.06
		c0,0.92,0.15,1.71,0.45,2.37c0.3,0.65,0.73,1.21,1.3,1.66c0.57,0.45,1.27,0.84,2.11,1.15c0.84,0.32,1.8,0.6,2.88,0.85
		c0.95,0.21,1.71,0.42,2.3,0.63c0.59,0.21,1.05,0.44,1.39,0.69c0.34,0.25,0.57,0.51,0.69,0.79c0.12,0.28,0.19,0.6,0.19,0.97v0.06
		c0,0.77-0.32,1.38-0.97,1.85c-0.64,0.46-1.51,0.69-2.61,0.69c-1.27,0-2.4-0.23-3.41-0.68c-1-0.45-1.99-1.1-2.97-1.95l-2.14,2.54
		c1.21,1.1,2.53,1.91,3.95,2.44c1.42,0.53,2.91,0.79,4.47,0.79C431.05,110.2,432.02,110.06,432.9,109.79L432.9,109.79z
		 M456.1,109.79c0.88-0.27,1.64-0.66,2.27-1.18c0.63-0.52,1.12-1.15,1.47-1.9c0.35-0.75,0.53-1.6,0.53-2.54v-0.06
		c0-0.83-0.14-1.55-0.42-2.18c-0.28-0.63-0.69-1.17-1.23-1.65c-0.54-0.47-1.22-0.87-2.04-1.2c-0.82-0.33-1.76-0.62-2.82-0.89
		c-0.96-0.23-1.76-0.45-2.39-0.66c-0.63-0.21-1.12-0.44-1.47-0.68c-0.36-0.24-0.6-0.51-0.74-0.81c-0.14-0.3-0.2-0.64-0.2-1.03v-0.06
		c0-0.67,0.29-1.24,0.87-1.7c0.58-0.46,1.39-0.69,2.42-0.69c0.92,0,1.84,0.18,2.74,0.53c0.9,0.36,1.82,0.87,2.74,1.54l1.9-2.68
		c-1.04-0.83-2.15-1.46-3.33-1.89c-1.18-0.43-2.52-0.65-4-0.65c-1,0-1.92,0.14-2.77,0.43c-0.85,0.29-1.57,0.69-2.17,1.2
		c-0.6,0.51-1.07,1.12-1.42,1.85c-0.34,0.72-0.51,1.51-0.51,2.38v0.06c0,0.92,0.15,1.71,0.45,2.37c0.3,0.65,0.73,1.21,1.3,1.66
		c0.57,0.45,1.27,0.84,2.11,1.15c0.84,0.32,1.8,0.6,2.88,0.85c0.95,0.21,1.71,0.42,2.3,0.63c0.59,0.21,1.05,0.44,1.39,0.69
		c0.34,0.25,0.57,0.51,0.69,0.79c0.12,0.28,0.19,0.6,0.19,0.97v0.06c0,0.77-0.32,1.38-0.97,1.85c-0.64,0.46-1.51,0.69-2.61,0.69
		c-1.27,0-2.4-0.23-3.4-0.68c-1-0.45-1.99-1.1-2.97-1.95l-2.14,2.54c1.21,1.1,2.53,1.91,3.95,2.44c1.42,0.53,2.91,0.79,4.47,0.79
		C454.24,110.2,455.21,110.06,456.1,109.79L456.1,109.79z"/>
	<path class="st1" d="M197.07,67.9c-1.19-0.56-2.22-1.31-3.06-2.24c-0.85-0.94-1.51-2.02-1.98-3.25c-0.47-1.23-0.7-2.52-0.7-3.89
		v-0.11c0-1.37,0.23-2.67,0.68-3.89c0.45-1.23,1.1-2.3,1.95-3.22c0.85-0.92,1.86-1.65,3.04-2.19c1.18-0.54,2.49-0.81,3.93-0.81
		c1.45,0,2.77,0.28,3.96,0.84c1.19,0.56,2.22,1.31,3.09,2.24c0.87,0.94,1.54,2.02,2.01,3.25c0.47,1.23,0.71,2.52,0.71,3.89v0.11
		c0,1.37-0.24,2.67-0.71,3.89c-0.47,1.23-1.12,2.3-1.95,3.22c-0.83,0.92-1.84,1.65-3.04,2.19c-1.19,0.54-2.51,0.81-3.96,0.81
		C199.58,68.74,198.26,68.46,197.07,67.9L197.07,67.9z M209.06,76.67c2.49-1.03,4.65-2.43,6.49-4.22c1.84-1.79,3.27-3.88,4.3-6.27
		c1.03-2.4,1.54-4.95,1.54-7.65v-0.11c0-2.7-0.51-5.25-1.54-7.63c-1.03-2.38-2.44-4.45-4.25-6.22c-1.8-1.77-3.95-3.16-6.44-4.19
		c-2.49-1.03-5.19-1.54-8.11-1.54c-2.92,0-5.63,0.51-8.11,1.54c-2.49,1.03-4.65,2.43-6.49,4.22c-1.84,1.79-3.27,3.88-4.3,6.27
		c-1.03,2.4-1.54,4.95-1.54,7.65v0.11c0,2.7,0.51,5.25,1.54,7.63c1.03,2.38,2.44,4.45,4.25,6.22c1.8,1.77,3.95,3.16,6.44,4.19
		c2.49,1.03,5.19,1.54,8.11,1.54C203.87,78.21,206.57,77.7,209.06,76.67L209.06,76.67z M239.99,69.01
		c-0.72-0.32-1.35-0.78-1.89-1.38c-0.54-0.59-0.96-1.3-1.26-2.11c-0.3-0.81-0.46-1.7-0.46-2.68v-0.11c0-0.97,0.15-1.86,0.46-2.65
		c0.31-0.79,0.73-1.49,1.26-2.08c0.54-0.59,1.17-1.05,1.89-1.38c0.72-0.32,1.49-0.49,2.32-0.49c1.69,0,3.1,0.61,4.25,1.84
		c1.15,1.23,1.72,2.81,1.72,4.76v0.11c0,1.98-0.58,3.59-1.72,4.81c-1.15,1.23-2.57,1.84-4.25,1.84
		C241.48,69.5,240.7,69.34,239.99,69.01L239.99,69.01z M226.26,86.11h10.33V73.88c0.47,0.54,0.99,1.07,1.56,1.6
		c0.58,0.52,1.22,0.97,1.94,1.35c0.72,0.38,1.52,0.68,2.4,0.92c0.88,0.23,1.88,0.35,2.99,0.35c1.73,0,3.37-0.35,4.94-1.05
		c1.57-0.7,2.93-1.71,4.1-3.03c1.17-1.32,2.11-2.92,2.81-4.81c0.7-1.89,1.05-4.03,1.05-6.41v-0.11c0-2.34-0.35-4.45-1.05-6.33
		c-0.7-1.87-1.65-3.46-2.83-4.76c-1.19-1.3-2.56-2.3-4.13-3c-1.57-0.7-3.21-1.05-4.94-1.05c-1.08,0-2.06,0.13-2.94,0.38
		c-0.88,0.25-1.67,0.59-2.38,1c-0.7,0.41-1.34,0.89-1.92,1.43c-0.58,0.54-1.11,1.12-1.62,1.73v-3.89h-10.33V86.11L226.26,86.11z
		 M271.38,60.41c0.29-1.62,0.87-2.91,1.73-3.87c0.87-0.96,1.98-1.43,3.35-1.43c1.41,0,2.56,0.48,3.46,1.43
		c0.9,0.96,1.44,2.24,1.62,3.87H271.38L271.38,60.41z M284.82,76.53c2.07-1.08,3.81-2.52,5.22-4.33l-5.68-4.71
		c-1.05,1.05-2.08,1.8-3.11,2.27c-1.03,0.47-2.15,0.7-3.38,0.7c-1.62,0-2.98-0.4-4.08-1.19c-1.1-0.79-1.85-2-2.24-3.62h19.58
		c0.04-0.36,0.05-0.72,0.05-1.08c0-0.36,0-0.7,0-1.03c0-2.16-0.3-4.21-0.89-6.14c-0.6-1.93-1.5-3.62-2.71-5.08
		c-1.21-1.46-2.74-2.62-4.6-3.49c-1.86-0.87-4.05-1.3-6.57-1.3c-2.16,0-4.15,0.4-5.95,1.19c-1.8,0.79-3.36,1.88-4.68,3.27
		c-1.32,1.39-2.34,3.01-3.06,4.87c-0.72,1.86-1.08,3.85-1.08,5.98v0.11c0,2.27,0.39,4.35,1.16,6.22c0.78,1.88,1.86,3.47,3.24,4.79
		c1.39,1.32,3.04,2.34,4.95,3.08c1.91,0.74,4.02,1.11,6.33,1.11C280.25,78.16,282.74,77.61,284.82,76.53L284.82,76.53z
		 M295.56,77.45h10.33V61.6c0-1.62,0.4-2.85,1.2-3.68c0.8-0.83,1.82-1.24,3.07-1.24c1.21,0,2.19,0.42,2.94,1.24
		c0.75,0.83,1.12,2.06,1.12,3.68v15.85h10.33V58.3c0-3.35-0.88-5.99-2.64-7.9c-1.76-1.91-4.21-2.87-7.37-2.87
		c-1.03,0-1.98,0.14-2.83,0.41c-0.85,0.27-1.64,0.62-2.35,1.05c-0.71,0.43-1.35,0.94-1.92,1.51c-0.57,0.58-1.09,1.17-1.55,1.79
		v-4.11h-10.33V77.45L295.56,77.45z M366.58,77.26c1.87-0.56,3.48-1.37,4.81-2.43c1.33-1.06,2.37-2.35,3.11-3.86
		c0.74-1.51,1.11-3.24,1.11-5.18v-0.11c0-1.76-0.32-3.28-0.97-4.56c-0.65-1.28-1.59-2.37-2.81-3.27c-1.23-0.9-2.71-1.67-4.46-2.3
		c-1.75-0.63-3.71-1.18-5.87-1.65c-1.3-0.29-2.37-0.57-3.22-0.84c-0.85-0.27-1.51-0.54-2-0.81c-0.49-0.27-0.83-0.57-1.03-0.89
		c-0.2-0.32-0.3-0.7-0.3-1.13v-0.11c0-0.68,0.32-1.26,0.95-1.73c0.63-0.47,1.58-0.7,2.84-0.7c1.7,0,3.45,0.32,5.27,0.95
		c1.82,0.63,3.6,1.56,5.33,2.79l5.25-7.43c-2.06-1.67-4.36-2.93-6.9-3.78c-2.54-0.85-5.44-1.28-8.68-1.28
		c-2.27,0-4.31,0.3-6.11,0.89c-1.8,0.59-3.35,1.43-4.62,2.51c-1.28,1.08-2.25,2.36-2.92,3.83c-0.67,1.48-1,3.1-1,4.86v0.11
		c0,1.94,0.37,3.57,1.11,4.89c0.74,1.31,1.75,2.41,3.03,3.29c1.28,0.88,2.79,1.6,4.52,2.16c1.73,0.56,3.61,1.07,5.63,1.54
		c1.3,0.29,2.35,0.57,3.17,0.84c0.81,0.27,1.46,0.55,1.95,0.84c0.49,0.29,0.82,0.58,1,0.89c0.18,0.31,0.27,0.66,0.27,1.05v0.11
		c0,0.83-0.37,1.47-1.11,1.92c-0.74,0.45-1.81,0.67-3.22,0.67c-4.4,0-8.49-1.51-12.28-4.54l-5.84,6.99c2.34,2.1,5.04,3.68,8.09,4.74
		c3.05,1.05,6.27,1.58,9.66,1.58C362.61,78.1,364.7,77.82,366.58,77.26L366.58,77.26z M392.65,68.86c-0.76-0.36-1.42-0.83-1.97-1.42
		c-0.56-0.59-0.99-1.28-1.3-2.06c-0.31-0.79-0.46-1.63-0.46-2.52v-0.11c0-0.86,0.14-1.68,0.43-2.47c0.29-0.79,0.69-1.48,1.22-2.07
		c0.52-0.59,1.16-1.06,1.92-1.4c0.76-0.34,1.6-0.51,2.54-0.51c0.9,0,1.73,0.18,2.49,0.54c0.76,0.36,1.41,0.83,1.97,1.42
		c0.56,0.59,0.99,1.28,1.3,2.07c0.31,0.79,0.46,1.63,0.46,2.52v0.11c0,0.86-0.14,1.68-0.43,2.47c-0.29,0.79-0.7,1.48-1.22,2.07
		c-0.52,0.59-1.16,1.05-1.92,1.39c-0.76,0.34-1.6,0.51-2.54,0.51C394.24,69.39,393.41,69.21,392.65,68.86L392.65,68.86z
		 M401.52,76.94c1.98-0.81,3.7-1.91,5.14-3.3c1.44-1.39,2.57-3.01,3.38-4.87c0.81-1.86,1.22-3.83,1.22-5.92v-0.11
		c0-2.09-0.4-4.06-1.19-5.9c-0.79-1.84-1.91-3.44-3.35-4.81c-1.44-1.37-3.15-2.46-5.11-3.27c-1.97-0.81-4.12-1.22-6.46-1.22
		c-2.34,0-4.51,0.41-6.49,1.22c-1.98,0.81-3.7,1.91-5.14,3.3c-1.44,1.39-2.57,3.01-3.38,4.87c-0.81,1.86-1.22,3.83-1.22,5.92v0.11
		c0,2.09,0.4,4.06,1.19,5.9c0.79,1.84,1.91,3.45,3.35,4.84c1.44,1.39,3.15,2.48,5.11,3.27c1.96,0.79,4.12,1.19,6.46,1.19
		C397.38,78.16,399.54,77.75,401.52,76.94L401.52,76.94z M430.56,76.69c1.39-0.94,2.55-2.02,3.47-3.25v4h10.33V48.19h-10.33v15.85
		c0,1.62-0.4,2.85-1.2,3.68c-0.8,0.83-1.81,1.24-3.02,1.24c-1.25,0-2.24-0.41-2.99-1.24c-0.75-0.83-1.12-2.06-1.12-3.68V48.19
		h-10.33v19.15c0,3.35,0.88,5.99,2.64,7.9c1.76,1.91,4.22,2.87,7.37,2.87C427.44,78.1,429.17,77.63,430.56,76.69L430.56,76.69z
		 M449.88,77.45h10.33v-9.09c0-3.39,0.72-5.88,2.16-7.46c1.44-1.59,3.52-2.38,6.22-2.38h0.87V47.7c-2.45-0.11-4.4,0.43-5.84,1.62
		c-1.44,1.19-2.58,2.78-3.41,4.76v-5.9h-10.33V77.45L449.88,77.45z M495.05,76.32c2.05-1.23,3.77-2.85,5.14-4.87l-6.87-4.98
		c-0.83,0.94-1.67,1.68-2.52,2.22c-0.85,0.54-1.88,0.81-3.11,0.81c-0.86,0-1.66-0.17-2.38-0.51c-0.72-0.34-1.34-0.81-1.84-1.41
		c-0.51-0.6-0.9-1.3-1.19-2.11c-0.29-0.81-0.43-1.69-0.43-2.62v-0.11c0-0.9,0.14-1.74,0.43-2.52c0.29-0.78,0.68-1.46,1.19-2.06
		c0.5-0.6,1.11-1.06,1.81-1.41c0.7-0.34,1.47-0.51,2.3-0.51c1.26,0,2.31,0.27,3.14,0.81c0.83,0.54,1.6,1.3,2.33,2.27l6.98-5.19
		c-1.26-1.98-2.9-3.57-4.92-4.76c-2.02-1.19-4.54-1.78-7.57-1.78c-2.31,0-4.43,0.41-6.36,1.22c-1.93,0.81-3.58,1.91-4.95,3.3
		c-1.37,1.39-2.44,3.01-3.22,4.87c-0.78,1.86-1.16,3.81-1.16,5.87v0.11c0,2.06,0.39,4.01,1.16,5.87c0.77,1.86,1.84,3.47,3.19,4.84
		c1.35,1.37,2.97,2.46,4.84,3.27c1.87,0.81,3.91,1.22,6.11,1.22C490.36,78.16,492.99,77.54,495.05,76.32L495.05,76.32z
		 M512.36,60.41c0.29-1.62,0.87-2.91,1.73-3.87c0.86-0.96,1.98-1.43,3.35-1.43c1.41,0,2.56,0.48,3.46,1.43
		c0.9,0.96,1.44,2.24,1.62,3.87H512.36L512.36,60.41z M525.8,76.53c2.07-1.08,3.81-2.52,5.22-4.33l-5.68-4.71
		c-1.05,1.05-2.08,1.8-3.11,2.27c-1.03,0.47-2.16,0.7-3.38,0.7c-1.62,0-2.98-0.4-4.08-1.19c-1.1-0.79-1.85-2-2.24-3.62h19.58
		c0.04-0.36,0.05-0.72,0.05-1.08c0-0.36,0-0.7,0-1.03c0-2.16-0.3-4.21-0.89-6.14c-0.59-1.93-1.5-3.62-2.7-5.08
		c-1.21-1.46-2.74-2.62-4.6-3.49c-1.86-0.87-4.05-1.3-6.57-1.3c-2.16,0-4.15,0.4-5.95,1.19c-1.8,0.79-3.36,1.88-4.68,3.27
		c-1.32,1.39-2.33,3.01-3.06,4.87c-0.72,1.86-1.08,3.85-1.08,5.98v0.11c0,2.27,0.39,4.35,1.16,6.22c0.77,1.88,1.86,3.47,3.25,4.79
		c1.39,1.32,3.04,2.34,4.95,3.08c1.91,0.74,4.02,1.11,6.33,1.11C521.23,78.16,523.73,77.61,525.8,76.53L525.8,76.53z"/>
	<path class="st1" d="M149.03,74.51C149.03,33.36,115.66,0,74.51,0C33.36,0,0,33.36,0,74.51c0,22.51,9.99,42.67,25.77,56.33
		c24.81-8.4,44.61-20.27,48.75-51.46c0,0,19.58,36.21-18.06,67.43c5.78,1.44,11.83,2.22,18.06,2.22
		C115.66,149.03,149.03,115.67,149.03,74.51"/>
	<path class="st2" d="M74.51,149.03c-6.04,0-11.9-0.73-17.52-2.08c3.23,0.78,6.53,1.35,9.9,1.69
		C69.4,148.89,71.94,149.03,74.51,149.03L74.51,149.03L74.51,149.03L74.51,149.03c0.03,0,0.06,0,0.08,0c0.01,0,0.01,0,0.02,0
		c0.03,0,0.06,0,0.09,0c0,0,0,0,0,0c1.1,0,2.19-0.03,3.28-0.08C76.83,149,75.68,149.03,74.51,149.03 M78.01,148.95
		c0.01,0,0.01,0,0.02,0C78.02,148.95,78.02,148.95,78.01,148.95 M25.77,130.84L25.77,130.84C25.77,130.84,25.77,130.84,25.77,130.84
		C25.77,130.84,25.77,130.84,25.77,130.84"/>
	<path class="st3" d="M74.51,149.03c-2.57,0-5.11-0.13-7.61-0.39C69.4,148.89,71.94,149.03,74.51,149.03L74.51,149.03 M74.51,149.03
		c0.03,0,0.06,0,0.08,0C74.57,149.03,74.54,149.03,74.51,149.03 M74.61,149.03c0.03,0,0.06,0,0.09,0
		C74.67,149.03,74.64,149.03,74.61,149.03 M74.7,149.03c7.97-0.02,15.65-1.31,22.85-3.65c19.75-39.05-20.85-67.9-23.04-67.9
		c-5.37,31.25-41.93,35.79-60.96,39.82c3.49,4.96,7.55,9.48,12.11,13.45C12.45,119.26,3.34,103.2,0.77,85.03
		c16.02,4.57,32.33,8.05,45.58,8.05c14.51,0,25.36-4.16,28.17-15.59c15.68,0,42.13,13.53,51.06,51.28
		c-12.54,11.81-29.17,19.33-47.54,20.19c-0.01,0-0.01,0-0.02,0c-0.01,0-0.02,0-0.03,0C76.89,149,75.8,149.02,74.7,149.03
		 M25.77,130.84c-0.02-0.01-0.03-0.03-0.05-0.04C25.73,130.81,25.75,130.83,25.77,130.84C25.77,130.84,25.77,130.84,25.77,130.84
		 M25.7,130.79c-0.01-0.01-0.03-0.02-0.04-0.04C25.68,130.76,25.69,130.78,25.7,130.79"/>
	<path class="st3" d="M25.72,130.8c0,0-0.01-0.01-0.01-0.01C25.71,130.79,25.71,130.8,25.72,130.8 M25.66,130.75
		C25.66,130.75,25.66,130.75,25.66,130.75C25.66,130.75,25.66,130.75,25.66,130.75"/>
	<path class="st4" d="M74.51,149.03L74.51,149.03L74.51,149.03L74.51,149.03 M74.6,149.03c0.01,0,0.01,0,0.02,0
		C74.61,149.03,74.6,149.03,74.6,149.03 M74.7,149.03L74.7,149.03C74.7,149.03,74.7,149.03,74.7,149.03 M66.9,148.64
		c-3.37-0.34-6.68-0.92-9.9-1.69c-0.18-0.04-0.36-0.09-0.54-0.13l0,0C59.85,147.66,63.34,148.27,66.9,148.64 M25.77,130.84
		L25.77,130.84L25.77,130.84c24.81-8.4,44.61-20.27,48.75-51.46c0,0,0,0,0,0C70.37,110.58,50.57,122.44,25.77,130.84"/>
	<path class="st5" d="M74.51,149.03c-2.57,0-5.11-0.13-7.61-0.39c-3.56-0.36-7.05-0.98-10.45-1.83
		C74.9,131.51,79.61,115,79.6,102.15c0-13.36-5.09-22.77-5.09-22.77l0,0c0,0,0,0,0,0c-4.14,31.2-23.94,43.06-48.75,51.46
		c-0.02-0.01-0.03-0.03-0.05-0.04c0,0-0.01-0.01-0.01-0.01c-0.01-0.01-0.03-0.02-0.04-0.04c0,0,0,0-0.01-0.01
		c-4.56-3.97-8.62-8.49-12.11-13.45c19.03-4.03,55.59-8.57,60.96-39.82c2.19,0,42.79,28.85,23.04,67.9
		c-7.2,2.34-14.87,3.63-22.85,3.65h0c-0.03,0-0.06,0-0.09,0c-0.01,0-0.01,0-0.02,0C74.57,149.03,74.54,149.03,74.51,149.03
		L74.51,149.03"/>
	<path class="st6" d="M87.39,36.25c0-10.07-12.86-28.02-12.86-28.02S61.67,26.19,61.67,36.25s12.86,28.8,12.86,37.46
		C74.53,65.05,87.39,46.32,87.39,36.25L87.39,36.25z"/>
	<path class="st6" d="M80.12,62.69c3.81,1.76,9.65,5.37,9.65,11.03c5.41-9.72-1.22-19.44-4.24-23.09
		C83.76,54.68,81.76,58.85,80.12,62.69L80.12,62.69z"/>
	<path class="st6" d="M68.91,62.69c-3.81,1.76-9.65,5.37-9.65,11.03C53.84,64,60.48,54.28,63.5,50.63
		C65.26,54.68,67.27,58.85,68.91,62.69L68.91,62.69z"/>
	<path class="st7" d="M82.8,78.12c0-4.59-1.93-8.54-4.71-10.4c-1.35,2.65-3.57,8.95-3.57,11.6c0-2.7-2.12-9.13-3.35-11.74
		c-2.9,1.8-4.92,5.84-4.92,10.55c0,6.38,6.71,18.87,8.28,18.87C76.09,96.99,82.8,84.49,82.8,78.12L82.8,78.12z"/>
	<path class="st8" d="M79.88,77.36c0-2.98-1.25-5.54-3.05-6.75c-0.88,1.72-2.31,5.81-2.31,7.53c0-1.75-1.37-5.92-2.17-7.62
		c-1.88,1.16-3.19,3.79-3.19,6.84c0,4.14,4.35,12.25,5.37,12.25S79.88,81.49,79.88,77.36L79.88,77.36z"/>
</g>
</svg>
