<?xml version="1.0" encoding="utf-8"?>
<!-- Generator: Adobe Illustrator 25.0.0, SVG Export Plug-In . SVG Version: 6.00 Build 0)  -->
<svg version="1.1" id="Layer_1" xmlns="http://www.w3.org/2000/svg" xmlns:xlink="http://www.w3.org/1999/xlink" x="0px" y="0px"
	 viewBox="0 0 720.7 426.6" style="enable-background:new 0 0 720.7 426.6;" xml:space="preserve">
<style type="text/css">
	.st0{fill:#FFFFFF;}
</style>
<g>
	<path class="st0" d="M197.7,191.5V6.1c0-3.4-2.8-6.1-6.1-6.1H6.1C2.8,0,0,2.8,0,6.1v185.4c0,3.4,2.8,6.1,6.1,6.1h185.4
		C194.9,197.7,197.7,194.9,197.7,191.5L197.7,191.5z M141.3,123.6c0,8.7-5,16.2-13.1,20.1l-29.3,15.3l-29.5-15.3
		c-8-3.9-13-11.3-13-20v-15.9l17.7,5.3v10.6c0,1.9,1.2,3.3,3.1,4.2l21.6,10.8l21.5-10.8c2-1,3.2-2.3,3.2-4.3v-14.1L56.4,90V58.3
		c0-4.3,2.3-8.4,6.1-10.6c5.6-3.3,17.9-8.9,36.3-8.9s30.7,5.6,36.3,8.9c3.8,2.2,6.1,6.3,6.1,10.6v21.1l-17.7-5.3V61.5
		c-4.8-2.3-13-5.1-24.7-5.1c-11.8,0-19.9,2.8-24.7,5.1v16.1l67.2,19.4V123.6L141.3,123.6z"/>
	<path class="st0" d="M37.3,345.4c-14.2,0-26.4-4.6-37.3-11.5l6.8-10.3c10.9,7,21,10.4,32.3,10.4c13.2,0,19.4-5.1,19.4-11.1
		c0-17.1-55.8-6.9-55.8-34.2c0-13.3,13.3-23.8,34.7-23.8c14.4,0,27,5.4,34.3,12.7l-8.3,8.6c-6.3-5.5-16-9.9-26.2-9.9
		c-12.5,0-21,4.5-21,10.9c0,15.9,55.9,7.4,55.9,34.3C72.1,335.8,57.8,345.4,37.3,345.4L37.3,345.4z M126.8,312.5v30.1h-13.5v-30.2
		l-33.8-44.9h15.8l25.4,34.7l24-34.7h15.6L126.8,312.5L126.8,312.5z M254.6,342.7v-58.9l-3.7,8l-26.6,50.9h-8.1l-26.3-50.9l-3.7-8
		v58.9h-13v-75.1H192l25.3,50.5l3.5,7.7l3.5-7.7l24.9-50.5h18.6v75.1H254.6L254.6,342.7z M341.4,289.9c0-6.2-4.2-10.8-14.4-10.8H302
		v24.3h25.5c10.3,0,13.9-5,13.9-11.1V289.9L341.4,289.9z M325.5,314.3H302v28.3h-13.5v-75.1h37c20.5,0,29.6,9.2,29.6,22.3v2
		C355.1,305,346,314.3,325.5,314.3L325.5,314.3z M428.8,342.7v-32.4h-45.2v32.4H370v-75.1h13.5v31.8h45.2v-31.8h13.5v75.1H428.8
		L428.8,342.7z M524.1,300.5c0-12.9-8.9-23.9-25.4-23.9c-16.5,0-25.3,11.1-25.3,23.9v9.1c0,12.9,8.8,24.1,25.3,24.1
		c16.5,0,25.4-11.3,25.4-24.1V300.5L524.1,300.5z M498.7,345.4c-24.1,0-38.9-17.1-38.9-35.5v-9.4c0-18.7,14.8-35.5,38.9-35.5
		c24.2,0,39,16.8,39,35.5v9.4C537.7,328.2,523,345.4,498.7,345.4L498.7,345.4z M615.9,342.7l-42.1-47.5l-5.4-7v54.5H555v-75.1h12.5
		l40.7,47.6l5.5,7v-54.6h13.3v75.1H615.9L615.9,342.7z M687.3,312.5v30.1h-13.5v-30.2l-33.8-44.9h15.8l25.4,34.7l24-34.7h15.6
		L687.3,312.5L687.3,312.5z"/>
	<path class="st0" d="M5.4,425.8h9.8v-17.3h21.3v-8.9H15.2V390h24.2v-8.9h-34V425.8L5.4,425.8z M65.9,426.5c12,0,19.6-6.6,19.6-20.2
		v-25.2h-9.8v25.6c0,7.1-3.6,10.7-9.6,10.7c-6,0-9.6-3.8-9.6-11v-25.3h-9.8v25.5C46.5,419.8,53.9,426.5,65.9,426.5L65.9,426.5z
		 M117,426.6c8.2,0,14.5-3.2,19.1-7.1v-19.4h-19.4v8.5h9.9v6.4c-2.5,1.8-5.7,2.7-9.3,2.7c-7.9,0-13.5-6-13.5-14.2v-0.1
		c0-7.6,5.7-13.9,12.8-13.9c5.2,0,8.2,1.7,11.7,4.5l6.2-7.5c-4.7-4-9.5-6.1-17.5-6.1c-13.5,0-23.4,10.4-23.4,23.1v0.1
		C93.5,416.8,103.1,426.6,117,426.6L117,426.6z M164.2,426.5c12,0,19.6-6.6,19.6-20.2v-25.2h-9.8v25.6c0,7.1-3.6,10.7-9.6,10.7
		c-6,0-9.6-3.8-9.6-11v-25.3h-9.8v25.5C144.8,419.8,152.2,426.5,164.2,426.5L164.2,426.5z M193.8,425.8h34V417h-24.3v-9.4h21.1v-8.7
		h-21.1v-9.1h23.9v-8.7h-33.7V425.8L193.8,425.8z"/>
</g>
</svg>
