<?xml version="1.0" encoding="utf-8"?>
<!-- Generator: Adobe Illustrator 27.0.0, SVG Export Plug-In . SVG Version: 6.00 Build 0)  -->
<svg version="1.1" id="Layer_1" xmlns="http://www.w3.org/2000/svg" xmlns:xlink="http://www.w3.org/1999/xlink" x="0px" y="0px"
	 viewBox="0 0 723.4 129.1" style="enable-background:new 0 0 723.4 129.1;" xml:space="preserve">
<style type="text/css">
	.st0{fill:#0586BF;}
	.st1{fill:#00B5E1;}
</style>
<g>
	<path class="st0" d="M685.7,128.2h37.7v-10.4h-26.1v-42h-11.5V128.2z M634.5,128.2h39.9V118h-28.5v-11h24.7V96.7h-24.7V86.1H674
		V75.8h-39.5V128.2z M574.9,128.2h20.5c4.1,0,7.9-0.7,11.3-2c3.4-1.3,6.4-3.2,8.8-5.5s4.4-5.1,5.7-8.3c1.3-3.2,2-6.6,2-10.3v-0.2
		c0-3.7-0.7-7.1-2-10.3c-1.3-3.2-3.3-5.9-5.7-8.3c-2.5-2.3-5.4-4.2-8.8-5.5c-3.4-1.3-7.2-2-11.3-2h-20.5V128.2z M586.4,117.8V86.2
		h8.9c2.3,0,4.5,0.4,6.4,1.2c1.9,0.8,3.6,1.9,5,3.3c1.4,1.4,2.4,3.1,3.2,5c0.8,1.9,1.2,4.1,1.2,6.4v0.1c0,2.3-0.4,4.5-1.2,6.4
		c-0.8,1.9-1.8,3.5-3.2,4.9c-1.4,1.4-3,2.5-5,3.2c-1.9,0.8-4.1,1.1-6.4,1.1H586.4z M546.8,127c3.4-1.4,6.4-3.4,8.8-5.8
		c2.5-2.5,4.4-5.3,5.8-8.6c1.4-3.3,2.1-6.8,2.1-10.5v-0.2c0-3.7-0.7-7.3-2.1-10.5c-1.4-3.3-3.3-6.1-5.8-8.5
		c-2.5-2.4-5.4-4.3-8.8-5.8c-3.4-1.4-7.1-2.1-11.2-2.1c-4,0-7.8,0.7-11.2,2.1c-3.4,1.4-6.4,3.4-8.8,5.8c-2.5,2.5-4.4,5.3-5.8,8.6
		c-1.4,3.3-2.1,6.8-2.1,10.5v0.1c0,3.7,0.7,7.3,2.1,10.5c1.4,3.3,3.3,6.1,5.8,8.5c2.5,2.4,5.4,4.3,8.8,5.8c3.4,1.4,7.1,2.1,11.2,2.1
		C539.6,129.1,543.4,128.4,546.8,127 M529.3,117.2c-1.9-0.9-3.6-2.1-5-3.6c-1.4-1.5-2.5-3.2-3.3-5.2c-0.8-2-1.2-4.1-1.2-6.4v-0.2
		c0-2.2,0.4-4.4,1.2-6.3c0.8-2,1.8-3.7,3.2-5.2c1.4-1.5,3-2.7,4.9-3.5c1.9-0.8,4.1-1.3,6.4-1.3c2.3,0,4.4,0.4,6.4,1.3
		c1.9,0.9,3.6,2.1,5.1,3.6c1.4,1.5,2.5,3.2,3.3,5.2c0.8,2,1.2,4.1,1.2,6.4v0.1c0,2.2-0.4,4.4-1.2,6.3c-0.8,2-1.8,3.7-3.2,5.2
		c-1.4,1.5-3,2.7-5,3.5c-1.9,0.9-4.1,1.3-6.4,1.3C533.4,118.5,531.3,118.1,529.3,117.2 M444.1,128.2h11.4v-34l14.6,22.2h0.3
		L485.1,94v34.2h11.4V75.8h-12.4L470.3,98l-13.8-22.2h-12.4V128.2z M381.7,128.2h11.5v-20.9l20.2-31.5h-13.1l-12.7,21.1L375,75.8
		h-13.5l20.2,31.8V128.2z M329.5,128.2h11.5V86.4h16V75.8h-43.4v10.6h16V128.2z M291.6,128.2h11.5V75.8h-11.5V128.2z M235.9,128.2
		h11.5v-16.8h8.9h0.1l11.2,16.8h13.5l-12.8-18.7c3.3-1.2,6.1-3.2,8.1-5.9c2.1-2.7,3.1-6.1,3.1-10.4v-0.2c0-5-1.5-9-4.5-12
		c-3.5-3.5-8.6-5.3-15.3-5.3h-24V128.2z M247.4,101.3V86.2h11.5c2.8,0,5.1,0.6,6.7,1.9c1.6,1.2,2.4,3.1,2.4,5.6v0.2
		c0,2.2-0.8,4-2.3,5.4c-1.5,1.3-3.7,2-6.6,2H247.4z M209.6,127.6c2.8-1,5.3-2.4,7.3-4.4c2-2,3.5-4.4,4.6-7.4s1.6-6.4,1.6-10.4V75.8
		h-11.5v30c0,4.2-1,7.3-3,9.4c-2,2.1-4.8,3.1-8.3,3.1c-3.5,0-6.3-1.1-8.3-3.3c-2-2.2-3-5.4-3-9.7V75.8h-11.5v30
		c0,7.7,2,13.6,6.1,17.5c4,3.9,9.6,5.8,16.6,5.8C203.6,129.1,206.8,128.6,209.6,127.6 M140.8,128.2h11.5V86.4h16V75.8h-43.4v10.6h16
		V128.2z M63.9,128.2h11.8l4.8-11.8h22.2l4.8,11.8h12.1L97,75.4H86.4L63.9,128.2z M84.6,106.3l7-17l7,17H84.6z M2.3,128.2h11.4v-34
		l14.6,22.2h0.3L43.4,94v34.2h11.4V75.8H42.3L28.5,98L14.8,75.8H2.3V128.2z"/>
	<path class="st1" d="M535,53.3h39.9V43.1h-28.5v-11h24.7V21.8h-24.7V11.2h28.1V0.9H535V53.3z M510.1,53.6c2-0.4,3.9-1,5.7-1.9
		c1.7-0.8,3.3-1.8,4.8-3c1.4-1.1,2.8-2.4,4.2-3.9l-7.3-7.4c-2,1.9-4.1,3.4-6.2,4.5c-2.1,1.1-4.6,1.6-7.6,1.6c-2.2,0-4.3-0.4-6.2-1.3
		c-1.9-0.9-3.5-2.1-4.8-3.6c-1.3-1.5-2.4-3.2-3.1-5.2c-0.7-2-1.1-4.1-1.1-6.4V27c0-2.2,0.4-4.4,1.1-6.3c0.7-2,1.8-3.7,3.1-5.2
		c1.3-1.5,3-2.7,4.8-3.5c1.9-0.8,3.9-1.3,6.1-1.3c2.6,0,5,0.5,7.2,1.6c2.1,1,4.2,2.5,6.3,4.3l7.3-8.5c-1.2-1.2-2.5-2.3-3.9-3.3
		c-1.4-1-2.9-1.8-4.6-2.5c-1.6-0.7-3.5-1.2-5.5-1.6c-2-0.4-4.3-0.6-6.7-0.6c-4,0-7.7,0.7-11.1,2.1c-3.3,1.4-6.2,3.4-8.6,5.8
		c-2.4,2.5-4.3,5.3-5.6,8.6c-1.3,3.3-2,6.8-2,10.5v0.2c0,3.7,0.7,7.3,2,10.6c1.3,3.3,3.2,6.2,5.6,8.6c2.4,2.4,5.2,4.3,8.5,5.7
		c3.3,1.4,6.9,2.1,10.7,2.1C505.8,54.2,508.1,54,510.1,53.6 M423.5,53.3H435V36.6h8.9h0.2l11.2,16.8h13.5L456,34.6
		c3.3-1.2,6.1-3.2,8.1-5.9c2.1-2.7,3.1-6.1,3.1-10.4v-0.1c0-5-1.5-9-4.5-12c-3.5-3.5-8.6-5.3-15.3-5.3h-24V53.3z M435,26.4V11.3
		h11.5c2.8,0,5.1,0.6,6.7,1.9c1.6,1.2,2.4,3.1,2.4,5.6V19c0,2.2-0.8,4-2.3,5.4c-1.5,1.3-3.7,2-6.6,2H435z M397.2,52.7
		c2.8-1,5.3-2.4,7.3-4.4c2-2,3.5-4.4,4.6-7.4c1.1-2.9,1.6-6.4,1.6-10.4V0.9h-11.5v30c0,4.2-1,7.3-3,9.4c-2,2.1-4.8,3.1-8.3,3.1
		c-3.5,0-6.3-1.1-8.3-3.3c-2-2.2-3-5.4-3-9.7V0.9H365v30c0,7.7,2,13.6,6.1,17.5c4,3.9,9.6,5.8,16.6,5.8
		C391.2,54.2,394.3,53.7,397.2,52.7 M337.7,52.1c3.4-1.4,6.4-3.4,8.8-5.8c2.5-2.5,4.4-5.3,5.8-8.6c1.4-3.3,2.1-6.8,2.1-10.5V27
		c0-3.7-0.7-7.3-2.1-10.5c-1.4-3.3-3.3-6.1-5.8-8.5c-2.5-2.4-5.4-4.3-8.8-5.8c-3.4-1.4-7.1-2.1-11.2-2.1c-4,0-7.8,0.7-11.2,2.1
		s-6.4,3.4-8.8,5.8c-2.5,2.5-4.4,5.3-5.8,8.6c-1.4,3.3-2.1,6.8-2.1,10.5v0.2c0,3.7,0.7,7.3,2.1,10.5c1.4,3.3,3.3,6.1,5.8,8.5
		c2.5,2.4,5.4,4.3,8.8,5.8c3.4,1.4,7.1,2.1,11.2,2.1S334.3,53.5,337.7,52.1 M320.3,42.3c-1.9-0.9-3.6-2.1-5-3.6
		c-1.4-1.5-2.5-3.2-3.3-5.2c-0.8-2-1.2-4.1-1.2-6.4V27c0-2.2,0.4-4.4,1.2-6.3c0.8-2,1.8-3.7,3.2-5.2c1.4-1.5,3-2.7,4.9-3.5
		c1.9-0.8,4.1-1.3,6.4-1.3c2.3,0,4.4,0.4,6.4,1.3c1.9,0.9,3.6,2.1,5.1,3.6c1.4,1.5,2.5,3.2,3.3,5.2c0.8,2,1.2,4.1,1.2,6.4v0.2
		c0,2.2-0.4,4.4-1.2,6.3c-0.8,2-1.8,3.7-3.2,5.2c-1.4,1.5-3,2.7-5,3.5c-1.9,0.9-4.1,1.3-6.4,1.3C324.3,43.6,322.2,43.2,320.3,42.3
		 M278.6,53c2.3-0.7,4.4-1.8,6-3.1c1.7-1.4,3-3.1,3.9-5.1s1.4-4.3,1.4-6.9v-0.2c0-2.3-0.4-4.3-1.1-5.9c-0.7-1.6-1.8-3.1-3.2-4.3
		c-1.4-1.2-3.2-2.3-5.3-3.1c-2.1-0.9-4.4-1.7-7.1-2.4c-2.3-0.6-4.1-1.1-5.6-1.6c-1.5-0.4-2.6-0.9-3.5-1.4c-0.9-0.5-1.4-1.1-1.8-1.7
		c-0.3-0.6-0.5-1.4-0.5-2.2v-0.1c0-1.3,0.6-2.4,1.7-3.3c1.1-0.9,2.8-1.3,5.1-1.3c2.2,0,4.5,0.5,6.7,1.4c2.2,0.9,4.5,2.2,6.9,3.8
		l6-8.7c-2.7-2.1-5.7-3.8-8.9-4.9c-3.2-1.1-6.8-1.7-10.6-1.7c-2.7,0-5.2,0.4-7.4,1.1c-2.2,0.8-4.2,1.8-5.8,3.2
		c-1.6,1.4-2.9,3.1-3.8,5c-0.9,1.9-1.3,4.1-1.3,6.5v0.2c0,2.6,0.4,4.8,1.2,6.5c0.8,1.7,2,3.2,3.5,4.4c1.5,1.2,3.3,2.2,5.5,3
		c2.2,0.8,4.6,1.5,7.2,2.2c2.2,0.6,4,1.1,5.4,1.6c1.4,0.5,2.5,1,3.2,1.5c0.8,0.5,1.3,1,1.6,1.6c0.3,0.6,0.4,1.2,0.4,2V39
		c0,1.5-0.7,2.8-2,3.6c-1.3,0.9-3.2,1.3-5.6,1.3c-3,0-5.8-0.6-8.3-1.7c-2.5-1.1-5-2.7-7.4-4.6l-6.8,8.2c3.1,2.8,6.6,5,10.5,6.3
		c3.8,1.4,7.8,2.1,11.8,2.1C273.6,54.1,276.2,53.7,278.6,53 M169.4,53.3h11.4V20l25.4,33.3h9.8V0.9h-11.4v32.3L180,0.9h-10.6V53.3z
		 M118.1,53.3H158V43.1h-28.5v-11h24.7V21.8h-24.7V11.2h28.1V0.9h-39.5V53.3z M67,53.3h11.5V37.6h8.8c2.9,0,5.7-0.4,8.3-1.2
		c2.6-0.8,4.8-1.9,6.7-3.5c1.9-1.5,3.4-3.5,4.5-5.8s1.6-5,1.6-8V19c0-2.7-0.5-5.2-1.4-7.4c-0.9-2.2-2.2-4.1-4-5.7
		c-1.7-1.6-3.8-2.8-6.3-3.7c-2.5-0.9-5.3-1.3-8.4-1.3H67V53.3z M78.6,27.3v-16h8.9c2.9,0,5.2,0.7,6.9,2c1.7,1.3,2.5,3.3,2.5,5.9v0.2
		c0,2.2-0.8,4.1-2.4,5.7c-1.6,1.5-3.8,2.3-6.7,2.3H78.6z M39,52.1c3.4-1.4,6.4-3.4,8.8-5.8c2.5-2.5,4.4-5.3,5.8-8.6
		c1.4-3.3,2.1-6.8,2.1-10.5V27c0-3.7-0.7-7.3-2.1-10.5c-1.4-3.3-3.3-6.1-5.8-8.5c-2.5-2.4-5.4-4.3-8.8-5.8C35.7,0.7,32,0,27.9,0
		s-7.8,0.7-11.2,2.1C13.3,3.6,10.4,5.5,7.9,8s-4.4,5.3-5.8,8.6C0.7,19.9,0,23.4,0,27.1v0.2c0,3.7,0.7,7.3,2.1,10.5
		c1.4,3.3,3.3,6.1,5.8,8.5c2.5,2.4,5.4,4.3,8.8,5.8c3.4,1.4,7.1,2.1,11.2,2.1S35.6,53.5,39,52.1 M21.5,42.3c-1.9-0.9-3.6-2.1-5-3.6
		c-1.4-1.5-2.5-3.2-3.3-5.2c-0.8-2-1.2-4.1-1.2-6.4V27c0-2.2,0.4-4.4,1.2-6.3c0.8-2,1.8-3.7,3.2-5.2s3-2.7,4.9-3.5
		c1.9-0.8,4.1-1.3,6.4-1.3c2.3,0,4.4,0.4,6.4,1.3c1.9,0.9,3.6,2.1,5.1,3.6c1.4,1.5,2.5,3.2,3.3,5.2c0.8,2,1.2,4.1,1.2,6.4v0.2
		c0,2.2-0.4,4.4-1.2,6.3c-0.8,2-1.8,3.7-3.2,5.2c-1.4,1.5-3,2.7-5,3.5c-1.9,0.9-4.1,1.3-6.4,1.3C25.6,43.6,23.5,43.2,21.5,42.3"/>
</g>
</svg>
