<?xml version="1.0" encoding="utf-8"?>
<!-- Generator: Adobe Illustrator 25.0.0, SVG Export Plug-In . SVG Version: 6.00 Build 0)  -->
<svg version="1.1" id="Layer_1" xmlns="http://www.w3.org/2000/svg" xmlns:xlink="http://www.w3.org/1999/xlink" x="0px" y="0px"
	 viewBox="0 0 792 219.4" style="enable-background:new 0 0 792 219.4;" xml:space="preserve">
<style type="text/css">
	.st0{fill:#010307;}
</style>
<g>
	<path class="st0" d="M311.9,144.2l-8.1,26.3l-3,10.9h-0.2l-2.9-10.9l-8.1-26.3h-19.2v51.6h12v-23.7l-0.4-15.9h0.2l12.7,39.6h10.9
		l12.7-39.6h0.2l-0.4,15.9v23.7h11.9v-51.6H311.9L311.9,144.2z M361.9,194.5c2.2-1.3,4-3.4,5.2-6.1l0.4,7.3h11.9v-39.1h-13.3v21
		c0,1.5-0.2,2.8-0.5,3.9c-0.3,1.1-0.8,2-1.4,2.7c-0.6,0.7-1.4,1.2-2.2,1.6c-0.8,0.3-1.7,0.5-2.7,0.5c-1.8,0-3.2-0.5-4.2-1.5
		c-1-1-1.5-2.7-1.5-5.2v-23h-13.3v26.1c0,3.3,0.6,5.9,1.7,8c1.1,2,2.7,3.5,4.7,4.4c2,0.9,4.3,1.4,7,1.4
		C356.9,196.5,359.6,195.9,361.9,194.5L361.9,194.5z M392,147.9V184c0.1,3,0.7,5.4,1.8,7.3c1.2,1.8,2.8,3.2,5,4
		c2.2,0.8,4.7,1.3,7.7,1.3c2.1,0,4.1-0.3,6.1-0.8c2-0.5,3.6-1.3,4.9-2.2l-1.4-8.2c-0.7,0.6-1.6,1-2.5,1.3c-0.9,0.3-2,0.4-3.2,0.4
		c-1.6,0-2.9-0.4-3.8-1.2c-0.9-0.8-1.4-2.1-1.4-4v-37.6L392,147.9L392,147.9z M385.2,156.7v9.5h31.7v-9.5H385.2L385.2,156.7z
		 M444.4,194.5c2.2-1.3,4-3.4,5.2-6.1l0.4,7.3h11.9v-39.1h-13.3v21c0,1.5-0.2,2.8-0.5,3.9c-0.3,1.1-0.8,2-1.4,2.7
		c-0.6,0.7-1.4,1.2-2.2,1.6c-0.8,0.3-1.7,0.5-2.7,0.5c-1.8,0-3.2-0.5-4.2-1.5c-1-1-1.5-2.7-1.5-5.2v-23h-13.3v26.1
		c0,3.3,0.6,5.9,1.7,8c1.1,2,2.7,3.5,4.7,4.4c2,0.9,4.3,1.4,7,1.4C439.5,196.5,442.2,195.9,444.4,194.5L444.4,194.5z M493.3,181.3
		c0,1.1-0.2,2.1-0.5,3c-0.4,0.8-0.9,1.5-1.5,2.1c-0.6,0.5-1.3,1-2.1,1.2c-0.8,0.3-1.7,0.4-2.5,0.4c-1.1,0-2.1-0.3-3-0.9
		c-0.8-0.6-1.3-1.4-1.3-2.6c0-1.2,0.4-2.1,1.1-2.7c0.8-0.6,1.9-1.1,3.5-1.4l7.5-1.6l0.1-7l-14.8,3c-3.6,0.7-6.3,2-8,3.9
		c-1.7,1.9-2.5,4.2-2.5,7c0,2.3,0.5,4.3,1.6,5.9c1.1,1.6,2.6,2.8,4.6,3.6c2,0.8,4.3,1.3,7,1.3c2.3,0,4.5-0.4,6.6-1.1
		c2.1-0.7,3.8-1.8,5.2-3.4c1.3-1.5,2-3.4,2-5.6l-1.5,0.5v0.5c0,2,0.4,3.7,1.3,5c0.9,1.3,2.1,2.3,3.7,3c1.6,0.7,3.4,1,5.4,1
		c2.2,0,4.1-0.4,5.7-1.1l0.8-7.6c-0.6,0.2-1.3,0.3-2.3,0.3c-1.8,0-2.7-1-2.7-3v-14.3c0-3.2-0.7-6-2.2-8.2c-1.4-2.2-3.5-3.9-6.2-5
		c-2.7-1.1-5.9-1.7-9.7-1.7c-5.7,0-10.1,1.1-13.2,3.4c-3.1,2.2-5.1,5.2-5.8,9l11.3,2.7c0.5-2.2,1.3-3.7,2.5-4.6
		c1.2-0.9,2.7-1.3,4.4-1.3c1.7,0,3.1,0.5,4.1,1.6c1,1.1,1.5,2.5,1.5,4.3V181.3L493.3,181.3z M516.6,140.1v44.1
		c0,4.4,0.9,7.5,2.8,9.5c1.9,1.9,4.9,2.9,9.1,2.9c1.5,0,2.9-0.2,4.5-0.5c1.5-0.4,2.7-0.8,3.7-1.4l0.9-8c-0.7,0.2-1.4,0.4-1.9,0.5
		c-0.5,0.1-1.2,0.2-2,0.2c-1.4,0-2.3-0.4-2.9-1.1c-0.6-0.7-0.9-2-0.9-3.7v-42.4H516.6L516.6,140.1z M554.8,150.6
		c1.3-1,1.9-2.6,1.9-4.8c0-2.2-0.6-3.9-1.9-4.9c-1.3-1-3.2-1.5-5.9-1.5c-2.7,0-4.7,0.5-5.9,1.5c-1.2,1-1.8,2.6-1.8,4.9
		c0,2.2,0.6,3.8,1.8,4.8c1.2,1,3.2,1.5,5.9,1.5C551.6,152.1,553.6,151.6,554.8,150.6L554.8,150.6z M542.3,156.7v39.1h13.3v-39.1
		H542.3L542.3,156.7z M598.1,195.8v-9.3h-13.4l-6.9,0.2l4.3-4.3l15.3-17.5v-8.1h-34.2v9.3h13.4l6.2-0.2l-4.1,4.1L563,187.6v8.1
		H598.1L598.1,195.8z M627.2,181.3c0,1.1-0.2,2.1-0.5,3c-0.4,0.8-0.9,1.5-1.5,2.1c-0.6,0.5-1.3,1-2.1,1.2c-0.8,0.3-1.7,0.4-2.5,0.4
		c-1.1,0-2.1-0.3-3-0.9c-0.8-0.6-1.3-1.4-1.3-2.6c0-1.2,0.4-2.1,1.1-2.7c0.8-0.6,1.9-1.1,3.5-1.4l7.5-1.6l0.1-7l-14.8,3
		c-3.6,0.7-6.3,2-8,3.9c-1.7,1.9-2.5,4.2-2.5,7c0,2.3,0.5,4.3,1.6,5.9s2.6,2.8,4.6,3.6c2,0.8,4.3,1.3,7,1.3c2.3,0,4.5-0.4,6.6-1.1
		c2.1-0.7,3.8-1.8,5.2-3.4c1.3-1.5,2-3.4,2-5.6l-1.5,0.5v0.5c0,2,0.4,3.7,1.3,5c0.9,1.3,2.1,2.3,3.7,3c1.6,0.7,3.4,1,5.4,1
		c2.2,0,4.1-0.4,5.7-1.1l0.8-7.6c-0.6,0.2-1.3,0.3-2.3,0.3c-1.8,0-2.7-1-2.7-3v-14.3c0-3.2-0.7-6-2.1-8.2c-1.4-2.2-3.5-3.9-6.2-5
		c-2.7-1.1-5.9-1.7-9.7-1.7c-5.7,0-10.1,1.1-13.2,3.4c-3.1,2.2-5.1,5.2-5.8,9l11.3,2.7c0.5-2.2,1.3-3.7,2.5-4.6
		c1.2-0.9,2.7-1.3,4.4-1.3c1.7,0,3.1,0.5,4.1,1.6c1,1.1,1.5,2.5,1.5,4.3V181.3L627.2,181.3z M652.1,149.5V184c0.1,3,0.7,5.4,1.8,7.3
		c1.2,1.8,2.8,3.2,5,4c2.2,0.8,4.7,1.3,7.7,1.3c2.1,0,4.1-0.3,6.1-0.8c2-0.5,3.6-1.3,4.9-2.2l-1.4-8.2c-0.7,0.6-1.6,1-2.5,1.3
		c-0.9,0.3-2,0.4-3.2,0.4c-1.6,0-2.9-0.4-3.8-1.2c-0.9-0.8-1.4-2.1-1.4-4v-36L652.1,149.5L652.1,149.5z M645.4,156.7v9.5h31.7v-9.5
		H645.4L645.4,156.7z M695.8,150.6c1.3-1,1.9-2.6,1.9-4.8c0-2.2-0.6-3.9-1.9-4.9c-1.3-1-3.2-1.5-5.9-1.5c-2.7,0-4.7,0.5-5.9,1.5
		c-1.2,1-1.8,2.6-1.8,4.9c0,2.2,0.6,3.8,1.8,4.8c1.2,1,3.2,1.5,5.9,1.5C692.5,152.1,694.5,151.6,695.8,150.6L695.8,150.6z
		 M683.2,156.7v39.1h13.3v-39.1H683.2L683.2,156.7z M713.9,158.3c-3.1,1.6-5.6,3.9-7.3,7c-1.7,3-2.6,6.7-2.6,11
		c0,4.3,0.9,7.9,2.6,11c1.7,3,4.2,5.4,7.3,7c3.1,1.6,6.7,2.4,10.7,2.4c4.1,0,7.7-0.8,10.8-2.4c3.1-1.6,5.5-3.9,7.3-7
		c1.7-3,2.6-6.7,2.6-11c0-4.3-0.9-7.9-2.6-11c-1.7-3-4.2-5.4-7.3-7c-3.1-1.6-6.7-2.4-10.8-2.4C720.6,155.9,717,156.7,713.9,158.3
		L713.9,158.3z M728.6,166.4c1.1,0.7,1.9,1.9,2.5,3.5c0.6,1.6,0.9,3.7,0.9,6.3c0,2.6-0.3,4.6-0.9,6.2c-0.6,1.6-1.4,2.8-2.5,3.5
		c-1.1,0.8-2.4,1.1-4,1.1c-1.5,0-2.8-0.4-3.9-1.1c-1.1-0.8-1.9-1.9-2.5-3.5c-0.6-1.6-0.9-3.7-0.9-6.2c0-2.6,0.3-4.6,0.9-6.3
		c0.6-1.6,1.4-2.8,2.5-3.5c1.1-0.7,2.4-1.1,3.9-1.1C726.2,165.3,727.5,165.7,728.6,166.4L728.6,166.4z M766.1,195.8V175
		c0-2.2,0.3-3.9,0.9-5.2c0.6-1.3,1.5-2.3,2.6-2.9c1.1-0.6,2.3-0.9,3.5-0.9c1.6,0,2.9,0.5,4,1.6c1,1,1.6,2.9,1.6,5.6v22.5H792v-26
		c0-3.1-0.6-5.6-1.7-7.7c-1.1-2-2.7-3.6-4.7-4.6c-2-1-4.4-1.6-7.1-1.6c-2.5,0-4.8,0.5-6.8,1.4c-2,1-3.7,2.4-5,4.3
		c-1.3,1.9-2.3,4.2-2.8,7l1.5,1.5l-0.7-13.4h-11.9v39.1H766.1L766.1,195.8z"/>
	<path class="st0" d="M270.6,24.3V119h40.1c14.8,0,26.2-4.1,34.1-12.3c7.9-8.2,11.8-19.9,11.8-35c0-15.1-3.9-26.8-11.8-35
		c-7.9-8.2-19.2-12.3-34.1-12.3H270.6L270.6,24.3z M295.2,100.3V43h13c8,0,13.9,2.4,17.6,7.2c3.7,4.8,5.5,12,5.5,21.4
		c0,9.5-1.8,16.6-5.5,21.4c-3.7,4.8-9.5,7.2-17.6,7.2H295.2L295.2,100.3z M421.1,118.3c4.5-1.4,8.4-3.6,11.7-6.4
		c3.3-2.8,5.6-6.2,7-10.3L420.2,95c-1.1,2.6-2.7,4.6-4.8,6c-2.2,1.4-5,2.2-8.7,2.2c-3.3,0-6-0.7-8.3-2c-2.3-1.3-4.1-3.4-5.3-6.3
		c-1.2-2.9-1.9-6.7-1.9-11.5c0-4.8,0.5-8.7,1.6-11.7c1.1-3,2.7-5.2,4.9-6.7c2.2-1.4,4.8-2.2,7.8-2.2c4.3,0,7.5,1.5,9.5,4.6
		c2.1,3.1,3.1,7.5,3.1,13.2l11.8-4.6h-46.2v13.2h56.8c0.2-1.1,0.3-2.6,0.4-4.2c0.1-1.7,0.1-3.4,0.1-5.2c0-6.6-1.4-12.4-4.2-17.6
		c-2.8-5.1-6.9-9.1-12.1-12c-5.3-2.9-11.7-4.4-19.2-4.4c-7.4,0-13.9,1.5-19.6,4.4c-5.7,3-10.1,7.2-13.2,12.7
		c-3.1,5.5-4.7,12.2-4.7,20.1c0,7.9,1.6,14.6,4.7,20.1c3.1,5.5,7.5,9.7,13.3,12.7c5.8,3,12.6,4.4,20.4,4.4
		C411.8,120.4,416.6,119.7,421.1,118.3L421.1,118.3z M484,101.9l-14.8-54.6h-25.7l25.8,71.7h29.1l25.8-71.7h-25.2L484,101.9
		L484,101.9z M552.3,28.7c-7,3.9-12.3,9.4-16.1,16.7c-3.7,7.3-5.6,16-5.6,26.2c0,10.2,1.9,19,5.6,26.2c3.7,7.3,9.1,12.8,16.1,16.7
		c7,3.9,15.2,5.8,24.8,5.8c9.6,0,17.8-1.9,24.7-5.8c6.9-3.9,12.3-9.4,16-16.7c3.7-7.3,5.6-16,5.6-26.2c0-10.2-1.9-19-5.6-26.2
		c-3.7-7.3-9.1-12.8-16-16.7c-6.9-3.9-15.2-5.8-24.7-5.8C567.5,22.9,559.3,24.9,552.3,28.7L552.3,28.7z M588.6,45.6
		c3.1,2.2,5.5,5.5,7.1,9.8c1.6,4.4,2.4,9.8,2.4,16.3c0,6.4-0.8,11.8-2.4,16.2c-1.6,4.4-4,7.7-7.1,9.9c-3.1,2.2-7,3.3-11.5,3.3
		s-8.5-1.1-11.6-3.3c-3.2-2.2-5.5-5.5-7.2-9.9c-1.6-4.4-2.4-9.8-2.4-16.2c0-6.5,0.8-11.9,2.4-16.3c1.6-4.3,4-7.6,7.2-9.8
		c3.2-2.2,7-3.3,11.6-3.3S585.5,43.4,588.6,45.6L588.6,45.6z M662.7,133.4V96.5l-2.3,3.4c1.3,5.9,4,10.8,8,14.7
		c4,3.9,9.3,5.8,15.8,5.8c5.9,0,11.1-1.5,15.6-4.4c4.4-3,7.9-7.3,10.4-12.9c2.5-5.6,3.7-12.4,3.7-20.2c0-7.8-1.2-14.5-3.7-20
		c-2.4-5.5-5.9-9.7-10.3-12.6c-4.4-2.9-9.6-4.4-15.5-4.4c-4.7,0-8.8,1.1-12.5,3.2c-3.6,2.1-6.6,5-8.9,8.6c-2.3,3.6-3.8,7.8-4.4,12.6
		l2.9,3l-1.3-26h-21.9v93.4L662.7,133.4L662.7,133.4z M668.7,100.2c-2-1.5-3.5-3.8-4.5-6.7c-1-2.9-1.5-6.4-1.5-10.4
		c0-4.2,0.5-7.7,1.6-10.6c1.1-2.9,2.7-5,4.7-6.5c2-1.5,4.3-2.2,7-2.2c4.2,0,7.5,1.6,9.8,4.7c2.3,3.1,3.5,8,3.5,14.7
		c0,6.7-1.2,11.6-3.6,14.7c-2.4,3.1-5.7,4.7-9.9,4.7C673.1,102.5,670.7,101.7,668.7,100.2L668.7,100.2z M777.1,117.2
		c5-2.2,8.7-5.1,11.2-8.9c2.5-3.8,3.7-7.9,3.7-12.4c0-5.1-1.6-9.4-4.9-12.9c-3.2-3.5-8.6-6-15.9-7.3l-13-2.6
		c-3.3-0.7-5.5-1.5-6.7-2.4c-1.2-0.9-1.8-2-1.8-3.2c0-1.1,0.4-2,1.1-2.8c0.8-0.8,1.9-1.4,3.5-1.9c1.6-0.4,3.5-0.6,5.7-0.6
		c3.7,0,7.4,0.8,11,2.4c3.6,1.6,6.6,3.8,8.9,6.8l11.8-13.2c-3.3-4-7.8-7.1-13.3-9.2c-5.5-2.1-11.9-3.2-19.2-3.2
		c-7.6,0-14,1.1-19,3.4c-5,2.3-8.7,5.2-11.2,8.7c-2.4,3.5-3.7,7.3-3.7,11.2c0,5.8,1.9,10.5,5.7,14.1c3.8,3.6,10.3,6.3,19.4,8.1
		l9.9,1.9c2.9,0.7,4.8,1.4,5.7,2.2c1,0.8,1.4,1.9,1.4,3.2c0,1.9-1,3.3-2.9,4.1c-1.9,0.8-4.4,1.2-7.5,1.2c-4.9,0-9.3-1-13.2-3.1
		c-3.9-2.1-7.1-4.6-9.6-7.7l-11.5,13.5c4.1,4.4,9.2,7.8,15.4,10.1c6.2,2.3,12.8,3.5,20,3.5C765.9,120.4,772.1,119.3,777.1,117.2
		L777.1,117.2z"/>
	<path class="st0" d="M126,186.8c6.3,0,11.4-5.1,11.4-11.4c0-6.3-5.1-11.4-11.4-11.4c-4.5,0-8.5,2.6-10.4,6.7H48.8v-70.5h8.1v62.5
		h65.4c5.1,0,10-1.2,14.4-3.6l11.6,14.1l0.4,0.6l0.1-0.1l0.1,0.1l0.5-0.4c0.3-0.2,0.6-0.3,0.9-0.5c0.4-0.2,0.8-0.5,1.2-0.8
		c8.9-6.4,16.1-15.2,21.4-26.2c5.2-11,7.9-23.1,7.9-36c0-12.9-2.7-25.1-7.9-36.1c-5.3-11-12.4-19.8-21.4-26.1
		c-9-6.4-18.8-9.6-29.1-9.6H37.9v143.6h78.7C118.8,184.8,122.2,186.8,126,186.8L126,186.8z M149.7,147c7.6-10.3,11.4-22.8,11.4-37.3
		c0-14.4-3.8-26.9-11.4-37.2c-7.6-10.4-16.9-15.6-27.5-15.6h-49C71,53.8,67.7,52,64.1,52c-6.3,0-11.4,5.1-11.4,11.4
		c0,6.3,5.1,11.4,11.4,11.4c4.6,0,8.7-2.8,10.4-7.1h47.7c7.5,0,14.1,4.1,19.5,12.1c5.5,8.1,8.2,18.2,8.2,29.8
		c0,11.6-2.8,21.6-8.2,29.8c-5.4,8.1-12,12.2-19.5,12.2H67.8V89.9l-0.1-0.7l-18.9,0V48.8h73.4c8.4,0,16.3,2.7,23.5,8.1
		c7.2,5.4,13,12.9,17.3,22.2c4.3,9.3,6.5,19.7,6.5,30.6c0,16.7-4.7,31.2-14,43.1c-1.6,2-3.3,3.9-5,5.7l-5.1-6.2
		C146.9,150.5,148.4,148.8,149.7,147L149.7,147z"/>
	<path class="st0" d="M206.3,54.8c-8.6-16.3-20.3-29.6-34.7-39.3c0,0,0-0.1,0-0.1c0.1-0.4,0.2-0.8,0.2-1.3c0-6.3-5.1-11.4-11.4-11.4
		S149,7.8,149,14c0,6.3,5.1,11.4,11.4,11.4c1.5,0,3-0.3,4.6-1c6.7,4.4,12.7,9.6,17.8,15.4c7.7,8.8,14,19.4,18.6,31.6
		c4.6,12.2,7,25,7,38.3c0,13.3-2.4,26.2-7,38.4c-4.6,12.2-10.9,22.8-18.6,31.6c-7.7,8.8-17,15.8-27.6,21c-10.6,5.2-21.7,7.8-33,7.8
		H10.9v-36.3H19v28.2h103.3c13.8,0,26.8-4.1,38.7-12.2c11.9-8.1,21.5-19.2,28.5-33.1c7-13.9,10.6-29.2,10.6-45.5
		c0-16.3-3.6-31.6-10.6-45.5c-7-13.9-16.6-25.1-28.5-33.1c-6.7-4.6-14.2-7.9-22.1-9.9l2.7-19.1l-6.3-0.9c-5.1-0.9-9.1-1.2-13-1.2H0
		v219.4h122.2c12.9,0,25.4-2.9,37.4-8.7c11.9-5.8,22.4-13.6,31.1-23.4c8.7-9.8,15.8-21.5,21-35c5.2-13.5,7.9-27.8,7.9-42.6
		C219.6,90,215.1,71.5,206.3,54.8L206.3,54.8z M128.1,19.4l-0.6-0.1c-1.7-0.2-3.5-0.4-5.2-0.4H19v108.9c-3.8,2-6.1,5.8-6.1,10
		c0,6.3,5.1,11.4,11.4,11.4c6.3,0,11.4-5.1,11.4-11.4c0-4-2.2-7.7-5.8-9.8V29.9h92.4c11.7,0,22.9,3.6,33,10.7
		c10.2,7.1,18.5,16.9,24.5,29.2c6.1,12.3,9.1,25.7,9.1,40c0,14.4-3.1,27.9-9.1,40.1c-6.1,12.2-14.3,22-24.5,29.1
		c-10.1,7.1-21.3,10.7-33.1,10.7H29.9v-28.3l-19,0V10.9h111.3c2.2,0,4.5,0.1,7,0.4L128.1,19.4L128.1,19.4z"/>
</g>
</svg>
