<?xml version="1.0" encoding="utf-8"?>
<!-- Generator: Adobe Illustrator 25.0.0, SVG Export Plug-In . SVG Version: 6.00 Build 0)  -->
<svg version="1.1" id="Layer_1" xmlns="http://www.w3.org/2000/svg" xmlns:xlink="http://www.w3.org/1999/xlink" x="0px" y="0px"
	 viewBox="0 0 720 418.9" style="enable-background:new 0 0 720 418.9;" xml:space="preserve">
<style type="text/css">
	.st0{fill:#004C97;}
	.st1{fill:#489FDF;}
</style>
<g>
	<path class="st0" d="M633.4,211.5V0c-15.3,14.6-31.6,28.1-48.7,40.4v141.2L633.4,211.5L633.4,211.5z M536,221.8V71.2
		c-15.7,8.5-32,16.1-48.7,22.8v127.9H536L536,221.8z M438.5,221.8V110.3c-15.9,4.4-32.2,7.9-48.7,10.6v100.9H438.5L438.5,221.8z
		 M389.8,323.9v94.9h48.7v-94.9H389.8L389.8,323.9z M487.3,323.9v94.9H536v-94.9H487.3L487.3,323.9z M584.7,368.2v50.6h48.7v-80.6
		L584.7,368.2L584.7,368.2z"/>
	<polygon class="st1" points="557.8,164.8 557.8,221.6 0,221.6 0,307.3 557.8,307.3 557.8,364.1 720,264.5 557.8,164.8 	"/>
	<path class="st0" d="M0,0v418.9h48.7V40.4C31.6,28.1,15.3,14.6,0,0L0,0z"/>
	<path class="st0" d="M194.9,110.3v308.5h48.7V120.9C227.1,118.3,210.8,114.7,194.9,110.3L194.9,110.3z"/>
	<path class="st0" d="M97.4,71.2v347.7h48.7V93.9C129.4,87.2,113.1,79.7,97.4,71.2L97.4,71.2z"/>
	<path class="st0" d="M292.4,126.1v292.7h48.7V126.1c-8.1,0.4-16.2,0.7-24.4,0.7S300.4,126.5,292.4,126.1L292.4,126.1z"/>
</g>
</svg>
