<?xml version="1.0" encoding="UTF-8"?><svg id="a" xmlns="http://www.w3.org/2000/svg" viewBox="0 0 807.84 135"><path d="M148.67,28.48h60.48c.88,0,1.64.32,2.28.96.64.64.96,1.4.96,2.28v18.24c0,.88-.32,1.64-.96,2.28-.64.64-1.4.96-2.28.96h-34.32v8.88h31.92c.88,0,1.64.32,2.28.96.64.64.96,1.4.96,2.28v18.12c0,.88-.32,1.64-.96,2.28-.64.64-1.4.96-2.28.96h-31.92v22.56c0,.88-.32,1.64-.96,2.28-.64.64-1.4.96-2.28.96h-22.92c-.88,0-1.64-.32-2.28-.96-.64-.64-.96-1.4-.96-2.28V31.72c0-.88.32-1.64.96-2.28.64-.64,1.4-.96,2.28-.96Z" style="fill:#007dff;"/><path d="M255.47,87.88h33.24c.88,0,1.64.32,2.28.96.64.64.96,1.4.96,2.28v18.12c0,.88-.32,1.64-.96,2.28-.64.64-1.4.96-2.28.96h-60.48c-.88,0-1.64-.32-2.28-.96-.64-.64-.96-1.4-.96-2.28V31.72c0-.88.32-1.64.96-2.28.64-.64,1.4-.96,2.28-.96h24c.88,0,1.64.32,2.28.96.64.64.96,1.4.96,2.28v56.16Z" style="fill:#007dff;"/><path d="M352.55,28.48h23.52c.88,0,1.64.32,2.28.95.64.63.96,1.38.96,2.25v47.63c0,11.06-3.48,19.37-10.44,24.94-6.96,5.57-16.42,8.35-28.38,8.35s-21.44-2.76-28.44-8.29c-7-5.53-10.5-13.86-10.5-25V31.68c0-.87.32-1.62.96-2.25.64-.63,1.4-.95,2.28-.95h23.52c.88,0,1.64.32,2.28.94.64.63.96,1.38.96,2.24v47.74c0,6.05,2.96,9.08,8.88,9.08s8.88-3.02,8.88-9.08V31.66c0-.86.32-1.61.96-2.24.64-.63,1.4-.94,2.28-.94Z" style="fill:#007dff;"/><path d="M475.43,108.52c.24.4.36.9.36,1.5s-.26,1.16-.78,1.68c-.52.52-1.14.78-1.86.78h-27c-2.16,0-3.8-.92-4.92-2.76l-10.44-16.08-9.96,16.08c-1.12,1.84-2.76,2.76-4.92,2.76h-26.16c-.72,0-1.34-.26-1.86-.78-.52-.52-.78-1.08-.78-1.68s.12-1.1.36-1.5l25.2-39-22.68-37.08c-.24-.48-.36-1-.36-1.56s.26-1.1.78-1.62c.52-.52,1.14-.78,1.86-.78h26.04c2.24,0,3.92,1,5.04,3l8.4,14.64,9.12-14.64c1.12-2,2.8-3,5.04-3h24.84c.72,0,1.34.26,1.86.78.52.52.78,1.08.78,1.68s-.12,1.1-.36,1.5l-23.16,36.72,25.56,39.36Z" style="fill:#007dff;"/><path d="M559.94,90.78l-8.21-8.21c-6.61-6.61-6.61-17.33,0-23.94l8.21-8.21.45-.45v-18.24c0-.88-.32-1.64-.96-2.28-.64-.64-1.4-.96-2.28-.96h-21.72c-.88,0-1.64.32-2.28.96s-.96,1.4-.96,2.28v32.76l-20.28-33.24c-1.04-1.84-2.68-2.76-4.92-2.76h-18.96c-.88,0-1.64.32-2.28.96-.64.64-.96,1.4-.96,2.28v77.52c0,.88.32,1.64.96,2.28.64.64,1.4.96,2.28.96h21.72c.88,0,1.64-.32,2.28-.96s.96-1.4.96-2.28v-30.12l20.28,30.6c1.2,1.84,2.84,2.76,4.92,2.76h18.96c.88,0,1.64-.32,2.28-.96.64-.64.96-1.4.96-2.28v-18.01l-.45-.45Z" style="fill:#007dff;"/><path d="M722.86,29.38c-.52-.52-1.14-.78-1.86-.78h-22.32c-2.88,0-4.68,1.32-5.4,3.96l-11.4,44.64-11.4-44.64c-.72-2.64-2.52-3.96-5.4-3.96h-22.32c-.72,0-1.34.26-1.86.78-.52.52-.78,1.02-.78,1.5s.04.88.12,1.2l4.17,14.14,12.41,12.41c6.61,6.61,6.61,17.33,0,23.94l-1.31,1.31,7.29,24.75c.72,2.64,2.52,3.96,5.4,3.96h27.36c2.88,0,4.68-1.32,5.4-3.96l22.56-76.56c.08-.32.12-.72.12-1.2s-.26-.98-.78-1.5Z" style="fill:#007dff;"/><path d="M749.52,28.6h26.04c2.88,0,4.68,1.32,5.4,3.96l26.76,76.56c.08.24.12.62.12,1.14s-.26,1.04-.78,1.56c-.52.52-1.14.78-1.86.78h-22.2c-2.4,0-3.96-1-4.68-3l-2.88-7.92h-25.8l-2.88,7.92c-.72,2-2.28,3-4.68,3h-22.2c-.72,0-1.34-.26-1.86-.78-.52-.52-.78-1.04-.78-1.56s.04-.9.12-1.14l26.76-76.56c.72-2.64,2.52-3.96,5.4-3.96ZM755.76,78.28h13.56l-6.84-22.32-6.72,22.32Z" style="fill:#007dff;"/><path d="M649.68,60.23l-34.94-34.94c-5.69-5.69-14.92-5.69-20.61,0l-34.93,34.93c-5.69,5.69-5.69,14.92,0,20.61l34.93,34.94c5.69,5.69,14.92,5.69,20.61,0l34.93-34.93c5.69-5.69,5.69-14.92,0-20.61h0ZM622.12,74.57l-13.65,13.65c-2.22,2.23-5.83,2.23-8.06,0l-13.65-13.65c-2.22-2.22-2.22-5.83,0-8.06l13.65-13.65c2.23-2.23,5.83-2.23,8.06,0l13.65,13.65c2.23,2.22,2.23,5.83,0,8.06h0Z" style="fill:#00ce97;"/><g id="b"><path d="M100.54,75.32l-16-15.82c-2.61-2.58-6.83-2.58-9.44,0l-16,15.82c-2.61,2.58-2.61,6.76,0,9.33l16,15.82c2.61,2.58,6.84,2.58,9.44,0l16-15.82c2.61-2.58,2.61-6.76,0-9.33h0ZM87.92,81.81l-6.25,6.18c-1.02,1.01-2.67,1.01-3.69,0l-6.25-6.18c-1.02-1.01-1.02-2.64,0-3.65l6.25-6.18c1.02-1.01,2.67-1.01,3.69,0l6.25,6.18c1.02,1.01,1.02,2.64,0,3.65h0Z" style="fill:#00ce97;"/><path d="M102.5,38.33V6.51c0-3.59-2.95-6.51-6.58-6.51h-32.18c-3.64,0-6.58,2.92-6.58,6.51v31.82c0,3.6,2.95,6.51,6.58,6.51h32.18c3.64,0,6.58-2.91,6.58-6.51h0Z" style="fill:#007dff;"/><path d="M45.35,128.49V6.51c0-3.6-2.95-6.51-6.58-6.51H6.58C2.95,0,0,2.91,0,6.51v121.98c0,3.59,2.95,6.51,6.58,6.51h32.18c3.64,0,6.58-2.91,6.58-6.51h0Z" style="fill:#007dff;"/></g></svg>