<?xml version="1.0" encoding="utf-8"?>
<!-- Generator: Adobe Illustrator 25.4.1, SVG Export Plug-In . SVG Version: 6.00 Build 0)  -->
<svg version="1.1" id="Layer_1" xmlns="http://www.w3.org/2000/svg" xmlns:xlink="http://www.w3.org/1999/xlink" x="0px" y="0px"
	 viewBox="0 0 720 276.8" style="enable-background:new 0 0 720 276.8;" xml:space="preserve">
<style type="text/css">
	.st0{fill:#0B1F41;}
	.st1{fill:#5297C9;}
	.st2{fill:#1670A0;}
	.st3{fill:#2089C1;}
	.st4{fill:#0880B7;}
	.st5{fill:#FFFFFF;}
	.st6{fill:#F05323;}
	.st7{fill:#F58220;}
	.st8{clip-path:url(#SVGID_00000109716674166922948800000007185013117972962993_);fill:#0586BF;}
	.st9{fill:#A7C3E0;}
	.st10{fill:#00BCE7;}
</style>
<g>
	<path class="st0" d="M274.9,137.4C274.9,61.5,213.4,0,137.4,0C61.5,0,0,61.5,0,137.4c0,41.5,18.4,78.7,47.5,103.9
		c45.8-15.5,82.3-37.4,89.9-94.9c0,0,36.1,66.8-33.3,124.4c10.7,2.7,21.8,4.1,33.3,4.1C213.4,274.9,274.9,213.4,274.9,137.4"/>
	<path class="st1" d="M137.5,274.9C137.6,274.9,137.6,274.9,137.5,274.9C137.6,274.9,137.6,274.9,137.5,274.9 M137.6,274.9
		C137.7,274.9,137.7,274.9,137.6,274.9C137.7,274.9,137.7,274.9,137.6,274.9 M137.7,274.9C137.7,274.9,137.8,274.9,137.7,274.9
		C137.8,274.9,137.7,274.9,137.7,274.9 M137.8,274.9c0.6,0,1.2,0,1.8,0c1.2,0,2.3-0.1,3.5-0.1C141.3,274.8,139.6,274.9,137.8,274.9
		 M47.5,241.3C47.5,241.3,47.5,241.3,47.5,241.3C47.5,241.3,47.5,241.3,47.5,241.3C47.5,241.3,47.5,241.3,47.5,241.3"/>
	<path class="st2" d="M139.6,274.9c14.1-0.2,27.6-2.6,40.3-6.7c36.4-72-38.5-125.2-42.5-125.2c-9.9,57.6-77.3,66-112.5,73.4
		c6.4,9.1,13.9,17.5,22.3,24.8C23,220,6.2,190.3,1.4,156.8c29.5,8.4,59.6,14.8,84.1,14.8c26.8,0,46.8-7.7,52-28.8
		c28.9,0,77.7,25,94.2,94.6c-23.3,22-54.3,35.9-88.5,37.3C141.9,274.8,140.8,274.9,139.6,274.9 M47.5,241.3
		C47.5,241.3,47.5,241.3,47.5,241.3C47.5,241.3,47.5,241.3,47.5,241.3C47.5,241.3,47.5,241.3,47.5,241.3 M47.4,241.2
		C47.4,241.2,47.4,241.2,47.4,241.2C47.4,241.2,47.4,241.2,47.4,241.2"/>
	<path class="st1" d="M137.4,274.9c-11.5,0-22.6-1.4-33.3-4.1l0,0C114.8,273.5,126,274.9,137.4,274.9
		C137.5,274.9,137.5,274.9,137.4,274.9C137.5,274.9,137.5,274.9,137.4,274.9 M137.6,274.9C137.6,274.9,137.6,274.9,137.6,274.9
		C137.6,274.9,137.6,274.9,137.6,274.9 M137.7,274.9C137.7,274.9,137.7,274.9,137.7,274.9C137.7,274.9,137.7,274.9,137.7,274.9
		 M137.8,274.9C137.8,274.9,137.8,274.9,137.8,274.9C137.8,274.9,137.8,274.9,137.8,274.9"/>
	<path class="st2" d="M47.4,241.3C47.4,241.3,47.4,241.3,47.4,241.3C47.4,241.3,47.4,241.3,47.4,241.3 M47.3,241.2
		C47.3,241.2,47.3,241.2,47.3,241.2C47.3,241.2,47.3,241.2,47.3,241.2"/>
	<path class="st3" d="M137.4,274.9c-11.5,0-22.6-1.4-33.3-4.1c0,0,0,0,0,0C114.8,273.5,126,274.9,137.4,274.9c0.7,0,1.5,0,2.2,0
		c-0.6,0-1.2,0-1.8,0c0,0,0,0,0,0c0,0,0,0-0.1,0c0,0,0,0,0,0c0,0,0,0,0,0c0,0,0,0-0.1,0C137.6,274.9,137.6,274.9,137.4,274.9
		C137.5,274.9,137.5,274.9,137.4,274.9 M47.5,241.3L47.5,241.3C47.5,241.3,47.5,241.3,47.5,241.3c45.8-15.5,82.3-37.4,89.9-94.9
		c0,0,0,0,0,0C129.8,204,93.3,225.8,47.5,241.3"/>
	<path class="st4" d="M137.4,274.9c-11.5,0-22.6-1.4-33.3-4.1c34-28.2,42.7-58.7,42.7-82.4c0-24.6-9.4-42-9.4-42c0,0,0,0,0,0
		c0,0,0,0,0,0c-7.6,57.5-44.2,79.4-89.9,94.9c0,0-0.1-0.1-0.1-0.1c0,0,0,0,0,0c0,0,0,0-0.1-0.1c0,0,0,0,0,0
		c-8.4-7.3-15.9-15.7-22.3-24.8c35.1-7.4,102.5-15.8,112.5-73.4c4,0,78.9,53.2,42.5,125.2c-12.7,4.1-26.3,6.5-40.3,6.7
		C138.9,274.9,138.2,274.9,137.4,274.9"/>
	<path class="st5" d="M161.2,66.9c0-18.6-23.7-51.7-23.7-51.7s-23.7,33.1-23.7,51.7c0,18.6,23.7,53.1,23.7,69.1
		C137.5,120,161.2,85.4,161.2,66.9"/>
	<path class="st5" d="M147.8,115.6c7,3.2,17.8,9.9,17.8,20.3c10-17.9-2.2-35.9-7.8-42.6C154.5,100.9,150.8,108.5,147.8,115.6
		L147.8,115.6z"/>
	<path class="st5" d="M127.1,115.6c-7,3.2-17.8,9.9-17.8,20.3c-10-17.9,2.2-35.9,7.8-42.6C120.4,100.9,124.1,108.5,127.1,115.6
		L127.1,115.6z"/>
	<path class="st6" d="M152.7,144.1c0-8.5-3.6-15.8-8.7-19.2c-2.5,4.9-6.6,16.5-6.6,21.4c0-5-3.9-16.8-6.2-21.7
		c-5.3,3.3-9.1,10.8-9.1,19.5c0,11.8,12.4,34.8,15.3,34.8C140.4,178.9,152.7,155.8,152.7,144.1L152.7,144.1z"/>
	<path class="st7" d="M147.3,142.7c0-5.5-2.3-10.2-5.6-12.5c-1.6,3.2-4.3,10.7-4.3,13.9c0-3.2-2.5-10.9-4-14.1
		c-3.5,2.1-5.9,7-5.9,12.6c0,7.6,8,22.6,9.9,22.6C139.3,165.3,147.3,150.3,147.3,142.7L147.3,142.7z"/>
	<path class="st5" d="M150.9,36.9l-31.6,9.6c-3.2,7.2-5.6,14.5-5.6,20.3c0,9.1,5.7,22.1,11.5,34.8l28.2-8.6
		c4.2-9.8,7.7-19.1,7.7-26.2C161.2,58.4,156.2,46.9,150.9,36.9"/>
	<g>
		<defs>
			<path id="SVGID_1_" d="M150.9,36.9l-31.6,9.6c-3.2,7.2-5.6,14.5-5.6,20.3c0,9.1,5.7,22.1,11.5,34.8l28.2-8.6
				c4.2-9.8,7.7-19.1,7.7-26.2C161.2,58.4,156.2,46.9,150.9,36.9"/>
		</defs>
		<clipPath id="SVGID_00000009576208637245388310000015265849738085230520_">
			<use xlink:href="#SVGID_1_"  style="overflow:visible;"/>
		</clipPath>
		<polyline style="clip-path:url(#SVGID_00000009576208637245388310000015265849738085230520_);fill:#0586BF;" points="100.3,52.4 
			116.2,104.5 171.6,87.5 155.7,35.4 100.3,52.4 		"/>
	</g>
	<polyline class="st5" points="145.2,49.9 145.2,56 129.7,61 129.7,54.8 145.2,49.9 145.2,49.9 	"/>
	<polyline class="st5" points="129.7,64.8 129.7,75.7 135.7,75.7 135.7,69.1 145.2,66 145.2,59.9 129.7,64.8 	"/>
	<polygon class="st5" points="123.9,81.8 128.5,81.8 128.5,83 125.3,83 125.3,84.3 128.2,84.3 128.2,85.5 125.3,85.5 125.3,87.8 
		123.9,87.8 123.9,81.8 	"/>
	<polygon class="st5" points="129.7,81.8 131.1,81.8 131.1,87.8 129.7,87.8 129.7,81.8 	"/>
	<polygon class="st5" points="132.6,81.8 133.8,81.8 136.6,85.5 136.6,81.8 137.9,81.8 137.9,87.8 136.8,87.8 133.9,84 133.9,87.8 
		132.6,87.8 132.6,81.8 	"/>
	<path class="st5" d="M146.2,87l0.8-0.9c0.5,0.5,1.1,0.7,1.8,0.7c0.5,0,0.9-0.2,0.9-0.6v0c0-0.3-0.2-0.5-1.2-0.8
		c-1.2-0.3-2-0.6-2-1.8v0c0-1.1,0.9-1.8,2.1-1.8c0.8,0,1.6,0.3,2.2,0.8l-0.7,1c-0.5-0.4-1.1-0.6-1.6-0.6c-0.5,0-0.8,0.2-0.8,0.5v0
		c0,0.4,0.3,0.5,1.3,0.8c1.2,0.3,1.9,0.8,1.9,1.8v0c0,1.2-0.9,1.9-2.2,1.9C147.8,87.9,146.9,87.6,146.2,87L146.2,87z"/>
	<path class="st5" d="M139.1,84.8L139.1,84.8c0-1.7,1.4-3.1,3.2-3.1c1.9,0,3.2,1.4,3.2,3.1v0c0,1.7-1.4,3.1-3.2,3.1
		C140.4,87.9,139.1,86.5,139.1,84.8L139.1,84.8z M144.1,84.8L144.1,84.8c0-1-0.8-1.9-1.8-1.9l-0.1,0c-1.1,0-1.8,0.8-1.8,1.9v0
		c0,1,0.8,1.9,1.8,1.9l0.1,0C143.4,86.7,144.1,85.9,144.1,84.8L144.1,84.8z"/>
	<polyline class="st9" points="135.7,62.9 129.7,61 129.7,61 129.7,61 129.7,61 139.2,57.9 145.2,59.8 145.2,59.8 145.2,59.9 
		145.2,59.9 135.7,62.9 	"/>
	<path class="st0" d="M329,188.2v-11.5h8.8c2.2,0,4,0.5,5.2,1.4c1.2,1,1.9,2.4,1.9,4.2v0.1c0,1.8-0.6,3.2-1.9,4.2
		c-1.3,1-3,1.5-5.1,1.5H329L329,188.2z M323,205.4h5.9v-11.9h7.4h0.1l8.4,11.9h7.1l-9.2-12.9c1.2-0.3,2.3-0.8,3.3-1.4
		s1.8-1.3,2.6-2.2c0.7-0.9,1.3-1.9,1.7-3c0.4-1.1,0.6-2.4,0.6-3.8V182c0-1.5-0.2-2.9-0.7-4.1c-0.5-1.2-1.2-2.3-2.1-3.3
		c-1.1-1.1-2.5-1.9-4.1-2.5c-1.7-0.6-3.6-0.9-5.7-0.9H323V205.4L323,205.4z M366.3,205.4h25.5v-5.4h-19.5v-9.1h17.1v-5.4h-17.1v-8.8
		h19.3v-5.4h-25.2V205.4L366.3,205.4z M415.8,191.8l5.8-13.6l5.9,13.6H415.8L415.8,191.8z M404,205.4h6.1l3.5-8.2h16.1l3.5,8.2h6.3
		l-15-34.4H419L404,205.4L404,205.4z M459.3,199.9v-23.3h6.7c1.8,0,3.4,0.3,4.9,0.9c1.5,0.6,2.7,1.4,3.7,2.4c1,1,1.8,2.3,2.4,3.7
		c0.6,1.4,0.9,3,0.9,4.6v0.1c0,1.7-0.3,3.2-0.9,4.6c-0.6,1.4-1.4,2.6-2.4,3.7c-1,1-2.3,1.8-3.7,2.4c-1.5,0.6-3.1,0.9-4.9,0.9H459.3
		L459.3,199.9z M453.4,205.4h12.7c2.7,0,5.1-0.4,7.3-1.3c2.2-0.9,4.1-2.1,5.8-3.6c1.6-1.5,2.9-3.3,3.7-5.4c0.9-2.1,1.3-4.3,1.3-6.7
		v-0.1c0-2.4-0.4-4.6-1.3-6.7c-0.9-2.1-2.1-3.9-3.7-5.4c-1.6-1.5-3.5-2.7-5.8-3.6c-2.2-0.9-4.7-1.3-7.3-1.3h-12.7V205.4L453.4,205.4
		z M499.8,205.4h5.9v-34.1h-5.9V205.4L499.8,205.4z M522.9,205.4h5.9v-24.3l18.8,24.3h5v-34.1h-5.9v23.6l-18.2-23.6h-5.5V205.4
		L522.9,205.4z M569.4,205.4h25.5v-5.4h-19.5v-9.1h17.1v-5.4h-17.1v-8.8h19.3v-5.4h-25.2V205.4L569.4,205.4z M627,205.2
		c1.5-0.5,2.8-1.1,3.8-2c1.1-0.9,1.9-1.9,2.5-3.2c0.6-1.3,0.9-2.7,0.9-4.3v-0.1c0-1.4-0.2-2.6-0.7-3.7c-0.5-1.1-1.2-2-2.1-2.8
		c-0.9-0.8-2.1-1.5-3.4-2c-1.4-0.6-3-1.1-4.8-1.5c-1.6-0.4-3-0.8-4-1.1c-1.1-0.4-1.9-0.7-2.5-1.1c-0.6-0.4-1-0.9-1.2-1.4
		c-0.2-0.5-0.3-1.1-0.3-1.7v-0.1c0-1.1,0.5-2.1,1.5-2.9c1-0.8,2.3-1.2,4.1-1.2c1.6,0,3.1,0.3,4.6,0.9c1.5,0.6,3.1,1.5,4.6,2.6
		l3.2-4.5c-1.8-1.4-3.6-2.5-5.6-3.2c-2-0.7-4.2-1.1-6.8-1.1c-1.7,0-3.2,0.2-4.7,0.7c-1.4,0.5-2.6,1.2-3.7,2c-1,0.9-1.8,1.9-2.4,3.1
		c-0.6,1.2-0.9,2.6-0.9,4v0.1c0,1.6,0.3,2.9,0.8,4c0.5,1.1,1.2,2,2.2,2.8c1,0.8,2.1,1.4,3.6,1.9c1.4,0.5,3,1,4.9,1.4
		c1.6,0.4,2.9,0.7,3.9,1.1c1,0.4,1.8,0.7,2.3,1.2s1,0.9,1.2,1.3s0.3,1,0.3,1.6v0.1c0,1.3-0.5,2.3-1.6,3.1c-1.1,0.8-2.6,1.2-4.4,1.2
		c-2.1,0-4.1-0.4-5.8-1.1c-1.7-0.8-3.4-1.9-5-3.3l-3.6,4.3c2,1.9,4.3,3.2,6.7,4.1c2.4,0.9,4.9,1.3,7.6,1.3
		C623.9,205.8,625.5,205.6,627,205.2L627,205.2z M666.2,205.2c1.5-0.5,2.8-1.1,3.8-2c1.1-0.9,1.9-1.9,2.5-3.2
		c0.6-1.3,0.9-2.7,0.9-4.3v-0.1c0-1.4-0.2-2.6-0.7-3.7c-0.5-1.1-1.2-2-2.1-2.8c-0.9-0.8-2.1-1.5-3.4-2c-1.4-0.6-3-1.1-4.8-1.5
		c-1.6-0.4-3-0.8-4-1.1c-1.1-0.4-1.9-0.7-2.5-1.1c-0.6-0.4-1-0.9-1.2-1.4c-0.2-0.5-0.3-1.1-0.3-1.7v-0.1c0-1.1,0.5-2.1,1.5-2.9
		c1-0.8,2.3-1.2,4.1-1.2c1.6,0,3.1,0.3,4.6,0.9c1.5,0.6,3.1,1.5,4.6,2.6l3.2-4.5c-1.8-1.4-3.6-2.5-5.6-3.2s-4.2-1.1-6.8-1.1
		c-1.7,0-3.2,0.2-4.7,0.7c-1.4,0.5-2.6,1.2-3.7,2c-1,0.9-1.8,1.9-2.4,3.1c-0.6,1.2-0.9,2.6-0.9,4v0.1c0,1.6,0.3,2.9,0.8,4
		c0.5,1.1,1.2,2,2.2,2.8c1,0.8,2.1,1.4,3.6,1.9c1.4,0.5,3,1,4.9,1.4c1.6,0.4,2.9,0.7,3.9,1.1c1,0.4,1.8,0.7,2.3,1.2
		c0.6,0.4,1,0.9,1.2,1.3c0.2,0.5,0.3,1,0.3,1.6v0.1c0,1.3-0.5,2.3-1.6,3.1c-1.1,0.8-2.6,1.2-4.4,1.2c-2.1,0-4.1-0.4-5.8-1.1
		c-1.7-0.8-3.4-1.9-5-3.3l-3.6,4.3c2,1.9,4.3,3.2,6.7,4.1c2.4,0.9,4.9,1.3,7.6,1.3C663,205.8,664.7,205.6,666.2,205.2L666.2,205.2z"
		/>
	<path class="st0" d="M360.3,150.2c3.2-0.9,5.9-2.3,8.1-4.1c2.3-1.8,4-4,5.3-6.5c1.2-2.6,1.9-5.5,1.9-8.8v-0.2c0-3-0.5-5.5-1.6-7.7
		c-1.1-2.2-2.7-4-4.8-5.5c-2.1-1.5-4.6-2.8-7.5-3.9c-3-1.1-6.3-2-9.9-2.8c-2.2-0.5-4-1-5.4-1.4c-1.4-0.5-2.6-0.9-3.4-1.4
		c-0.8-0.5-1.4-1-1.7-1.5c-0.3-0.5-0.5-1.2-0.5-1.9v-0.2c0-1.2,0.5-2.1,1.6-2.9c1.1-0.8,2.7-1.2,4.8-1.2c2.9,0,5.8,0.5,8.9,1.6
		c3.1,1.1,6.1,2.6,9,4.7l8.9-12.6c-3.5-2.8-7.4-4.9-11.7-6.4c-4.3-1.4-9.2-2.2-14.7-2.2c-3.8,0-7.3,0.5-10.3,1.5
		c-3,1-5.7,2.4-7.8,4.2c-2.2,1.8-3.8,4-4.9,6.5c-1.1,2.5-1.7,5.2-1.7,8.2v0.2c0,3.3,0.6,6,1.9,8.3c1.2,2.2,3,4.1,5.1,5.6
		c2.2,1.5,4.7,2.7,7.6,3.7c2.9,0.9,6.1,1.8,9.5,2.6c2.2,0.5,4,1,5.3,1.4s2.5,0.9,3.3,1.4c0.8,0.5,1.4,1,1.7,1.5
		c0.3,0.5,0.5,1.1,0.5,1.8v0.2c0,1.4-0.6,2.5-1.9,3.2c-1.2,0.8-3.1,1.1-5.4,1.1c-7.4,0-14.3-2.6-20.7-7.7l-9.9,11.8
		c4,3.6,8.5,6.2,13.7,8c5.1,1.8,10.6,2.7,16.3,2.7C353.6,151.6,357.2,151.2,360.3,150.2L360.3,150.2z M411.1,134.4
		c-2-0.9-3.7-2.2-5.2-3.8c-1.4-1.6-2.6-3.4-3.3-5.5s-1.2-4.3-1.2-6.6v-0.2c0-2.3,0.4-4.5,1.1-6.6c0.8-2.1,1.9-3.9,3.3-5.4
		c1.4-1.6,3.1-2.8,5.1-3.7c2-0.9,4.2-1.4,6.6-1.4c2.4,0,4.7,0.5,6.7,1.4c2,0.9,3.8,2.2,5.2,3.8c1.5,1.6,2.6,3.4,3.4,5.5
		c0.8,2.1,1.2,4.3,1.2,6.6v0.2c0,2.3-0.4,4.5-1.2,6.6c-0.8,2.1-1.9,3.9-3.3,5.4c-1.4,1.6-3.1,2.8-5.1,3.7c-2,0.9-4.2,1.4-6.7,1.4
		C415.3,135.8,413.1,135.3,411.1,134.4L411.1,134.4z M431.3,149.2c4.2-1.7,7.9-4.1,11-7.1c3.1-3,5.5-6.5,7.3-10.6
		c1.7-4,2.6-8.4,2.6-12.9v-0.2c0-4.6-0.9-8.9-2.6-12.9c-1.7-4-4.1-7.5-7.2-10.5c-3-3-6.7-5.3-10.9-7.1c-4.2-1.7-8.8-2.6-13.7-2.6
		c-4.9,0-9.5,0.9-13.7,2.6c-4.2,1.7-7.9,4.1-11,7.1c-3.1,3-5.5,6.5-7.3,10.6c-1.7,4.1-2.6,8.4-2.6,12.9v0.2c0,4.6,0.9,8.9,2.6,12.9
		c1.7,4,4.1,7.5,7.2,10.5c3,3,6.7,5.3,10.9,7.1c4.2,1.7,8.8,2.6,13.7,2.6C422.6,151.8,427.1,150.9,431.3,149.2L431.3,149.2z
		 M503.8,150c3.7-1.2,6.8-2.9,9.4-5.3c2.6-2.4,4.6-5.5,6-9.2c1.4-3.7,2.1-8.2,2.1-13.4V86.6h-18.1v36c0,4.5-1.1,7.8-3.2,10
		c-2.1,2.1-5,3.2-8.5,3.2c-3.6,0-6.4-1.1-8.5-3.3c-2.1-2.2-3.2-5.7-3.2-10.3V86.6h-18.1v35.9c0,5,0.7,9.3,2.1,13
		c1.4,3.7,3.3,6.7,5.9,9.1c2.6,2.4,5.7,4.2,9.3,5.3c3.7,1.2,7.8,1.7,12.3,1.7C496,151.7,500.2,151.1,503.8,150L503.8,150z
		 M551,117.3v-15.4h11.6c3,0,5.3,0.6,7,1.9c1.7,1.2,2.6,3.2,2.6,5.7v0.2c0,2.3-0.8,4.2-2.5,5.5c-1.6,1.4-4,2.1-7,2.1H551L551,117.3z
		 M533.2,150.5H551v-19.4h7.6h0.2l12.9,19.4h20.5l-15.3-22.3c4-1.7,7.2-4.2,9.6-7.4c2.4-3.2,3.6-7.3,3.6-12.2v-0.2
		c0-6.3-1.9-11.2-5.7-14.9c-2.1-2.2-4.9-3.9-8.3-5.1c-3.4-1.2-7.6-1.8-12.5-1.8h-30.2V150.5L533.2,150.5z M640.5,150.7
		c2.8-0.7,5.4-1.7,7.7-3c2.3-1.3,4.3-2.8,6.1-4.6c1.8-1.8,3.5-3.7,5-5.8l-13.3-9.5c-1,1.2-2,2.2-3,3.2c-1,0.9-2.1,1.8-3.2,2.5
		c-1.1,0.7-2.4,1.2-3.7,1.6c-1.4,0.4-2.9,0.5-4.5,0.5c-2.3,0-4.3-0.4-6.2-1.3c-1.9-0.9-3.5-2.1-4.8-3.6c-1.3-1.5-2.4-3.3-3.2-5.4
		c-0.8-2.1-1.1-4.3-1.1-6.7v-0.2c0-2.3,0.4-4.5,1.1-6.6c0.8-2.1,1.8-3.9,3.2-5.4c1.3-1.5,2.9-2.7,4.8-3.6c1.9-0.9,3.9-1.3,6.2-1.3
		c3.1,0,5.8,0.7,8,2c2.2,1.3,4.2,3.2,6,5.5l13.3-10.3c-1.4-1.9-3-3.7-4.8-5.4c-1.8-1.6-3.8-3.1-6-4.2c-2.2-1.2-4.7-2.1-7.4-2.7
		c-2.7-0.6-5.7-1-9-1c-4.9,0-9.4,0.9-13.5,2.6c-4.1,1.7-7.7,4.1-10.6,7.1c-3,3-5.3,6.6-7,10.6c-1.7,4.1-2.6,8.4-2.6,13v0.2
		c0,4.8,0.9,9.2,2.6,13.2c1.7,4.1,4.1,7.6,7,10.5c3,3,6.4,5.3,10.5,6.9c4,1.6,8.3,2.5,12.9,2.5C634.5,151.8,637.7,151.4,640.5,150.7
		L640.5,150.7z M668.2,150.5H720v-15.1h-34.4v-10.1h30.7v-14h-30.7v-9.7h33.9V86.6h-51.4V150.5L668.2,150.5z"/>
	<path class="st0" d="M350.2,49.1c-2-0.9-3.7-2.2-5.2-3.8c-1.4-1.6-2.6-3.4-3.3-5.5c-0.8-2.1-1.2-4.3-1.2-6.6v-0.2
		c0-2.3,0.4-4.5,1.1-6.6c0.8-2.1,1.9-3.9,3.3-5.4c1.4-1.6,3.1-2.8,5.1-3.7c2-0.9,4.2-1.4,6.6-1.4c2.4,0,4.7,0.5,6.7,1.4
		c2,0.9,3.8,2.2,5.2,3.8c1.5,1.6,2.6,3.4,3.4,5.5c0.8,2.1,1.2,4.3,1.2,6.6v0.2c0,2.3-0.4,4.5-1.2,6.6c-0.8,2.1-1.9,3.9-3.3,5.4
		c-1.4,1.6-3.1,2.8-5.1,3.7c-2,0.9-4.2,1.4-6.7,1.4C354.5,50.5,352.2,50.1,350.2,49.1L350.2,49.1z M370.5,63.9
		c4.2-1.7,7.9-4.1,11-7.1c3.1-3,5.5-6.5,7.3-10.6c1.7-4.1,2.6-8.4,2.6-12.9v-0.2c0-4.6-0.9-8.9-2.6-12.9c-1.7-4-4.1-7.5-7.2-10.5
		c-3-3-6.7-5.3-10.9-7.1C366.5,0.9,361.9,0,357,0c-4.9,0-9.5,0.9-13.7,2.6c-4.2,1.7-7.9,4.1-11,7.1c-3.1,3-5.5,6.5-7.3,10.6
		c-1.7,4.1-2.6,8.4-2.6,12.9v0.2c0,4.6,0.9,8.9,2.6,12.9c1.7,4,4.1,7.5,7.2,10.5c3,3,6.7,5.3,10.9,7.1c4.2,1.7,8.8,2.6,13.7,2.6
		C361.7,66.5,366.3,65.7,370.5,63.9L370.5,63.9z M419.6,33.1v-17h8.3c3.2,0,5.7,0.7,7.5,2.2c1.8,1.4,2.7,3.5,2.7,6.3v0.2
		c0,2.6-0.9,4.6-2.7,6.1c-1.8,1.5-4.3,2.3-7.4,2.3H419.6L419.6,33.1z M401.8,65.2h17.7V47h8.8c4,0,7.6-0.5,11-1.5
		c3.4-1,6.3-2.4,8.7-4.4c2.4-1.9,4.3-4.4,5.7-7.2c1.4-2.9,2.1-6.2,2.1-10v-0.2c0-3.5-0.6-6.7-1.9-9.5c-1.2-2.8-3-5.2-5.3-7.1
		c-2.3-1.9-5.1-3.4-8.4-4.4c-3.3-1-6.9-1.5-11-1.5h-27.4V65.2L401.8,65.2z M464.6,65.2h51.8V50.2h-34.4V40h30.7V26h-30.7v-9.7H516
		V1.3h-51.4V65.2L464.6,65.2z M526.8,65.2h17.5V30.2l27.4,35.1h15.6v-64h-17.5v33.8L543.4,1.3h-16.6V65.2L526.8,65.2z"/>
	<path class="st10" d="M328.4,267.4c-0.6-0.2-1-0.6-1.4-1c-0.4-0.4-0.7-0.9-0.9-1.5c-0.2-0.6-0.3-1.2-0.3-1.9c0-1,0.2-1.9,0.5-2.8
		c0.4-0.9,0.8-1.7,1.4-2.4c0.6-0.7,1.3-1.2,2.1-1.6s1.6-0.6,2.4-0.6c1.3,0,2.3,0.4,3.1,1.2c0.8,0.8,1.1,2,1.1,3.4c0,1-0.2,2-0.5,2.9
		c-0.3,0.9-0.8,1.7-1.3,2.4c-0.6,0.7-1.2,1.2-2,1.6c-0.7,0.4-1.5,0.6-2.4,0.6C329.5,267.8,328.9,267.6,328.4,267.4L328.4,267.4z
		 M334.4,270.6c1.2-0.6,2.3-1.4,3.2-2.4c0.9-1,1.7-2.2,2.2-3.6c0.6-1.4,0.8-2.9,0.8-4.6c0-1.2-0.2-2.3-0.5-3.3
		c-0.4-1-0.8-1.8-1.5-2.5c-0.6-0.7-1.4-1.2-2.2-1.6c-0.9-0.4-1.8-0.6-2.8-0.6c-1.2,0-2.2,0.3-3.1,0.8c-0.9,0.5-1.8,1.2-2.6,2.1
		l2.5-9.7h-4.1l-6.6,25.9h4.1l0.8-3.3c0.5,1,1.3,1.9,2.2,2.6c0.9,0.7,2.2,1.1,3.8,1.1C332,271.4,333.2,271.1,334.4,270.6
		L334.4,270.6z M348.2,275.6c1.1-0.8,2.3-2.1,3.5-4.1l11.5-19.3h-4.5l-7.9,13.9l-1.5-13.9h-4.2l2.6,18.8c-0.6,0.8-1.1,1.4-1.6,1.7
		c-0.5,0.3-1,0.4-1.5,0.4c-0.4,0-0.8-0.1-1.2-0.2c-0.4-0.2-0.8-0.3-1.1-0.6l-2.2,3.2c0.6,0.4,1.2,0.7,1.8,0.9
		c0.6,0.2,1.4,0.3,2.2,0.3C345.8,276.8,347.1,276.4,348.2,275.6L348.2,275.6z"/>
	<polygon class="st10" points="390.4,231.3 421.4,231.3 421.4,239.5 399.3,239.5 399.3,248.2 418.8,248.2 418.8,256.3 399.3,256.3 
		399.3,272.1 390.4,272.1 390.4,231.3 	"/>
	<polygon class="st10" points="429.4,231.3 438.4,231.3 438.4,272.1 429.4,272.1 429.4,231.3 	"/>
	<polygon class="st10" points="448.6,231.3 456.9,231.3 476,256.4 476,231.3 484.8,231.3 484.8,272.1 477.2,272.1 457.4,246.2 
		457.4,272.1 448.6,272.1 448.6,231.3 	"/>
	<path class="st10" d="M492.5,251.8v-0.1c0-11.6,9.1-21,21.7-21c12.6,0,21.6,9.4,21.6,21v0.1c0,11.6-9.1,21-21.7,21
		C501.5,272.9,492.5,263.4,492.5,251.8L492.5,251.8z M526.4,251.8v-0.1c0.2-6.8-5.1-12.6-11.9-12.8c-0.1,0-0.3,0-0.4,0
		c-7.2,0-12.2,5.7-12.2,12.7v0.1c-0.2,6.8,5.1,12.6,11.9,12.8c0.2,0,0.3,0,0.5,0C521.4,264.5,526.4,258.8,526.4,251.8L526.4,251.8z"
		/>
	<path class="st10" d="M540.4,266.2l5.3-6.4c3.3,3.1,7.7,4.8,12.2,4.9c3.7,0,5.9-1.4,5.9-3.8v-0.1c0-2.3-1.4-3.4-8.2-5.2
		c-8.2-2.1-13.5-4.4-13.5-12.5V243c0-7.4,5.9-12.3,14.3-12.3c5.5-0.1,10.9,1.7,15.1,5.2l-4.7,6.8c-3.6-2.5-7.2-4-10.6-4
		c-3.4,0-5.2,1.6-5.2,3.5v0.1c0,2.7,1.8,3.5,8.8,5.4c8.3,2.2,12.9,5.1,12.9,12.2v0.1c0,8.1-6.2,12.6-15,12.6
		C551.4,272.7,545.2,270.4,540.4,266.2L540.4,266.2z"/>
</g>
</svg>
