<?xml version="1.0" encoding="utf-8"?>
<!-- Generator: Adobe Illustrator 25.0.0, SVG Export Plug-In . SVG Version: 6.00 Build 0)  -->
<svg version="1.1" id="Layer_1" xmlns="http://www.w3.org/2000/svg" xmlns:xlink="http://www.w3.org/1999/xlink" x="0px" y="0px"
	 viewBox="0 0 720 145.5" style="enable-background:new 0 0 720 145.5;" xml:space="preserve">
<style type="text/css">
	.st0{fill:#00000A;}
</style>
<g>
	<path class="st0" d="M145.5,141V4.5c0-2.5-2-4.5-4.5-4.5H4.5C2,0,0,2,0,4.5V141c0,2.5,2,4.5,4.5,4.5H141
		C143.5,145.5,145.5,143.5,145.5,141L145.5,141z M104,91c0,6.4-3.7,11.9-9.6,14.8L72.8,117l-21.7-11.3c-5.9-2.9-9.5-8.3-9.5-14.7
		V79.3l13,3.9V91c0,1.4,0.9,2.4,2.3,3.1l15.9,8l15.8-7.9c1.5-0.7,2.4-1.7,2.4-3.1V80.6L41.5,66.3V42.9c0-3.2,1.7-6.2,4.5-7.8
		c4.2-2.4,13.1-6.6,26.7-6.6c13.6,0,22.6,4.1,26.7,6.6c2.8,1.6,4.5,4.6,4.5,7.8v15.6l-13-3.9v-9.3c-3.5-1.7-9.6-3.7-18.2-3.7
		c-8.7,0-14.7,2-18.2,3.7v11.9L104,71.5V91L104,91z"/>
	<path class="st0" d="M217,72.8c-10.5,0-19.4-3.4-27.5-8.5l5-7.6c8.1,5.1,15.4,7.6,23.7,7.6c9.7,0,14.3-3.7,14.3-8.1
		c0-12.6-41.1-5.1-41.1-25.2c0-9.8,9.8-17.5,25.6-17.5c10.6,0,19.8,4,25.2,9.4l-6.1,6.3c-4.7-4.1-11.8-7.3-19.3-7.3
		c-9.2,0-15.4,3.3-15.4,8.1c0,11.7,41.2,5.5,41.2,25.2C242.6,65.7,232,72.8,217,72.8L217,72.8z M282.8,48.6v22.2h-10V48.5l-24.9-33
		h11.6L278.3,41l17.7-25.6h11.5L282.8,48.6L282.8,48.6z M376.9,70.8V27.4l-2.7,5.9l-19.6,37.4h-6l-19.3-37.4l-2.7-5.9v43.3H317V15.5
		h13.9l18.6,37.2l2.6,5.6l2.6-5.6l18.3-37.2h13.7v55.3H376.9L376.9,70.8z M440.8,31.9c0-4.6-3.1-8-10.6-8h-18.3v17.9h18.8
		c7.6,0,10.2-3.7,10.2-8.1V31.9L440.8,31.9z M429.1,49.9h-17.3v20.8h-10V15.5h27.2c15.1,0,21.8,6.8,21.8,16.4v1.5
		C450.9,43,444.2,49.9,429.1,49.9L429.1,49.9z M505.2,70.8V46.9h-33.3v23.8h-10V15.5h10v23.4h33.3V15.5h10v55.3H505.2L505.2,70.8z
		 M575.3,39.7c0-9.5-6.6-17.6-18.7-17.6c-12.1,0-18.6,8.1-18.6,17.6v6.7c0,9.5,6.5,17.8,18.6,17.8c12.1,0,18.7-8.3,18.7-17.8V39.7
		L575.3,39.7z M556.6,72.8c-17.8,0-28.6-12.6-28.6-26.2v-6.9c0-13.8,10.9-26.2,28.6-26.2c17.8,0,28.7,12.4,28.7,26.2v6.9
		C585.3,60.1,574.4,72.8,556.6,72.8L556.6,72.8z M642.9,70.8l-31-35l-4-5.1v40.1H598V15.5h9.2l30,35l4.1,5.1V15.5h9.8v55.3H642.9
		L642.9,70.8z M695.4,48.6v22.2h-10V48.5l-24.9-33h11.6L690.9,41l17.7-25.6H720L695.4,48.6L695.4,48.6z"/>
	<path class="st0" d="M193.5,132h7.2v-12.7h15.7v-6.6h-15.7v-7h17.8v-6.6h-25V132L193.5,132z M238,132.5c8.8,0,14.4-4.9,14.4-14.8
		V99.1h-7.2v18.8c0,5.2-2.7,7.9-7.1,7.9c-4.4,0-7.1-2.8-7.1-8.1V99.1h-7.2v18.8C223.8,127.5,229.2,132.5,238,132.5L238,132.5z
		 M275.6,132.5c6,0,10.7-2.3,14-5.2V113h-14.3v6.2h7.3v4.7c-1.8,1.3-4.2,2-6.8,2c-5.8,0-10-4.4-10-10.4v-0.1
		c0-5.6,4.2-10.2,9.4-10.2c3.8,0,6.1,1.2,8.6,3.3l4.6-5.5c-3.4-2.9-7-4.5-12.9-4.5c-10,0-17.2,7.7-17.2,17v0.1
		C258.3,125.3,265.4,132.5,275.6,132.5L275.6,132.5z M310.3,132.5c8.8,0,14.4-4.9,14.4-14.8V99.1h-7.2v18.8c0,5.2-2.7,7.9-7.1,7.9
		c-4.4,0-7.1-2.8-7.1-8.1V99.1h-7.2v18.8C296.1,127.5,301.5,132.5,310.3,132.5L310.3,132.5z M332.2,132h25v-6.4h-17.9v-6.9h15.5
		v-6.4h-15.5v-6.7H357v-6.4h-24.8V132L332.2,132z"/>
</g>
</svg>
