<?xml version="1.0" encoding="utf-8"?>
<!-- Generator: Adobe Illustrator 25.0.0, SVG Export Plug-In . SVG Version: 6.00 Build 0)  -->
<svg version="1.1" id="Layer_1" xmlns="http://www.w3.org/2000/svg" xmlns:xlink="http://www.w3.org/1999/xlink" x="0px" y="0px"
	 viewBox="0 0 720 145.5" style="enable-background:new 0 0 720 145.5;" xml:space="preserve">
<style type="text/css">
	.st0{fill:#000029;}
	.st1{fill:#008FFF;}
</style>
<g>
	<path class="st0" d="M145.5,141V4.5c0-2.5-2-4.5-4.5-4.5H4.5C2,0,0,2,0,4.5V141c0,2.5,2,4.5,4.5,4.5H141
		C143.5,145.5,145.5,143.5,145.5,141L145.5,141z"/>
	<path class="st1" d="M104,58.5V42.9c0-3.2-1.7-6.2-4.5-7.8c-4.2-2.4-13.1-6.5-26.7-6.5c-13.6,0-22.6,4.1-26.7,6.5
		c-2.8,1.6-4.5,4.6-4.5,7.8v23.4L91,80.6V91c0,1.4-0.9,2.4-2.4,3.1L72.8,102l-15.9-8c-1.4-0.7-2.3-1.7-2.3-3.1v-7.8l-13-3.9V91
		c0,6.4,3.7,11.9,9.5,14.7L72.8,117l21.6-11.2c5.9-2.9,9.6-8.4,9.6-14.8V71.5L54.5,57.1V45.3c3.5-1.7,9.6-3.7,18.2-3.7
		c8.7,0,14.7,2,18.2,3.7v9.3L104,58.5L104,58.5z"/>
	<path class="st0" d="M217,72.8c-10.5,0-19.4-3.4-27.5-8.5l5-7.6c8.1,5.1,15.4,7.6,23.7,7.6c9.7,0,14.3-3.7,14.3-8.1
		c0-12.6-41.1-5.1-41.1-25.2c0-9.8,9.8-17.5,25.6-17.5c10.6,0,19.8,4,25.2,9.4l-6.1,6.3c-4.7-4.1-11.8-7.3-19.3-7.3
		c-9.2,0-15.4,3.3-15.4,8.1c0,11.7,41.2,5.5,41.2,25.2C242.6,65.7,232,72.8,217,72.8L217,72.8z M282.8,48.6v22.2h-10V48.5l-24.9-33
		h11.6L278.3,41l17.7-25.6h11.5L282.8,48.6L282.8,48.6z M376.9,70.8V27.4l-2.7,5.9l-19.6,37.4h-6l-19.3-37.4l-2.7-5.9v43.3H317V15.5
		h13.9l18.6,37.2l2.6,5.6l2.6-5.6l18.3-37.2h13.7v55.3H376.9L376.9,70.8z M440.8,31.9c0-4.6-3.1-8-10.6-8h-18.3v17.9h18.8
		c7.6,0,10.2-3.7,10.2-8.1V31.9L440.8,31.9z M429.1,49.9h-17.3v20.8h-10V15.5h27.2c15.1,0,21.8,6.8,21.8,16.4v1.5
		C450.9,43,444.2,49.9,429.1,49.9L429.1,49.9z M505.2,70.8V46.9h-33.3v23.8h-10V15.5h10v23.4h33.3V15.5h10v55.3H505.2L505.2,70.8z
		 M575.3,39.7c0-9.5-6.6-17.6-18.7-17.6c-12.1,0-18.6,8.1-18.6,17.6v6.7c0,9.5,6.5,17.8,18.6,17.8c12.1,0,18.7-8.3,18.7-17.8V39.7
		L575.3,39.7z M556.6,72.8c-17.8,0-28.6-12.6-28.6-26.2v-6.9c0-13.8,10.9-26.2,28.6-26.2c17.8,0,28.7,12.4,28.7,26.2v6.9
		C585.3,60.1,574.4,72.8,556.6,72.8L556.6,72.8z M642.9,70.8l-31-35l-4-5.1v40.1H598V15.5h9.2l30,35l4.1,5.1V15.5h9.8v55.3H642.9
		L642.9,70.8z M695.4,48.6v22.2h-10V48.5l-24.9-33h11.6L690.9,41l17.7-25.6H720L695.4,48.6L695.4,48.6z"/>
	<path class="st1" d="M208.9,132.5c6.3,0,10.1-2.3,13.5-5.9l-4.6-4.7c-2.6,2.3-4.9,3.9-8.6,3.9c-5.6,0-9.5-4.7-9.5-10.3v-0.1
		c0-5.6,4-10.2,9.5-10.2c3.3,0,5.9,1.4,8.4,3.7l4.6-5.3c-3.1-3-6.8-5.1-13-5.1c-10.1,0-17.1,7.7-17.1,17v0.1
		C192,125.1,199.2,132.5,208.9,132.5L208.9,132.5z M225.3,132h7.4l3-7.4h13.9l3,7.4h7.6l-14.1-33.1h-6.7L225.3,132L225.3,132z
		 M238.3,118.2l4.4-10.7l4.4,10.7H238.3L238.3,118.2z M265.2,132h7.1v-20.9l15.9,20.9h6.2V99.1h-7.1v20.2l-15.4-20.2h-6.7V132
		L265.2,132z M318.3,132.5c10.2,0,17.5-7.7,17.5-17v-0.1c0-9.4-7.3-16.9-17.4-16.9c-10.2,0-17.5,7.7-17.5,17v0.1
		C300.9,125,308.2,132.5,318.3,132.5L318.3,132.5z M318.4,125.9c-5.8,0-10-4.7-10-10.3v-0.1c0-5.6,4-10.2,9.9-10.2
		c5.8,0,10,4.7,10,10.3v0.1C328.3,121.3,324.3,125.9,318.4,125.9L318.4,125.9z M342.3,132h7.1v-20.9l15.9,20.9h6.1V99.1h-7.1v20.2
		L349,99.1h-6.7V132L342.3,132z"/>
</g>
</svg>
