<?xml version="1.0" encoding="utf-8"?>
<!-- Generator: Adobe Illustrator 25.0.0, SVG Export Plug-In . SVG Version: 6.00 Build 0)  -->
<svg version="1.1" id="Layer_1" xmlns="http://www.w3.org/2000/svg" xmlns:xlink="http://www.w3.org/1999/xlink" x="0px" y="0px"
	 viewBox="0 0 720.1 426.2" style="enable-background:new 0 0 720.1 426.2;" xml:space="preserve">
<style type="text/css">
	.st0{fill:#00000A;}
</style>
<g>
	<path class="st0" d="M197.5,191.4V6.1c0-3.4-2.7-6.1-6.1-6.1H6.1C2.7,0,0,2.7,0,6.1v185.2c0,3.4,2.7,6.1,6.1,6.1h185.2
		C194.8,197.5,197.5,194.8,197.5,191.4L197.5,191.4z M141.1,123.5c0,8.7-5,16.1-13.1,20.1l-29.3,15.2l-29.4-15.3
		c-7.9-3.9-12.9-11.3-12.9-20v-15.9l17.7,5.3v10.6c0,1.9,1.2,3.3,3.1,4.2l21.6,10.8l21.5-10.8c2-1,3.2-2.3,3.2-4.2v-14.1L56.4,89.9
		V58.2c0-4.3,2.3-8.4,6.1-10.6c5.6-3.3,17.8-8.9,36.3-8.9c18.4,0,30.6,5.6,36.3,8.9c3.8,2.2,6.1,6.3,6.1,10.6v21.1L123.5,74V61.4
		c-4.8-2.3-13-5.1-24.7-5.1c-11.8,0-19.9,2.8-24.7,5.1v16.1L141.1,97V123.5L141.1,123.5z"/>
	<path class="st0" d="M37.3,345.1c-14.2,0-26.4-4.6-37.3-11.5l6.8-10.3c10.9,7,21,10.4,32.2,10.4c13.2,0,19.4-5.1,19.4-11
		c0-17.1-55.8-6.9-55.8-34.1c0-13.3,13.3-23.8,34.7-23.8c14.4,0,26.9,5.4,34.3,12.7l-8.3,8.6c-6.3-5.5-16-9.9-26.1-9.9
		c-12.5,0-21,4.5-21,10.9c0,15.9,55.9,7.4,55.9,34.3C72,335.5,57.7,345.1,37.3,345.1L37.3,345.1z M126.7,312.3v30.1h-13.5v-30.2
		l-33.8-44.9h15.8l25.4,34.7l24-34.7H160L126.7,312.3L126.7,312.3z M254.4,342.4v-58.8l-3.7,8l-26.6,50.8h-8.1l-26.3-50.8l-3.7-8
		v58.8h-13v-75.1h18.8l25.2,50.5l3.5,7.7l3.5-7.7l24.9-50.5h18.6v75.1H254.4L254.4,342.4z M341.1,289.6c0-6.2-4.2-10.8-14.4-10.8
		h-24.9V303h25.5c10.3,0,13.9-5,13.9-11V289.6L341.1,289.6z M325.2,314.1h-23.4v28.3h-13.5v-75.1h37c20.5,0,29.5,9.2,29.5,22.3v2
		C354.7,304.7,345.7,314.1,325.2,314.1L325.2,314.1z M428.4,342.4V310h-45.2v32.3h-13.5v-75.1h13.5v31.8h45.2v-31.8H442v75.1H428.4
		L428.4,342.4z M523.6,300.2c0-12.8-8.9-23.9-25.4-23.9c-16.5,0-25.2,11-25.2,23.9v9.1c0,12.8,8.8,24.1,25.2,24.1
		c16.5,0,25.4-11.3,25.4-24.1V300.2L523.6,300.2z M498.3,345.1c-24.1,0-38.9-17.1-38.9-35.5v-9.4c0-18.7,14.8-35.5,38.9-35.5
		c24.2,0,39,16.8,39,35.5v9.4C537.3,327.9,522.5,345.1,498.3,345.1L498.3,345.1z M615.3,342.4l-42-47.4l-5.4-7v54.4h-13.4v-75.1H567
		l40.7,47.6l5.5,7v-54.5h13.3v75.1H615.3L615.3,342.4z M686.7,312.3v30.1h-13.5v-30.2l-33.8-44.9h15.8l25.4,34.7l24-34.7h15.6
		L686.7,312.3L686.7,312.3z"/>
	<path class="st0" d="M26.3,426.2c8.6,0,13.7-3.1,18.3-8l-6.2-6.3c-3.5,3.2-6.6,5.2-11.7,5.2c-7.7,0-12.9-6.4-12.9-14V403
		c0-7.7,5.4-13.9,12.9-13.9c4.5,0,8,1.9,11.4,5l6.2-7.2c-4.1-4.1-9.2-6.9-17.6-6.9c-13.7,0-23.3,10.4-23.3,23.1v0.1
		C3.4,416,13.1,426.2,26.3,426.2L26.3,426.2z M48.6,425.4h10l4.1-10h18.9l4.1,10h10.3l-19.1-45h-9.1L48.6,425.4L48.6,425.4z
		 M66.2,406.7l5.9-14.5l5.9,14.5H66.2L66.2,406.7z M102.8,425.4h9.7V397l21.6,28.4h8.3v-44.6h-9.7v27.5l-20.9-27.5h-9V425.4
		L102.8,425.4z M174.9,426.2c13.8,0,23.8-10.4,23.8-23.1V403c0-12.7-9.9-23-23.7-23c-13.8,0-23.8,10.4-23.8,23.1v0.1
		C151.2,415.9,161.1,426.2,174.9,426.2L174.9,426.2z M175,417.1c-7.9,0-13.5-6.4-13.5-14V403c0-7.7,5.5-13.9,13.4-13.9
		s13.5,6.4,13.5,14v0.1C188.4,410.9,182.9,417.1,175,417.1L175,417.1z M207.4,425.4h9.7V397l21.6,28.4h8.3v-44.6h-9.7v27.5
		l-20.9-27.5h-9V425.4L207.4,425.4z"/>
</g>
</svg>
