<?xml version="1.0" encoding="utf-8"?>
<!-- Generator: Adobe Illustrator 25.0.0, SVG Export Plug-In . SVG Version: 6.00 Build 0)  -->
<svg version="1.1" id="Layer_1" xmlns="http://www.w3.org/2000/svg" xmlns:xlink="http://www.w3.org/1999/xlink" x="0px" y="0px"
	 viewBox="0 0 719.2 425.6" style="enable-background:new 0 0 719.2 425.6;" xml:space="preserve">
<style type="text/css">
	.st0{fill:#00000A;}
</style>
<g>
	<path class="st0" d="M197.3,191.2V6.1c0-3.4-2.7-6.1-6.1-6.1H6.1C2.7,0,0,2.7,0,6.1v185c0,3.4,2.7,6.1,6.1,6.1h185
		C194.5,197.3,197.3,194.5,197.3,191.2L197.3,191.2z M141,123.3c0,8.7-5,16.1-13,20l-29.3,15.2l-29.4-15.3
		c-7.9-3.9-12.9-11.3-12.9-20v-15.9l17.6,5.3v10.6c0,1.9,1.2,3.2,3.1,4.2l21.6,10.8l21.5-10.7c2-1,3.2-2.3,3.2-4.2v-14.1l-67-19.4
		V58.2c0-4.3,2.3-8.4,6.1-10.6c5.6-3.3,17.8-8.9,36.2-8.9c18.4,0,30.6,5.6,36.2,8.9c3.8,2.2,6.1,6.3,6.1,10.6v21.1L123.3,74V61.4
		c-4.8-2.3-13-5.1-24.7-5.1c-11.7,0-19.9,2.7-24.7,5.1v16.1l67,19.4V123.3L141,123.3z"/>
	<path class="st0" d="M37.3,344.7c-14.2,0-26.3-4.6-37.3-11.5l6.8-10.2c10.9,7,20.9,10.4,32.2,10.4c13.2,0,19.4-5.1,19.4-11
		c0-17.1-55.7-6.9-55.7-34.1c0-13.3,13.3-23.8,34.7-23.8c14.4,0,26.9,5.4,34.2,12.7l-8.3,8.6c-6.3-5.5-16-9.9-26.1-9.9
		c-12.5,0-20.9,4.5-20.9,10.9c0,15.9,55.8,7.4,55.8,34.2C71.9,335.1,57.6,344.7,37.3,344.7L37.3,344.7z M126.5,311.9V342H113v-30.2
		L79.3,267H95l25.3,34.7l24-34.7h15.5L126.5,311.9L126.5,311.9z M254.1,342v-58.8l-3.7,8L223.8,342h-8.1l-26.2-50.8l-3.7-8V342
		h-12.9v-75h18.8l25.2,50.4l3.5,7.7l3.5-7.7l24.9-50.4h18.6v75H254.1L254.1,342z M340.7,289.3c0-6.2-4.2-10.8-14.4-10.8h-24.9v24.2
		h25.4c10.2,0,13.8-5,13.8-11V289.3L340.7,289.3z M324.8,313.7h-23.4V342h-13.5v-75h36.9c20.5,0,29.5,9.2,29.5,22.3v2
		C354.3,304.4,345.3,313.7,324.8,313.7L324.8,313.7z M427.9,342v-32.3h-45.1V342h-13.5v-75h13.5v31.7h45.1V267h13.5v75H427.9
		L427.9,342z M523,299.9c0-12.8-8.9-23.9-25.3-23.9c-16.4,0-25.2,11-25.2,23.9v9.1c0,12.8,8.8,24.1,25.2,24.1
		c16.4,0,25.3-11.3,25.3-24.1V299.9L523,299.9z M497.7,344.7c-24.1,0-38.8-17.1-38.8-35.5v-9.3c0-18.7,14.7-35.5,38.8-35.5
		c24.2,0,38.9,16.8,38.9,35.5v9.3C536.6,327.6,521.9,344.7,497.7,344.7L497.7,344.7z M614.6,342l-42-47.4l-5.4-7V342h-13.4v-75h12.5
		l40.6,47.5l5.5,7V267h13.3v75H614.6L614.6,342z M685.9,311.9V342h-13.5v-30.2L638.6,267h15.8l25.3,34.7l24-34.7h15.5L685.9,311.9
		L685.9,311.9z"/>
	<path class="st0" d="M5.6,424.9h22.3c10.6,0,17.5-4.3,17.5-12.8v-0.1c0-6.3-3.3-9.4-8.8-11.5c3.3-1.9,6.1-4.8,6.1-10.1v-0.1
		c0-3.2-1.1-5.8-3.2-8c-2.7-2.7-6.9-4.1-12.2-4.1H5.6V424.9L5.6,424.9z M32.6,392.1c0,3.5-2.9,5-7.4,5h-9.5v-9.9h10.2
		c4.3,0,6.8,1.7,6.8,4.8V392.1L32.6,392.1z M35.2,410.7v0.1c0,3.5-2.7,5.1-7.3,5.1H15.6v-10.3h11.9
		C32.8,405.6,35.2,407.5,35.2,410.7L35.2,410.7z M53.9,424.9h18.3c14.7,0,24.9-10.2,24.9-23.4v-0.1c0-13.2-10.2-23.3-24.9-23.3H53.9
		V424.9L53.9,424.9z M72.2,387.4c8.4,0,14.1,5.8,14.1,14.1v0.1c0,8.3-5.7,14-14.1,14h-8v-28.2H72.2L72.2,387.4z M106.2,424.9h10.3
		v-14.3l5.4-5.6l14.5,19.9h12.4L128.9,398l19.1-19.9h-12.4l-19,20.5v-20.5h-10.3V424.9L106.2,424.9z M185.7,425.6
		c5.1,0,9.3-1.5,12.2-4.3c2.8-2.8,4.4-7,4.4-12.5v-30.6h-10.6v30.2c0,5.4-2.4,7.8-6.3,7.8c-3.3,0-5.9-1.7-8.6-4.7l-6.5,7.2
		C173.6,422.4,178.5,425.6,185.7,425.6L185.7,425.6z M207.1,424.9h10.5l4.3-10.5h19.8l4.3,10.5h10.8l-20.1-47.1h-9.5L207.1,424.9
		L207.1,424.9z M225.6,405.3l6.2-15.2l6.2,15.2H225.6L225.6,405.3z M272.2,425.3h9.1l18.9-47.1h-11.1l-12.2,33l-12.2-33h-11.4
		L272.2,425.3L272.2,425.3z M296.8,424.9h10.5l4.3-10.5h19.8l4.3,10.5h10.8l-20.1-47.1h-9.5L296.8,424.9L296.8,424.9z M315.2,405.3
		l6.2-15.2l6.2,15.2H315.2L315.2,405.3z"/>
</g>
</svg>
