<?xml version="1.0" encoding="utf-8"?>
<!-- Generator: Adobe Illustrator 24.1.0, SVG Export Plug-In . SVG Version: 6.00 Build 0)  -->
<svg version="1.1" id="Layer_1" xmlns="http://www.w3.org/2000/svg" xmlns:xlink="http://www.w3.org/1999/xlink" x="0px" y="0px"
	 viewBox="0 0 720 238.47" style="enable-background:new 0 0 720 238.47;" xml:space="preserve">
<style type="text/css">
	.st0{fill:#00000A;}
</style>
<g>
	<path class="st0" d="M88.59,70.7H47.17V37.84h33.84l5.13,14.54h18.46V13.94H47.17L0,14.94v16.93l15.38,5.97v93.6L0,137.41v16.93
		h107.05v-40.23H88.59l-4.72,16.33H47.17V92.6h41.43V70.7L88.59,70.7z M234.61,63.73V46.8l-34.25,1l-21.33,34.65l-10.66-17.52
		l6.15-1.19V46.8l-53.11,1v15.93l11.07,2.59l24.82,35.25l-22.56,32.86l-15.38,3.98v15.93h34.86l22.15-35.65l10.87,17.53l-6.36,2.19
		v15.93h55.78V138.4l-15.18-3.98l-23.17-33.85l23.58-34.25L234.61,63.73L234.61,63.73z M300.23,44.81
		c-33.43,0-55.37,20.91-55.37,56.76c0,37.84,18.87,54.76,52.3,54.76c33.22,0,54.76-21.91,54.76-57.75
		C351.91,64.32,333.45,44.81,300.23,44.81L300.23,44.81z M299.21,68.7c14.77,0,20.92,10.55,20.92,30.87
		c0,23.9-7.18,32.86-21.94,32.86c-14.97,0-21.53-9.96-21.53-31.86C276.65,76.67,284.24,68.7,299.21,68.7L299.21,68.7z
		 M442.15,154.34l43.68-1.39v-15.93l-16.41-3.98V0l-47.17,1.59v15.93l16.41,3.98V46.8c-4.51-1-10.46-1.99-15.38-1.99
		c-37.53,0-55.99,20.91-55.99,58.35c0,32.86,13.33,53.17,42.04,53.17c17.64,0,28.1-9.76,30.97-12.55L442.15,154.34L442.15,154.34z
		 M438.66,121.08c0,0-6.77,11.35-19.89,11.35c-13.95,0-19.69-10.75-19.69-30.87c0-19.91,6.15-32.86,23.58-32.86
		c5.95,0,12.1,1.19,16,2.99V121.08L438.66,121.08z M493,63.73l16.41,4.98v51.98c0,22.3,11.89,35.65,32.4,35.65
		c19.48,0,35.89-15.93,35.89-15.93l2.05,13.94l43.27-1.39v-15.53l-16.41-3.98V46.8l-47.17,1v15.93l16.41,4.98v51.98
		c0,0-9.84,10.75-23.17,10.75c-9.23,0-12.51-4.98-12.51-15.93V46.8l-47.17,1V63.73L493,63.73z M653.37,119.49h-18.46v32.46
		c0,0,18.25,4.38,37.73,4.38c28.1,0,47.17-12.94,47.17-35.85c0-34.45-54.76-27.48-54.76-43.61c0-6.57,5.33-10.16,14.15-10.16
		c8.2,0,14.15,1.99,14.15,1.99l3.08,11.95h17.43l0.82-29.87c0,0-19.69-5.97-38.14-5.97c-21.74,0-42.25,9.16-42.25,34.05
		c0,35.45,54.76,29.47,54.76,45.8c0,6.37-5.54,9.76-16.82,9.76c-10.05,0-17.23-1.99-17.23-1.99L653.37,119.49L653.37,119.49z"/>
	<path class="st0" d="M0.17,228.82h9.33v-27.05l11.97,17.64h0.25l12.09-17.82v27.23h9.33v-41.71H32.94l-11.29,17.64l-11.29-17.64
		H0.17V228.82L0.17,228.82z M60.92,222.15c-0.94-0.67-1.41-1.63-1.41-2.86v-0.12c0-1.43,0.57-2.52,1.72-3.28
		c1.14-0.75,2.72-1.13,4.73-1.13c1.14,0,2.22,0.11,3.22,0.33c1,0.22,1.91,0.51,2.73,0.86v1.61c0,1.67-0.67,3.02-1.99,4.05
		c-1.33,1.03-3.1,1.55-5.31,1.55C63.09,223.16,61.86,222.82,60.92,222.15L60.92,222.15z M67.61,228.31c1.6-0.73,2.97-1.72,4.11-2.95
		v3.46h9.02v-18.53c0-2.15-0.29-4.08-0.86-5.81c-0.57-1.73-1.47-3.19-2.7-4.38c-1.19-1.15-2.69-2.04-4.51-2.65
		c-1.82-0.61-4.02-0.92-6.6-0.92c-2.78,0-5.15,0.24-7.12,0.72c-1.96,0.48-3.85,1.09-5.65,1.85l2.33,6.91
		c1.51-0.55,2.96-0.98,4.33-1.28c1.37-0.3,2.96-0.45,4.76-0.45c2.33,0,4.09,0.5,5.28,1.49c1.19,0.99,1.78,2.44,1.78,4.35v0.54
		c-1.19-0.4-2.4-0.72-3.65-0.95c-1.25-0.24-2.71-0.36-4.39-0.36c-1.96,0-3.75,0.21-5.37,0.62c-1.62,0.42-3.01,1.04-4.17,1.88
		c-1.17,0.84-2.08,1.89-2.73,3.16c-0.65,1.27-0.98,2.78-0.98,4.53v0.12c0,1.59,0.3,2.99,0.89,4.2c0.59,1.21,1.4,2.23,2.42,3.07
		c1.02,0.83,2.22,1.46,3.59,1.88c1.37,0.42,2.83,0.63,4.39,0.63C64.07,229.42,66.01,229.05,67.61,228.31L67.61,228.31z
		 M102.87,221.1c-0.96-0.42-1.8-1.01-2.52-1.79c-0.72-0.77-1.29-1.71-1.72-2.8c-0.43-1.09-0.64-2.29-0.64-3.6v-0.12
		c0-1.31,0.22-2.51,0.64-3.61c0.43-1.09,1-2.03,1.72-2.8c0.71-0.77,1.55-1.37,2.52-1.79c0.96-0.42,1.99-0.63,3.1-0.63
		c1.1,0,2.14,0.21,3.1,0.63c0.96,0.42,1.81,1.01,2.55,1.79c0.74,0.77,1.32,1.71,1.75,2.8c0.43,1.09,0.64,2.29,0.64,3.61v0.12
		c0,1.35-0.21,2.56-0.64,3.63c-0.43,1.07-1.01,2-1.75,2.77c-0.74,0.78-1.59,1.37-2.55,1.79c-0.96,0.42-2,0.63-3.1,0.63
		C104.86,221.73,103.82,221.52,102.87,221.1L102.87,221.1z M88.78,238.35h9.33v-13.71c1.1,1.27,2.46,2.38,4.08,3.34
		c1.61,0.95,3.67,1.43,6.17,1.43c1.96,0,3.85-0.36,5.65-1.07c1.8-0.71,3.39-1.78,4.76-3.19c1.37-1.41,2.47-3.14,3.31-5.18
		c0.84-2.05,1.26-4.4,1.26-7.06v-0.12c0-2.66-0.42-5.02-1.26-7.06c-0.84-2.04-1.95-3.77-3.35-5.18c-1.39-1.41-2.99-2.47-4.79-3.19
		c-1.8-0.72-3.66-1.07-5.59-1.07c-2.46,0-4.49,0.49-6.11,1.46c-1.62,0.97-3,2.21-4.14,3.72v-4.59h-9.33V238.35L88.78,238.35z
		 M159.04,220.54v-25.15h7.3c1.92,0,3.68,0.31,5.28,0.92c1.59,0.62,2.95,1.48,4.08,2.59c1.12,1.11,2,2.44,2.64,3.99
		c0.63,1.55,0.95,3.24,0.95,5.07v0.12c0,1.87-0.32,3.56-0.95,5.07c-0.63,1.51-1.51,2.82-2.64,3.93c-1.13,1.11-2.49,1.97-4.08,2.56
		c-1.6,0.6-3.36,0.89-5.28,0.89H159.04L159.04,220.54z M149.59,228.82h16.75c3.35,0,6.43-0.54,9.24-1.61
		c2.8-1.07,5.22-2.54,7.24-4.41c2.03-1.87,3.59-4.07,4.7-6.61c1.1-2.54,1.66-5.28,1.66-8.22v-0.12c0-2.94-0.55-5.67-1.66-8.19
		c-1.11-2.52-2.67-4.72-4.7-6.59c-2.02-1.87-4.44-3.33-7.24-4.38c-2.8-1.05-5.88-1.58-9.24-1.58h-16.75V228.82L149.59,228.82z
		 M209.34,221.01c-1.04-0.48-1.95-1.12-2.73-1.94c-0.78-0.81-1.37-1.75-1.78-2.8c-0.41-1.05-0.61-2.18-0.61-3.37v-0.12
		c0-1.19,0.19-2.31,0.58-3.37c0.39-1.05,0.95-1.98,1.69-2.77c0.74-0.79,1.63-1.42,2.67-1.88c1.04-0.46,2.24-0.68,3.59-0.68
		c1.27,0,2.43,0.24,3.5,0.71c1.06,0.48,1.98,1.12,2.76,1.94c0.78,0.82,1.37,1.75,1.78,2.8c0.41,1.05,0.61,2.17,0.61,3.37v0.12
		c0,1.19-0.2,2.31-0.58,3.37c-0.39,1.05-0.95,1.98-1.69,2.77c-0.74,0.79-1.63,1.42-2.67,1.88c-1.04,0.46-2.24,0.69-3.59,0.69
		C211.55,221.73,210.38,221.49,209.34,221.01L209.34,221.01z M219.86,228.22c2.17-0.87,4.05-2.07,5.65-3.58
		c1.6-1.51,2.84-3.27,3.74-5.27c0.9-2.01,1.35-4.16,1.35-6.47v-0.12c0-2.3-0.45-4.46-1.35-6.47c-0.9-2-2.14-3.75-3.71-5.24
		c-1.57-1.49-3.45-2.66-5.61-3.52c-2.17-0.85-4.52-1.28-7.06-1.28c-2.58,0-4.95,0.44-7.12,1.31c-2.17,0.87-4.05,2.07-5.65,3.58
		c-1.6,1.51-2.84,3.27-3.74,5.27c-0.9,2.01-1.35,4.16-1.35,6.47v0.12c0,2.3,0.45,4.46,1.35,6.47c0.9,2.01,2.14,3.75,3.71,5.24
		c1.57,1.49,3.45,2.66,5.62,3.52c2.17,0.85,4.52,1.28,7.06,1.28C215.32,229.53,217.69,229.1,219.86,228.22L219.86,228.22z
		 M260.85,227.9c2.05-1.09,3.87-2.49,5.46-4.2l-5.46-5.36c-1.15,1.03-2.3,1.86-3.47,2.47c-1.17,0.62-2.53,0.92-4.08,0.92
		c-1.27,0-2.41-0.23-3.44-0.69c-1.02-0.46-1.9-1.08-2.64-1.88c-0.74-0.79-1.3-1.73-1.69-2.8c-0.39-1.07-0.58-2.22-0.58-3.46v-0.12
		c0-1.19,0.19-2.31,0.58-3.37c0.39-1.05,0.94-1.98,1.66-2.77c0.71-0.79,1.55-1.42,2.52-1.88c0.96-0.46,2.03-0.68,3.22-0.68
		c1.68,0,3.08,0.32,4.2,0.95c1.12,0.64,2.22,1.49,3.28,2.56l5.71-5.96c-1.56-1.67-3.36-2.98-5.4-3.93
		c-2.05-0.95-4.62-1.43-7.73-1.43c-2.54,0-4.86,0.44-6.96,1.31c-2.11,0.87-3.92,2.07-5.43,3.58c-1.51,1.51-2.7,3.28-3.56,5.3
		c-0.86,2.03-1.29,4.17-1.29,6.44v0.12c0,2.27,0.43,4.4,1.29,6.41c0.86,2.01,2.05,3.75,3.56,5.24c1.51,1.49,3.32,2.67,5.43,3.55
		c2.11,0.87,4.39,1.31,6.84,1.31C256.15,229.53,258.81,228.99,260.85,227.9L260.85,227.9z M286.5,229c0.94-0.28,1.8-0.66,2.58-1.14
		c0.78-0.48,1.48-1.03,2.12-1.65c0.63-0.62,1.22-1.27,1.75-1.95v4.57h9.33v-31.94h-9.33v17.77c0,2.14-0.52,3.76-1.57,4.85
		c-1.04,1.09-2.47,1.63-4.27,1.63c-1.8,0-3.19-0.54-4.17-1.63c-0.98-1.09-1.47-2.7-1.47-4.85v-17.77h-9.33v20.68
		c0,3.7,0.97,6.59,2.92,8.7c1.94,2.11,4.69,3.16,8.25,3.16C284.5,229.42,285.56,229.27,286.5,229L286.5,229z M310.62,228.82h9.33
		v-17.77c0-2.14,0.5-3.76,1.5-4.85c1-1.09,2.38-1.63,4.14-1.63c1.76,0,3.11,0.55,4.05,1.63c0.94,1.09,1.41,2.71,1.41,4.85v17.77
		h9.33v-17.77c0-2.14,0.5-3.76,1.5-4.85c1-1.09,2.38-1.63,4.14-1.63c1.76,0,3.11,0.55,4.05,1.63c0.94,1.09,1.41,2.71,1.41,4.85
		v17.77h9.33v-20.8c0-3.85-0.98-6.77-2.95-8.76c-1.96-1.99-4.68-2.98-8.16-2.98c-2.25,0-4.26,0.43-6.01,1.29
		c-1.76,0.86-3.35,2.13-4.79,3.81c-0.86-1.64-2.08-2.9-3.65-3.78c-1.58-0.88-3.45-1.32-5.62-1.32c-1.19,0-2.26,0.14-3.22,0.42
		c-0.96,0.28-1.83,0.66-2.61,1.14c-0.78,0.48-1.48,1.03-2.12,1.65c-0.63,0.62-1.22,1.27-1.75,1.95v-4.57h-9.33V228.82L310.62,228.82
		z M376.47,210.35c0.37-2.07,1.15-3.72,2.36-4.95c1.21-1.23,2.79-1.85,4.76-1.85c1.96,0,3.54,0.63,4.72,1.88
		c1.19,1.25,1.92,2.89,2.21,4.92H376.47L376.47,210.35z M392.3,227.96c2.21-1.05,4.09-2.51,5.65-4.38l-5.34-4.59
		c-1.31,1.15-2.58,1.99-3.81,2.5c-1.23,0.52-2.62,0.77-4.17,0.77c-2.09,0-3.84-0.53-5.25-1.58c-1.41-1.05-2.34-2.61-2.79-4.68h22.89
		c0.04-0.44,0.07-0.85,0.09-1.25c0.02-0.4,0.03-0.77,0.03-1.13c0-2.26-0.32-4.44-0.95-6.52c-0.64-2.09-1.62-3.93-2.95-5.54
		c-1.33-1.61-3-2.89-5-3.84c-2-0.95-4.38-1.43-7.12-1.43c-2.42,0-4.61,0.44-6.6,1.31c-1.98,0.87-3.69,2.07-5.12,3.58
		c-1.43,1.51-2.55,3.28-3.34,5.3c-0.8,2.03-1.2,4.17-1.2,6.44v0.12c0,2.46,0.43,4.7,1.29,6.7c0.86,2.01,2.06,3.74,3.59,5.21
		c1.53,1.47,3.35,2.6,5.46,3.4c2.11,0.79,4.39,1.19,6.84,1.19C387.49,229.53,390.09,229.01,392.3,227.96L392.3,227.96z
		 M406.54,228.82h9.33v-17.77c0-2.14,0.52-3.76,1.57-4.85c1.04-1.09,2.46-1.63,4.27-1.63c1.8,0,3.19,0.55,4.17,1.63
		c0.98,1.09,1.47,2.71,1.47,4.85v17.77h9.33v-20.68c0-3.7-0.97-6.59-2.92-8.7c-1.94-2.11-4.7-3.16-8.25-3.16
		c-1.19,0-2.25,0.14-3.19,0.42c-0.94,0.28-1.8,0.66-2.58,1.14c-0.78,0.48-1.48,1.03-2.12,1.65c-0.63,0.62-1.22,1.27-1.75,1.95v-4.57
		h-9.33V228.82L406.54,228.82z M459.99,228.85c1.19-0.34,2.27-0.78,3.25-1.34v-7.27c-1.43,0.79-2.97,1.19-4.6,1.19
		c-2.01,0-3.01-1.04-3.01-3.11v-13.7h7.73v-7.75h-7.73v-8.16h-9.33v8.16h-3.93v7.75h3.93v15.14c0,1.87,0.23,3.41,0.71,4.62
		c0.47,1.21,1.12,2.2,1.96,2.95c0.84,0.75,1.84,1.28,3.01,1.58c1.17,0.3,2.46,0.45,3.9,0.45
		C457.43,229.36,458.8,229.19,459.99,228.85L459.99,228.85z M489.63,228.82h9.33v-27.05l11.97,17.64h0.25l12.09-17.82v27.23h9.33
		v-41.71H522.4l-11.29,17.64l-11.29-17.64h-10.19V228.82L489.63,228.82z M542.34,228.82h9.33v-31.94h-9.33V228.82L542.34,228.82z
		 M542.1,193.36h9.82v-8.04h-9.82V193.36L542.1,193.36z M570.57,216.66c-1.51-1.35-2.27-3.14-2.27-5.36v-0.12
		c0-1.07,0.2-2.07,0.61-2.98c0.41-0.91,0.97-1.7,1.69-2.35c0.71-0.66,1.55-1.16,2.52-1.52c0.96-0.36,2.02-0.54,3.16-0.54
		c1.15,0,2.21,0.18,3.19,0.54c0.98,0.36,1.83,0.86,2.55,1.52c0.72,0.66,1.28,1.44,1.69,2.35c0.41,0.91,0.61,1.91,0.61,2.98v0.12
		c0,1.07-0.21,2.07-0.61,2.98c-0.41,0.91-0.97,1.7-1.69,2.35c-0.72,0.66-1.57,1.16-2.55,1.52c-0.98,0.36-2.05,0.54-3.19,0.54
		C573.99,218.69,572.08,218.01,570.57,216.66L570.57,216.66z M583.49,237.46c2.35-0.68,4.3-1.77,5.86-3.28
		c2.78-2.7,4.17-6.89,4.17-12.57v-24.73h-9.33v4.17c-1.27-1.35-2.72-2.48-4.36-3.4c-1.64-0.91-3.72-1.37-6.26-1.37
		c-1.88,0-3.7,0.33-5.46,0.98c-1.76,0.66-3.31,1.62-4.66,2.89c-1.35,1.27-2.44,2.83-3.25,4.68c-0.82,1.85-1.23,3.96-1.23,6.35v0.12
		c0,2.38,0.4,4.5,1.2,6.35c0.8,1.85,1.87,3.41,3.22,4.68c1.35,1.27,2.91,2.24,4.66,2.89c1.76,0.66,3.6,0.98,5.52,0.98
		c2.49,0,4.56-0.46,6.2-1.37c1.64-0.91,3.15-2.18,4.54-3.81v1.55c0,2.86-0.77,5.03-2.3,6.49s-3.9,2.2-7.09,2.2
		c-2.21,0-4.18-0.26-5.92-0.77c-1.74-0.52-3.47-1.23-5.19-2.15l-3.19,6.79c2.09,1.07,4.36,1.9,6.81,2.47
		c2.45,0.58,5.03,0.86,7.73,0.86C578.36,238.47,581.14,238.14,583.49,237.46L583.49,237.46z M601.87,228.82h9.33v-11.8
		c0-3.85,0.89-6.69,2.67-8.52c1.78-1.83,4.22-2.74,7.33-2.74h0.49v-9.48c-2.78-0.12-4.99,0.48-6.63,1.79
		c-1.64,1.31-2.93,3.06-3.87,5.24v-6.44h-9.33V228.82L601.87,228.82z M635.99,222.15c-0.94-0.67-1.41-1.63-1.41-2.86v-0.12
		c0-1.43,0.57-2.52,1.72-3.28c1.15-0.75,2.72-1.13,4.73-1.13c1.14,0,2.22,0.11,3.22,0.33c1,0.22,1.91,0.51,2.73,0.86v1.61
		c0,1.67-0.67,3.02-1.99,4.05c-1.33,1.03-3.1,1.55-5.31,1.55C638.16,223.16,636.93,222.82,635.99,222.15L635.99,222.15z
		 M642.68,228.31c1.6-0.73,2.97-1.72,4.11-2.95v3.46h9.02v-18.53c0-2.15-0.29-4.08-0.86-5.81c-0.57-1.73-1.47-3.19-2.7-4.38
		c-1.19-1.15-2.69-2.04-4.51-2.65c-1.82-0.61-4.02-0.92-6.6-0.92c-2.78,0-5.16,0.24-7.12,0.72c-1.96,0.48-3.85,1.09-5.65,1.85
		l2.33,6.91c1.51-0.55,2.95-0.98,4.33-1.28c1.37-0.3,2.95-0.45,4.76-0.45c2.33,0,4.09,0.5,5.28,1.49c1.19,0.99,1.78,2.44,1.78,4.35
		v0.54c-1.19-0.4-2.4-0.72-3.65-0.95s-2.71-0.36-4.39-0.36c-1.96,0-3.75,0.21-5.37,0.62c-1.62,0.42-3.01,1.04-4.17,1.88
		c-1.17,0.84-2.08,1.89-2.73,3.16c-0.66,1.27-0.98,2.78-0.98,4.53v0.12c0,1.59,0.3,2.99,0.89,4.2c0.59,1.21,1.4,2.23,2.42,3.07
		c1.02,0.83,2.22,1.46,3.59,1.88c1.37,0.42,2.83,0.63,4.39,0.63C639.14,229.42,641.08,229.05,642.68,228.31L642.68,228.31z
		 M679.07,228.85c1.19-0.34,2.27-0.78,3.25-1.34v-7.27c-1.43,0.79-2.97,1.19-4.6,1.19c-2.01,0-3.01-1.04-3.01-3.11v-13.7h7.73v-7.75
		h-7.73v-8.16h-9.33v8.16h-3.93v7.75h3.93v15.14c0,1.87,0.24,3.41,0.71,4.62c0.47,1.21,1.12,2.2,1.96,2.95
		c0.84,0.75,1.84,1.28,3.01,1.58s2.46,0.45,3.9,0.45C676.51,229.36,677.88,229.19,679.07,228.85L679.07,228.85z M696.86,210.35
		c0.37-2.07,1.16-3.72,2.36-4.95c1.21-1.23,2.79-1.85,4.76-1.85c1.96,0,3.54,0.63,4.73,1.88c1.19,1.25,1.92,2.89,2.21,4.92H696.86
		L696.86,210.35z M712.7,227.96c2.21-1.05,4.09-2.51,5.65-4.38l-5.34-4.59c-1.31,1.15-2.58,1.99-3.81,2.5
		c-1.23,0.52-2.62,0.77-4.17,0.77c-2.09,0-3.84-0.53-5.25-1.58c-1.41-1.05-2.34-2.61-2.79-4.68h22.89c0.04-0.44,0.07-0.85,0.09-1.25
		c0.02-0.4,0.03-0.77,0.03-1.13c0-2.26-0.32-4.44-0.95-6.52c-0.63-2.09-1.62-3.93-2.95-5.54c-1.33-1.61-3-2.89-5-3.84
		c-2.01-0.95-4.38-1.43-7.12-1.43c-2.41,0-4.61,0.44-6.6,1.31c-1.98,0.87-3.69,2.07-5.12,3.58c-1.43,1.51-2.55,3.28-3.35,5.3
		c-0.8,2.03-1.2,4.17-1.2,6.44v0.12c0,2.46,0.43,4.7,1.29,6.7c0.86,2.01,2.06,3.74,3.59,5.21c1.53,1.47,3.35,2.6,5.46,3.4
		c2.11,0.79,4.39,1.19,6.84,1.19C707.89,229.53,710.49,229.01,712.7,227.96L712.7,227.96z"/>
</g>
</svg>
