<?xml version="1.0" encoding="utf-8"?>
<!-- Generator: Adobe Illustrator 25.0.0, SVG Export Plug-In . SVG Version: 6.00 Build 0)  -->
<svg version="1.1" id="Layer_1" xmlns="http://www.w3.org/2000/svg" xmlns:xlink="http://www.w3.org/1999/xlink" x="0px" y="0px"
	 viewBox="0 0 792 262.5" style="enable-background:new 0 0 792 262.5;" xml:space="preserve">
<style type="text/css">
	.st0{fill:#FFFFFF;}
</style>
<g>
	<path class="st0" d="M62.8,182.9l-12.2,40l-4.5,16.5h-0.2l-4.4-16.6l-12.3-39.9H0v78.4h18.2v-36l-0.6-24.1h0.2l19.4,60.1h16.5
		L73,201.2h0.2l-0.6,24.1v36h18v-78.4H62.8L62.8,182.9z M138.7,259.5c3.4-2,6.1-5.1,8-9.3l0.6,11.2h18v-59.4h-20.2v31.8
		c0,2.3-0.3,4.3-0.8,6c-0.5,1.7-1.2,3.1-2.2,4.2c-0.9,1.1-2.1,1.9-3.3,2.4c-1.3,0.5-2.6,0.8-4,0.8c-2.8,0-4.9-0.8-6.4-2.3
		c-1.5-1.5-2.3-4.2-2.3-8v-34.9h-20.2v39.7c0,5,0.9,9,2.6,12.1c1.7,3.1,4.1,5.3,7.2,6.7c3,1.4,6.6,2.1,10.6,2.1
		C131.2,262.5,135.3,261.5,138.7,259.5L138.7,259.5z M184.4,188.6v54.9c0.1,4.6,1,8.3,2.8,11c1.8,2.8,4.3,4.8,7.6,6.1
		c3.3,1.3,7.2,1.9,11.7,1.9c3.2,0,6.3-0.4,9.3-1.2c3-0.8,5.5-1.9,7.5-3.3l-2.1-12.5c-1.1,0.9-2.4,1.5-3.7,2c-1.4,0.4-3,0.7-4.9,0.7
		c-2.5,0-4.4-0.6-5.8-1.8c-1.4-1.2-2.1-3.3-2.1-6.1V183L184.4,188.6L184.4,188.6z M174.2,201.9v14.4h48.1v-14.4H174.2L174.2,201.9z
		 M264.1,259.5c3.4-2,6.1-5.1,8-9.3l0.6,11.2h18v-59.4h-20.2v31.8c0,2.3-0.3,4.3-0.8,6c-0.5,1.7-1.2,3.1-2.2,4.2
		c-1,1.1-2.1,1.9-3.3,2.4c-1.3,0.5-2.6,0.8-4,0.8c-2.8,0-4.9-0.8-6.4-2.3c-1.5-1.5-2.3-4.2-2.3-8v-34.9h-20.2v39.7
		c0,5,0.9,9,2.6,12.1c1.7,3.1,4.1,5.3,7.2,6.7c3,1.4,6.6,2.1,10.6,2.1C256.6,262.5,260.7,261.5,264.1,259.5L264.1,259.5z
		 M338.3,239.3c0,1.7-0.3,3.2-0.8,4.5c-0.6,1.3-1.3,2.3-2.3,3.1c-0.9,0.8-2,1.4-3.3,1.8c-1.2,0.4-2.5,0.6-3.9,0.6
		c-1.7,0-3.2-0.4-4.5-1.3c-1.3-0.9-1.9-2.2-1.9-3.9c0-1.8,0.6-3.2,1.7-4.1c1.1-0.9,2.9-1.6,5.3-2.1l11.4-2.4l0.1-10.7l-22.4,4.6
		c-5.5,1.1-9.6,3.1-12.2,5.9c-2.6,2.8-3.9,6.4-3.9,10.6c0,3.6,0.8,6.6,2.4,9c1.6,2.4,3.9,4.3,6.9,5.5c3,1.3,6.5,1.9,10.6,1.9
		c3.5,0,6.8-0.6,10-1.7c3.2-1.1,5.8-2.8,7.8-5.1c2-2.3,3-5.1,3-8.5l-2.3,0.8v0.7c0,3.1,0.7,5.6,2,7.7c1.3,2,3.2,3.5,5.6,4.5
		c2.4,1,5.1,1.5,8.2,1.5c3.4,0,6.3-0.6,8.7-1.7l1.2-11.5c-0.9,0.3-2,0.5-3.4,0.5c-2.8,0-4.2-1.5-4.2-4.6v-21.7c0-4.9-1.1-9-3.3-12.4
		c-2.2-3.4-5.3-5.9-9.4-7.6c-4.1-1.7-9-2.6-14.8-2.6c-8.6,0-15.3,1.7-20.1,5.1c-4.8,3.4-7.7,8-8.8,13.7l17.1,4
		c0.7-3.3,2-5.6,3.9-6.9c1.9-1.3,4.1-2,6.7-2c2.6,0,4.7,0.8,6.2,2.4c1.5,1.6,2.3,3.8,2.3,6.6V239.3L338.3,239.3z M373.7,176.8v67
		c0,6.6,1.4,11.4,4.3,14.4c2.9,2.9,7.4,4.4,13.8,4.4c2.2,0,4.5-0.3,6.8-0.8c2.3-0.6,4.2-1.3,5.6-2.1l1.3-12.1
		c-1.1,0.3-2.1,0.6-2.9,0.7c-0.8,0.2-1.8,0.2-3,0.2c-2.1,0-3.5-0.6-4.4-1.7c-0.9-1.1-1.3-3-1.3-5.6v-64.4H373.7L373.7,176.8z
		 M431.7,192.7c1.9-1.5,2.9-4,2.9-7.3c0-3.4-0.9-5.9-2.9-7.4c-1.9-1.5-4.9-2.3-8.9-2.3c-4.1,0-7.1,0.8-9,2.3c-1.9,1.5-2.8,4-2.8,7.4
		c0,3.3,0.9,5.8,2.8,7.3c1.9,1.5,4.8,2.3,9,2.3C426.9,195,429.8,194.3,431.7,192.7L431.7,192.7z M412.7,201.9v59.4h20.2v-59.4H412.7
		L412.7,201.9z M497.5,261.3v-14.1h-20.4l-10.4,0.2l6.5-6.5l23.3-26.6v-12.3h-52v14.1h20.3l9.4-0.2l-6.3,6.3l-23.6,26.8v12.3H497.5
		L497.5,261.3z M541.7,239.3c0,1.7-0.3,3.2-0.8,4.5c-0.6,1.3-1.3,2.3-2.3,3.1c-1,0.8-2,1.4-3.3,1.8c-1.2,0.4-2.5,0.6-3.9,0.6
		c-1.7,0-3.2-0.4-4.5-1.3c-1.3-0.9-1.9-2.2-1.9-3.9c0-1.8,0.6-3.2,1.7-4.1c1.1-0.9,2.9-1.6,5.3-2.1l11.4-2.4l0.1-10.7l-22.4,4.6
		c-5.5,1.1-9.6,3.1-12.2,5.9c-2.6,2.8-3.9,6.4-3.9,10.6c0,3.6,0.8,6.6,2.4,9c1.6,2.4,3.9,4.3,6.9,5.5c3,1.3,6.5,1.9,10.6,1.9
		c3.5,0,6.8-0.6,10-1.7c3.2-1.1,5.8-2.8,7.8-5.1c2-2.3,3-5.1,3-8.5l-2.3,0.8v0.7c0,3.1,0.7,5.6,2,7.7c1.3,2,3.2,3.5,5.6,4.5
		c2.4,1,5.1,1.5,8.2,1.5c3.4,0,6.3-0.6,8.7-1.7l1.2-11.5c-0.9,0.3-2,0.5-3.4,0.5c-2.8,0-4.2-1.5-4.2-4.6v-21.7c0-4.9-1.1-9-3.3-12.4
		c-2.2-3.4-5.3-5.9-9.4-7.6c-4.1-1.7-9-2.6-14.8-2.6c-8.6,0-15.3,1.7-20.1,5.1c-4.7,3.4-7.7,8-8.8,13.7l17.1,4
		c0.7-3.3,2-5.6,3.9-6.9c1.9-1.3,4.1-2,6.7-2c2.6,0,4.7,0.8,6.2,2.4c1.5,1.6,2.3,3.8,2.3,6.6V239.3L541.7,239.3z M579.6,191.1v52.4
		c0.1,4.6,1,8.3,2.8,11c1.8,2.8,4.3,4.8,7.6,6.1c3.3,1.3,7.2,1.9,11.7,1.9c3.2,0,6.3-0.4,9.3-1.2c3-0.8,5.5-1.9,7.5-3.3l-2.1-12.5
		c-1.1,0.9-2.4,1.5-3.7,2c-1.4,0.4-3,0.7-4.9,0.7c-2.5,0-4.4-0.6-5.8-1.8c-1.4-1.2-2.1-3.3-2.1-6.1v-54.7L579.6,191.1L579.6,191.1z
		 M569.3,201.9v14.4h48.1v-14.4H569.3L569.3,201.9z M645.8,192.7c1.9-1.5,2.9-4,2.9-7.3c0-3.4-1-5.9-2.9-7.4
		c-1.9-1.5-4.9-2.3-8.9-2.3c-4.1,0-7.1,0.8-9,2.3c-1.9,1.5-2.8,4-2.8,7.4c0,3.3,0.9,5.8,2.8,7.3c1.9,1.5,4.8,2.3,9,2.3
		C640.9,195,643.9,194.3,645.8,192.7L645.8,192.7z M626.8,201.9v59.4H647v-59.4H626.8L626.8,201.9z M673.4,204.4
		c-4.7,2.4-8.5,5.9-11.1,10.6c-2.7,4.6-4,10.2-4,16.7c0,6.5,1.3,12.1,4,16.7c2.7,4.6,6.4,8.2,11.1,10.6c4.7,2.4,10.2,3.6,16.3,3.6
		c6.3,0,11.7-1.2,16.4-3.6c4.7-2.4,8.4-5.9,11-10.6c2.7-4.6,4-10.2,4-16.7c0-6.5-1.3-12.1-4-16.7c-2.7-4.6-6.3-8.2-11-10.6
		c-4.7-2.4-10.2-3.6-16.4-3.6C683.5,200.7,678.1,201.9,673.4,204.4L673.4,204.4z M695.7,216.8c1.7,1.1,2.9,2.9,3.8,5.3
		c0.9,2.5,1.3,5.6,1.3,9.5c0,3.9-0.4,7-1.3,9.4c-0.9,2.4-2.1,4.2-3.8,5.3c-1.7,1.1-3.7,1.7-6.1,1.7c-2.3,0-4.3-0.6-5.9-1.7
		c-1.7-1.1-2.9-2.9-3.8-5.3c-0.9-2.4-1.3-5.6-1.3-9.4c0-3.9,0.4-7,1.3-9.5c0.9-2.5,2.1-4.2,3.8-5.3c1.7-1.1,3.6-1.7,5.9-1.7
		C692,215.1,694,215.7,695.7,216.8L695.7,216.8z M752.7,261.3v-31.5c0-3.3,0.5-6,1.4-8c1-2,2.3-3.4,3.9-4.3c1.7-0.9,3.4-1.4,5.3-1.4
		c2.5,0,4.5,0.8,6.1,2.4c1.6,1.6,2.4,4.4,2.4,8.5v34.2H792v-39.5c0-4.7-0.9-8.5-2.6-11.6c-1.7-3.1-4.1-5.4-7.2-7
		c-3-1.6-6.6-2.4-10.7-2.4c-3.8,0-7.2,0.7-10.3,2.2c-3,1.5-5.6,3.6-7.6,6.5c-2,2.8-3.4,6.4-4.2,10.7l2.3,2.3l-1.1-20.4h-18v59.4
		H752.7L752.7,261.3z"/>
	<path class="st0" d="M232.6,143.8c6.8-2.2,12.7-5.4,17.6-9.6c5-4.3,8.5-9.4,10.5-15.5l-29.4-9.9c-1.6,3.9-4,6.9-7.2,9.1
		c-3.2,2.2-7.6,3.2-13.1,3.2c-4.9,0-9.1-1-12.5-3c-3.5-2-6.1-5.2-8-9.5c-1.9-4.3-2.8-10.1-2.8-17.3c0-7.2,0.8-13.1,2.5-17.6
		c1.7-4.5,4.1-7.9,7.4-10.1c3.2-2.2,7.2-3.2,11.8-3.2c6.5,0,11.3,2.3,14.4,6.9c3.1,4.6,4.6,11.2,4.6,19.9l17.7-6.9h-69.6v19.9H262
		c0.3-1.7,0.5-3.9,0.6-6.4c0.1-2.5,0.2-5.2,0.2-7.9c0-9.9-2.1-18.8-6.4-26.5c-4.3-7.7-10.3-13.8-18.3-18.2c-7.9-4.4-17.6-6.6-29-6.6
		c-11.1,0-20.9,2.2-29.5,6.7c-8.6,4.5-15.2,10.8-19.9,19.1c-4.7,8.3-7,18.4-7,30.4c0,12,2.3,22.1,7,30.4
		c4.7,8.3,11.4,14.7,20.1,19.1c8.7,4.5,19,6.7,30.8,6.7C218.5,147.1,225.8,146,232.6,143.8L232.6,143.8z M327.5,119.2l-22.3-82.4
		h-38.7l38.9,108.1h43.9l38.9-108.1h-38.1L327.5,119.2L327.5,119.2z M430.4,8.8C419.9,14.6,411.8,23,406.2,34
		c-5.6,11-8.4,24.1-8.4,39.6c0,15.4,2.8,28.6,8.4,39.6c5.6,11,13.7,19.4,24.2,25.2c10.5,5.8,23,8.8,37.4,8.8
		c14.4,0,26.8-2.9,37.3-8.8c10.5-5.8,18.5-14.2,24.1-25.2c5.6-11,8.4-24.1,8.4-39.6c0-15.4-2.8-28.6-8.4-39.6
		c-5.6-11-13.7-19.4-24.1-25.2C494.7,2.9,482.3,0,467.8,0C453.4,0,440.9,2.9,430.4,8.8L430.4,8.8z M485.2,34.2
		c4.7,3.3,8.3,8.3,10.7,14.8c2.5,6.6,3.7,14.7,3.7,24.5c0,9.7-1.2,17.8-3.7,24.4c-2.5,6.6-6,11.6-10.7,14.9c-4.7,3.3-10.5,5-17.4,5
		c-6.9,0-12.8-1.7-17.5-5c-4.8-3.3-8.4-8.3-10.8-14.9c-2.5-6.6-3.7-14.8-3.7-24.4c0-9.8,1.2-18,3.7-24.5c2.4-6.6,6.1-11.5,10.8-14.8
		c4.8-3.3,10.6-5,17.5-5C474.8,29.2,480.6,30.9,485.2,34.2L485.2,34.2z M596.9,166.6v-55.7l-3.5,5.2c2,8.9,6.1,16.3,12.1,22.2
		c6.1,5.8,14,8.8,23.8,8.8c8.9,0,16.8-2.2,23.5-6.7c6.7-4.5,11.9-11,15.7-19.5c3.7-8.5,5.6-18.7,5.6-30.5c0-11.8-1.8-21.9-5.5-30.2
		c-3.7-8.3-8.8-14.6-15.5-19c-6.6-4.4-14.4-6.6-23.4-6.6c-7.1,0-13.3,1.6-18.8,4.8c-5.5,3.2-9.9,7.5-13.4,13
		c-3.5,5.5-5.7,11.8-6.7,19l4.3,4.5l-1.9-39.1h-33.1v140.9L596.9,166.6L596.9,166.6z M606,116.6c-3-2.3-5.3-5.7-6.8-10.1
		c-1.5-4.4-2.3-9.6-2.3-15.7c0-6.3,0.8-11.7,2.5-16c1.7-4.3,4-7.6,7-9.8c3-2.2,6.6-3.4,10.6-3.4c6.3,0,11.3,2.3,14.8,7
		c3.5,4.7,5.3,12.1,5.3,22.2c0,10.1-1.8,17.5-5.4,22.2c-3.6,4.7-8.6,7-14.9,7C612.7,120,609.1,118.9,606,116.6L606,116.6z
		 M769.5,142.2c7.5-3.2,13.1-7.7,16.9-13.4c3.7-5.7,5.6-11.9,5.6-18.7c0-7.6-2.5-14.1-7.4-19.5c-4.9-5.3-12.9-9-24-11L741,75.7
		c-4.9-1-8.3-2.2-10.1-3.6c-1.8-1.4-2.7-3-2.7-4.9c0-1.6,0.6-3,1.7-4.2c1.2-1.2,2.9-2.2,5.3-2.8c2.4-0.6,5.2-1,8.5-1
		c5.6,0,11.2,1.2,16.7,3.6c5.5,2.4,9.9,5.8,13.4,10.3l17.7-19.9c-5-6.1-11.8-10.7-20.1-13.8c-8.4-3.2-18-4.8-29-4.8
		c-11.5,0-21.1,1.7-28.7,5.2c-7.6,3.5-13.2,7.9-16.9,13.2c-3.7,5.3-5.5,11-5.5,16.9c0,8.8,2.9,15.9,8.7,21.3
		c5.8,5.4,15.5,9.5,29.2,12.2l14.9,2.8c4.3,1,7.2,2.1,8.7,3.4c1.4,1.2,2.2,2.8,2.2,4.9c0,2.9-1.4,4.9-4.3,6.2
		c-2.9,1.2-6.6,1.8-11.2,1.8c-7.4,0-14-1.5-19.9-4.6c-5.9-3.1-10.7-7-14.5-11.6l-17.3,20.3c6.2,6.6,13.9,11.7,23.2,15.2
		c9.3,3.5,19.4,5.3,30.2,5.3C752.6,147.1,762,145.4,769.5,142.2L769.5,142.2z"/>
	<path class="st0" d="M82.3,122c4.1,0,7.5-3.3,7.5-7.5c0-4.1-3.3-7.5-7.5-7.5c-2.9,0-5.5,1.7-6.8,4.4H31.9V65.4h5.3v40.8h42.7
		c3.4,0,6.5-0.8,9.4-2.4l7.6,9.2l0.2,0.4l0.1,0l0,0l0.3-0.3c0.2-0.1,0.4-0.2,0.6-0.3c0.3-0.2,0.5-0.3,0.8-0.5
		c5.8-4.2,10.5-9.9,13.9-17.1c3.4-7.2,5.2-15.1,5.2-23.5c0-8.5-1.7-16.4-5.2-23.5c-3.4-7.2-8.1-12.9-13.9-17.1
		c-5.8-4.2-12.2-6.3-19-6.3H24.8v93.8h51.4C77.6,120.7,79.8,122,82.3,122L82.3,122z M97.8,96c4.9-6.7,7.4-14.9,7.4-24.4
		c0-9.4-2.5-17.6-7.4-24.3c-5-6.8-11-10.2-18-10.2h-32c-1.4-2-3.6-3.2-5.9-3.2c-4.1,0-7.5,3.3-7.5,7.5c0,4.1,3.3,7.5,7.5,7.5
		c3,0,5.7-1.8,6.8-4.6h31.2c4.9,0,9.2,2.7,12.7,7.9c3.6,5.3,5.4,11.9,5.4,19.5c0,7.6-1.8,14.1-5.4,19.4c-3.5,5.3-7.8,8-12.7,8H44.3
		V58.7l-0.1-0.5l-12.3,0V31.9h47.9c5.5,0,10.6,1.8,15.3,5.3c4.7,3.5,8.5,8.4,11.3,14.5c2.8,6.1,4.2,12.8,4.2,20
		c0,10.9-3.1,20.4-9.1,28.1c-1,1.3-2.1,2.6-3.3,3.7l-3.4-4.1C96,98.3,96.9,97.2,97.8,96L97.8,96z"/>
	<path class="st0" d="M134.7,35.8c-5.6-10.7-13.2-19.3-22.7-25.7c0,0,0-0.1,0-0.1c0.1-0.2,0.1-0.5,0.1-0.8c0-4.1-3.3-7.5-7.5-7.5
		s-7.5,3.3-7.5,7.5c0,4.1,3.3,7.5,7.5,7.5c1,0,2-0.2,3-0.7c4.4,2.9,8.3,6.2,11.6,10.1c5,5.8,9.1,12.7,12.2,20.6
		c3,7.9,4.6,16.4,4.6,25c0,8.7-1.5,17.1-4.6,25.1c-3,8-7.1,14.9-12.2,20.6c-5,5.7-11.1,10.3-18,13.7c-6.9,3.4-14.2,5.1-21.6,5.1H7.1
		v-23.7h5.3v18.4h67.5c9,0,17.5-2.7,25.3-7.9c7.8-5.3,14-12.5,18.6-21.6c4.6-9.1,6.9-19.1,6.9-29.7c0-10.6-2.3-20.6-6.9-29.7
		c-4.6-9.1-10.9-16.4-18.6-21.6c-4.4-3-9.3-5.2-14.5-6.5l1.8-12.5l-4.1-0.6C85,0.2,82.3,0,79.8,0H0v143.3h79.8
		c8.4,0,16.6-1.9,24.4-5.7c7.8-3.8,14.6-8.9,20.3-15.3c5.7-6.4,10.3-14.1,13.7-22.9c3.4-8.8,5.1-18.2,5.1-27.8
		C143.4,58.8,140.5,46.7,134.7,35.8L134.7,35.8z M83.6,12.7l-0.4,0c-1.1-0.1-2.3-0.2-3.4-0.2H12.4v71.1c-2.5,1.3-4,3.8-4,6.5
		c0,4.1,3.3,7.5,7.5,7.5c4.1,0,7.5-3.3,7.5-7.5c0-2.6-1.4-5-3.8-6.4V19.5h60.3c7.7,0,14.9,2.3,21.6,7c6.7,4.6,12.1,11,16,19
		c4,8,6,16.8,6,26.2c0,9.4-2,18.2-6,26.2c-4,8-9.3,14.4-16,19c-6.6,4.6-13.9,7-21.6,7H19.5v-18.5l-12.4,0V7.1h72.7
		c1.5,0,2.9,0.1,4.6,0.3L83.6,12.7L83.6,12.7z"/>
</g>
</svg>
