<?xml version="1.0" encoding="UTF-8"?><svg id="Layer_1" xmlns="http://www.w3.org/2000/svg" viewBox="0 0 2000 2000"><defs><style>.cls-1{fill:#fff;stroke-width:0px;}</style></defs><polygon class="cls-1" points="1121.25 881.46 1121.25 1474.63 1174.57 1474.63 1174.57 881.46 1121.25 881.46 1121.25 881.46"/><polygon class="cls-1" points="798.77 1473.13 798.77 1400.73 279.5 881.46 279.5 956.87 797.26 1474.63 798.77 1473.13 798.77 1473.13"/><polygon class="cls-1" points="332.81 1064.31 279.5 1011 279.5 1474.62 332.81 1474.63 332.81 1064.31 332.81 1064.31"/><polygon class="cls-1" points="756.92 845.27 332.82 525.68 332.82 525.37 332.4 525.37 332.4 525.37 332.4 525.37 279.5 525.37 279.5 828.14 332.82 881.46 332.82 592.44 668.33 845.27 756.92 845.27 756.92 845.27"/><polygon class="cls-1" points="386.13 934.78 798.77 934.78 798.77 881.46 332.82 881.46 386.13 934.78 386.13 934.78"/><polygon class="cls-1" points="1085.06 1279.35 1085.06 1203.95 888.28 1400.73 888.28 881.46 834.96 881.46 834.96 1474.63 888.28 1474.63 888.28 1473.13 889.78 1474.63 1085.06 1279.35 1085.06 1279.35"/><polygon class="cls-1" points="1720.5 1421.31 1460.86 1421.31 1460.86 881.46 1407.55 881.46 1210.76 1078.25 1210.76 1153.65 1407.55 956.87 1407.55 1421.31 1407.55 1474.63 1460.86 1474.63 1720.5 1474.63 1720.5 1421.31 1720.5 1421.31"/><path class="cls-1" d="M1704.93,1125.54l-244.18-243.83v74.99l167.62,168.84h76.56ZM1433.56,1161.84v53.32h286.94v-53.52l-286.94.2h0Z"/></svg>