<?xml version="1.0" encoding="UTF-8"?><svg id="Layer_1" xmlns="http://www.w3.org/2000/svg" viewBox="0 0 1441.01 949.26"><defs><style>.cls-1{fill:#231f20;stroke-width:0px;}</style></defs><polygon class="cls-1" points="841.76 356.09 841.76 949.26 895.07 949.26 895.07 356.09 841.76 356.09 841.76 356.09"/><polygon class="cls-1" points="519.27 947.76 519.27 875.36 0 356.09 0 431.5 517.76 949.26 519.27 947.76 519.27 947.76"/><polygon class="cls-1" points="53.32 538.95 0 485.63 0 949.26 53.32 949.26 53.32 538.95 53.32 538.95"/><polygon class="cls-1" points="477.42 319.9 53.32 .32 53.32 0 52.9 0 52.9 0 52.9 0 0 0 0 302.78 53.32 356.09 53.32 67.08 388.83 319.9 477.42 319.9 477.42 319.9"/><polygon class="cls-1" points="106.64 409.41 519.27 409.41 519.27 356.09 53.32 356.09 106.64 409.41 106.64 409.41"/><polygon class="cls-1" points="805.57 753.98 805.57 678.58 608.78 875.36 608.78 356.09 555.46 356.09 555.46 949.26 608.78 949.26 608.78 947.76 610.29 949.26 805.57 753.98 805.57 753.98"/><polygon class="cls-1" points="1441 895.95 1181.37 895.95 1181.37 356.09 1128.05 356.09 931.27 552.88 931.27 628.28 1128.05 431.5 1128.05 895.95 1128.05 949.26 1181.37 949.26 1441 949.26 1441 895.95 1441 895.95"/><path class="cls-1" d="M1425.43,600.17l-244.18-243.83v74.99l167.62,168.84h76.56ZM1154.06,636.47v53.32h286.94v-53.52l-286.94.2h0Z"/></svg>