<?xml version="1.0" encoding="utf-8"?>
<!-- Generator: Adobe Illustrator 28.1.0, SVG Export Plug-In . SVG Version: 6.00 Build 0)  -->
<svg version="1.1" id="Layer_1" xmlns="http://www.w3.org/2000/svg" xmlns:xlink="http://www.w3.org/1999/xlink" x="0px" y="0px"
	 viewBox="0 0 1510.2 1406.9" style="enable-background:new 0 0 1510.2 1406.9;" xml:space="preserve">
<style type="text/css">
	.st0{fill:#FFFFFF;}
</style>
<g>
	<polygon class="st0" points="787.8,693.6 787.8,640.6 407.8,260.6 407.8,315.8 786.7,694.7 787.8,693.6 	"/>
	<polygon class="st0" points="446.8,394.4 407.8,355.4 407.8,694.7 446.8,694.7 446.8,394.4 	"/>
	<polygon class="st0" points="757.1,234.1 446.8,0.2 446.8,0 446.5,0 446.5,0 446.5,0 407.8,0 407.8,221.6 446.8,260.6 446.8,49.1 
		692.3,234.1 757.1,234.1 	"/>
	<polygon class="st0" points="485.8,299.6 787.8,299.6 787.8,260.6 446.8,260.6 485.8,299.6 	"/>
	<polygon class="st0" points="722.4,1.1 722.4,54.1 1102.4,434.1 1102.4,378.9 723.5,0 722.4,1.1 	"/>
	<polygon class="st0" points="1063.4,300.3 1102.4,339.3 1102.4,0 1063.4,0 1063.4,300.3 	"/>
	<polygon class="st0" points="753.1,460.6 1063.4,694.4 1063.4,694.7 1063.7,694.7 1063.7,694.7 1063.7,694.7 1102.4,694.7 
		1102.4,473.1 1063.4,434.1 1063.4,645.6 817.9,460.6 753.1,460.6 	"/>
	<polygon class="st0" points="1024.4,395.1 722.4,395.1 722.4,434.1 1063.4,434.1 1024.4,395.1 	"/>
	<path class="st0" d="M39.1,1399.6v-393.2h98.1c22.6,0,41.3,3.8,56.2,11.5c14.9,7.7,26,18.5,33.4,32.5c7.4,14,11.1,30.4,11.1,49.1
		c0,18.7-3.7,34.9-11,48.5c-7.3,13.7-18.4,24.2-33.3,31.6c-14.9,7.4-33.4,11.1-55.7,11.1H21.1v35.8h117.8c30.1,0,55.4-5.4,75.7-16.1
		c20.4-10.7,35.7-25.7,46.1-44.8c10.4-19.1,15.6-41.1,15.6-66.1c0-25-5.2-47.1-15.6-66.4c-10.4-19.3-25.8-34.4-46.2-45.4
		c-20.4-10.9-45.8-16.4-76.2-16.4H0v428.4H39.1L39.1,1399.6z M144.7,1206.3l104.4,193.3h45.2l-105.4-193.3H144.7L144.7,1206.3z
		 M657.2,1252.1c0,22.7-5.1,43-15.2,60.8c-10.1,17.8-24.4,31.8-43,41.9c-18.5,10.2-40.2,15.3-65.1,15.3c-24.8,0-46.5-5.1-64.9-15.3
		c-18.5-10.2-32.8-24.2-43-41.9c-10.2-17.8-15.3-38-15.3-60.8V971.2h-39.1v283.6c0,29.1,6.8,55.2,20.5,78
		c13.7,22.9,32.7,40.9,57.1,54.2c24.4,13.2,52.6,19.9,84.7,19.9c32.2,0,60.5-6.6,84.8-19.8c24.3-13.2,43.3-31.2,57-54.2
		c13.7-22.9,20.5-49,20.5-78.1V971.2h-39.1V1252.1L657.2,1252.1z M1105.2,971.2v359.1h-3.3L848,971.2h-37.9v428.4h39.1v-358.7h3.3
		l253.1,358.7h38.1V971.2H1105.2L1105.2,971.2z M1510.2,1399.6v-35.1h-213.6v-161.7h196.2v-35.1h-196.2v-161.3H1506v-35.1h-248.5
		v428.4H1510.2L1510.2,1399.6z"/>
</g>
</svg>
