<?xml version="1.0" encoding="utf-8"?>
<!-- Generator: Adobe Illustrator 28.0.0, SVG Export Plug-In . SVG Version: 6.00 Build 0)  -->
<svg version="1.1" id="Layer_1" xmlns="http://www.w3.org/2000/svg" xmlns:xlink="http://www.w3.org/1999/xlink" x="0px" y="0px"
	 viewBox="0 0 720 428.6" style="enable-background:new 0 0 720 428.6;" xml:space="preserve">
<style type="text/css">
	.st0{fill:#0586BF;}
	.st1{fill:#00BCE7;}
</style>
<g>
	<polygon class="st0" points="8.4,1.2 64.3,1.2 64.3,15.8 24.6,15.8 24.6,31.5 59.6,31.5 59.6,46.1 24.6,46.1 24.6,74.5 8.4,74.5 
		8.4,1.2 	"/>
	<polygon class="st0" points="78.7,1.2 94.8,1.2 94.8,74.5 78.7,74.5 78.7,1.2 	"/>
	<polygon class="st0" points="113.2,1.2 128,1.2 162.4,46.3 162.4,1.2 178.3,1.2 178.3,74.5 164.6,74.5 129.1,27.9 129.1,74.5 
		113.1,74.5 113.2,1.2 	"/>
	<path class="st0" d="M192.2,38v-0.2C192.2,17,208.6,0,231.2,0c22.6,0,38.9,16.9,38.9,37.8V38c0,20.9-16.4,37.8-39.1,37.8
		S192.2,58.9,192.2,38L192.2,38z M253.2,38v-0.2c0.4-12.3-9.2-22.6-21.5-23c-0.2,0-0.5,0-0.7,0c-13,0-22,10.3-22,22.8v0.2
		c-0.4,12.3,9.2,22.6,21.5,23.1c0.3,0,0.5,0,0.8,0C244.2,60.9,253.2,50.6,253.2,38L253.2,38z"/>
	<path class="st0" d="M278.4,63.8l9.5-11.4c6,5.5,13.8,8.7,21.9,8.9c6.6,0,10.6-2.5,10.6-6.9v-0.2c0-4.1-2.5-6.2-14.8-9.3
		c-14.8-3.8-24.3-7.9-24.3-22.4v-0.2C281.3,8.9,292,0.1,307,0.1c9.9-0.2,19.5,3.1,27.2,9.3l-8.4,12.2c-6.5-4.5-12.9-7.2-19.1-7.2
		c-6.2,0-9.4,2.8-9.4,6.4v0.2c0,4.8,3.2,6.4,15.8,9.6c14.9,3.9,23.3,9.2,23.3,22v0.2c0,14.6-11.1,22.7-26.9,22.7
		C298.1,75.5,287,71.4,278.4,63.8L278.4,63.8z"/>
	<path class="st1" d="M57.3,427.1c3.8-1,7.3-2.3,10.3-4.1c3.1-1.7,5.8-3.8,8.2-6.2c2.4-2.4,4.7-5,6.7-7.8l-18-12.8
		c-1.3,1.6-2.6,3-4,4.2c-1.4,1.3-2.8,2.4-4.3,3.3c-1.5,0.9-3.2,1.7-5,2.2c-1.8,0.5-3.9,0.7-6.1,0.7c-3,0-5.8-0.6-8.3-1.8
		c-2.5-1.2-4.7-2.8-6.5-4.9c-1.8-2-3.2-4.5-4.2-7.3c-1-2.8-1.5-5.8-1.5-9v-0.2c0-3.1,0.5-6.1,1.5-8.9c1-2.8,2.4-5.2,4.2-7.3
		c1.8-2,4-3.7,6.5-4.9c2.5-1.2,5.3-1.8,8.3-1.8c4.2,0,7.8,0.9,10.7,2.7c3,1.8,5.7,4.3,8.1,7.4l18-13.9c-1.9-2.6-4-5-6.5-7.3
		c-2.4-2.2-5.1-4.1-8.1-5.7c-3-1.6-6.3-2.8-9.9-3.7c-3.6-0.9-7.6-1.3-12.1-1.3c-6.6,0-12.6,1.1-18.1,3.4c-5.5,2.3-10.3,5.5-14.3,9.5
		c-4,4.1-7.2,8.8-9.5,14.3C1.1,371.7,0,377.6,0,383.8v0.2c0,6.4,1.2,12.3,3.5,17.8C5.8,407.3,9,412,13,416c4,4,8.7,7.1,14.1,9.3
		c5.4,2.2,11.2,3.3,17.3,3.3C49.2,428.6,53.5,428.1,57.3,427.1L57.3,427.1z M129,405.1c-2.7-1.3-5-3-7-5.1c-1.9-2.1-3.4-4.6-4.5-7.4
		c-1.1-2.8-1.6-5.7-1.6-8.9v-0.2c0-3.1,0.5-6.1,1.5-8.9c1-2.8,2.5-5.2,4.4-7.3c1.9-2.1,4.2-3.8,6.9-5c2.7-1.2,5.7-1.8,8.9-1.8
		c3.3,0,6.3,0.6,9,1.9c2.7,1.3,5.1,3,7,5.1c2,2.1,3.5,4.6,4.6,7.4c1.1,2.8,1.6,5.7,1.6,8.9v0.2c0,3.1-0.5,6.1-1.6,8.9
		c-1.1,2.8-2.5,5.2-4.4,7.3c-1.9,2.1-4.2,3.8-6.9,5c-2.7,1.2-5.7,1.8-9,1.8C134.7,407.1,131.7,406.4,129,405.1L129,405.1z
		 M156.3,425.1c5.7-2.3,10.6-5.5,14.8-9.6c4.2-4.1,7.4-8.8,9.8-14.3c2.3-5.5,3.5-11.3,3.5-17.4v-0.2c0-6.2-1.2-11.9-3.5-17.3
		c-2.3-5.4-5.6-10.1-9.7-14.1c-4.1-4-9-7.2-14.6-9.5c-5.7-2.3-11.8-3.5-18.5-3.5c-6.6,0-12.8,1.2-18.5,3.5
		c-5.7,2.3-10.6,5.5-14.8,9.6c-4.2,4.1-7.4,8.8-9.8,14.3c-2.3,5.5-3.5,11.3-3.5,17.4v0.2c0,6.2,1.2,11.9,3.5,17.3
		c2.3,5.4,5.6,10.1,9.7,14.1c4.1,4,9,7.2,14.6,9.5c5.7,2.3,11.8,3.5,18.5,3.5S150.6,427.4,156.3,425.1L156.3,425.1z M198.5,426.9
		H222v-47.2l36.9,47.2h21v-86.1h-23.5v45.5l-35.5-45.5h-22.3V426.9L198.5,426.9z M317.8,426.9h23.9v-65.2h25.8v-20.9H292v20.9h25.8
		V426.9L317.8,426.9z M403.6,382.1v-20.7h15.6c4,0,7.2,0.8,9.5,2.5c2.3,1.7,3.4,4.2,3.4,7.7v0.2c0,3.1-1.1,5.6-3.3,7.4
		c-2.2,1.8-5.4,2.8-9.5,2.8H403.6L403.6,382.1z M379.7,426.9h23.9v-26.1h10.2h0.2l17.3,26.1h27.6l-20.5-30c5.4-2.3,9.7-5.6,12.9-10
		c3.2-4.3,4.8-9.8,4.8-16.5v-0.2c0-8.4-2.5-15.1-7.6-20.1c-2.9-3-6.6-5.2-11.2-6.9c-4.6-1.6-10.2-2.5-16.9-2.5h-40.7V426.9
		L379.7,426.9z M504.4,405.1c-2.7-1.3-5-3-7-5.1c-1.9-2.1-3.4-4.6-4.5-7.4c-1.1-2.8-1.6-5.7-1.6-8.9v-0.2c0-3.1,0.5-6.1,1.5-8.9
		c1-2.8,2.5-5.2,4.4-7.3c1.9-2.1,4.2-3.8,6.9-5c2.7-1.2,5.7-1.8,8.9-1.8c3.3,0,6.3,0.6,9,1.9c2.7,1.3,5.1,3,7,5.1
		c2,2.1,3.5,4.6,4.6,7.4c1.1,2.8,1.6,5.7,1.6,8.9v0.2c0,3.1-0.5,6.1-1.6,8.9c-1.1,2.8-2.5,5.2-4.4,7.3c-1.9,2.1-4.2,3.8-6.9,5
		c-2.7,1.2-5.7,1.8-9,1.8C510.1,407.1,507.1,406.4,504.4,405.1L504.4,405.1z M531.6,425.1c5.7-2.3,10.6-5.5,14.8-9.6
		c4.2-4.1,7.4-8.8,9.8-14.3c2.3-5.5,3.5-11.3,3.5-17.4v-0.2c0-6.2-1.2-11.9-3.5-17.3c-2.3-5.4-5.6-10.1-9.7-14.1
		c-4.1-4-9-7.2-14.6-9.5c-5.7-2.3-11.8-3.5-18.5-3.5c-6.6,0-12.8,1.2-18.5,3.5c-5.7,2.3-10.6,5.5-14.8,9.6
		c-4.2,4.1-7.4,8.8-9.8,14.3c-2.3,5.5-3.5,11.3-3.5,17.4v0.2c0,6.2,1.2,11.9,3.5,17.3c2.3,5.4,5.6,10.1,9.7,14.1
		c4.1,4,9,7.2,14.6,9.5c5.7,2.3,11.8,3.5,18.5,3.5C519.8,428.6,526,427.4,531.6,425.1L531.6,425.1z M573.8,426.9h65.6v-20.9h-41.7
		v-65.2h-23.9V426.9L573.8,426.9z M699.5,426.4c4.3-1.3,7.9-3.1,11-5.5c3-2.4,5.4-5.3,7.1-8.8c1.7-3.4,2.5-7.4,2.5-11.8v-0.2
		c0-4-0.7-7.5-2.2-10.4c-1.5-2.9-3.6-5.4-6.4-7.4c-2.8-2-6.2-3.8-10.2-5.2c-4-1.4-8.4-2.7-13.4-3.7c-3-0.7-5.4-1.3-7.3-1.9
		c-1.9-0.6-3.4-1.2-4.6-1.8c-1.1-0.6-1.9-1.3-2.3-2c-0.5-0.7-0.7-1.6-0.7-2.6v-0.2c0-1.6,0.7-2.9,2.2-3.9c1.4-1.1,3.6-1.6,6.5-1.6
		c3.9,0,7.9,0.7,12,2.2c4.1,1.4,8.2,3.5,12.1,6.3l11.9-16.9c-4.7-3.8-9.9-6.7-15.7-8.6c-5.8-1.9-12.4-2.9-19.7-2.9
		c-5.2,0-9.8,0.7-13.9,2c-4.1,1.4-7.6,3.3-10.5,5.7c-2.9,2.5-5.1,5.4-6.6,8.7c-1.5,3.4-2.3,7-2.3,11.1v0.2c0,4.4,0.8,8.1,2.5,11.1
		c1.7,3,4,5.5,6.9,7.5c2.9,2,6.3,3.6,10.3,4.9c3.9,1.3,8.2,2.4,12.8,3.5c3,0.7,5.4,1.3,7.2,1.9c1.8,0.6,3.3,1.2,4.4,1.9
		c1.1,0.7,1.9,1.3,2.3,2c0.4,0.7,0.6,1.5,0.6,2.4v0.2c0,1.9-0.8,3.3-2.5,4.4c-1.7,1-4.1,1.5-7.3,1.5c-10,0-19.3-3.4-27.9-10.3
		L644.8,414c5.3,4.8,11.5,8.4,18.4,10.8c6.9,2.4,14.3,3.6,22,3.6C690.4,428.3,695.2,427.7,699.5,426.4L699.5,426.4z"/>
	<path class="st1" d="M57.3,309.5c3.8-1,7.3-2.3,10.3-4.1s5.8-3.8,8.2-6.2c2.4-2.4,4.7-5,6.7-7.8l-18-12.8c-1.3,1.6-2.6,3-4,4.2
		c-1.4,1.3-2.8,2.4-4.3,3.3c-1.5,0.9-3.2,1.7-5,2.2c-1.8,0.5-3.9,0.7-6.1,0.7c-3,0-5.8-0.6-8.3-1.8c-2.5-1.2-4.7-2.8-6.5-4.9
		c-1.8-2-3.2-4.5-4.2-7.3c-1-2.8-1.5-5.8-1.5-9V266c0-3.1,0.5-6.1,1.5-8.9c1-2.8,2.4-5.2,4.2-7.3c1.8-2,4-3.7,6.5-4.9
		c2.5-1.2,5.3-1.8,8.3-1.8c4.2,0,7.8,0.9,10.7,2.7c3,1.8,5.7,4.3,8.1,7.4l18-13.9c-1.9-2.6-4-5-6.5-7.3c-2.4-2.2-5.1-4.1-8.1-5.7
		c-3-1.6-6.3-2.8-9.9-3.7c-3.6-0.9-7.6-1.3-12.1-1.3c-6.6,0-12.6,1.1-18.1,3.4c-5.5,2.3-10.3,5.5-14.3,9.5c-4,4.1-7.2,8.8-9.5,14.3
		C1.1,254.2,0,260,0,266.2v0.2c0,6.4,1.2,12.3,3.5,17.8c2.3,5.5,5.5,10.2,9.5,14.1c4,4,8.7,7.1,14.1,9.3c5.4,2.2,11.2,3.3,17.3,3.3
		C49.2,311,53.5,310.5,57.3,309.5L57.3,309.5z M94.5,309.3h65.6v-20.9h-41.7v-65.2H94.5V309.3L94.5,309.3z M206.5,287.6
		c-2.7-1.3-5-3-7-5.1c-1.9-2.1-3.4-4.6-4.5-7.4c-1.1-2.8-1.6-5.7-1.6-8.9V266c0-3.1,0.5-6.1,1.5-8.9c1-2.8,2.5-5.2,4.4-7.3
		c1.9-2.1,4.2-3.8,6.9-5c2.7-1.2,5.7-1.8,8.9-1.8c3.3,0,6.3,0.6,9,1.9c2.7,1.3,5.1,3,7,5.1c2,2.1,3.5,4.6,4.6,7.4
		c1.1,2.8,1.6,5.7,1.6,8.9v0.2c0,3.1-0.5,6.1-1.6,8.9c-1.1,2.8-2.5,5.2-4.4,7.3c-1.9,2.1-4.2,3.8-6.9,5c-2.7,1.2-5.7,1.8-9,1.8
		C212.2,289.5,209.2,288.9,206.5,287.6L206.5,287.6z M233.8,307.5c5.7-2.3,10.6-5.5,14.8-9.6c4.2-4.1,7.4-8.8,9.8-14.3
		c2.3-5.5,3.5-11.3,3.5-17.4V266c0-6.2-1.2-11.9-3.5-17.3c-2.3-5.4-5.6-10.1-9.7-14.1c-4.1-4-9-7.2-14.6-9.5
		c-5.7-2.3-11.8-3.5-18.5-3.5c-6.6,0-12.8,1.2-18.5,3.5c-5.7,2.3-10.6,5.5-14.8,9.6c-4.2,4.1-7.4,8.8-9.8,14.3
		c-2.3,5.5-3.5,11.3-3.5,17.4v0.2c0,6.2,1.2,11.9,3.5,17.3c2.3,5.4,5.6,10.1,9.7,14.2c4.1,4,9,7.2,14.6,9.5
		c5.7,2.3,11.8,3.5,18.5,3.5C222,311,228.1,309.9,233.8,307.5L233.8,307.5z M331.4,308.6c5-1.6,9.2-4,12.7-7.2
		c3.5-3.2,6.2-7.4,8.1-12.4c1.9-5,2.9-11.1,2.9-18v-47.7h-24.4v48.5c0,6.1-1.4,10.5-4.3,13.4c-2.8,2.9-6.7,4.3-11.5,4.3
		c-4.8,0-8.6-1.5-11.5-4.5c-2.8-3-4.3-7.6-4.3-13.8v-47.9h-24.4v48.4c0,6.7,0.9,12.6,2.8,17.5c1.8,5,4.5,9.1,7.9,12.3
		c3.4,3.2,7.6,5.6,12.6,7.2c4.9,1.6,10.5,2.3,16.6,2.3C320.9,310.9,326.4,310.1,331.4,308.6L331.4,308.6z M394.8,288.1v-43.8h9.8
		c7.2,0,12.9,1.9,17.3,5.7c4.4,3.8,6.5,9.2,6.5,16.1v0.2c0,7-2.2,12.3-6.5,16.1c-4.4,3.8-10.1,5.7-17.3,5.7H394.8L394.8,288.1z
		 M371,309.3h32.7c7.7,0,14.6-1.1,20.7-3.3c6.1-2.2,11.3-5.2,15.4-9c4.2-3.9,7.4-8.4,9.6-13.7c2.2-5.3,3.3-11.1,3.3-17.3v-0.2
		c0-6.2-1.1-12-3.3-17.2c-2.2-5.2-5.3-9.7-9.5-13.5c-4.1-3.8-9.2-6.7-15.3-8.8c-6-2.1-12.9-3.1-20.6-3.1H371V309.3L371,309.3z"/>
	<path class="st1" d="M57.3,192c3.8-1,7.3-2.3,10.3-4.1c3.1-1.7,5.8-3.8,8.2-6.2c2.4-2.4,4.7-5,6.7-7.8l-18-12.8
		c-1.3,1.6-2.6,3-4,4.2c-1.4,1.3-2.8,2.4-4.3,3.3c-1.5,0.9-3.2,1.7-5,2.2c-1.8,0.5-3.9,0.7-6.1,0.7c-3,0-5.8-0.6-8.3-1.8
		c-2.5-1.2-4.7-2.8-6.5-4.9c-1.8-2-3.2-4.5-4.2-7.3c-1-2.8-1.5-5.8-1.5-9v-0.2c0-3.1,0.5-6.1,1.5-8.9c1-2.8,2.4-5.2,4.2-7.3
		c1.8-2,4-3.7,6.5-4.9c2.5-1.2,5.3-1.8,8.3-1.8c4.2,0,7.8,0.9,10.7,2.7c3,1.8,5.7,4.3,8.1,7.4l18-13.9c-1.9-2.6-4-5-6.5-7.3
		c-2.4-2.2-5.1-4.1-8.1-5.7c-3-1.6-6.3-2.8-9.9-3.7c-3.6-0.9-7.6-1.3-12.1-1.3c-6.6,0-12.6,1.2-18.1,3.4c-5.5,2.3-10.3,5.5-14.3,9.5
		c-4,4.1-7.2,8.8-9.5,14.3C1.1,136.6,0,142.4,0,148.7v0.2c0,6.4,1.2,12.3,3.5,17.8c2.3,5.5,5.5,10.2,9.5,14.1c4,4,8.7,7.1,14.1,9.3
		c5.4,2.2,11.2,3.3,17.3,3.3C49.2,193.5,53.5,193,57.3,192L57.3,192z M129,170c-2.7-1.3-5-3-7-5.1c-1.9-2.1-3.4-4.6-4.5-7.4
		c-1.1-2.8-1.6-5.7-1.6-8.9v-0.2c0-3.1,0.5-6.1,1.5-8.9c1-2.8,2.5-5.2,4.4-7.3c1.9-2.1,4.2-3.8,6.9-5c2.7-1.2,5.7-1.8,8.9-1.8
		c3.3,0,6.3,0.6,9,1.9c2.7,1.3,5.1,3,7,5.1c2,2.1,3.5,4.6,4.6,7.4c1.1,2.8,1.6,5.7,1.6,8.9v0.2c0,3.1-0.5,6.1-1.6,8.9
		c-1.1,2.8-2.5,5.2-4.4,7.3c-1.9,2.1-4.2,3.8-6.9,5c-2.7,1.2-5.7,1.8-9,1.8C134.7,171.9,131.7,171.3,129,170L129,170z M156.3,189.9
		c5.7-2.3,10.6-5.5,14.8-9.6c4.2-4.1,7.4-8.8,9.8-14.3c2.3-5.5,3.5-11.3,3.5-17.4v-0.2c0-6.2-1.2-11.9-3.5-17.3
		c-2.3-5.4-5.6-10.1-9.7-14.1c-4.1-4-9-7.2-14.6-9.5c-5.7-2.3-11.8-3.5-18.5-3.5c-6.6,0-12.8,1.2-18.5,3.5
		c-5.7,2.3-10.6,5.5-14.8,9.6c-4.2,4.1-7.4,8.8-9.8,14.3c-2.3,5.5-3.5,11.3-3.5,17.4v0.2c0,6.2,1.2,11.9,3.5,17.3
		c2.3,5.4,5.6,10.1,9.7,14.1c4.1,4,9,7.2,14.6,9.5c5.7,2.3,11.8,3.5,18.5,3.5S150.6,192.3,156.3,189.9L156.3,189.9z M198.5,191.7
		H222v-49.2l21.8,33.5h0.5l22-33.7v49.5H290v-86.1h-25.2l-20.5,33.3l-20.5-33.3h-25.2V191.7L198.5,191.7z M307,191.7h23.5v-49.2
		l21.8,33.5h0.5l22-33.7v49.5h23.7v-86.1h-25.2l-20.5,33.3l-20.5-33.3H307V191.7L307,191.7z M450,170c-2.7-1.3-5-3-7-5.1
		c-1.9-2.1-3.4-4.6-4.5-7.4c-1.1-2.8-1.6-5.7-1.6-8.9v-0.2c0-3.1,0.5-6.1,1.5-8.9c1-2.8,2.5-5.2,4.4-7.3c1.9-2.1,4.2-3.8,6.9-5
		c2.7-1.2,5.7-1.8,8.9-1.8c3.3,0,6.3,0.6,9,1.9c2.7,1.3,5.1,3,7,5.1c2,2.1,3.5,4.6,4.6,7.4c1.1,2.8,1.6,5.7,1.6,8.9v0.2
		c0,3.1-0.5,6.1-1.6,8.9c-1.1,2.8-2.5,5.2-4.4,7.3c-1.9,2.1-4.2,3.8-6.9,5c-2.7,1.2-5.7,1.8-9,1.8C455.7,171.9,452.7,171.3,450,170
		L450,170z M477.3,189.9c5.7-2.3,10.6-5.5,14.8-9.6c4.2-4.1,7.4-8.8,9.8-14.3c2.3-5.5,3.5-11.3,3.5-17.4v-0.2
		c0-6.2-1.2-11.9-3.5-17.3c-2.3-5.4-5.6-10.1-9.7-14.1c-4.1-4-9-7.2-14.6-9.5c-5.7-2.3-11.8-3.5-18.5-3.5c-6.6,0-12.8,1.2-18.5,3.5
		c-5.7,2.3-10.6,5.5-14.8,9.6c-4.2,4.1-7.4,8.8-9.8,14.3c-2.3,5.5-3.5,11.3-3.5,17.4v0.2c0,6.2,1.2,11.9,3.5,17.3
		c2.3,5.4,5.6,10.1,9.7,14.1c4.1,4,9,7.2,14.6,9.5c5.7,2.3,11.8,3.5,18.5,3.5S471.6,192.3,477.3,189.9L477.3,189.9z M519.5,191.7
		H543v-47.2l36.9,47.2h21v-86.1h-23.5v45.5l-35.5-45.5h-22.3V191.7L519.5,191.7z"/>
</g>
</svg>
