<?xml version="1.0" encoding="utf-8"?>
<!-- Generator: Adobe Illustrator 27.5.0, SVG Export Plug-In . SVG Version: 6.00 Build 0)  -->
<svg version="1.2" baseProfile="tiny" id="Layer_1" xmlns="http://www.w3.org/2000/svg" xmlns:xlink="http://www.w3.org/1999/xlink"
	 x="0px" y="0px" viewBox="0 0 538.8 540" overflow="visible" xml:space="preserve">
<g>
	<path fill="#00000A" d="M22.2,22.1l450.2,2.8l44.2,47.3l-2.5,133.7l-105.8,82.8l-50.1,39.2h63.6h45.9L514,380v138.1H68.7
		l-44.3-49.5l-0.5-141.9l98.6-75.8l51.2-39.3H109H67.2l-43.5-51.3L22.2,22.1L22.2,22.1z M0,0l1.9,168.4L57,233.5h52L1.9,315.9
		L2.5,477l56.4,63h477.1V371.7L477.7,306h-55.8l114-89.2l2.9-153L482,3L0,0L0,0z"/>
</g>
</svg>
