<?xml version="1.0" encoding="utf-8"?>
<!-- Generator: Adobe Illustrator 24.2.3, SVG Export Plug-In . SVG Version: 6.00 Build 0)  -->
<svg version="1.1" id="Layer_1" xmlns="http://www.w3.org/2000/svg" xmlns:xlink="http://www.w3.org/1999/xlink" x="0px" y="0px"
	 viewBox="0 0 641.5 648" style="enable-background:new 0 0 641.5 648;" xml:space="preserve">
<style type="text/css">
	.st0{fill:#00000A;}
</style>
<g>
	<path class="st0" d="M439.7,268V211c0-5.1-3.8-9.1-8.7-9.1h-225c-4.8,0-8.7,4-8.7,9.1V268c0,5.1,3.8,9.1,8.7,9.1h225
		C435.9,277.1,439.7,273.1,439.7,268L439.7,268z"/>
	<path class="st0" d="M367,362.3v-56.9c0-5.1-2.7-9.1-6.1-9.1H203.5c-3.4,0-6.1,4-6.1,9.1v56.9c0,5.1,2.7,9.1,6.1,9.1h157.5
		C364.3,371.4,367,367.4,367,362.3L367,362.3z"/>
	<path class="st0" d="M439.7,456.6v-56.9c0-5.1-3.8-9.1-8.7-9.1h-225c-4.8,0-8.7,4-8.7,9.1v56.9c0,5.1,3.8,9.1,8.7,9.1h225
		C435.9,465.7,439.7,461.7,439.7,456.6L439.7,456.6z"/>
	<path class="st0" d="M635.2,529.1L473,431c-8.5-5.1-15.4-1.2-15.4,8.7v49.5l-284.6,0V183.9h35.4c9.9,0,13.8-6.9,8.7-15.4L118.9,6.4
		c-5.1-8.5-13.4-8.5-18.6,0L2.3,168.6c-5.1,8.5-1.2,15.4,8.7,15.4h37.4v390.7c0,9.3,7.3,16.6,16.6,16.6h392.6v45.9
		c0,9.9,6.9,13.8,15.4,8.7l162.2-98.1C643.7,542.5,643.7,534.2,635.2,529.1L635.2,529.1z"/>
</g>
</svg>
