<?xml version="1.0" encoding="utf-8"?>
<!-- Generator: Adobe Illustrator 24.1.0, SVG Export Plug-In . SVG Version: 6.00 Build 0)  -->
<svg version="1.1" id="Layer_1" xmlns="http://www.w3.org/2000/svg" xmlns:xlink="http://www.w3.org/1999/xlink" x="0px" y="0px"
	 viewBox="0 0 720 187.85" style="enable-background:new 0 0 720 187.85;" xml:space="preserve">
<style type="text/css">
	.st0{fill:#00000A;}
	.st1{fill:#3E4556;}
</style>
<g>
	<path class="st0" d="M309.44,57.45H282.5V36.08h22l3.33,9.45h12V20.55H282.5l-30.67,0.65V32.2l10,3.88v60.86l-10,3.88v11.01h69.61
		V85.68h-12l-3.07,10.62H282.5v-24.6h26.94V57.45L309.44,57.45z M404.38,52.92V41.91l-22.27,0.65l-13.87,22.53l-6.93-11.4l4-0.78
		V41.91l-34.54,0.65v10.36l7.2,1.68l16.14,22.92l-14.67,21.36l-10,2.59v10.36h22.67l14.4-23.18l7.07,11.39l-4.13,1.42v10.36h36.27
		v-10.36l-9.87-2.59l-15.07-22.01l15.33-22.27L404.38,52.92L404.38,52.92z M447.05,40.62c-21.74,0-36,13.6-36,36.91
		c0,24.6,12.27,35.61,34,35.61c21.6,0,35.61-14.24,35.61-37.55C480.66,53.31,468.65,40.62,447.05,40.62L447.05,40.62z M446.38,56.16
		c9.6,0,13.6,6.86,13.6,20.07c0,15.54-4.67,21.37-14.27,21.37c-9.74,0-14-6.48-14-20.72C431.72,61.34,436.65,56.16,446.38,56.16
		L446.38,56.16z M539.33,111.84l28.4-0.91v-10.36l-10.67-2.59v-86.5l-30.67,1.04v10.36l10.67,2.59v16.45
		c-2.93-0.65-6.8-1.29-10-1.29c-24.4,0-36.4,13.6-36.4,37.94c0,21.37,8.67,34.57,27.34,34.57c11.47,0,18.27-6.35,20.14-8.16
		L539.33,111.84L539.33,111.84z M537.06,90.21c0,0-4.4,7.38-12.93,7.38c-9.07,0-12.8-6.99-12.8-20.07c0-12.95,4-21.37,15.34-21.37
		c3.87,0,7.87,0.78,10.4,1.94V90.21L537.06,90.21z M572.4,52.92l10.67,3.24v33.8c0,14.5,7.73,23.18,21.07,23.18
		c12.67,0,23.34-10.36,23.34-10.36l1.33,9.06l28.14-0.91v-10.1l-10.67-2.59V41.91l-30.67,0.65v10.36l10.67,3.24v33.8
		c0,0-6.4,6.99-15.07,6.99c-6,0-8.13-3.24-8.13-10.36V41.91l-30.67,0.65V52.92L572.4,52.92z M676.68,89.18h-12v21.11
		c0,0,11.87,2.85,24.54,2.85c18.27,0,30.67-8.42,30.67-23.31c0-22.4-35.61-17.87-35.61-28.36c0-4.27,3.47-6.6,9.2-6.6
		c5.33,0,9.2,1.29,9.2,1.29l2,7.77h11.34l0.53-19.42c0,0-12.8-3.88-24.8-3.88c-14.14,0-27.47,5.96-27.47,22.14
		c0,23.05,35.6,19.16,35.6,29.78c0,4.14-3.6,6.34-10.93,6.34c-6.54,0-11.2-1.29-11.2-1.29L676.68,89.18L676.68,89.18z"/>
	<path class="st0" d="M251.94,160.27H258v-17.59l7.78,11.47h0.16l7.86-11.59v17.71h6.07v-27.12h-6.62l-7.34,11.47l-7.34-11.47h-6.62
		V160.27L251.94,160.27z M291.44,155.93c-0.61-0.44-0.92-1.06-0.92-1.86v-0.08c0-0.93,0.37-1.64,1.12-2.13
		c0.74-0.49,1.77-0.74,3.07-0.74c0.74,0,1.44,0.07,2.1,0.21c0.65,0.14,1.24,0.33,1.78,0.56v1.05c0,1.09-0.43,1.96-1.3,2.64
		c-0.86,0.67-2.02,1.01-3.45,1.01C292.85,156.59,292.05,156.37,291.44,155.93L291.44,155.93z M295.79,159.94
		c1.04-0.48,1.93-1.12,2.67-1.92v2.25h5.87v-12.05c0-1.39-0.19-2.65-0.56-3.78c-0.37-1.12-0.96-2.07-1.76-2.85
		c-0.77-0.75-1.75-1.32-2.93-1.72c-1.18-0.4-2.61-0.6-4.29-0.6c-1.81,0-3.35,0.16-4.63,0.46c-1.28,0.31-2.5,0.71-3.67,1.2l1.52,4.49
		c0.98-0.36,1.92-0.64,2.81-0.83c0.89-0.19,1.92-0.29,3.09-0.29c1.52,0,2.66,0.32,3.43,0.97c0.77,0.65,1.16,1.59,1.16,2.83v0.35
		c-0.77-0.26-1.56-0.47-2.37-0.62c-0.81-0.15-1.76-0.23-2.85-0.23c-1.28,0-2.44,0.14-3.49,0.41c-1.05,0.27-1.96,0.68-2.71,1.22
		c-0.76,0.54-1.35,1.23-1.78,2.05c-0.43,0.83-0.64,1.81-0.64,2.95v0.08c0,1.03,0.19,1.94,0.58,2.73c0.38,0.79,0.91,1.45,1.58,2
		c0.66,0.54,1.44,0.95,2.33,1.22c0.89,0.27,1.84,0.41,2.85,0.41C293.49,160.66,294.75,160.42,295.79,159.94L295.79,159.94z
		 M318.71,155.25c-0.62-0.27-1.17-0.66-1.64-1.16c-0.46-0.5-0.84-1.11-1.12-1.82c-0.28-0.71-0.42-1.49-0.42-2.34v-0.08
		c0-0.85,0.14-1.63,0.42-2.34c0.28-0.71,0.65-1.32,1.12-1.82c0.47-0.5,1.01-0.89,1.64-1.16c0.63-0.27,1.3-0.41,2.02-0.41
		c0.72,0,1.39,0.14,2.01,0.41c0.62,0.27,1.18,0.66,1.66,1.16c0.48,0.5,0.86,1.11,1.14,1.82c0.28,0.71,0.42,1.49,0.42,2.34v0.08
		c0,0.88-0.14,1.67-0.42,2.36c-0.28,0.7-0.66,1.3-1.14,1.8c-0.48,0.5-1.03,0.89-1.66,1.16c-0.63,0.27-1.3,0.41-2.01,0.41
		C320.01,155.66,319.34,155.52,318.71,155.25L318.71,155.25z M309.56,166.47h6.07v-8.91c0.72,0.83,1.6,1.55,2.65,2.17
		c1.05,0.62,2.39,0.93,4.01,0.93c1.28,0,2.5-0.23,3.67-0.7c1.17-0.47,2.2-1.16,3.09-2.07c0.89-0.92,1.61-2.04,2.15-3.37
		c0.54-1.33,0.82-2.86,0.82-4.59v-0.08c0-1.73-0.27-3.26-0.82-4.59c-0.55-1.33-1.27-2.45-2.17-3.37c-0.9-0.92-1.94-1.61-3.11-2.07
		c-1.17-0.47-2.38-0.7-3.63-0.7c-1.6,0-2.92,0.32-3.97,0.95c-1.05,0.63-1.95,1.44-2.69,2.42v-2.98h-6.07V166.47L309.56,166.47z
		 M355.25,154.88v-16.35h4.75c1.25,0,2.39,0.2,3.43,0.6c1.04,0.4,1.92,0.96,2.65,1.69c0.73,0.72,1.3,1.59,1.72,2.6
		c0.41,1.01,0.62,2.11,0.62,3.29v0.08c0,1.21-0.21,2.31-0.62,3.29c-0.41,0.98-0.98,1.83-1.72,2.56c-0.73,0.72-1.62,1.28-2.65,1.67
		c-1.04,0.39-2.18,0.58-3.43,0.58H355.25L355.25,154.88z M349.1,160.27h10.89c2.18,0,4.18-0.35,6.01-1.05
		c1.82-0.7,3.39-1.65,4.71-2.87c1.32-1.21,2.33-2.65,3.05-4.3c0.72-1.65,1.08-3.43,1.08-5.35v-0.08c0-1.91-0.36-3.69-1.08-5.33
		c-0.72-1.64-1.74-3.07-3.05-4.28c-1.32-1.21-2.89-2.16-4.71-2.85c-1.82-0.68-3.82-1.03-6.01-1.03H349.1V160.27L349.1,160.27z
		 M387.95,155.19c-0.68-0.31-1.27-0.73-1.77-1.26c-0.51-0.53-0.89-1.14-1.16-1.82c-0.27-0.68-0.4-1.41-0.4-2.19v-0.08
		c0-0.77,0.13-1.51,0.38-2.19c0.25-0.68,0.62-1.28,1.1-1.8s1.06-0.92,1.74-1.22c0.68-0.3,1.46-0.45,2.33-0.45
		c0.82,0,1.58,0.16,2.27,0.46c0.69,0.31,1.29,0.73,1.8,1.26c0.51,0.53,0.89,1.14,1.16,1.82c0.27,0.68,0.4,1.41,0.4,2.19V150
		c0,0.78-0.13,1.51-0.38,2.19c-0.25,0.68-0.62,1.29-1.1,1.8c-0.48,0.52-1.06,0.92-1.74,1.22c-0.68,0.3-1.46,0.45-2.33,0.45
		C389.39,155.66,388.63,155.5,387.95,155.19L387.95,155.19z M394.79,159.88c1.41-0.57,2.63-1.34,3.67-2.32
		c1.04-0.98,1.85-2.13,2.43-3.43c0.58-1.3,0.88-2.7,0.88-4.2v-0.08c0-1.5-0.29-2.9-0.88-4.2c-0.59-1.3-1.39-2.44-2.41-3.41
		c-1.03-0.97-2.24-1.73-3.65-2.29c-1.41-0.56-2.94-0.83-4.59-0.83c-1.68,0-3.22,0.28-4.63,0.85c-1.41,0.57-2.63,1.34-3.67,2.33
		c-1.04,0.98-1.85,2.12-2.43,3.43c-0.59,1.3-0.88,2.71-0.88,4.2V150c0,1.5,0.29,2.9,0.88,4.2c0.58,1.3,1.39,2.44,2.41,3.41
		c1.02,0.97,2.24,1.73,3.65,2.29c1.41,0.55,2.94,0.83,4.59,0.83C391.84,160.73,393.38,160.45,394.79,159.88L394.79,159.88z
		 M421.45,159.67c1.33-0.71,2.51-1.62,3.55-2.73l-3.55-3.49c-0.74,0.67-1.5,1.21-2.26,1.61c-0.76,0.4-1.64,0.6-2.65,0.6
		c-0.82,0-1.57-0.15-2.23-0.45c-0.67-0.3-1.24-0.7-1.72-1.22c-0.48-0.52-0.85-1.12-1.1-1.82c-0.25-0.7-0.38-1.45-0.38-2.25v-0.08
		c0-0.77,0.13-1.51,0.38-2.19c0.25-0.68,0.61-1.28,1.08-1.8c0.46-0.52,1.01-0.92,1.64-1.22c0.63-0.3,1.32-0.45,2.1-0.45
		c1.09,0,2,0.21,2.73,0.62c0.73,0.41,1.44,0.97,2.13,1.67l3.71-3.88c-1.01-1.09-2.18-1.94-3.51-2.56c-1.33-0.62-3.01-0.93-5.03-0.93
		c-1.65,0-3.16,0.28-4.53,0.85c-1.37,0.57-2.55,1.34-3.53,2.33c-0.99,0.98-1.76,2.13-2.32,3.45c-0.56,1.32-0.84,2.71-0.84,4.18V150
		c0,1.47,0.28,2.86,0.84,4.17c0.56,1.3,1.33,2.44,2.32,3.41c0.98,0.97,2.16,1.74,3.53,2.3c1.37,0.57,2.85,0.85,4.45,0.85
		C418.39,160.73,420.11,160.38,421.45,159.67L421.45,159.67z M438.13,160.38c0.61-0.18,1.17-0.43,1.68-0.74
		c0.51-0.31,0.96-0.67,1.38-1.07c0.41-0.4,0.79-0.83,1.14-1.27v2.97h6.07V139.5h-6.07v11.56c0,1.39-0.34,2.44-1.02,3.15
		c-0.68,0.71-1.6,1.06-2.77,1.06c-1.17,0-2.07-0.35-2.71-1.06c-0.64-0.71-0.96-1.76-0.96-3.15V139.5h-6.06v13.44
		c0,2.4,0.63,4.29,1.9,5.66c1.26,1.37,3.05,2.05,5.37,2.05C436.82,160.66,437.51,160.56,438.13,160.38L438.13,160.38z
		 M453.81,160.27h6.07v-11.56c0-1.39,0.33-2.44,0.98-3.15c0.65-0.71,1.55-1.06,2.69-1.06c1.14,0,2.02,0.36,2.63,1.06
		c0.61,0.71,0.92,1.76,0.92,3.15v11.56h6.07v-11.56c0-1.39,0.33-2.44,0.98-3.15c0.65-0.71,1.55-1.06,2.69-1.06
		c1.14,0,2.02,0.36,2.63,1.06c0.61,0.71,0.92,1.76,0.92,3.15v11.56h6.07v-13.52c0-2.51-0.64-4.4-1.92-5.7
		c-1.28-1.29-3.05-1.94-5.31-1.94c-1.46,0-2.77,0.28-3.91,0.84c-1.14,0.56-2.18,1.39-3.11,2.48c-0.56-1.07-1.35-1.89-2.38-2.46
		c-1.02-0.57-2.24-0.86-3.65-0.86c-0.77,0-1.47,0.09-2.1,0.27c-0.62,0.18-1.19,0.43-1.7,0.74c-0.51,0.31-0.96,0.67-1.38,1.07
		c-0.41,0.4-0.79,0.83-1.14,1.27v-2.97h-6.07V160.27L453.81,160.27z M496.62,148.26c0.24-1.34,0.75-2.42,1.54-3.22
		c0.78-0.8,1.82-1.2,3.09-1.2c1.28,0,2.3,0.41,3.07,1.22c0.77,0.81,1.25,1.88,1.44,3.2H496.62L496.62,148.26z M506.92,159.71
		c1.44-0.68,2.66-1.63,3.67-2.85l-3.47-2.98c-0.85,0.75-1.68,1.29-2.47,1.63c-0.8,0.34-1.7,0.5-2.71,0.5
		c-1.36,0-2.49-0.34-3.41-1.03c-0.92-0.68-1.52-1.7-1.82-3.04h14.88c0.03-0.28,0.05-0.55,0.06-0.81c0.01-0.26,0.02-0.5,0.02-0.74
		c0-1.47-0.21-2.89-0.62-4.24c-0.41-1.36-1.05-2.56-1.92-3.6c-0.86-1.05-1.95-1.88-3.25-2.5c-1.3-0.62-2.85-0.93-4.63-0.93
		c-1.57,0-3,0.28-4.29,0.85c-1.29,0.57-2.4,1.34-3.33,2.33c-0.93,0.98-1.66,2.13-2.17,3.45c-0.52,1.32-0.78,2.71-0.78,4.18V150
		c0,1.6,0.28,3.05,0.84,4.36c0.56,1.3,1.34,2.43,2.33,3.39c1,0.96,2.18,1.69,3.55,2.21c1.37,0.52,2.85,0.77,4.45,0.77
		C503.79,160.73,505.48,160.39,506.92,159.71L506.92,159.71z M516.18,160.27h6.07v-11.56c0-1.39,0.34-2.44,1.02-3.15
		c0.68-0.71,1.6-1.06,2.77-1.06s2.08,0.36,2.71,1.06c0.64,0.71,0.96,1.76,0.96,3.15v11.56h6.07v-13.45c0-2.4-0.63-4.29-1.9-5.66
		c-1.26-1.37-3.05-2.05-5.37-2.05c-0.77,0-1.46,0.09-2.07,0.27c-0.61,0.18-1.17,0.43-1.68,0.74c-0.51,0.31-0.96,0.67-1.38,1.07
		c-0.41,0.4-0.79,0.83-1.14,1.27v-2.97h-6.07V160.27L516.18,160.27z M550.93,160.29c0.77-0.22,1.48-0.51,2.11-0.87v-4.73
		c-0.93,0.52-1.93,0.77-2.99,0.77c-1.3,0-1.96-0.67-1.96-2.02v-8.9h5.03v-5.04h-5.03v-5.31h-6.07v5.31h-2.55v5.04h2.55v9.84
		c0,1.21,0.15,2.22,0.46,3c0.31,0.79,0.73,1.43,1.28,1.92c0.54,0.49,1.2,0.83,1.96,1.03c0.76,0.19,1.6,0.29,2.53,0.29
		C549.27,160.62,550.16,160.51,550.93,160.29L550.93,160.29z M570.2,160.27h6.07v-17.59l7.78,11.47h0.16l7.86-11.59v17.71h6.06
		v-27.12h-6.62l-7.34,11.47l-7.34-11.47h-6.62V160.27L570.2,160.27z M604.48,160.27h6.07V139.5h-6.07V160.27L604.48,160.27z
		 M604.32,137.21h6.38v-5.23h-6.38V137.21L604.32,137.21z M622.84,152.36c-0.98-0.88-1.48-2.04-1.48-3.49v-0.08
		c0-0.7,0.13-1.34,0.4-1.94c0.27-0.59,0.63-1.1,1.1-1.53c0.46-0.43,1.01-0.76,1.64-0.99c0.62-0.23,1.31-0.35,2.05-0.35
		c0.74,0,1.44,0.12,2.08,0.35c0.64,0.23,1.19,0.56,1.66,0.99c0.47,0.43,0.83,0.94,1.1,1.53c0.27,0.59,0.4,1.24,0.4,1.94v0.08
		c0,0.7-0.13,1.34-0.4,1.94c-0.27,0.6-0.63,1.11-1.1,1.53c-0.47,0.43-1.02,0.76-1.66,0.99c-0.64,0.23-1.33,0.35-2.08,0.35
		C625.06,153.68,623.82,153.24,622.84,152.36L622.84,152.36z M631.24,165.89c1.53-0.44,2.8-1.15,3.81-2.13
		c1.81-1.76,2.71-4.48,2.71-8.18V139.5h-6.07v2.71c-0.82-0.88-1.77-1.61-2.83-2.21c-1.06-0.59-2.42-0.89-4.07-0.89
		c-1.22,0-2.41,0.21-3.55,0.64c-1.14,0.43-2.15,1.05-3.03,1.88c-0.88,0.83-1.58,1.84-2.12,3.04c-0.53,1.2-0.8,2.58-0.8,4.13v0.08
		c0,1.55,0.26,2.93,0.78,4.13c0.52,1.2,1.22,2.22,2.09,3.04c0.88,0.83,1.89,1.45,3.03,1.88c1.14,0.43,2.34,0.64,3.59,0.64
		c1.62,0,2.97-0.3,4.03-0.89c1.06-0.59,2.05-1.42,2.95-2.48v1.01c0,1.86-0.5,3.27-1.5,4.22c-1,0.95-2.53,1.43-4.61,1.43
		c-1.44,0-2.72-0.17-3.85-0.5c-1.13-0.34-2.26-0.8-3.37-1.39l-2.08,4.42c1.36,0.7,2.83,1.23,4.43,1.61c1.6,0.38,3.27,0.56,5.03,0.56
		C627.9,166.55,629.71,166.33,631.24,165.89L631.24,165.89z M643.19,160.27h6.07v-7.67c0-2.51,0.58-4.35,1.74-5.54
		s2.75-1.78,4.77-1.78h0.32v-6.16c-1.81-0.08-3.25,0.31-4.31,1.16c-1.06,0.85-1.9,1.99-2.51,3.41v-4.18h-6.07V160.27L643.19,160.27z
		 M665.37,155.93c-0.61-0.44-0.92-1.06-0.92-1.86v-0.08c0-0.93,0.37-1.64,1.12-2.13c0.74-0.49,1.77-0.74,3.07-0.74
		c0.74,0,1.44,0.07,2.09,0.21c0.65,0.14,1.24,0.33,1.78,0.56v1.05c0,1.09-0.43,1.96-1.3,2.64c-0.86,0.67-2.02,1.01-3.45,1.01
		C666.78,156.59,665.98,156.37,665.37,155.93L665.37,155.93z M669.72,159.94c1.04-0.48,1.93-1.12,2.67-1.92v2.25h5.87v-12.05
		c0-1.39-0.19-2.65-0.56-3.78c-0.37-1.12-0.96-2.07-1.76-2.85c-0.77-0.75-1.75-1.32-2.93-1.72c-1.18-0.4-2.61-0.6-4.29-0.6
		c-1.81,0-3.35,0.16-4.63,0.46c-1.28,0.31-2.5,0.71-3.67,1.2l1.52,4.49c0.98-0.36,1.92-0.64,2.81-0.83
		c0.89-0.19,1.92-0.29,3.09-0.29c1.52,0,2.66,0.32,3.43,0.97c0.77,0.65,1.16,1.59,1.16,2.83v0.35c-0.77-0.26-1.56-0.47-2.37-0.62
		c-0.81-0.15-1.76-0.23-2.85-0.23c-1.28,0-2.44,0.14-3.49,0.41c-1.05,0.27-1.96,0.68-2.71,1.22c-0.76,0.54-1.35,1.23-1.78,2.05
		c-0.43,0.83-0.64,1.81-0.64,2.95v0.08c0,1.03,0.19,1.94,0.58,2.73c0.39,0.79,0.91,1.45,1.58,2c0.66,0.54,1.44,0.95,2.33,1.22
		c0.89,0.27,1.84,0.41,2.85,0.41C667.42,160.66,668.68,160.42,669.72,159.94L669.72,159.94z M693.39,160.29
		c0.77-0.22,1.48-0.51,2.11-0.87v-4.73c-0.93,0.52-1.93,0.77-2.99,0.77c-1.3,0-1.96-0.67-1.96-2.02v-8.9h5.03v-5.04h-5.03v-5.31
		h-6.07v5.31h-2.55v5.04h2.55v9.84c0,1.21,0.15,2.22,0.46,3c0.3,0.79,0.73,1.43,1.28,1.92c0.55,0.49,1.2,0.83,1.96,1.03
		c0.76,0.19,1.6,0.29,2.53,0.29C691.72,160.62,692.61,160.51,693.39,160.29L693.39,160.29z M704.96,148.26
		c0.24-1.34,0.75-2.42,1.54-3.22c0.78-0.8,1.81-1.2,3.09-1.2c1.28,0,2.3,0.41,3.07,1.22c0.77,0.81,1.25,1.88,1.44,3.2H704.96
		L704.96,148.26z M715.25,159.71c1.44-0.68,2.66-1.63,3.67-2.85l-3.47-2.98c-0.85,0.75-1.68,1.29-2.47,1.63
		c-0.8,0.34-1.7,0.5-2.71,0.5c-1.36,0-2.49-0.34-3.41-1.03c-0.92-0.68-1.52-1.7-1.82-3.04h14.88c0.03-0.28,0.05-0.55,0.06-0.81
		c0.01-0.26,0.02-0.5,0.02-0.74c0-1.47-0.21-2.89-0.62-4.24c-0.41-1.36-1.05-2.56-1.92-3.6c-0.87-1.05-1.95-1.88-3.25-2.5
		c-1.3-0.62-2.85-0.93-4.63-0.93c-1.57,0-3,0.28-4.29,0.85c-1.29,0.57-2.4,1.34-3.33,2.33c-0.93,0.98-1.66,2.13-2.17,3.45
		c-0.52,1.32-0.78,2.71-0.78,4.18V150c0,1.6,0.28,3.05,0.84,4.36c0.56,1.3,1.34,2.43,2.33,3.39c1,0.96,2.18,1.69,3.55,2.21
		c1.37,0.52,2.85,0.77,4.45,0.77C712.13,160.73,713.82,160.39,715.25,159.71L715.25,159.71z"/>
	<path class="st0" d="M189.69,178.29V9.56c0-5.28-4.28-9.56-9.56-9.56H9.56C4.28,0,0,4.28,0,9.56v168.72c0,5.28,4.28,9.56,9.56,9.56
		h170.57C185.41,187.85,189.69,183.57,189.69,178.29 M84.57,74.89H45.4v37.89h39.17v47.93H27.78V27.13h56.79V74.89 M91.23,79.23
		v-23.7l48.95,37.8l-48.95,38.98v-23.69H49.7V79.23H91.23 M161.91,144.35h-56.79v-17.79l41.88-33.35l-41.88-32.34V43.5h56.79V144.35
		"/>
	<path class="st1" d="M84.57,160.72H27.78l0-133.59h56.79v47.76H45.4v37.89h0h39.17V160.72 M161.91,144.35h-56.79v-17.79
		l41.88-33.35l-41.88-32.34V43.5h56.79V144.35"/>
	<path class="st0" d="M84.57,160.72H27.78H84.57v-47.93V160.72 M161.91,144.35L161.91,144.35V43.5V144.35 M45.4,112.79L45.4,112.79
		V74.89h39.17V27.13v47.76H45.4L45.4,112.79 M147.01,93.2l-41.88-32.34L147.01,93.2"/>
</g>
</svg>
