<?xml version="1.0" encoding="utf-8"?>
<!-- Generator: Adobe Illustrator 24.1.0, SVG Export Plug-In . SVG Version: 6.00 Build 0)  -->
<svg version="1.1" id="Layer_1" xmlns="http://www.w3.org/2000/svg" xmlns:xlink="http://www.w3.org/1999/xlink" x="0px" y="0px"
	 viewBox="0 0 539.78 539.78" style="enable-background:new 0 0 539.78 539.78;" xml:space="preserve">
<style type="text/css">
	.st0{opacity:0.4;fill:#FFFFFF;}
	.st1{fill:#FFFFFF;}
</style>
<g>
	<path class="st0" d="M539.78,539.78H347.36c105.96-0.01,166.88-73.67,166.88-167.83c0-170.69-203.4-139.45-209.87-216.89
		c-0.12,0-0.17,0-0.17,0s-1.24-6.8-11.74-16.68c-10.5-9.88-19.77-15.44-46.33-17.3c-8.87-0.62-20.88-0.83-32.96-0.83
		c-18.14,0-36.42,0.46-44.37,0.7c-1.49,9.75-2.33,19.98-2.33,30.77c-1.9,186.05,215.13,145.8,215.77,231.62
		c0,25.06-17.13,38.73-39.35,38.73c-21.62,0-53.51-32.25-46.56-78.9c-22.25,7.04-47.31,11.26-75.96,11.26h-54.71
		c4.74,124.83,85.02,185.34,181.65,185.35H0V0h271.88c-48.71,15.46-85.39,50.3-99.26,102.86c11.67-1.18,34.48-3.05,56.9-3.05
		c21.81,0,43.25,1.77,53.69,7.68c12.2,6.9,18.87,18.17,22.25,28.02c3.3-16.03,12.47-27.09,25.67-27.09c0.33,0,0.66,0.01,0.99,0.02
		c22.85,0,39.98,15.19,41.25,48.6h135.17C505.1,74.86,464.01,20.51,398.09,0h141.68V539.78 M347.32,539.78L347.32,539.78"/>
	<path class="st1" d="M418.95,173.75c0-5.66-0.23-11.22-0.61-16.71c-0.9-12.94-2.96-25.32-5.98-37.16
		c-0.36-1.41-0.66-2.85-1.05-4.24c-0.76-2.72-1.66-5.36-2.54-8.02c-0.57-1.71-1.09-3.45-1.7-5.13c-0.89-2.45-1.9-4.82-2.89-7.21
		c-0.75-1.8-1.48-3.62-2.28-5.39c-1.03-2.24-2.15-4.42-3.26-6.6c-0.93-1.81-1.85-3.63-2.84-5.4c-1.16-2.07-2.39-4.08-3.64-6.09
		c-1.11-1.78-2.22-3.56-3.4-5.29c-1.29-1.91-2.64-3.77-4.02-5.62c-1.29-1.73-2.6-3.44-3.97-5.12c-1.41-1.74-2.86-3.45-4.35-5.13
		c-1.48-1.67-3.01-3.31-4.57-4.92c-1.53-1.58-3.08-3.14-4.68-4.66c-1.68-1.6-3.43-3.14-5.2-4.67c-1.63-1.41-3.27-2.83-4.97-4.18
		c-1.9-1.52-3.89-2.96-5.88-4.41c-1.72-1.25-3.43-2.5-5.21-3.69c-2.15-1.43-4.4-2.77-6.64-4.12c-1.78-1.07-3.53-2.17-5.37-3.18
		c-2.46-1.36-5.03-2.6-7.6-3.86c-1.78-0.87-3.5-1.79-5.33-2.62c-2.95-1.33-6.04-2.53-9.12-3.73c-1.59-0.62-3.1-1.3-4.73-1.89
		C302.35,3,297.44,1.41,292.37,0H0v539.78h147.42V354.43h18.24h54.71c7.47,0,14.64-0.36,21.68-0.87
		c19.83-1.56,37.84-5.19,54.28-10.4c-0.02,0.12-0.02,0.23-0.03,0.34c8.09-2.52,15.62-5.57,22.9-8.86
		c-130.12-44.01-136.08-84.46-146.41-102.99h-25.37V108.11h23.82h52.88c45.5,0,71.79,9.67,80.09,43.4c0.02,0.78-0.05,1.52-0.01,2.31
		c0.05,0.97,0.27,1.85,0.39,2.79c0.02,0.13,0.03,0.26,0.05,0.39c4.82,37.07,56.04,48.72,106.73,71.43
		C416.38,210.99,418.95,192.6,418.95,173.75L418.95,173.75z"/>
</g>
</svg>
