<?xml version="1.0" encoding="utf-8"?>
<!-- Generator: Adobe Illustrator 24.1.0, SVG Export Plug-In . SVG Version: 6.00 Build 0)  -->
<svg version="1.1" id="Layer_1" xmlns="http://www.w3.org/2000/svg" xmlns:xlink="http://www.w3.org/1999/xlink" x="0px" y="0px"
	 viewBox="0 0 720 75.53" style="enable-background:new 0 0 720 75.53;" xml:space="preserve">
<style type="text/css">
	.st0{opacity:0.6;fill:#00000A;}
	.st1{fill:#00000A;}
</style>
<g>
	<path class="st0" d="M484.48,75.53c-8.37,0-15.38-3.14-19.08-9.74l10.31-5.96c1.53,2.82,3.87,5.07,9.18,5.07
		c5.64,0,9.1-2.9,9.1-8.62v-3.7c-2.66,3.3-6.52,5.23-11.76,5.23c-11.43,0-19.81-9.34-19.81-20.45c0-11.11,8.37-20.45,19.81-20.45
		c5.23,0,9.1,1.93,11.76,5.23v-4.11h11.76v38.25C505.74,69.81,495.19,75.53,484.48,75.53 M653.17,28.67c-5.23,0-9.26,3.78-9.26,9.5
		c0,5.72,4.03,9.5,9.26,9.5s9.26-3.78,9.26-9.5C662.43,32.45,658.4,28.67,653.17,28.67 M436.25,28.67c-5.23,0-9.26,3.78-9.26,9.5
		c0,5.72,4.03,9.5,9.26,9.5c5.23,0,9.26-3.78,9.26-9.5C445.51,32.45,441.49,28.67,436.25,28.67 M484.24,28.02
		c-5.72,0-9.74,3.78-9.74,9.34c0,5.56,4.03,9.34,9.74,9.34c5.72,0,9.74-3.78,9.74-9.34C493.98,31.81,489.96,28.02,484.24,28.02
		 M348.41,27.62c-4.59,0-7.65,2.25-8.78,6.36h17.31C355.65,29.31,352.03,27.62,348.41,27.62 M294.86,14.01V28.5h9.66
		c3.54,0,6.44-3.14,6.44-7.25s-2.9-7.25-6.44-7.25H294.86 M567.58,14.49c-3.95,0-7.25-3.3-7.25-7.25S563.63,0,567.58,0
		c3.94,0,7.25,3.3,7.25,7.25S571.52,14.49,567.58,14.49 M618.95,14.49c-3.94,0-7.25-3.3-7.25-7.25S615,0,618.95,0
		c3.95,0,7.25,3.3,7.25,7.25S622.89,14.49,618.95,14.49 M325.46,58.3h-13.85l-10.63-18.52h-6.12V58.3h-12.88V1.93h22.55
		c10.71,0,19.33,8.62,19.33,19.32c0,6.92-4.19,13.21-10.39,16.35L325.46,58.3 M553.25,58.3h-12.08V35.35c0-4.99-3.14-7.33-7.01-7.33
		c-4.43,0-7.49,2.58-7.49,8.29V58.3H514.6V18.04h12.08v3.78c2.17-2.98,6.2-4.91,11.51-4.91c8.13,0,15.06,5.8,15.06,16.67V58.3
		 M573.62,58.3h-12.08V18.04h12.08V58.3 M624.99,58.3h-12.08V18.04h12.08V58.3 M720,58.3h-12.08V35.35c0-4.99-3.14-7.33-7.01-7.33
		c-4.43,0-7.49,2.58-7.49,8.29V58.3h-12.08V18.04h12.08v3.78c2.17-2.98,6.2-4.91,11.52-4.91c8.13,0,15.06,5.8,15.06,16.67V58.3
		 M600.6,58.6c-11.41,0-14.91-4.87-14.91-14.72V29.63h-6.44V18.04h6.44v-7.65l12.08-3.62v11.27h8.29v11.59h-8.29v14.25
		c0,2.82,1.98,3.56,5.6,3.56c0.82,0,1.72-0.04,2.7-0.1V58.3C604.07,58.5,602.26,58.6,600.6,58.6 M349.37,59.42
		c-13.77,0-22.3-9.26-22.3-21.26s8.7-21.26,21.42-21.26c11.76,0,20.45,9.1,20.45,21.26c0,1.69-0.16,3.3-0.48,4.83h-28.58
		c1.53,4.19,5.23,5.64,9.66,5.64c3.3,0,6.12-1.29,7.73-3.06l9.66,5.56C362.98,56.61,357.02,59.42,349.37,59.42 M394.7,59.42
		c-12.24,0-21.34-9.26-21.34-21.26s9.1-21.26,21.34-21.26c7.81,0,14.74,4.11,18.2,10.31l-10.55,6.12c-1.37-2.82-4.27-4.51-7.81-4.51
		c-5.23,0-9.1,3.78-9.1,9.34s3.86,9.34,9.1,9.34c3.54,0,6.52-1.69,7.81-4.51l10.55,6.04C409.44,55.32,402.6,59.42,394.7,59.42
		 M436.25,59.42c-11.84,0-21.34-9.26-21.34-21.26s9.5-21.26,21.34-21.26c11.84,0,21.34,9.26,21.34,21.26S448.09,59.42,436.25,59.42
		 M653.17,59.42c-11.84,0-21.34-9.26-21.34-21.26s9.5-21.26,21.34-21.26c11.84,0,21.34,9.26,21.34,21.26S665.01,59.42,653.17,59.42"
		/>
	<path class="st1" d="M22.55,59.42c12.24,0,20.94-6.44,20.94-17.31c0-11.92-9.58-14.9-18.12-17.47c-8.78-2.66-10.15-4.43-10.15-7.01
		c0-2.25,2.01-4.27,6.04-4.27c5.15,0,7.81,2.5,9.74,6.52l10.87-6.36C37.76,5.23,30.52,0.81,21.26,0.81
		c-9.74,0-18.92,6.28-18.92,17.15c0,10.79,8.21,14.82,16.59,17.15c8.45,2.34,11.68,3.7,11.68,7.17c0,2.17-1.53,4.59-7.65,4.59
		c-6.36,0-9.82-3.14-11.84-7.81L0,45.49C3.14,53.79,10.71,59.42,22.55,59.42L22.55,59.42z M73.59,16.91c-5.39,0-9.34,1.85-12,4.91
		v-3.78H49.52V74.4H61.6V54.51c2.66,3.06,6.6,4.91,12,4.91c10.55,0,19.24-9.26,19.24-21.26C92.84,26.17,84.14,16.91,73.59,16.91
		L73.59,16.91z M71.18,47.99c-5.56,0-9.58-3.78-9.58-9.82s4.03-9.82,9.58-9.82s9.58,3.78,9.58,9.82S76.73,47.99,71.18,47.99
		L71.18,47.99z M110.47,43h28.59c0.32-1.53,0.48-3.14,0.48-4.83c0-12.16-8.7-21.26-20.45-21.26c-12.72,0-21.42,9.26-21.42,21.26
		c0,12,8.54,21.26,22.3,21.26c7.65,0,13.61-2.82,17.55-8.29l-9.66-5.56c-1.61,1.77-4.43,3.06-7.73,3.06
		C115.7,48.63,112,47.18,110.47,43L110.47,43z M110.23,33.98c1.13-4.11,4.19-6.36,8.78-6.36c3.62,0,7.25,1.69,8.54,6.36H110.23
		L110.23,33.98z M156.77,43h28.58c0.32-1.53,0.48-3.14,0.48-4.83c0-12.16-8.7-21.26-20.45-21.26c-12.72,0-21.42,9.26-21.42,21.26
		c0,12,8.54,21.26,22.3,21.26c7.65,0,13.61-2.82,17.55-8.29l-9.66-5.56c-1.61,1.77-4.43,3.06-7.73,3.06
		C162,48.63,158.3,47.18,156.77,43L156.77,43z M156.53,33.98c1.13-4.11,4.19-6.36,8.78-6.36c3.62,0,7.25,1.69,8.54,6.36H156.53
		L156.53,33.98z M211.6,59.42c7.89,0,14.73-4.11,18.2-10.39L219.25,43c-1.29,2.82-4.27,4.51-7.81,4.51c-5.23,0-9.1-3.78-9.1-9.34
		s3.87-9.34,9.1-9.34c3.54,0,6.44,1.69,7.81,4.51l10.55-6.12c-3.46-6.2-10.39-10.31-18.2-10.31c-12.24,0-21.34,9.26-21.34,21.26
		C190.27,50.16,199.36,59.42,211.6,59.42L211.6,59.42z M258.23,16.91c-5.31,0-9.34,1.93-11.51,4.91V1.93h-12.08V58.3h12.08V36.31
		c0-5.72,3.06-8.29,7.49-8.29c3.86,0,7,2.34,7,7.33V58.3h12.08V33.58C273.28,22.71,266.36,16.91,258.23,16.91L258.23,16.91z"/>
</g>
</svg>
