<?xml version="1.0" encoding="utf-8"?>
<!-- Generator: Adobe Illustrator 24.1.0, SVG Export Plug-In . SVG Version: 6.00 Build 0)  -->
<svg version="1.1" id="Layer_1" xmlns="http://www.w3.org/2000/svg" xmlns:xlink="http://www.w3.org/1999/xlink" x="0px" y="0px"
	 viewBox="0 0 720 75.53" style="enable-background:new 0 0 720 75.53;" xml:space="preserve">
<style type="text/css">
	.st0{fill:#97999B;}
	.st1{fill:#484848;}
</style>
<g>
	<path class="st0" d="M311.61,58.3h13.85l-12-20.69c6.2-3.14,10.39-9.42,10.39-16.35c0-10.71-8.62-19.32-19.33-19.32h-22.55V58.3
		h12.88V39.78h6.12L311.61,58.3L311.61,58.3z M294.86,14.01h9.66c3.54,0,6.44,3.14,6.44,7.25s-2.9,7.25-6.44,7.25h-9.66V14.01
		L294.86,14.01z M339.87,43h28.58c0.32-1.53,0.48-3.14,0.48-4.83c0-12.16-8.7-21.26-20.45-21.26c-12.72,0-21.42,9.26-21.42,21.26
		c0,12,8.54,21.26,22.3,21.26c7.65,0,13.61-2.82,17.55-8.29l-9.66-5.56c-1.61,1.77-4.43,3.06-7.73,3.06
		C345.11,48.63,341.4,47.18,339.87,43L339.87,43z M339.63,33.98c1.13-4.11,4.19-6.36,8.78-6.36c3.62,0,7.25,1.69,8.54,6.36H339.63
		L339.63,33.98z M394.7,59.42c7.89,0,14.74-4.11,18.2-10.39L402.35,43c-1.29,2.82-4.27,4.51-7.81,4.51c-5.23,0-9.1-3.78-9.1-9.34
		s3.86-9.34,9.1-9.34c3.54,0,6.44,1.69,7.81,4.51l10.55-6.12c-3.46-6.2-10.39-10.31-18.2-10.31c-12.24,0-21.34,9.26-21.34,21.26
		C373.37,50.16,382.47,59.42,394.7,59.42L394.7,59.42z M436.25,59.42c11.84,0,21.34-9.26,21.34-21.26c0-12-9.5-21.26-21.34-21.26
		c-11.84,0-21.34,9.26-21.34,21.26C414.92,50.16,424.42,59.42,436.25,59.42L436.25,59.42z M436.25,47.67c-5.23,0-9.26-3.78-9.26-9.5
		s4.03-9.5,9.26-9.5c5.23,0,9.26,3.78,9.26,9.5S441.49,47.67,436.25,47.67L436.25,47.67z M493.98,18.04v4.11
		c-2.66-3.3-6.52-5.23-11.76-5.23c-11.43,0-19.81,9.34-19.81,20.45c0,11.11,8.37,20.45,19.81,20.45c5.23,0,9.1-1.93,11.76-5.23v3.7
		c0,5.72-3.46,8.62-9.1,8.62c-5.31,0-7.65-2.25-9.18-5.07l-10.31,5.96c3.7,6.6,10.71,9.74,19.08,9.74
		c10.71,0,21.26-5.72,21.26-19.24V18.04H493.98L493.98,18.04z M484.24,46.7c-5.72,0-9.74-3.78-9.74-9.34c0-5.56,4.03-9.34,9.74-9.34
		c5.72,0,9.74,3.78,9.74,9.34C493.98,42.92,489.96,46.7,484.24,46.7L484.24,46.7z M538.19,16.91c-5.31,0-9.34,1.93-11.51,4.91v-3.78
		H514.6V58.3h12.08V36.31c0-5.72,3.06-8.29,7.49-8.29c3.86,0,7.01,2.34,7.01,7.33V58.3h12.08V33.58
		C553.25,22.71,546.32,16.91,538.19,16.91L538.19,16.91z M567.58,14.49c3.94,0,7.25-3.3,7.25-7.25c0-3.95-3.3-7.25-7.25-7.25
		c-3.95,0-7.25,3.3-7.25,7.25C560.33,11.19,563.63,14.49,567.58,14.49L567.58,14.49z M561.54,58.3h12.08V18.04h-12.08V58.3
		L561.54,58.3z M606.07,29.63V18.04h-8.29V6.76l-12.08,3.62v7.65h-6.44v11.59h6.44v14.25c0,11.27,4.59,16.02,20.37,14.41V47.35
		c-5.31,0.32-8.29,0-8.29-3.46V29.63H606.07L606.07,29.63z M618.95,14.49c3.95,0,7.25-3.3,7.25-7.25c0-3.95-3.3-7.25-7.25-7.25
		c-3.94,0-7.25,3.3-7.25,7.25C611.7,11.19,615,14.49,618.95,14.49L618.95,14.49z M612.91,58.3h12.08V18.04h-12.08V58.3L612.91,58.3z
		 M653.17,59.42c11.84,0,21.34-9.26,21.34-21.26c0-12-9.5-21.26-21.34-21.26c-11.84,0-21.34,9.26-21.34,21.26
		C631.83,50.16,641.33,59.42,653.17,59.42L653.17,59.42z M653.17,47.67c-5.23,0-9.26-3.78-9.26-9.5s4.03-9.5,9.26-9.5
		s9.26,3.78,9.26,9.5S658.4,47.67,653.17,47.67L653.17,47.67z M704.94,16.91c-5.32,0-9.34,1.93-11.52,4.91v-3.78h-12.08V58.3h12.08
		V36.31c0-5.72,3.06-8.29,7.49-8.29c3.86,0,7.01,2.34,7.01,7.33V58.3H720V33.58C720,22.71,713.07,16.91,704.94,16.91L704.94,16.91z"
		/>
	<path class="st1" d="M22.55,59.42c12.24,0,20.94-6.44,20.94-17.31c0-11.92-9.58-14.9-18.12-17.47c-8.78-2.66-10.15-4.43-10.15-7.01
		c0-2.25,2.01-4.27,6.04-4.27c5.15,0,7.81,2.5,9.74,6.52l10.87-6.36C37.76,5.23,30.52,0.81,21.26,0.81
		c-9.74,0-18.92,6.28-18.92,17.15c0,10.79,8.21,14.82,16.59,17.15c8.45,2.34,11.68,3.7,11.68,7.17c0,2.17-1.53,4.59-7.65,4.59
		c-6.36,0-9.82-3.14-11.84-7.81L0,45.49C3.14,53.79,10.71,59.42,22.55,59.42L22.55,59.42z M73.59,16.91c-5.39,0-9.34,1.85-12,4.91
		v-3.78H49.52V74.4H61.6V54.51c2.66,3.06,6.6,4.91,12,4.91c10.55,0,19.24-9.26,19.24-21.26C92.84,26.17,84.14,16.91,73.59,16.91
		L73.59,16.91z M71.18,47.99c-5.56,0-9.58-3.78-9.58-9.82s4.03-9.82,9.58-9.82s9.58,3.78,9.58,9.82S76.73,47.99,71.18,47.99
		L71.18,47.99z M110.47,43h28.59c0.32-1.53,0.48-3.14,0.48-4.83c0-12.16-8.7-21.26-20.45-21.26c-12.72,0-21.42,9.26-21.42,21.26
		c0,12,8.54,21.26,22.3,21.26c7.65,0,13.61-2.82,17.55-8.29l-9.66-5.56c-1.61,1.77-4.43,3.06-7.73,3.06
		C115.7,48.63,112,47.18,110.47,43L110.47,43z M110.23,33.98c1.13-4.11,4.19-6.36,8.78-6.36c3.62,0,7.25,1.69,8.54,6.36H110.23
		L110.23,33.98z M156.77,43h28.58c0.32-1.53,0.48-3.14,0.48-4.83c0-12.16-8.7-21.26-20.45-21.26c-12.72,0-21.42,9.26-21.42,21.26
		c0,12,8.54,21.26,22.3,21.26c7.65,0,13.61-2.82,17.55-8.29l-9.66-5.56c-1.61,1.77-4.43,3.06-7.73,3.06
		C162,48.63,158.3,47.18,156.77,43L156.77,43z M156.53,33.98c1.13-4.11,4.19-6.36,8.78-6.36c3.62,0,7.25,1.69,8.54,6.36H156.53
		L156.53,33.98z M211.6,59.42c7.89,0,14.73-4.11,18.2-10.39L219.25,43c-1.29,2.82-4.27,4.51-7.81,4.51c-5.23,0-9.1-3.78-9.1-9.34
		s3.87-9.34,9.1-9.34c3.54,0,6.44,1.69,7.81,4.51l10.55-6.12c-3.46-6.2-10.39-10.31-18.2-10.31c-12.24,0-21.34,9.26-21.34,21.26
		C190.27,50.16,199.36,59.42,211.6,59.42L211.6,59.42z M258.23,16.91c-5.31,0-9.34,1.93-11.52,4.91V1.93h-12.08V58.3h12.08V36.31
		c0-5.72,3.06-8.29,7.49-8.29c3.86,0,7,2.34,7,7.33V58.3h12.08V33.58C273.28,22.71,266.36,16.91,258.23,16.91L258.23,16.91z"/>
</g>
</svg>
