<?xml version="1.0" encoding="UTF-8"?>
<svg id="Layer_1" xmlns="http://www.w3.org/2000/svg" version="1.1" viewBox="0 0 539.9999 539.9999">
  <!-- Generator: Adobe Illustrator 29.4.0, SVG Export Plug-In . SVG Version: 2.1.0 Build 152)  -->
  <defs>
    <style>
      .st0 {
        fill: #fff;
      }
    </style>
  </defs>
  <path class="st0" d="M539.9999,477.6079V62.3917c0-34.4578-27.933-62.3917-62.391-62.3917h-57.528c22.146,7.2089,38.177,28.1449,38.177,52.8775,0,24.9334-16.283,46.0324-38.709,53.0734v328.099c22.426,7.042,38.709,28.14,38.709,53.0741,0,24.7329-16.031,45.667-38.177,52.876h57.528c34.458,0,62.391-27.933,62.391-62.392h0Z"/>
  <path class="st0" d="M167.8269,0H62.3917C27.9339.0005,0,27.9339,0,62.3917v328.6752L145.0419,91.3429c-9.513-9.987-15.391-23.524-15.391-38.4654,0-24.7326,16.03-45.6686,38.176-52.8775h0Z"/>
  <path class="st0" d="M.5065,485.1938c3.7497,30.873,30.0005,54.8061,61.8852,54.8061h323.8232c-22.145-7.209-38.176-28.143-38.176-52.876,0-14.9171,5.911-28.385,15.396-38.368L197.9509,106.7849c-4.233,1.05-8.636,1.669-13.191,1.669-3.753,0-7.417-.385-10.959-1.106L.5065,465.4079v19.7859h0Z"/>
  <path class="st0" d="M226.1079,89.5349l160.637,331.962V105.9509c-22.425-7.042-38.706-28.14-38.706-53.0734,0-24.7326,16.031-45.6686,38.176-52.8775h-184.522c22.146,7.2089,38.176,28.1449,38.176,52.8775,0,14.0634-5.221,26.8694-13.761,36.6574h0Z"/>
</svg>