<?xml version="1.0" encoding="utf-8"?>
<!-- Generator: Adobe Illustrator 26.0.2, SVG Export Plug-In . SVG Version: 6.00 Build 0)  -->
<svg version="1.1" id="Layer_1" xmlns="http://www.w3.org/2000/svg" xmlns:xlink="http://www.w3.org/1999/xlink" x="0px" y="0px"
	 viewBox="0 0 910.3 176" style="enable-background:new 0 0 910.3 176;" xml:space="preserve">
<style type="text/css">
	.st0{fill:#00B5E2;}
	.st1{fill:#A7A8A9;}
</style>
<g>
	<path class="st0" d="M696.9,57.5V35.9c0-21.6-15.2-33.9-41.3-33.9h-45v172.1h44.5c26.1,0,42.8-12.3,42.8-33.9v-28.3
		c0-13.3-5.2-24.8-20.2-27.3C691.5,82.9,696.9,69.8,696.9,57.5L696.9,57.5z M639.2,26.6h16c8.1,0,13.3,4.2,13.3,13.3v19.9
		c0,9.1-5.2,13.3-13.3,13.3h-16V26.6L639.2,26.6z M669.4,110.4v25.8c0,9.1-5.2,13.3-13.3,13.3h-17V97.1h17
		C664.2,97.1,669.4,101.3,669.4,110.4L669.4,110.4z M720.5,36.4v103.3c0,26.1,17.2,36.4,43.3,36.4h2c26.1,0,43.3-10.3,43.3-36.4
		V36.4C809,10.3,791.8,0,765.8,0h-2C737.7,0,720.5,10.1,720.5,36.4L720.5,36.4z M749.1,135.2V40.8c0-12.3,6.4-15.7,15.7-15.7
		c9.3,0,15.7,3.4,15.7,15.7v94.4c0,12.3-6.4,15.7-15.7,15.7C755.4,151,749.1,147.5,749.1,135.2L749.1,135.2z M910.3,2h-86.1V27h28.8
		v147h28.5V27h28.8V2L910.3,2z"/>
	<path class="st1" d="M85.1,63.4v-28C85.1,9.8,66.4,0,42.8,0h-0.5C18.7,0,0,9.8,0,35.4V58C0,76,9.6,83.8,26.3,93.4l19.9,11.3
		c8.6,4.7,11.3,9.1,11.3,17.9v13.5c0,10.6-6.1,15.2-14.8,15.2c-8.6,0-14.8-4.7-14.8-15.2v-26.1H0v30C0,166.9,16.5,176,42.5,176H43
		c26.1,0,42.5-9.3,42.5-35.9v-24.8c0-18.4-9.8-26.1-26.3-35.4L39.1,68.6C31,63.9,28,60,28,51.1V39.3c0-10.8,6.1-14.8,14.5-14.8
		c8.4,0,14.5,3.9,14.5,14.8v24.1H85.1L85.1,63.4z"/>
	<path class="st1" d="M196.4,71.1V38.4c0-26.1-17.2-36.4-43.3-36.4h-44.5v172.1h28.5v-66.6h16C179.2,107.4,196.4,97.1,196.4,71.1
		L196.4,71.1z M167.9,66.6c0,12.3-6.4,15.7-15.7,15.7h-15V27h15c9.3,0,15.7,3.4,15.7,15.7V66.6L167.9,66.6z"/>
	<path class="st1" d="M304.9,69.1V38.4c0-26.1-17.2-36.4-43.3-36.4h-44.5v172.1h28.5v-68.6h14.3l21.9,68.6h29l-24.6-73
		C298,95.9,304.9,85.6,304.9,69.1L304.9,69.1z M276.4,65.2c0,12.3-6.4,15.7-15.7,15.7h-15V27h15c9.3,0,15.7,3.4,15.7,15.7V65.2
		L276.4,65.2z"/>
	<polygon class="st1" points="351.7,174.1 351.7,2 323.2,2 323.2,117.4 342.8,174.1 351.7,174.1 	"/>
	<polygon class="st1" points="405.8,174.1 405.8,62.2 443.5,174.1 470.5,174.1 470.5,2 444.4,2 444.4,108.4 408.3,2 379.8,2 
		379.8,174.1 405.8,174.1 	"/>
	<path class="st1" d="M585.1,85.6h-45.2v24.1h16.7v25.6c0,12.3-6.4,15.7-15.7,15.7s-15.7-3.4-15.7-15.7V40.8
		c0-12.3,6.4-15.7,15.7-15.7s15.7,3.4,15.7,15.7V61h28.5V36.4c0-25.6-17.2-36.4-43.3-36.4h-2c-26.1,0-43.3,10.8-43.3,36.4v103.3
		c0,26.8,17.2,36.4,43.3,36.4h2c26.1,0,43.3-9.8,43.3-36.4V85.6L585.1,85.6z"/>
</g>
</svg>
