<?xml version="1.0" encoding="utf-8"?>
<!-- Generator: Adobe Illustrator 25.4.1, SVG Export Plug-In . SVG Version: 6.00 Build 0)  -->
<svg version="1.1" id="Layer_1" xmlns="http://www.w3.org/2000/svg" xmlns:xlink="http://www.w3.org/1999/xlink" x="0px" y="0px"
	 viewBox="0 0 539.7 539.7" style="enable-background:new 0 0 539.7 539.7;" xml:space="preserve">
<style type="text/css">
	.st0{fill:#0B1F41;}
	.st1{fill:#5297C9;}
	.st2{fill:#1670A0;}
	.st3{fill:#2089C1;}
	.st4{fill:#0880B7;}
	.st5{fill:#FFFFFF;}
	.st6{fill:#F05323;}
	.st7{fill:#F58220;}
	.st8{clip-path:url(#SVGID_00000124161116565041784670000005956183939505081221_);fill:#0586BF;}
	.st9{fill:#A7C3E0;}
</style>
<g>
	<path class="st0" d="M539.7,269.9C539.7,120.8,418.9,0,269.9,0S0,120.8,0,269.9c0,81.5,36.2,154.5,93.3,204
		c89.9-30.4,161.6-73.4,176.5-186.4c0,0,70.9,131.2-65.4,244.2c20.9,5.2,42.8,8,65.4,8C418.9,539.7,539.7,418.9,539.7,269.9"/>
	<path class="st1" d="M269.9,539.7C269.9,539.7,269.9,539.7,269.9,539.7C269.9,539.7,269.9,539.7,269.9,539.7c0,0,0.1,0,0.1,0
		C269.9,539.7,269.9,539.7,269.9,539.7 M270,539.7C270,539.7,270,539.7,270,539.7L270,539.7C270,539.7,270,539.7,270,539.7
		 M270,539.7C270.1,539.7,270.1,539.7,270,539.7C270.1,539.7,270.1,539.7,270,539.7C270.1,539.7,270.1,539.7,270,539.7 M270.1,539.7
		C270.1,539.7,270.2,539.7,270.1,539.7C270.2,539.7,270.1,539.7,270.1,539.7 M270.2,539.7L270.2,539.7
		C270.2,539.7,270.3,539.7,270.2,539.7C270.3,539.7,270.2,539.7,270.2,539.7 M270.3,539.7C270.4,539.7,270.4,539.7,270.3,539.7
		C270.4,539.7,270.4,539.7,270.3,539.7 M270.4,539.7C270.5,539.7,270.5,539.7,270.4,539.7C270.5,539.7,270.5,539.7,270.4,539.7
		 M270.6,539.7C270.6,539.7,270.6,539.7,270.6,539.7C270.6,539.7,270.6,539.7,270.6,539.7 M270.7,539.7
		C270.7,539.7,270.7,539.7,270.7,539.7C270.7,539.7,270.7,539.7,270.7,539.7 M270.8,539.7C270.8,539.7,270.8,539.7,270.8,539.7
		C270.8,539.7,270.8,539.7,270.8,539.7 M270.9,539.7C270.9,539.7,270.9,539.7,270.9,539.7C270.9,539.7,270.9,539.7,270.9,539.7
		 M271,539.7C271,539.7,271,539.7,271,539.7C271,539.7,271,539.7,271,539.7 M271.1,539.7C271.1,539.7,271.1,539.7,271.1,539.7
		C271.1,539.7,271.1,539.7,271.1,539.7 M271.2,539.7C271.2,539.7,271.2,539.7,271.2,539.7C271.2,539.7,271.2,539.7,271.2,539.7
		 M271.3,539.7C271.3,539.7,271.3,539.7,271.3,539.7C271.3,539.7,271.3,539.7,271.3,539.7 M271.4,539.7L271.4,539.7L271.4,539.7
		 M271.5,539.7C271.6,539.7,271.5,539.7,271.5,539.7L271.5,539.7 M93.3,473.9C93.3,473.9,93.3,473.9,93.3,473.9L93.3,473.9
		C93.3,473.9,93.3,473.9,93.3,473.9c89.8-30.4,161.6-73.4,176.5-186.4l0,0C254.9,400.5,183.2,443.5,93.3,473.9"/>
	<path class="st2" d="M269.9,539.7c0.1,0,0.1,0,0.2,0c0,0,0,0,0,0c0,0,0,0,0,0C269.9,539.7,269.9,539.7,269.9,539.7 M270.1,539.7
		c0.1,0,0.1,0,0.2,0c0,0,0,0,0,0C270.2,539.7,270.1,539.7,270.1,539.7C270.1,539.7,270.1,539.7,270.1,539.7
		C270.1,539.7,270.1,539.7,270.1,539.7 M270.2,539.7c29,0,56.9-4.7,83.1-13.2c71.5-141.3-75.3-245.8-83.4-245.9
		c56.8,0,152.6,49,184.9,185.7c-47.9,45.1-112.3,73-183.2,73.4c0,0,0,0,0,0c0,0-0.1,0-0.1,0h0c0,0-0.1,0-0.1,0c0,0,0,0,0,0
		c0,0-0.1,0-0.1,0c0,0,0,0,0,0c0,0,0,0-0.1,0c0,0,0,0,0,0c0,0,0,0-0.1,0c0,0,0,0,0,0c0,0,0,0-0.1,0c0,0,0,0,0,0c0,0,0,0-0.1,0
		c0,0,0,0,0,0c0,0,0,0-0.1,0c0,0,0,0-0.1,0c0,0,0,0,0,0c0,0,0,0-0.1,0c0,0,0,0,0,0c0,0,0,0-0.1,0c0,0,0,0,0,0c0,0,0,0-0.1,0
		C270.3,539.7,270.3,539.7,270.2,539.7C270.3,539.7,270.2,539.7,270.2,539.7 M93.3,473.9c-48.1-41.6-81.2-99.9-90.5-165.9
		c58,16.6,117.1,29.1,165.1,29.1c52.5,0,91.8-15.1,102-56.5C250.4,393.8,118,410.3,49.1,424.8C61.8,442.9,76.6,459.4,93.3,473.9
		L93.3,473.9 M269.9,287.5L269.9,287.5C269.9,287.5,269.9,287.5,269.9,287.5C269.9,287.5,269.9,287.5,269.9,287.5"/>
	<path class="st1" d="M269.9,539.7C269.9,539.7,269.9,539.7,269.9,539.7L269.9,539.7L269.9,539.7
		C269.9,539.7,269.9,539.7,269.9,539.7 M270,539.7C270,539.7,270,539.7,270,539.7C270,539.7,270,539.7,270,539.7 M270.2,539.7
		C270.2,539.7,270.2,539.7,270.2,539.7L270.2,539.7C270.2,539.7,270.2,539.7,270.2,539.7 M220.2,535.1c0,0-0.1,0-0.1,0
		C220.1,535.1,220.2,535.1,220.2,535.1 M220.1,535.1c-5.3-1-10.5-2.1-15.6-3.4l0,0C209.6,533,214.8,534.1,220.1,535.1
		C220.1,535.1,220.1,535.1,220.1,535.1"/>
	<path class="st2" d="M269.9,539.7c-17,0-33.5-1.6-49.6-4.6c0,0-0.1,0-0.1,0l0,0c0,0,0,0,0,0C236.2,538.1,252.8,539.7,269.9,539.7
		L269.9,539.7 M270.2,539.7L270.2,539.7C270.2,539.7,270.2,539.7,270.2,539.7L270.2,539.7 M269.9,280.6L269.9,280.6
		C269.9,280.6,269.9,280.6,269.9,280.6C269.9,280.6,269.9,280.6,269.9,280.6L269.9,280.6"/>
	<path class="st3" d="M269.9,539.7L269.9,539.7L269.9,539.7L269.9,539.7 M270,539.7C270,539.7,270,539.7,270,539.7
		C270.1,539.7,270.1,539.7,270,539.7C270,539.7,270,539.7,270,539.7L270,539.7 M270.2,539.7L270.2,539.7L270.2,539.7L270.2,539.7
		 M220,535.1c-5.2-1-10.4-2.1-15.6-3.4c0,0,0,0,0,0C209.6,533,214.8,534.1,220,535.1 M93.3,473.9C93.3,473.9,93.3,473.9,93.3,473.9
		c89.9-30.4,161.6-73.4,176.5-186.4l0,0C254.9,400.5,183.2,443.5,93.3,473.9"/>
	<path class="st4" d="M269.9,539.7c-17,0-33.7-1.6-49.8-4.6c-5.2-1-10.4-2.1-15.6-3.4c66.8-55.4,83.9-115.2,83.8-161.7
		c0-48.4-18.4-82.5-18.4-82.5l0,0c0,0,0,0,0,0l0,0c-15,113-86.7,156-176.5,186.4c-16.7-14.4-31.5-31-44.2-49
		c68.9-14.6,201.3-31,220.8-144.2c0,0,0,0,0,0c0,0,0,0,0,0c8.1,0.1,154.9,104.6,83.4,245.9c-26.2,8.5-54.1,13.2-83.1,13.2h0h0
		c-0.1,0-0.1,0-0.2,0c0,0,0,0,0,0C270,539.7,269.9,539.7,269.9,539.7L269.9,539.7"/>
	<path class="st5" d="M316.5,131.3c0-36.5-46.6-101.5-46.6-101.5s-46.6,65-46.6,101.5s46.6,104.3,46.6,135.7
		C269.9,235.6,316.5,167.8,316.5,131.3"/>
	<path class="st5" d="M290.2,227c13.8,6.4,34.9,19.5,34.9,39.9c19.6-35.2-4.4-70.4-15.4-83.6C303.4,198,296.1,213.1,290.2,227
		L290.2,227z"/>
	<path class="st5" d="M249.6,227c-13.8,6.4-34.9,19.5-34.9,39.9c-19.6-35.2,4.4-70.4,15.4-83.6C236.4,198,243.6,213.1,249.6,227
		L249.6,227z"/>
	<path class="st6" d="M299.9,282.9c0-16.6-7-30.9-17.1-37.7c-4.9,9.6-12.9,32.4-12.9,42c0-9.8-7.7-33.1-12.1-42.5
		c-10.5,6.5-17.8,21.1-17.8,38.2c0,23.1,24.3,68.4,30,68.4C275.6,351.3,299.9,306,299.9,282.9L299.9,282.9z"/>
	<path class="st7" d="M289.3,280.2c0-10.8-4.5-20.1-11.1-24.4c-3.2,6.2-8.4,21-8.4,27.3c0-6.3-5-21.4-7.9-27.6
		c-6.8,4.2-11.6,13.7-11.6,24.8c0,15,15.8,44.4,19.4,44.4C273.5,324.5,289.3,295.2,289.3,280.2L289.3,280.2z"/>
	<path class="st5" d="M296.2,72.4l-62,18.9c-6.3,14.2-10.9,28.5-10.9,39.9c0,17.9,11.2,43.4,22.7,68.4l55.4-16.9
		c8.3-19.2,15.1-37.6,15.1-51.4C316.5,114.7,306.8,92.1,296.2,72.4"/>
	<g>
		<defs>
			<path id="SVGID_1_" d="M296.2,72.4l-62,18.9c-6.3,14.2-10.9,28.5-10.9,39.9c0,17.9,11.2,43.4,22.7,68.4l55.4-16.9
				c8.3-19.2,15.1-37.6,15.1-51.4C316.5,114.7,306.8,92.1,296.2,72.4"/>
		</defs>
		<clipPath id="SVGID_00000147211780175586010360000012104968695919060630_">
			<use xlink:href="#SVGID_1_"  style="overflow:visible;"/>
		</clipPath>
		<polyline style="clip-path:url(#SVGID_00000147211780175586010360000012104968695919060630_);fill:#0586BF;" points="196.9,102.8 
			228.2,205.1 336.9,171.9 305.6,69.6 196.9,102.8 		"/>
	</g>
	<polyline class="st5" points="285.1,97.9 285.1,110 254.7,119.7 254.7,107.7 285.1,97.9 285.1,97.9 	"/>
	<polyline class="st5" points="254.7,127.3 254.7,148.7 266.5,148.7 266.5,135.6 285.1,129.6 285.1,117.6 254.7,127.3 	"/>
	<polygon class="st5" points="243.4,160.6 252.4,160.6 252.4,163 246,163 246,165.5 251.6,165.5 251.6,167.9 246,167.9 246,172.5 
		243.4,172.5 243.4,160.6 	"/>
	<polygon class="st5" points="254.7,160.6 257.3,160.6 257.3,172.5 254.7,172.5 254.7,160.6 	"/>
	<polygon class="st5" points="260.3,160.6 262.7,160.6 268.2,167.9 268.2,160.6 270.8,160.6 270.8,172.5 268.6,172.5 262.9,164.9 
		262.9,172.5 260.3,172.5 260.3,160.6 	"/>
	<path class="st5" d="M287,170.7l1.5-1.8c1,0.9,2.2,1.4,3.5,1.4c1.1,0,1.7-0.4,1.7-1.1v0c0-0.7-0.4-1-2.4-1.5
		c-2.4-0.6-3.9-1.3-3.9-3.6v0c0-2.1,1.7-3.6,4.1-3.6c1.6,0,3.2,0.5,4.4,1.5l-1.4,2c-1.1-0.7-2.1-1.2-3.1-1.2c-1,0-1.5,0.5-1.5,1v0
		c0,0.8,0.5,1,2.6,1.6c2.4,0.6,3.8,1.5,3.8,3.6v0c0,2.4-1.8,3.7-4.4,3.7C290.2,172.6,288.4,172,287,170.7L287,170.7z"/>
	<path class="st5" d="M273.1,166.6L273.1,166.6c0-3.4,2.7-6.1,6.3-6.1s6.3,2.7,6.3,6.1v0c0,3.4-2.7,6.1-6.3,6.1
		C275.7,172.7,273.1,169.9,273.1,166.6L273.1,166.6z M282.9,166.6L282.9,166.6c0.1-2-1.5-3.7-3.5-3.8l-0.1,0c-2.1,0-3.6,1.7-3.6,3.7
		v0c-0.1,2,1.5,3.7,3.5,3.7l0.1,0C281.5,170.3,282.9,168.6,282.9,166.6L282.9,166.6z"/>
	<polyline class="st9" points="266.4,123.6 254.7,119.8 254.7,119.8 254.7,119.8 254.7,119.7 273.4,113.7 285.1,117.5 285.1,117.5 
		285.1,117.5 285.1,117.6 266.4,123.6 	"/>
</g>
</svg>
