<?xml version="1.0" encoding="utf-8"?>
<!-- Generator: Adobe Illustrator 24.1.0, SVG Export Plug-In . SVG Version: 6.00 Build 0)  -->
<svg version="1.1" id="Layer_1" xmlns="http://www.w3.org/2000/svg" xmlns:xlink="http://www.w3.org/1999/xlink" x="0px" y="0px"
	 viewBox="0 0 748.77 341.8" style="enable-background:new 0 0 748.77 341.8;" xml:space="preserve">
<style type="text/css">
	.st0{fill:#3E4556;}
	.st1{fill:#111F32;}
	.st2{fill:#00011C;}
	.st3{fill:#6D7181;}
	.st4{fill:#00000A;}
</style>
<g>
	<path class="st0" d="M748.77,341.8H625.86c-20.04,0-56.26-31.39-98.23-75.05c10.69,0,26.66,0,50.88,0
		C651.36,266.75,748.77,341.8,748.77,341.8"/>
	<path class="st0" d="M238.02,75.05c-16.32,0-38.43,0-67.76,0C97.41,75.05,0,0,0,0h122.95h17.62l0,0h0l0,0c-12.41,0-17.66,0-17.66,0
		s6.83,0,17.66,0l0,0c0.02,0,0.04,0,0.06,0c0.01,0,0.01,0,0.02,0c0.01,0,0.02,0,0.04,0c0.01,0,0.01,0,0.02,0c0.01,0,0.03,0,0.04,0
		c0.01,0,0.01,0,0.02,0c0.01,0,0.03,0,0.04,0c0.01,0,0.01,0,0.02,0c0.02,0,0.04,0,0.06,0c0,0,0,0,0.01,0c0.02,0,0.03,0,0.05,0
		c0,0,0.01,0,0.02,0c0.01,0,0.03,0,0.04,0c0.01,0,0.01,0,0.02,0c0.02,0,0.03,0,0.05,0c0.01,0,0.01,0,0.01,0
		C162.17,0.5,197.47,31.74,238.02,75.05 M273.32,0.13C272.75,0.05,272.2,0,271.67,0c0,0,0,0,0,0h1.65V0.13"/>
	<path class="st1" d="M625.86,341.8c-41.79,0-73.84,0-131.1,0c-57.13,0-283.57-340.17-353.69-341.79c0,0-0.01,0-0.01,0
		c-0.01,0-0.04,0-0.05,0C141.01,0,141,0,141,0c-0.01,0-0.03,0-0.04,0c-0.01,0-0.01,0-0.02,0c-0.02,0-0.03,0-0.05,0
		c0,0-0.01,0-0.01,0c-0.02,0-0.04,0-0.06,0c-0.01,0-0.01,0-0.02,0c-0.01,0-0.03,0-0.04,0c-0.01,0-0.01,0-0.02,0
		c-0.01,0-0.03,0-0.04,0c-0.01,0-0.01,0-0.02,0c-0.01,0-0.02,0-0.04,0c-0.01,0-0.01,0-0.02,0c-0.02,0-0.04,0-0.06,0c0,0,0,0,0,0
		c32.94,0,102.95,0,131.1,0l0,0c0.49,0,1.12,0.26,1.65,0.33v-0.2C322.76,7.8,560.4,341.8,625.86,341.8"/>
	<path class="st2" d="M273.32,0.33C272.79,0.26,272.16,0,271.68,0c0.52,0,1.07,0.05,1.65,0.13V0.33 M141.07,0.01
		C141.07,0.01,141.07,0.01,141.07,0.01C141.07,0.01,141.07,0.01,141.07,0.01 M141.01,0C141,0,141.01,0,141,0
		C141,0,141.01,0,141.01,0 M140.95,0c0,0-0.01,0-0.02,0C140.94,0,140.95,0,140.95,0 M140.89,0C140.88,0,140.88,0,140.89,0
		C140.88,0,140.89,0,140.89,0 M140.82,0c-0.01,0-0.01,0-0.02,0C140.81,0,140.82,0,140.82,0 M140.77,0c-0.01,0-0.01,0-0.02,0
		C140.75,0,140.76,0,140.77,0 M140.71,0c-0.01,0-0.01,0-0.02,0C140.69,0,140.7,0,140.71,0 M140.65,0c-0.01,0-0.01,0-0.02,0
		C140.64,0,140.64,0,140.65,0 M140.57,0L140.57,0L140.57,0L140.57,0 M140.57,0c-10.84,0-17.66,0-17.66,0S128.16,0,140.57,0L140.57,0
		"/>
	<path class="st3" d="M122.91,341.8H0c0,0,97.41-75.05,170.26-75.05c24.22,0,40.19,0,50.88,0
		C179.17,310.41,142.95,341.8,122.91,341.8"/>
	<path class="st3" d="M578.51,75.05c-29.33,0-51.44,0-67.76,0C551.62,31.39,587.15,0,608.2,0h17.62h122.95
		C748.77,0,651.36,75.05,578.51,75.05 M475.45,0.33V0h1.65C476.61,0,475.98,0.26,475.45,0.33"/>
	<path class="st4" d="M122.91,341.8c41.79,0,73.84,0,131.1,0C311.28,341.8,538.66,0,608.2,0s-85.56,0-131.1,0
		C431.55,0,189.12,341.8,122.91,341.8L122.91,341.8z"/>
</g>
</svg>
