<?xml version="1.0" encoding="utf-8"?>
<!-- Generator: Adobe Illustrator 24.1.0, SVG Export Plug-In . SVG Version: 6.00 Build 0)  -->
<svg version="1.1" id="Layer_1" xmlns="http://www.w3.org/2000/svg" xmlns:xlink="http://www.w3.org/1999/xlink" x="0px" y="0px"
	 viewBox="0 0 864 864" style="enable-background:new 0 0 864 864;" xml:space="preserve">
<style type="text/css">
	.st0{fill:#FFFFFF;}
</style>
<g>
	<path class="st0" d="M755,432c0-162.64-119.85-297.26-276.04-320.44v125.61h68.92c1.36-5.16,5.85-9.04,11.44-9.04
		c6.66,0,12.05,5.39,12.05,12.05c0,6.66-5.39,12.05-12.05,12.05c-5.59,0-10.08-3.88-11.44-9.04h-74.95v-132.4
		C459.2,109.02,445.22,108,431,108c-9.52,0-18.89,0.62-28.2,1.42v203.02c0,0,18.43,0,28.2,0c66.03,0,119.56,53.53,119.56,119.56
		S497.03,551.56,431,551.56c-9.76,0-28.2-0.02-28.2-0.02v203.04c9.31,0.8,18.68,1.42,28.2,1.42c107.38,0,202.52-52.28,261.47-132.73
		v-54.76H557.04v68.46h-92.3c-1.36,5.16-5.85,9.04-11.44,9.04c-6.66,0-12.05-5.39-12.05-12.05c0-6.66,5.39-12.05,12.05-12.05
		c5.59,0,10.08,3.88,11.44,9.03h86.28v-68.46h147.48v52.31c32.14-46.94,52.22-102.75,55.85-163.02c0.1-2.47,0.1-4.69,0.1-4.69
		l-129.69-0.03V312.53c-5.16-1.36-9.04-5.85-9.04-11.44c0-6.66,5.39-12.05,12.05-12.05c6.66,0,12.05,5.39,12.05,12.05
		c0,5.59-3.88,10.08-9.04,11.44v128.51l124.11,0.05C754.89,441.09,755,433.24,755,432L755,432z"/>
	<path class="st0" d="M290.57,506.82V140.36c-27.06,13.06-52.03,29.75-74.28,49.43v179.25c5.16,1.36,9.04,5.85,9.04,11.44
		c0,6.66-5.39,12.05-12.05,12.05s-12.05-5.39-12.05-12.05c0-5.59,3.88-10.08,9.04-11.44V195.49C146.84,254.53,107,338.49,107,432
		c0,128.55,75.06,239.28,183.57,291.64V512.85h-84.41c-1.36,5.16-5.85,9.04-11.44,9.04c-6.66,0-12.05-5.39-12.05-12.05
		c0-6.66,5.39-12.05,12.05-12.05c5.59,0,10.08,3.88,11.44,9.04H290.57L290.57,506.82z"/>
</g>
</svg>
