<?xml version="1.0" encoding="utf-8"?>
<!-- Generator: Adobe Illustrator 24.1.0, SVG Export Plug-In . SVG Version: 6.00 Build 0)  -->
<svg version="1.1" id="Layer_1" xmlns="http://www.w3.org/2000/svg" xmlns:xlink="http://www.w3.org/1999/xlink" x="0px" y="0px"
	 viewBox="0 0 720 211.54" style="enable-background:new 0 0 720 211.54;" xml:space="preserve">
<style type="text/css">
	.st0{fill:#97999A;}
	.st1{fill:#00B6BC;}
	.st2{fill:#53535A;}
	.st3{fill:#9ED5D9;}
	.st4{fill:#C8C9C6;}
	.st5{fill:#FBE300;}
	.st6{fill:#545C63;}
	.st7{fill:#848C8C;}
	.st8{fill:#DDE5ED;}
	.st9{fill:#545D63;}
	.st10{fill:#ECF0F4;}
	.st11{fill:#9B9CA0;}
</style>
<g>
	<path class="st0" d="M552.32,88.17c-8.32,0-15.14,2.61-20.11,8.07V63.84h-19.36v92.09h18.49v-7.7c4.84,5.83,12.04,8.69,20.98,8.69
		c18.74,0,33.26-13.4,33.26-34.38C585.58,101.57,571.06,88.17,552.32,88.17L552.32,88.17z M548.97,141.04c-9.68,0-17-6.95-17-18.49
		c0-11.54,7.32-18.49,17-18.49s17,6.95,17,18.49C565.97,134.09,558.65,141.04,548.97,141.04L548.97,141.04z M630.26,156.93
		c21.22,0,36.61-14.27,36.61-34.38c0-20.11-15.39-34.38-36.61-34.38s-36.74,14.27-36.74,34.38
		C593.53,142.66,609.04,156.93,630.26,156.93L630.26,156.93z M630.26,141.04c-9.68,0-17.13-6.95-17.13-18.49
		c0-11.54,7.45-18.49,17.13-18.49s17,6.95,17,18.49C647.27,134.09,639.95,141.04,630.26,141.04L630.26,141.04z M714.91,139.06
		c-2.23,1.61-5.09,2.48-7.94,2.48c-5.21,0-8.19-3.1-8.19-8.81v-27.18h16.51V90.65h-16.51V74.39h-19.36v58.58
		c0,15.89,9.06,23.95,24.95,23.95c5.83,0,11.67-1.36,15.64-4.22L714.91,139.06L714.91,139.06z"/>
	<path class="st1" d="M481.7,136.95c8.44,0,15.51-6.7,15.51-15.76c0-9.06-7.07-15.64-15.51-15.64c-8.56,0-15.51,6.58-15.51,15.64
		C466.19,130.24,473.14,136.95,481.7,136.95L481.7,136.95z"/>
	<path class="st0" d="M299.87,156.93c14.03,0,25.07-6.21,29.91-16.88l-15.02-8.19c-3.6,6.45-8.94,9.18-15.02,9.18
		c-9.8,0-17.5-6.83-17.5-18.49s7.7-18.49,17.5-18.49c6.08,0,11.42,2.85,15.02,9.18l15.02-8.07c-4.84-10.92-15.89-17-29.91-17
		c-21.72,0-37.23,14.27-37.23,34.38C262.64,142.66,278.15,156.93,299.87,156.93L299.87,156.93z M364.41,156.93
		c3.35,0,6.7-0.5,10.05-1.61l-0.87-15.02c-1.12,0.62-3.35,1.24-5.46,1.24c-5.34,0-8.32-3.1-8.32-8.81V63.84h-19.36v70
		C340.46,148.74,349.39,156.93,364.41,156.93L364.41,156.93z M431.19,89.16v7.07c-4.84-5.46-11.79-8.07-19.98-8.07
		c-18.87,0-33.39,13.4-33.39,34.38c0,20.98,14.52,34.38,33.39,34.38c8.94,0,16.01-2.86,20.85-8.69v7.7h18.49V89.16H431.19
		L431.19,89.16z M414.56,141.04c-9.68,0-17.13-6.95-17.13-18.49c0-11.54,7.45-18.49,17.13-18.49c9.56,0,17,6.95,17,18.49
		C431.56,134.09,424.11,141.04,414.56,141.04L414.56,141.04z"/>
	<path class="st0" d="M173,194.92v-2.69c0,3.67-2.98,6.65-6.65,6.65H48.41c-3.67,0-6.65-2.98-6.65-6.65v2.69
		c0,9.18,7.44,16.62,16.62,16.62h97.99C165.56,211.54,173,204.1,173,194.92L173,194.92z"/>
	<path class="st2" d="M41.73,158.63c0.1,0.49,0.28,0.99,0.28,1.48c0.02,9.08,0.02,18.16,0,27.24c0,0.57-0.2,1.14-0.3,1.71
		c-3.76-0.43-6.05-2.85-6.14-6.59c-0.05-2.15-0.01-4.29-0.01-6.8c-2.51,0-4.92-0.09-7.32,0.03c-2.17,0.11-3.41-0.8-4.27-2.76
		c-4.81-10.97-9.74-21.9-14.48-32.9c-0.58-1.35-0.66-3.25-0.23-4.66c3-9.91,6.26-19.74,9.28-29.64c0.52-1.7,0.64-3.69,0.33-5.44
		c-1.3-7.43-2.83-14.83-4.27-22.24c2.21-0.45,4.42-0.89,6.64-1.34c1.75,8.48,3.54,16.95,5.22,25.44c0.2,1.03,0,2.22-0.31,3.25
		c-3,9.83-6.02,19.66-9.14,29.46c-0.58,1.83-0.47,3.4,0.27,5.12c3.56,8.29,7.04,16.61,10.55,24.93c1.91,4.53,2.47,4.84,7.71,4.21
		C35.51,164.46,35.18,159.45,41.73,158.63L41.73,158.63z"/>
	<path class="st1" d="M14.85,78.58c8.2,0,14.85-6.86,14.85-15.33c0-8.47-6.65-15.33-14.85-15.33C6.65,47.92,0,54.78,0,63.25
		C0,71.72,6.65,78.58,14.85,78.58"/>
	<path class="st3" d="M18.58,61.97c-3.04,0-5.5-2.48-5.5-5.53c0-3.06,2.46-5.53,5.5-5.53c3.04,0,5.5,2.48,5.5,5.53
		C24.08,59.49,21.62,61.97,18.58,61.97"/>
	<path class="st2" d="M173.03,158.63c-0.1,0.49-0.28,0.99-0.28,1.48c-0.02,9.08-0.02,18.16,0,27.24c0,0.57,0.2,1.14,0.3,1.71
		c3.76-0.43,6.05-2.85,6.14-6.59c0.05-2.15,0.01-4.29,0.01-6.8c2.51,0,4.92-0.09,7.32,0.03c2.17,0.11,3.41-0.8,4.27-2.76
		c4.81-10.97,9.74-21.9,14.48-32.9c0.58-1.35,0.66-3.25,0.23-4.66c-3-9.91-6.26-19.74-9.28-29.64c-0.52-1.7-0.64-3.69-0.33-5.44
		c1.3-7.43,2.83-14.83,4.27-22.24c-2.21-0.45-4.42-0.89-6.64-1.34c-1.75,8.48-3.54,16.95-5.22,25.44c-0.2,1.03,0,2.22,0.31,3.25
		c3,9.83,6.02,19.66,9.14,29.46c0.58,1.83,0.47,3.4-0.27,5.12c-3.56,8.29-7.04,16.61-10.55,24.93c-1.91,4.53-2.47,4.84-7.71,4.21
		C179.25,164.46,179.59,159.45,173.03,158.63L173.03,158.63z"/>
	<path class="st1" d="M199.91,78.58c8.2,0,14.85-6.86,14.85-15.33c0-8.47-6.65-15.33-14.85-15.33c-8.2,0-14.85,6.86-14.85,15.33
		C185.06,71.72,191.71,78.58,199.91,78.58"/>
	<path class="st3" d="M203.64,61.97c-3.04,0-5.5-2.48-5.5-5.53c0-3.06,2.46-5.53,5.5-5.53c3.04,0,5.5,2.48,5.5,5.53
		C209.14,59.49,206.68,61.97,203.64,61.97"/>
	<path class="st4" d="M104.1,50.28c-34.43,0-62.33,27.91-62.33,62.33v79.61c0,3.67,2.98,6.65,6.65,6.65h117.94
		c3.67,0,6.65-2.98,6.65-6.65v-79.61c0-34.43-27.91-62.33-62.33-62.33H104.1"/>
	<path class="st5" d="M79.99,3.73c2.1,0.86,4.31,1.53,6.28,2.63c2.46,1.36,4.71,3.09,7.08,4.61c2.28,1.46,2.99,1.31,4.48-1.02
		c1.04-1.62,1.93-3.34,2.95-4.97c0.59-0.93,1.25-1.85,2.02-2.64c3.01-3.11,6.93-3.16,9.69,0.16c1.79,2.14,3.09,4.69,4.59,7.07
		c1.72,2.73,2.41,2.87,5.15,1.14c2.94-1.86,5.78-3.94,8.9-5.44c5.54-2.66,9.27-0.97,10.37,5c1.07,5.79,4.54,9.23,9.71,10.77
		c7.08,2.1,14.34,3.61,21.55,5.26c4.86,1.11,9.71,2.23,13.8,5.28c1.47,1.1,2.93,2.34,3.99,3.81c0.51,0.7,0.52,2.51-0.01,3.05
		c-0.61,0.61-2.62,0.9-3.1,0.42c-7.41-7.52-17.44-7.48-26.76-9.46c-5-1.06-10.01-2.07-14.96-3.29c-4.21-1.04-6.85-3.97-8.42-7.91
		c-0.77-1.93-1.39-3.91-2.17-5.83c-0.83-2.05-1.36-2.2-3.06-0.83c-1.67,1.35-3.2,2.89-4.91,4.19c-1.58,1.21-3.23,2.41-5.01,3.27
		c-3.09,1.5-5.36,0.98-7.5-1.7c-1.75-2.2-3.19-4.64-4.83-6.93c-1.76-2.46-2.73-2.46-4.5,0.03c-1.46,2.05-2.73,4.25-4.24,6.26
		c-2.61,3.47-5.15,4.15-8.88,1.89c-2.89-1.75-5.48-4.03-8.11-6.2c-2.86-2.36-3.71-2.4-4.43,1.1c-2.27,11.03-10.57,13.6-19.97,15.11
		c-7.02,1.13-14,2.51-20.94,4.04c-3.95,0.87-7.53,2.73-10.36,5.76c-1.17,1.25-2.48,1.31-3.75,0.26c-1.35-1.11-0.93-2.38,0.02-3.51
		c3.22-3.83,7.4-6.23,12.16-7.4c6.26-1.54,12.61-2.67,18.9-4.09c4.78-1.08,9.51-2.38,13.5-5.44c2.14-1.64,3.47-3.75,4.04-6.44
		c0.36-1.72,0.96-3.43,1.76-5C75.99,4.88,77.74,4.07,79.99,3.73L79.99,3.73z"/>
	<path class="st0" d="M140.4,60.15c-5.56-1.44-11.11-2.95-16.69-4.28c-3.08-0.73-5.43-2.22-6.82-5.11c-1.2-3.62-0.23-6.88,2.29-9.43
		c2.55-2.57,5.76-2.54,9.12-1.31c12.95,4.72,25.94,9.34,38.9,14.02c0.97,0.35,1.91,0.84,2.78,1.39c2.8,1.81,3.63,4.54,2.43,7.75
		c-0.86,2.3-3.13,3.53-6.27,3c-3.43-0.58-6.81-1.42-10.2-2.23C150.74,62.73,145.57,61.43,140.4,60.15L140.4,60.15z"/>
	<path class="st0" d="M74.37,60.15c5.56-1.44,11.11-2.95,16.7-4.28c3.08-0.73,5.43-2.22,6.82-5.11c1.21-3.62,0.23-6.88-2.29-9.43
		c-2.55-2.57-5.77-2.54-9.12-1.31c-12.95,4.72-25.94,9.34-38.9,14.02c-0.97,0.35-1.91,0.84-2.78,1.39c-2.8,1.81-3.63,4.54-2.43,7.75
		c0.86,2.3,3.13,3.53,6.27,3c3.43-0.58,6.81-1.42,10.2-2.23C64.02,62.73,69.19,61.43,74.37,60.15L74.37,60.15z"/>
	<path class="st6" d="M129.92,157.47l-0.11-0.01c-0.35-0.08-0.72-0.13-1.2-0.14c-0.12,0-0.24,0-0.35,0l-0.05,0
		c-6.9-0.01-13.79,0-20.69,0h-0.13h-0.13c-6.9,0-13.79,0-20.69,0l-0.05,0c-0.12,0-0.23,0-0.35,0c-0.49,0-0.86,0.06-1.2,0.14
		l-0.11,0.01c-0.92,0.22-1.34,0.77-1.41,1.73c-0.04,0.43-0.03,0.94,0.04,1.58c0.43,4.05,2.17,7.9,4.73,11.17
		c2.3,3.08,5.3,5.52,8.75,7.16l0.21,0.09c0.98,0.45,1.98,0.85,3.02,1.17c0.51,0.16,1.02,0.28,1.54,0.4
		c0.67,0.16,1.34,0.29,2.02,0.39c0.31,0.04,0.61,0.15,0.92,0.18c0.92,0.09,1.83,0.12,2.73,0.12c0.9,0.01,1.8-0.03,2.73-0.12
		c0.31-0.03,0.61-0.13,0.92-0.18c0.68-0.1,1.36-0.23,2.02-0.39c0.52-0.12,1.03-0.24,1.54-0.4c1.04-0.32,2.05-0.72,3.02-1.17
		l0.21-0.09c3.46-1.64,6.45-4.09,8.75-7.16c2.56-3.27,4.3-7.12,4.73-11.17c0.07-0.64,0.07-1.13,0.04-1.57
		C131.27,158.24,130.85,157.69,129.92,157.47L129.92,157.47z"/>
	<path class="st7" d="M145.73,142.99c19.28,0,34.91-15.63,34.91-34.91c0-19.28-15.63-34.91-34.91-34.91
		c-19.28,0-34.91,15.63-34.91,34.91C110.82,127.36,126.45,142.99,145.73,142.99"/>
	<path class="st8" d="M145.73,138.38c16.73,0,30.3-13.57,30.3-30.3c0-16.73-13.57-30.3-30.3-30.3c-16.74,0-30.3,13.57-30.3,30.3
		C115.43,124.82,129,138.38,145.73,138.38"/>
	<path class="st1" d="M145.73,125.58c9.66,0,17.5-7.83,17.5-17.5c0-9.66-7.83-17.5-17.5-17.5s-17.5,7.83-17.5,17.5
		C128.23,117.75,136.07,125.58,145.73,125.58"/>
	<path class="st9" d="M145.73,118.19c5.65,0,10.24-4.52,10.24-10.11c0-5.58-4.58-10.11-10.24-10.11c-5.65,0-10.24,4.53-10.24,10.11
		C135.49,113.67,140.08,118.19,145.73,118.19"/>
	<path class="st10" d="M163.21,107.34c-0.35-8.36-6.57-15.21-14.64-16.52c1.95-1.79,4.55-2.87,7.4-2.87
		c6.08,0,11.01,4.95,11.01,11.07C166.98,102.33,165.52,105.31,163.21,107.34"/>
	<path class="st3" d="M155.97,110.07c-0.07,0-0.13,0-0.2,0c0.13-0.64,0.2-1.31,0.2-1.99c0-5.58-4.58-10.11-10.24-10.11
		c-0.24,0-0.49,0.01-0.73,0.03c0.25-2.84,1.58-5.37,3.56-7.19c8.08,1.32,14.29,8.16,14.64,16.52
		C161.28,109.04,158.74,110.07,155.97,110.07"/>
	<path class="st11" d="M155.77,110.07c-5.99-0.11-10.81-5.02-10.81-11.06c0-0.34,0.01-0.68,0.04-1.01c0.24-0.02,0.48-0.03,0.73-0.03
		c5.65,0,10.24,4.53,10.24,10.11C155.97,108.76,155.9,109.43,155.77,110.07"/>
	<path class="st7" d="M69.03,142.99c19.28,0,34.91-15.63,34.91-34.91c0-19.28-15.63-34.91-34.91-34.91S34.12,88.8,34.12,108.08
		C34.12,127.36,49.75,142.99,69.03,142.99"/>
	<path class="st8" d="M69.03,138.38c16.73,0,30.3-13.57,30.3-30.3c0-16.73-13.57-30.3-30.3-30.3c-16.73,0-30.3,13.57-30.3,30.3
		C38.73,124.82,52.3,138.38,69.03,138.38"/>
	<path class="st1" d="M69.03,125.58c9.66,0,17.5-7.83,17.5-17.5c0-9.66-7.83-17.5-17.5-17.5c-9.66,0-17.5,7.83-17.5,17.5
		C51.53,117.75,59.37,125.58,69.03,125.58"/>
	<path class="st9" d="M69.03,118.19c5.65,0,10.24-4.52,10.24-10.11c0-5.58-4.58-10.11-10.24-10.11c-5.65,0-10.24,4.53-10.24,10.11
		C58.79,113.67,63.38,118.19,69.03,118.19"/>
	<path class="st10" d="M86.51,107.34c-0.35-8.36-6.57-15.21-14.64-16.52c1.96-1.79,4.55-2.87,7.4-2.87
		c6.08,0,11.01,4.95,11.01,11.07C90.28,102.33,88.82,105.31,86.51,107.34"/>
	<path class="st3" d="M79.27,110.07c-0.07,0-0.13,0-0.2,0c0.13-0.64,0.2-1.31,0.2-1.99c0-5.58-4.58-10.11-10.24-10.11
		c-0.24,0-0.49,0.01-0.72,0.03c0.25-2.84,1.58-5.37,3.56-7.19c8.08,1.32,14.29,8.16,14.64,16.52
		C84.58,109.04,82.04,110.07,79.27,110.07"/>
	<path class="st11" d="M79.07,110.07c-5.99-0.11-10.81-5.02-10.81-11.06c0-0.34,0.02-0.68,0.05-1.01c0.24-0.02,0.48-0.03,0.72-0.03
		c5.65,0,10.24,4.53,10.24,10.11C79.27,108.76,79.2,109.43,79.07,110.07"/>
</g>
</svg>
