<?xml version="1.0" encoding="utf-8"?>
<!-- Generator: Adobe Illustrator 24.2.3, SVG Export Plug-In . SVG Version: 6.00 Build 0)  -->
<svg version="1.1" id="Layer_1" xmlns="http://www.w3.org/2000/svg" xmlns:xlink="http://www.w3.org/1999/xlink" x="0px" y="0px"
	 viewBox="0 0 588.9 153.7" style="enable-background:new 0 0 588.9 153.7;" xml:space="preserve">
<style type="text/css">
	.st0{fill:#F26A21;}
	.st1{fill:#16A2DC;}
</style>
<g>
	<path class="st0" d="M507.6,114.7h17.1V32.6h-17.1V114.7L507.6,114.7z M516.2,21.7c6,0,10.8-4.8,10.8-10.9S522.2,0,516.2,0
		c-6.1,0-10.9,4.8-10.9,10.9S510.1,21.7,516.2,21.7L516.2,21.7z M564.2,71.5c0-17.4,7.8-22.6,20.4-22.6h4.3V31.3
		c-11.7,0-19.9,5.1-24.7,13.3V32.6h-17.1v82.1h17.1V71.5L564.2,71.5z"/>
	<path class="st1" d="M268.3,71.5c0-17.4,7.8-22.6,20.4-22.6h4.3V31.3c-11.7,0-19.9,5.1-24.7,13.3V32.6h-17.1v82.1h17.1V71.5
		L268.3,71.5z M325.8,44.7V32.6h-17.1v121.1h17.1v-50.9c5.4,6.4,15.1,13.3,28.8,13.3c21.7,0,38.8-17.4,38.8-42.8s-17.1-42-38.8-42
		C341.1,31.3,331.1,37.8,325.8,44.7L325.8,44.7z M376,73.3c0,17.7-12.3,28-25.2,28c-12.7,0-25-10-25-27.7c0-17.6,12.3-27.6,25-27.6
		C363.7,46,376,55.6,376,73.3L376,73.3z M410.3,114.7h17.1V68.8c0-15,8.2-22.8,20.8-22.8c12.4,0,20.7,7.7,20.7,22.8v45.9h16.9V66.3
		c0-22.9-14.4-35-32.8-35c-10.6,0-19.9,4-25.6,10.9V4.5h-17.1V114.7L410.3,114.7z"/>
	<path class="st1" d="M117,114.7h16.9V66.3c0-22.9-14.7-35-34-35c-12,0-23.7,6.3-28.8,16.2c-5.7-10.7-16.6-16.2-29.7-16.2
		c-9.9,0-18.9,4-24.4,10.7v-9.4H0v82.1h17.1V68.8c0-15,8.2-22.8,20.8-22.8c12.4,0,20.7,7.7,20.7,22.8v45.9h16.9V68.8
		c0-15,8.2-22.8,20.8-22.8c12.4,0,20.7,7.7,20.7,22.8V114.7L117,114.7z"/>
	<path class="st0" d="M192.2,122.3l42-24.2V49.9l-42-24.2l-42,24.2v48.3L192.2,122.3L192.2,122.3z M183.5,74c0,5.2-4.1,9.4-9.2,9.4
		c-5.1,0-9.2-4.2-9.2-9.4c0-5.2,4.1-9.4,9.2-9.4C179.4,64.7,183.5,68.9,183.5,74L183.5,74z M200.9,74c0-5.2,4.1-9.4,9.2-9.4
		c5.1,0,9.2,4.2,9.2,9.4c0,5.2-4.1,9.4-9.2,9.4C205,83.4,200.9,79.2,200.9,74L200.9,74z"/>
</g>
</svg>
