<?xml version="1.0" encoding="utf-8"?>
<!-- Generator: Adobe Illustrator 24.1.0, SVG Export Plug-In . SVG Version: 6.00 Build 0)  -->
<svg version="1.1" id="Layer_1" xmlns="http://www.w3.org/2000/svg" xmlns:xlink="http://www.w3.org/1999/xlink" x="0px" y="0px"
	 viewBox="0 0 718.71 165.24" style="enable-background:new 0 0 718.71 165.24;" xml:space="preserve">
<style type="text/css">
	.st0{fill:#FE5000;}
	.st1{fill:#00C1D4;}
</style>
<g>
	<path class="st0" d="M56.3,144.63c-0.91-0.65-1.93-0.92-3.06-0.83c-1.13,0.1-2.06,0.57-2.77,1.41c-1.36,1.56-2.88,2.9-4.57,4.04
		c-1.69,1.13-3.5,1.99-5.44,2.58c-1.94,0.58-3.95,0.88-6.03,0.88c-5.9,0-10.96-2.2-15.17-6.61c-4.21-4.41-6.32-9.72-6.32-15.95
		c0-6.22,2.11-11.54,6.32-15.95c4.21-4.41,9.27-6.61,15.17-6.61c6.03,0,11.15,2.24,15.36,6.71c0.78,0.84,1.7,1.3,2.77,1.36
		c1.07,0.07,2.03-0.26,2.87-0.97l3.4-2.62c0.97-0.78,1.49-1.78,1.56-3.01c0.13-1.23-0.23-2.3-1.07-3.21
		c-3.31-3.43-7.1-6.08-11.38-7.92c-4.28-1.85-8.78-2.77-13.51-2.77c-6.22,0-11.98,1.55-17.26,4.67c-5.28,3.11-9.46,7.36-12.54,12.74
		C1.54,117.92,0,123.79,0,130.14c0,6.35,1.54,12.22,4.62,17.6c3.08,5.38,7.26,9.63,12.54,12.74c5.28,3.11,11.04,4.67,17.26,4.67
		c4.93,0,9.64-1.02,14.15-3.06c4.5-2.04,8.41-4.94,11.72-8.7c0.71-0.91,1.04-1.94,0.97-3.11c-0.13-1.17-0.68-2.14-1.65-2.92
		L56.3,144.63L56.3,144.63z M75.16,96.3c-1.17,0-2.16,0.41-2.97,1.22c-0.81,0.81-1.22,1.8-1.22,2.97v59.21
		c0,1.17,0.4,2.16,1.22,2.97c0.81,0.81,1.8,1.22,2.97,1.22h35.1c1.17,0,2.17-0.4,3.01-1.22c0.84-0.81,1.26-1.8,1.26-2.97v-4.18
		c0-1.17-0.42-2.17-1.26-3.01c-0.84-0.84-1.85-1.26-3.01-1.26H84.59c-0.65,0-0.97-0.32-0.97-0.97v-7.1c0-0.65,0.32-0.97,0.97-0.97
		h19.54c1.17,0,2.17-0.4,3.01-1.22c0.84-0.81,1.26-1.8,1.26-2.97v-4.18c0-1.17-0.42-2.17-1.26-3.01c-0.84-0.84-1.85-1.26-3.01-1.26
		H84.59c-0.65,0-0.97-0.32-0.97-0.97v-18.67c0-0.65,0.32-0.97,0.97-0.97h25.67c1.17,0,2.17-0.42,3.01-1.26
		c0.84-0.84,1.26-1.85,1.26-3.01v-4.18c0-1.17-0.42-2.15-1.26-2.97c-0.84-0.81-1.85-1.22-3.01-1.22H75.16L75.16,96.3z M128.34,96.3
		c-1.17,0-2.16,0.41-2.97,1.22c-0.81,0.81-1.22,1.8-1.22,2.97v59.21c0,1.17,0.4,2.16,1.22,2.97c0.81,0.81,1.8,1.22,2.97,1.22h4.18
		c1.17,0,2.17-0.4,3.01-1.22c0.84-0.81,1.26-1.8,1.26-2.97v-10.01c0-0.65,0.32-0.97,0.97-0.97h6.71c0.45,0,0.91,0,1.36,0
		c0.39,0,0.68,0.13,0.88,0.39l9.24,13.03c0.84,1.17,1.98,1.75,3.4,1.75h5.15c1.49,0,2.66-0.52,3.5-1.56c1.3-1.68,1.33-3.37,0.1-5.06
		l-8.56-12.06c-0.33-0.58-0.23-1.04,0.29-1.36c3.44-2.46,6.11-5.57,8.02-9.33c1.91-3.76,2.87-7.75,2.87-11.96v-1.26
		c0-6.87-2.45-12.75-7.34-17.65c-4.9-4.89-10.81-7.34-17.74-7.34H128.34L128.34,96.3z M158.09,123.24c0,3.89-1.39,7.23-4.18,10.01
		c-2.79,2.79-6.12,4.18-10.01,4.18h-6.13c-0.65,0-0.97-0.32-0.97-0.97v-27.9c0-0.65,0.32-0.97,0.97-0.97h6.81
		c3.76,0,6.95,1.33,9.58,3.99c2.62,2.66,3.94,5.83,3.94,9.53V123.24L158.09,123.24z M181.62,96.3c-1.17,0-2.15,0.41-2.96,1.22
		c-0.81,0.81-1.21,1.8-1.21,2.97v3.89c0,1.17,0.4,2.17,1.21,3.01c0.81,0.84,1.8,1.26,2.96,1.26h14.59c0.65,0,0.97,0.32,0.97,0.97
		v50.07c0,1.17,0.42,2.16,1.26,2.97c0.84,0.81,1.85,1.22,3.01,1.22h4.18c1.17,0,2.15-0.4,2.97-1.22c0.81-0.81,1.22-1.8,1.22-2.97
		v-50.07c0-0.65,0.32-0.97,0.97-0.97h14.59c1.17,0,2.17-0.42,3.01-1.26c0.84-0.84,1.26-1.85,1.26-3.01v-3.89
		c0-1.17-0.42-2.15-1.26-2.97c-0.84-0.81-1.85-1.22-3.01-1.22H181.62L181.62,96.3z M248.32,96.3c-1.17,0-2.15,0.41-2.96,1.22
		c-0.81,0.81-1.22,1.8-1.22,2.97v59.21c0,1.17,0.4,2.16,1.22,2.97c0.81,0.81,1.8,1.22,2.96,1.22h4.28c0.71,0,1.39-0.18,2.04-0.54
		c0.65-0.35,1.17-0.86,1.56-1.51c0.39-0.65,0.58-1.36,0.58-2.14v-59.21c0-1.17-0.42-2.15-1.26-2.97c-0.84-0.81-1.82-1.22-2.92-1.22
		H248.32L248.32,96.3z M275.64,96.3c-1.17,0-2.17,0.41-3.01,1.22c-0.84,0.81-1.26,1.8-1.26,2.97v59.21c0,1.17,0.42,2.16,1.26,2.97
		c0.84,0.81,1.85,1.22,3.01,1.22h4.08c1.17,0,2.17-0.4,3.01-1.22c0.84-0.81,1.26-1.8,1.26-2.97v-16.53c0-0.65,0.32-0.97,0.97-0.97
		h19.54c1.17,0,2.17-0.42,3.01-1.26c0.84-0.84,1.26-1.85,1.26-3.01v-4.08c0-1.17-0.42-2.17-1.26-3.01
		c-0.84-0.84-1.85-1.26-3.01-1.26h-19.54c-0.65,0-0.97-0.32-0.97-0.97v-18.67c0-0.65,0.32-0.97,0.97-0.97h25.67
		c1.17,0,2.17-0.42,3.01-1.26c0.84-0.84,1.26-1.85,1.26-3.01v-4.18c0-0.71-0.19-1.41-0.58-2.09c-0.39-0.68-0.91-1.2-1.56-1.56
		c-0.65-0.36-1.36-0.54-2.14-0.54H275.64L275.64,96.3z M333.68,96.3c-1.17,0-2.16,0.41-2.96,1.22c-0.81,0.81-1.22,1.8-1.22,2.97
		v59.21c0,1.17,0.4,2.16,1.22,2.97c0.81,0.81,1.8,1.22,2.96,1.22h4.28c0.71,0,1.39-0.18,2.04-0.54c0.65-0.35,1.17-0.86,1.56-1.51
		c0.39-0.65,0.58-1.36,0.58-2.14v-59.21c0-1.17-0.42-2.15-1.26-2.97c-0.84-0.81-1.82-1.22-2.92-1.22H333.68L333.68,96.3z
		 M413.02,144.63c-0.91-0.65-1.93-0.92-3.06-0.83c-1.13,0.1-2.06,0.57-2.77,1.41c-1.36,1.56-2.89,2.9-4.57,4.04
		c-1.69,1.13-3.5,1.99-5.45,2.58c-1.95,0.58-3.95,0.88-6.03,0.88c-5.9,0-10.95-2.2-15.17-6.61c-4.21-4.41-6.32-9.72-6.32-15.95
		c0-6.22,2.11-11.54,6.32-15.95c4.21-4.41,9.27-6.61,15.17-6.61c6.03,0,11.15,2.24,15.36,6.71c0.78,0.84,1.7,1.3,2.77,1.36
		c1.07,0.07,2.02-0.26,2.87-0.97l3.4-2.62c0.97-0.78,1.49-1.78,1.56-3.01c0.13-1.23-0.23-2.3-1.07-3.21
		c-3.31-3.43-7.1-6.08-11.38-7.92c-4.28-1.85-8.78-2.77-13.52-2.77c-6.22,0-11.98,1.55-17.26,4.67c-5.28,3.11-9.46,7.36-12.54,12.74
		c-3.08,5.38-4.62,11.25-4.62,17.6c0,6.35,1.54,12.22,4.62,17.6c3.08,5.38,7.26,9.63,12.54,12.74c5.28,3.11,11.04,4.67,17.26,4.67
		c4.93,0,9.64-1.02,14.15-3.06c4.51-2.04,8.41-4.94,11.72-8.7c0.71-0.91,1.04-1.94,0.97-3.11c-0.13-1.17-0.68-2.14-1.65-2.92
		L413.02,144.63L413.02,144.63z M458.58,93.48c-0.94,0-1.61,0.42-1.99,1.26l-28.49,63c-0.84,1.88-0.49,3.53,1.07,4.96
		c0.78,0.78,1.81,1.17,3.11,1.17h4.08c1.94,0,3.31-0.91,4.08-2.72l2.82-6.71c0.13-0.45,0.42-0.68,0.88-0.68h28.88
		c0.39,0,0.68,0.23,0.87,0.68l2.82,6.71c0.71,1.82,2.07,2.72,4.08,2.72h3.99c1.3,0,2.36-0.39,3.21-1.17
		c1.49-1.42,1.85-3.08,1.07-4.96l-28.49-63C460.18,93.91,459.51,93.48,458.58,93.48L458.58,93.48z M449.48,141.71
		c-0.26,0-0.44-0.1-0.54-0.29c-0.1-0.2-0.11-0.39-0.05-0.58l9.04-21.1c0.13-0.26,0.32-0.39,0.58-0.39c0.26,0,0.42,0.13,0.49,0.39
		l9.14,21.1c0.13,0.2,0.13,0.39,0,0.58c-0.13,0.19-0.29,0.29-0.49,0.29H449.48L449.48,141.71z M494.5,96.3
		c-1.17,0-2.16,0.41-2.97,1.22c-0.81,0.81-1.21,1.8-1.21,2.97v3.89c0,1.17,0.4,2.17,1.21,3.01c0.81,0.84,1.8,1.26,2.97,1.26h14.59
		c0.65,0,0.97,0.32,0.97,0.97v50.07c0,1.17,0.42,2.16,1.26,2.97c0.84,0.81,1.85,1.22,3.01,1.22h4.18c1.17,0,2.15-0.4,2.97-1.22
		c0.81-0.81,1.22-1.8,1.22-2.97v-50.07c0-0.65,0.32-0.97,0.97-0.97h14.59c1.17,0,2.17-0.42,3.01-1.26c0.84-0.84,1.26-1.85,1.26-3.01
		v-3.89c0-1.17-0.42-2.15-1.26-2.97c-0.84-0.81-1.85-1.22-3.01-1.22H494.5L494.5,96.3z M561.2,96.3c-1.17,0-2.15,0.41-2.96,1.22
		c-0.81,0.81-1.22,1.8-1.22,2.97v59.21c0,1.17,0.4,2.16,1.22,2.97c0.81,0.81,1.8,1.22,2.96,1.22h4.28c0.71,0,1.39-0.18,2.04-0.54
		c0.65-0.35,1.17-0.86,1.56-1.51c0.39-0.65,0.58-1.36,0.58-2.14v-59.21c0-1.17-0.42-2.15-1.26-2.97c-0.84-0.81-1.82-1.22-2.92-1.22
		H561.2L561.2,96.3z M588.96,112.54c-3.15,5.38-4.72,11.25-4.72,17.6c0,6.35,1.57,12.22,4.72,17.6c3.14,5.38,7.41,9.63,12.79,12.74
		c5.38,3.11,11.23,4.67,17.55,4.67c6.32,0,12.17-1.56,17.55-4.67c5.38-3.11,9.64-7.36,12.79-12.74c3.14-5.38,4.72-11.24,4.72-17.6
		c0-6.35-1.57-12.22-4.72-17.6c-3.15-5.38-7.41-9.63-12.79-12.74c-5.38-3.11-11.23-4.67-17.55-4.67c-6.32,0-12.17,1.55-17.55,4.67
		C596.36,102.92,592.1,107.16,588.96,112.54L588.96,112.54z M619.24,152.7c-6.03,0-11.18-2.2-15.46-6.61
		c-4.28-4.41-6.42-9.72-6.42-15.95c0-6.22,2.14-11.54,6.42-15.95c4.28-4.41,9.43-6.61,15.46-6.61c6.03,0,11.2,2.2,15.51,6.61
		c4.31,4.41,6.47,9.72,6.47,15.95c0,6.22-2.16,11.54-6.47,15.95C630.44,150.49,625.27,152.7,619.24,152.7L619.24,152.7z
		 M710.25,96.4c-1.17,0-2.16,0.42-2.97,1.26c-0.81,0.84-1.22,1.85-1.22,3.01v33.25c0,0.39-0.21,0.68-0.63,0.88
		c-0.42,0.19-0.76,0.13-1.02-0.19l-37.24-39.28c-0.58-0.58-1.25-0.71-1.99-0.39c-0.75,0.33-1.12,0.88-1.12,1.65v63.01
		c0,1.17,0.4,2.17,1.22,3.01c0.81,0.84,1.8,1.26,2.96,1.26h4.18c1.17,0,2.17-0.42,3.01-1.26c0.84-0.84,1.26-1.85,1.26-3.01v-33.45
		c0-0.45,0.2-0.76,0.58-0.92c0.39-0.16,0.74-0.08,1.07,0.24l37.14,39.18c0.39,0.39,0.84,0.58,1.36,0.58c0.26,0,0.49-0.07,0.68-0.19
		c0.78-0.26,1.17-0.81,1.17-1.65v-62.71c0-1.17-0.42-2.17-1.26-3.01c-0.84-0.84-1.85-1.26-3.01-1.26H710.25L710.25,96.4z"/>
	<path class="st1" d="M55.16,49.06c-0.89-0.63-1.89-0.9-3-0.81c-1.11,0.1-2.02,0.56-2.71,1.38c-1.33,1.52-2.83,2.84-4.48,3.95
		c-1.65,1.11-3.43,1.95-5.33,2.52c-1.91,0.57-3.87,0.86-5.91,0.86c-5.78,0-10.73-2.16-14.86-6.48c-4.13-4.32-6.19-9.53-6.19-15.62
		s2.06-11.3,6.19-15.62c4.13-4.32,9.08-6.48,14.86-6.48c5.91,0,10.92,2.19,15.05,6.57c0.76,0.83,1.67,1.27,2.71,1.33
		c1.05,0.06,1.98-0.25,2.81-0.95l3.33-2.57c0.95-0.76,1.46-1.75,1.52-2.95c0.13-1.21-0.22-2.25-1.05-3.14
		c-3.24-3.37-6.95-5.95-11.15-7.76c-4.19-1.81-8.61-2.71-13.24-2.71c-6.1,0-11.73,1.52-16.91,4.57c-5.18,3.05-9.27,7.21-12.29,12.48
		C1.51,22.89,0,28.64,0,34.86c0,6.22,1.51,11.97,4.52,17.24c3.02,5.27,7.11,9.43,12.29,12.48c5.18,3.05,10.81,4.57,16.91,4.57
		c4.83,0,9.45-1,13.86-3c4.41-2,8.24-4.84,11.48-8.53c0.7-0.89,1.02-1.91,0.95-3.05c-0.13-1.14-0.67-2.1-1.62-2.86L55.16,49.06
		L55.16,49.06z M83.45,55.54c-0.45,0-0.81-0.14-1.1-0.43c-0.29-0.29-0.43-0.65-0.43-1.1V5.81c0-0.57-0.11-1.11-0.33-1.62
		c-0.22-0.51-0.52-0.95-0.9-1.33C80.31,2.48,79.86,2.19,79.35,2c-0.51-0.19-1.02-0.29-1.52-0.29h-4.19c-1.14,0-2.11,0.4-2.9,1.19
		c-0.8,0.79-1.19,1.76-1.19,2.91v58.01c0,1.14,0.4,2.11,1.19,2.91c0.79,0.79,1.76,1.19,2.9,1.19h32.39c1.14,0,2.11-0.4,2.91-1.19
		c0.79-0.79,1.19-1.76,1.19-2.91v-4.1c0-1.14-0.4-2.13-1.19-2.95c-0.79-0.82-1.76-1.24-2.91-1.24H83.45L83.45,55.54z M124.27,17.62
		c-3.08,5.27-4.62,11.02-4.62,17.24c0,6.22,1.54,11.97,4.62,17.24c3.08,5.27,7.26,9.43,12.53,12.48c5.27,3.05,11,4.57,17.19,4.57
		c6.19,0,11.92-1.52,17.19-4.57c5.27-3.05,9.45-7.21,12.53-12.48c3.08-5.27,4.62-11.02,4.62-17.24c0-6.22-1.54-11.97-4.62-17.24
		c-3.08-5.27-7.26-9.43-12.53-12.48c-5.27-3.05-11-4.57-17.19-4.57c-6.19,0-11.92,1.52-17.19,4.57
		C131.52,8.19,127.35,12.35,124.27,17.62L124.27,17.62z M153.94,56.97c-5.91,0-10.95-2.16-15.15-6.48
		c-4.19-4.32-6.29-9.53-6.29-15.62s2.1-11.3,6.29-15.62c4.19-4.32,9.24-6.48,15.15-6.48c5.91,0,10.97,2.16,15.19,6.48
		c4.22,4.32,6.33,9.53,6.33,15.62s-2.11,11.3-6.33,15.62C164.91,54.81,159.85,56.97,153.94,56.97L153.94,56.97z M240.82,1.71
		c-1.14,0-2.13,0.4-2.95,1.19c-0.83,0.79-1.24,1.76-1.24,2.91v38.96c0,3.24-1.14,6-3.43,8.29c-2.29,2.29-5.05,3.43-8.29,3.43h-3.33
		c-3.24,0-6-1.14-8.29-3.43c-2.29-2.29-3.43-5.05-3.43-8.29V5.81c0-1.14-0.41-2.11-1.24-2.91c-0.83-0.79-1.81-1.19-2.95-1.19h-3.71
		c-1.08,0-2.03,0.4-2.86,1.19c-0.83,0.79-1.24,1.76-1.24,2.91v39.25c0,6.29,2.24,11.67,6.72,16.15c4.48,4.48,9.89,6.72,16.24,6.72
		h4.86c6.35,0,11.76-2.24,16.24-6.72c4.48-4.48,6.72-9.86,6.72-16.15V5.81c0-1.14-0.41-2.11-1.24-2.91
		c-0.83-0.79-1.81-1.19-2.95-1.19H240.82L240.82,1.71z M266.82,1.71c-1.08,0-2.03,0.4-2.86,1.19c-0.83,0.79-1.24,1.76-1.24,2.91
		v58.01c0,1.14,0.41,2.11,1.24,2.91c0.82,0.79,1.78,1.19,2.86,1.19h17.24c5.78,0,11.11-1.41,16-4.24
		c4.89-2.83,8.75-6.68,11.57-11.57c2.83-4.89,4.24-10.22,4.24-16v-2.57c0-5.78-1.41-11.11-4.24-16c-2.83-4.89-6.68-8.75-11.57-11.57
		c-4.89-2.82-10.23-4.24-16-4.24H266.82L266.82,1.71z M303.78,35.63c0,6.03-2.14,11.19-6.43,15.48c-4.29,4.29-9.45,6.43-15.48,6.43
		h-5.81c-0.64,0-0.95-0.35-0.95-1.05V13.15c0-0.7,0.32-1.05,0.95-1.05h4.29c6.48,0,12,2.29,16.57,6.86
		c4.57,4.57,6.86,10.1,6.86,16.58V35.63L303.78,35.63z M370.25,29.15c-3.43-1.4-5.88-2.54-7.34-3.43c-4.95-2.92-7.02-5.87-6.19-8.86
		c0.44-1.4,1.3-2.6,2.57-3.62c1.27-1.02,2.41-1.56,3.43-1.62c2.54-0.13,4.52,0.03,5.95,0.48c1.43,0.44,3.06,1.52,4.91,3.24
		c0.76,0.7,1.65,1.06,2.67,1.1c1.01,0.03,1.94-0.24,2.76-0.81l2.57-2c1.01-0.76,1.55-1.79,1.62-3.1c0.06-1.3-0.38-2.4-1.33-3.29
		C376.79,2.41,370.44,0,362.82,0c-3.88,0-7.4,1.25-10.57,3.76c-3.18,2.51-5.34,5.8-6.48,9.86c-0.7,2.22-0.94,4.35-0.71,6.38
		c0.22,2.03,0.63,3.84,1.24,5.43c0.6,1.59,1.51,3.1,2.71,4.52c1.21,1.43,2.41,2.64,3.62,3.62c1.21,0.99,2.54,1.89,4,2.71
		c1.97,1.21,4.95,2.64,8.95,4.29c4.57,1.84,7.53,3.37,8.86,4.57c1.33,1.21,1.87,3.02,1.62,5.43c-0.13,1.65-0.62,3.06-1.48,4.24
		c-0.86,1.18-1.9,1.99-3.14,2.43c-1.24,0.45-2.29,0.75-3.14,0.9c-0.86,0.16-1.7,0.24-2.52,0.24c-5.02,0-9.5-2.29-13.43-6.86
		c-0.7-0.82-1.59-1.3-2.67-1.43c-1.08-0.13-2.07,0.1-2.95,0.67l-2.48,1.81c-1.02,0.7-1.59,1.62-1.72,2.76
		c-0.19,1.21,0.06,2.29,0.76,3.24c1.59,2.1,3.34,3.91,5.24,5.43c1.9,1.52,3.59,2.65,5.05,3.38c1.46,0.73,3.11,1.29,4.95,1.67
		c1.84,0.38,3.19,0.6,4.05,0.67c0.86,0.06,1.89,0.1,3.1,0.1c1.33,0,2.82-0.14,4.48-0.43c1.65-0.29,3.51-0.86,5.57-1.71
		c2.06-0.86,3.95-1.92,5.67-3.19c1.72-1.27,3.22-3.02,4.52-5.24c1.3-2.22,2.11-4.76,2.43-7.62c0.19-1.97,0.13-3.84-0.19-5.62
		c-0.32-1.78-0.76-3.3-1.33-4.57c-0.57-1.27-1.41-2.51-2.52-3.72c-1.11-1.21-2.13-2.17-3.05-2.91c-0.92-0.73-2.16-1.51-3.71-2.33
		c-1.56-0.82-2.75-1.41-3.57-1.76c-0.83-0.35-2-0.84-3.52-1.48L370.25,29.15L370.25,29.15z M402.07,1.71c-1.14,0-2.11,0.4-2.91,1.19
		c-0.79,0.79-1.19,1.76-1.19,2.91v58.01c0,1.14,0.4,2.11,1.19,2.91c0.79,0.79,1.76,1.19,2.91,1.19h34.39c1.14,0,2.13-0.4,2.95-1.19
		c0.82-0.79,1.24-1.76,1.24-2.91v-4.1c0-1.14-0.41-2.13-1.24-2.95c-0.83-0.82-1.81-1.24-2.95-1.24h-25.15
		c-0.64,0-0.95-0.32-0.95-0.95v-6.95c0-0.63,0.32-0.95,0.95-0.95h19.15c1.14,0,2.13-0.4,2.95-1.19c0.83-0.79,1.24-1.76,1.24-2.91
		v-4.1c0-1.14-0.41-2.13-1.24-2.95c-0.83-0.82-1.81-1.24-2.95-1.24h-19.15c-0.64,0-0.95-0.32-0.95-0.95V15.05
		c0-0.63,0.32-0.95,0.95-0.95h25.15c1.14,0,2.13-0.41,2.95-1.24c0.82-0.82,1.24-1.81,1.24-2.95v-4.1c0-1.14-0.41-2.11-1.24-2.91
		c-0.83-0.79-1.81-1.19-2.95-1.19H402.07L402.07,1.71z M454.17,1.71c-1.14,0-2.11,0.4-2.91,1.19c-0.8,0.79-1.19,1.76-1.19,2.91
		v58.01c0,1.14,0.4,2.11,1.19,2.91c0.79,0.79,1.76,1.19,2.91,1.19h4.1c1.14,0,2.13-0.4,2.95-1.19c0.82-0.79,1.24-1.76,1.24-2.91
		v-9.81c0-0.63,0.32-0.95,0.95-0.95h6.57c0.44,0,0.89,0,1.33,0c0.38,0,0.67,0.13,0.86,0.38l9.05,12.76
		c0.83,1.14,1.94,1.72,3.33,1.72h5.05c1.46,0,2.6-0.51,3.43-1.52c1.27-1.65,1.3-3.3,0.1-4.95l-8.38-11.81
		c-0.32-0.57-0.22-1.02,0.29-1.33c3.36-2.41,5.99-5.46,7.86-9.14c1.87-3.68,2.81-7.59,2.81-11.72V26.2c0-6.73-2.4-12.49-7.19-17.29
		c-4.8-4.79-10.59-7.19-17.39-7.19H454.17L454.17,1.71z M483.32,28.1c0,3.81-1.37,7.08-4.1,9.81c-2.73,2.73-6,4.1-9.81,4.1h-6
		c-0.64,0-0.95-0.32-0.95-0.95V13.72c0-0.63,0.32-0.95,0.95-0.95h6.67c3.68,0,6.81,1.3,9.38,3.91c2.57,2.6,3.86,5.72,3.86,9.34V28.1
		L483.32,28.1z M557.15,1.81c-1.97,0-3.3,0.89-4,2.67l-7.24,17.43l-9.72,21.05c-0.13,0.38-0.4,0.57-0.81,0.57
		c-0.41,0-0.71-0.19-0.9-0.57l-9.62-21.05l-7.24-17.43c-0.76-1.78-2.13-2.67-4.1-2.67h-3.91c-1.27,0-2.29,0.38-3.05,1.14
		c-1.52,1.4-1.87,3.05-1.05,4.95l28.2,62.68c0.32,0.7,0.87,1.05,1.67,1.05c0.79,0,1.35-0.35,1.67-1.05l28.1-62.68
		c0.82-1.91,0.51-3.56-0.95-4.95c-0.83-0.76-1.87-1.14-3.14-1.14H557.15L557.15,1.81z M583.91,1.71c-1.14,0-2.11,0.4-2.9,1.19
		c-0.8,0.79-1.19,1.76-1.19,2.91v58.01c0,1.14,0.4,2.11,1.19,2.91c0.79,0.79,1.76,1.19,2.9,1.19h4.19c0.7,0,1.36-0.17,2-0.52
		c0.63-0.35,1.14-0.84,1.52-1.48c0.38-0.63,0.57-1.33,0.57-2.1V5.81c0-1.14-0.41-2.11-1.24-2.91c-0.83-0.79-1.78-1.19-2.86-1.19
		H583.91L583.91,1.71z M661.65,49.06c-0.89-0.63-1.89-0.9-3-0.81c-1.11,0.1-2.02,0.56-2.72,1.38c-1.33,1.52-2.83,2.84-4.48,3.95
		c-1.65,1.11-3.43,1.95-5.33,2.52c-1.91,0.57-3.87,0.86-5.91,0.86c-5.78,0-10.73-2.16-14.86-6.48c-4.13-4.32-6.19-9.53-6.19-15.62
		s2.06-11.3,6.19-15.62c4.13-4.32,9.08-6.48,14.86-6.48c5.91,0,10.92,2.19,15.05,6.57c0.76,0.83,1.67,1.27,2.71,1.33
		c1.05,0.06,1.98-0.25,2.81-0.95l3.33-2.57c0.95-0.76,1.46-1.75,1.52-2.95c0.13-1.21-0.22-2.25-1.05-3.14
		c-3.24-3.37-6.95-5.95-11.15-7.76c-4.19-1.81-8.61-2.71-13.24-2.71c-6.1,0-11.73,1.52-16.91,4.57c-5.18,3.05-9.27,7.21-12.29,12.48
		c-3.02,5.27-4.53,11.02-4.53,17.24c0,6.22,1.51,11.97,4.53,17.24c3.02,5.27,7.11,9.43,12.29,12.48c5.18,3.05,10.81,4.57,16.91,4.57
		c4.83,0,9.45-1,13.86-3c4.41-2,8.24-4.84,11.48-8.53c0.7-0.89,1.02-1.91,0.95-3.05c-0.13-1.14-0.67-2.1-1.62-2.86L661.65,49.06
		L661.65,49.06z M680.13,1.71c-1.14,0-2.11,0.4-2.91,1.19c-0.8,0.79-1.19,1.76-1.19,2.91v58.01c0,1.14,0.4,2.11,1.19,2.91
		c0.79,0.79,1.76,1.19,2.91,1.19h34.39c1.14,0,2.13-0.4,2.95-1.19c0.83-0.79,1.24-1.76,1.24-2.91v-4.1c0-1.14-0.41-2.13-1.24-2.95
		c-0.83-0.82-1.81-1.24-2.95-1.24h-25.15c-0.64,0-0.95-0.32-0.95-0.95v-6.95c0-0.63,0.32-0.95,0.95-0.95h19.15
		c1.14,0,2.13-0.4,2.95-1.19c0.82-0.79,1.24-1.76,1.24-2.91v-4.1c0-1.14-0.41-2.13-1.24-2.95c-0.83-0.82-1.81-1.24-2.95-1.24h-19.15
		c-0.64,0-0.95-0.32-0.95-0.95V15.05c0-0.63,0.32-0.95,0.95-0.95h25.15c1.14,0,2.13-0.41,2.95-1.24c0.83-0.82,1.24-1.81,1.24-2.95
		v-4.1c0-1.14-0.41-2.11-1.24-2.91c-0.83-0.79-1.81-1.19-2.95-1.19H680.13L680.13,1.71z"/>
</g>
</svg>
