<?xml version="1.0" encoding="utf-8"?>
<!-- Generator: Adobe Illustrator 24.1.0, SVG Export Plug-In . SVG Version: 6.00 Build 0)  -->
<svg version="1.1" id="Layer_1" xmlns="http://www.w3.org/2000/svg" xmlns:xlink="http://www.w3.org/1999/xlink" x="0px" y="0px"
	 viewBox="0 0 720 187.84" style="enable-background:new 0 0 720 187.84;" xml:space="preserve">
<style type="text/css">
	.st0{fill:#014900;}
	.st1{fill:#79BE70;}
	.st2{clip-path:url(#SVGID_3_);}
</style>
<g>
	<path class="st0" d="M309.43,62.36H282.5V40.99h22l3.33,9.45h12V25.45H282.5l-30.67,0.65v11.01l10,3.88v60.86l-10,3.89v11.01h69.61
		V90.59h-12l-3.07,10.62H282.5v-24.6h26.94V62.36H309.43z M404.38,57.82v-11l-22.27,0.65L368.24,70l-6.93-11.4l4-0.78v-11
		l-34.54,0.65v10.36l7.2,1.68l16.14,22.92l-14.67,21.37l-10,2.59v10.36h22.67l14.4-23.18l7.07,11.4l-4.13,1.42v10.36h36.27v-10.36
		l-9.87-2.59l-15.07-22.01l15.33-22.27L404.38,57.82L404.38,57.82z M447.05,45.52c-21.74,0-36,13.6-36,36.9
		c0,24.6,12.27,35.61,34,35.61c21.6,0,35.61-14.24,35.61-37.55C480.65,58.21,468.65,45.52,447.05,45.52L447.05,45.52z M446.38,61.06
		c9.6,0,13.6,6.86,13.6,20.07c0,15.54-4.67,21.37-14.27,21.37c-9.74,0-14-6.48-14-20.72C431.71,66.24,436.65,61.06,446.38,61.06
		L446.38,61.06z M539.33,116.74l28.4-0.91v-10.36l-10.67-2.59v-86.5l-30.67,1.04v10.36l10.67,2.59v16.45
		c-2.93-0.65-6.8-1.29-10-1.29c-24.4,0-36.4,13.6-36.4,37.94c0,21.36,8.67,34.57,27.34,34.57c11.47,0,18.27-6.35,20.14-8.16
		L539.33,116.74L539.33,116.74z M537.06,95.12c0,0-4.4,7.38-12.93,7.38c-9.07,0-12.8-6.99-12.8-20.07c0-12.95,4-21.37,15.34-21.37
		c3.87,0,7.87,0.78,10.4,1.94v32.12H537.06z M572.4,57.82l10.67,3.24v33.8c0,14.5,7.73,23.18,21.07,23.18
		c12.67,0,23.34-10.36,23.34-10.36l1.33,9.07l28.14-0.91v-10.1l-10.67-2.59V46.82l-30.67,0.65v10.36l10.67,3.24v33.8
		c0,0-6.4,6.99-15.07,6.99c-6,0-8.13-3.24-8.13-10.36V46.82l-30.67,0.65v10.35H572.4z M676.68,94.08h-12v21.11
		c0,0,11.87,2.85,24.54,2.85c18.27,0,30.67-8.42,30.67-23.31c0-22.4-35.61-17.87-35.61-28.36c0-4.27,3.47-6.6,9.2-6.6
		c5.33,0,9.2,1.29,9.2,1.29l2,7.77h11.34l0.53-19.42c0,0-12.8-3.88-24.8-3.88c-14.14,0-27.47,5.96-27.47,22.14
		c0,23.05,35.6,19.16,35.6,29.78c0,4.14-3.6,6.35-10.94,6.35c-6.53,0-11.2-1.29-11.2-1.29L676.68,94.08L676.68,94.08z"/>
	<path class="st1" d="M251.94,165.17H258v-17.59l7.78,11.47h0.16l7.86-11.59v17.71h6.07v-27.12h-6.62l-7.34,11.47l-7.34-11.47h-6.62
		v27.12H251.94z M291.44,160.84c-0.61-0.44-0.92-1.06-0.92-1.86v-0.08c0-0.93,0.37-1.64,1.12-2.13c0.74-0.49,1.77-0.74,3.07-0.74
		c0.74,0,1.44,0.07,2.09,0.21s1.24,0.33,1.78,0.56v1.05c0,1.08-0.43,1.96-1.3,2.63c-0.86,0.67-2.02,1.01-3.45,1.01
		C292.85,161.49,292.05,161.28,291.44,160.84L291.44,160.84z M295.79,164.85c1.04-0.48,1.93-1.12,2.67-1.92v2.25h5.87v-12.05
		c0-1.39-0.19-2.65-0.56-3.78c-0.37-1.12-0.96-2.07-1.76-2.85c-0.77-0.75-1.75-1.32-2.93-1.72s-2.61-0.6-4.29-0.6
		c-1.81,0-3.35,0.16-4.63,0.47s-2.5,0.71-3.67,1.2l1.52,4.49c0.98-0.36,1.92-0.64,2.81-0.83c0.89-0.19,1.92-0.29,3.09-0.29
		c1.52,0,2.66,0.32,3.43,0.97s1.16,1.59,1.16,2.83v0.35c-0.77-0.26-1.56-0.47-2.37-0.62s-1.76-0.23-2.85-0.23
		c-1.28,0-2.44,0.14-3.49,0.41s-1.95,0.68-2.71,1.22c-0.76,0.54-1.35,1.23-1.78,2.05c-0.43,0.83-0.64,1.81-0.64,2.94v0.08
		c0,1.03,0.19,1.94,0.58,2.73c0.39,0.79,0.91,1.45,1.58,1.99c0.66,0.54,1.44,0.95,2.33,1.22c0.89,0.27,1.84,0.41,2.85,0.41
		C293.49,165.56,294.75,165.32,295.79,164.85L295.79,164.85z M318.71,160.16c-0.62-0.27-1.17-0.66-1.64-1.16
		c-0.46-0.5-0.84-1.11-1.12-1.82s-0.42-1.49-0.42-2.35v-0.08c0-0.85,0.14-1.63,0.42-2.35c0.28-0.71,0.65-1.32,1.12-1.82
		c0.46-0.5,1.01-0.89,1.64-1.16s1.3-0.41,2.02-0.41s1.39,0.14,2.01,0.41s1.18,0.66,1.66,1.16s0.86,1.11,1.14,1.82
		c0.28,0.71,0.42,1.49,0.42,2.35v0.08c0,0.88-0.14,1.67-0.42,2.36c-0.28,0.7-0.66,1.3-1.14,1.8s-1.03,0.89-1.66,1.16
		s-1.3,0.41-2.01,0.41C320.01,160.56,319.34,160.43,318.71,160.16L318.71,160.16z M309.56,171.38h6.07v-8.91
		c0.72,0.83,1.6,1.55,2.65,2.17s2.39,0.93,4.01,0.93c1.28,0,2.5-0.23,3.67-0.7c1.17-0.46,2.2-1.16,3.09-2.07
		c0.89-0.92,1.61-2.04,2.15-3.37s0.82-2.86,0.82-4.59v-0.08c0-1.73-0.27-3.26-0.82-4.59c-0.55-1.33-1.27-2.45-2.17-3.37
		c-0.9-0.92-1.94-1.61-3.11-2.07c-1.17-0.46-2.38-0.7-3.63-0.7c-1.6,0-2.92,0.32-3.97,0.95s-1.95,1.44-2.69,2.42v-2.98h-6.07V171.38
		L309.56,171.38z M355.24,159.79v-16.35h4.75c1.25,0,2.39,0.2,3.43,0.6c1.04,0.4,1.92,0.96,2.65,1.68c0.73,0.72,1.3,1.59,1.72,2.6
		c0.41,1.01,0.62,2.11,0.62,3.29v0.08c0,1.21-0.21,2.31-0.62,3.29s-0.99,1.83-1.72,2.56c-0.73,0.72-1.62,1.28-2.65,1.67
		c-1.04,0.39-2.18,0.58-3.43,0.58L355.24,159.79L355.24,159.79z M349.1,165.17h10.89c2.18,0,4.18-0.35,6.01-1.05
		c1.82-0.7,3.39-1.65,4.71-2.87s2.33-2.65,3.05-4.3c0.72-1.65,1.08-3.43,1.08-5.35v-0.08c0-1.91-0.36-3.69-1.08-5.33
		s-1.74-3.07-3.05-4.28c-1.32-1.21-2.89-2.16-4.71-2.85c-1.82-0.68-3.82-1.03-6.01-1.03H349.1V165.17L349.1,165.17z M387.95,160.1
		c-0.68-0.31-1.27-0.73-1.77-1.26c-0.51-0.53-0.89-1.14-1.16-1.82c-0.27-0.68-0.4-1.41-0.4-2.19v-0.08c0-0.77,0.13-1.51,0.38-2.19
		c0.25-0.68,0.62-1.28,1.1-1.8s1.06-0.92,1.74-1.22s1.46-0.45,2.33-0.45c0.82,0,1.58,0.16,2.27,0.46c0.69,0.31,1.29,0.73,1.8,1.26
		c0.51,0.53,0.89,1.14,1.16,1.82c0.27,0.68,0.4,1.41,0.4,2.19v0.09c0,0.78-0.13,1.51-0.38,2.19c-0.25,0.68-0.62,1.28-1.1,1.8
		s-1.06,0.92-1.74,1.22s-1.46,0.45-2.33,0.45C389.39,160.56,388.62,160.41,387.95,160.1L387.95,160.1z M394.79,164.79
		c1.41-0.57,2.63-1.34,3.67-2.33c1.04-0.98,1.85-2.12,2.43-3.43c0.58-1.3,0.88-2.71,0.88-4.2v-0.08c0-1.5-0.29-2.9-0.88-4.2
		s-1.39-2.44-2.41-3.41c-1.03-0.97-2.24-1.73-3.65-2.29s-2.94-0.83-4.59-0.83c-1.68,0-3.22,0.29-4.63,0.85
		c-1.41,0.57-2.63,1.34-3.67,2.33c-1.04,0.98-1.85,2.12-2.43,3.43c-0.59,1.31-0.88,2.71-0.88,4.2v0.08c0,1.5,0.29,2.9,0.88,4.2
		c0.58,1.3,1.39,2.44,2.41,3.41s2.24,1.73,3.65,2.29c1.41,0.55,2.94,0.83,4.59,0.83C391.84,165.64,393.38,165.36,394.79,164.79
		L394.79,164.79z M421.44,164.57c1.33-0.71,2.51-1.62,3.55-2.73l-3.55-3.49c-0.74,0.67-1.5,1.21-2.26,1.61s-1.64,0.6-2.65,0.6
		c-0.82,0-1.57-0.15-2.23-0.45c-0.67-0.3-1.24-0.7-1.72-1.22s-0.85-1.12-1.1-1.82c-0.25-0.7-0.38-1.45-0.38-2.25v-0.08
		c0-0.77,0.13-1.51,0.38-2.19c0.25-0.68,0.61-1.28,1.08-1.8c0.46-0.52,1.01-0.92,1.64-1.22s1.32-0.45,2.1-0.45
		c1.09,0,2,0.21,2.73,0.62c0.73,0.41,1.44,0.97,2.13,1.67l3.71-3.88c-1.01-1.08-2.18-1.94-3.51-2.56c-1.33-0.62-3.01-0.93-5.03-0.93
		c-1.65,0-3.16,0.29-4.53,0.85c-1.37,0.57-2.55,1.34-3.53,2.33c-0.99,0.98-1.76,2.13-2.32,3.45c-0.56,1.32-0.84,2.71-0.84,4.19v0.09
		c0,1.47,0.28,2.86,0.84,4.17c0.56,1.3,1.33,2.44,2.32,3.41c0.98,0.97,2.16,1.74,3.53,2.31c1.37,0.57,2.85,0.85,4.45,0.85
		C418.38,165.64,420.11,165.29,421.44,164.57L421.44,164.57z M438.12,165.29c0.61-0.18,1.17-0.43,1.68-0.74
		c0.51-0.31,0.96-0.67,1.38-1.07c0.41-0.4,0.79-0.82,1.14-1.27v2.97h6.07v-20.77h-6.07v11.56c0,1.39-0.34,2.44-1.02,3.15
		c-0.68,0.71-1.6,1.06-2.77,1.06c-1.17,0-2.07-0.36-2.71-1.06c-0.64-0.71-0.96-1.76-0.96-3.15v-11.56h-6.06v13.45
		c0,2.4,0.63,4.29,1.89,5.66c1.26,1.37,3.05,2.05,5.37,2.05C436.82,165.56,437.51,165.47,438.12,165.29L438.12,165.29z
		 M453.81,165.17h6.07v-11.56c0-1.39,0.33-2.44,0.98-3.15c0.65-0.71,1.55-1.06,2.69-1.06s2.02,0.36,2.63,1.06
		c0.61,0.71,0.92,1.76,0.92,3.15v11.56h6.07v-11.56c0-1.39,0.33-2.44,0.98-3.15c0.65-0.71,1.55-1.06,2.69-1.06s2.02,0.36,2.63,1.06
		c0.61,0.71,0.92,1.76,0.92,3.15v11.56h6.07v-13.52c0-2.51-0.64-4.4-1.92-5.7c-1.28-1.29-3.05-1.94-5.31-1.94
		c-1.46,0-2.77,0.28-3.91,0.84s-2.18,1.38-3.11,2.48c-0.56-1.07-1.35-1.89-2.38-2.46c-1.02-0.57-2.24-0.86-3.65-0.86
		c-0.77,0-1.47,0.09-2.1,0.27c-0.62,0.18-1.19,0.43-1.7,0.74c-0.51,0.31-0.96,0.67-1.38,1.07c-0.41,0.4-0.79,0.83-1.14,1.27v-2.97
		h-6.07v20.78H453.81z M496.62,153.16c0.24-1.34,0.75-2.42,1.54-3.22c0.78-0.8,1.82-1.2,3.09-1.2c1.28,0,2.3,0.41,3.07,1.22
		c0.77,0.81,1.25,1.88,1.44,3.2H496.62L496.62,153.16z M506.92,164.61c1.44-0.68,2.66-1.63,3.67-2.85l-3.47-2.98
		c-0.85,0.75-1.68,1.29-2.47,1.63c-0.8,0.34-1.7,0.5-2.71,0.5c-1.36,0-2.49-0.34-3.41-1.03c-0.92-0.68-1.52-1.7-1.82-3.04h14.88
		c0.03-0.28,0.05-0.55,0.06-0.81s0.02-0.5,0.02-0.74c0-1.47-0.21-2.89-0.62-4.24c-0.41-1.36-1.05-2.56-1.92-3.6
		c-0.86-1.05-1.95-1.88-3.25-2.5s-2.85-0.93-4.63-0.93c-1.57,0-3,0.29-4.29,0.85c-1.29,0.57-2.4,1.34-3.33,2.33
		c-0.93,0.98-1.66,2.13-2.17,3.45c-0.52,1.32-0.78,2.71-0.78,4.19v0.07c0,1.6,0.28,3.06,0.84,4.36s1.34,2.43,2.33,3.39
		c1,0.96,2.18,1.69,3.55,2.21s2.85,0.77,4.45,0.77C503.79,165.64,505.48,165.3,506.92,164.61L506.92,164.61z M516.17,165.17h6.07
		v-11.56c0-1.39,0.34-2.44,1.02-3.15c0.68-0.71,1.6-1.06,2.77-1.06s2.07,0.36,2.71,1.06c0.64,0.71,0.96,1.76,0.96,3.15v11.56h6.07
		v-13.45c0-2.4-0.63-4.29-1.9-5.66c-1.26-1.37-3.05-2.05-5.37-2.05c-0.77,0-1.46,0.09-2.07,0.27c-0.61,0.18-1.17,0.43-1.68,0.74
		c-0.51,0.31-0.96,0.67-1.38,1.07c-0.41,0.4-0.79,0.83-1.14,1.27v-2.97h-6.07L516.17,165.17L516.17,165.17z M550.93,165.19
		c0.77-0.22,1.48-0.51,2.11-0.87v-4.73c-0.93,0.52-1.93,0.78-2.99,0.78c-1.3,0-1.96-0.67-1.96-2.02v-8.9h5.03v-5.04h-5.03v-5.31
		h-6.06v5.31h-2.55v5.04h2.55v9.84c0,1.21,0.15,2.22,0.46,3c0.31,0.79,0.73,1.43,1.28,1.92c0.55,0.49,1.2,0.83,1.96,1.03
		c0.76,0.19,1.6,0.29,2.53,0.29C549.27,165.52,550.16,165.41,550.93,165.19L550.93,165.19z M570.2,165.17h6.07v-17.59l7.78,11.47
		h0.16l7.86-11.59v17.71h6.07v-27.12h-6.62l-7.34,11.47l-7.34-11.47h-6.62v27.12H570.2z M604.48,165.17h6.07v-20.76h-6.07V165.17
		L604.48,165.17z M604.32,142.12h6.38v-5.23h-6.38V142.12L604.32,142.12z M622.84,157.27c-0.98-0.88-1.48-2.04-1.48-3.49v-0.08
		c0-0.7,0.13-1.34,0.4-1.94c0.27-0.59,0.63-1.1,1.1-1.53s1.01-0.76,1.64-0.99c0.62-0.23,1.31-0.35,2.06-0.35
		c0.74,0,1.44,0.12,2.08,0.35c0.64,0.23,1.19,0.56,1.66,0.99c0.47,0.43,0.83,0.94,1.1,1.53c0.27,0.59,0.4,1.24,0.4,1.94v0.08
		c0,0.7-0.13,1.34-0.4,1.94s-0.63,1.1-1.1,1.53s-1.02,0.76-1.66,0.99c-0.64,0.23-1.33,0.35-2.08,0.35
		C625.06,158.59,623.82,158.15,622.84,157.27L622.84,157.27z M631.23,170.79c1.53-0.44,2.8-1.15,3.81-2.13
		c1.81-1.76,2.71-4.48,2.71-8.18v-16.07h-6.06v2.71c-0.82-0.88-1.77-1.61-2.83-2.21c-1.06-0.59-2.42-0.89-4.07-0.89
		c-1.22,0-2.41,0.21-3.55,0.64s-2.15,1.05-3.03,1.88s-1.58,1.84-2.12,3.04c-0.53,1.2-0.8,2.58-0.8,4.13v0.08
		c0,1.55,0.26,2.93,0.78,4.13s1.22,2.21,2.09,3.04c0.88,0.83,1.89,1.45,3.03,1.88c1.14,0.43,2.34,0.64,3.59,0.64
		c1.62,0,2.97-0.3,4.03-0.89c1.06-0.59,2.05-1.42,2.95-2.48v1.01c0,1.86-0.5,3.27-1.5,4.22s-2.53,1.43-4.61,1.43
		c-1.44,0-2.72-0.17-3.85-0.5c-1.13-0.34-2.26-0.8-3.37-1.4l-2.07,4.42c1.36,0.7,2.83,1.23,4.43,1.61s3.27,0.56,5.03,0.56
		C627.9,171.45,629.7,171.23,631.23,170.79L631.23,170.79z M643.19,165.17h6.07v-7.67c0-2.51,0.58-4.35,1.74-5.54
		s2.75-1.78,4.77-1.78h0.32v-6.16c-1.81-0.08-3.25,0.31-4.31,1.16s-1.9,1.99-2.51,3.41v-4.18h-6.07v20.76H643.19z M665.37,160.84
		c-0.61-0.44-0.92-1.06-0.92-1.86v-0.08c0-0.93,0.37-1.64,1.12-2.13c0.74-0.49,1.77-0.74,3.07-0.74c0.74,0,1.44,0.07,2.1,0.21
		c0.65,0.14,1.24,0.33,1.78,0.56v1.05c0,1.08-0.43,1.96-1.3,2.63c-0.86,0.67-2.02,1.01-3.45,1.01
		C666.78,161.49,665.98,161.28,665.37,160.84L665.37,160.84z M669.72,164.85c1.04-0.48,1.93-1.12,2.67-1.92v2.25h5.87v-12.05
		c0-1.39-0.19-2.65-0.56-3.78c-0.37-1.12-0.96-2.07-1.76-2.85c-0.77-0.75-1.75-1.32-2.93-1.72s-2.61-0.6-4.29-0.6
		c-1.81,0-3.35,0.16-4.63,0.47s-2.5,0.71-3.67,1.2l1.52,4.49c0.98-0.36,1.92-0.64,2.81-0.83s1.92-0.29,3.09-0.29
		c1.52,0,2.66,0.32,3.43,0.97s1.16,1.59,1.16,2.83v0.35c-0.77-0.26-1.56-0.47-2.37-0.62s-1.76-0.23-2.85-0.23
		c-1.28,0-2.44,0.14-3.49,0.41s-1.95,0.68-2.71,1.22c-0.76,0.54-1.35,1.23-1.78,2.05c-0.43,0.83-0.64,1.81-0.64,2.94v0.08
		c0,1.03,0.19,1.94,0.58,2.73s0.91,1.45,1.58,1.99c0.67,0.54,1.44,0.95,2.33,1.22s1.84,0.41,2.85,0.41
		C667.42,165.56,668.68,165.32,669.72,164.85L669.72,164.85z M693.39,165.19c0.77-0.22,1.48-0.51,2.11-0.87v-4.73
		c-0.93,0.52-1.93,0.78-2.99,0.78c-1.3,0-1.96-0.67-1.96-2.02v-8.9h5.03v-5.04h-5.03v-5.31h-6.07v5.31h-2.55v5.04h2.55v9.84
		c0,1.21,0.15,2.22,0.46,3c0.3,0.79,0.73,1.43,1.28,1.92c0.55,0.49,1.2,0.83,1.96,1.03c0.76,0.19,1.6,0.29,2.53,0.29
		C691.72,165.52,692.61,165.41,693.39,165.19L693.39,165.19z M704.96,153.16c0.24-1.34,0.75-2.42,1.54-3.22
		c0.78-0.8,1.81-1.2,3.09-1.2s2.3,0.41,3.07,1.22s1.25,1.88,1.44,3.2H704.96L704.96,153.16z M715.25,164.61
		c1.44-0.68,2.66-1.63,3.67-2.85l-3.47-2.98c-0.85,0.75-1.68,1.29-2.47,1.63c-0.8,0.34-1.7,0.5-2.71,0.5
		c-1.36,0-2.49-0.34-3.41-1.03c-0.92-0.68-1.52-1.7-1.82-3.04h14.88c0.03-0.28,0.05-0.55,0.06-0.81s0.02-0.5,0.02-0.74
		c0-1.47-0.21-2.89-0.62-4.24c-0.41-1.36-1.05-2.56-1.91-3.6c-0.87-1.05-1.95-1.88-3.25-2.5s-2.85-0.93-4.63-0.93
		c-1.57,0-3,0.29-4.29,0.85c-1.29,0.57-2.4,1.34-3.33,2.33c-0.93,0.98-1.66,2.13-2.18,3.45c-0.52,1.32-0.78,2.71-0.78,4.19v0.07
		c0,1.6,0.28,3.06,0.84,4.36s1.34,2.43,2.33,3.39c1,0.96,2.18,1.69,3.55,2.21s2.85,0.77,4.45,0.77
		C712.12,165.64,713.81,165.3,715.25,164.61L715.25,164.61z"/>
</g>
<g>
	<g>
		<g>
			<defs>
				<path id="SVGID_1_" d="M189.69,178.28V9.56c0-5.28-4.28-9.56-9.56-9.56H9.56C4.28,0,0,4.28,0,9.56v168.72
					c0,5.28,4.28,9.56,9.56,9.56h170.57C185.41,187.84,189.69,183.56,189.69,178.28L189.69,178.28z M140.18,93.33l-48.95,38.98
					v-23.69H49.7V79.23h41.53V55.53L140.18,93.33L140.18,93.33z"/>
			</defs>
			<radialGradient id="SVGID_2_" cx="94.8456" cy="93.9222" r="80.1032" gradientUnits="userSpaceOnUse">
				<stop  offset="0" style="stop-color:#79BE70"/>
				<stop  offset="0.3966" style="stop-color:#438A4C"/>
				<stop  offset="0.7997" style="stop-color:#135B2C"/>
				<stop  offset="1" style="stop-color:#00491F"/>
			</radialGradient>
			<use xlink:href="#SVGID_1_"  style="overflow:visible;fill:url(#SVGID_2_);"/>
			<clipPath id="SVGID_3_">
				<use xlink:href="#SVGID_1_"  style="overflow:visible;"/>
			</clipPath>
			<g class="st2">
				<g>
					<defs>
						<rect id="SVGID_4_" width="189.69" height="187.84"/>
					</defs>
					<radialGradient id="SVGID_5_" cx="94.8456" cy="93.9222" r="80.1032" gradientUnits="userSpaceOnUse">
						<stop  offset="0" style="stop-color:#79BE70"/>
						<stop  offset="1" style="stop-color:#00491F"/>
					</radialGradient>
					<use xlink:href="#SVGID_4_"  style="overflow:visible;fill:url(#SVGID_5_);"/>
					<clipPath id="SVGID_6_">
						<use xlink:href="#SVGID_4_"  style="overflow:visible;"/>
					</clipPath>
				</g>
			</g>
		</g>
	</g>
	<polygon class="st1" points="161.91,144.34 161.91,43.5 105.13,43.5 105.13,60.86 147.01,93.2 105.13,126.55 105.13,144.34 	"/>
	<polygon class="st1" points="84.56,74.89 84.56,27.13 27.78,27.13 27.78,160.72 84.56,160.72 84.56,112.78 45.4,112.78 45.4,74.89 
			"/>
</g>
</svg>
