<?xml version="1.0" encoding="utf-8"?>
<!-- Generator: Adobe Illustrator 25.0.0, SVG Export Plug-In . SVG Version: 6.00 Build 0)  -->
<svg version="1.1" id="Layer_1" xmlns="http://www.w3.org/2000/svg" xmlns:xlink="http://www.w3.org/1999/xlink" x="0px" y="0px"
	 viewBox="0 0 504 504" style="enable-background:new 0 0 504 504;" xml:space="preserve">
<style type="text/css">
	.st0{fill:#00000A;}
</style>
<g>
	<path class="st0" d="M504,488.3V15.7C504,7,497,0,488.3,0H15.7C7,0,0,7,0,15.7v472.7C0,497,7,504,15.7,504h472.7
		C497,504,504,497,504,488.3L504,488.3z M360.1,315.1c0,22.3-12.8,41.2-33.3,51.2L252,405.2l-75.1-39c-20.3-9.9-33-28.8-33-51.1
		v-40.5l45.1,13.5v27c0,4.9,3.1,8.3,8,10.7l55.1,27.6l54.8-27.5c5.2-2.5,8.3-6,8.3-10.8v-36l-171.2-49.6v-80.9
		c0-11,6-21.4,15.6-27.1C173.8,113,205,98.8,252,98.8s78.2,14.2,92.6,22.7c9.6,5.7,15.6,16,15.6,27.1v53.9l-45.1-13.5v-32.1
		c-12.2-5.9-33.1-12.9-63.1-12.9s-50.8,7-63.1,12.9v41.1l171.2,49.6V315.1L360.1,315.1z"/>
</g>
</svg>
