<?xml version="1.0" encoding="utf-8"?>
<!-- Generator: Adobe Illustrator 24.1.0, SVG Export Plug-In . SVG Version: 6.00 Build 0)  -->
<svg version="1.1" id="Layer_1" xmlns="http://www.w3.org/2000/svg" xmlns:xlink="http://www.w3.org/1999/xlink" x="0px" y="0px"
	 viewBox="0 0 414.97 539.61" style="enable-background:new 0 0 414.97 539.61;" xml:space="preserve">
<style type="text/css">
	.st0{fill:#00000A;}
</style>
<g>
	<path class="st0" d="M414.97,434.77v-17.13c-28.61-16.77-94.87-37.43-144.2-51.49v43.95c0,10.79-3.07,13.88-13.81,13.88h-98.95
		c-10.74,0-13.81-3.08-13.81-13.88v-29.49l-35.37-9.65C44.82,353.43,9.54,341.21,0,291.7v143.07c0,70.92,33.75,104.84,104.32,104.84
		h206.33C381.22,539.61,414.97,505.69,414.97,434.77L414.97,434.77z"/>
	<path class="st0" d="M375.26,249.61h-0.49v33.61h31.34C399.57,268.4,389.34,257.89,375.26,249.61L375.26,249.61z"/>
	<path class="st0" d="M332.44,240.89h24.92c-7.55-3.08-15.82-5.94-24.92-8.71V240.89L332.44,240.89z"/>
	<path class="st0" d="M323.73,240.89v-11.26c-6.12-1.75-12.45-3.51-19.21-5.31l-14.4-3.89v20.46H323.73L323.73,240.89z"/>
	<polygon class="st0" points="281.4,240.89 281.4,218.08 247.79,209 247.79,240.89 281.4,240.89 	"/>
	<path class="st0" d="M196.75,198.57v-3.36l-0.38-0.1c-6.52-1.72-14.97-3.99-24.68-6.67l-8.55-2.31v12.44H196.75L196.75,198.57z"/>
	<path class="st0" d="M154.42,183.61c-10.54-2.99-21.9-6.29-33.61-9.82v24.78h33.61V183.61L154.42,183.61z"/>
	<path class="st0" d="M112.09,198.57v-27.43c-6.56-2.01-13.15-4.07-19.71-6.18h-13.9v33.61H112.09L112.09,198.57z"/>
	<path class="st0" d="M36.15,156.24h30.2c-10.76-3.75-20.96-7.54-30.2-11.29V156.24L36.15,156.24z"/>
	<path class="st0" d="M27.44,156.24V141.3c-10.79-4.69-19.81-9.25-25.9-13.5v28.44H27.44L27.44,156.24z"/>
	<path class="st0" d="M27.44,249.61H9.86c4.22,9.99,10.04,18.08,17.58,24.79V249.61L27.44,249.61z"/>
	<path class="st0" d="M27.44,207.28H1.79c0.49,13.05,2.14,24.13,4.96,33.61h20.69V207.28L27.44,207.28z"/>
	<polygon class="st0" points="27.44,164.96 1.54,164.96 1.54,198.57 27.44,198.57 27.44,164.96 	"/>
	<polygon class="st0" points="36.15,198.57 69.76,198.57 69.76,164.96 36.15,164.96 36.15,198.57 	"/>
	<polygon class="st0" points="69.76,207.28 36.15,207.28 36.15,240.89 69.76,240.89 69.76,207.28 	"/>
	<path class="st0" d="M36.15,249.61v31.57c1.06,0.71,2.25,1.36,3.36,2.04h30.25v-33.61H36.15L36.15,249.61z"/>
	<path class="st0" d="M69.76,291.94H56.62c4.14,1.77,8.52,3.46,13.14,5.1V291.94L69.76,291.94z"/>
	<polygon class="st0" points="78.48,240.89 112.09,240.89 112.09,207.28 78.48,207.28 78.48,240.89 	"/>
	<polygon class="st0" points="112.09,249.61 78.48,249.61 78.48,283.22 112.09,283.22 112.09,249.61 	"/>
	<path class="st0" d="M78.48,291.94V300c10.16,3.3,21.25,6.49,33.51,9.89l0.1,0.03v-17.98H78.48L78.48,291.94z"/>
	<polygon class="st0" points="120.81,291.94 120.81,312.32 154.42,321.58 154.42,291.94 120.81,291.94 	"/>
	<polygon class="st0" points="154.42,249.61 120.81,249.61 120.81,283.22 154.42,283.22 154.42,249.61 	"/>
	<polygon class="st0" points="120.81,240.89 154.42,240.89 154.42,207.28 120.81,207.28 120.81,240.89 	"/>
	<polygon class="st0" points="163.13,240.89 196.75,240.89 196.75,207.28 163.13,207.28 163.13,240.89 	"/>
	<polygon class="st0" points="196.75,249.61 163.13,249.61 163.13,283.22 196.75,283.22 196.75,249.61 	"/>
	<polygon class="st0" points="163.13,291.94 163.13,323.98 168.81,325.55 196.75,325.55 196.75,291.94 163.13,291.94 	"/>
	<polygon class="st0" points="239.07,291.94 205.46,291.94 205.46,325.55 239.07,325.55 239.07,291.94 	"/>
	<polygon class="st0" points="205.46,240.89 239.07,240.89 239.07,207.28 205.46,207.28 205.46,240.89 	"/>
	<polygon class="st0" points="239.07,249.61 205.46,249.61 205.46,283.22 239.07,283.22 239.07,249.61 	"/>
	<path class="st0" d="M205.46,334.26v1.39l18.04,4.97c4.26,1.12,9.6,2.55,15.58,4.16v-10.52H205.46L205.46,334.26z"/>
	<polygon class="st0" points="247.79,283.22 281.4,283.22 281.4,249.61 247.79,249.61 247.79,283.22 	"/>
	<polygon class="st0" points="281.4,291.94 247.79,291.94 247.79,325.55 281.4,325.55 281.4,291.94 	"/>
	<path class="st0" d="M247.79,334.26v12.9c9.99,2.74,21.39,5.94,33.61,9.49v-22.39H247.79L247.79,334.26z"/>
	<polygon class="st0" points="290.11,283.22 323.73,283.22 323.73,249.61 290.11,249.61 290.11,283.22 	"/>
	<polygon class="st0" points="323.73,291.94 290.11,291.94 290.11,325.55 323.73,325.55 323.73,291.94 	"/>
	<path class="st0" d="M290.11,334.26v24.93c9.32,2.75,18.95,5.66,28.6,8.69h5.01v-33.61H290.11L290.11,334.26z"/>
	<polygon class="st0" points="366.05,334.26 332.44,334.26 332.44,367.88 366.05,367.88 366.05,334.26 	"/>
	<polygon class="st0" points="332.44,283.22 366.05,283.22 366.05,249.61 332.44,249.61 332.44,283.22 	"/>
	<polygon class="st0" points="366.05,291.94 332.44,291.94 332.44,325.55 366.05,325.55 366.05,291.94 	"/>
	<path class="st0" d="M366.05,376.59h-20.48c7.04,2.37,13.86,4.77,20.48,7.18V376.59L366.05,376.59z"/>
	<path class="st0" d="M374.77,376.59v10.4c12.99,4.93,24.49,9.83,33.61,14.5v-24.9H374.77L374.77,376.59z"/>
	<polygon class="st0" points="408.38,334.26 374.77,334.26 374.77,367.88 408.38,367.88 408.38,334.26 	"/>
	<polygon class="st0" points="374.77,325.55 408.38,325.55 408.38,291.94 374.77,291.94 374.77,325.55 	"/>
	<path class="st0" d="M405.76,223.39V104.84C405.76,33.92,372.01,0,301.44,0H105.85C35.29,0,1.54,33.92,1.54,104.84v10.34
		c23.86,16.72,92.01,38.38,144.2,53.39v-39.06c0-10.79,3.07-13.88,13.81-13.88h88.21c10.74,0,13.81,3.08,13.81,13.88v24.18
		l42.95,11.6C357.77,179.49,390.91,190.71,405.76,223.39L405.76,223.39z"/>
</g>
</svg>
