<?xml version="1.0" encoding="utf-8"?>
<!-- Generator: Adobe Illustrator 24.1.0, SVG Export Plug-In . SVG Version: 6.00 Build 0)  -->
<svg version="1.1" id="Layer_1" xmlns="http://www.w3.org/2000/svg" xmlns:xlink="http://www.w3.org/1999/xlink" x="0px" y="0px"
	 viewBox="0 0 414.97 539.63" style="enable-background:new 0 0 414.97 539.63;" xml:space="preserve">
<style type="text/css">
	.st0{clip-path:url(#SVGID_2_);}
	.st1{fill:#0047BB;}
	.st2{clip-path:url(#SVGID_7_);}
</style>
<g>
	<g>
		<defs>
			<path id="SVGID_1_" d="M414.97,434.79v-17.15c-28.62-16.79-94.87-37.43-144.22-51.48v43.95c0,10.79-3.06,13.89-13.82,13.89
				h-98.91c-10.73,0-13.79-3.1-13.79-13.89v-29.47l-35.37-9.65C44.83,353.42,9.55,341.2,0,291.71v143.08
				c0,70.91,33.74,104.84,104.32,104.84h206.33C381.23,539.6,414.97,505.7,414.97,434.79L414.97,434.79z"/>
		</defs>
		<clipPath id="SVGID_2_">
			<use xlink:href="#SVGID_1_"  style="overflow:visible;"/>
		</clipPath>
		<g class="st0">
			<g>
				<defs>
					<rect id="SVGID_3_" y="291.71" width="414.97" height="247.93"/>
				</defs>
				<linearGradient id="SVGID_4_" gradientUnits="userSpaceOnUse" x1="0" y1="415.6709" x2="414.97" y2="415.6709">
					<stop  offset="0" style="stop-color:#0047BB"/>
					<stop  offset="1" style="stop-color:#041E42"/>
				</linearGradient>
				<use xlink:href="#SVGID_3_"  style="overflow:visible;fill:url(#SVGID_4_);"/>
				<clipPath id="SVGID_5_">
					<use xlink:href="#SVGID_3_"  style="overflow:visible;"/>
				</clipPath>
			</g>
		</g>
	</g>
</g>
<path class="st1" d="M375.26,249.62h-0.49v33.61h31.33C399.58,268.4,389.35,257.9,375.26,249.62L375.26,249.62z"/>
<path class="st1" d="M332.43,240.88h24.91c-7.56-3.1-15.81-5.93-24.91-8.7V240.88L332.43,240.88z"/>
<path class="st1" d="M323.72,240.88v-11.25c-6.13-1.76-12.45-3.52-19.2-5.31l-14.41-3.88v20.47h33.61V240.88z"/>
<polygon class="st1" points="281.41,240.88 281.41,218.1 247.8,209 247.8,240.88 "/>
<path class="st1" d="M196.74,198.57v-3.36l-0.39-0.1c-6.52-1.73-14.96-3.98-24.68-6.65l-8.54-2.31v12.45h33.61V198.57z"/>
<path class="st1" d="M154.43,183.61c-10.53-3-21.91-6.29-33.61-9.81v24.78h33.61V183.61L154.43,183.61z"/>
<path class="st1" d="M112.08,198.57v-27.42c-6.55-2.02-13.14-4.08-19.72-6.19H78.47v33.61H112.08L112.08,198.57z"/>
<path class="st1" d="M36.15,156.25h30.19c-10.76-3.75-20.96-7.53-30.19-11.28V156.25L36.15,156.25z"/>
<path class="st1" d="M27.45,156.25v-14.93c-10.79-4.69-19.82-9.26-25.92-13.5v28.43H27.45L27.45,156.25z"/>
<path class="st1" d="M27.45,249.62H9.85c4.21,10.01,10.04,18.09,17.57,24.78v-24.78H27.45z"/>
<path class="st1" d="M27.45,207.27H1.79c0.49,13.04,2.15,24.12,4.96,33.61h20.7V207.27L27.45,207.27z"/>
<polygon class="st1" points="27.45,164.96 1.53,164.96 1.53,198.57 27.45,198.57 "/>
<polygon class="st1" points="36.15,198.57 69.76,198.57 69.76,164.96 36.15,164.96 "/>
<polygon class="st1" points="69.76,207.27 36.15,207.27 36.15,240.88 69.76,240.88 "/>
<path class="st1" d="M36.15,249.62v31.56c1.08,0.72,2.25,1.37,3.36,2.05h30.25v-33.61H36.15L36.15,249.62z"/>
<path class="st1" d="M69.76,291.94H56.63c4.14,1.76,8.51,3.46,13.14,5.09V291.94L69.76,291.94z"/>
<polygon class="st1" points="78.47,240.88 112.08,240.88 112.08,207.27 78.47,207.27 "/>
<polygon class="st1" points="112.08,249.62 78.47,249.62 78.47,283.23 112.08,283.23 "/>
<path class="st1" d="M78.47,291.94v8.05c10.17,3.29,21.26,6.49,33.51,9.88l0.1,0.03v-18H78.47V291.94z"/>
<polygon class="st1" points="120.82,291.94 120.82,312.31 154.43,321.57 154.43,291.94 "/>
<polygon class="st1" points="154.43,249.62 120.82,249.62 120.82,283.23 154.43,283.23 "/>
<polygon class="st1" points="120.82,240.88 154.43,240.88 154.43,207.27 120.82,207.27 "/>
<polygon class="st1" points="163.13,240.88 196.74,240.88 196.74,207.27 163.13,207.27 "/>
<polygon class="st1" points="196.74,249.62 163.13,249.62 163.13,283.23 196.74,283.23 "/>
<polygon class="st1" points="163.13,291.94 163.13,323.98 168.8,325.55 196.74,325.55 196.74,291.94 "/>
<polygon class="st1" points="239.06,291.94 205.45,291.94 205.45,325.55 239.06,325.55 "/>
<polygon class="st1" points="205.45,240.88 239.06,240.88 239.06,207.27 205.45,207.27 "/>
<polygon class="st1" points="239.06,249.62 205.45,249.62 205.45,283.23 239.06,283.23 "/>
<path class="st1" d="M205.45,334.25v1.4l18.03,4.96c4.27,1.11,9.58,2.54,15.58,4.17v-10.53L205.45,334.25L205.45,334.25z"/>
<polygon class="st1" points="247.8,283.23 281.41,283.23 281.41,249.62 247.8,249.62 "/>
<polygon class="st1" points="281.41,291.94 247.8,291.94 247.8,325.55 281.41,325.55 "/>
<path class="st1" d="M247.8,334.25v12.91c9.98,2.74,21.39,5.93,33.61,9.49v-22.4H247.8L247.8,334.25z"/>
<polygon class="st1" points="290.11,283.23 323.72,283.23 323.72,249.62 290.11,249.62 "/>
<polygon class="st1" points="323.72,291.94 290.11,291.94 290.11,325.55 323.72,325.55 "/>
<path class="st1" d="M290.11,334.25v24.94c9.32,2.74,18.94,5.67,28.59,8.67h5.02v-33.61L290.11,334.25L290.11,334.25z"/>
<polygon class="st1" points="366.07,334.25 332.43,334.25 332.43,367.9 366.07,367.9 "/>
<polygon class="st1" points="332.43,283.23 366.07,283.23 366.07,249.62 332.43,249.62 "/>
<polygon class="st1" points="366.07,291.94 332.43,291.94 332.43,325.55 366.07,325.55 "/>
<path class="st1" d="M366.07,376.6h-20.51c7.04,2.38,13.86,4.76,20.47,7.17v-7.17H366.07z"/>
<path class="st1" d="M374.77,376.6V387c12.97,4.92,24.48,9.81,33.61,14.51V376.6H374.77L374.77,376.6z"/>
<polygon class="st1" points="408.38,334.25 374.77,334.25 374.77,367.9 408.38,367.9 "/>
<polygon class="st1" points="374.77,325.55 408.38,325.55 408.38,291.94 374.77,291.94 "/>
<g>
	<g>
		<defs>
			<path id="SVGID_6_" d="M405.78,223.38V104.84C405.78,33.94,372.04,0,301.46,0h-195.6C35.27,0,1.53,33.9,1.53,104.84v10.33
				c23.86,16.72,92,38.37,144.19,53.4v-39.06c0-10.79,3.06-13.89,13.82-13.89h88.22c10.73,0,13.82,3.1,13.82,13.89v24.19
				l42.97,11.61C357.79,179.5,390.91,190.71,405.78,223.38L405.78,223.38z"/>
		</defs>
		<clipPath id="SVGID_7_">
			<use xlink:href="#SVGID_6_"  style="overflow:visible;"/>
		</clipPath>
		<g class="st2">
			<g>
				<defs>
					<rect id="SVGID_8_" x="1.53" width="404.24" height="223.38"/>
				</defs>
				<linearGradient id="SVGID_9_" gradientUnits="userSpaceOnUse" x1="405.7767" y1="111.6888" x2="1.5322" y2="111.6888">
					<stop  offset="0" style="stop-color:#0047BB"/>
					<stop  offset="1" style="stop-color:#041E42"/>
				</linearGradient>
				<use xlink:href="#SVGID_8_"  style="overflow:visible;fill:url(#SVGID_9_);"/>
				<clipPath id="SVGID_10_">
					<use xlink:href="#SVGID_8_"  style="overflow:visible;"/>
				</clipPath>
			</g>
		</g>
	</g>
</g>
</svg>
