<?xml version="1.0" encoding="utf-8"?>
<!-- Generator: Adobe Illustrator 27.0.0, SVG Export Plug-In . SVG Version: 6.00 Build 0)  -->
<svg version="1.1" id="Layer_1" xmlns="http://www.w3.org/2000/svg" xmlns:xlink="http://www.w3.org/1999/xlink" x="0px" y="0px"
	 viewBox="0 0 576 576" style="enable-background:new 0 0 576 576;" xml:space="preserve">
<style type="text/css">
	.st0{fill:#333333;}
	.st1{fill-rule:evenodd;clip-rule:evenodd;fill:url(#SVGID_1_);}
	.st2{fill:url(#SVGID_00000005262557097966664390000009222342253481248660_);}
	.st3{fill:url(#SVGID_00000174596229475295322150000016907507403652660926_);}
	.st4{fill:url(#SVGID_00000033361256398634066980000013156529989458737330_);}
	.st5{fill:url(#SVGID_00000069368386567984708230000005434185625684807078_);}
	.st6{fill:url(#SVGID_00000125595936549972916500000011703205300144584845_);}
	.st7{fill:url(#SVGID_00000167397494350130374400000008292135909607469460_);}
	.st8{fill:url(#SVGID_00000055706830396931492530000001112755803488709550_);}
	.st9{fill:url(#SVGID_00000043448219208781492610000004124028318480100260_);}
	.st10{fill:url(#SVGID_00000055697558380387096760000010774219330469091514_);}
	.st11{fill:#54C9EE;}
	.st12{fill:#FFFFFF;}
</style>
<path class="st0" d="M470.8,576H105.2C47.1,576,0,528.9,0,470.8V105.2C0,47.1,47.1,0,105.2,0h365.7C528.9,0,576,47.1,576,105.2
	v365.7C576,528.9,528.9,576,470.8,576z"/>
<g>
	<g>
		
			<linearGradient id="SVGID_1_" gradientUnits="userSpaceOnUse" x1="314.1593" y1="845.0242" x2="82.3719" y2="1060.2562" gradientTransform="matrix(1 0 0 1 0 -659.2126)">
			<stop  offset="0.5805" style="stop-color:#43C6F2;stop-opacity:0"/>
			<stop  offset="1" style="stop-color:#43C6F2"/>
		</linearGradient>
		<path class="st1" d="M244.7,121.4c0,0-1.2,2.8-4,7.8c-10,18-39.6,65.2-103.4,121c-81.8,71.6-68.4,129-68.4,129h175.8V121.4z"/>
		<g>
			<g>
				
					<linearGradient id="SVGID_00000005258766292496431220000007657110251490525116_" gradientUnits="userSpaceOnUse" x1="155.104" y1="197.759" x2="155.104" y2="442.097" gradientTransform="matrix(1 0 0 -1 0 577)">
					<stop  offset="0" style="stop-color:#54C9EE"/>
					<stop  offset="1" style="stop-color:#54C9EE;stop-opacity:0.6"/>
				</linearGradient>
				<path style="fill:url(#SVGID_00000005258766292496431220000007657110251490525116_);" d="M68.9,379.2
					c-0.6-12.8,2.8-25.4,7.2-37.4c4.6-12,10.8-23.2,17.8-33.8c14.2-21.2,32.6-39.4,51-56.6c9.4-8.6,18.8-17,27.6-26
					c9-8.8,17.4-18.2,25.6-27.8s15.8-19.8,23-30c7.4-10.2,14.2-21,20.2-32l0.2,0.2c-5.8,11.4-12.2,22.2-19.4,32.8
					c-7,10.6-14.6,20.8-22.6,30.6c-8,9.8-16.6,19.2-25.6,28.2s-18.4,17.6-27.6,26.2s-18.4,17.4-27.2,26.6c-8.6,9.2-16.8,19-24,29.4
					C87.9,320,81.7,331,76.9,342.8c-4.8,11.6-8.4,24-8.2,36.8L68.9,379.2z"/>
			</g>
			<g>
				
					<linearGradient id="SVGID_00000000913814376482709070000018318100328058584202_" gradientUnits="userSpaceOnUse" x1="155.3565" y1="197.7976" x2="155.3565" y2="426.8144" gradientTransform="matrix(1 0 0 -1 0 577)">
					<stop  offset="0" style="stop-color:#54C9EE"/>
					<stop  offset="1" style="stop-color:#54C9EE;stop-opacity:0.6"/>
				</linearGradient>
				<path style="fill:url(#SVGID_00000000913814376482709070000018318100328058584202_);" d="M68.9,379.2c-0.4-6,0.4-12.2,1.8-18.2
					c1.4-6,3.4-11.8,5.8-17.4c4.8-11.4,11-22,18.2-32c14.4-20,32.6-36.6,50.8-52.8c9.2-8,18.4-15.8,27.4-24s17.4-16.8,25.4-25.8
					s15.8-18.4,23-28.2c7.4-9.6,14-19.8,20.4-30.2l0.2,0.2c-5.8,10.6-12.4,21-19.4,30.8c-7,10-14.6,19.4-22.6,28.6
					s-16.4,18-25.4,26.2c-8.8,8.2-18.2,16.2-27.2,24.2c-9.2,8-18.2,16-26.8,24.6c-8.6,8.6-16.8,17.6-24,27.4
					c-7.2,9.8-13.6,20.2-18.6,31.2c-4.8,11-8.6,23-8.6,35.2L68.9,379.2z"/>
			</g>
			<g>
				
					<linearGradient id="SVGID_00000073696775518451661330000005410982932126120361_" gradientUnits="userSpaceOnUse" x1="155.357" y1="197.5976" x2="155.357" y2="411.2962" gradientTransform="matrix(1 0 0 -1 0 577)">
					<stop  offset="0" style="stop-color:#54C9EE"/>
					<stop  offset="1" style="stop-color:#54C9EE;stop-opacity:0.6"/>
				</linearGradient>
				<path style="fill:url(#SVGID_00000073696775518451661330000005410982932126120361_);" d="M68.9,379.2c-0.4-5.8,0.4-11.8,2-17.4
					c1.4-5.8,3.6-11.2,6-16.6c5-10.8,11.4-20.6,18.6-30c14.6-18.6,32.6-34,50.6-48.8c9-7.4,18.2-14.6,27-22
					c8.8-7.4,17.2-15.6,25.2-23.8c8-8.4,15.8-17,23-26.2c7.4-9,14.2-18.4,20.4-28.2l0.2,0.2c-5.8,10-12.4,19.8-19.6,29
					c-7,9.2-14.6,18.2-22.6,26.8c-8,8.6-16.4,16.6-25.2,24.2c-8.8,7.6-17.8,15-27,22.4c-9,7.4-18,14.8-26.6,22.6
					c-8.6,7.8-16.8,16.2-24,25.4c-7.4,9-13.8,18.8-18.8,29.2s-9,21.8-8.8,33.4L68.9,379.2z"/>
			</g>
			<g>
				
					<linearGradient id="SVGID_00000109742563986523770630000017898133672515357352_" gradientUnits="userSpaceOnUse" x1="155.2636" y1="197.7976" x2="155.2636" y2="396.1816" gradientTransform="matrix(1 0 0 -1 0 577)">
					<stop  offset="0" style="stop-color:#54C9EE"/>
					<stop  offset="1" style="stop-color:#54C9EE;stop-opacity:0.6"/>
				</linearGradient>
				<path style="fill:url(#SVGID_00000109742563986523770630000017898133672515357352_);" d="M68.9,379.2c-0.4-5.6,0.6-11.2,2-16.6
					c1.6-5.4,3.8-10.6,6.2-15.8c5-10,11.6-19.4,19-28c14.6-17.2,32.6-31.2,50.2-44.8c9-6.6,18-13.2,26.6-20.2c8.8-6.8,17-14.2,25-22
					c8-7.6,15.6-15.8,23-24.2c7.4-8.4,14.2-17.2,20.6-26.4l0.2,0.2c-6,9.4-12.6,18.4-19.8,27c-7,9-14.6,17.2-22.6,25
					c-15.8,16-33.8,29.4-51.6,42.8c-17.6,13.4-35.4,27.2-50.2,44c-7.4,8.4-14,17.4-19.2,27.2c-5.2,9.8-9.4,20.6-9.2,31.8H68.9z"/>
			</g>
			<g>
				
					<linearGradient id="SVGID_00000053533527369683888860000002739639979154241164_" gradientUnits="userSpaceOnUse" x1="155.3639" y1="197.7976" x2="155.3639" y2="380.8708" gradientTransform="matrix(1 0 0 -1 0 577)">
					<stop  offset="0" style="stop-color:#54C9EE"/>
					<stop  offset="1" style="stop-color:#54C9EE;stop-opacity:0.6"/>
				</linearGradient>
				<path style="fill:url(#SVGID_00000053533527369683888860000002739639979154241164_);" d="M68.9,379.2c-0.4-5.4,0.6-10.8,2.2-16
					c1.6-5.2,4-10,6.4-14.8c5.2-9.4,12-18,19.4-26c14.8-15.8,32.4-28.4,50-40.8c8.8-6,17.6-12,26.2-18.4c8.6-6.2,16.8-13,24.8-20
					s15.6-14.4,23-22.2c7.4-7.6,14.2-15.8,20.8-24.4l0.2,0.2c-6,8.8-12.8,17.2-20,25.2s-14.8,15.6-22.6,22.8
					c-15.6,14.6-33.4,26.8-51,39c-17.6,12.2-35,24.6-50,40c-7.4,7.6-14.2,16-19.6,25.2c-2.6,4.6-5,9.4-6.8,14.4
					c-1.8,5-3,10.4-2.8,15.6L68.9,379.2z"/>
			</g>
			<g>
				
					<linearGradient id="SVGID_00000163070249882421062000000016647571280083380659_" gradientUnits="userSpaceOnUse" x1="155.2688" y1="197.7976" x2="155.2688" y2="365.5642" gradientTransform="matrix(1 0 0 -1 0 577)">
					<stop  offset="0" style="stop-color:#54C9EE"/>
					<stop  offset="1" style="stop-color:#54C9EE;stop-opacity:0.6"/>
				</linearGradient>
				<path style="fill:url(#SVGID_00000163070249882421062000000016647571280083380659_);" d="M68.9,379.2c-0.2-2.6,0-5.2,0.4-7.8
					s1.2-5,2-7.4c1.8-4.8,4.2-9.4,6.8-14c5.4-8.8,12.4-16.6,19.8-23.8c15-14.4,32.4-25.6,49.6-36.8c8.6-5.4,17.4-10.8,25.8-16.6
					c8.6-5.6,16.6-11.8,24.6-18c8-6.4,15.6-13.2,22.8-20.2c7.4-7,14.4-14.4,20.8-22.4l0.2,0.2c-6,8.2-13,16-20,23.2
					c-7.2,7.4-14.8,14.2-22.6,20.8c-15.6,13.2-33,24.2-50.2,35.2s-34.6,22.2-49.6,36c-7.4,7-14.4,14.6-20,23.2
					c-2.8,4.2-5.4,8.8-7.2,13.4c-1.8,4.8-3.2,9.8-3,14.8L68.9,379.2z"/>
			</g>
			<g>
				
					<linearGradient id="SVGID_00000122680562121859377960000010537771685337786294_" gradientUnits="userSpaceOnUse" x1="155.2697" y1="197.7976" x2="155.2697" y2="350.2622" gradientTransform="matrix(1 0 0 -1 0 577)">
					<stop  offset="0" style="stop-color:#54C9EE"/>
					<stop  offset="1" style="stop-color:#54C9EE;stop-opacity:0.6"/>
				</linearGradient>
				<path style="fill:url(#SVGID_00000122680562121859377960000010537771685337786294_);" d="M68.9,379.2c-0.4-5,0.8-10,2.8-14.4
					c2-4.6,4.4-8.8,7.2-13c5.8-8.2,12.8-15.2,20.2-21.8s15.6-12.2,23.8-17.6s16.8-10.4,25.2-15.4c8.6-4.8,17-9.6,25.4-14.8
					c8.4-5,16.4-10.6,24.2-16.2c7.8-5.8,15.4-11.8,22.8-18.2c7.4-6.4,14.4-13.2,21-20.4l0.2,0.2c-6.2,7.6-13,14.6-20.2,21.2
					s-14.8,13-22.6,18.8c-15.6,12-32.6,21.8-49.6,31.6c-17,9.8-34,19.6-49,32.2c-7.6,6.2-14.6,13.2-20.4,21c-2.8,4-5.6,8-7.6,12.6
					C70.3,369.4,68.9,374.2,68.9,379.2L68.9,379.2z"/>
			</g>
			<g>
				
					<linearGradient id="SVGID_00000018923550812542585560000002800042774800100266_" gradientUnits="userSpaceOnUse" x1="155.274" y1="197.7976" x2="155.274" y2="334.965" gradientTransform="matrix(1 0 0 -1 0 577)">
					<stop  offset="0" style="stop-color:#54C9EE"/>
					<stop  offset="1" style="stop-color:#54C9EE;stop-opacity:0.6"/>
				</linearGradient>
				<path style="fill:url(#SVGID_00000018923550812542585560000002800042774800100266_);" d="M68.9,379.2c-0.4-4.8,1-9.6,3.2-13.8
					c2.2-4.2,4.8-8.2,7.6-12c6-7.4,13.2-13.8,20.6-19.6c7.4-5.8,15.6-10.8,23.6-15.6c8.2-4.8,16.4-9.2,24.8-13.6
					c8.4-4.2,16.6-8.4,24.8-13c8.2-4.4,16.2-9.4,24-14.4s15.4-10.6,22.8-16.2c7.4-5.6,14.4-11.8,21.2-18.4l0.2,0.2
					c-6.4,7-13.2,13.2-20.4,19.2s-14.8,11.6-22.4,16.8c-15.4,10.6-32.2,19.4-48.8,28s-33.4,17.2-48.4,28.4
					c-7.6,5.6-14.8,11.6-20.8,18.8c-3,3.6-5.8,7.4-8,11.6s-3.8,8.6-3.6,13.4L68.9,379.2z"/>
			</g>
			<g>
				
					<linearGradient id="SVGID_00000177457304599675404880000009405069642414286466_" gradientUnits="userSpaceOnUse" x1="155.38" y1="197.7976" x2="155.38" y2="319.6732" gradientTransform="matrix(1 0 0 -1 0 577)">
					<stop  offset="0" style="stop-color:#54C9EE"/>
					<stop  offset="1" style="stop-color:#54C9EE;stop-opacity:0.6"/>
				</linearGradient>
				<path style="fill:url(#SVGID_00000177457304599675404880000009405069642414286466_);" d="M68.9,379.2c-0.4-4.6,1.4-9,3.6-13
					c2.2-4,5.2-7.6,8.2-11c6.2-6.6,13.6-12.2,21-17.4c7.6-5.2,15.4-9.4,23.6-13.6c8-4.2,16.2-8,24.4-11.8
					c8.2-3.8,16.4-7.4,24.4-11.2c8-3.8,15.8-8.2,23.6-12.6c7.8-4.4,15.4-9.2,22.6-14.4c7.4-5,14.6-10.4,21.4-16.4l0.2,0.2
					c-6.4,6.2-13.4,12-20.6,17.2c-7.2,5.4-14.8,10.2-22.4,15c-15.4,9.4-31.8,17-48,24.4c-16.2,7.6-32.6,15-47.8,24.6
					c-7.6,4.8-14.8,10.2-21.2,16.6c-3.2,3.2-6,6.6-8.4,10.4c-2.4,3.8-4.2,8-4,12.6L68.9,379.2z"/>
			</g>
		</g>
	</g>
	<g>
		<g>
			<path class="st11" d="M274.1,277.2v-57.6h37.2v8.4h-26.6v16.2h21.6v8.4h-21.6v24.8h-10.6V277.2z"/>
			<path class="st11" d="M318.3,277.2v-57.6h19.6c6.8,0,12.4,1.2,16.6,3.6c4.4,2.4,7.6,5.8,9.8,10c2.2,4.4,3.2,9.4,3.2,15.2
				c0,5.8-1,10.8-3.2,15.2c-2.2,4.4-5.4,7.6-9.8,10s-10,3.6-16.6,3.6H318.3z M328.7,268.2h8.6c4.8,0,8.6-0.8,11.4-2.4
				c2.8-1.6,4.8-3.8,6-6.8s1.8-6.4,1.8-10.6c0-4.2-0.6-7.6-1.8-10.6c-1.2-3-3.2-5.2-6-6.8s-6.6-2.4-11.4-2.4h-8.6V268.2z"/>
			<path class="st11" d="M401.7,278.2c-5.8,0-10.8-1.2-15-3.8s-7.4-6-9.6-10.4s-3.4-9.6-3.4-15.6c0-5.8,1.2-11,3.4-15.6
				c2.2-4.6,5.4-8,9.6-10.6c4.2-2.6,9.2-3.8,15-3.8c7,0,12.6,1.8,17,5.2c4.4,3.4,7.2,8.2,8.2,14.4h-11.6c-0.8-3.2-2.2-5.6-4.6-7.4
				s-5.4-2.6-9.2-2.6c-5.4,0-9.6,1.8-12.6,5.4c-3,3.6-4.6,8.6-4.6,15c0,6.4,1.6,11.2,4.6,14.8c3,3.6,7.2,5.4,12.6,5.4
				c3.8,0,7-0.8,9.2-2.6c2.4-1.6,3.8-4,4.6-7h11.6c-1,6-3.8,10.6-8.2,14C414.3,276.6,408.5,278.2,401.7,278.2z"/>
			<path class="st11" d="M453.7,278.2c-3.8,0-7.2-0.6-10.2-2s-5.6-3.4-7.4-6.2c-1.8-2.8-2.8-6.4-3-10.6h10.4c0,2.8,1,5.2,2.8,7
				c1.8,1.8,4.2,2.8,7.6,2.8c3,0,5.4-0.8,7-2.6c1.6-1.8,2.4-3.8,2.4-6.4c0-3-1-5.4-3.2-6.8c-2.2-1.6-5-2.4-8.4-2.4h-4.2v-8.6h4.4
				c2.8,0,5.2-0.6,7-2c1.8-1.4,2.8-3.2,2.8-5.8c0-2.2-0.8-3.8-2.2-5.2c-1.4-1.2-3.4-2-5.8-2c-2.6,0-4.8,0.8-6.4,2.4
				c-1.6,1.6-2.4,3.6-2.6,5.8h-10.2c0.2-5.4,2-9.6,5.6-12.6c3.4-3,8-4.6,13.6-4.6c4,0,7.2,0.8,10,2.2s4.8,3.2,6.2,5.6
				c1.4,2.4,2.2,4.8,2.2,7.6c0,3.2-0.8,6-2.6,8.2c-1.8,2.2-4,3.8-6.6,4.4c3.2,0.6,5.8,2.2,8,4.8c2,2.4,3,5.6,3,9.4
				c0,3.2-0.8,6-2.4,8.8c-1.6,2.6-3.8,4.8-6.8,6.4C461.7,277.4,458.1,278.2,453.7,278.2z"/>
		</g>
		<g>
			<path class="st12" d="M305.5,380.2c-6,0-11.4-1-16-3.2c-4.6-2-8.4-5-11-9c-2.6-3.8-4-8.6-4.2-14.2h16c0.2,3.8,1.6,7.2,4.2,9.8
				c2.6,2.6,6.2,4,11,4c4,0,7.2-1,9.6-2.8c2.4-2,3.6-4.6,3.6-7.8c0-3.4-1-6-3.2-8c-2-1.8-4.8-3.4-8.4-4.6c-3.4-1.2-7.2-2.4-11.2-3.8
				c-6.4-2.2-11.2-5-14.6-8.6c-3.4-3.4-5-8-5-13.8c0-4.8,1-9,3.4-12.6s5.6-6.2,9.8-8.2c4.2-2,9-2.8,14.4-2.8c5.6,0,10.4,1,14.6,3
				c4.2,2,7.6,4.8,10,8.2c2.4,3.6,3.6,7.8,3.8,12.6h-16.2c0-3-1.2-5.4-3.4-7.8c-2.2-2.2-5.2-3.4-9-3.4c-3.4,0-6,0.8-8.4,2.4
				c-2.2,1.6-3.4,4.2-3.4,7.4c0,2.8,0.8,5,2.6,6.6c1.8,1.6,4,3,7,4c3,1.2,6.4,2.2,10.2,3.6c4,1.4,7.8,3,11.2,5
				c3.4,1.8,6,4.4,8.2,7.4c2,3.2,3,7.2,3,12c0,4.4-1.2,8.4-3.4,12c-2.2,3.8-5.4,6.6-9.8,9C317.1,379.2,311.7,380.2,305.5,380.2z"/>
			<path class="st12" d="M340.5,378.8l30.2-82.6h17l30.2,82.6h-16l-6.6-19.2h-32.2l-6.8,19.2H340.5z M367.3,348h24l-12-34.4
				L367.3,348z"/>
			<path class="st12" d="M426.7,378.8v-82.6h15.2v82.6H426.7z"/>
			<path class="st12" d="M456.1,378.8v-82.6h15.2V367h36.6v11.8H456.1z"/>
		</g>
	</g>
</g>
</svg>
