<?xml version="1.0" encoding="utf-8"?>
<!-- Generator: Adobe Illustrator 27.0.0, SVG Export Plug-In . SVG Version: 6.00 Build 0)  -->
<svg version="1.1" id="Layer_1" xmlns="http://www.w3.org/2000/svg" xmlns:xlink="http://www.w3.org/1999/xlink" x="0px" y="0px"
	 viewBox="0 0 576.1 576" style="enable-background:new 0 0 576.1 576;" xml:space="preserve">
<style type="text/css">
	.st0{fill:#0F0F0F;}
	.st1{fill:#0F0F0F;stroke:url(#SVGID_1_);stroke-width:4;}
	.st2{fill-rule:evenodd;clip-rule:evenodd;fill:url(#SVGID_00000062895142871533471090000013840045731452623772_);}
	.st3{fill:url(#SVGID_00000047026903723411020600000007583683453476951478_);}
	.st4{fill:url(#SVGID_00000053518761119999588430000003162993584506753721_);}
	.st5{fill:url(#SVGID_00000119118519129366067990000014804416938660752053_);}
	.st6{fill:url(#SVGID_00000140005406978617269400000006210877898227221908_);}
	.st7{fill:url(#SVGID_00000067923511532026822080000017381523706091275193_);}
	.st8{fill:url(#SVGID_00000084524528547285028930000006568215241363963826_);}
	.st9{fill:url(#SVGID_00000098913746372572311810000001244489943118264988_);}
	.st10{fill:url(#SVGID_00000055670434021078090310000016094897206725235611_);}
	.st11{fill:url(#SVGID_00000140016892692051485380000011834226400896920246_);}
	.st12{fill:#50C9EF;}
	.st13{fill:#FFFFFF;}
</style>
<path class="st0" d="M470.8,576H105.2C47.1,576,0,528.9,0,470.8V105.2C0,47.1,47.1,0,105.2,0h365.7C529,0,576.1,47.1,576.1,105.2
	v365.7C576,528.9,528.9,576,470.8,576z"/>
<g>
	
		<image style="overflow:visible;opacity:0.75;" width="246" height="420" xlink:href="86FEEA3E78DBBB39.png"  transform="matrix(1 0 0 1 165 78)">
	</image>
	<g>
		<g>
			<g>
				<g>
					
						<linearGradient id="SVGID_1_" gradientUnits="userSpaceOnUse" x1="288.1" y1="245.7" x2="288.1" y2="610.5" gradientTransform="matrix(1 0 0 1 0 -140)">
						<stop  offset="0" style="stop-color:#50C9EF"/>
						<stop  offset="1" style="stop-color:#010101;stop-opacity:0.75"/>
					</linearGradient>
					<path shape-rendering="crispEdges" class="st1" d="M288.1,107.7L288.1,107.7c51.6,0,93.4,41.8,93.4,93.4v174
						c0,51.6-41.8,93.4-93.4,93.4l0,0c-51.6,0-93.4-41.8-93.4-93.4v-174C194.7,149.5,236.5,107.7,288.1,107.7z"/>
				</g>
			</g>
		</g>
	</g>
</g>
<g>
	<g>
		
			<linearGradient id="SVGID_00000177462432124875863190000012423287862093300388_" gradientUnits="userSpaceOnUse" x1="366.9464" y1="354.5854" x2="251.0527" y2="462.2014" gradientTransform="matrix(1 0 0 1 0 -140)">
			<stop  offset="0.5805" style="stop-color:#333333;stop-opacity:0"/>
			<stop  offset="1" style="stop-color:#3EC6F3"/>
		</linearGradient>
		<path style="fill-rule:evenodd;clip-rule:evenodd;fill:url(#SVGID_00000177462432124875863190000012423287862093300388_);" d="
			M332.2,182.4c0,0-0.6,1.4-2,3.9c-5,9-19.8,32.6-51.7,60.5c-40.9,35.8-34.2,64.5-34.2,64.5h87.9V182.4L332.2,182.4z"/>
		<g>
			<g>
				
					<linearGradient id="SVGID_00000015338463225254270080000017794032147787291280_" gradientUnits="userSpaceOnUse" x1="287.298" y1="121.7" x2="287.298" y2="243.869" gradientTransform="matrix(1 0 0 -1 0 433)">
					<stop  offset="0" style="stop-color:#50C9EF"/>
					<stop  offset="1" style="stop-color:#50C9EF;stop-opacity:0.6"/>
				</linearGradient>
				<path style="fill:url(#SVGID_00000015338463225254270080000017794032147787291280_);" d="M244.2,311.2
					c-0.3-6.4,1.4-12.7,3.6-18.7c2.3-6,5.4-11.6,8.9-16.9c7.1-10.7,16.3-19.7,25.5-28.4c4.7-4.3,9.4-8.5,13.8-13
					c4.5-4.4,8.7-9.1,12.8-13.9c4.1-4.8,7.9-9.9,11.5-15c3.7-5.1,7.1-10.5,10.1-16l0.1,0.1c-2.9,5.7-6.1,11.1-9.7,16.4
					c-3.5,5.3-7.3,10.4-11.3,15.3s-8.3,9.6-12.8,14.1s-9.2,8.8-13.8,13.1c-4.6,4.3-9.2,8.7-13.6,13.3c-4.3,4.6-8.4,9.5-12,14.7
					s-6.7,10.7-9.1,16.6c-2.4,5.8-4.2,12-4.1,18.4L244.2,311.2z"/>
			</g>
			<g>
				
					<linearGradient id="SVGID_00000011031475251557334500000016406061721303040136_" gradientUnits="userSpaceOnUse" x1="287.4243" y1="121.8" x2="287.4243" y2="236.3084" gradientTransform="matrix(1 0 0 -1 0 433)">
					<stop  offset="0" style="stop-color:#50C9EF"/>
					<stop  offset="1" style="stop-color:#50C9EF;stop-opacity:0.6"/>
				</linearGradient>
				<path style="fill:url(#SVGID_00000011031475251557334500000016406061721303040136_);" d="M244.2,311.2c-0.2-3,0.2-6.1,0.9-9.1
					s1.7-5.9,2.9-8.7c2.4-5.7,5.5-11,9.1-16c7.2-10,16.3-18.3,25.4-26.4c4.6-4,9.2-7.9,13.7-12s8.7-8.4,12.7-12.9s7.9-9.2,11.5-14.1
					c3.7-4.8,7-9.9,10.2-15.1l0.1,0.1c-2.9,5.3-6.2,10.5-9.7,15.4c-3.5,5-7.3,9.7-11.3,14.3s-8.2,9-12.7,13.1
					c-4.4,4.1-9.1,8.1-13.6,12.1c-4.6,4-9.1,8-13.4,12.3s-8.4,8.8-12,13.7c-3.6,4.9-6.8,10.1-9.3,15.6c-2.4,5.5-4.3,11.5-4.3,17.6
					L244.2,311.2z"/>
			</g>
			<g>
				
					<linearGradient id="SVGID_00000013163982951876770350000002131033864477789864_" gradientUnits="userSpaceOnUse" x1="287.4245" y1="121.7" x2="287.4245" y2="228.5493" gradientTransform="matrix(1 0 0 -1 0 433)">
					<stop  offset="0" style="stop-color:#50C9EF"/>
					<stop  offset="1" style="stop-color:#50C9EF;stop-opacity:0.6"/>
				</linearGradient>
				<path style="fill:url(#SVGID_00000013163982951876770350000002131033864477789864_);" d="M244.2,311.2c-0.2-2.9,0.2-5.9,1-8.7
					c0.7-2.9,1.8-5.6,3-8.3c2.5-5.4,5.7-10.3,9.3-15c7.3-9.3,16.3-17,25.3-24.4c4.5-3.7,9.1-7.3,13.5-11s8.6-7.8,12.6-11.9
					c4-4.2,7.9-8.5,11.5-13.1c3.7-4.5,7.1-9.2,10.2-14.1l0.1,0.1c-2.9,5-6.2,9.9-9.8,14.5c-3.5,4.6-7.3,9.1-11.3,13.4
					s-8.2,8.3-12.6,12.1s-8.9,7.5-13.5,11.2c-4.5,3.7-9,7.4-13.3,11.3s-8.4,8.1-12,12.7c-3.7,4.5-6.9,9.4-9.4,14.6
					s-4.5,10.9-4.4,16.7L244.2,311.2z"/>
			</g>
			<g>
				
					<linearGradient id="SVGID_00000168092442141487528990000001647121421099708815_" gradientUnits="userSpaceOnUse" x1="287.3778" y1="121.8" x2="287.3778" y2="220.992" gradientTransform="matrix(1 0 0 -1 0 433)">
					<stop  offset="0" style="stop-color:#50C9EF"/>
					<stop  offset="1" style="stop-color:#50C9EF;stop-opacity:0.6"/>
				</linearGradient>
				<path style="fill:url(#SVGID_00000168092442141487528990000001647121421099708815_);" d="M244.2,311.2c-0.2-2.8,0.3-5.6,1-8.3
					c0.8-2.7,1.9-5.3,3.1-7.9c2.5-5,5.8-9.7,9.5-14c7.3-8.6,16.3-15.6,25.1-22.4c4.5-3.3,9-6.6,13.3-10.1c4.4-3.4,8.5-7.1,12.5-11
					c4-3.8,7.8-7.9,11.5-12.1s7.1-8.6,10.3-13.2l0.1,0.1c-3,4.7-6.3,9.2-9.9,13.5s-7.3,8.4-11.3,12.4c-7.9,8-16.9,14.7-25.8,21.4
					s-17.8,13.6-25.2,22c-3.7,4.2-7,8.7-9.6,13.6S244.1,305.5,244.2,311.2L244.2,311.2L244.2,311.2z"/>
			</g>
			<g>
				
					<linearGradient id="SVGID_00000080892261701984088190000010540561108345385610_" gradientUnits="userSpaceOnUse" x1="287.4279" y1="121.8" x2="287.4279" y2="213.3365" gradientTransform="matrix(1 0 0 -1 0 433)">
					<stop  offset="0" style="stop-color:#50C9EF"/>
					<stop  offset="1" style="stop-color:#50C9EF;stop-opacity:0.6"/>
				</linearGradient>
				<path style="fill:url(#SVGID_00000080892261701984088190000010540561108345385610_);" d="M244.2,311.2c-0.2-2.7,0.3-5.4,1.1-8
					s2-5,3.2-7.4c2.6-4.7,6-9,9.7-13c7.4-7.9,16.2-14.2,25-20.4c4.4-3,8.8-6,13.1-9.2c4.3-3.1,8.4-6.5,12.4-10s7.8-7.2,11.5-11.1
					c3.7-3.8,7.1-7.9,10.4-12.2l0.1,0.1c-3,4.4-6.4,8.6-10,12.6s-7.4,7.8-11.3,11.4c-7.8,7.3-16.7,13.4-25.5,19.5s-17.5,12.3-25,20
					c-3.7,3.8-7.1,8-9.8,12.6c-1.3,2.3-2.5,4.7-3.4,7.2s-1.5,5.2-1.4,7.8L244.2,311.2z"/>
			</g>
			<g>
				
					<linearGradient id="SVGID_00000147919088739830814340000016370087173996424587_" gradientUnits="userSpaceOnUse" x1="287.3803" y1="121.8" x2="287.3803" y2="205.6833" gradientTransform="matrix(1 0 0 -1 0 433)">
					<stop  offset="0" style="stop-color:#50C9EF"/>
					<stop  offset="1" style="stop-color:#50C9EF;stop-opacity:0.6"/>
				</linearGradient>
				<path style="fill:url(#SVGID_00000147919088739830814340000016370087173996424587_);" d="M244.2,311.2c-0.1-1.3,0-2.6,0.2-3.9
					s0.6-2.5,1-3.7c0.9-2.4,2.1-4.7,3.4-7c2.7-4.4,6.2-8.3,9.9-11.9c7.5-7.2,16.2-12.8,24.8-18.4c4.3-2.7,8.7-5.4,12.9-8.3
					c4.3-2.8,8.3-5.9,12.3-9c4-3.2,7.8-6.6,11.4-10.1c3.7-3.5,7.2-7.2,10.4-11.2l0.1,0.1c-3,4.1-6.5,8-10,11.6
					c-3.6,3.7-7.4,7.1-11.3,10.4c-7.8,6.6-16.5,12.1-25.1,17.6s-17.3,11.1-24.8,18c-3.7,3.5-7.2,7.3-10,11.6
					c-1.4,2.1-2.7,4.4-3.6,6.7C244.9,306.1,244.2,308.6,244.2,311.2L244.2,311.2z"/>
			</g>
			<g>
				
					<linearGradient id="SVGID_00000112616942410658429930000000542167801835335579_" gradientUnits="userSpaceOnUse" x1="287.3808" y1="121.8" x2="287.3808" y2="198.0323" gradientTransform="matrix(1 0 0 -1 0 433)">
					<stop  offset="0" style="stop-color:#50C9EF"/>
					<stop  offset="1" style="stop-color:#50C9EF;stop-opacity:0.6"/>
				</linearGradient>
				<path style="fill:url(#SVGID_00000112616942410658429930000000542167801835335579_);" d="M244.2,311.2c-0.2-2.5,0.4-5,1.4-7.2
					c1-2.3,2.2-4.4,3.6-6.5c2.9-4.1,6.4-7.6,10.1-10.9c3.7-3.3,7.8-6.1,11.9-8.8s8.4-5.2,12.6-7.7c4.3-2.4,8.5-4.8,12.7-7.4
					c4.2-2.5,8.2-5.3,12.1-8.1c3.9-2.9,7.7-5.9,11.4-9.1c3.7-3.2,7.2-6.6,10.5-10.2l0.1,0.1c-3.1,3.8-6.5,7.3-10.1,10.6
					s-7.4,6.5-11.3,9.4c-7.8,6-16.3,10.9-24.8,15.8s-17,9.8-24.5,16.1c-3.8,3.1-7.3,6.6-10.2,10.5c-1.4,2-2.8,4-3.8,6.3
					C244.9,306.4,244.2,308.8,244.2,311.2L244.2,311.2z"/>
			</g>
			<g>
				
					<linearGradient id="SVGID_00000178907571956793408640000000938324857650865815_" gradientUnits="userSpaceOnUse" x1="287.383" y1="121.8" x2="287.383" y2="190.3837" gradientTransform="matrix(1 0 0 -1 0 433)">
					<stop  offset="0" style="stop-color:#50C9EF"/>
					<stop  offset="1" style="stop-color:#50C9EF;stop-opacity:0.6"/>
				</linearGradient>
				<path style="fill:url(#SVGID_00000178907571956793408640000000938324857650865815_);" d="M244.2,311.2c-0.2-2.4,0.5-4.8,1.6-6.9
					s2.4-4.1,3.8-6c3-3.7,6.6-6.9,10.3-9.8c3.7-2.9,7.8-5.4,11.8-7.8c4.1-2.4,8.2-4.6,12.4-6.8c4.2-2.1,8.3-4.2,12.4-6.5
					c4.1-2.2,8.1-4.7,12-7.2s7.7-5.3,11.4-8.1c3.7-2.8,7.2-5.9,10.6-9.2l0.1,0.1c-3.2,3.5-6.6,6.6-10.2,9.6s-7.4,5.8-11.2,8.4
					c-7.7,5.3-16.1,9.7-24.4,14s-16.7,8.6-24.2,14.2c-3.8,2.8-7.4,5.8-10.4,9.4c-1.5,1.8-2.9,3.7-4,5.8c-1.1,2.1-1.9,4.3-1.8,6.7
					L244.2,311.2z"/>
			</g>
			<g>
				
					<linearGradient id="SVGID_00000039118396635700812900000017019338766729138320_" gradientUnits="userSpaceOnUse" x1="287.436" y1="121.8" x2="287.436" y2="182.7378" gradientTransform="matrix(1 0 0 -1 0 433)">
					<stop  offset="0" style="stop-color:#50C9EF"/>
					<stop  offset="1" style="stop-color:#50C9EF;stop-opacity:0.6"/>
				</linearGradient>
				<path style="fill:url(#SVGID_00000039118396635700812900000017019338766729138320_);" d="M244.2,311.2c-0.2-2.3,0.7-4.5,1.8-6.5
					s2.6-3.8,4.1-5.5c3.1-3.3,6.8-6.1,10.5-8.7c3.8-2.6,7.7-4.7,11.8-6.8c4-2.1,8.1-4,12.2-5.9s8.2-3.7,12.2-5.6s7.9-4.1,11.8-6.3
					c3.9-2.2,7.7-4.6,11.3-7.2c3.7-2.5,7.3-5.2,10.7-8.2l0.1,0.1c-3.2,3.1-6.7,6-10.3,8.6c-3.6,2.7-7.4,5.1-11.2,7.5
					c-7.7,4.7-15.9,8.5-24,12.2c-8.1,3.8-16.3,7.5-23.9,12.3c-3.8,2.4-7.4,5.1-10.6,8.3c-1.6,1.6-3,3.3-4.2,5.2
					c-1.2,1.9-2.1,4-2,6.3L244.2,311.2z"/>
			</g>
		</g>
	</g>
	<g>
		<g>
			<path class="st12" d="M245.9,356.1v-21h13.6v3.1h-9.7v5.9h7.9v3h-7.9v9H245.9z"/>
			<path class="st12" d="M261.9,356.1v-21h7.2c2.5,0,4.5,0.4,6.1,1.3s2.8,2.1,3.5,3.7c0.8,1.6,1.2,3.4,1.2,5.5s-0.4,4-1.2,5.5
				c-0.8,1.6-2,2.8-3.5,3.7s-3.6,1.3-6.1,1.3H261.9z M265.8,352.9h3.2c1.8,0,3.1-0.3,4.2-0.9c1-0.6,1.8-1.4,2.2-2.5
				c0.4-1.1,0.7-2.4,0.7-3.9s-0.2-2.8-0.7-3.9c-0.4-1.1-1.2-1.9-2.2-2.5s-2.4-0.9-4.2-0.9h-3.2V352.9z"/>
			<path class="st12" d="M292.3,356.5c-2.1,0-3.9-0.5-5.5-1.4s-2.7-2.2-3.5-3.8c-0.8-1.6-1.2-3.5-1.2-5.7s0.4-4,1.2-5.7
				c0.8-1.6,2-2.9,3.5-3.8s3.3-1.4,5.5-1.4c2.5,0,4.6,0.6,6.2,1.9s2.6,3,3,5.3h-4.2c-0.3-1.1-0.8-2-1.7-2.7c-0.9-0.6-2-1-3.4-1
				c-1.9,0-3.5,0.7-4.6,2s-1.6,3.1-1.6,5.4s0.5,4.1,1.6,5.4s2.6,2,4.6,2c1.4,0,2.5-0.3,3.4-0.9c0.8-0.6,1.4-1.5,1.7-2.5h4.2
				c-0.4,2.2-1.4,3.9-3,5.1S294.8,356.5,292.3,356.5z"/>
			<path class="st12" d="M311.3,356.5c-1.4,0-2.6-0.2-3.8-0.7s-2-1.2-2.7-2.3c-0.7-1-1-2.3-1.1-3.8h3.8c0,1,0.4,1.9,1,2.6
				s1.6,1,2.7,1s2-0.3,2.6-0.9s0.9-1.4,0.9-2.3c0-1.1-0.4-1.9-1.2-2.5c-0.8-0.6-1.8-0.9-3-0.9h-1.6v-3.2h1.6c1,0,1.9-0.2,2.5-0.7
				c0.7-0.5,1-1.2,1-2.1c0-0.8-0.3-1.4-0.8-1.9s-1.2-0.7-2.1-0.7c-1,0-1.7,0.3-2.3,0.9s-0.9,1.3-0.9,2.1h-3.8c0.1-1.9,0.8-3.5,2-4.6
				c1.3-1.1,2.9-1.7,4.9-1.7c1.4,0,2.7,0.3,3.6,0.8c1,0.5,1.7,1.2,2.2,2s0.8,1.8,0.8,2.8c0,1.2-0.3,2.2-1,3s-1.5,1.4-2.4,1.6
				c1.2,0.2,2.1,0.8,2.9,1.7c0.7,0.9,1.1,2.1,1.1,3.4c0,1.2-0.3,2.2-0.8,3.2s-1.4,1.7-2.4,2.3C314.1,356.2,312.8,356.5,311.3,356.5z
				"/>
		</g>
		<g>
			<path class="st13" d="M257.3,393.6c-2.2,0-4.2-0.4-5.8-1.1c-1.7-0.8-3-1.8-4-3.3s-1.5-3.1-1.5-5.2h5.8c0.1,1.4,0.6,2.6,1.5,3.5
				c1,1,2.3,1.4,4,1.4c1.5,0,2.6-0.4,3.5-1.1s1.3-1.6,1.3-2.8c0-1.2-0.4-2.2-1.1-2.9c-0.8-0.7-1.8-1.2-3-1.7c-1.3-0.4-2.6-0.9-4-1.4
				c-2.3-0.8-4.1-1.8-5.3-3.1c-1.2-1.3-1.8-2.9-1.8-5c0-1.8,0.4-3.3,1.3-4.6c0.9-1.3,2.1-2.3,3.6-3s3.3-1.1,5.2-1.1
				c2,0,3.8,0.4,5.3,1.1s2.7,1.7,3.6,3s1.3,2.8,1.4,4.6h-5.9c0-1.1-0.4-2-1.2-2.8c-0.8-0.8-1.9-1.2-3.3-1.2c-1.2,0-2.2,0.3-3,0.9
				s-1.2,1.5-1.2,2.7c0,1,0.3,1.8,0.9,2.4s1.5,1.1,2.6,1.5c1.1,0.4,2.3,0.8,3.7,1.3c1.5,0.5,2.9,1.1,4.1,1.8c1.2,0.7,2.2,1.6,3,2.7
				c0.7,1.1,1.1,2.6,1.1,4.4c0,1.6-0.4,3-1.2,4.4c-0.8,1.3-2,2.4-3.6,3.2C261.5,393.2,259.6,393.6,257.3,393.6z"/>
			<path class="st13" d="M270,393.1l11-30.1h6.2l11,30.1h-5.8l-2.4-7h-11.7l-2.5,7H270z M279.8,381.9h8.7l-4.4-12.5L279.8,381.9z"/>
			<path class="st13" d="M301.4,393.1V363h5.5v30.1H301.4z"/>
			<path class="st13" d="M312.1,393.1V363h5.5v25.8h13.3v4.3L312.1,393.1L312.1,393.1z"/>
		</g>
	</g>
</g>
</svg>
