<?xml version="1.0" encoding="utf-8"?>
<!-- Generator: Adobe Illustrator 24.1.0, SVG Export Plug-In . SVG Version: 6.00 Build 0)  -->
<svg version="1.1" id="Layer_1" xmlns="http://www.w3.org/2000/svg" xmlns:xlink="http://www.w3.org/1999/xlink" x="0px" y="0px"
	 viewBox="0 0 720 117.41" style="enable-background:new 0 0 720 117.41;" xml:space="preserve">
<style type="text/css">
	.st0{fill:#97999B;}
	.st1{fill:#484848;}
	.st2{fill:#58B947;}
</style>
<g>
	<path class="st0" d="M492.36,70.15h7.72l-6.69-11.53c3.46-1.75,5.79-5.25,5.79-9.11c0-5.97-4.8-10.77-10.77-10.77h-12.57v31.42
		h7.18V59.83h3.41L492.36,70.15L492.36,70.15z M483.03,45.47h5.39c1.97,0,3.59,1.75,3.59,4.04c0,2.29-1.62,4.04-3.59,4.04h-5.39
		V45.47L483.03,45.47z M508.12,61.62h15.93c0.18-0.85,0.27-1.75,0.27-2.69c0-6.78-4.85-11.85-11.4-11.85
		c-7.09,0-11.94,5.16-11.94,11.85c0,6.69,4.76,11.85,12.43,11.85c4.26,0,7.58-1.57,9.78-4.62l-5.39-3.1
		c-0.9,0.99-2.47,1.71-4.31,1.71C511.03,64.76,508.97,63.96,508.12,61.62L508.12,61.62z M507.98,56.6c0.63-2.29,2.33-3.55,4.89-3.55
		c2.02,0,4.04,0.94,4.76,3.55H507.98L507.98,56.6z M538.68,70.78c4.4,0,8.21-2.29,10.14-5.79l-5.88-3.37
		c-0.72,1.57-2.38,2.51-4.35,2.51c-2.92,0-5.07-2.11-5.07-5.21c0-3.1,2.15-5.21,5.07-5.21c1.97,0,3.59,0.94,4.35,2.51l5.88-3.41
		c-1.93-3.46-5.79-5.74-10.14-5.74c-6.82,0-11.89,5.16-11.89,11.85C526.79,65.62,531.86,70.78,538.68,70.78L538.68,70.78z
		 M561.84,70.78c6.6,0,11.89-5.16,11.89-11.85c0-6.69-5.3-11.85-11.89-11.85c-6.6,0-11.89,5.16-11.89,11.85
		C549.95,65.62,555.24,70.78,561.84,70.78L561.84,70.78z M561.84,64.23c-2.92,0-5.16-2.11-5.16-5.3c0-3.19,2.24-5.3,5.16-5.3
		c2.92,0,5.16,2.11,5.16,5.3C567,62.12,564.76,64.23,561.84,64.23L561.84,64.23z M594.02,47.71V50c-1.48-1.84-3.64-2.92-6.55-2.92
		c-6.37,0-11.04,5.21-11.04,11.4c0,6.19,4.67,11.4,11.04,11.4c2.92,0,5.07-1.08,6.55-2.92v2.07c0,3.19-1.93,4.8-5.07,4.8
		c-2.96,0-4.26-1.26-5.12-2.83l-5.74,3.32c2.06,3.68,5.97,5.43,10.64,5.43c5.97,0,11.85-3.19,11.85-10.73V47.71H594.02L594.02,47.71
		z M588.59,63.69c-3.19,0-5.43-2.11-5.43-5.21c0-3.1,2.24-5.21,5.43-5.21c3.19,0,5.43,2.11,5.43,5.21
		C594.02,61.58,591.78,63.69,588.59,63.69L588.59,63.69z M618.66,47.08c-2.96,0-5.21,1.08-6.42,2.74v-2.11h-6.73v22.44h6.73V57.9
		c0-3.19,1.7-4.62,4.17-4.62c2.15,0,3.9,1.3,3.9,4.08v12.79h6.73V56.37C627.05,50.31,623.19,47.08,618.66,47.08L618.66,47.08z
		 M635.04,45.73c2.2,0,4.04-1.84,4.04-4.04c0-2.2-1.84-4.04-4.04-4.04c-2.2,0-4.04,1.84-4.04,4.04
		C631,43.89,632.84,45.73,635.04,45.73L635.04,45.73z M631.67,70.15h6.73V47.71h-6.73V70.15L631.67,70.15z M656.49,54.17v-6.46
		h-4.62v-6.28l-6.73,2.02v4.26h-3.59v6.46h3.59v7.94c0,6.28,2.56,8.93,11.35,8.03v-6.1c-2.96,0.18-4.62,0-4.62-1.93v-7.94H656.49
		L656.49,54.17z M663.67,45.73c2.2,0,4.04-1.84,4.04-4.04c0-2.2-1.84-4.04-4.04-4.04c-2.2,0-4.04,1.84-4.04,4.04
		C659.64,43.89,661.47,45.73,663.67,45.73L663.67,45.73z M660.31,70.15h6.73V47.71h-6.73V70.15L660.31,70.15z M682.75,70.78
		c6.6,0,11.89-5.16,11.89-11.85c0-6.69-5.3-11.85-11.89-11.85c-6.6,0-11.89,5.16-11.89,11.85
		C670.85,65.62,676.15,70.78,682.75,70.78L682.75,70.78z M682.75,64.23c-2.92,0-5.16-2.11-5.16-5.3c0-3.19,2.24-5.3,5.16-5.3
		c2.92,0,5.16,2.11,5.16,5.3C687.91,62.12,685.67,64.23,682.75,64.23L682.75,64.23z M711.61,47.08c-2.96,0-5.21,1.08-6.42,2.74
		v-2.11h-6.73v22.44h6.73V57.9c0-3.19,1.71-4.62,4.17-4.62c2.15,0,3.91,1.3,3.91,4.08v12.79H720V56.37
		C720,50.31,716.14,47.08,711.61,47.08L711.61,47.08z"/>
	<path class="st1" d="M331.24,70.78c6.82,0,11.67-3.59,11.67-9.65c0-6.64-5.34-8.3-10.1-9.74c-4.89-1.48-5.65-2.47-5.65-3.9
		c0-1.26,1.12-2.38,3.37-2.38c2.87,0,4.35,1.39,5.43,3.64l6.06-3.55c-2.29-4.62-6.33-7.09-11.49-7.09c-5.43,0-10.55,3.5-10.55,9.56
		c0,6.01,4.58,8.26,9.25,9.56c4.71,1.3,6.51,2.06,6.51,3.99c0,1.21-0.85,2.56-4.26,2.56c-3.55,0-5.48-1.75-6.6-4.35l-6.19,3.59
		C320.42,67.64,324.64,70.78,331.24,70.78L331.24,70.78z M359.69,47.08c-3.01,0-5.21,1.03-6.69,2.74v-2.11h-6.73v31.42h6.73V68.04
		c1.48,1.71,3.68,2.74,6.69,2.74c5.88,0,10.73-5.16,10.73-11.85C370.42,52.24,365.57,47.08,359.69,47.08L359.69,47.08z M358.35,64.4
		c-3.1,0-5.34-2.11-5.34-5.48c0-3.37,2.24-5.48,5.34-5.48c3.1,0,5.34,2.11,5.34,5.48C363.69,62.3,361.44,64.4,358.35,64.4
		L358.35,64.4z M380.25,61.62h15.93c0.18-0.85,0.27-1.75,0.27-2.69c0-6.78-4.85-11.85-11.4-11.85c-7.09,0-11.94,5.16-11.94,11.85
		c0,6.69,4.76,11.85,12.43,11.85c4.26,0,7.59-1.57,9.78-4.62l-5.39-3.1c-0.9,0.99-2.47,1.71-4.31,1.71
		C383.17,64.76,381.1,63.96,380.25,61.62L380.25,61.62z M380.11,56.6c0.63-2.29,2.33-3.55,4.89-3.55c2.02,0,4.04,0.94,4.76,3.55
		H380.11L380.11,56.6z M406.06,61.62h15.93c0.18-0.85,0.27-1.75,0.27-2.69c0-6.78-4.85-11.85-11.4-11.85
		c-7.09,0-11.94,5.16-11.94,11.85c0,6.69,4.76,11.85,12.43,11.85c4.26,0,7.58-1.57,9.78-4.62l-5.39-3.1
		c-0.9,0.99-2.47,1.71-4.31,1.71C408.97,64.76,406.91,63.96,406.06,61.62L406.06,61.62z M405.92,56.6c0.63-2.29,2.33-3.55,4.89-3.55
		c2.02,0,4.04,0.94,4.76,3.55H405.92L405.92,56.6z M436.62,70.78c4.4,0,8.21-2.29,10.14-5.79l-5.88-3.37
		c-0.72,1.57-2.38,2.51-4.35,2.51c-2.92,0-5.07-2.11-5.07-5.21c0-3.1,2.15-5.21,5.07-5.21c1.97,0,3.59,0.94,4.35,2.51l5.88-3.41
		c-1.93-3.46-5.79-5.74-10.14-5.74c-6.82,0-11.89,5.16-11.89,11.85C424.73,65.62,429.8,70.78,436.62,70.78L436.62,70.78z
		 M462.61,47.08c-2.96,0-5.21,1.08-6.42,2.74V38.73h-6.73v31.42h6.73V57.9c0-3.19,1.71-4.62,4.17-4.62c2.15,0,3.9,1.3,3.9,4.08
		v12.79H471V56.37C471,50.31,467.14,47.08,462.61,47.08L462.61,47.08z"/>
	<path class="st2" d="M79.75,80.81l-0.1,0.07c-0.56,0.4-9.02,6.21-21.7,8.34l-0.12-0.02c-0.67-0.11-10.77-1.99-21.24-9.44l-0.07-0.1
		c-0.39-0.56-6.21-9.02-8.34-21.69l0.02-0.12c0.12-0.67,1.99-10.77,9.44-21.24l0.1-0.07c0.56-0.39,9.02-6.21,21.69-8.34l0.12,0.02
		c0.67,0.12,10.77,1.99,21.24,9.44l0.07,0.1c0.39,0.56,6.21,9.02,8.34,21.69l-0.02,0.12C89.08,60.24,87.21,70.33,79.75,80.81
		 M111.64,85.18c-0.07-10.39-2.31-20.3-6.64-29.47c-6.42-13.57-16.26-21.97-25.03-27.08c2.26,0.49,4.58,1.13,6.94,1.98
		c8.55,3.06,16.27,7.94,22.92,14.49l2.56,2.52l5.04-5.11l-2.56-2.52c-7.4-7.29-15.99-12.72-25.53-16.14
		c-14.13-5.06-27.03-4.04-36.85-1.45c1.95-1.26,4.04-2.43,6.31-3.51c8.21-3.88,17.12-5.88,26.46-5.95l3.59-0.03l-0.06-7.17
		l-3.59,0.03c-10.39,0.08-20.31,2.31-29.47,6.64c-13.57,6.42-21.97,16.26-27.08,25.03c0.49-2.26,1.13-4.58,1.98-6.94
		c3.07-8.55,7.94-16.26,14.5-22.92l2.52-2.56L42.51,0L40,2.56c-7.29,7.4-12.72,15.99-16.14,25.53c-5.06,14.13-4.04,27.03-1.45,36.84
		c-1.26-1.95-2.44-4.04-3.5-6.3c-3.88-8.21-5.88-17.12-5.96-26.46l-0.03-3.59l-7.17,0.06l0.02,3.59
		c0.08,10.39,2.31,20.31,6.64,29.47c6.42,13.57,16.26,21.96,25.03,27.08c-2.26-0.49-4.58-1.13-6.94-1.98
		c-8.55-3.07-16.26-7.94-22.92-14.5l-2.56-2.52L0,74.9l2.55,2.52c7.41,7.29,16,12.72,25.54,16.14c14.13,5.06,27.03,4.04,36.85,1.45
		c-1.95,1.26-4.04,2.44-6.31,3.51c-8.21,3.88-17.11,5.89-26.46,5.96l-3.59,0.03l0.05,7.18l3.59-0.03
		c10.39-0.08,20.31-2.31,29.47-6.64c13.57-6.41,21.96-16.26,27.08-25.03c-0.49,2.27-1.14,4.58-1.98,6.94
		c-3.07,8.55-7.94,16.26-14.5,22.92l-2.52,2.56l5.11,5.03l2.52-2.56c7.29-7.41,12.72-15.99,16.14-25.53
		c5.06-14.13,4.04-27.03,1.45-36.85c1.26,1.95,2.44,4.04,3.51,6.31c3.88,8.21,5.88,17.11,5.96,26.46l0.03,3.58l7.18-0.05
		L111.64,85.18L111.64,85.18z"/>
	<polygon class="st2" points="72.22,58.7 58.71,37.87 45.19,58.7 58.7,79.54 72.22,58.7 	"/>
	<path class="st1" d="M157.32,77.02c7.67,0.01,13.35-5.07,13.36-12.49l0.01-5.25c0.01-7.42-5.65-12.6-13.32-12.61
		c-6.59-0.01-13.26,3.9-13.28,12.57l-0.01,5.25C144.07,73.07,150.73,77,157.32,77.02 M152.44,102.93l0.01-6.76l3.33,0.01
		c6.84,0.01,14.84-1.97,14.86-11.73l0.01-5.17c-3.67,3-8.51,4.49-13.35,4.48c-10.01-0.02-20-6.62-19.98-19.29l0.01-5.25
		c0.02-12.67,10.03-19.32,20.04-19.31c4.84,0.01,9.67,1.51,13.33,4.52v-0.83l0-0.33l0-3.34l6.76,0.01l0,3.34l0,0.33l-0.06,40.85
		c-0.01,5.5-1.93,10.25-5.69,13.5c-3.84,3.24-9.18,4.98-15.93,4.97L152.44,102.93L152.44,102.93z"/>
	<polygon class="st1" points="183.08,83.81 183.16,23.79 189.92,23.8 189.86,63.15 213.07,40.01 222.83,40.03 202.37,60.25 
		223.6,83.87 214.59,83.86 197.7,64.91 189.85,72.65 189.83,83.82 183.08,83.81 	"/>
	<polygon class="st0" points="268.19,4.85 268.19,112.56 270.34,112.56 270.34,4.85 268.19,4.85 	"/>
</g>
</svg>
