<?xml version="1.0" encoding="utf-8"?>
<!-- Generator: Adobe Illustrator 24.1.0, SVG Export Plug-In . SVG Version: 6.00 Build 0)  -->
<svg version="1.1" id="Layer_1" xmlns="http://www.w3.org/2000/svg" xmlns:xlink="http://www.w3.org/1999/xlink" x="0px" y="0px"
	 viewBox="0 0 548.23 540" style="enable-background:new 0 0 548.23 540;" xml:space="preserve">
<style type="text/css">
	.st0{fill:#97999A;}
	.st1{fill:#53535A;}
	.st2{fill:#00B6BC;}
	.st3{fill:#9ED5D9;}
	.st4{fill:#C8C9C6;}
	.st5{fill:#FBE300;}
	.st6{fill:#545C63;}
	.st7{fill:#848C8C;}
	.st8{fill:#DDE5ED;}
	.st9{fill:#545D63;}
	.st10{fill:#ECF0F4;}
	.st11{fill:#9B9CA0;}
</style>
<g>
	<path class="st0" d="M441.62,497.57v-6.88c0,9.37-7.6,16.97-16.97,16.97H123.58c-9.37,0-16.97-7.6-16.97-16.97v6.88
		c0,23.43,19,42.43,42.43,42.43h250.15C422.62,540,441.62,521,441.62,497.57L441.62,497.57z"/>
	<path class="st1" d="M106.53,404.93c0.25,1.26,0.71,2.52,0.72,3.79c0.04,23.18,0.05,46.36,0,69.54c0,1.45-0.5,2.9-0.77,4.35
		c-9.6-1.1-15.44-7.29-15.68-16.82c-0.14-5.48-0.03-10.96-0.03-17.36c-6.4,0-12.56-0.24-18.69,0.07c-5.53,0.28-8.71-2.04-10.9-7.04
		c-12.28-28.02-24.87-55.89-36.96-83.99c-1.49-3.46-1.69-8.29-0.59-11.9c7.66-25.29,15.98-50.38,23.68-75.66
		c1.32-4.33,1.63-9.41,0.85-13.88c-3.31-18.98-7.21-37.85-10.9-56.77c5.65-1.14,11.29-2.28,16.94-3.42
		c4.48,21.64,9.04,43.27,13.33,64.95c0.52,2.62,0.01,5.68-0.79,8.3c-7.66,25.1-15.37,50.19-23.34,75.2
		c-1.49,4.67-1.21,8.67,0.68,13.08C53.15,378.54,62.04,399.78,71,421c4.87,11.55,6.3,12.36,19.69,10.75
		C90.65,419.82,89.8,407.03,106.53,404.93L106.53,404.93z"/>
	<path class="st2" d="M37.91,200.59c20.94,0,37.91-17.52,37.91-39.14c0-21.61-16.97-39.14-37.91-39.14S0,139.84,0,161.46
		C0,183.07,16.97,200.59,37.91,200.59"/>
	<path class="st3" d="M47.42,158.19c-7.76,0-14.05-6.32-14.05-14.12c0-7.8,6.29-14.12,14.05-14.12c7.76,0,14.05,6.32,14.05,14.12
		C61.47,151.86,55.18,158.19,47.42,158.19"/>
	<path class="st1" d="M441.7,404.93c-0.25,1.26-0.71,2.52-0.72,3.79c-0.04,23.18-0.05,46.36,0,69.54c0,1.45,0.5,2.9,0.77,4.35
		c9.6-1.1,15.44-7.29,15.68-16.82c0.14-5.48,0.03-10.96,0.03-17.36c6.4,0,12.56-0.24,18.7,0.07c5.53,0.28,8.71-2.04,10.9-7.04
		c12.28-28.02,24.87-55.89,36.96-83.99c1.49-3.46,1.69-8.29,0.59-11.9c-7.66-25.29-15.98-50.38-23.68-75.66
		c-1.32-4.33-1.63-9.41-0.85-13.88c3.32-18.98,7.22-37.85,10.9-56.77c-5.65-1.14-11.29-2.28-16.94-3.42
		c-4.48,21.64-9.04,43.27-13.33,64.95c-0.52,2.62,0,5.68,0.79,8.3c7.66,25.1,15.37,50.19,23.34,75.2c1.49,4.67,1.21,8.67-0.68,13.08
		c-9.09,21.16-17.98,42.41-26.93,63.63c-4.87,11.55-6.3,12.36-19.69,10.75C457.58,419.82,458.43,407.03,441.7,404.93L441.7,404.93z"
		/>
	<path class="st2" d="M510.32,200.59c20.94,0,37.91-17.52,37.91-39.14c0-21.61-16.97-39.14-37.91-39.14
		c-20.94,0-37.91,17.52-37.91,39.14C472.41,183.07,489.38,200.59,510.32,200.59"/>
	<path class="st3" d="M519.83,158.19c-7.76,0-14.05-6.32-14.05-14.12c0-7.8,6.29-14.12,14.05-14.12c7.76,0,14.05,6.32,14.05,14.12
		C533.88,151.86,527.59,158.19,519.83,158.19"/>
	<path class="st4" d="M265.73,128.34c-87.88,0-159.12,71.24-159.12,159.12v203.23c0,9.37,7.6,16.97,16.97,16.97h301.07
		c9.37,0,16.97-7.6,16.97-16.97V287.46c0-87.88-71.24-159.12-159.12-159.12H265.73"/>
	<path class="st5" d="M204.2,9.52c5.37,2.19,11,3.92,16.04,6.7c6.28,3.47,12.02,7.88,18.08,11.77c5.82,3.74,7.62,3.35,11.44-2.59
		c2.65-4.14,4.91-8.53,7.54-12.69c1.51-2.39,3.19-4.73,5.15-6.75c7.69-7.95,17.68-8.08,24.73,0.4c4.56,5.48,7.89,11.97,11.72,18.05
		c4.39,6.96,6.16,7.32,13.14,2.91c7.51-4.74,14.77-10.05,22.73-13.88c14.15-6.79,23.65-2.48,26.48,12.77
		c2.74,14.79,11.58,23.57,24.78,27.49c18.07,5.36,36.61,9.22,55.01,13.42c12.42,2.84,24.8,5.69,35.22,13.48
		c3.76,2.81,7.48,5.98,10.19,9.72c1.31,1.8,1.33,6.4-0.04,7.77c-1.56,1.57-6.69,2.31-7.9,1.08C459.59,79.97,434,80.09,410.21,75.03
		c-12.75-2.71-25.54-5.27-38.2-8.39c-10.76-2.65-17.48-10.14-21.49-20.19c-1.96-4.92-3.56-9.97-5.54-14.88
		c-2.11-5.23-3.48-5.61-7.81-2.12c-4.27,3.44-8.17,7.37-12.53,10.69c-4.04,3.09-8.24,6.15-12.8,8.35
		c-7.89,3.82-13.69,2.5-19.14-4.35c-4.46-5.62-8.14-11.84-12.32-17.69c-4.48-6.27-6.96-6.28-11.49,0.08
		c-3.73,5.24-6.96,10.85-10.82,15.99c-6.66,8.86-13.14,10.6-22.66,4.83c-7.39-4.47-13.99-10.29-20.69-15.82
		c-7.3-6.03-9.46-6.12-11.3,2.81c-5.78,28.15-26.98,34.72-50.98,38.58c-17.91,2.88-35.74,6.41-53.46,10.32
		c-10.09,2.22-19.21,6.96-26.44,14.71c-2.98,3.19-6.34,3.33-9.58,0.66c-3.44-2.84-2.37-6.08,0.05-8.96
		c8.21-9.78,18.89-15.9,31.05-18.88c15.97-3.92,32.2-6.82,48.25-10.44c12.2-2.76,24.27-6.07,34.46-13.88
		c5.47-4.19,8.86-9.57,10.3-16.44c0.92-4.38,2.46-8.76,4.48-12.76C193.99,12.46,198.45,10.39,204.2,9.52L204.2,9.52z"/>
	<path class="st0" d="M358.39,153.55c-14.2-3.67-28.35-7.54-42.62-10.92c-7.87-1.87-13.87-5.68-17.41-13.05
		c-3.07-9.24-0.6-17.56,5.85-24.06c6.5-6.56,14.72-6.47,23.28-3.35c33.06,12.05,66.21,23.83,99.3,35.79
		c2.47,0.89,4.88,2.13,7.09,3.56c7.15,4.61,9.26,11.58,6.19,19.78c-2.2,5.88-8,9.02-16,7.66c-8.75-1.49-17.39-3.62-26.03-5.68
		C384.81,160.13,371.61,156.8,358.39,153.55L358.39,153.55z"/>
	<path class="st0" d="M189.84,153.55c14.2-3.67,28.35-7.54,42.62-10.92c7.87-1.87,13.87-5.68,17.41-13.05
		c3.07-9.24,0.6-17.56-5.85-24.06c-6.5-6.56-14.72-6.47-23.28-3.35c-33.06,12.05-66.21,23.83-99.3,35.79
		c-2.47,0.89-4.88,2.13-7.09,3.56c-7.15,4.61-9.26,11.58-6.19,19.78c2.2,5.88,8,9.02,16,7.66c8.75-1.49,17.39-3.62,26.03-5.68
		C163.43,160.13,176.62,156.8,189.84,153.55L189.84,153.55z"/>
	<path class="st6" d="M331.66,401.96l-0.28-0.03c-0.89-0.19-1.83-0.34-3.07-0.34c-0.3,0-0.6,0-0.9,0l-0.14-0.01
		c-17.61-0.02-35.21-0.01-52.82-0.01c-0.11,0-0.22,0-0.33,0c-0.11,0-0.22,0-0.33,0c-17.61,0-35.21-0.01-52.82,0.01l-0.14,0.01
		c-0.3,0-0.6,0-0.9,0c-1.24,0-2.19,0.15-3.07,0.34l-0.28,0.03c-2.35,0.57-3.44,1.96-3.6,4.42c-0.1,1.11-0.08,2.39,0.09,4.04
		c1.11,10.34,5.54,20.16,12.07,28.52c5.88,7.85,13.52,14.09,22.35,18.29c0.17,0.09,0.35,0.15,0.53,0.24
		c2.49,1.15,5.06,2.17,7.72,2.98c1.29,0.41,2.6,0.71,3.92,1.03c1.7,0.4,3.42,0.74,5.16,1c0.79,0.11,1.55,0.38,2.34,0.45
		c2.35,0.23,4.66,0.31,6.96,0.3c2.29,0.01,4.61-0.07,6.96-0.3c0.79-0.08,1.55-0.34,2.34-0.45c1.75-0.26,3.47-0.6,5.16-1
		c1.32-0.32,2.63-0.62,3.92-1.03c2.66-0.82,5.23-1.83,7.72-2.98c0.18-0.08,0.35-0.15,0.53-0.24c8.83-4.19,16.46-10.43,22.34-18.28
		c6.53-8.36,10.97-18.18,12.07-28.52c0.17-1.63,0.19-2.9,0.09-4C335.1,403.94,334.02,402.54,331.66,401.96L331.66,401.96z"/>
	<path class="st7" d="M372.01,365.02c49.21,0,89.11-39.89,89.11-89.11c0-49.21-39.9-89.11-89.11-89.11
		c-49.21,0-89.11,39.9-89.11,89.11C282.9,325.12,322.8,365.02,372.01,365.02"/>
	<path class="st8" d="M372.01,353.26c42.72,0,77.35-34.63,77.35-77.35c0-42.72-34.63-77.35-77.35-77.35
		c-42.72,0-77.35,34.63-77.35,77.35C294.66,318.63,329.29,353.26,372.01,353.26"/>
	<path class="st2" d="M372.01,320.58c24.67,0,44.67-20,44.67-44.67c0-24.67-20-44.67-44.67-44.67c-24.67,0-44.67,20-44.67,44.67
		C327.34,300.58,347.34,320.58,372.01,320.58"/>
	<path class="st9" d="M372.01,301.71c14.43,0,26.14-11.55,26.14-25.8c0-14.25-11.7-25.8-26.14-25.8c-14.43,0-26.14,11.55-26.14,25.8
		C345.88,290.16,357.58,301.71,372.01,301.71"/>
	<path class="st10" d="M416.64,274.01c-0.89-21.35-16.77-38.82-37.38-42.18c4.99-4.56,11.62-7.34,18.89-7.34
		c15.52,0,28.1,12.65,28.1,28.25C426.25,261.22,422.53,268.83,416.64,274.01"/>
	<path class="st3" d="M398.15,280.98c-0.17,0-0.34,0-0.5,0c0.33-1.64,0.51-3.34,0.51-5.07c0-14.25-11.7-25.8-26.14-25.8
		c-0.62,0-1.24,0.02-1.85,0.06c0.65-7.25,4.03-13.72,9.09-18.34c20.62,3.36,36.49,20.83,37.38,42.18
		C411.7,278.35,405.23,280.98,398.15,280.98"/>
	<path class="st11" d="M397.64,280.98c-15.29-0.27-27.6-12.81-27.6-28.24c0-0.86,0.04-1.72,0.11-2.57c0.61-0.04,1.23-0.06,1.85-0.06
		c14.43,0,26.14,11.55,26.14,25.8C398.15,277.64,397.97,279.34,397.64,280.98"/>
	<path class="st7" d="M176.22,365.02c49.21,0,89.11-39.89,89.11-89.11c0-49.21-39.9-89.11-89.11-89.11
		c-49.21,0-89.11,39.9-89.11,89.11C87.11,325.12,127,365.02,176.22,365.02"/>
	<path class="st8" d="M176.22,353.26c42.72,0,77.35-34.63,77.35-77.35c0-42.72-34.63-77.35-77.35-77.35s-77.35,34.63-77.35,77.35
		C98.87,318.63,133.5,353.26,176.22,353.26"/>
	<path class="st2" d="M176.22,320.58c24.67,0,44.67-20,44.67-44.67c0-24.67-20-44.67-44.67-44.67c-24.67,0-44.67,20-44.67,44.67
		C131.55,300.58,151.55,320.58,176.22,320.58"/>
	<path class="st9" d="M176.22,301.71c14.43,0,26.14-11.55,26.14-25.8c0-14.25-11.7-25.8-26.14-25.8c-14.43,0-26.14,11.55-26.14,25.8
		C150.08,290.16,161.78,301.71,176.22,301.71"/>
	<path class="st10" d="M220.85,274.01c-0.89-21.35-16.77-38.82-37.38-42.18c4.99-4.56,11.62-7.34,18.89-7.34
		c15.52,0,28.1,12.65,28.1,28.25C230.45,261.22,226.73,268.83,220.85,274.01"/>
	<path class="st3" d="M202.35,280.98c-0.17,0-0.34,0-0.51,0c0.33-1.64,0.51-3.34,0.51-5.07c0-14.25-11.7-25.8-26.14-25.8
		c-0.62,0-1.24,0.02-1.85,0.06c0.65-7.25,4.03-13.72,9.09-18.34c20.62,3.36,36.49,20.83,37.38,42.18
		C215.9,278.35,209.44,280.98,202.35,280.98"/>
	<path class="st11" d="M201.85,280.98c-15.29-0.27-27.59-12.81-27.59-28.24c0-0.86,0.04-1.72,0.11-2.57
		c0.61-0.04,1.23-0.06,1.85-0.06c14.43,0,26.14,11.55,26.14,25.8C202.35,277.64,202.18,279.34,201.85,280.98"/>
</g>
</svg>
