<?xml version="1.0" encoding="utf-8"?>
<!-- Generator: Adobe Illustrator 24.1.0, SVG Export Plug-In . SVG Version: 6.00 Build 0)  -->
<svg version="1.1" id="Layer_1" xmlns="http://www.w3.org/2000/svg" xmlns:xlink="http://www.w3.org/1999/xlink" x="0px" y="0px"
	 viewBox="0 0 548.23 540" style="enable-background:new 0 0 548.23 540;" xml:space="preserve">
<style type="text/css">
	.st0{fill:#FFFFFF;}
</style>
<g>
	<path class="st0" d="M441.62,497.57v-0.98c0,9.37-7.6,16.97-16.97,16.97H123.58c-9.37,0-16.97-7.6-16.97-16.97v0.98
		c0,23.43,19,42.43,42.43,42.43h250.15C422.62,540,441.62,521,441.62,497.57L441.62,497.57z"/>
	<path class="st0" d="M405.68,186.94c-6.72-8.22-14.16-15.84-22.38-22.58c-21.32-4.66-62.59-13.82-74.39-17.54
		c-12.15-3.84-15.14-13.44-15.88-17.95c-3.5-0.23-6.98-0.53-10.53-0.53h-16.77c-3.17,0-6.27,0.29-9.39,0.48
		c-0.72,4.48-3.68,14.15-15.89,18.01c-12.08,3.82-55.15,13.35-75.97,17.89c-8.05,6.64-15.33,14.15-21.93,22.24
		c10.45-3.93,21.72-6.18,33.55-6.18c52.73,0,95.47,42.74,95.47,95.47c0,52.73-42.74,95.47-95.47,95.47
		c-27.42,0-52.07-11.62-69.49-30.14v149.12c0,9.37,7.6,16.97,16.97,16.97h301.07c9.37,0,16.97-7.6,16.97-16.97V341.57
		c-17.41,18.51-42.06,30.14-69.49,30.14c-52.73,0-95.47-42.74-95.47-95.47c0-52.73,42.74-95.47,95.47-95.47
		C383.96,180.76,395.23,183.01,405.68,186.94L405.68,186.94z M274.49,394.63c19.83,0,39.66-0.01,59.49,0.01
		c0.06,0,0.09,0.02,0.16,0.02c0.34,0,0.68,0,1.01,0c1.4,0,2.46,0.19,3.46,0.42c0.09,0.02,0.23,0.02,0.32,0.04
		c2.66,0.7,3.88,2.42,4.05,5.46c0.11,1.35,0.09,2.91-0.1,4.9c-1.25,12.67-6.24,24.7-13.6,34.94c-6.62,9.62-15.22,17.25-25.16,22.39
		c-0.2,0.1-0.4,0.19-0.59,0.29c-2.8,1.41-5.7,2.65-8.69,3.65c-1.46,0.5-2.93,0.87-4.42,1.27c-1.91,0.49-3.85,0.9-5.81,1.22
		c-0.89,0.14-1.74,0.46-2.64,0.56c-2.65,0.28-5.25,0.38-7.84,0.37c-2.58,0.01-5.19-0.08-7.84-0.37c-0.89-0.1-1.75-0.42-2.64-0.55
		c-1.97-0.32-3.91-0.73-5.82-1.23c-1.49-0.39-2.96-0.76-4.42-1.27c-3-1-5.89-2.24-8.69-3.65c-0.2-0.1-0.4-0.19-0.59-0.29
		c-9.94-5.13-18.54-12.78-25.17-22.4c-7.35-10.23-12.35-22.26-13.59-34.93c-0.2-2.01-0.22-3.58-0.1-4.94
		c0.18-3.02,1.41-4.72,4.05-5.42c0.09-0.02,0.23-0.02,0.32-0.04c1-0.23,2.06-0.42,3.46-0.42c0.34,0,0.68,0,1.01,0
		c0.06,0,0.09-0.02,0.16-0.02c19.83-0.02,39.66-0.01,59.49-0.01c0.12,0,0.25,0,0.38,0C274.24,394.63,274.37,394.63,274.49,394.63
		L274.49,394.63z M220.55,134.94c5.37-1.59,10.86-2.86,16.46-3.88C232.05,132.23,226.45,133.55,220.55,134.94L220.55,134.94z"/>
	<path class="st0" d="M548.23,161.46c0-21.61-16.97-39.14-37.91-39.14c-20.94,0-37.91,17.52-37.91,39.14
		c0,15.51,8.81,28.79,21.49,35.13c-4.43,21.4-8.94,42.78-13.18,64.22c-0.52,2.62,0,5.68,0.79,8.3c7.66,25.1,15.37,50.19,23.34,75.2
		c1.49,4.66,1.21,8.67-0.68,13.07c-9.09,21.16-17.98,42.41-26.93,63.63c-4.87,11.55-6.3,12.36-19.69,10.75
		c0.03-11,0.58-22.62-12.43-26.03v75.98c7.47-2.08,12.11-7.61,12.32-15.9c0.14-5.48,0.02-10.96,0.02-17.36
		c6.4,0,12.56-0.24,18.7,0.07c5.53,0.28,8.71-2.04,10.9-7.04c12.28-28.02,24.87-55.89,36.96-83.99c1.49-3.46,1.69-8.28,0.59-11.9
		c-7.66-25.29-15.98-50.38-23.69-75.66c-1.32-4.33-1.63-9.41-0.85-13.88c3.24-18.55,7.04-37.01,10.65-55.5
		C531.47,200.32,548.23,182.92,548.23,161.46L548.23,161.46z M103.11,405.72c-13.01,3.41-12.46,15.03-12.43,26.03
		C77.29,433.37,75.87,432.56,71,421c-8.95-21.22-17.84-42.47-26.93-63.63c-1.89-4.41-2.17-8.41-0.68-13.07
		c7.97-25.01,15.69-50.09,23.34-75.2c0.8-2.62,1.31-5.67,0.79-8.3c-4.24-21.44-8.75-42.82-13.18-64.22
		c12.67-6.33,21.49-19.62,21.49-35.13c0-21.61-16.97-39.14-37.91-39.14S0,139.84,0,161.46c0,21.47,16.76,38.86,37.5,39.09
		c3.61,18.49,7.41,36.94,10.65,55.5c0.78,4.46,0.47,9.54-0.85,13.88c-7.71,25.28-16.02,50.37-23.68,75.66
		c-1.1,3.62-0.89,8.45,0.59,11.9c12.09,28.1,24.68,55.97,36.96,83.99c2.19,5,5.37,7.32,10.9,7.04c6.13-0.31,12.3-0.07,18.7-0.07
		c0,6.4-0.11,11.88,0.03,17.36c0.21,8.29,4.85,13.82,12.32,15.9V405.72L103.11,405.72z"/>
	<path class="st0" d="M204.2,9.52c5.37,2.19,11,3.92,16.04,6.7c6.28,3.47,12.02,7.88,18.08,11.77c5.82,3.74,7.62,3.35,11.44-2.59
		c2.65-4.14,4.91-8.53,7.54-12.69c1.51-2.39,3.19-4.73,5.15-6.75c7.69-7.95,17.68-8.08,24.73,0.4c4.56,5.48,7.89,11.97,11.72,18.05
		c4.39,6.96,6.16,7.32,13.14,2.91c7.51-4.74,14.77-10.05,22.73-13.88c14.15-6.79,23.65-2.48,26.48,12.77
		c2.74,14.79,11.58,23.57,24.78,27.49c18.07,5.36,36.61,9.22,55.01,13.42c12.42,2.84,24.8,5.69,35.22,13.48
		c3.76,2.81,7.48,5.98,10.19,9.72c1.31,1.8,1.33,6.4-0.04,7.77c-1.56,1.57-6.69,2.31-7.9,1.08C459.59,79.97,434,80.09,410.21,75.03
		c-12.75-2.71-25.54-5.27-38.2-8.39c-10.76-2.65-17.48-10.14-21.49-20.19c-1.96-4.92-3.56-9.97-5.54-14.88
		c-2.11-5.23-3.48-5.61-7.81-2.12c-4.27,3.44-8.17,7.37-12.53,10.69c-4.04,3.09-8.24,6.15-12.8,8.35
		c-7.89,3.82-13.69,2.5-19.14-4.35c-4.46-5.62-8.14-11.84-12.32-17.69c-4.48-6.27-6.96-6.28-11.49,0.08
		c-3.73,5.24-6.96,10.85-10.82,15.99c-6.66,8.86-13.14,10.6-22.66,4.83c-7.39-4.47-13.99-10.29-20.69-15.82
		c-7.3-6.03-9.46-6.12-11.3,2.81c-5.78,28.15-26.98,34.72-50.98,38.58c-17.91,2.88-35.74,6.41-53.46,10.31
		c-10.09,2.22-19.21,6.96-26.44,14.71c-2.98,3.19-6.34,3.33-9.58,0.66c-3.44-2.84-2.37-6.08,0.05-8.96
		c8.21-9.78,18.89-15.9,31.05-18.88c15.97-3.92,32.2-6.82,48.25-10.44c12.2-2.76,24.27-6.07,34.46-13.88
		c5.47-4.19,8.86-9.57,10.3-16.44c0.92-4.38,2.46-8.76,4.48-12.76C193.99,12.46,198.45,10.39,204.2,9.52L204.2,9.52z"/>
	<path class="st0" d="M358.39,153.55c-14.2-3.67-28.35-7.54-42.62-10.92c-7.87-1.87-13.87-5.68-17.41-13.05
		c-3.07-9.24-0.6-17.56,5.85-24.06c6.5-6.56,14.72-6.47,23.28-3.35c33.06,12.05,66.21,23.83,99.3,35.79
		c2.47,0.89,4.88,2.13,7.09,3.56c7.15,4.61,9.26,11.58,6.19,19.78c-2.2,5.88-8,9.02-16,7.66c-8.75-1.49-17.39-3.62-26.03-5.68
		C384.81,160.13,371.61,156.8,358.39,153.55L358.39,153.55z"/>
	<path class="st0" d="M189.84,153.55c14.2-3.67,28.35-7.54,42.62-10.92c7.87-1.87,13.87-5.68,17.41-13.05
		c3.07-9.24,0.6-17.56-5.85-24.06c-6.5-6.56-14.72-6.47-23.28-3.35c-33.06,12.05-66.21,23.83-99.3,35.79
		c-2.47,0.89-4.88,2.13-7.09,3.56c-7.15,4.61-9.26,11.58-6.19,19.78c2.2,5.88,8,9.02,16,7.66c8.75-1.49,17.39-3.62,26.03-5.68
		C163.43,160.13,176.62,156.8,189.84,153.55L189.84,153.55z"/>
	<path class="st0" d="M331.66,401.52c-0.08-0.02-0.2-0.02-0.28-0.03c-0.89-0.19-1.83-0.34-3.07-0.34c-0.3,0-0.6,0-0.9,0
		c-0.06,0-0.08-0.01-0.14-0.01c-17.61-0.02-35.21-0.01-52.82-0.01c-0.11,0-0.22,0-0.33,0c-0.11,0-0.22,0-0.33,0
		c-17.61,0-35.21-0.01-52.82,0.01c-0.06,0-0.08,0.01-0.14,0.01c-0.3,0-0.6,0-0.9,0c-1.24,0-2.19,0.15-3.07,0.34
		c-0.08,0.02-0.2,0.01-0.28,0.03c-2.35,0.57-3.44,1.96-3.6,4.42c-0.1,1.11-0.08,2.4,0.09,4.04c1.11,10.34,5.54,20.16,12.07,28.52
		c5.88,7.85,13.52,14.09,22.35,18.29c0.17,0.09,0.35,0.15,0.53,0.24c2.49,1.15,5.06,2.17,7.72,2.98c1.29,0.41,2.6,0.71,3.92,1.03
		c1.7,0.4,3.42,0.74,5.17,1c0.79,0.11,1.55,0.38,2.34,0.45c2.35,0.23,4.67,0.31,6.96,0.3c2.29,0.01,4.61-0.07,6.96-0.3
		c0.8-0.08,1.55-0.34,2.34-0.45c1.75-0.26,3.47-0.6,5.16-1c1.32-0.32,2.63-0.62,3.92-1.03c2.66-0.82,5.23-1.83,7.72-2.98
		c0.18-0.08,0.35-0.15,0.53-0.24c8.83-4.19,16.46-10.43,22.34-18.28c6.53-8.36,10.97-18.18,12.07-28.52
		c0.17-1.63,0.19-2.9,0.09-4.01C335.1,403.49,334.02,402.09,331.66,401.52L331.66,401.52z"/>
	<path class="st0" d="M461.25,276.24c0-49.21-39.9-89.11-89.11-89.11c-49.21,0-89.11,39.89-89.11,89.11
		c0,49.21,39.9,89.11,89.11,89.11C421.35,365.35,461.25,325.45,461.25,276.24L461.25,276.24z M449.36,275.91
		c0,42.72-34.63,77.35-77.35,77.35c-42.72,0-77.35-34.63-77.35-77.35c0-42.72,34.63-77.35,77.35-77.35
		C414.73,198.56,449.36,233.19,449.36,275.91L449.36,275.91z"/>
	<path class="st0" d="M414.57,276.24c0-23.44-19-42.43-42.43-42.43c-23.43,0-42.43,19-42.43,42.43c0,23.43,19,42.43,42.43,42.43
		C395.57,318.67,414.57,299.67,414.57,276.24L414.57,276.24z M398.15,275.91c0,14.25-11.7,25.8-26.13,25.8
		c-14.43,0-26.14-11.55-26.14-25.8c0-14.25,11.7-25.8,26.14-25.8C386.45,250.1,398.15,261.66,398.15,275.91L398.15,275.91z"/>
	<path class="st0" d="M389.58,276.24c0-9.51-7.81-17.22-17.44-17.22c-9.63,0-17.44,7.71-17.44,17.22c0,9.51,7.81,17.22,17.44,17.22
		C381.77,293.46,389.58,285.75,389.58,276.24L389.58,276.24z"/>
	<path class="st0" d="M265.21,276.24c0-49.21-39.89-89.11-89.11-89.11c-49.21,0-89.11,39.89-89.11,89.11
		c0,49.21,39.9,89.11,89.11,89.11C225.31,365.35,265.21,325.45,265.21,276.24L265.21,276.24z M253.32,275.91
		c0,42.72-34.63,77.35-77.35,77.35s-77.35-34.63-77.35-77.35c0-42.72,34.63-77.35,77.35-77.35S253.32,233.19,253.32,275.91
		L253.32,275.91z"/>
	<path class="st0" d="M218.53,276.24c0-23.44-19-42.43-42.43-42.43s-42.43,19-42.43,42.43c0,23.43,19,42.43,42.43,42.43
		S218.53,299.67,218.53,276.24L218.53,276.24z M202.11,275.91c0,14.25-11.7,25.8-26.13,25.8c-14.43,0-26.14-11.55-26.14-25.8
		c0-14.25,11.7-25.8,26.14-25.8C190.41,250.1,202.11,261.66,202.11,275.91L202.11,275.91z"/>
	<path class="st0" d="M193.54,276.24c0-9.51-7.81-17.22-17.44-17.22s-17.44,7.71-17.44,17.22c0,9.51,7.81,17.22,17.44,17.22
		S193.54,285.75,193.54,276.24L193.54,276.24z"/>
</g>
</svg>
