<?xml version="1.0" encoding="utf-8"?>
<!-- Generator: Adobe Illustrator 24.1.0, SVG Export Plug-In . SVG Version: 6.00 Build 0)  -->
<svg version="1.1" id="Layer_1" xmlns="http://www.w3.org/2000/svg" xmlns:xlink="http://www.w3.org/1999/xlink" x="0px" y="0px"
	 viewBox="0 0 414.72 165.52" style="enable-background:new 0 0 414.72 165.52;" xml:space="preserve">
<style type="text/css">
	.st0{fill:#041E42;}
	.st1{fill:#0047BB;}
	.st2{clip-path:url(#SVGID_2_);}
	.st3{clip-path:url(#SVGID_7_);}
</style>
<path class="st0" d="M176.05,153.42c3.39-0.02,6.47-0.83,9.23-2.44s4.89-3.83,6.41-6.68c1.52-2.85,2.28-6.07,2.28-9.66v-1.8
	c-0.02-3.56-0.8-6.77-2.36-9.63c-1.55-2.87-3.71-5.08-6.48-6.65c-2.77-1.57-5.88-2.36-9.35-2.36h-12.63v39.22H176.05L176.05,153.42z
	 M175.78,121.5c2.78,0,4.9,0.96,6.36,2.88c1.45,1.92,2.18,4.78,2.18,8.57v1.7c0,3.81-0.73,6.68-2.18,8.61
	c-1.46,1.93-3.54,2.9-6.25,2.9h-3.29V121.5H175.78L175.78,121.5z M223.89,153.42v-0.46c-0.79-1.42-1.2-3.47-1.24-6.14v-12.9
	c-0.05-3.16-1.16-5.65-3.31-7.46c-2.15-1.81-5.09-2.72-8.81-2.72s-6.77,0.88-9.17,2.64s-3.6,4.05-3.6,6.86h9.08
	c0-2.13,1.08-3.19,3.23-3.19c2.32,0,3.48,1.34,3.48,4.03v1.54h-2.8c-4.45,0-7.85,0.81-10.18,2.42c-2.33,1.62-3.5,4.01-3.5,7.17
	c0,2.51,0.96,4.6,2.88,6.26c1.92,1.66,4.26,2.49,7,2.49c3,0,5.33-1.05,7-3.15c0.25,1.15,0.54,2.02,0.86,2.61L223.89,153.42
	L223.89,153.42z M207,146.73c-0.56-0.51-0.84-1.18-0.84-2.01c0-2.84,1.58-4.26,4.74-4.26h2.64v4.66c-0.32,0.61-0.86,1.16-1.6,1.64
	c-0.75,0.49-1.68,0.73-2.82,0.73C208.27,147.49,207.56,147.24,207,146.73L207,146.73z M229.17,117.02v7.25h-3.72v6.3h3.72v14.47
	c0,3,0.74,5.24,2.24,6.71c1.49,1.47,3.8,2.21,6.92,2.21c1.78,0,3.48-0.26,5.12-0.78v-6.49c-0.61,0.11-1.37,0.16-2.26,0.16
	c-1.17,0-1.95-0.22-2.34-0.65c-0.4-0.43-0.59-1.19-0.59-2.29v-13.33h4.79v-6.3h-4.79v-7.25h-9.09V117.02z M272.11,153.42v-0.46
	c-0.79-1.42-1.2-3.47-1.24-6.14v-12.9c-0.05-3.16-1.16-5.65-3.31-7.46c-2.15-1.81-5.09-2.72-8.81-2.72s-6.77,0.88-9.17,2.64
	s-3.6,4.05-3.6,6.86h9.08c0-2.13,1.08-3.19,3.23-3.19c2.32,0,3.48,1.34,3.48,4.03v1.54h-2.8c-4.45,0-7.85,0.81-10.18,2.42
	c-2.33,1.62-3.5,4.01-3.5,7.17c0,2.51,0.96,4.6,2.88,6.26c1.92,1.66,4.26,2.49,7,2.49c3,0,5.33-1.05,7-3.15
	c0.25,1.15,0.54,2.02,0.86,2.61L272.11,153.42L272.11,153.42z M255.22,146.73c-0.56-0.51-0.83-1.18-0.83-2.01
	c0-2.84,1.58-4.26,4.74-4.26h2.64v4.66c-0.32,0.61-0.86,1.16-1.6,1.64c-0.74,0.49-1.68,0.73-2.81,0.73
	C256.48,147.49,255.77,147.24,255.22,146.73L255.22,146.73z"/>
<path class="st1" d="M184.64,103.03h10.13v-0.4l-8.19-15.84c2.35-1.11,4.08-2.57,5.18-4.36c1.11-1.79,1.66-4.06,1.66-6.78
	c0-3.77-1.31-6.68-3.93-8.75c-2.62-2.06-6.26-3.09-10.91-3.09h-15.44v39.22h9.46V89.16h5.12L184.64,103.03L184.64,103.03z
	 M172.6,71.08h5.98c1.78,0,3.12,0.48,4.04,1.44s1.37,2.29,1.37,3.98s-0.45,3.01-1.36,3.96c-0.91,0.94-2.26,1.42-4.05,1.42h-5.98
	L172.6,71.08L172.6,71.08z M219.51,102.18c2.08-0.92,3.68-2.17,4.81-3.73l-4.15-4.9c-1.62,2.01-3.86,3.02-6.73,3.02
	c-1.74,0-3.16-0.47-4.26-1.4c-1.1-0.93-1.81-2.22-2.13-3.85h18.05v-3.53c0-4.54-1.18-8.09-3.56-10.63c-2.37-2.54-5.6-3.81-9.7-3.81
	c-2.91,0-5.42,0.62-7.54,1.87s-3.73,3.01-4.84,5.29c-1.1,2.28-1.66,4.91-1.66,7.89v0.75c0,4.27,1.38,7.74,4.15,10.41
	c2.77,2.67,6.39,4,10.86,4C215.21,103.57,217.44,103.11,219.51,102.18L219.51,102.18z M215.11,81.55c0.77,0.8,1.14,1.93,1.1,3.38
	v0.7h-9.16c0.5-3.52,2.08-5.28,4.74-5.28C213.23,80.35,214.34,80.75,215.11,81.55L215.11,81.55z M239.86,103.03V80.19h5.68v-6.3
	h-5.68v-2.24c0-2.37,1.37-3.56,4.12-3.56c0.93,0,1.68,0.08,2.24,0.24l-0.03-6.68c-1.55-0.38-2.96-0.57-4.26-0.57
	c-3.54,0-6.29,0.92-8.24,2.75c-1.96,1.83-2.94,4.41-2.94,7.73v2.32h-4.23v6.3h4.23v22.84L239.86,103.03L239.86,103.03z
	 M268.89,102.18c2.07-0.92,3.68-2.17,4.81-3.73l-4.15-4.9c-1.62,2.01-3.86,3.02-6.73,3.02c-1.74,0-3.16-0.47-4.26-1.4
	s-1.8-2.22-2.13-3.85h18.05v-3.53c0-4.54-1.18-8.09-3.56-10.63c-2.37-2.54-5.6-3.81-9.7-3.81c-2.91,0-5.42,0.62-7.54,1.87
	s-3.73,3.01-4.84,5.29c-1.1,2.28-1.66,4.91-1.66,7.89v0.75c0,4.27,1.38,7.74,4.15,10.41c2.77,2.67,6.38,4,10.86,4
	C264.58,103.57,266.82,103.11,268.89,102.18L268.89,102.18z M264.49,81.55c0.77,0.8,1.14,1.93,1.1,3.38v0.7h-9.16
	c0.5-3.52,2.08-5.28,4.74-5.28C262.61,80.35,263.71,80.75,264.49,81.55L264.49,81.55z M295.92,73.67c-0.72-0.22-1.56-0.32-2.53-0.32
	c-2.73,0-4.86,1.43-6.38,4.28l-0.3-3.74h-8.51v29.15h9.08V84.58c0.81-1.8,2.64-2.69,5.5-2.69l2.99,0.22L295.92,73.67L295.92,73.67z
	 M319.32,102.18c2.08-0.92,3.68-2.17,4.81-3.73l-4.15-4.9c-1.62,2.01-3.86,3.02-6.73,3.02c-1.74,0-3.16-0.47-4.26-1.4
	s-1.8-2.22-2.13-3.85h18.05v-3.53c0-4.54-1.18-8.09-3.56-10.63c-2.37-2.54-5.6-3.81-9.7-3.81c-2.91,0-5.42,0.62-7.54,1.87
	s-3.73,3.01-4.84,5.29c-1.1,2.28-1.66,4.91-1.66,7.89v0.75c0,4.27,1.38,7.74,4.15,10.41s6.39,4,10.86,4
	C315.01,103.57,317.24,103.11,319.32,102.18L319.32,102.18z M314.91,81.55c0.77,0.8,1.14,1.93,1.11,3.38v0.7h-9.16
	c0.5-3.52,2.08-5.28,4.74-5.28C313.04,80.35,314.14,80.75,314.91,81.55L314.91,81.55z M328.38,73.89v29.15h9.08V82.45
	c0.86-1.4,2.18-2.1,3.96-2.1c1.56,0,2.64,0.35,3.23,1.04s0.89,1.77,0.89,3.25v18.4h9.11V84.26c-0.05-3.65-0.83-6.38-2.33-8.19
	c-1.5-1.81-3.77-2.72-6.8-2.72c-3.54,0-6.31,1.32-8.32,3.96l-0.3-3.42H328.38L328.38,73.89z M368.66,94.87
	c-0.7-1.13-1.05-3.16-1.05-6.09c0-1.67,0.06-2.98,0.19-3.93c0.39-3,1.77-4.5,4.12-4.5c1.24,0,2.23,0.4,2.96,1.21
	c0.74,0.81,1.11,1.97,1.11,3.47h8.51c0-3.59-1.11-6.44-3.34-8.54s-5.23-3.15-9.02-3.15c-2.8,0-5.23,0.61-7.27,1.82
	c-2.05,1.21-3.61,2.95-4.7,5.2c-1.09,2.25-1.63,4.85-1.63,7.8v0.38c0,4.71,1.22,8.39,3.66,11.05s5.78,3.99,10.02,3.99
	c3.61,0,6.56-1.02,8.85-3.07s3.43-4.67,3.43-7.87h-8.51c0.02,1.24-0.32,2.2-1.02,2.9c-0.7,0.69-1.69,1.04-2.96,1.04
	C370.47,96.57,369.36,96,368.66,94.87L368.66,94.87z M409.13,102.18c2.07-0.92,3.68-2.17,4.81-3.73l-4.15-4.9
	c-1.62,2.01-3.86,3.02-6.73,3.02c-1.74,0-3.16-0.47-4.26-1.4s-1.8-2.22-2.13-3.85h18.05v-3.53c0-4.54-1.18-8.09-3.56-10.63
	c-2.37-2.54-5.6-3.81-9.7-3.81c-2.91,0-5.42,0.62-7.54,1.87s-3.73,3.01-4.84,5.29c-1.1,2.28-1.66,4.91-1.66,7.89v0.75
	c0,4.27,1.38,7.74,4.15,10.41s6.38,4,10.86,4C404.83,103.57,407.06,103.11,409.13,102.18L409.13,102.18z M404.73,81.55
	c0.77,0.8,1.14,1.93,1.1,3.38v0.7h-9.16c0.5-3.52,2.08-5.28,4.74-5.28C402.85,80.35,403.95,80.75,404.73,81.55L404.73,81.55z"/>
<path class="st0" d="M182.01,45.06c-0.91,0.67-2.14,1.01-3.7,1.01c-2.44,0-4.21-0.5-5.29-1.5c-1.09-1-1.63-2.55-1.63-4.65h-9.48
	c0,2.59,0.65,4.87,1.95,6.86c1.3,1.98,3.24,3.55,5.82,4.69s5.45,1.71,8.63,1.71c4.51,0,8.05-0.98,10.64-2.94s3.88-4.65,3.88-8.08
	c0-4.29-2.12-7.66-6.36-10.1c-1.74-1.01-3.97-1.94-6.68-2.82c-2.71-0.87-4.61-1.71-5.68-2.53c-1.08-0.82-1.62-1.73-1.62-2.73
	c0-1.15,0.49-2.1,1.47-2.84c0.98-0.75,2.31-1.12,4-1.12c1.67,0,2.99,0.44,3.97,1.32s1.47,2.12,1.47,3.72h9.43
	c0-2.39-0.62-4.51-1.86-6.37s-2.98-3.29-5.21-4.3c-2.24-1.01-4.76-1.51-7.58-1.51c-2.89,0-5.5,0.46-7.81,1.39
	c-2.32,0.93-4.11,2.22-5.37,3.88c-1.27,1.66-1.9,3.58-1.9,5.75c0,4.36,2.54,7.79,7.62,10.29c1.56,0.77,3.57,1.57,6.03,2.4
	c2.46,0.83,4.18,1.63,5.16,2.4c0.98,0.77,1.47,1.85,1.47,3.23C183.37,43.44,182.92,44.39,182.01,45.06L182.01,45.06z M218.06,51.8
	c2.07-0.92,3.68-2.17,4.81-3.73l-4.15-4.9c-1.62,2.01-3.86,3.02-6.74,3.02c-1.74,0-3.16-0.47-4.26-1.4
	c-1.1-0.93-1.81-2.22-2.13-3.85h18.05V37.4c0-4.54-1.18-8.09-3.55-10.63c-2.37-2.54-5.6-3.81-9.7-3.81c-2.91,0-5.42,0.62-7.54,1.87
	s-3.73,3.01-4.83,5.29c-1.11,2.28-1.66,4.91-1.66,7.89v0.75c0,4.27,1.38,7.74,4.15,10.41c2.76,2.67,6.38,4,10.86,4
	C213.75,53.19,215.98,52.72,218.06,51.8L218.06,51.8z M213.65,31.16c0.77,0.8,1.14,1.93,1.1,3.38v0.7h-9.16
	c0.5-3.52,2.08-5.28,4.74-5.28C211.78,29.97,212.88,30.37,213.65,31.16L213.65,31.16z M236.28,44.49c-0.7-1.13-1.05-3.16-1.05-6.09
	c0-1.67,0.06-2.98,0.19-3.93c0.39-3,1.77-4.5,4.12-4.5c1.24,0,2.23,0.4,2.96,1.21c0.74,0.81,1.11,1.97,1.11,3.48h8.51
	c0-3.59-1.11-6.44-3.34-8.54s-5.24-3.15-9.02-3.15c-2.8,0-5.23,0.61-7.27,1.82c-2.05,1.21-3.61,2.95-4.7,5.2s-1.63,4.85-1.63,7.8
	v0.38c0,4.71,1.22,8.39,3.66,11.04c2.44,2.66,5.78,3.99,10.02,3.99c3.61,0,6.56-1.02,8.85-3.07c2.29-2.05,3.43-4.67,3.43-7.87h-8.51
	c0.02,1.24-0.32,2.2-1.02,2.9c-0.7,0.69-1.69,1.04-2.96,1.04C238.1,46.18,236.98,45.62,236.28,44.49L236.28,44.49z M273.59,52.65
	h8.51V23.5h-9.13v20.45c-0.88,1.49-2.36,2.24-4.45,2.24c-2.42,0-3.64-1.25-3.64-3.74V23.5h-9.08v18.88c0,3.48,0.82,6.16,2.46,8.01
	c1.64,1.86,4.06,2.79,7.26,2.79c3.27,0,5.86-1.23,7.79-3.69L273.59,52.65L273.59,52.65z M304.87,23.28
	c-0.72-0.22-1.56-0.32-2.53-0.32c-2.73,0-4.86,1.43-6.38,4.28l-0.3-3.74h-8.51v29.15h9.08V34.19c0.81-1.8,2.64-2.69,5.5-2.69
	l2.99,0.22L304.87,23.28L304.87,23.28z M317.55,23.5h-9.11v29.15h9.11V23.5L317.55,23.5z M309.31,19.16
	c0.93,0.83,2.15,1.24,3.64,1.24c1.49,0,2.7-0.41,3.64-1.24c0.93-0.83,1.4-1.89,1.4-3.18s-0.47-2.35-1.4-3.18s-2.15-1.24-3.64-1.24
	c-1.49,0-2.7,0.41-3.64,1.24c-0.93,0.83-1.4,1.89-1.4,3.18C307.91,17.28,308.38,18.34,309.31,19.16L309.31,19.16z M324.64,16.25
	v7.25h-3.72v6.3h3.72v14.47c0,3,0.74,5.24,2.24,6.71c1.49,1.47,3.8,2.21,6.92,2.21c1.78,0,3.48-0.26,5.12-0.78v-6.49
	c-0.61,0.11-1.37,0.16-2.26,0.16c-1.17,0-1.95-0.22-2.34-0.65c-0.4-0.43-0.59-1.19-0.59-2.29V29.8h4.79v-6.3h-4.79v-7.25H324.64
	L324.64,16.25z M349.13,23.5h-9.7l10.13,29.44l-0.73,1.94c-0.32,0.95-0.82,1.61-1.49,1.98c-0.67,0.37-1.65,0.55-2.92,0.55h-1.18
	v6.47c1.31,0.36,2.56,0.54,3.74,0.54c4.27,0,7.26-1.89,8.94-5.66l0.51-1.24l11.88-34.02h-9.73l-4.85,16.43L349.13,23.5L349.13,23.5z
	"/>
<g>
	<g>
		<defs>
			<path id="SVGID_1_" d="M127.29,133.37v-5.26c-8.78-5.15-29.1-11.48-44.24-15.79v13.48c0,3.31-0.94,4.26-4.24,4.26H48.47
				c-3.29,0-4.23-0.95-4.23-4.26v-9.04l-10.85-2.96C13.75,108.41,2.93,104.66,0,89.48v43.89c0,21.75,10.35,32.16,32,32.16h63.29
				C116.94,165.52,127.29,155.12,127.29,133.37L127.29,133.37z"/>
		</defs>
		<clipPath id="SVGID_2_">
			<use xlink:href="#SVGID_1_"  style="overflow:visible;"/>
		</clipPath>
		<g class="st2">
			<g>
				<defs>
					<rect id="SVGID_3_" y="89.48" width="127.29" height="76.05"/>
				</defs>
				<linearGradient id="SVGID_4_" gradientUnits="userSpaceOnUse" x1="0" y1="127.505" x2="127.29" y2="127.505">
					<stop  offset="0" style="stop-color:#0047BB"/>
					<stop  offset="1" style="stop-color:#041E42"/>
				</linearGradient>
				<use xlink:href="#SVGID_3_"  style="overflow:visible;fill:url(#SVGID_4_);"/>
				<clipPath id="SVGID_5_">
					<use xlink:href="#SVGID_3_"  style="overflow:visible;"/>
				</clipPath>
			</g>
		</g>
	</g>
</g>
<path class="st1" d="M115.11,76.57h-0.15v10.31h9.61C122.57,82.33,119.43,79.11,115.11,76.57L115.11,76.57z"/>
<path class="st1" d="M101.97,73.89h7.64c-2.32-0.95-4.85-1.82-7.64-2.67V73.89L101.97,73.89z"/>
<path class="st1" d="M99.3,73.89v-3.45c-1.88-0.54-3.82-1.08-5.89-1.63l-4.42-1.19v6.28H99.3V73.89z"/>
<polygon class="st1" points="86.32,73.89 86.32,66.9 76.01,64.11 76.01,73.89 "/>
<path class="st1" d="M60.35,60.91v-1.03l-0.12-0.03c-2-0.53-4.59-1.22-7.57-2.04l-2.62-0.71v3.82h10.31V60.91z"/>
<path class="st1" d="M47.37,56.32c-3.23-0.92-6.72-1.93-10.31-3.01v7.6h10.31V56.32L47.37,56.32z"/>
<path class="st1" d="M34.38,60.91V52.5c-2.01-0.62-4.03-1.25-6.05-1.9h-4.26v10.31H34.38L34.38,60.91z"/>
<path class="st1" d="M11.09,47.93h9.26c-3.3-1.15-6.43-2.31-9.26-3.46V47.93L11.09,47.93z"/>
<path class="st1" d="M8.42,47.93v-4.58c-3.31-1.44-6.08-2.84-7.95-4.14v8.72H8.42L8.42,47.93z"/>
<path class="st1" d="M8.42,76.57h-5.4c1.29,3.07,3.08,5.55,5.39,7.6v-7.6H8.42z"/>
<path class="st1" d="M8.42,63.58H0.55c0.15,4,0.66,7.4,1.52,10.31h6.35V63.58L8.42,63.58z"/>
<polygon class="st1" points="8.42,50.6 0.47,50.6 0.47,60.91 8.42,60.91 "/>
<polygon class="st1" points="11.09,60.91 21.4,60.91 21.4,50.6 11.09,50.6 "/>
<polygon class="st1" points="21.4,63.58 11.09,63.58 11.09,73.89 21.4,73.89 "/>
<path class="st1" d="M11.09,76.57v9.68c0.33,0.22,0.69,0.42,1.03,0.63h9.28V76.57H11.09L11.09,76.57z"/>
<path class="st1" d="M21.4,89.55h-4.03c1.27,0.54,2.61,1.06,4.03,1.56V89.55L21.4,89.55z"/>
<polygon class="st1" points="24.07,73.89 34.38,73.89 34.38,63.58 24.07,63.58 "/>
<polygon class="st1" points="34.38,76.57 24.07,76.57 24.07,86.88 34.38,86.88 "/>
<path class="st1" d="M24.07,89.55v2.47c3.12,1.01,6.52,1.99,10.28,3.03l0.03,0.01v-5.52L24.07,89.55L24.07,89.55z"/>
<polygon class="st1" points="37.06,89.55 37.06,95.8 47.37,98.64 47.37,89.55 "/>
<polygon class="st1" points="47.37,76.57 37.06,76.57 37.06,86.88 47.37,86.88 "/>
<polygon class="st1" points="37.06,73.89 47.37,73.89 47.37,63.58 37.06,63.58 "/>
<polygon class="st1" points="50.04,73.89 60.35,73.89 60.35,63.58 50.04,63.58 "/>
<polygon class="st1" points="60.35,76.57 50.04,76.57 50.04,86.88 60.35,86.88 "/>
<polygon class="st1" points="50.04,89.55 50.04,99.38 51.78,99.86 60.35,99.86 60.35,89.55 "/>
<polygon class="st1" points="73.33,89.55 63.02,89.55 63.02,99.86 73.33,99.86 "/>
<polygon class="st1" points="63.02,73.89 73.33,73.89 73.33,63.58 63.02,63.58 "/>
<polygon class="st1" points="73.33,76.57 63.02,76.57 63.02,86.88 73.33,86.88 "/>
<path class="st1" d="M63.02,102.53v0.43l5.53,1.52c1.31,0.34,2.94,0.78,4.78,1.28v-3.23L63.02,102.53L63.02,102.53z"/>
<polygon class="st1" points="76.01,86.88 86.32,86.88 86.32,76.57 76.01,76.57 "/>
<polygon class="st1" points="86.32,89.55 76.01,89.55 76.01,99.86 86.32,99.86 "/>
<path class="st1" d="M76.01,102.53v3.96c3.06,0.84,6.56,1.82,10.31,2.91v-6.87H76.01L76.01,102.53z"/>
<polygon class="st1" points="88.99,86.88 99.3,86.88 99.3,76.57 88.99,76.57 "/>
<polygon class="st1" points="99.3,89.55 88.99,89.55 88.99,99.86 99.3,99.86 "/>
<path class="st1" d="M88.99,102.53v7.65c2.86,0.84,5.81,1.74,8.77,2.66h1.54v-10.31L88.99,102.53L88.99,102.53z"/>
<polygon class="st1" points="112.29,102.53 101.97,102.53 101.97,112.85 112.29,112.85 "/>
<polygon class="st1" points="101.97,86.88 112.29,86.88 112.29,76.57 101.97,76.57 "/>
<polygon class="st1" points="112.29,89.55 101.97,89.55 101.97,99.86 112.29,99.86 "/>
<path class="st1" d="M112.29,115.52H106c2.16,0.73,4.25,1.46,6.28,2.2v-2.2H112.29z"/>
<path class="st1" d="M114.96,115.52v3.19c3.98,1.51,7.51,3.01,10.31,4.45v-7.64H114.96L114.96,115.52z"/>
<polygon class="st1" points="125.27,102.53 114.96,102.53 114.96,112.85 125.27,112.85 "/>
<polygon class="st1" points="114.96,99.86 125.27,99.86 125.27,89.55 114.96,89.55 "/>
<g>
	<g>
		<defs>
			<path id="SVGID_6_" d="M124.47,68.52V32.16c0-21.75-10.35-32.16-32-32.16h-60c-21.65,0-32,10.4-32,32.16v3.17
				C7.79,40.46,28.69,47.1,44.7,51.71V39.73c0-3.31,0.94-4.26,4.24-4.26H76c3.29,0,4.24,0.95,4.24,4.26v7.42l13.18,3.56
				C109.75,55.06,119.91,58.5,124.47,68.52L124.47,68.52z"/>
		</defs>
		<clipPath id="SVGID_7_">
			<use xlink:href="#SVGID_6_"  style="overflow:visible;"/>
		</clipPath>
		<g class="st3">
			<g>
				<defs>
					<rect id="SVGID_8_" x="0.47" width="124" height="68.52"/>
				</defs>
				<linearGradient id="SVGID_9_" gradientUnits="userSpaceOnUse" x1="124.47" y1="34.26" x2="0.47" y2="34.26">
					<stop  offset="0" style="stop-color:#0047BB"/>
					<stop  offset="1" style="stop-color:#041E42"/>
				</linearGradient>
				<use xlink:href="#SVGID_8_"  style="overflow:visible;fill:url(#SVGID_9_);"/>
				<clipPath id="SVGID_10_">
					<use xlink:href="#SVGID_8_"  style="overflow:visible;"/>
				</clipPath>
			</g>
		</g>
	</g>
</g>
</svg>
