<?xml version="1.0" encoding="utf-8"?>
<!-- Generator: Adobe Illustrator 24.1.0, SVG Export Plug-In . SVG Version: 6.00 Build 0)  -->
<svg version="1.1" id="Layer_1" xmlns="http://www.w3.org/2000/svg" xmlns:xlink="http://www.w3.org/1999/xlink" x="0px" y="0px"
	 viewBox="0 0 648 648" style="enable-background:new 0 0 648 648;" xml:space="preserve">
<style type="text/css">
	.st0{clip-path:url(#SVGID_3_);}
</style>
<g>
	<g>
		<g>
			<defs>
				<path id="SVGID_1_" d="M648,324.02C648,161.37,528.14,26.75,371.95,3.57v125.6h68.94c1.35-5.16,5.86-9.05,11.43-9.05
					c6.66,0,12.04,5.4,12.04,12.06s-5.38,12.06-12.04,12.06c-5.6,0-10.08-3.88-11.43-9.05h-74.95V2.8C352.2,1.01,338.23,0,324.02,0
					c-9.53,0-18.89,0.63-28.2,1.42v203.03c0,0,18.43,0,28.2,0c66.04,0,119.57,53.53,119.57,119.57
					c0,66.02-53.53,119.55-119.57,119.55c-9.77,0-28.2-0.02-28.2-0.02v203.03c9.31,0.8,18.67,1.42,28.2,1.42
					c107.39,0,202.52-52.27,261.48-132.72v-54.76H450.06v68.46h-92.31c-1.37,5.16-5.86,9.05-11.43,9.05
					c-6.66,0-12.04-5.4-12.04-12.04c0-6.66,5.4-12.04,12.04-12.04c5.6,0,10.08,3.88,11.43,9.05h86.28v-68.46h147.48v52.32
					c32.13-46.94,52.22-102.76,55.84-163.01c0.1-2.46,0.1-4.68,0.1-4.68l-129.7-0.02V204.62c-5.16-1.37-9.05-5.86-9.05-11.43
					c0-6.66,5.38-12.04,12.06-12.04c6.66,0,12.04,5.38,12.04,12.04c0,5.6-3.88,10.08-9.05,11.43v128.52l124.11,0.05
					C647.9,333.12,648,325.28,648,324.02L648,324.02z"/>
			</defs>
			<linearGradient id="SVGID_2_" gradientUnits="userSpaceOnUse" x1="471.9131" y1="0" x2="471.9131" y2="647.9999">
				<stop  offset="0" style="stop-color:#E54152"/>
				<stop  offset="0.9982" style="stop-color:#B0313C"/>
			</linearGradient>
			<use xlink:href="#SVGID_1_"  style="overflow:visible;fill:url(#SVGID_2_);"/>
			<clipPath id="SVGID_3_">
				<use xlink:href="#SVGID_1_"  style="overflow:visible;"/>
			</clipPath>
			<g class="st0">
				<g>
					<defs>
						<rect id="SVGID_4_" x="295.8" y="0.02" width="352.2" height="648"/>
					</defs>
					<clipPath id="SVGID_5_">
						<use xlink:href="#SVGID_4_"  style="overflow:visible;"/>
					</clipPath>
				</g>
			</g>
		</g>
	</g>
	<g>
		<g>
			<defs>
				<path id="SVGID_6_" d="M183.56,398.85V32.4c-27.06,13.05-52.03,29.74-74.27,49.42v179.25c5.16,1.37,9.05,5.86,9.05,11.43
					c0,6.66-5.4,12.06-12.06,12.06s-12.06-5.38-12.06-12.06c0-5.6,3.88-10.08,9.05-11.43V87.51C39.85,146.56,0,230.5,0,324.02
					c0,128.54,75.07,239.29,183.56,291.65v-210.8h-84.4c-1.37,5.16-5.86,9.05-11.43,9.05c-6.66,0-12.06-5.38-12.06-12.04
					c0-6.66,5.4-12.06,12.06-12.06c5.6,0,10.08,3.88,11.43,9.05h84.4V398.85z"/>
			</defs>
			<linearGradient id="SVGID_7_" gradientUnits="userSpaceOnUse" x1="91.7823" y1="615.6771" x2="91.7823" y2="32.3952">
				<stop  offset="0" style="stop-color:#E54152"/>
				<stop  offset="0.9982" style="stop-color:#B0313C"/>
			</linearGradient>
			<use xlink:href="#SVGID_6_"  style="overflow:visible;fill:url(#SVGID_7_);"/>
			<clipPath id="SVGID_8_">
				<use xlink:href="#SVGID_6_"  style="overflow:visible;"/>
			</clipPath>
		</g>
	</g>
</g>
</svg>
