<?xml version="1.0" encoding="utf-8"?>
<!-- Generator: Adobe Illustrator 28.2.0, SVG Export Plug-In . SVG Version: 6.00 Build 0)  -->
<svg version="1.1" id="Layer_1" xmlns="http://www.w3.org/2000/svg" xmlns:xlink="http://www.w3.org/1999/xlink" x="0px" y="0px"
	 viewBox="0 0 870 169.2" style="enable-background:new 0 0 870 169.2;" xml:space="preserve">
<g>
	<path d="M335.9,119.3L303,48.7h-1.6l-32.9,70.6h8.1l7-15.8h37.3l7.2,15.8H335.9L335.9,119.3z M318.4,97.6h-32.2l16.1-35.4
		L318.4,97.6L318.4,97.6z"/>
	<polygon points="344.3,119.3 351.7,119.3 351.7,49.9 344.3,49.9 344.3,119.3 	"/>
	<path d="M415.7,85.8c8.8-1.3,15.4-7.2,15.4-16.8c0-12.4-9.6-19.1-25.1-19.1h-14.5v69.4h7.4V88.5h6.5c17.5,0,16.2,30.8,37.9,30.8
		l1.4-7.4C429.7,112.1,426.9,89.4,415.7,85.8L415.7,85.8z M406.1,82.7h-7.2V55.8h7.8c10.7,0,17.1,4.6,17.1,13.4
		C423.9,78.2,417.3,82.7,406.1,82.7L406.1,82.7z"/>
	<path d="M554.5,119.3l-32.9-70.6H520l-32.9,70.6h8.1l7-15.8h37.3l7.2,15.8H554.5L554.5,119.3z M536.9,97.6h-32.2l16.1-35.4
		L536.9,97.6L536.9,97.6z"/>
	<path d="M621.7,84.6c0-19.4-12.1-34.7-41.5-34.7h-17.3v69.4h17.3C609.6,119.3,621.7,103.8,621.7,84.6L621.7,84.6z M614.3,84.5
		c0,16-10.2,28.5-33.5,28.5h-10.6V55.9h10.6C604.1,55.9,614.3,68.5,614.3,84.5L614.3,84.5z"/>
	<polygon points="634,119.3 641.4,119.3 641.4,49.9 634,49.9 634,119.3 	"/>
	<polygon points="724.3,49.9 724.3,57.3 764.6,57.3 764.6,49.9 724.3,49.9 	"/>
	<polygon points="443.3,49.9 443.3,57.3 483.7,57.3 483.7,49.9 443.3,49.9 	"/>
	<polygon points="724.3,81 724.3,88.4 764.6,88.4 764.6,81 724.3,81 	"/>
	<polygon points="443.3,81 443.3,88.4 483.7,88.4 483.7,81 443.3,81 	"/>
	<polygon points="724.3,111.9 724.3,119.3 764.6,119.3 764.6,111.9 724.3,111.9 	"/>
	<polygon points="443.3,111.9 443.3,119.3 483.7,119.3 483.7,111.9 443.3,111.9 	"/>
	<polygon points="714.1,120.2 715.8,120.2 715.8,49.9 708.4,49.9 708.4,104.6 658.5,48.8 657.1,48.8 657.1,119.3 664.5,119.3 
		664.5,64.7 714.1,120.2 	"/>
	<path d="M812.7,54.6c-4.3-3.1-10.6-5.7-18.1-5.7c-12.4,0-21.6,6.3-21.6,17.1c0,22.7,36.8,15,36.8,34.6c0,7.8-5.8,13.7-16.2,13.7
		c-6.3,0-13.7-2.4-20.1-6.9l-3.1,5.6c7.9,5.7,15.7,7.6,23.4,7.6c14.1,0,23.4-8.3,23.4-19.9c0-25-36.7-17.5-36.7-34.7
		c0-7.9,7.8-10.6,14.5-10.6c6.4,0,12.5,2.5,17.3,6C812.3,59.1,812.6,56.8,812.7,54.6L812.7,54.6z"/>
	<path d="M865.6,54.6c-4.3-3.1-10.6-5.7-18.1-5.7c-12.4,0-21.6,6.3-21.6,17.1c0,22.7,36.8,15,36.8,34.6c0,7.8-5.8,13.7-16.2,13.7
		c-6.3,0-13.7-2.4-20.1-6.9l-3.1,5.6c7.9,5.7,15.7,7.6,23.4,7.6c14.1,0,23.4-8.3,23.4-19.9c0-25-36.7-17.5-36.7-34.7
		c0-7.9,7.8-10.6,14.5-10.6c6.4,0,12.5,2.5,17.3,6C865.3,59.1,865.5,56.8,865.6,54.6L865.6,54.6z"/>
	<path d="M107.9,34.5L90.7,0h-6.4L0,169.2h42.2L107.9,34.5L107.9,34.5z M96.6,95.2l36.1,74H175L117.2,53.1L96.6,95.2L96.6,95.2z"/>
	<path d="M146.3,0h-5.1h-33.1l19.3,38.7L146.3,0L146.3,0z M136.6,57.3l55.7,111.9h39.6L156.2,17.3L136.6,57.3L136.6,57.3z"/>
</g>
</svg>
