<?xml version="1.0" encoding="utf-8"?>
<!-- Generator: Adobe Illustrator 27.5.0, SVG Export Plug-In . SVG Version: 6.00 Build 0)  -->
<svg version="1.2" baseProfile="tiny" id="Layer_1" xmlns="http://www.w3.org/2000/svg" xmlns:xlink="http://www.w3.org/1999/xlink"
	 x="0px" y="0px" viewBox="0 0 936 225.8" overflow="visible" xml:space="preserve">
<g>
	<path fill="#00000A" d="M9.3,9.2l188.3,1.2l18.5,19.8l-1,55.9l-44.2,34.6l-21,16.4h26.6h19.2l19.3,21.8v57.7H28.7L10.2,196
		L10,136.6l41.2-31.7l21.4-16.5h-27H28.1L9.9,67L9.3,9.2L9.3,9.2z M0,0l0.8,70.4l23.1,27.2h21.8L0.8,132.1L1,199.5l23.6,26.4h199.5
		v-70.4L199.8,128h-23.3l47.7-37.3l1.2-64L201.6,1.3L0,0L0,0z"/>
	<path fill="#00000A" d="M435.6,168.1h94.9v-30.3h-58.7v-12h53.9V99.2h-53.9V88h57.9V57.7h-94.2V168.1L435.6,168.1z M542.7,168.1
		h36.6v-50.9l41,50.9h32.8V57.7h-36.6v48.7l-39.3-48.7h-34.5V168.1L542.7,168.1z M668.2,168.1h36.9V57.7h-36.9V168.1L668.2,168.1z
		 M748.5,168.1h36.9V88.9h32.5V57.7H716v31.2h32.5V168.1L748.5,168.1z M828.4,168.1h36.9v-39.6h33.8v39.6H936V57.7h-36.9v39h-33.8
		v-39h-36.9V168.1L828.4,168.1z"/>
	<polygon fill="#00000A" points="320.1,168.1 421.1,168.1 421.1,141.6 412.7,132.1 373.5,132.1 421.2,94.8 421.7,66.7 413.9,58.4 
		311.7,57.7 312,84.3 319.9,93.6 358.4,93.6 312.1,129.2 312.2,159.2 320.1,168.1 	"/>
</g>
</svg>
