<?xml version="1.0" encoding="utf-8"?>
<!-- Generator: Adobe Illustrator 24.1.0, SVG Export Plug-In . SVG Version: 6.00 Build 0)  -->
<svg version="1.1" id="Layer_1" xmlns="http://www.w3.org/2000/svg" xmlns:xlink="http://www.w3.org/1999/xlink" x="0px" y="0px"
	 viewBox="0 0 738.9 538.93" style="enable-background:new 0 0 738.9 538.93;" xml:space="preserve">
<style type="text/css">
	.st0{fill:#FFFFFF;}
	.st1{opacity:0.6;fill:#FFFFFF;}
	.st2{opacity:0.8;fill:#FFFFFF;}
	.st3{opacity:0.4;fill:#FFFFFF;}
</style>
<g>
	<path class="st0" d="M96.2,464.1c9.78-11.88,14.68-28.61,14.68-50.18c0-22.22-4.65-39.15-13.95-50.79s-22.81-17.45-40.52-17.45
		c-19.81,0-34.22,7.09-43.24,21.26h-0.72l-2.29-18.72H0v190.72h11.96v-50c0-7.09-0.16-13.61-0.48-19.57l-0.36-10.14h0.85
		c9.26,15.14,23.99,22.71,44.21,22.71C73.07,481.92,86.42,475.98,96.2,464.1L96.2,464.1z M22.28,458.11
		c-6.88-8.78-10.33-23.43-10.33-43.97v-3.86c0-19,3.58-32.71,10.75-41.13c7.17-8.41,18.4-12.62,33.7-12.62
		c27.86,0,41.79,19.29,41.79,57.86c0,17.96-3.68,31.93-11.05,41.91c-7.37,9.99-17.78,14.98-31.22,14.98
		C40.38,471.29,29.17,466.89,22.28,458.11L22.28,458.11z M169.09,291.55h-11.96v187.94h11.96V291.55L169.09,291.55z M296.74,480.15
		c6.28-1.17,13.12-3.36,20.53-6.58v-10.87c-8.7,3.46-15.88,5.72-21.56,6.76c-5.68,1.05-12.26,1.57-19.75,1.57
		c-15.38,0-27.2-4.75-35.45-14.25c-8.26-9.5-12.46-23.27-12.62-41.31h94.57v-9.66c0-18.52-4.47-33.17-13.41-43.96
		c-8.94-10.79-21.14-16.19-36.6-16.19c-17.47,0-31.36,6.3-41.67,18.9s-15.46,29.37-15.46,50.31c0,21.18,5.33,37.64,16,49.4
		s25.55,17.64,44.63,17.64C283.54,481.92,290.46,481.32,296.74,480.15L296.74,480.15z M299.89,369.17c6.6,8.57,9.9,20.47,9.9,35.69
		h-81.17c1.29-15.7,5.76-27.72,13.41-36.05c7.65-8.33,17.79-12.5,30.44-12.5C284.14,356.29,293.28,360.58,299.89,369.17
		L299.89,369.17z M353.26,479.49h13.17l41.55-58.58l41.31,58.58h13.89l-48.31-67.52l45.05-63.77h-13.17l-38.77,55.32l-39.13-55.32
		h-13.77l45.78,63.77L353.26,479.49L353.26,479.49z M500.25,348.2v85.76c0,31.97,14.94,47.95,44.81,47.95
		c21.82,0,37-6.84,45.54-20.53h0.72l2.17,18.12h10.15V348.2H591.8v72.47c0,17.8-3.68,30.64-11.05,38.53
		c-7.37,7.89-18.86,11.84-34.48,11.84c-11.68,0-20.29-3-25.85-9s-8.33-15.6-8.33-28.81V348.2H500.25L500.25,348.2z M734.86,429.98
		c-2.7-4.35-6.74-8.23-12.14-11.65c-5.4-3.42-14.01-7.27-25.85-11.54c-14.17-5.07-23.69-9.66-28.57-13.77
		c-4.87-4.11-7.31-9.58-7.31-16.43c0-6.28,3.14-11.19,9.42-14.74c6.28-3.54,14.78-5.31,25.49-5.31c11.03,0,22.99,2.66,35.87,7.97
		l4.47-10.87c-12.72-5.31-26.17-7.97-40.34-7.97c-14.82,0-26.35,2.86-34.6,8.58s-12.38,13.49-12.38,23.31
		c0,6.2,1.35,11.46,4.05,15.76c2.7,4.31,6.7,8.17,12.02,11.6c5.32,3.42,14.53,7.51,27.66,12.26c12.24,4.35,21.04,8.78,26.39,13.29
		c5.35,4.51,8.03,10.07,8.03,16.67c0,7.17-3.36,12.9-10.09,17.21c-6.72,4.31-16.57,6.46-29.53,6.46c-14.66,0-28.59-3.3-41.79-9.9
		v12.92c10.31,5.4,24.24,8.09,41.79,8.09c16.43,0,29.11-3.16,38.05-9.48s13.41-15.36,13.41-27.11
		C738.9,439.43,737.55,434.32,734.86,429.98L734.86,429.98z"/>
	<path class="st1" d="M624.14,232.51h-83.61c-13.63,0-38.27-21.35-66.83-51.06c7.27,0,18.14,0,34.62,0
		C557.87,181.46,624.14,232.51,624.14,232.51"/>
	<path class="st1" d="M276.69,51.05c-11.1,0-26.15,0-46.1,0c-49.56,0-115.82-51.06-115.82-51.06h83.64h11.99l0,0l0,0
		c-8.44,0-12.02,0-12.02,0s4.65,0,12.02,0c0.01,0,0.03,0,0.04,0s0.01,0,0.01,0c0.01,0,0.02,0,0.03,0s0.01,0,0.01,0
		c0.01,0,0.02,0,0.03,0h0.01c0.01,0,0.02,0,0.03,0l0,0c0.03,0,0.05,0,0.08,0l0,0c0.01,0,0.03,0,0.04,0l0,0
		C225.04,0.28,249.08,21.55,276.69,51.05 M300.7,0.08c-0.39-0.06-0.76-0.09-1.12-0.09l0,0h1.12L300.7,0.08"/>
	<path class="st2" d="M540.52,232.51c-28.43,0-50.23,0-89.19,0c-38.87,0-193-231.55-240.65-232.51l0,0c-0.01,0-0.03,0-0.04,0l0,0
		c-0.03,0-0.05,0-0.08,0l0,0c-0.01,0-0.02,0-0.03,0h-0.01c-0.01,0-0.02,0-0.03,0h-0.01c-0.01,0-0.02,0-0.03,0h-0.01
		c-0.01,0-0.03,0-0.04,0c22.41,0,70.03,0,89.19,0l0,0c0.33,0,0.76,0.17,1.12,0.23V0.08C334.33,5.3,495.99,232.51,540.52,232.51"/>
	<path class="st0" d="M300.7,0.22c-0.36-0.06-0.79-0.23-1.12-0.23c0.35,0,0.73,0.03,1.12,0.09L300.7,0.22 M210.69-0.01L210.69-0.01
		L210.69-0.01 M210.65-0.01L210.65-0.01L210.65-0.01 M210.56-0.01L210.56-0.01L210.56-0.01 M210.53-0.01L210.53-0.01
		C210.52-0.01,210.52-0.01,210.53-0.01 M210.49-0.01C210.48-0.01,210.48-0.01,210.49-0.01C210.48-0.01,210.48-0.01,210.49-0.01
		 M210.45-0.01C210.44-0.01,210.44-0.01,210.45-0.01C210.44-0.01,210.44-0.01,210.45-0.01 M210.4-0.01c-7.37,0-12.02,0-12.02,0
		S201.95-0.01,210.4-0.01L210.4-0.01L210.4-0.01"/>
	<path class="st3" d="M198.38,232.51h-83.61c0,0,66.26-51.06,115.82-51.06c16.48,0,27.34,0,34.62,0
		C236.65,211.15,212.01,232.51,198.38,232.51"/>
	<path class="st3" d="M508.31,51.05c-19.95,0-35,0-46.1,0c27.81-29.71,51.98-51.06,66.3-51.06h11.99h83.64
		C624.14-0.01,557.87,51.05,508.31,51.05 M438.2,0.22v-0.23h1.12C438.99-0.01,438.56,0.16,438.2,0.22"/>
	<path class="st0" d="M198.38,232.51c28.43,0,50.23,0,89.19,0c38.95,0,193.64-232.52,240.94-232.52s-58.2,0-89.18,0
		C408.34-0.01,243.42,232.51,198.38,232.51L198.38,232.51z"/>
</g>
</svg>
