<?xml version="1.0" encoding="utf-8"?>
<!-- Generator: Adobe Illustrator 25.4.1, SVG Export Plug-In . SVG Version: 6.00 Build 0)  -->
<svg version="1.1" id="Layer_1" xmlns="http://www.w3.org/2000/svg" xmlns:xlink="http://www.w3.org/1999/xlink" x="0px" y="0px"
	 viewBox="0 0 722.2 588.6" style="enable-background:new 0 0 722.2 588.6;" xml:space="preserve">
<style type="text/css">
	.st0{fill:#008FFF;}
	.st1{fill:#000029;}
</style>
<g>
	<path class="st0" d="M3.6,588.6H14v-14.4l5.4-5.6l14.6,20h12.4l-20-27.1l19.1-19.9H33L14,562.1v-20.5H3.6V588.6L3.6,588.6z
		 M53.1,588.6h10.3v-47H53.1V588.6L53.1,588.6z M86.2,588.6h10.3v-37.5h14.3v-9.5H71.9v9.5h14.3V588.6L86.2,588.6z"/>
	<path class="st0" d="M3.6,508H22c14.8,0,25-10.3,25-23.5v-0.1c0-13.2-10.2-23.4-25-23.4H3.6V508L3.6,508z M22,470.3
		c8.5,0,14.2,5.8,14.2,14.2v0.1c0,8.3-5.7,14-14.2,14h-8v-28.3H22L22,470.3z M56.1,508h35.8v-9.2H66.4v-9.9h22.2v-9.2H66.4v-9.5
		h25.2V461H56.1V508L56.1,508z M116.1,508.3h9.1l19-47.3h-11.1l-12.3,33.1L108.5,461H97.1L116.1,508.3L116.1,508.3z M151.5,508h35.8
		v-9.2h-25.5v-9.9h22.2v-9.2h-22.2v-9.5H187V461h-35.5V508L151.5,508z M196.5,508h33.8v-9.4h-23.4V461h-10.3V508L196.5,508z
		 M258.2,508.8c14.5,0,25-10.9,25-24.3v-0.1c0-13.4-10.4-24.2-24.9-24.2s-25,10.9-25,24.3v0.1C233.3,498,243.7,508.8,258.2,508.8
		L258.2,508.8z M258.4,499.3c-8.3,0-14.2-6.7-14.2-14.8v-0.1c0-8.1,5.8-14.6,14.1-14.6c8.3,0,14.2,6.7,14.2,14.8v0.1
		C272.5,492.7,266.7,499.3,258.4,499.3L258.4,499.3z M292.5,508h10.3v-14.1h7.9c10.5,0,19-5.6,19-16.5v-0.1c0-9.6-6.8-16.2-18-16.2
		h-19.2V508L292.5,508z M302.8,484.7v-14.4h8c5.2,0,8.4,2.5,8.4,7.1v0.1c0,4-3,7.1-8.2,7.1H302.8L302.8,484.7z M337.3,508h35.8v-9.2
		h-25.5v-9.9h22.2v-9.2h-22.2v-9.5h25.2V461h-35.5V508L337.3,508z M382.3,508h10.3v-15h8.1l10.1,15H423l-11.5-16.8
		c6-2.2,10.1-7,10.1-14.6v-0.1c0-4.4-1.4-8.1-4-10.7c-3.1-3.1-7.7-4.8-13.7-4.8h-21.5V508L382.3,508z M392.7,483.8v-13.5h10.3
		c5,0,8.1,2.3,8.1,6.7v0.1c0,4-2.9,6.7-7.9,6.7H392.7L392.7,483.8z"/>
	<path class="st0" d="M16,427.8h9L35.7,397l10.6,30.8h9l16-47.3H60.5l-9.7,31.8l-10.5-32h-8.9l-10.5,32l-9.7-31.8H0L16,427.8
		L16,427.8z M99.1,428.2c14.5,0,25-10.9,25-24.3v-0.1c0-13.4-10.4-24.2-24.9-24.2c-14.5,0-25,10.9-25,24.3v0.1
		C74.2,417.4,84.6,428.2,99.1,428.2L99.1,428.2z M99.3,418.7c-8.3,0-14.2-6.7-14.2-14.8v-0.1c0-8.1,5.8-14.6,14.1-14.6
		c8.3,0,14.2,6.7,14.2,14.8v0.1C113.4,412.1,107.6,418.7,99.3,418.7L99.3,418.7z M133.4,427.4h10.3v-15h8.1l10.1,15H174l-11.5-16.8
		c6-2.2,10.1-7,10.1-14.6v-0.1c0-4.4-1.4-8.1-4-10.7c-3.1-3.1-7.7-4.8-13.7-4.8h-21.5V427.4L133.4,427.4z M143.7,403.3v-13.5H154
		c5,0,8.1,2.3,8.1,6.7v0.1c0,4-2.9,6.7-7.9,6.7H143.7L143.7,403.3z M181.9,427.4h10.3V413l5.4-5.6l14.6,20h12.4l-20-27.1l19.1-19.9
		h-12.5L192.3,401v-20.5h-10.3V427.4L181.9,427.4z M231,427.4h10.3v-18.2h22.4v-9.4h-22.4v-10h25.5v-9.4H231V427.4L231,427.4z
		 M275,427.4h33.8V418h-23.4v-37.6H275V427.4L275,427.4z M336.7,428.2c14.5,0,25-10.9,25-24.3v-0.1c0-13.4-10.4-24.2-24.9-24.2
		c-14.5,0-25,10.9-25,24.3v0.1C311.8,417.4,322.2,428.2,336.7,428.2L336.7,428.2z M336.9,418.7c-8.3,0-14.2-6.7-14.2-14.8v-0.1
		c0-8.1,5.8-14.6,14.1-14.6c8.3,0,14.2,6.7,14.2,14.8v0.1C351,412.1,345.2,418.7,336.9,418.7L336.9,418.7z M380.7,427.8h9l10.6-30.8
		l10.6,30.8h9l16-47.3h-10.8l-9.7,31.8l-10.5-32H396l-10.5,32l-9.7-31.8h-11.1L380.7,427.8L380.7,427.8z"/>
	<path class="st1" d="M198.1,191.9V6.2c0-3.4-2.8-6.2-6.2-6.2H6.2C2.8,0,0,2.8,0,6.2v185.8c0,3.4,2.8,6.2,6.2,6.2h185.8
		C195.3,198.1,198.1,195.3,198.1,191.9L198.1,191.9z"/>
	<path class="st0" d="M141.5,79.6V58.4c0-4.3-2.3-8.4-6.1-10.6c-5.7-3.3-17.9-8.9-36.4-8.9c-18.5,0-30.7,5.6-36.4,8.9
		c-3.8,2.2-6.1,6.3-6.1,10.6v31.8l67.3,19.5v14.2c0,1.9-1.2,3.3-3.3,4.3L99,138.9L77.4,128c-1.9-0.9-3.1-2.3-3.1-4.2v-10.6
		l-17.7-5.3v15.9c0,8.8,5,16.2,13,20.1L99,159.3l29.4-15.3c8.1-3.9,13.1-11.4,13.1-20.1V97.3L74.3,77.8V61.6
		c4.8-2.3,13-5.1,24.8-5.1c11.8,0,20,2.8,24.8,5.1v12.6L141.5,79.6L141.5,79.6z"/>
	<path class="st1" d="M37.4,346.1c-14.2,0-26.4-4.6-37.4-11.5l6.8-10.3c11,7,21,10.4,32.3,10.4c13.2,0,19.4-5.1,19.4-11.1
		c0-17.2-55.9-6.9-55.9-34.2c0-13.3,13.3-23.8,34.8-23.8c14.5,0,27,5.4,34.4,12.8l-8.4,8.6c-6.3-5.5-16.1-9.9-26.2-9.9
		c-12.5,0-21,4.5-21,11c0,15.9,56.1,7.5,56.1,34.4C72.2,336.5,57.9,346.1,37.4,346.1L37.4,346.1z M127,313.2v30.2h-13.6v-30.3
		l-33.9-45h15.8l25.4,34.8l24.1-34.8h15.6L127,313.2L127,313.2z M255.1,343.4v-59l-3.7,8l-26.7,51h-8.1l-26.3-51l-3.7-8v59h-13
		v-75.3h18.9l25.3,50.6l3.5,7.7l3.5-7.7l25-50.6h18.6v75.3H255.1L255.1,343.4z M342.1,290.5c0-6.2-4.2-10.9-14.5-10.9h-25v24.3h25.5
		c10.3,0,13.9-5,13.9-11.1V290.5L342.1,290.5z M326.2,315h-23.5v28.4h-13.6v-75.3h37.1c20.6,0,29.6,9.3,29.6,22.4v2
		C355.8,305.6,346.7,315,326.2,315L326.2,315z M429.7,343.4v-32.4h-45.3v32.4h-13.6v-75.3h13.6V300h45.3v-31.9h13.6v75.3H429.7
		L429.7,343.4z M525.2,301.1c0-12.9-8.9-24-25.4-24c-16.5,0-25.3,11.1-25.3,24v9.2c0,12.9,8.8,24.2,25.3,24.2
		c16.5,0,25.4-11.3,25.4-24.2V301.1L525.2,301.1z M499.7,346.1c-24.2,0-39-17.2-39-35.6v-9.4c0-18.8,14.8-35.6,39-35.6
		c24.3,0,39.1,16.8,39.1,35.6v9.4C538.8,328.9,524,346.1,499.7,346.1L499.7,346.1z M617.1,343.4L575,295.8l-5.4-7v54.6h-13.5v-75.3
		h12.5l40.8,47.7l5.5,7v-54.7h13.3v75.3H617.1L617.1,343.4z M688.7,313.2v30.2h-13.6v-30.3l-33.9-45h15.8l25.4,34.8l24.1-34.8h15.6
		L688.7,313.2L688.7,313.2z"/>
</g>
</svg>
