<?xml version="1.0" encoding="utf-8"?>
<!-- Generator: Adobe Illustrator 24.1.0, SVG Export Plug-In . SVG Version: 6.00 Build 0)  -->
<svg version="1.1" id="Layer_1" xmlns="http://www.w3.org/2000/svg" xmlns:xlink="http://www.w3.org/1999/xlink" x="0px" y="0px"
	 viewBox="0 0 371.21 539.8" style="enable-background:new 0 0 371.21 539.8;" xml:space="preserve">
<style type="text/css">
	.st0{fill:#FFFFFF;}
	.st1{opacity:0.4;fill:#FFFFFF;}
	.st2{opacity:0.54;fill:#FFFFFF;}
	.st3{opacity:0.7;fill:#FFFFFF;}
</style>
<g>
	<path class="st0" d="M22.19,539.23h5.82v-14.08h16.04v14.08h5.82v-33.42h-5.82v13.89H28.02v-13.89h-5.82V539.23L22.19,539.23z
		 M75.04,525.96l5.73-13.37l5.78,13.37H75.04L75.04,525.96z M63.44,539.23h6.02l3.44-8.07h15.8l3.39,8.07h6.21l-14.7-33.66h-5.44
		L63.44,539.23L63.44,539.23z M111.84,539.23h5.82v-23.78l18.39,23.78h4.91v-33.42h-5.82v23.11l-17.87-23.11h-5.43V539.23
		L111.84,539.23z M163.21,533.93v-22.82h6.59c1.75,0,3.34,0.29,4.77,0.86c1.43,0.58,2.65,1.37,3.65,2.37c1,1.01,1.78,2.21,2.34,3.62
		c0.56,1.41,0.84,2.92,0.84,4.55v0.1c0,1.63-0.28,3.14-0.84,4.53c-0.56,1.39-1.34,2.59-2.34,3.6c-1,1.01-2.22,1.79-3.65,2.35
		c-1.43,0.56-3.02,0.84-4.77,0.84H163.21L163.21,533.93z M157.39,539.23h12.46c2.61,0,5-0.43,7.18-1.29
		c2.18-0.86,4.06-2.04,5.63-3.53s2.79-3.26,3.65-5.3c0.86-2.04,1.29-4.23,1.29-6.59v-0.1c0-2.35-0.43-4.54-1.29-6.56
		c-0.86-2.02-2.08-3.78-3.65-5.28c-1.58-1.5-3.45-2.67-5.63-3.51c-2.18-0.84-4.58-1.27-7.18-1.27h-12.46V539.23L157.39,539.23z
		 M208.37,534.03v-9.17h9.28c2.32,0,4.04,0.39,5.16,1.17c1.13,0.78,1.69,1.89,1.69,3.32v0.1c0,1.53-0.57,2.67-1.71,3.44
		c-1.14,0.76-2.71,1.15-4.71,1.15H208.37L208.37,534.03z M208.37,519.9v-8.88h8.42c1.9,0,3.35,0.38,4.35,1.12
		c1,0.75,1.5,1.79,1.5,3.13v0.1c0,1.53-0.57,2.67-1.71,3.41c-1.14,0.75-2.66,1.12-4.57,1.12H208.37L208.37,519.9z M202.55,539.23
		h15.44c1.84,0,3.53-0.2,5.05-0.6c1.52-0.4,2.83-0.98,3.91-1.74c1.08-0.76,1.91-1.72,2.5-2.86s0.88-2.47,0.88-3.96v-0.1
		c0-1.15-0.16-2.15-0.48-3.01c-0.32-0.86-0.77-1.61-1.35-2.24c-0.58-0.64-1.28-1.19-2.09-1.65c-0.81-0.46-1.7-0.87-2.68-1.22
		c0.6-0.32,1.19-0.7,1.77-1.15c0.58-0.45,1.09-0.96,1.52-1.55c0.43-0.59,0.77-1.27,1.04-2.05c0.27-0.78,0.4-1.68,0.4-2.7v-0.1
		c0-2.2-0.75-4.04-2.24-5.54c-1.97-1.97-4.88-2.96-8.72-2.96h-14.96V539.23L202.55,539.23z M256.32,533.45
		c-1.39-0.64-2.59-1.49-3.59-2.55c-1-1.07-1.77-2.32-2.33-3.77c-0.56-1.45-0.83-2.98-0.83-4.61v-0.1c0-1.62,0.28-3.15,0.83-4.58
		c0.55-1.43,1.32-2.68,2.3-3.75c0.98-1.06,2.16-1.91,3.54-2.53c1.38-0.62,2.89-0.93,4.54-0.93c1.65,0,3.17,0.32,4.56,0.96
		c1.39,0.64,2.59,1.49,3.59,2.55c1,1.07,1.77,2.32,2.33,3.77c0.56,1.45,0.83,2.98,0.83,4.61v0.1c0,1.62-0.28,3.15-0.83,4.58
		s-1.32,2.68-2.31,3.75c-0.98,1.07-2.16,1.91-3.54,2.53c-1.38,0.62-2.89,0.93-4.54,0.93C259.24,534.41,257.72,534.09,256.32,533.45
		L256.32,533.45z M267.86,538.42c2.13-0.92,3.98-2.17,5.54-3.75c1.56-1.57,2.77-3.41,3.63-5.49c0.86-2.08,1.29-4.3,1.29-6.66v-0.1
		c0-2.35-0.43-4.58-1.29-6.66c-0.86-2.08-2.05-3.91-3.58-5.47c-1.53-1.56-3.36-2.79-5.49-3.7c-2.13-0.91-4.49-1.36-7.07-1.36
		c-2.58,0-4.93,0.46-7.07,1.38c-2.13,0.92-3.98,2.17-5.54,3.75c-1.56,1.57-2.77,3.41-3.63,5.49c-0.86,2.09-1.29,4.3-1.29,6.66v0.1
		c0,2.36,0.43,4.58,1.29,6.66c0.86,2.09,2.05,3.91,3.58,5.47c1.53,1.56,3.36,2.79,5.49,3.7c2.13,0.91,4.49,1.36,7.07,1.36
		C263.37,539.8,265.73,539.34,267.86,538.42L267.86,538.42z M304.73,533.45c-1.4-0.64-2.59-1.49-3.59-2.55
		c-1-1.07-1.78-2.32-2.33-3.77c-0.56-1.45-0.83-2.98-0.83-4.61v-0.1c0-1.62,0.28-3.15,0.83-4.58c0.55-1.43,1.32-2.68,2.31-3.75
		c0.98-1.06,2.16-1.91,3.54-2.53c1.38-0.62,2.89-0.93,4.54-0.93c1.65,0,3.17,0.32,4.56,0.96c1.39,0.64,2.59,1.49,3.59,2.55
		c1,1.07,1.77,2.32,2.33,3.77c0.55,1.45,0.83,2.98,0.83,4.61v0.1c0,1.62-0.28,3.15-0.83,4.58c-0.55,1.43-1.32,2.68-2.3,3.75
		c-0.98,1.07-2.16,1.91-3.54,2.53c-1.38,0.62-2.89,0.93-4.54,0.93C307.65,534.41,306.13,534.09,304.73,533.45L304.73,533.45z
		 M316.27,538.42c2.13-0.92,3.98-2.17,5.54-3.75c1.56-1.57,2.77-3.41,3.63-5.49c0.86-2.08,1.29-4.3,1.29-6.66v-0.1
		c0-2.35-0.43-4.58-1.29-6.66c-0.86-2.08-2.05-3.91-3.58-5.47c-1.53-1.56-3.36-2.79-5.49-3.7c-2.13-0.91-4.49-1.36-7.07-1.36
		c-2.58,0-4.93,0.46-7.07,1.38c-2.13,0.92-3.98,2.17-5.54,3.75c-1.56,1.57-2.77,3.41-3.63,5.49c-0.86,2.09-1.29,4.3-1.29,6.66v0.1
		c0,2.36,0.43,4.58,1.29,6.66c0.86,2.09,2.05,3.91,3.58,5.47c1.53,1.56,3.36,2.79,5.49,3.7c2.13,0.91,4.49,1.36,7.07,1.36
		C311.78,539.8,314.13,539.34,316.27,538.42L316.27,538.42z M341.66,539.23h5.82v-9.69l5.2-5.35l11.41,15.04h7.11l-14.51-19.05
		l13.89-14.37h-7.21l-15.9,16.8v-16.8h-5.82V539.23L341.66,539.23z"/>
	<path class="st0" d="M52.23,466.3c-2.18-1.02-4.04-2.38-5.59-4.1c-1.55-1.71-2.76-3.69-3.61-5.92c-0.86-2.24-1.29-4.61-1.29-7.11
		v-0.2c0-2.5,0.41-4.87,1.24-7.11c0.82-2.24,2.01-4.2,3.56-5.87c1.55-1.68,3.4-3.01,5.54-4c2.14-0.99,4.54-1.48,7.18-1.48
		c2.64,0,5.05,0.51,7.23,1.53c2.18,1.02,4.06,2.39,5.64,4.1c1.58,1.71,2.8,3.69,3.66,5.92c0.86,2.24,1.29,4.61,1.29,7.11v0.2
		c0,2.5-0.43,4.87-1.29,7.11c-0.86,2.24-2.05,4.19-3.56,5.87c-1.52,1.68-3.36,3.01-5.54,4c-2.18,0.99-4.59,1.48-7.23,1.48
		C56.81,467.83,54.41,467.32,52.23,466.3L52.23,466.3z M74.11,482.29c4.54-1.88,8.49-4.44,11.85-7.7c3.36-3.26,5.97-7.07,7.85-11.45
		c1.88-4.38,2.81-9.03,2.81-13.97v-0.2c0-4.93-0.94-9.57-2.81-13.92c-1.88-4.34-4.46-8.13-7.75-11.35
		c-3.29-3.22-7.21-5.78-11.75-7.65c-4.54-1.88-9.48-2.81-14.81-2.81c-5.33,0-10.27,0.94-14.81,2.81c-4.54,1.88-8.49,4.44-11.85,7.7
		c-3.36,3.26-5.97,7.08-7.85,11.45c-1.88,4.38-2.81,9.03-2.81,13.97v0.2c0,4.94,0.94,9.58,2.81,13.92
		c1.88,4.34,4.46,8.13,7.75,11.35c3.29,3.23,7.21,5.77,11.75,7.65c4.54,1.88,9.48,2.81,14.81,2.81
		C64.64,485.1,69.57,484.17,74.11,482.29L74.11,482.29z M145.18,483.38c3.42-1.02,6.35-2.5,8.79-4.43c2.43-1.94,4.33-4.29,5.68-7.05
		c1.35-2.76,2.02-5.91,2.02-9.46v-0.2c0-3.22-0.59-5.99-1.78-8.33c-1.18-2.33-2.9-4.32-5.13-5.96c-2.24-1.64-4.95-3.04-8.14-4.19
		c-3.19-1.15-6.76-2.15-10.71-3c-2.37-0.52-4.33-1.03-5.87-1.53c-1.55-0.49-2.76-0.98-3.65-1.48c-0.89-0.49-1.51-1.03-1.88-1.63
		c-0.36-0.59-0.54-1.28-0.54-2.07v-0.2c0-1.25,0.57-2.3,1.73-3.15c1.15-0.85,2.88-1.28,5.18-1.28c3.09,0,6.3,0.58,9.62,1.73
		c3.32,1.15,6.56,2.85,9.72,5.08l9.57-13.57c-3.75-3.04-7.95-5.35-12.59-6.9c-4.64-1.56-9.92-2.33-15.84-2.33
		c-4.15,0-7.86,0.54-11.15,1.63c-3.29,1.08-6.11,2.61-8.44,4.58c-2.34,1.97-4.11,4.3-5.33,7c-1.22,2.69-1.83,5.65-1.83,8.87v0.2
		c0,3.55,0.67,6.52,2.02,8.92c1.35,2.4,3.19,4.4,5.53,6.01c2.34,1.61,5.08,2.92,8.24,3.94c3.16,1.02,6.58,1.96,10.27,2.81
		c2.37,0.53,4.29,1.04,5.77,1.53c1.48,0.49,2.67,1,3.55,1.53c0.89,0.53,1.5,1.07,1.83,1.62c0.33,0.56,0.49,1.2,0.49,1.92v0.2
		c0,1.51-0.68,2.68-2.02,3.5c-1.35,0.82-3.31,1.23-5.87,1.23c-8.03,0-15.5-2.76-22.41-8.29l-10.66,12.76
		c4.28,3.84,9.2,6.72,14.76,8.64c5.56,1.92,11.43,2.88,17.62,2.88C137.94,484.91,141.76,484.4,145.18,483.38L145.18,483.38z
		 M170.94,483.72h52.61v-16.78h-33.46v-52.32h-19.15V483.72L170.94,483.72z M275.33,483.92c3.06-0.79,5.82-1.88,8.29-3.26
		c2.47-1.38,4.67-3.03,6.61-4.93c1.94-1.91,3.73-3.98,5.38-6.22l-14.41-10.26c-1.05,1.25-2.12,2.39-3.21,3.4
		c-1.09,1.02-2.24,1.91-3.45,2.67c-1.22,0.76-2.57,1.33-4.05,1.73c-1.48,0.39-3.11,0.59-4.89,0.59c-2.43,0-4.66-0.48-6.66-1.43
		c-2.01-0.95-3.73-2.25-5.18-3.9c-1.45-1.64-2.58-3.6-3.4-5.87c-0.82-2.27-1.23-4.69-1.23-7.26v-0.2c0-2.5,0.41-4.87,1.23-7.11
		c0.82-2.24,1.96-4.18,3.4-5.82c1.45-1.64,3.17-2.94,5.18-3.9c2.01-0.95,4.23-1.43,6.66-1.43c3.36,0,6.22,0.72,8.59,2.17
		c2.37,1.45,4.54,3.42,6.51,5.92l14.41-11.15c-1.52-2.11-3.24-4.05-5.18-5.82c-1.94-1.78-4.11-3.31-6.51-4.59
		c-2.4-1.28-5.05-2.27-7.95-2.96c-2.9-0.69-6.12-1.04-9.67-1.04c-5.26,0-10.12,0.92-14.56,2.76c-4.44,1.84-8.28,4.39-11.5,7.65
		c-3.23,3.26-5.76,7.07-7.6,11.45c-1.84,4.38-2.76,9.06-2.76,14.07v0.2c0,5.13,0.94,9.89,2.81,14.26c1.88,4.38,4.41,8.16,7.6,11.35
		c3.19,3.19,6.96,5.67,11.3,7.45s8.98,2.67,13.92,2.67C268.83,485.1,272.27,484.71,275.33,483.92L275.33,483.92z"/>
	<path class="st1" d="M176.93,353.85c-7.65,0-15.18-0.49-22.57-1.44C161.75,353.36,169.28,353.85,176.93,353.85L176.93,353.85
		 M177.06,353.85c0.01,0,0.03,0,0.04,0C177.08,353.85,177.07,353.85,177.06,353.85 M177.19,353.85c0.02,0,0.03,0,0.05,0
		C177.22,353.85,177.2,353.85,177.19,353.85 M177.31,353.85c0.02,0,0.04,0,0.06,0C177.35,353.85,177.33,353.85,177.31,353.85
		 M177.39,353.85c0.58,0,1.15-0.01,1.73-0.01c0.01,0,0,0,0.01,0c0.03,0,0.05,0,0.08,0c46.03-0.58,87.8-18.78,118.96-48.12
		c-17.8-75.23-64.89-109.93-101.58-119.14c0.02-0.37,0.03-0.74,0.03-1.1c0-10.9-4.57-20.29-11.18-24.71
		c-3.21,6.29-8.47,21.26-8.47,27.54c0-6.4-5.03-21.67-7.96-27.88c-6.88,4.26-11.69,13.86-11.69,25.05c0,5.83,2.36,13.82,5.48,21.43
		c-12.2,10.03-30.7,14.08-52.74,14.08c-31.48,0-70.2-8.25-108.23-19.1c5.98,42.21,26.81,79.64,57.09,106.78
		C22.77,276.28,0,229.28,0,176.93C0,79.21,79.21,0,176.93,0c97.71,0,176.93,79.21,176.93,176.93
		C353.85,274.49,274.89,353.6,177.39,353.85 M134.04,348.59L134.04,348.59c57.37-47.58,58.76-100.04,52.39-131.52
		c0.27-0.52,0.53-1.04,0.8-1.58c-0.17,0.33-0.33,0.66-0.5,0.99c0,0,0,0.01-0.01,0.01c-0.01,0.02-0.02,0.04-0.03,0.06c0,0,0,0,0,0
		c-0.01,0.02-0.02,0.05-0.04,0.07c0,0,0,0,0,0.01c-0.01,0.02-0.02,0.04-0.03,0.06c0,0.01-0.01,0.01-0.01,0.02
		c-0.01,0.02-0.01,0.03-0.02,0.05c0,0.01-0.01,0.02-0.01,0.02c-0.01,0.02-0.02,0.04-0.03,0.06c0,0,0,0.01-0.01,0.01
		c-0.01,0.02-0.02,0.03-0.03,0.05c0,0.01-0.01,0.02-0.01,0.02c-0.01,0.02-0.01,0.03-0.02,0.05c0,0.01-0.01,0.01-0.01,0.02
		c-0.01,0.02-0.02,0.04-0.03,0.06l0,0l0,0l0,0c1.5,7.44,2.57,16.05,2.58,25.49C189.02,273.07,177.85,312.26,134.04,348.59
		 M169.43,220.69c-0.09-0.15-0.18-0.31-0.26-0.47c0,0-0.01-0.01-0.01-0.01c-0.01-0.01-0.01-0.02-0.02-0.03
		c-0.18-0.32-0.35-0.64-0.53-0.97C168.89,219.71,169.16,220.21,169.43,220.69L169.43,220.69 M187.25,215.47
		c0-0.01,0.01-0.02,0.01-0.03C187.26,215.45,187.25,215.46,187.25,215.47"/>
	<path class="st0" d="M61.18,310.68c-0.04-0.03-0.08-0.07-0.11-0.1C61.1,310.61,61.14,310.64,61.18,310.68 M61.03,310.55
		c-0.03-0.03-0.07-0.06-0.1-0.09C60.97,310.49,61,310.52,61.03,310.55 M60.92,310.45c-0.68-0.59-1.35-1.18-2.01-1.78
		c0.45,0.4,0.89,0.79,1.34,1.19C60.47,310.06,60.7,310.26,60.92,310.45 M169.43,220.69L169.43,220.69L169.43,220.69L169.43,220.69
		L169.43,220.69 M166.06,214.22c0-0.01-0.01-0.01-0.01-0.02l0,0c-1.13-2.33-2.23-4.79-3.26-7.29c0,0,0,0,0,0
		C163.82,209.42,164.93,211.89,166.06,214.22 M194.75,196.56C194.75,196.56,194.75,196.56,194.75,196.56
		c1.02-3.61,1.68-7.03,1.82-9.99c0,0,0.01,0,0.01,0C196.44,189.53,195.77,192.96,194.75,196.56"/>
	<path class="st2" d="M179.12,353.84C179.12,353.84,179.13,353.84,179.12,353.84C179.12,353.84,179.12,353.84,179.12,353.84
		 M179.21,353.84c18.28-0.23,35.87-3.27,52.42-8.64c34.96-69.11-9.71-124.77-36.87-148.63c1.02-3.61,1.69-7.03,1.83-9.98
		c36.69,9.21,83.78,43.92,101.58,119.14C267.01,335.06,225.24,353.26,179.21,353.84 M134.04,348.59L134.04,348.59
		c43.81-36.33,54.97-75.52,54.97-106.03C189.02,273.07,177.85,312.26,134.04,348.59 M60.25,309.86c-0.45-0.4-0.9-0.79-1.34-1.19
		C28.63,281.53,7.79,244.1,1.82,201.89C39.85,212.75,78.57,221,110.05,221c22.05,0,40.54-4.05,52.75-14.08
		c1.02,2.5,2.13,4.96,3.25,7.29c-27.85,47.29-95.71,56.25-133.88,64.32C40.28,290.04,49.69,300.58,60.25,309.86 M169.43,220.69
		c-0.09-0.15-0.18-0.31-0.26-0.47C169.26,220.38,169.35,220.53,169.43,220.69L169.43,220.69 M169.16,220.21
		c-0.01-0.01-0.01-0.02-0.02-0.03C169.15,220.18,169.16,220.19,169.16,220.21 M186.47,217.01c0-0.01,0.01-0.01,0.01-0.02
		C186.48,216.99,186.48,217,186.47,217.01 M186.5,216.94c0-0.01,0.01-0.02,0.01-0.02C186.51,216.92,186.51,216.93,186.5,216.94
		 M186.54,216.86c0-0.01,0-0.01,0.01-0.01C186.55,216.85,186.55,216.86,186.54,216.86 M186.58,216.79c0-0.01,0.01-0.02,0.01-0.02
		C186.59,216.77,186.59,216.78,186.58,216.79 M186.62,216.72c0-0.01,0.01-0.01,0.01-0.02C186.63,216.7,186.62,216.71,186.62,216.72
		 M186.66,216.64C186.66,216.64,186.66,216.63,186.66,216.64C186.66,216.63,186.66,216.64,186.66,216.64 M186.7,216.56
		C186.7,216.56,186.7,216.56,186.7,216.56C186.7,216.56,186.7,216.56,186.7,216.56 M186.73,216.49c0-0.01,0-0.01,0.01-0.01
		C186.74,216.48,186.74,216.49,186.73,216.49"/>
	<path class="st0" d="M176.93,353.85L176.93,353.85c0.04,0,0.09,0,0.13,0C177.01,353.85,176.97,353.85,176.93,353.85 M177.1,353.85
		c0.02,0,0.06,0,0.09,0C177.16,353.85,177.13,353.85,177.1,353.85 M177.24,353.85c0.02,0,0.05,0,0.07,0
		C177.29,353.85,177.26,353.85,177.24,353.85 M177.37,353.85c0.01,0,0.01,0,0.02,0C177.38,353.85,177.38,353.85,177.37,353.85
		 M154.36,352.41c-6.9-0.89-13.68-2.17-20.32-3.82l0,0c4.06,1.01,8.18,1.89,12.35,2.61C149.03,351.67,151.68,352.07,154.36,352.41
		 M61.18,310.68L61.18,310.68L61.18,310.68c49.47-16.75,90.54-39.32,108.25-89.99l0,0C151.72,271.36,110.65,293.92,61.18,310.68
		 M61.07,310.58c-0.01-0.01-0.02-0.02-0.03-0.03C61.04,310.56,61.06,310.57,61.07,310.58 M60.93,310.46c0,0-0.01-0.01-0.01-0.01
		C60.92,310.45,60.93,310.46,60.93,310.46 M168.61,219.2c-0.06-0.11-0.12-0.23-0.19-0.34c-0.79-1.46-1.58-3.02-2.37-4.64
		C166.9,215.97,167.76,217.64,168.61,219.2 M187.24,215.49c0-0.01,0.01-0.02,0.01-0.03C187.24,215.48,187.24,215.49,187.24,215.49
		 M187.26,215.44c2.91-5.84,5.72-12.63,7.48-18.88l0,0c-1.7,6.04-4.39,12.59-7.2,18.29c0,0,0,0.01,0,0.01
		c-0.01,0.01-0.01,0.02-0.02,0.03c-0.01,0.01-0.01,0.02-0.02,0.04c0,0-0.01,0.01-0.01,0.02
		C187.42,215.11,187.34,215.28,187.26,215.44"/>
	<path class="st0" d="M176.93,353.85c-7.65,0-15.18-0.49-22.57-1.44c-2.68-0.34-5.33-0.75-7.97-1.21
		C156.31,352.94,166.51,353.85,176.93,353.85c0.73,0,1.46-0.01,2.19-0.01c-0.58,0.01-1.15,0.01-1.73,0.01c-0.01,0-0.01,0-0.02,0
		c-0.02,0-0.04,0-0.06,0c-0.02,0-0.05,0-0.07,0c-0.02,0-0.03,0-0.05,0c-0.02,0-0.06,0-0.09,0c-0.01,0-0.03,0-0.04,0
		C177.01,353.85,176.97,353.85,176.93,353.85 M179.13,353.84c0.03,0,0.05,0,0.08,0C179.18,353.84,179.15,353.84,179.13,353.84
		 M189.01,242.56c0-9.44-1.07-18.05-2.58-25.49l0,0C187.94,224.51,189.01,233.12,189.01,242.56 M169.17,220.22
		c0,0-0.01-0.01-0.01-0.01C169.17,220.21,169.17,220.21,169.17,220.22 M169.14,220.17c-0.24-0.43-0.48-0.87-0.72-1.31
		c0.06,0.11,0.12,0.23,0.19,0.34C168.79,219.53,168.97,219.86,169.14,220.17 M186.44,217.07c0.01-0.02,0.02-0.04,0.03-0.06
		C186.46,217.03,186.45,217.05,186.44,217.07 M186.48,216.98c0.01-0.02,0.01-0.03,0.02-0.05
		C186.5,216.95,186.49,216.97,186.48,216.98 M186.52,216.91c0.01-0.02,0.02-0.03,0.03-0.05
		C186.53,216.88,186.53,216.9,186.52,216.91 M186.55,216.85c0.01-0.02,0.02-0.04,0.03-0.06
		C186.57,216.81,186.56,216.83,186.55,216.85 M186.6,216.76c0.01-0.01,0.02-0.03,0.02-0.05C186.61,216.73,186.6,216.75,186.6,216.76
		 M186.63,216.7c0.01-0.02,0.02-0.04,0.03-0.06C186.65,216.66,186.64,216.68,186.63,216.7 M186.66,216.63
		c0.01-0.02,0.02-0.05,0.04-0.07C186.69,216.58,186.67,216.61,186.66,216.63 M186.7,216.56c0.01-0.02,0.02-0.04,0.03-0.06
		C186.72,216.51,186.71,216.54,186.7,216.56 M186.74,216.48c0.17-0.33,0.33-0.65,0.5-0.99c0-0.01,0.01-0.02,0.01-0.03
		c0-0.01,0.01-0.02,0.01-0.03c0.08-0.16,0.16-0.32,0.24-0.49C187.25,215.47,187,215.98,186.74,216.48 M187.51,214.94
		c0.01-0.01,0.01-0.02,0.02-0.04C187.52,214.91,187.52,214.92,187.51,214.94 M187.55,214.87c0,0,0-0.01,0-0.01
		C187.55,214.86,187.55,214.86,187.55,214.87"/>
	<path class="st0" d="M146.39,351.2c-4.17-0.73-8.29-1.6-12.35-2.61l0,0C138.1,349.6,142.22,350.48,146.39,351.2 M61.18,310.68
		L61.18,310.68c-0.04-0.03-0.08-0.07-0.11-0.1c-0.01-0.01-0.02-0.02-0.03-0.03c-0.03-0.03-0.07-0.06-0.1-0.09
		c0,0-0.01-0.01-0.01-0.01c-0.22-0.19-0.45-0.39-0.67-0.59C60.56,310.13,60.87,310.41,61.18,310.68
		c49.47-16.75,90.54-39.32,108.25-89.99l0,0C151.72,271.36,110.65,293.92,61.18,310.68 M168.43,218.86
		c-0.79-1.47-1.59-3.03-2.38-4.66l0,0c0,0.01,0.01,0.01,0.01,0.02C166.84,215.84,167.64,217.4,168.43,218.86 M187.51,214.95
		c0-0.01,0.01-0.01,0.01-0.02C187.51,214.94,187.51,214.95,187.51,214.95 M187.53,214.9c0.01-0.01,0.01-0.02,0.02-0.03
		C187.54,214.88,187.54,214.89,187.53,214.9 M187.55,214.85c2.81-5.71,5.49-12.26,7.2-18.29c0,0,0,0,0,0
		C193.04,202.6,190.36,209.15,187.55,214.85"/>
	<path class="st3" d="M176.93,353.85c-10.42,0-20.62-0.91-30.54-2.65c-4.17-0.73-8.29-1.6-12.35-2.61
		c43.81-36.33,54.97-75.52,54.97-106.03c0-9.44-1.07-18.05-2.58-25.49l0,0c0.01-0.02,0.02-0.04,0.03-0.06
		c0-0.01,0.01-0.01,0.01-0.02c0.01-0.01,0.01-0.03,0.02-0.05c0-0.01,0.01-0.02,0.01-0.02c0.01-0.02,0.02-0.03,0.03-0.05
		c0-0.01,0-0.01,0.01-0.01c0.01-0.02,0.02-0.04,0.03-0.06c0-0.01,0.01-0.02,0.01-0.02c0.01-0.01,0.02-0.03,0.02-0.05
		c0-0.01,0.01-0.01,0.01-0.02c0.01-0.02,0.02-0.04,0.03-0.06c0,0,0,0,0-0.01c0.01-0.02,0.02-0.05,0.04-0.07c0,0,0,0,0,0
		c0.01-0.02,0.02-0.04,0.03-0.06c0-0.01,0-0.01,0.01-0.01c0.26-0.5,0.51-1.01,0.77-1.53c0-0.01,0.01-0.01,0.01-0.02
		c0.01-0.01,0.01-0.02,0.02-0.04c0-0.01,0.01-0.02,0.02-0.03c0,0,0-0.01,0-0.01c2.81-5.71,5.49-12.25,7.2-18.29
		c27.16,23.86,71.83,79.52,36.87,148.63c-16.54,5.37-34.14,8.41-52.42,8.64c-0.03,0-0.05,0-0.08,0c0,0-0.01,0-0.01,0
		C178.39,353.85,177.66,353.85,176.93,353.85 M61.18,310.68c-0.31-0.27-0.62-0.54-0.93-0.81c-10.56-9.28-19.97-19.82-28.08-31.34
		c38.17-8.07,106.03-17.03,133.88-64.32c0.79,1.63,1.59,3.19,2.38,4.66c0.24,0.45,0.48,0.88,0.72,1.31
		c0.01,0.01,0.01,0.02,0.02,0.03c0,0,0.01,0.01,0.01,0.01c0.09,0.16,0.18,0.31,0.26,0.47C151.72,271.36,110.65,293.92,61.18,310.68"
		/>
	<path class="st0" d="M207.5,86.08c0-23.9-30.54-66.53-30.54-66.53s-30.54,42.63-30.54,66.53c0,23.9,30.54,68.38,30.54,88.96
		C176.96,154.46,207.5,109.98,207.5,86.08L207.5,86.08z"/>
	<path class="st0" d="M190.23,148.85c9.05,4.18,22.91,12.76,22.91,26.19c12.85-23.08-2.89-46.15-10.07-54.82
		C198.89,129.84,194.13,139.73,190.23,148.85L190.23,148.85z"/>
	<path class="st0" d="M163.62,148.85c-9.04,4.18-22.91,12.76-22.91,26.19c-12.85-23.08,2.89-46.15,10.07-54.82
		C154.96,129.84,159.72,139.73,163.62,148.85L163.62,148.85z"/>
	<path class="st0" d="M196.61,185.48c0-10.9-4.57-20.29-11.18-24.71c-0.89,1.75-1.94,4.17-2.99,6.89c4.28,2.87,7.24,8.95,7.24,16.02
		c0,9.82-10.34,29.08-12.75,29.08c-2.41,0-12.75-19.26-12.75-29.08c0-7.26,3.12-13.48,7.58-16.25c0.07,0.15,0.15,0.32,0.22,0.49
		c-1.06-2.98-2.11-5.64-2.99-7.48c-6.88,4.26-11.69,13.87-11.69,25.05c0,15.14,15.93,44.82,19.65,44.82
		C180.68,230.3,196.61,200.62,196.61,185.48L196.61,185.48z"/>
</g>
</svg>
