<?xml version="1.0" encoding="utf-8"?>
<!-- Generator: Adobe Illustrator 26.0.1, SVG Export Plug-In . SVG Version: 6.00 Build 0)  -->
<svg version="1.1" id="Layer_1" xmlns="http://www.w3.org/2000/svg" xmlns:xlink="http://www.w3.org/1999/xlink" x="0px" y="0px"
	 viewBox="0 0 586.52 546.24" style="enable-background:new 0 0 586.52 546.24;" xml:space="preserve">
<path d="M354.86,390.08h6.27v-11.95c0-2.93-1.71-5.3-5.61-5.3c-2.96,0-4.81,1.22-5.78,2.34v-1.92h-6.27v16.83h6.27V379.7
	c0.52-0.59,1.25-1.32,2.68-1.32c1.5,0,2.44,0.66,2.44,2.4V390.08z M328.17,384.96c-1.92,0-3-1.43-3-3.31c0-1.85,1.08-3.28,3-3.28
	c1.95,0,3.03,1.43,3.03,3.28C331.2,383.53,330.12,384.96,328.17,384.96 M328.17,390.5c5.99,0,9.48-4.15,9.48-8.85
	s-3.48-8.82-9.48-8.82c-5.96,0-9.44,4.11-9.44,8.82S322.21,390.5,328.17,390.5 M306.64,383.81c-0.59,0.73-1.78,1.15-2.61,1.15
	c-1.71,0-3.14-1.22-3.14-3.31c0-2.09,1.43-3.28,3.14-3.28c0.84,0,2.02,0.38,2.61,1.12V383.81z M306.64,390.08h6.27v-23.24h-6.27
	v8.19c-1.32-1.6-3.03-2.2-4.74-2.2c-4.15,0-7.42,3.24-7.42,8.82c0,5.78,3.35,8.85,7.42,8.85c1.71,0,3.31-0.59,4.74-2.2V390.08z
	 M282.39,390.08h6.27v-11.95c0-2.93-1.71-5.3-5.61-5.3c-2.96,0-4.81,1.22-5.78,2.34v-1.92h-6.27v16.83h6.27V379.7
	c0.52-0.59,1.25-1.32,2.68-1.32c1.5,0,2.44,0.66,2.44,2.4V390.08z M255.7,384.96c-1.92,0-3-1.43-3-3.31c0-1.85,1.08-3.28,3-3.28
	c1.95,0,3.03,1.43,3.03,3.28C258.73,383.53,257.65,384.96,255.7,384.96 M255.7,390.5c5.99,0,9.48-4.15,9.48-8.85
	s-3.48-8.82-9.48-8.82c-5.96,0-9.44,4.11-9.44,8.82S249.74,390.5,255.7,390.5 M225.38,390.08h15.85v-6.13h-8.82v-17.11h-7.04V390.08
	z"/>
<path d="M92.99,388.95c0.79-0.32,1.46-0.8,2.04-1.37l31.21,30.95c-0.53,0.72-0.79,1.63-0.61,2.58c0.25,1.31,1.24,2.28,2.46,2.58
	l-4.75,47.15c-0.4-0.08-0.82-0.14-1.25-0.1L92.99,388.95z M124.27,471.16l4.77-47.42c0.16-0.01,0.31,0.04,0.47,0.01
	c1.71-0.32,2.82-1.91,2.64-3.61l36.53-9.41c0.21,0.62,0.55,1.16,0.99,1.61l-44.49,58.97l-0.71-0.05
	C124.4,471.23,124.34,471.19,124.27,471.16 M169.27,407.31c-0.1,0.15-0.26,0.26-0.34,0.42l-71.87-23.7c0.17-0.83,0.22-1.7,0.05-2.59
	c-0.04-0.19-0.15-0.34-0.2-0.53l32.83-10.75c0.64,1.29,2.04,2.08,3.53,1.8c0.49-0.09,0.93-0.31,1.31-0.59L169.27,407.31z
	 M96.67,385.13l71.86,23.7c-0.05,0.31-0.03,0.64-0.01,0.97l-36.62,9.44c-0.59-1.41-2.05-2.29-3.61-2c-0.52,0.1-0.96,0.33-1.36,0.63
	l-31.26-31C96.06,386.33,96.42,385.76,96.67,385.13 M119.65,472.09c-0.23,0.24-0.46,0.47-0.62,0.77l-2.42-0.97L119.65,472.09z
	 M166.19,470.99l30.02-57.15c1.17,0.41,2.48,0.28,3.55-0.42l28.81,32.39c-0.89,0.99-1.2,2.3-0.94,3.54l-59.92,23
	c-0.1-0.14-0.16-0.3-0.28-0.43C167.07,471.52,166.64,471.22,166.19,470.99 M167.92,476.57c0.54-0.98,0.62-2.12,0.3-3.17l59.82-22.96
	c0.15,0.27,0.25,0.56,0.46,0.8c0.55,0.62,1.27,0.96,2.02,1.16l-7.52,53.57c-1.52,0.05-3.03,0.58-4.26,1.67
	c-0.38,0.34-0.63,0.76-0.92,1.15L167.92,476.57z M224.17,506.03l7.51-53.48c0.55-0.02,1.08-0.16,1.59-0.39l16.69,24.39
	c-1.32,1.21-1.44,3.24-0.26,4.59l-22.6,26.13C226.19,506.65,225.22,506.18,224.17,506.03 M227.84,507.86l22.6-26.12
	c1.22,0.77,2.82,0.74,3.95-0.27c0.38-0.33,0.64-0.74,0.82-1.18l48.24,12.92c-0.01,0.18-0.09,0.35-0.08,0.54l-73.81,16.7
	c-0.28-0.8-0.69-1.57-1.29-2.25C228.16,508.06,227.98,507.99,227.84,507.86 M229.81,511.59l73.8-16.7c0.11,0.3,0.31,0.57,0.49,0.84
	l-26.53,26.95c-1.23-0.9-2.93-0.91-4.12,0.15c-0.39,0.35-0.65,0.78-0.84,1.24l-42.76-10.47
	C229.91,512.94,229.92,512.26,229.81,511.59 M304.24,490.89l-68.91-40.97c0.26-0.72,0.32-1.49,0.18-2.24l46.92-16.6
	c0.15,0.29,0.27,0.59,0.49,0.84c0.98,1.1,2.4,1.47,3.75,1.24l18.91,56.7c-0.31,0.16-0.63,0.29-0.9,0.53
	C304.51,490.55,304.38,490.72,304.24,490.89 M287.77,432.8c0.31-0.16,0.63-0.28,0.9-0.53c0.35-0.31,0.58-0.68,0.8-1.06l41.16,16.05
	c-0.28,1.24-0.06,2.58,0.85,3.61c0.15,0.17,0.35,0.25,0.51,0.39l-6.36,10.61c-0.76,0.07-1.52,0.29-2.17,0.8
	c-1.45,1.16-1.84,3.1-1.15,4.73l-13.38,22.33c-0.71-0.27-1.49-0.36-2.25-0.23L287.77,432.8z M325.56,469.86
	c1.04,0.13,2.12-0.12,3-0.83c0.92-0.74,1.41-1.8,1.49-2.89l61.38,7.45c0.02,0.58,0.12,1.17,0.38,1.71l-60.56,56.56
	c-0.63-0.35-1.33-0.53-2.05-0.53L325.56,469.86z M332.19,532.6l60.28-56.3c0.29,0.3,0.62,0.52,0.97,0.7L376.1,518
	c-0.98-0.25-2.04-0.11-2.89,0.56c-0.96,0.77-1.33,1.95-1.15,3.09l-39.18,12.06c-0.13-0.31-0.25-0.62-0.47-0.89
	C332.35,532.73,332.26,532.67,332.19,532.6 M303.65,491.9c-0.04,0.12-0.02,0.25-0.05,0.37l-48.14-12.9
	c0.11-0.91-0.13-1.85-0.78-2.59c-1.01-1.14-2.6-1.36-3.91-0.73l-16.68-24.37c0.05-0.04,0.12-0.06,0.17-0.1
	c0.21-0.19,0.32-0.43,0.49-0.65L303.65,491.9z M397.41,470.01l32.96-55.5c1.15,0.47,2.46,0.41,3.57-0.23l27.07,33.85
	c-0.94,0.94-1.32,2.23-1.13,3.49l-61.04,19.83c-0.09-0.15-0.14-0.31-0.25-0.45C398.26,470.58,397.85,470.26,397.41,470.01
	 M434.83,413.52c1.05-1.13,1.37-2.72,0.87-4.13l61.76-33.49c0.03,0.04,0.03,0.09,0.06,0.12c0.27,0.34,0.61,0.57,0.95,0.8
	l-33.39,70.37c-1.01-0.3-2.13-0.24-3.11,0.28L434.83,413.52z M83.73,382.4l-39.26,4.19c0.17,0.38,0.37,0.74,0.54,1.11l38.79-4.14
	c0.02,0.12,0.01,0.24,0.03,0.37c0.21,1.1,0.67,2.07,1.32,2.89l-23.45,21.54c-0.73-0.59-1.68-0.91-2.68-0.72
	c-0.83,0.16-1.51,0.63-1.99,1.25l-1.57-0.88c0.29,0.52,0.56,1.05,0.86,1.57l0.27,0.15c-0.03,0.07-0.04,0.14-0.06,0.21
	c0.8,1.39,1.68,2.74,2.51,4.11c0.25,0.04,0.5,0.11,0.76,0.09l0.35,1.73c0.48,0.79,0.95,1.58,1.44,2.36l-0.86-4.28
	c1.5-0.54,2.46-2.05,2.16-3.67c-0.09-0.47-0.28-0.89-0.53-1.25l23.45-21.54c0.5,0.48,1.05,0.91,1.67,1.21l-14.11,46.8
	c0.29,0.39,0.58,0.77,0.87,1.16l14.33-47.54c0.99,0.29,2.06,0.39,3.15,0.19c0.06-0.01,0.11-0.04,0.16-0.05l29.09,81.74l-7.83-0.54
	l-15.27-6.16c0.7,0.71,1.42,1.41,2.12,2.11l9.4,3.79l-6.01-0.41c0.43,0.41,0.83,0.84,1.26,1.25l8.23,0.56l5.73,2.31
	c-0.1,0.5-0.12,1.03-0.02,1.57c0.1,0.52,0.31,0.99,0.57,1.41l-4.72,3.03c0.31,0.26,0.61,0.53,0.92,0.79l4.6-2.96
	c0.91,0.79,2.11,1.21,3.39,0.98c2.21-0.42,3.67-2.55,3.26-4.76c-0.11-0.57-0.38-1.04-0.69-1.48l34.52,2.37
	c0.05,0.58,0.18,1.16,0.47,1.69l-21.61,22.41c0.33,0.22,0.66,0.44,0.99,0.66l21.32-22.12c0.3,0.29,0.64,0.49,1,0.65l-10.51,28.99
	c0.28,0.17,0.55,0.33,0.83,0.49l10.43-28.78l2,35.76c0.4,0.21,0.8,0.43,1.2,0.64l-2.05-36.63c0.93-0.01,1.85-0.31,2.6-0.98
	c0.06-0.05,0.08-0.12,0.13-0.17l49.97,32.27c-0.92,1.93-0.93,4.22,0.12,6.14l-18.17,13.73c0.44,0.16,0.88,0.31,1.32,0.46
	l17.51-13.23c0.08,0.1,0.13,0.2,0.22,0.3c0.74,0.83,1.64,1.43,2.62,1.8l-4.78,16.2c0.3,0.09,0.6,0.18,0.91,0.27l4.79-16.23
	c0.68,0.15,1.37,0.24,2.06,0.18l4.86,19.15c0.43,0.1,0.85,0.21,1.28,0.31l-4.99-19.66c1-0.26,1.97-0.73,2.79-1.46
	c0.04-0.04,0.07-0.08,0.11-0.12l32.54,26.74c0.73,0.09,1.47,0.22,2.2,0.3l-33.95-27.9c0.51-0.68,0.84-1.44,1.05-2.23l42.69,10.46
	c-0.09,0.89,0.16,1.8,0.8,2.52c0.89,1,2.24,1.31,3.44,0.95l8.37,17.74c0.36,0.01,0.71,0.03,1.07,0.04l-8.6-18.22
	c0.13-0.09,0.28-0.13,0.4-0.23c1.3-1.16,1.43-3.09,0.41-4.45l26.46-26.88c0.5,0.42,1.06,0.71,1.67,0.87l-5.17,48.91
	c0.39-0.01,0.79,0,1.18-0.02l5.15-48.75c0.91-0.04,1.82-0.32,2.55-0.97c1.68-1.5,1.83-4.07,0.34-5.76
	c-0.15-0.17-0.33-0.29-0.49-0.42l13.05-21.78c0.39,0.44,0.87,0.76,1.38,0.99l3.67,61.95c-0.48,0.15-0.95,0.37-1.36,0.7
	c-1.76,1.41-2.05,3.97-0.64,5.73c0.9,1.13,2.28,1.58,3.62,1.43l1.44,4.38c0.39-0.05,0.77-0.14,1.17-0.19l-1.48-4.48
	c0.34-0.14,0.68-0.27,0.98-0.5c0.63-0.5,1-1.17,1.24-1.87l14.99,4.06c0.83-0.17,1.66-0.35,2.49-0.53l-17.23-4.67
	c0.01-0.31-0.06-0.61-0.11-0.91l39.2-12.07c0.11,0.23,0.18,0.47,0.35,0.67c0.97,1.21,2.59,1.5,3.94,0.89l4.85,7.52
	c0.31-0.11,0.61-0.21,0.92-0.32l-4.95-7.68c1.33-1.16,1.54-3.16,0.43-4.55c-0.25-0.31-0.56-0.55-0.89-0.74l17.16-40.59l0.18,49.12
	c0.39-0.16,0.77-0.34,1.17-0.5l-0.18-48.79c0.92,0.04,1.86-0.21,2.65-0.84c0.06-0.05,0.08-0.12,0.14-0.17l39.31,28.4
	c0.36-0.22,0.72-0.43,1.08-0.66l-39.64-28.64c0.59-0.95,0.73-2.08,0.46-3.15l60.94-19.8c0.13,0.28,0.22,0.57,0.42,0.82
	c0.52,0.65,1.22,1.03,1.96,1.26l-7.39,38.06c0.47-0.34,0.93-0.7,1.39-1.04l7.15-36.8c0.55,0.01,1.09-0.11,1.61-0.3l12.11,19.85
	c0.24-0.22,0.48-0.43,0.71-0.65l-11.98-19.64c0.06-0.04,0.13-0.05,0.18-0.1c0.22-0.18,0.35-0.41,0.52-0.62l19.16,12.8
	c0.28-0.28,0.56-0.56,0.84-0.84l-19.37-12.93c0.3-0.7,0.4-1.47,0.29-2.22l43.34-12.82c0.39-0.51,0.77-1.04,1.15-1.55l-44.83,13.26
	c-0.13-0.28-0.27-0.55-0.47-0.8c-0.26-0.32-0.57-0.56-0.89-0.77l33.39-70.38c0.57,0.17,1.18,0.22,1.77,0.15l15.76,52.06
	c0.29-0.41,0.55-0.84,0.84-1.26l-15.48-51.1c0.29-0.13,0.57-0.29,0.83-0.5c0.65-0.52,1.03-1.23,1.27-1.97l39.38,6.5
	c0.16-0.37,0.3-0.74,0.45-1.11l-39.62-6.54c0.02-0.92-0.22-1.85-0.84-2.62c-1.41-1.76-3.98-2.04-5.73-0.64
	c-1.4,1.12-1.82,2.97-1.24,4.57l-61.77,33.5c-0.03-0.04-0.03-0.08-0.06-0.12c-0.65-0.81-1.55-1.27-2.5-1.43l20.24-28
	c0.81,0.42,1.75,0.63,2.72,0.42c2.2-0.48,3.6-2.64,3.13-4.85c-0.38-1.76-1.85-2.96-3.54-3.15l-0.11-3.08h-1.17l0.11,3.09
	c-0.05,0.01-0.09-0.01-0.14,0c-0.42,0.09-0.78,0.29-1.14,0.5l-2.82-3.59h-1.48l3.4,4.33c-0.41,0.44-0.73,0.95-0.93,1.52l-34.34-5.84
	h-6.95l41.06,6.98c-0.01,0.31,0.01,0.63,0.08,0.96c0.18,0.82,0.64,1.47,1.2,2.01l-20.77,28.72c-0.63,0.12-1.24,0.34-1.77,0.77
	c-1.14,0.91-1.59,2.31-1.43,3.66l-17.62,24.37c-0.78-0.63-1.78-0.98-2.84-0.91l-14.29-66.4c0.11-0.04,0.21-0.11,0.31-0.16h-3.42
	c0.6,0.29,1.27,0.45,1.96,0.41l14.29,66.39c-0.8,0.31-1.49,0.79-1.96,1.47L362.38,405h-1.95l43.45,32.53
	c-0.2,0.65-0.3,1.33-0.15,2.05c0.48,2.2,2.64,3.6,4.85,3.13c2.2-0.48,3.6-2.65,3.13-4.85c-0.11-0.51-0.32-0.97-0.59-1.37
	l17.23-23.84c0.12,0.23,0.19,0.48,0.35,0.69c0.19,0.23,0.44,0.37,0.66,0.56l-33.1,55.73c-1.16-0.26-2.41-0.07-3.42,0.74
	c-0.69,0.55-1.11,1.29-1.31,2.08l-61.59-7.48c-0.13-0.59-0.36-1.16-0.76-1.66c-0.59-0.74-1.4-1.15-2.26-1.36l6.02-10.05
	c1.4,0.58,3.06,0.39,4.27-0.69c1.68-1.5,1.83-4.08,0.33-5.76c-0.54-0.61-1.23-0.94-1.96-1.15l5.05-39.3h-1.17l-5.03,39.13
	c-0.94,0.02-1.88,0.31-2.64,0.98c-0.34,0.3-0.58,0.68-0.79,1.06l-41.16-16.05c0.24-1.05,0.01-2.13-0.58-3.07l24.8-22.05h-1.76
	l-23.76,21.13c-0.96-0.8-2.21-1.08-3.4-0.84L277.84,405h-1.24l7.47,20.7c-0.28,0.15-0.57,0.26-0.82,0.48
	c-1.12,0.99-1.49,2.46-1.23,3.82l-46.92,16.6c-0.14-0.27-0.3-0.53-0.51-0.77c-0.27-0.31-0.6-0.53-0.93-0.73l16.51-40.1h-1.26
	l-16.33,39.67c-1.03-0.25-2.14-0.13-3.09,0.44l-28.88-32.48c0.99-1.19,1.22-2.79,0.65-4.17l11-6.73v-1.37l-11.6,7.1
	c-0.03-0.04-0.04-0.08-0.07-0.12c-1.5-1.68-4.07-1.83-5.76-0.34c-1.68,1.5-1.83,4.08-0.34,5.76c0.2,0.22,0.46,0.35,0.69,0.52
	l-30.14,57.39c-1.17-0.2-2.41,0.06-3.37,0.91c-0.66,0.59-1.04,1.35-1.2,2.14l-33.91-2.32l44.02-58.35c0.8,0.44,1.72,0.66,2.69,0.48
	c2.21-0.42,3.67-2.55,3.26-4.76c-0.04-0.22-0.13-0.41-0.21-0.61l35.94-19.16v-1.32l-36.5,19.46c-0.47-0.6-1.09-1.08-1.81-1.35
	l8.38-37.62h-1.2l-8.32,37.37c-0.35-0.03-0.69-0.08-1.04-0.01c-0.23,0.04-0.38,0.2-0.59,0.27l-20.24-37.63h-1.32l20.5,38.12
	c-0.1,0.08-0.15,0.2-0.24,0.29l-34.63-35.85c0.55-0.71,0.82-1.61,0.67-2.55h-6.51c-0.06,0.36-0.07,0.73-0.01,1.11l-32.83,10.75
	c-0.45-1-1.04-1.9-1.86-2.57l7.53-9.3h-1.5l-7,8.64c-1.33-0.74-2.9-1.06-4.51-0.76c-0.5,0.09-0.93,0.32-1.38,0.52l-4.12-8.4h-1.3
	l4.38,8.91C85,378.26,83.82,380.21,83.73,382.4 M205.59,368.16l6.67,8.62v-1.9l-5.19-6.72H205.59z M386.4,368.16l-13.95,11.37v1.5
	l15.79-12.88H386.4z M131.37,132l-28.29,41.16c-0.42-0.21-0.89-0.35-1.39-0.36c-1.51-0.03-2.76,0.98-3.18,2.36l-34.1-5.18
	c0.02-0.19,0.06-0.37,0.06-0.56c0.02-0.9-0.17-1.75-0.48-2.54l66.98-35.24C131.08,131.79,131.25,131.87,131.37,132 M130.39,130.63
	l-66.96,35.23c-0.35-0.58-0.8-1.09-1.29-1.54l25.72-35.74c0.44,0.23,0.92,0.39,1.44,0.4c1.59,0.03,2.88-1.08,3.23-2.57l37.68,3.26
	C130.26,130,130.28,130.33,130.39,130.63 M138.19,130c0.04-0.21,0.1-0.42,0.1-0.64c0.04-2.25-1.74-4.12-4-4.16
	c-0.98-0.02-1.85,0.36-2.57,0.92l-39.3-37.25l0.41-0.26c0.91,0.79,2.11,1.21,3.39,0.98c2.21-0.42,3.67-2.55,3.26-4.76
	c-0.12-0.62-0.4-1.15-0.75-1.62l6.14-8.14c-1.96,1.86-3.86,3.79-5.77,5.71l-1.19,1.58c-0.08-0.06-0.17-0.08-0.26-0.12
	c-2.65,2.71-5.24,5.48-7.78,8.3l1.55-0.99l39.52,37.46c-0.36,0.51-0.6,1.11-0.71,1.75l-37.58-3.26c-0.11-1.71-1.46-3.09-3.2-3.12
	c-0.16,0-0.3,0.06-0.46,0.08l-6.4-23.5c-0.25,0.3-0.49,0.6-0.74,0.9l6.22,22.81c-1.15,0.5-1.97,1.62-2,2.95
	c-0.02,0.96,0.39,1.82,1.03,2.44l-25.67,35.67c-0.67-0.47-1.41-0.83-2.24-1.01l7.59-42.69c-0.54,0.8-1.08,1.61-1.61,2.42
	l-7.14,40.12c-0.06,0-0.11-0.02-0.17-0.02c-1.11-0.02-2.14,0.25-3.07,0.7l-6.12-12.39c-0.22,0.44-0.41,0.9-0.63,1.35l5.75,11.64
	c-0.56,0.41-1.03,0.92-1.45,1.47l-8.01-5.21c-0.13,0.29-0.27,0.58-0.41,0.87l7.87,5.12c-0.5,0.91-0.8,1.95-0.82,3.07
	c0,0.12,0.03,0.24,0.03,0.37l-10.97,0.65c-0.16,0.4-0.33,0.8-0.49,1.2l11.59-0.69c0.45,2.14,1.94,3.88,3.9,4.75l-0.79,2.65h1.22
	l0.69-2.32c0.48,0.12,0.94,0.27,1.45,0.28c1.64,0.03,3.14-0.55,4.33-1.49l3.99,3.53h1.76l-4.9-4.33c0.71-0.8,1.22-1.76,1.49-2.83
	l34.07,5.17c-0.01,0.75,0.25,1.43,0.66,1.99h5.27c0.41-0.52,0.67-1.17,0.69-1.9c0.02-0.98-0.41-1.85-1.08-2.47l28.23-41.07
	c0.11,0.07,0.17,0.19,0.28,0.25l-15.36,45.2h1.23l15.23-44.82c0.21,0.04,0.43,0.09,0.65,0.1c0.36,0.01,0.69-0.1,1.03-0.19
	l18.19,44.91h1.26l-18.37-45.35c0.66-0.39,1.2-0.96,1.56-1.63l42.52,14.28c-0.04,0.21-0.14,0.4-0.14,0.63
	c-0.03,1.37,0.67,2.54,1.69,3.3l-15.43,28.78h1.32l15.12-28.2c0.41,0.15,0.83,0.28,1.29,0.29c1.01,0.02,1.92-0.37,2.64-0.97
	l31.88,28.88h1.73l-32.85-29.77c0.42-0.63,0.73-1.33,0.75-2.15c0.05-2.25-1.74-4.11-3.99-4.16c-1.62-0.03-3.01,0.9-3.7,2.25
	L138.19,130z M502.68,119.61l-36.72,35.78c-1.55-0.56-3.27,0.07-4.04,1.55l-29.8-7.93c0.1-0.81-0.04-1.63-0.4-2.35l70.1-28.5
	C502.01,118.7,502.32,119.18,502.68,119.61 M356.56,144.38l-2.55-0.37c-0.29-0.59-0.66-1.14-1.23-1.55c-0.96-0.7-2.11-0.84-3.18-0.6
	l-9.23-61.2c0.56-0.18,1.1-0.43,1.55-0.83l70.69,43.24c-0.17,0.7-0.16,1.43,0.04,2.12L356.56,144.38z M413.05,121.97l-70.36-43.04
	c0.22-0.36,0.34-0.73,0.42-1.12l44.14,5.75c0.02,1.01,0.43,2,1.32,2.63c0.99,0.72,2.24,0.75,3.28,0.29l22.1,34.53
	c-0.26,0.21-0.53,0.4-0.74,0.69C413.14,121.79,413.1,121.88,413.05,121.97 M392.64,85.96c0.19-0.16,0.4-0.3,0.55-0.51
	c0.91-1.25,0.76-2.89-0.19-4.03l20.38-22.88c0.57,0.4,1.2,0.57,1.84,0.64l0.38,60.98c-0.3,0.07-0.57,0.22-0.85,0.35L392.64,85.96z
	 M412.7,57.87l-20.39,22.89c-1.47-0.97-3.46-0.64-4.5,0.81c-0.24,0.33-0.38,0.69-0.48,1.05l-43.7-5.69l68.79-19.34
	C412.5,57.69,412.62,57.77,412.7,57.87 M412.04,53.62c-0.41,0.94-0.42,1.96-0.13,2.9l-68.75,19.34c-0.21-0.9-0.7-1.74-1.52-2.33
	c-0.06-0.04-0.13-0.05-0.2-0.09l20.69-55.77c2.09,0.48,4.32-0.01,5.97-1.45L412.04,53.62z M361.04,17.26l-20.66,55.7
	c-1.07-0.31-2.2-0.15-3.16,0.39l-35.36-53.43c0.23-0.2,0.49-0.37,0.68-0.63c0.49-0.68,0.66-1.45,0.69-2.23l53.93-4.26
	c0.38,1.47,1.23,2.84,2.55,3.8C360.13,16.91,360.59,17.06,361.04,17.26 M336.31,74.08c-0.12,0.13-0.26,0.22-0.36,0.36
	c-0.32,0.44-0.52,0.92-0.64,1.41l-62.29-16.93c0.15-1.23-0.26-2.48-1.18-3.38l25.39-35.13c1.15,0.65,2.5,0.68,3.66,0.15
	L336.31,74.08z M296.33,19.65l-25.46,35.23c-1.37-0.71-2.99-0.59-4.21,0.27l-27.57-28.58l12.95-17.36l43.19,7.52
	C295.22,17.79,295.57,18.84,296.33,19.65 M238.38,27.52l27.44,28.44c-0.03,0.04-0.07,0.06-0.1,0.09c-1.32,1.82-0.91,4.38,0.91,5.69
	c1.83,1.32,4.38,0.91,5.7-0.92c0.18-0.24,0.24-0.52,0.36-0.79l62.55,17c0.06,1.19,0.58,2.34,1.62,3.1c0.72,0.52,1.54,0.72,2.35,0.71
	l9.26,61.4c-0.38,0.21-0.75,0.47-1.05,0.8l-32.69-4.76c-0.01-0.18,0.03-0.34-0.01-0.52c-0.47-2.2-2.65-3.6-4.85-3.13
	c-0.18,0.04-0.33,0.14-0.5,0.2l-39.69-53.89c0.43-0.82,0.64-1.76,0.43-2.74c-0.48-2.2-2.65-3.61-4.85-3.13
	c-2.2,0.47-3.6,2.64-3.13,4.85c0.11,0.51,0.33,0.96,0.6,1.37l-26.97,37.63c-0.51-0.62-1.19-1-1.9-1.24l-10.05-66.22
	c0.16-0.08,0.34-0.11,0.49-0.21c1.89-1.22,2.44-3.75,1.21-5.64c-0.1-0.15-0.25-0.24-0.36-0.37L238.38,27.52z M222.69,51.81
	l9.96,65.68c-0.75-0.01-1.51,0.13-2.2,0.57c-0.08,0.05-0.12,0.15-0.2,0.21L209,95.94c0.99-1.08,1.21-2.7,0.38-3.99
	c-0.19-0.3-0.46-0.52-0.72-0.74l12.68-39.5C221.79,51.8,222.24,51.87,222.69,51.81 M220.45,51.4l-12.63,39.34
	c-0.97-0.39-2.08-0.38-3.03,0.23c-1.34,0.87-1.78,2.52-1.23,3.95l-49.81,11.28c-0.11-0.34-0.18-0.69-0.36-1.01l66.16-54.26
	C219.82,51.16,220.14,51.26,220.45,51.4 M218.73,50.1l-66.07,54.19c-0.85-0.91-1.96-1.49-3.12-1.67l4-49.72
	c0.84,0.05,1.69-0.08,2.45-0.57c1.15-0.74,1.73-1.97,1.79-3.24l60.31-0.81c0.07,0.61,0.23,1.21,0.59,1.76
	C218.69,50.06,218.71,50.07,218.73,50.1 M154.01,108.79c0.11-0.55,0.1-1.12,0.02-1.68l50.01-11.32c1.03,1.28,2.83,1.65,4.26,0.79
	l21.32,22.38c-0.5,0.64-0.87,1.36-0.94,2.16L154.01,108.79z M232.51,125.48c0.81,0.03,1.64-0.1,2.37-0.58
	c1.65-1.06,2.19-3.09,1.52-4.85l27.15-37.9c0.62,0.52,1.38,0.85,2.2,0.94l0.75,30.82c-1.62,0.4-2.63,1.94-2.45,3.57l-43.37,27.36
	c-0.34-0.45-0.73-0.86-1.2-1.18L232.51,125.48z M221.13,145.68l43.2-27.25c0.62,1.4,2.11,2.26,3.67,1.92
	c1.1-0.24,1.89-1.02,2.3-1.98l36.75,18.88c-0.12,0.32-0.28,0.62-0.31,0.97l-85.15,8.42C221.49,146.3,221.29,146,221.13,145.68
	 M307.45,136.41l-36.9-18.96c0.04-0.34,0.06-0.68-0.01-1.03c-0.32-1.5-1.62-2.48-3.09-2.55l-0.75-30.78
	c0.1-0.01,0.19-0.01,0.29-0.03c0.79-0.17,1.43-0.61,1.96-1.14l39.39,53.48C307.98,135.67,307.71,136.04,307.45,136.41 M416.38,59.16
	c0.88-0.17,1.71-0.58,2.34-1.3l57.23,23.37c-0.08,0.84,0.09,1.69,0.51,2.43l-56.82,37.92c-0.23-0.28-0.44-0.58-0.75-0.81
	c-0.65-0.47-1.39-0.65-2.14-0.69L416.38,59.16z M548.51,176.63l-11.36-6.34c0.21-0.73,0.25-1.47,0.07-2.17l6.5-3.3
	c-0.15-0.36-0.3-0.71-0.46-1.07l-6.51,3.3c-0.4-0.66-0.92-1.26-1.67-1.62c-0.83-0.4-1.71-0.42-2.54-0.26l-22.69-44.72
	c0.65-0.48,1.23-1.05,1.61-1.84c1.26-2.62,0.15-5.76-2.47-7.01c-2.62-1.26-5.75-0.15-7.01,2.46c-0.46,0.95-0.51,1.96-0.38,2.93
	l-70.53,28.68c-0.33-0.36-0.72-0.68-1.19-0.9c-2.03-0.97-4.47-0.12-5.44,1.91c-0.98,2.03-0.12,4.47,1.91,5.44
	c0.9,0.43,1.87,0.45,2.76,0.22l18.6,22.07c-0.09,0.07-0.22,0.09-0.31,0.16l-57.07-24.36c0.08-0.5,0.09-1.01-0.02-1.53
	c-0.48-2.2-2.64-3.6-4.85-3.13c-1.41,0.3-2.43,1.34-2.9,2.6l-23.48-3.42l54-18.48c0.27,0.42,0.61,0.81,1.04,1.12
	c1.83,1.32,4.38,0.91,5.7-0.92c0.85-1.17,0.91-2.62,0.41-3.87l57.01-38.05c0.13,0.12,0.21,0.28,0.35,0.38
	c1.83,1.32,4.38,0.91,5.7-0.92c0.11-0.15,0.15-0.32,0.24-0.48l7.66,1.58c-0.46-0.49-0.92-0.99-1.39-1.48l-5.87-1.21
	c0.08-0.45,0.05-0.9-0.02-1.35l2.62-0.69c-0.26-0.26-0.52-0.51-0.78-0.77l-2.12,0.56c-0.12-0.32-0.21-0.65-0.42-0.93l1.03-1.13
	c-0.28-0.27-0.55-0.55-0.83-0.82l-1,1.09c-0.02-0.02-0.03-0.04-0.05-0.06c-0.53-0.38-1.12-0.58-1.73-0.68l0.19-2.92
	c-0.36-0.34-0.74-0.66-1.1-1l-0.26,3.88c-1.08,0.13-2.11,0.68-2.8,1.63c-0.2,0.27-0.32,0.56-0.44,0.86l-56.9-23.24
	c0.36-0.83,0.51-1.71,0.31-2.56l19.33-12.15c-0.37-0.23-0.75-0.44-1.12-0.67l-18.62,11.7c-0.19-0.33-0.49-0.59-0.77-0.87
	l11.58-15.49c-0.28-0.16-0.54-0.33-0.82-0.49l-11.51,15.4c-0.18-0.08-0.35-0.17-0.53-0.24l3.58-19.78
	c-0.36-0.19-0.72-0.39-1.08-0.57l-3.63,20.07c-0.29-0.02-0.56,0.08-0.84,0.12l-6.42-25.57c-0.37-0.17-0.74-0.35-1.1-0.52l6.59,26.22
	c-0.62,0.23-1.2,0.59-1.66,1.12l-43.72-37.22c0.08-0.1,0.17-0.17,0.24-0.27c0.65-0.9,1.04-1.92,1.19-2.95l4.02,0.28
	c-3.53-1.1-7.06-2.18-10.66-3.15c-2.89-0.77-5.78-1.42-8.68-2.09l2.45,1.32c-0.42,1.01-0.59,2.1-0.51,3.16l-53.84,4.25
	c-0.14-0.53-0.39-1.02-0.72-1.47l12.68-13.54c-0.4-0.03-0.8-0.07-1.2-0.1l-12.13,12.95c-0.05-0.04-0.08-0.11-0.14-0.15
	c-0.23-0.16-0.49-0.22-0.74-0.33l4.29-13.02c-0.4-0.02-0.81-0.03-1.21-0.04l-4.19,12.71c-0.76-0.1-1.53,0.01-2.22,0.31L289.3,0
	c-0.45,0.01-0.91,0.01-1.36,0.02l8.63,13.83c-0.23,0.2-0.46,0.41-0.64,0.67c-0.24,0.33-0.38,0.7-0.51,1.06l-42.6-7.42l4.38-5.88
	c-0.53,0.07-1.06,0.11-1.59,0.18l-4.08,5.47l-13.56-2.36c-1.02,0.21-2.03,0.43-3.05,0.65l15.83,2.76l-12.49,16.74L222.4,9.27
	c-0.43,0.12-0.86,0.23-1.29,0.34l16.45,17.05l-13.24,17.75c-0.71-0.46-1.55-0.67-2.4-0.64l-10.87-31.19
	c-0.37,0.12-0.74,0.24-1.11,0.35L220.77,44c-0.3,0.1-0.6,0.22-0.88,0.4c-0.99,0.64-1.58,1.64-1.78,2.71l-60.43,0.82
	c-0.11-0.42-0.24-0.85-0.49-1.24c-0.3-0.46-0.67-0.82-1.09-1.1l10.14-14.4c-0.78,0.41-1.54,0.85-2.32,1.26l-8.89,12.63
	c-0.09-0.03-0.18-0.01-0.27-0.03l1.1-8.16c-0.35,0.2-0.69,0.43-1.04,0.63l-1,7.41c-0.58,0-1.17,0.08-1.73,0.33l-2.55-4.53
	c-0.33,0.2-0.67,0.4-1,0.61l2.56,4.55c-0.56,0.51-0.98,1.12-1.2,1.81l-9.92-0.8c-0.51,0.35-1.03,0.69-1.54,1.04l11.3,0.91
	c-0.01,0.77,0.13,1.55,0.58,2.25c0.5,0.77,1.24,1.25,2.04,1.55l-4.02,49.99c-0.8,0.07-1.6,0.25-2.34,0.72
	c-2.44,1.57-3.14,4.83-1.56,7.27c1.57,2.44,4.82,3.14,7.26,1.56c0.89-0.57,1.45-1.4,1.85-2.3l75.12,12.4
	c0.1,0.48,0.26,0.95,0.55,1.39c0.49,0.76,1.22,1.24,2.01,1.54l-12.87,17.95c-0.92-0.35-1.91-0.54-2.94-0.32
	c-2.84,0.61-4.64,3.4-4.03,6.24c0.61,2.84,3.41,4.64,6.24,4.03c0.85-0.18,1.55-0.62,2.16-1.14l30.64,26.07h1.8l-31.59-26.88
	c0.7-0.95,1.08-2.14,1.03-3.39l85.04-8.4c0.01,0.03,0,0.05,0,0.08c0.14,0.64,0.45,1.18,0.83,1.66l-37.94,36.93h1.67l37.11-36.12
	c0.9,0.62,2.02,0.91,3.18,0.66c0.33-0.07,0.62-0.2,0.9-0.34l17.29,35.8h1.29l-17.61-36.46c0.62-0.57,1.07-1.31,1.24-2.15l32.01,4.66
	c-0.77,1.72-0.33,3.79,1.26,4.94c1.83,1.32,4.37,0.91,5.69-0.92c0.4-0.55,0.58-1.16,0.66-1.78l2.32-0.79l25.65,3.73
	c-0.02,0.36-0.07,0.73,0.01,1.1c0.17,0.78,0.6,1.41,1.12,1.94l-22.88,25.73h1.56l22.23-25c0.27,0.15,0.57,0.22,0.87,0.31
	l-4.08,24.69h0.96l4.06-24.53c0.33,0.02,0.66,0.06,1.01-0.02c0.11-0.02,0.18-0.11,0.29-0.14l7.33,24.68h1.22l-7.49-25.2
	c0.59-0.41,1.09-0.92,1.4-1.56l56.61,24.16c-0.49,0.75-0.71,1.67-0.61,2.6h8.07c0.05-0.41,0.05-0.82-0.04-1.25
	c-0.47-2.2-2.64-3.6-4.85-3.13c-0.13,0.03-0.21,0.13-0.33,0.17l-18.56-22.01c0.64-0.4,1.22-0.91,1.57-1.64
	c0.04-0.09,0.06-0.18,0.09-0.27l29.76,7.92c-0.27,1.44,0.38,2.93,1.76,3.6c0.32,0.15,0.66,0.21,1,0.25l3.99,16.37h0.97l-4-16.4
	c1.03-0.17,1.98-0.76,2.46-1.78c0.69-1.44,0.2-3.08-1.01-4.02l36.58-35.64c0.27,0.23,0.51,0.49,0.84,0.67l-19.85,57.17h1.23
	l19.71-56.78c1.2,0.33,2.45,0.24,3.53-0.21l22.57,44.49c-0.74,0.39-1.4,0.96-1.79,1.77c-0.59,1.23-0.44,2.58,0.17,3.7l-11.15,7.04
	h2.18l9.65-6.1c0.31,0.31,0.64,0.6,1.06,0.8c0.49,0.24,1,0.35,1.51,0.37l-0.31,4.92h1.17l0.32-5.05c0.09-0.02,0.16-0.08,0.24-0.11
	l2.28,5.16h1.03l-2.45-5.56c0.5-0.3,0.96-0.67,1.3-1.18l12.08,6.74h0.34C548.87,177.6,548.69,177.11,548.51,176.63"/>
<path d="M586.52,350.06V308.6h-17.34l-7.27,21.13l-7.27-21.13h-17.34v41.46h12.55v-26.17l9.26,26.17h5.59l9.26-26.17v26.17H586.52z
	 M484.53,333.03c0,10.26,5.97,17.77,19.95,17.77c13.98,0,19.89-7.52,19.89-17.84V308.6h-12.74v23.99c0,3.98-2.05,7.15-7.15,7.15
	c-5.16,0-7.21-3.17-7.21-7.15V308.6h-12.74V333.03z M460.48,322.65c0,2.3-1.99,3.67-4.1,3.67h-7.64v-7.27h7.64
	C458.49,319.05,460.48,320.41,460.48,322.65 M473.28,350.06l-7.52-14.67c3.29-1.62,7.46-5.41,7.46-12.55
	c0-7.77-5.22-14.23-14.92-14.23h-22.13v41.46h12.55v-13.3h4.54l5.72,13.3H473.28z M412.74,329.36c0,5.78-3.91,10.38-9.94,10.38
	c-6.03,0-9.94-4.6-9.94-10.38s3.92-10.38,9.94-10.38C408.83,318.98,412.74,323.58,412.74,329.36 M380.11,329.36
	c0,12.74,9.88,21.44,22.68,21.44c12.8,0,22.68-8.7,22.68-21.44s-9.88-21.44-22.68-21.44C390,307.92,380.11,316.62,380.11,329.36
	 M351.9,350.06v-15.72h18.46v-10.44H351.9v-4.85h18.89V308.6h-31.45v41.46H351.9z M305.47,350.06v-10.44h-18.89v-5.28h18.46v-10.44
	h-18.46v-4.85h18.89V308.6h-31.45v41.46H305.47z M244.75,350.8c11.19,0,16.72-6.59,19.14-12.12l-10.81-4.97
	c-1.06,3.23-4.29,6.03-8.33,6.03c-5.72,0-9.76-4.6-9.76-10.38s4.04-10.38,9.76-10.38c4.04,0,7.27,2.8,8.33,6.03l10.81-5.03
	c-2.49-5.72-7.95-12.06-19.14-12.06c-12.68,0-22.5,8.64-22.5,21.44C222.25,342.1,232.07,350.8,244.75,350.8 M211.56,350.06V308.6
	h-12.55v20.88l-14.42-20.88h-12.93v41.46h12.55v-22.25l15.29,22.25H211.56z M144.75,334.27h-9.45l4.72-14.61L144.75,334.27z
	 M163.21,350.06l-15.29-41.46h-15.79l-15.29,41.46h13.61l1.62-5.35h15.91l1.62,5.35H163.21z M108.39,350.06V308.6H95.84v20.88
	L81.42,308.6H68.49v41.46h12.55v-22.25l15.29,22.25H108.39z M55.56,308.6H43.01v41.46h12.56V308.6z M12.56,350.06v-15.72h18.46
	v-10.44H12.56v-4.85h18.89V308.6H0v41.46H12.56z"/>
<path d="M546.27,263.48h40.25v-13.95h-23.99v-13.05h23.28v-13.95h-23.28v-12.04h23.99v-13.95h-40.25V263.48z M515.56,264.69
	c14.55,0,20.88-10.04,23.99-18.37l-13.45-5.62c-1.41,5.32-5.12,9.63-10.54,9.63c-7.93,0-12.65-8.53-12.65-20.27
	s4.72-20.27,12.65-20.27c5.22,0,8.83,3.81,10.54,9.03l13.45-5.82c-3.31-8.23-9.63-17.56-23.99-17.56
	c-17.86,0-29.21,14.15-29.21,34.63C486.36,250.43,497.7,264.69,515.56,264.69 M463.87,218.52c0,4.82-3.01,7.93-7.33,7.93h-8.53
	v-15.96h8.53C460.86,210.49,463.87,213.6,463.87,218.52 M462.87,263.48h17.96l-11.14-25.89c4.82-2.21,10.74-7.83,10.74-19.27
	c0-12.34-8.33-21.78-21.38-21.78h-27.3v66.94h16.26V240.4h6.02L462.87,263.48z M369.23,239.79c0,15.76,9.94,24.89,25.99,24.89
	c15.96,0,25.89-9.13,25.89-24.99v-43.16h-16.46v43.26c0,6.73-3.21,10.64-9.43,10.64c-6.42,0-9.63-3.91-9.63-10.64v-43.26h-16.36
	V239.79z M344.85,230.06c0,11.54-4.52,20.27-12.65,20.27c-8.23,0-12.65-8.73-12.65-20.27c0-11.64,4.42-20.27,12.65-20.27
	C340.33,209.79,344.85,218.42,344.85,230.06 M302.99,230.06c0,20.17,11.14,34.63,29.21,34.63c18.07,0,29.21-14.45,29.21-34.63
	s-11.14-34.63-29.21-34.63C314.13,195.43,302.99,209.89,302.99,230.06 M250.2,255.95c5.62,5.42,13.35,8.73,24.19,8.73
	c15.15,0,23.99-8.63,23.99-21.38c0-13.55-11.44-17.76-20.07-20.88c-5.82-2.11-9.54-3.91-9.54-7.53c0-3.01,2.11-5.32,6.73-5.32
	c4.62,0,9.94,1.71,14.15,5.52l7.53-12.04c-5.52-4.92-13.05-7.63-21.58-7.63c-15.05,0-23.38,9.64-23.38,20.37
	c0,14.15,11.54,17.87,20.17,20.98c5.62,2.11,9.54,4.02,9.54,8.03c0,3.31-3.01,5.82-7.73,5.82c-6.42,0-12.35-2.91-16.26-7.13
	L250.2,255.95z M207.65,263.48h15.46v-66.94h-16.06v36.73l-19.27-36.73h-16.56v66.94h16.16v-38.54L207.65,263.48z M122.04,263.48
	h40.25v-13.95H138.3v-13.05h23.28v-13.95H138.3v-12.04h23.99v-13.95h-40.25V263.48z M98.36,218.52c0,4.82-2.91,7.93-7.23,7.93H82.5
	v-15.96h8.63C95.45,210.49,98.36,213.6,98.36,218.52 M66.24,263.48H82.5V240.4h10.64c14.55,0,21.78-10.04,21.78-21.78
	c0-11.84-7.23-22.08-21.78-22.08h-26.9V263.48z M41.85,230.06c0,11.54-4.52,20.27-12.65,20.27c-8.23,0-12.65-8.73-12.65-20.27
	c0-11.64,4.42-20.27,12.65-20.27C37.34,209.79,41.85,218.42,41.85,230.06 M0,230.06c0,20.17,11.14,34.63,29.21,34.63
	s29.21-14.45,29.21-34.63s-11.14-34.63-29.21-34.63S0,209.89,0,230.06"/>
<path d="M304.81,293.63v-14.65h-4.44v7.38l-5.09-7.38h-4.57v14.65h4.44v-7.86l5.4,7.86H304.81z M286.14,278.98h-4.44v14.65h4.44
	V278.98z"/>
<rect x="21.01" y="284.82" width="253.89" height="1.15"/>
<path d="M23.25,287.64c1.24,0,2.24-1,2.24-2.24c0-1.24-1-2.24-2.24-2.24c-1.24,0-2.24,1-2.24,2.24
	C21.01,286.63,22.01,287.64,23.25,287.64"/>
<rect x="311.62" y="284.82" width="253.89" height="1.15"/>
<path d="M563.27,287.64c-1.24,0-2.24-1-2.24-2.24c0-1.24,1-2.24,2.24-2.24c1.24,0,2.24,1,2.24,2.24
	C565.51,286.63,564.5,287.64,563.27,287.64"/>
</svg>
