<?xml version="1.0" encoding="utf-8"?>
<!-- Generator: Adobe Illustrator 24.1.0, SVG Export Plug-In . SVG Version: 6.00 Build 0)  -->
<svg version="1.1" id="Layer_1" xmlns="http://www.w3.org/2000/svg" xmlns:xlink="http://www.w3.org/1999/xlink" x="0px" y="0px"
	 viewBox="0 0 732.32 118.05" style="enable-background:new 0 0 732.32 118.05;" xml:space="preserve">
<style type="text/css">
	.st0{fill:#FFFFFF;}
</style>
<g>
	<path class="st0" d="M292.54,83.7V44.05h11.18c2.94,0,5.64,0.49,8.08,1.46c2.44,0.97,4.52,2.33,6.25,4.09
		c1.72,1.75,3.07,3.85,4.04,6.29c0.97,2.44,1.46,5.11,1.46,7.99v0.19c0,2.94-0.49,5.61-1.46,7.99c-0.97,2.38-2.32,4.45-4.04,6.2
		c-1.72,1.75-3.8,3.1-6.25,4.04c-2.44,0.94-5.14,1.41-8.08,1.41H292.54L292.54,83.7z M278.07,96.76h25.65
		c5.14,0,9.85-0.85,14.14-2.54c4.29-1.69,7.99-4.01,11.09-6.95c3.1-2.94,5.5-6.42,7.19-10.43c1.69-4.01,2.54-8.33,2.54-12.97v-0.19
		c0-4.63-0.84-8.94-2.54-12.92c-1.69-3.98-4.09-7.44-7.19-10.38c-3.1-2.94-6.8-5.25-11.09-6.91c-4.29-1.66-9.01-2.49-14.14-2.49
		h-25.65V96.76L278.07,96.76z M363,86.24c-1.44-1.06-2.16-2.57-2.16-4.51v-0.19c0-2.25,0.88-3.98,2.63-5.17
		c1.75-1.19,4.17-1.79,7.23-1.79c1.75,0,3.4,0.17,4.93,0.52c1.53,0.35,2.93,0.8,4.18,1.36V79c0,2.63-1.02,4.76-3.05,6.39
		c-2.04,1.63-4.75,2.44-8.13,2.44C366.32,87.83,364.44,87.3,363,86.24L363,86.24z M373.24,95.96c2.44-1.16,4.54-2.71,6.29-4.65v5.45
		h13.81V67.54c0-3.38-0.44-6.44-1.31-9.16c-0.88-2.72-2.26-5.03-4.13-6.91c-1.82-1.82-4.12-3.21-6.91-4.18
		c-2.79-0.97-6.15-1.46-10.1-1.46c-4.26,0-7.89,0.38-10.9,1.13c-3.01,0.75-5.89,1.72-8.64,2.91l3.57,10.9
		c2.32-0.88,4.52-1.55,6.62-2.02c2.1-0.47,4.52-0.7,7.28-0.7c3.57,0,6.26,0.78,8.08,2.35c1.82,1.57,2.73,3.85,2.73,6.86v0.85
		c-1.82-0.63-3.68-1.13-5.59-1.5c-1.91-0.38-4.15-0.56-6.72-0.56c-3.01,0-5.75,0.33-8.22,0.99c-2.48,0.66-4.6,1.64-6.39,2.96
		c-1.78,1.32-3.18,2.98-4.18,4.98c-1,2-1.5,4.39-1.5,7.14v0.19c0,2.51,0.45,4.71,1.36,6.62c0.91,1.91,2.14,3.52,3.71,4.84
		c1.56,1.31,3.4,2.3,5.5,2.96c2.1,0.66,4.34,0.99,6.72,0.99C367.82,97.7,370.8,97.12,373.24,95.96L373.24,95.96z M428.96,96.81
		c1.82-0.53,3.48-1.24,4.98-2.11V83.23c-2.19,1.25-4.54,1.88-7.05,1.88c-3.07,0-4.6-1.63-4.6-4.9V58.61h11.84V46.4h-11.84V33.53H408
		V46.4h-6.01v12.21H408v23.86c0,2.95,0.36,5.37,1.08,7.28c0.72,1.91,1.72,3.46,3.01,4.65c1.28,1.19,2.82,2.02,4.6,2.49
		c1.79,0.47,3.77,0.71,5.97,0.71C425.04,97.6,427.14,97.34,428.96,96.81L428.96,96.81z M457.61,86.24
		c-1.44-1.06-2.16-2.57-2.16-4.51v-0.19c0-2.25,0.88-3.98,2.63-5.17c1.75-1.19,4.16-1.79,7.24-1.79c1.75,0,3.4,0.17,4.93,0.52
		c1.53,0.35,2.93,0.8,4.18,1.36V79c0,2.63-1.02,4.76-3.05,6.39c-2.04,1.63-4.74,2.44-8.13,2.44
		C460.93,87.83,459.05,87.3,457.61,86.24L457.61,86.24z M467.85,95.96c2.44-1.16,4.54-2.71,6.29-4.65v5.45h13.81V67.54
		c0-3.38-0.44-6.44-1.31-9.16c-0.88-2.72-2.26-5.03-4.13-6.91c-1.82-1.82-4.12-3.21-6.9-4.18c-2.79-0.97-6.15-1.46-10.1-1.46
		c-4.26,0-7.89,0.38-10.9,1.13c-3.01,0.75-5.89,1.72-8.64,2.91l3.57,10.9c2.32-0.88,4.52-1.55,6.62-2.02c2.1-0.47,4.52-0.7,7.28-0.7
		c3.57,0,6.26,0.78,8.08,2.35c1.82,1.57,2.72,3.85,2.72,6.86v0.85c-1.82-0.63-3.68-1.13-5.59-1.5c-1.91-0.38-4.15-0.56-6.72-0.56
		c-3.01,0-5.75,0.33-8.22,0.99c-2.47,0.66-4.6,1.64-6.39,2.96c-1.79,1.32-3.18,2.98-4.18,4.98c-1,2-1.5,4.39-1.5,7.14v0.19
		c0,2.51,0.45,4.71,1.36,6.62c0.91,1.91,2.15,3.52,3.71,4.84c1.56,1.31,3.4,2.3,5.5,2.96c2.1,0.66,4.34,0.99,6.72,0.99
		C462.43,97.7,465.41,97.12,467.85,95.96L467.85,95.96z M501.77,96.76h14.47v-26.4h26.68v26.4h14.47V30.99h-14.47v26.02h-26.68
		V30.99h-14.47V96.76L501.77,96.76z M583.22,67.63c0.56-3.26,1.77-5.86,3.62-7.8c1.85-1.94,4.27-2.91,7.28-2.91
		c3.01,0,5.42,0.99,7.23,2.96c1.82,1.97,2.94,4.56,3.38,7.75H583.22L583.22,67.63z M607.46,95.4c3.38-1.66,6.26-3.96,8.64-6.91
		l-8.17-7.23c-2.01,1.82-3.95,3.13-5.82,3.95c-1.88,0.82-4.01,1.22-6.39,1.22c-3.2,0-5.87-0.83-8.03-2.49
		c-2.16-1.66-3.59-4.12-4.28-7.38h35.04c0.06-0.69,0.11-1.35,0.14-1.97c0.03-0.62,0.05-1.22,0.05-1.79c0-3.57-0.49-7-1.46-10.29
		c-0.97-3.29-2.47-6.2-4.51-8.74c-2.04-2.54-4.59-4.56-7.66-6.06c-3.07-1.5-6.7-2.25-10.9-2.25c-3.7,0-7.06,0.69-10.1,2.07
		c-3.04,1.38-5.65,3.26-7.84,5.64c-2.19,2.38-3.9,5.17-5.12,8.36c-1.22,3.19-1.83,6.58-1.83,10.15v0.19c0,3.88,0.66,7.41,1.97,10.57
		c1.32,3.16,3.15,5.9,5.5,8.22c2.35,2.32,5.14,4.1,8.36,5.35c3.23,1.25,6.72,1.88,10.48,1.88C600.1,97.89,604.08,97.06,607.46,95.4
		L607.46,95.4z M629.92,96.76h14.28V28.17h-14.28V96.76L629.92,96.76z M658.29,96.76h14.28V46.4h-14.28V96.76L658.29,96.76z
		 M657.92,40.86h15.03V28.17h-15.03V40.86L657.92,40.86z M681.78,96.76h14.94l10.15-15.69l10.15,15.69h15.31l-17.76-25.84
		l17.01-24.52h-14.94l-9.49,14.66l-9.4-14.66h-15.31l17.01,24.8L681.78,96.76L681.78,96.76z"/>
	<path class="st0" d="M10.3,0C4.61,0,0,4.61,0,10.3v37.67c0,5.69,4.61,10.3,10.3,10.3l0,0c5.69,0,10.3-4.61,10.3-10.3V10.3
		C20.61,4.61,16,0,10.3,0L10.3,0L10.3,0z"/>
	<path class="st0" d="M206.21,118.05c5.69,0,10.31-4.61,10.31-10.3V70.07c0-5.69-4.61-10.3-10.31-10.3l0,0
		c-5.69,0-10.3,4.61-10.3,10.3v37.67C195.91,113.43,200.52,118.05,206.21,118.05L206.21,118.05L206.21,118.05z"/>
	<path class="st0" d="M49.49,3.51c-5.69,0-10.3,4.61-10.3,10.3v17.98c0,5.69,4.61,10.3,10.3,10.3l0,0c5.69,0,10.3-4.61,10.3-10.3
		V13.82C59.79,8.12,55.18,3.51,49.49,3.51L49.49,3.51L49.49,3.51z"/>
	<path class="st0" d="M167.03,114.54c5.69,0,10.3-4.61,10.3-10.3V86.26c0-5.69-4.61-10.3-10.3-10.3l0,0c-5.69,0-10.3,4.61-10.3,10.3
		v17.98C156.73,109.92,161.34,114.54,167.03,114.54L167.03,114.54L167.03,114.54z"/>
	<path class="st0" d="M88.67,20.82c-5.69,0-10.3,4.61-10.3,10.3V41.9c0,5.69,4.61,10.3,10.3,10.3l0,0c5.69,0,10.3-4.61,10.3-10.3
		V31.12C98.97,25.43,94.36,20.82,88.67,20.82L88.67,20.82L88.67,20.82z"/>
	<path class="st0" d="M127.85,97.23c5.69,0,10.3-4.61,10.3-10.3V76.15c0-5.69-4.61-10.3-10.3-10.3l0,0c-5.69,0-10.3,4.61-10.3,10.3
		v10.78C117.54,92.62,122.16,97.23,127.85,97.23L127.85,97.23L127.85,97.23z"/>
	<path class="st0" d="M10.3,107.74c5.69,0,10.3-4.61,10.3-10.3c0-5.69-4.61-10.3-10.3-10.3C4.61,87.13,0,91.75,0,97.44
		C0,103.13,4.61,107.74,10.3,107.74L10.3,107.74z"/>
	<path class="st0" d="M206.21,10.3c-5.69,0-10.3,4.61-10.3,10.3c0,5.69,4.61,10.3,10.3,10.3c5.69,0,10.31-4.61,10.31-10.3
		C216.52,14.92,211.9,10.3,206.21,10.3L206.21,10.3z"/>
	<path class="st0" d="M49.49,118.05c5.69,0,10.3-4.61,10.3-10.3c0-5.69-4.61-10.3-10.3-10.3s-10.3,4.61-10.3,10.3
		C39.18,113.43,43.79,118.05,49.49,118.05L49.49,118.05z"/>
	<path class="st0" d="M167.03,0c-5.69,0-10.3,4.61-10.3,10.3c0,5.69,4.61,10.3,10.3,10.3c5.69,0,10.3-4.61,10.3-10.3
		C177.33,4.61,172.72,0,167.03,0L167.03,0z"/>
	<path class="st0" d="M88.67,100.83c5.69,0,10.3-4.61,10.3-10.3s-4.61-10.31-10.3-10.31c-5.69,0-10.3,4.61-10.3,10.31
		S82.98,100.83,88.67,100.83L88.67,100.83z"/>
	<path class="st0" d="M127.85,17.22c-5.69,0-10.3,4.61-10.3,10.3c0,5.69,4.61,10.3,10.3,10.3c5.69,0,10.3-4.61,10.3-10.3
		C138.15,21.83,133.54,17.22,127.85,17.22L127.85,17.22z"/>
</g>
</svg>
