<?xml version="1.0" encoding="utf-8"?>
<!-- Generator: Adobe Illustrator 24.1.0, SVG Export Plug-In . SVG Version: 6.00 Build 0)  -->
<svg version="1.1" id="Layer_1" xmlns="http://www.w3.org/2000/svg" xmlns:xlink="http://www.w3.org/1999/xlink" x="0px" y="0px"
	 viewBox="0 0 720.22 153.47" style="enable-background:new 0 0 720.22 153.47;" xml:space="preserve">
<style type="text/css">
	.st0{fill:#00000A;}
</style>
<g>
	<path class="st0" d="M153.47,24.1V14.04c0-7.76-6.29-14.04-14.04-14.04H14.04C6.29,0,0,6.29,0,14.04v68.62L25.68,96.9
		c1.59-1.76,3.87-2.88,6.43-2.88c1.08,0,2.11,0.22,3.07,0.58l26.76-26.76c-0.07-0.44-0.13-0.88-0.13-1.33c0-4.81,3.9-8.71,8.71-8.71
		c4.81,0,8.71,3.9,8.71,8.71c0,0.53-0.07,1.05-0.16,1.56l15.82,8.77c1.42-1.01,3.15-1.61,5.02-1.61c1.38,0,2.66,0.35,3.82,0.92
		l24.08-26.75l-8.29-7.47L153.47,24.1L153.47,24.1z"/>
	<path class="st0" d="M0,89v50.43c0,7.76,6.29,14.04,14.04,14.04h125.39c7.76,0,14.04-6.29,14.04-14.04V27.2l-13.26,33.36l-8.3-7.47
		l-24.26,26.95c0.59,1.17,0.95,2.48,0.95,3.88c0,4.81-3.9,8.71-8.71,8.71c-4.81,0-8.71-3.9-8.71-8.71c0-0.9,0.18-1.75,0.43-2.56
		l-15.25-8.45c-1.55,1.42-3.59,2.31-5.86,2.31c-2.25,0-4.28-0.88-5.83-2.28l-25.2,25.2c0.83,1.33,1.34,2.9,1.34,4.59
		c0,4.81-3.9,8.71-8.71,8.71c-4.81,0-8.71-3.9-8.71-8.71c0-0.24,0.05-0.47,0.07-0.71L0,89L0,89z"/>
	<path class="st0" d="M541.78,118.68h19.6V38.23h-19.6v31.52h-30.49V38.23h-19.6v80.46h19.6V85.56h30.49V118.68L541.78,118.68z
		 M638.62,54.73h-19.6v34.73c0,8.71-4.81,13.52-12.38,13.52c-7.34,0-12.26-4.81-12.26-13.52V54.73H574.9v37.36
		c0,17.08,9.97,27.28,24.76,27.28c8.6,0,15.47-3.9,19.37-9.4v8.71h19.6V54.73L638.62,54.73z M672.31,63.78V33.87h-19.6v84.81h19.6
		v-8.94c3.55,5.62,10.31,9.86,19.71,9.86c15.7,0,28.19-12.84,28.19-33.01c0-20.17-12.38-32.78-28.19-32.78
		C682.86,53.81,675.87,58.05,672.31,63.78L672.31,63.78z M700.28,86.59c0,10.2-6.65,15.93-14.1,15.93
		c-7.33,0-13.98-5.62-13.98-15.82c0-10.2,6.65-15.82,13.98-15.82C693.63,70.89,700.28,76.39,700.28,86.59L700.28,86.59z"/>
	<path class="st0" d="M236.34,38.23H206.2v80.46h30.14c25.67,0,42.18-16.39,42.18-40.23C278.52,54.5,262.02,38.23,236.34,38.23
		L236.34,38.23z M225.8,101.72V54.96h9.28c14.79,0,23.5,8.71,23.5,23.49c0,14.79-8.71,23.27-23.5,23.27H225.8L225.8,101.72z
		 M285.62,86.59c0,20.17,12.49,33.01,28.08,33.01c9.51,0,16.27-4.36,19.83-9.97v9.05h19.6V54.73h-19.6v9.05
		c-3.44-5.62-10.2-9.97-19.71-9.97C298.12,53.81,285.62,66.42,285.62,86.59L285.62,86.59z M333.53,86.7
		c0,10.2-6.53,15.82-13.98,15.82c-7.34,0-13.98-5.73-13.98-15.93c0-10.2,6.65-15.7,13.98-15.7C327,70.89,333.53,76.5,333.53,86.7
		L333.53,86.7z M370.43,96.45c0,16.62,9.28,22.23,22.58,22.23h9.97v-16.62h-6.99c-4.36,0-5.96-1.6-5.96-5.39V71h12.84V54.73h-12.84
		V39.14h-19.6v15.59h-7.79V71h7.79V96.45L370.43,96.45z M409.98,86.59c0,20.17,12.49,33.01,28.08,33.01
		c9.51,0,16.28-4.36,19.83-9.97v9.05h19.6V54.73h-19.6v9.05c-3.44-5.62-10.2-9.97-19.71-9.97
		C422.47,53.81,409.98,66.42,409.98,86.59L409.98,86.59z M457.88,86.7c0,10.2-6.53,15.82-13.98,15.82
		c-7.33,0-13.98-5.73-13.98-15.93c0-10.2,6.65-15.7,13.98-15.7C451.35,70.89,457.88,76.5,457.88,86.7L457.88,86.7z"/>
</g>
</svg>
