<?xml version="1.0" encoding="utf-8"?>
<!-- Generator: Adobe Illustrator 24.1.0, SVG Export Plug-In . SVG Version: 6.00 Build 0)  -->
<svg version="1.1" id="Layer_1" xmlns="http://www.w3.org/2000/svg" xmlns:xlink="http://www.w3.org/1999/xlink" x="0px" y="0px"
	 viewBox="0 0 734.91 126.72" style="enable-background:new 0 0 734.91 126.72;" xml:space="preserve">
<style type="text/css">
	.st0{fill:#FFFFFF;}
	.st1{opacity:0.6;fill:#FFFFFF;}
</style>
<g>
	<path class="st0" d="M86.08,87.21l-0.1,0.07c-0.61,0.43-9.74,6.7-23.42,9l-0.13-0.02c-0.73-0.12-11.62-2.14-22.92-10.19l-0.08-0.11
		c-0.43-0.6-6.7-9.73-9-23.42l0.02-0.13c0.13-0.73,2.15-11.62,10.19-22.92l0.11-0.08c0.6-0.43,9.73-6.7,23.41-9l0.13,0.02
		c0.73,0.13,11.62,2.15,22.92,10.19l0.07,0.11c0.43,0.6,6.7,9.73,9,23.41l-0.02,0.13C96.14,65.02,94.12,75.91,86.08,87.21
		 M120.49,91.93c-0.08-11.21-2.5-21.92-7.17-31.81C106.4,45.48,95.77,36.42,86.3,30.9c2.44,0.53,4.95,1.22,7.49,2.14
		c9.23,3.3,17.55,8.57,24.74,15.64l2.76,2.72l5.43-5.52l-2.76-2.72c-7.99-7.87-17.26-13.73-27.56-17.42
		c-15.25-5.46-29.17-4.35-39.77-1.56c2.11-1.36,4.36-2.63,6.81-3.78c8.86-4.19,18.47-6.35,28.56-6.42l3.87-0.03L95.81,6.2
		l-3.87,0.03c-11.22,0.09-21.92,2.5-31.8,7.17c-14.64,6.93-23.71,17.55-29.23,27.02c0.53-2.44,1.22-4.95,2.13-7.49
		c3.31-9.23,8.57-17.55,15.65-24.74l2.72-2.76L45.89,0l-2.72,2.76c-7.87,7.99-13.73,17.26-17.42,27.56
		c-5.46,15.25-4.36,29.17-1.56,39.77c-1.36-2.1-2.63-4.36-3.78-6.8c-4.19-8.87-6.35-18.47-6.43-28.55l-0.03-3.87L6.2,30.91
		l0.02,3.87C6.32,46,8.73,56.7,13.4,66.59c6.93,14.64,17.55,23.7,27.02,29.23c-2.44-0.53-4.95-1.22-7.49-2.14
		c-9.23-3.31-17.55-8.57-24.74-15.65l-2.76-2.72L0,80.84l2.76,2.72c7.99,7.87,17.26,13.73,27.56,17.42
		c15.25,5.46,29.17,4.36,39.77,1.56c-2.11,1.36-4.36,2.63-6.81,3.78c-8.86,4.19-18.47,6.35-28.55,6.43l-3.87,0.03l0.06,7.74
		l3.87-0.03c11.22-0.08,21.92-2.49,31.81-7.17c14.65-6.92,23.7-17.55,29.23-27.02c-0.53,2.45-1.23,4.95-2.14,7.49
		c-3.31,9.23-8.57,17.55-15.65,24.74l-2.72,2.76l5.52,5.43l2.72-2.76c7.87-7.99,13.73-17.26,17.42-27.56
		c5.46-15.25,4.36-29.17,1.56-39.77c1.36,2.1,2.63,4.36,3.79,6.81c4.19,8.87,6.35,18.47,6.43,28.56l0.03,3.87l7.75-0.06
		L120.49,91.93L120.49,91.93z"/>
	<polygon class="st0" points="77.94,63.36 63.36,40.87 48.78,63.36 63.36,85.85 77.94,63.36 	"/>
	<path class="st0" d="M169.79,83.12c8.28,0.01,14.41-5.47,14.42-13.47l0.01-5.67c0.01-8.01-6.1-13.6-14.38-13.61
		c-7.11-0.01-14.32,4.21-14.33,13.56l-0.01,5.67C155.49,78.87,162.68,83.11,169.79,83.12 M164.53,111.1l0.01-7.29l3.6,0.01
		c7.38,0.01,16.02-2.13,16.04-12.66l0-5.58c-3.96,3.24-9.18,4.85-14.4,4.84c-10.8-0.02-21.59-7.14-21.57-20.82l0.01-5.67
		c0.02-13.68,10.83-20.86,21.63-20.84c5.22,0.01,10.43,1.64,14.39,4.88v-0.9l0-0.36l0-3.6l7.29,0.01l-0.01,3.6l0,0.36l-0.06,44.09
		c-0.01,5.94-2.09,11.07-6.14,14.57c-4.15,3.5-9.91,5.38-17.2,5.37L164.53,111.1L164.53,111.1z"/>
	<polygon class="st0" points="197.59,90.45 197.69,25.67 204.98,25.69 204.91,68.15 229.97,43.18 240.5,43.2 218.42,65.03 
		241.33,90.53 231.61,90.51 213.37,70.06 204.9,78.41 204.88,90.47 197.59,90.45 	"/>
	<polygon class="st0" points="289.46,5.23 289.46,121.49 291.78,121.49 291.78,5.23 289.46,5.23 	"/>
	<path class="st1" d="M637.71,80c-8.87,0-14.54-4.22-16.9-10.44l8.33-4.83c1.51,3.5,4.1,5.85,8.87,5.85c4.59,0,5.73-1.81,5.73-3.44
		c0-2.59-2.41-3.62-8.75-5.37c-6.27-1.75-12.43-4.77-12.43-12.85c0-8.15,6.88-12.85,14.18-12.85c6.94,0,12.37,3.32,15.45,9.53
		l-8.15,4.77c-1.45-3.02-3.44-4.89-7.3-4.89c-3.02,0-4.53,1.51-4.53,3.2c0,1.93,1.02,3.26,7.6,5.25c6.4,1.93,13.58,4.16,13.58,13.09
		C653.4,75.17,646.88,80,637.71,80 M667.58,46.21v23.65h7.24c6.64,0,11.22-4.59,11.22-11.83c0-7.24-4.59-11.83-11.22-11.83H667.58
		 M674.82,79.15h-16.9V36.92h16.9c11.65,0,20.52,9.17,20.52,21.12C695.33,69.98,686.46,79.15,674.82,79.15 M734.91,79.15h-10.98
		L710.42,59.6v19.55h-9.65V36.92h9.65v18.34l12.91-18.34h10.98l-14.24,20.58L734.91,79.15"/>
	<path class="st0" d="M368.35,36.92h-16.89v42.24h16.89c11.65,0,20.52-9.17,20.52-21.12C388.87,46.09,380,36.92,368.35,36.92
		L368.35,36.92z M368.35,69.86h-7.24V46.21h7.24c6.64,0,11.22,4.59,11.22,11.83C379.58,65.28,374.99,69.86,368.35,69.86
		L368.35,69.86z M398.52,46.33c2.96,0,5.43-2.47,5.43-5.43c0-2.96-2.47-5.43-5.43-5.43c-2.96,0-5.43,2.47-5.43,5.43
		C393.09,43.85,395.57,46.33,398.52,46.33L398.52,46.33z M394,79.15h9.05V48.98H394V79.15L394,79.15z M417.95,57.79
		c0-1.09,0.97-1.69,2.54-1.69c1.99,0,3.2,1.09,4.04,2.65l7.72-4.16c-2.53-4.28-6.88-6.46-11.77-6.46c-6.28,0-11.83,3.32-11.83,9.9
		c0,10.44,14.84,8.69,14.84,12.01c0,1.21-1.09,1.87-3.26,1.87c-2.65,0-4.34-1.27-5.13-3.56l-7.84,4.47
		c2.35,4.89,6.94,7.18,12.97,7.18c6.52,0,12.55-2.96,12.55-9.9C432.8,58.94,417.95,61.23,417.95,57.79L417.95,57.79z M451.5,80
		c5.91,0,11.04-3.08,13.64-7.78l-7.9-4.53c-0.97,2.11-3.2,3.38-5.85,3.38c-3.92,0-6.82-2.84-6.82-7c0-4.16,2.9-7,6.82-7
		c2.65,0,4.83,1.27,5.85,3.38l7.9-4.59c-2.6-4.65-7.78-7.72-13.64-7.72c-9.17,0-15.99,6.94-15.99,15.93
		C435.51,73.06,442.33,80,451.5,80L451.5,80z M482.64,80c8.87,0,15.99-6.94,15.99-15.93c0-8.99-7.12-15.93-15.99-15.93
		c-8.87,0-15.99,6.94-15.99,15.93C466.65,73.06,473.77,80,482.64,80L482.64,80z M482.64,71.19c-3.92,0-6.94-2.84-6.94-7.12
		s3.02-7.12,6.94-7.12c3.92,0,6.94,2.84,6.94,7.12S486.56,71.19,482.64,71.19L482.64,71.19z M521.8,48.98l-6.28,19.13l-6.28-19.13
		h-10.02l11.16,30.17h10.26l11.16-30.17H521.8L521.8,48.98z M542.01,67.69h21.42c0.24-1.15,0.36-2.35,0.36-3.62
		c0-9.11-6.52-15.93-15.33-15.93c-9.53,0-16.05,6.94-16.05,15.93c0,8.99,6.4,15.93,16.71,15.93c5.73,0,10.2-2.11,13.15-6.21
		l-7.24-4.16c-1.21,1.33-3.32,2.29-5.79,2.29C545.93,71.91,543.16,70.83,542.01,67.69L542.01,67.69z M541.83,60.93
		c0.84-3.08,3.14-4.77,6.58-4.77c2.71,0,5.43,1.27,6.4,4.77H541.83L541.83,60.93z M577.97,54.35v-5.37h-9.05v30.17h9.05V65.52
		c0-5.97,5.31-7.48,9.05-6.88V48.38C583.22,48.38,579.18,50.31,577.97,54.35L577.97,54.35z M610.86,48.98l-5.67,18.46l-6.7-18.46
		h-9.96l12.01,28.78c-1.33,3.68-3.32,5.01-7.54,5.01v8.45c8.45,0.42,13.82-3.38,17.2-12.97l10.32-29.26H610.86L610.86,48.98z"/>
</g>
</svg>
