<?xml version="1.0" encoding="utf-8"?>
<!-- Generator: Adobe Illustrator 25.0.0, SVG Export Plug-In . SVG Version: 6.00 Build 0)  -->
<svg version="1.1" id="Layer_1" xmlns="http://www.w3.org/2000/svg" xmlns:xlink="http://www.w3.org/1999/xlink" x="0px" y="0px"
	 viewBox="0 0 720 141.6" style="enable-background:new 0 0 720 141.6;" xml:space="preserve">
<style type="text/css">
	.st0{fill:#000029;}
	.st1{fill:#008FFF;}
</style>
<g>
	<path class="st0" d="M141.6,137.2V4.4c0-2.4-2-4.4-4.4-4.4H4.4C2,0,0,2,0,4.4v132.8c0,2.4,2,4.4,4.4,4.4h132.8
		C139.6,141.6,141.6,139.6,141.6,137.2L141.6,137.2z"/>
	<path class="st1" d="M101.2,56.9V41.7c0-3.1-1.7-6-4.4-7.6c-4-2.4-12.8-6.4-26-6.4c-13.2,0-22,4-26,6.4c-2.7,1.6-4.4,4.5-4.4,7.6
		v22.7l48.1,13.9v10.1c0,1.4-0.9,2.3-2.3,3l-15.4,7.7l-15.5-7.8c-1.4-0.7-2.2-1.6-2.2-3v-7.6l-12.7-3.8v11.4
		c0,6.3,3.6,11.6,9.3,14.3l21.1,11l21-10.9c5.8-2.8,9.4-8.1,9.4-14.4v-19L53.1,55.6V44c3.4-1.7,9.3-3.6,17.7-3.6
		c8.4,0,14.3,2,17.7,3.6v9L101.2,56.9L101.2,56.9z"/>
	<path class="st0" d="M211.1,70.8c-10.2,0-18.9-3.3-26.7-8.2l4.8-7.4c7.8,5,15,7.4,23.1,7.4c9.5,0,13.9-3.6,13.9-7.9
		c0-12.3-40-4.9-40-24.5c0-9.5,9.5-17,24.9-17c10.3,0,19.3,3.9,24.6,9.1l-6,6.1c-4.5-4-11.5-7.1-18.7-7.1c-9,0-15,3.2-15,7.8
		c0,11.4,40.1,5.3,40.1,24.6C236,63.9,225.7,70.8,211.1,70.8L211.1,70.8z M275.2,47.3v21.6h-9.7V47.2L241.2,15h11.3l18.2,24.9
		L287.9,15h11.1L275.2,47.3L275.2,47.3z M366.7,68.8V26.7l-2.7,5.7L345,68.8h-5.8l-18.8-36.4l-2.7-5.7v42.2h-9.3V15h13.5l18.1,36.2
		l2.5,5.5l2.5-5.5L362.8,15h13.3v53.8H366.7L366.7,68.8z M428.9,31c0-4.4-3-7.8-10.3-7.8h-17.9v17.4h18.3c7.4,0,9.9-3.6,9.9-7.9V31
		L428.9,31z M417.5,48.6h-16.8v20.3H391V15h26.5c14.7,0,21.2,6.6,21.2,16v1.5C438.6,41.9,432.2,48.6,417.5,48.6L417.5,48.6z
		 M491.5,68.8V45.7h-32.4v23.2h-9.7V15h9.7v22.8h32.4V15h9.7v53.8H491.5L491.5,68.8z M559.7,38.6c0-9.2-6.4-17.1-18.2-17.1
		c-11.8,0-18.1,7.9-18.1,17.1v6.5c0,9.2,6.3,17.3,18.1,17.3c11.8,0,18.2-8.1,18.2-17.3V38.6L559.7,38.6z M541.5,70.8
		c-17.3,0-27.9-12.3-27.9-25.4v-6.7c0-13.4,10.6-25.4,27.9-25.4c17.4,0,27.9,12,27.9,25.4v6.7C569.5,58.5,558.9,70.8,541.5,70.8
		L541.5,70.8z M625.4,68.8l-30.1-34l-3.9-5v39h-9.6V15h9l29.2,34.1l4,5V15h9.5v53.8H625.4L625.4,68.8z M676.6,47.3v21.6h-9.7V47.2
		L642.6,15h11.3l18.2,24.9L689.3,15h11.1L676.6,47.3L676.6,47.3z"/>
	<path class="st1" d="M188.2,128.4h6.9v-20.7l8.9,13.5h0.2l9-13.7v20.9h7v-32h-7.6l-8.4,13.5l-8.4-13.5h-7.6V128.4L188.2,128.4z
		 M227.9,128.4h24.4v-6.3h-17.4v-6.7H250v-6.3h-15.1v-6.5H252v-6.3h-24.1V128.4L227.9,128.4z M269.9,128.8c6.9,0,11.7-3.6,11.7-9.9
		v-0.1c0-5.6-3.7-7.9-10.1-9.6c-5.5-1.4-6.9-2.1-6.9-4.2v-0.1c0-1.6,1.4-2.8,4.1-2.8c2.7,0,5.5,1.2,8.3,3.2l3.7-5.3
		c-3.2-2.6-7.2-4.1-11.9-4.1c-6.5,0-11.2,3.8-11.2,9.6v0.1c0,6.4,4.2,8.1,10.6,9.8c5.4,1.4,6.4,2.3,6.4,4.1v0.1c0,1.9-1.7,3-4.6,3
		c-3.7,0-6.7-1.5-9.6-3.9l-4.2,5C260.2,127.1,265,128.8,269.9,128.8L269.9,128.8z M298.7,128.8c6.9,0,11.7-3.6,11.7-9.9v-0.1
		c0-5.6-3.7-7.9-10.1-9.6c-5.5-1.4-6.9-2.1-6.9-4.2v-0.1c0-1.6,1.4-2.8,4.1-2.8c2.7,0,5.5,1.2,8.3,3.2l3.7-5.3
		c-3.2-2.6-7.2-4.1-11.9-4.1c-6.5,0-11.2,3.8-11.2,9.6v0.1c0,6.4,4.2,8.1,10.6,9.8c5.4,1.4,6.4,2.3,6.4,4.1v0.1c0,1.9-1.7,3-4.6,3
		c-3.7,0-6.7-1.5-9.6-3.9l-4.2,5C289,127.1,293.8,128.8,298.7,128.8L298.7,128.8z M313.1,128.4h7.2l2.9-7.2h13.5l2.9,7.2h7.4
		l-13.7-32.2h-6.5L313.1,128.4L313.1,128.4z M325.7,115l4.3-10.4l4.3,10.4H325.7L325.7,115z M365.3,128.9c5.9,0,10.4-2.3,13.7-5.1
		V110h-13.9v6.1h7.1v4.6c-1.8,1.3-4.1,1.9-6.6,1.9c-5.7,0-9.7-4.3-9.7-10.1v-0.1c0-5.4,4.1-10,9.2-10c3.7,0,5.9,1.2,8.4,3.2l4.4-5.3
		c-3.3-2.8-6.8-4.4-12.6-4.4c-9.7,0-16.8,7.4-16.8,16.5v0.1C348.5,121.9,355.4,128.9,365.3,128.9L365.3,128.9z M385.8,128.4h24.4
		v-6.3h-17.4v-6.7h15.1v-6.3h-15.1v-6.5h17.1v-6.3h-24.1V128.4L385.8,128.4z M416.4,128.4h6.9v-20.7l8.9,13.5h0.2l9-13.7v20.9h7v-32
		h-7.6l-8.4,13.5L424,96.4h-7.6V128.4L416.4,128.4z M456.1,128.4h23V122h-16V96.4h-7V128.4L456.1,128.4z M511.4,128.9
		c8.6,0,14-4.7,14-14.4V96.4h-7v18.3c0,5.1-2.6,7.7-6.9,7.7c-4.3,0-6.9-2.7-6.9-7.9V96.4h-7v18.3
		C497.6,124.1,502.8,128.9,511.4,128.9L511.4,128.9z M540.1,128.4h7v-25.5h9.7v-6.5h-26.5v6.5h9.7V128.4L540.1,128.4z M562.6,128.4
		h7v-32h-7V128.4L562.6,128.4z M577.6,128.4h23V122h-16V96.4h-7V128.4L577.6,128.4z M606.2,128.4h7v-32h-7V128.4L606.2,128.4z
		 M628.7,128.4h7v-25.5h9.7v-6.5H619v6.5h9.7V128.4L628.7,128.4z M651.2,128.4h7v-32h-7V128.4L651.2,128.4z M666.2,128.4h24.4v-6.3
		h-17.4v-6.7h15.1v-6.3h-15.1v-6.5h17.1v-6.3h-24.1V128.4L666.2,128.4z M708.3,128.8c6.9,0,11.7-3.6,11.7-9.9v-0.1
		c0-5.6-3.7-7.9-10.1-9.6c-5.5-1.4-6.9-2.1-6.9-4.2v-0.1c0-1.6,1.4-2.8,4.1-2.8c2.7,0,5.5,1.2,8.3,3.2l3.7-5.3
		c-3.2-2.6-7.2-4.1-11.9-4.1c-6.5,0-11.2,3.8-11.2,9.6v0.1c0,6.4,4.2,8.1,10.6,9.8c5.4,1.4,6.4,2.3,6.4,4.1v0.1c0,1.9-1.7,3-4.6,3
		c-3.7,0-6.7-1.5-9.6-3.9l-4.2,5C698.5,127.1,703.4,128.8,708.3,128.8L708.3,128.8z"/>
</g>
</svg>
