<?xml version="1.0" encoding="utf-8"?>
<!-- Generator: Adobe Illustrator 25.0.0, SVG Export Plug-In . SVG Version: 6.00 Build 0)  -->
<svg version="1.1" id="Layer_1" xmlns="http://www.w3.org/2000/svg" xmlns:xlink="http://www.w3.org/1999/xlink" x="0px" y="0px"
	 viewBox="0 0 720 145.5" style="enable-background:new 0 0 720 145.5;" xml:space="preserve">
<style type="text/css">
	.st0{fill:#FFFFFF;}
</style>
<g>
	<path class="st0" d="M145.5,141V4.5c0-2.5-2-4.5-4.5-4.5H4.5C2,0,0,2,0,4.5V141c0,2.5,2,4.5,4.5,4.5H141
		C143.5,145.5,145.5,143.5,145.5,141L145.5,141z M104,91c0,6.4-3.7,11.9-9.6,14.8L72.8,117l-21.7-11.3c-5.9-2.8-9.5-8.3-9.5-14.7
		V79.3l13,3.9V91c0,1.4,0.9,2.4,2.3,3.1l15.9,8l15.8-7.9c1.5-0.7,2.4-1.7,2.4-3.1V80.6L41.5,66.3V42.9c0-3.2,1.7-6.2,4.5-7.8
		c4.2-2.4,13.1-6.6,26.7-6.6c13.6,0,22.6,4.1,26.7,6.6c2.8,1.6,4.5,4.6,4.5,7.8v15.6l-13-3.9v-9.3c-3.5-1.7-9.6-3.7-18.2-3.7
		c-8.7,0-14.7,2-18.2,3.7v11.9L104,71.5V91L104,91z"/>
	<path class="st0" d="M217,72.8c-10.5,0-19.4-3.4-27.5-8.5l5-7.6c8.1,5.1,15.4,7.6,23.7,7.6c9.7,0,14.3-3.7,14.3-8.1
		c0-12.6-41.1-5.1-41.1-25.2c0-9.8,9.8-17.5,25.6-17.5c10.6,0,19.8,4,25.2,9.4l-6.1,6.3c-4.7-4.1-11.8-7.3-19.3-7.3
		c-9.2,0-15.4,3.3-15.4,8.1c0,11.7,41.2,5.5,41.2,25.2C242.6,65.7,232,72.8,217,72.8L217,72.8z M282.8,48.6v22.2h-10V48.5l-24.9-33
		h11.6L278.3,41l17.7-25.6h11.5L282.8,48.6L282.8,48.6z M376.9,70.8V27.4l-2.7,5.9l-19.6,37.4h-6l-19.3-37.4l-2.7-5.9v43.3H317V15.5
		h13.9l18.6,37.2l2.6,5.6l2.6-5.6l18.3-37.2h13.7v55.3H376.9L376.9,70.8z M440.8,31.9c0-4.6-3.1-8-10.6-8h-18.3v17.9h18.8
		c7.6,0,10.2-3.7,10.2-8.1V31.9L440.8,31.9z M429.1,49.9h-17.3v20.8h-10V15.5h27.2c15.1,0,21.8,6.8,21.8,16.4v1.5
		C450.9,43,444.2,49.9,429.1,49.9L429.1,49.9z M505.2,70.8V46.9h-33.3v23.8h-10V15.5h10v23.4h33.3V15.5h10v55.3H505.2L505.2,70.8z
		 M575.3,39.7c0-9.5-6.6-17.6-18.7-17.6c-12.1,0-18.6,8.1-18.6,17.6v6.7c0,9.5,6.5,17.8,18.6,17.8c12.1,0,18.7-8.3,18.7-17.8V39.7
		L575.3,39.7z M556.6,72.8c-17.8,0-28.6-12.6-28.6-26.2v-6.9c0-13.8,10.9-26.2,28.6-26.2c17.8,0,28.7,12.4,28.7,26.2v6.9
		C585.3,60.1,574.4,72.8,556.6,72.8L556.6,72.8z M642.9,70.8l-31-35l-4-5.1v40.1H598V15.5h9.2l30,35l4.1,5.1V15.5h9.8v55.3H642.9
		L642.9,70.8z M695.4,48.6v22.2h-10V48.5l-24.9-33h11.6L690.9,41l17.7-25.6H720L695.4,48.6L695.4,48.6z"/>
	<path class="st0" d="M193.5,132h15.6c7.4,0,12.3-3,12.3-9v-0.1c0-4.4-2.3-6.6-6.2-8.1c2.3-1.3,4.3-3.4,4.3-7.1v-0.1
		c0-2.3-0.8-4.1-2.3-5.6c-1.9-1.9-4.8-2.9-8.6-2.9h-15.3V132L193.5,132z M212.4,108.9c0,2.4-2,3.5-5.2,3.5h-6.7v-7h7.1
		C210.7,105.4,212.4,106.6,212.4,108.9L212.4,108.9L212.4,108.9z M214.2,122L214.2,122c0,2.5-1.9,3.7-5.1,3.7h-8.6v-7.2h8.4
		C212.6,118.4,214.2,119.7,214.2,122L214.2,122z M227.4,132h12.8c10.3,0,17.5-7.2,17.5-16.4v-0.1c0-9.3-7.1-16.3-17.5-16.3h-12.8
		V132L227.4,132z M240.2,105.6c5.9,0,9.9,4.1,9.9,9.9v0.1c0,5.8-4,9.8-9.9,9.8h-5.6v-19.8H240.2L240.2,105.6z M264.1,132h7.2v-10.1
		l3.8-3.9l10.2,14h8.7L280,113l13.4-14h-8.7l-13.3,14.4V99.1h-7.2V132L264.1,132z M320,132.4c3.6,0,6.5-1,8.5-3.1
		c2-2,3.1-4.9,3.1-8.8V99.1h-7.4v21.2c0,3.8-1.7,5.5-4.4,5.5c-2.3,0-4.1-1.2-6-3.3l-4.6,5.1C311.5,130.2,314.9,132.4,320,132.4
		L320,132.4z M335,132h7.4l3-7.4h13.9l3,7.4h7.6l-14.1-33.1h-6.7L335,132L335,132z M348,118.2l4.4-10.7l4.4,10.7H348L348,118.2z
		 M380.7,132.2h6.4l13.3-33.1h-7.8l-8.6,23.2l-8.6-23.2h-8L380.7,132.2L380.7,132.2z M398,132h7.4l3-7.4h13.9l3,7.4h7.6l-14.1-33.1
		h-6.7L398,132L398,132z M410.9,118.2l4.4-10.7l4.4,10.7H410.9L410.9,118.2z"/>
</g>
</svg>
