<?xml version="1.0" encoding="utf-8"?>
<!-- Generator: Adobe Illustrator 25.0.0, SVG Export Plug-In . SVG Version: 6.00 Build 0)  -->
<svg version="1.1" id="Layer_1" xmlns="http://www.w3.org/2000/svg" xmlns:xlink="http://www.w3.org/1999/xlink" x="0px" y="0px"
	 viewBox="0 0 540 540" style="enable-background:new 0 0 540 540;" xml:space="preserve">
<style type="text/css">
	.st0{opacity:0.6;fill:#FFFFFF;}
	.st1{fill:#FFFFFF;}
</style>
<g>
	<path class="st0" d="M270,540c-10.8,0-21.5-0.7-32-2c-3.4-7-4.1-14-3.8-20.9c0.5-10.3,2.8-20.6,13.8-31.3
		c5.8-5.6,13-11.4,21.6-17.3c-21.2-14.5-47.7-28.6-70.6-46.9c-31.8,27.2-48.8,58-51.4,89C60,466,0,375,0,270
		C0,123.2,117.2,3.8,263.2,0.2l-89,138.5h48.2c-0.4,40.6,3.1,92.1,47.3,125.6c3.3,2.6,6.4,5.2,9.3,7.8c15.4,13.8,25.9,28.1,26,44.8
		c-0.1,19.9-14.9,36.1-35.3,52.3c20.8,16.4,47.4,32.7,70.6,52.5c71.2-57.1,69.1-152.3,0.3-210.5c-27.8-23.1-31.6-34.4-32-72.5h47.9
		L267.3,0.1c0.9,0,1.8-0.1,2.7-0.1c149.1,0,270,120.9,270,270S419.1,540,270,540"/>
	<path class="st1" d="M391.6,511c-2.5-31.2-19.5-62-51.4-89.4l0,0v0c-13.6-11.7-28.4-22.1-42.6-32c-9.9-7-19.5-13.7-28-20.5
		c-20.4-16.1-35.2-32.4-35.3-52.3c0.1-17.8,16.9-37.3,35-52.9c-26.3-20.1-38.1-46.7-43.2-73.5c-93.2,65.4-95.5,176.2-27.1,231.2
		c22.9,18.4,49.3,32.5,70.6,46.9c36.2,24.7,46.9,46.4,32.6,69.4C334.1,534.2,364.2,524.9,391.6,511L391.6,511z"/>
</g>
</svg>
