<?xml version="1.0" encoding="UTF-8"?>
<svg id="Layer_1" xmlns="http://www.w3.org/2000/svg" version="1.1" viewBox="0 0 434.998 310.836">
  <!-- Generator: Adobe Illustrator 30.8.1, SVG Export Plug-In . SVG Version: 2.1.4 Build 1)  -->
  <defs>
    <style>
      .st0 {
        fill: #fff;
      }
    </style>
  </defs>
  <polygon class="st0" points="404.918 114.31 434.998 100.623 434.514 204.25 225.184 310.836 225.178 271.362 404.611 179.999 404.918 114.31 404.918 114.31"/>
  <polygon class="st0" points="112.409 94.795 68.052 113.766 217.244 182.345 424.134 88.072 382.376 70.312 219.981 144.31 112.409 94.795 112.409 94.795"/>
  <polygon class="st0" points="325.406 79.581 364.586 61.728 217.056 0 11.284 88.003 50.253 105.854 217.056 34.517 325.406 79.581 325.406 79.581"/>
  <polygon class="st0" points="178.622 182.123 208.254 195.749 208.191 310.6559 .003 204.073 0 172.239 178.576 263.663 178.622 182.123 178.622 182.123"/>
</svg>