<?xml version="1.0" encoding="utf-8"?>
<!-- Generator: Adobe Illustrator 24.1.0, SVG Export Plug-In . SVG Version: 6.00 Build 0)  -->
<svg version="1.1" id="Layer_1" xmlns="http://www.w3.org/2000/svg" xmlns:xlink="http://www.w3.org/1999/xlink" x="0px" y="0px"
	 viewBox="0 0 486.93 148.2" style="enable-background:new 0 0 486.93 148.2;" xml:space="preserve">
<style type="text/css">
	.st0{opacity:0.4;fill:#FFFFFF;}
	.st1{fill:#FFFFFF;}
	.st2{opacity:0.54;fill:#FFFFFF;}
	.st3{opacity:0.7;fill:#FFFFFF;}
</style>
<g>
	<path class="st0" d="M74.1,148.2c-1.66,0-3.31-0.05-4.94-0.16C70.79,148.14,72.44,148.2,74.1,148.2L74.1,148.2 M74.1,148.2
		c0.03,0,0.06,0,0.08,0C74.16,148.2,74.13,148.2,74.1,148.2 M74.2,148.2c0.03,0,0.06,0,0.09,0C74.26,148.2,74.23,148.2,74.2,148.2
		 M74.29,148.2c0.39,0,0.78-0.01,1.16-0.01c0.01,0,0.03,0,0.04,0c0.01,0,0.01,0,0.02,0c19.1-0.36,36.42-7.95,49.37-20.14
		C117.42,96.53,97.7,82,82.33,78.14c0.01-0.16,0.01-0.31,0.01-0.46c0-4.57-1.92-8.5-4.68-10.35c-1.34,2.64-3.55,8.9-3.55,11.53
		c0-2.68-2.1-9.07-3.33-11.68c-2.88,1.79-4.9,5.81-4.9,10.49c0,2.44,0.99,5.79,2.3,8.98c-5.11,4.2-12.86,5.9-22.09,5.9
		c-13.18,0-29.4-3.45-45.33-8c2.53,17.86,11.41,33.67,24.3,45.07c0.01,0.01,0.02,0.01,0.02,0.02C9.71,116.07,0,96.22,0,74.1
		C0,33.18,33.18,0,74.1,0c40.92,0,74.1,33.18,74.1,74.1C148.2,114.96,115.12,148.1,74.29,148.2 M56.14,145.99L56.14,145.99
		c24.03-19.93,24.61-41.9,21.94-55.08c0.23-0.44,0.46-0.9,0.68-1.37c-0.13,0.28-0.27,0.55-0.4,0.82l0,0c0,0.01-0.01,0.02-0.01,0.03
		c0,0,0,0,0,0c0,0.01-0.01,0.02-0.01,0.02c0,0.01,0,0.01-0.01,0.02c0,0.01-0.01,0.01-0.01,0.02c0,0,0,0.01,0,0.01
		c0,0-0.01,0.01-0.01,0.02c0,0-0.01,0.01-0.01,0.01c0,0-0.01,0.01-0.01,0.01c0,0.01-0.01,0.02-0.01,0.02c0,0,0,0.01-0.01,0.01
		c0,0.01-0.01,0.01-0.01,0.02c0,0,0,0.01-0.01,0.01c0,0.01,0,0.01-0.01,0.02c0,0,0,0.01,0,0.01c-0.03,0.05-0.05,0.1-0.08,0.15
		c0,0,0,0,0,0.01c0,0.01-0.01,0.01-0.01,0.02c0,0,0,0,0,0.01c-0.01,0.02-0.02,0.04-0.03,0.06c0,0,0,0.01-0.01,0.01
		c0,0.01,0,0.01-0.01,0.02c0,0.01-0.01,0.01-0.01,0.01c0,0,0,0.01-0.01,0.01c-0.01,0.01-0.01,0.02-0.01,0.03l0,0l0,0l0,0
		c0.63,3.12,1.08,6.72,1.08,10.68C79.16,114.37,74.49,130.78,56.14,145.99 M70.94,92.4C70.94,92.4,70.94,92.4,70.94,92.4
		c-0.01-0.01-0.01-0.02-0.02-0.03c0,0,0,0,0,0c-0.12-0.21-0.24-0.43-0.36-0.65C70.7,91.95,70.82,92.18,70.94,92.4 M70.57,91.72
		c0-0.01-0.01-0.01-0.01-0.02C70.56,91.7,70.56,91.71,70.57,91.72 M70.55,91.69c0,0,0-0.01-0.01-0.01
		C70.55,91.68,70.55,91.68,70.55,91.69 M78.77,89.54C78.77,89.53,78.77,89.53,78.77,89.54C78.77,89.53,78.77,89.53,78.77,89.54"/>
	<path class="st1" d="M70.57,91.72C70.57,91.72,70.57,91.72,70.57,91.72C70.57,91.72,70.57,91.72,70.57,91.72 M70.56,91.7
		C70.56,91.69,70.55,91.69,70.56,91.7C70.55,91.69,70.56,91.69,70.56,91.7 M70.55,91.68c-0.08-0.15-0.16-0.3-0.24-0.45
		c0,0,0-0.01,0-0.01c0,0-0.01-0.01-0.01-0.01c-0.11-0.2-0.21-0.41-0.32-0.62C70.16,90.96,70.36,91.32,70.55,91.68 M69.97,90.57
		c0-0.01-0.01-0.02-0.01-0.03C69.96,90.56,69.97,90.57,69.97,90.57 M69.95,90.53c0-0.01,0-0.01-0.01-0.02
		C69.94,90.52,69.94,90.52,69.95,90.53 M69.92,90.48C69.92,90.48,69.92,90.47,69.92,90.48C69.92,90.47,69.92,90.48,69.92,90.48
		 M69.54,89.71c-0.47-0.98-0.94-2.01-1.36-3.05c0,0,0,0,0,0C68.61,87.71,69.07,88.74,69.54,89.71L69.54,89.71 M81.56,82.32
		C81.56,82.32,81.56,82.32,81.56,82.32c0.43-1.51,0.71-2.95,0.76-4.18c0,0,0,0,0,0C82.27,79.38,81.99,80.81,81.56,82.32"/>
	<path class="st2" d="M75.45,148.19c0.01,0,0.03,0,0.04,0C75.48,148.19,75.46,148.19,75.45,148.19 M75.51,148.18
		c7.49-0.14,14.71-1.41,21.5-3.61c14.64-28.95-4.07-52.26-15.44-62.25c0.43-1.51,0.71-2.95,0.77-4.18
		c15.37,3.86,35.09,18.39,42.54,49.9C111.93,140.23,94.61,147.83,75.51,148.18 M25.06,129.62c-12.89-11.4-21.77-27.21-24.3-45.07
		c15.93,4.55,32.14,8,45.33,8c9.23,0,16.98-1.7,22.09-5.9c0.43,1.05,0.89,2.08,1.36,3.05c-11.66,19.8-40.08,23.56-56.07,26.94
		C16.83,121.41,20.71,125.77,25.06,129.62 M70.94,92.4c0-0.01-0.01-0.02-0.01-0.03C70.93,92.38,70.94,92.39,70.94,92.4 M70.93,92.37
		c-0.21-0.37-0.41-0.75-0.62-1.14c0.08,0.15,0.16,0.3,0.24,0.45c0,0,0,0.01,0.01,0.01c0,0,0,0.01,0.01,0.01
		c0,0.01,0.01,0.01,0.01,0.02c0,0,0,0,0,0.01C70.69,91.94,70.81,92.16,70.93,92.37 M70.3,91.21c0,0-0.01-0.01-0.01-0.01
		C70.3,91.21,70.3,91.21,70.3,91.21 M78.1,90.89c0,0,0-0.01,0.01-0.01C78.1,90.88,78.1,90.88,78.1,90.89 M78.11,90.86
		c0-0.01,0.01-0.01,0.01-0.02C78.11,90.85,78.11,90.85,78.11,90.86 M78.12,90.83c0.01-0.02,0.02-0.04,0.03-0.06
		C78.14,90.8,78.13,90.81,78.12,90.83 M78.15,90.77c0-0.01,0.01-0.01,0.01-0.02C78.16,90.76,78.16,90.76,78.15,90.77 M78.17,90.74
		c0.03-0.05,0.05-0.1,0.08-0.15C78.22,90.64,78.19,90.69,78.17,90.74 M78.25,90.58c0-0.01,0.01-0.01,0.01-0.02
		C78.26,90.57,78.25,90.58,78.25,90.58 M78.26,90.56c0-0.01,0.01-0.01,0.01-0.02C78.27,90.54,78.27,90.55,78.26,90.56 M78.28,90.53
		c0-0.01,0.01-0.02,0.01-0.02C78.29,90.51,78.28,90.52,78.28,90.53 M78.3,90.49c0-0.01,0-0.01,0.01-0.01
		C78.3,90.48,78.3,90.48,78.3,90.49 M78.31,90.46c0,0,0-0.01,0-0.01C78.32,90.45,78.32,90.45,78.31,90.46 M78.33,90.43
		c0-0.01,0.01-0.01,0.01-0.02C78.33,90.42,78.33,90.42,78.33,90.43 M78.35,90.39C78.35,90.39,78.35,90.39,78.35,90.39
		C78.35,90.39,78.35,90.39,78.35,90.39 M78.36,90.36L78.36,90.36L78.36,90.36"/>
	<path class="st1" d="M74.1,148.2L74.1,148.2L74.1,148.2L74.1,148.2 M74.18,148.2c0.01,0,0.01,0,0.02,0
		C74.19,148.2,74.19,148.2,74.18,148.2 M74.29,148.2L74.29,148.2L74.29,148.2 M69.16,148.03c-4.46-0.3-8.81-0.99-13.02-2.04l0,0
		c2.12,0.53,4.28,0.97,6.48,1.31C64.77,147.64,66.95,147.89,69.16,148.03 M25.62,130.11c-0.18-0.16-0.36-0.31-0.54-0.47
		c0.11,0.1,0.22,0.19,0.33,0.29c0,0,0.01,0.01,0.01,0.01c0.01,0.01,0.02,0.01,0.02,0.02c0.01,0.01,0.01,0.01,0.02,0.02
		c0.01,0.01,0.01,0.01,0.02,0.02c0.01,0.01,0.02,0.01,0.02,0.02c0.01,0.01,0.01,0.01,0.02,0.02c0.01,0.01,0.02,0.02,0.03,0.02
		c0,0,0.01,0.01,0.01,0.01C25.59,130.09,25.61,130.1,25.62,130.11c20.72-7.02,37.92-16.47,45.34-37.69l0,0
		C63.54,113.65,46.34,123.1,25.62,130.11 M70.96,92.43c0-0.01-0.01-0.02-0.02-0.03C70.95,92.41,70.96,92.42,70.96,92.43
		 M69.97,90.58C69.97,90.58,69.97,90.58,69.97,90.58C69.97,90.58,69.97,90.58,69.97,90.58 M69.96,90.55c0-0.01-0.01-0.02-0.01-0.02
		C69.95,90.53,69.95,90.54,69.96,90.55 M69.94,90.51c-0.01-0.01-0.01-0.02-0.02-0.03C69.93,90.49,69.93,90.5,69.94,90.51
		 M69.92,90.47c-0.12-0.25-0.25-0.5-0.38-0.76l0,0C69.67,89.97,69.79,90.22,69.92,90.47 M78.77,89.54
		C78.77,89.54,78.77,89.54,78.77,89.54C78.77,89.54,78.77,89.54,78.77,89.54 M78.77,89.53c1.09-2.28,2.12-4.84,2.79-7.21l0,0
		c-0.64,2.25-1.6,4.68-2.63,6.87C78.88,89.3,78.82,89.42,78.77,89.53"/>
	<path class="st1" d="M74.1,148.2c-1.66,0-3.31-0.05-4.94-0.16c-2.21-0.15-4.39-0.39-6.54-0.73C66.36,147.89,70.19,148.2,74.1,148.2
		c0.45,0,0.9,0,1.35-0.01c-0.39,0.01-0.77,0.01-1.16,0.01h0c-0.03,0-0.06,0-0.09,0c0,0-0.01,0-0.02,0
		C74.16,148.2,74.13,148.2,74.1,148.2L74.1,148.2 M75.49,148.18c0.01,0,0.01,0,0.02,0C75.5,148.18,75.5,148.18,75.49,148.18
		 M25.58,130.08c0,0-0.01-0.01-0.01-0.01C25.57,130.07,25.58,130.07,25.58,130.08 M25.54,130.04c-0.01-0.01-0.01-0.01-0.02-0.02
		C25.53,130.03,25.53,130.04,25.54,130.04 M25.5,130c-0.01,0-0.01-0.01-0.02-0.02C25.48,129.99,25.49,130,25.5,130 M25.46,129.97
		c-0.01-0.01-0.02-0.01-0.02-0.02C25.44,129.96,25.45,129.96,25.46,129.97 M25.42,129.94c-0.11-0.1-0.22-0.2-0.33-0.29
		c-0.01-0.01-0.02-0.02-0.02-0.02C25.18,129.73,25.3,129.83,25.42,129.94 M70.96,92.43c-0.01-0.01-0.01-0.02-0.02-0.03c0,0,0,0,0,0
		C70.95,92.41,70.96,92.42,70.96,92.43L70.96,92.43 M70.93,92.37C70.93,92.37,70.93,92.37,70.93,92.37
		C70.93,92.37,70.93,92.37,70.93,92.37 M78.08,90.91c0-0.01,0.01-0.02,0.01-0.03C78.09,90.89,78.09,90.9,78.08,90.91 M78.1,90.87
		c0-0.01,0.01-0.01,0.01-0.01C78.11,90.86,78.1,90.87,78.1,90.87 M78.12,90.84C78.12,90.84,78.12,90.84,78.12,90.84
		C78.12,90.84,78.12,90.84,78.12,90.84 M78.15,90.78C78.15,90.77,78.15,90.77,78.15,90.78C78.15,90.77,78.15,90.77,78.15,90.78
		 M78.16,90.75C78.17,90.75,78.17,90.75,78.16,90.75C78.17,90.75,78.17,90.75,78.16,90.75 M78.25,90.59
		C78.25,90.59,78.25,90.58,78.25,90.59C78.25,90.58,78.25,90.59,78.25,90.59 M78.26,90.56C78.26,90.56,78.26,90.56,78.26,90.56
		C78.26,90.56,78.26,90.56,78.26,90.56 M78.27,90.54c0,0,0-0.01,0.01-0.01C78.28,90.53,78.27,90.53,78.27,90.54 M78.29,90.5
		c0,0,0-0.01,0.01-0.01C78.3,90.49,78.29,90.5,78.29,90.5 M78.31,90.47c0-0.01,0-0.01,0.01-0.02
		C78.31,90.46,78.31,90.47,78.31,90.47 M78.32,90.45c0-0.01,0.01-0.01,0.01-0.02C78.32,90.44,78.32,90.44,78.32,90.45 M78.34,90.41
		c0-0.01,0.01-0.01,0.01-0.02C78.34,90.4,78.34,90.41,78.34,90.41 M78.35,90.39c0-0.01,0.01-0.02,0.01-0.03
		C78.36,90.37,78.35,90.38,78.35,90.39 M78.36,90.36c0.14-0.27,0.27-0.54,0.4-0.82c0,0,0,0,0,0c0,0,0-0.01,0-0.01
		c0.05-0.11,0.11-0.22,0.16-0.34C78.74,89.59,78.55,89.98,78.36,90.36"/>
	<path class="st1" d="M62.61,147.3c-2.19-0.34-4.35-0.78-6.48-1.31l0,0C58.26,146.52,60.42,146.96,62.61,147.3 M25.62,130.11
		c-0.01-0.01-0.03-0.02-0.04-0.04C25.59,130.09,25.61,130.1,25.62,130.11c20.72-7.02,37.92-16.47,45.34-37.69l0,0
		C63.54,113.65,46.34,123.1,25.62,130.11 M25.57,130.06c-0.01-0.01-0.02-0.02-0.03-0.02C25.55,130.05,25.56,130.06,25.57,130.06
		 M25.52,130.02c-0.01-0.01-0.02-0.01-0.02-0.02C25.5,130.01,25.51,130.02,25.52,130.02 M25.48,129.99
		c-0.01-0.01-0.01-0.01-0.02-0.02C25.46,129.98,25.47,129.98,25.48,129.99 M25.43,129.95c0,0-0.01-0.01-0.01-0.01
		C25.42,129.94,25.43,129.95,25.43,129.95 M70.31,91.22C70.3,91.22,70.3,91.22,70.31,91.22C70.3,91.22,70.3,91.22,70.31,91.22
		 M70.29,91.2c-0.25-0.48-0.5-0.98-0.75-1.49c0,0,0,0,0,0c0.12,0.26,0.25,0.51,0.38,0.76c0,0,0,0.01,0,0.01
		c0.01,0.01,0.01,0.02,0.02,0.03c0,0,0.01,0.01,0.01,0.02c0,0.01,0.01,0.01,0.01,0.02c0,0.01,0.01,0.02,0.01,0.03c0,0,0,0.01,0,0.01
		C70.08,90.79,70.19,91,70.29,91.2 M78.93,89.19c1.03-2.19,2-4.62,2.63-6.87c0,0,0,0,0,0C80.93,84.58,79.96,87,78.93,89.19"/>
	<path class="st3" d="M74.1,148.2c-3.91,0-7.74-0.31-11.48-0.89c-2.19-0.34-4.35-0.78-6.48-1.31
		c18.35-15.22,23.02-31.63,23.02-44.41c0-3.95-0.45-7.56-1.08-10.68l0,0c0-0.01,0.01-0.02,0.01-0.03c0,0,0-0.01,0.01-0.01
		c0-0.01,0.01-0.01,0.01-0.01c0-0.01,0.01-0.01,0.01-0.02c0,0,0-0.01,0.01-0.01c0.01-0.02,0.02-0.04,0.03-0.06c0,0,0,0,0-0.01
		c0-0.01,0.01-0.01,0.01-0.02c0,0,0,0,0-0.01c0.03-0.05,0.05-0.1,0.08-0.15c0,0,0-0.01,0-0.01c0-0.01,0.01-0.01,0.01-0.02
		c0,0,0-0.01,0.01-0.01c0-0.01,0.01-0.01,0.01-0.02c0,0,0-0.01,0.01-0.01c0-0.01,0.01-0.02,0.01-0.02c0,0,0-0.01,0.01-0.01
		c0-0.01,0-0.01,0.01-0.01c0-0.01,0-0.01,0.01-0.02c0,0,0-0.01,0-0.01c0-0.01,0.01-0.01,0.01-0.02c0-0.01,0.01-0.01,0.01-0.02
		c0-0.01,0.01-0.01,0.01-0.02c0,0,0,0,0,0c0-0.01,0.01-0.02,0.01-0.03l0,0c0.19-0.38,0.38-0.77,0.57-1.17
		c1.03-2.19,2-4.61,2.63-6.87c11.37,9.99,30.08,33.3,15.44,62.25c-6.79,2.21-14.01,3.47-21.5,3.61c-0.01,0-0.01,0-0.02,0
		c-0.01,0-0.03,0-0.04,0C75,148.19,74.55,148.2,74.1,148.2 M25.62,130.11c-0.01-0.01-0.03-0.02-0.04-0.04c0,0-0.01-0.01-0.01-0.01
		c-0.01-0.01-0.02-0.02-0.03-0.02c-0.01-0.01-0.01-0.01-0.02-0.02c-0.01-0.01-0.02-0.01-0.02-0.02c-0.01-0.01-0.01-0.01-0.02-0.02
		c-0.01-0.01-0.01-0.01-0.02-0.02c-0.01-0.01-0.02-0.01-0.02-0.02c0,0-0.01-0.01-0.01-0.01c-0.12-0.11-0.24-0.21-0.36-0.32
		c-4.35-3.85-8.23-8.21-11.59-12.97c15.99-3.38,44.4-7.13,56.07-26.94c0.25,0.51,0.5,1.01,0.75,1.49c0,0.01,0.01,0.01,0.01,0.01
		c0,0,0,0.01,0,0.01c0.21,0.4,0.42,0.78,0.62,1.14c0,0,0,0,0,0c0.01,0.01,0.01,0.02,0.01,0.03c0.01,0.01,0.01,0.02,0.02,0.03l0,0
		C63.54,113.65,46.34,123.1,25.62,130.11"/>
	<path class="st1" d="M86.9,36.05c0-10.01-12.79-27.86-12.79-27.86S61.32,26.04,61.32,36.05c0,10.01,12.79,28.64,12.79,37.26
		C74.11,64.69,86.9,46.06,86.9,36.05L86.9,36.05z"/>
	<path class="st1" d="M79.67,62.34c3.79,1.75,9.6,5.34,9.6,10.97c5.38-9.67-1.21-19.33-4.22-22.96
		C83.3,54.38,81.3,58.52,79.67,62.34L79.67,62.34z"/>
	<path class="st1" d="M68.52,62.34c-3.79,1.75-9.6,5.34-9.6,10.97c-5.38-9.67,1.21-19.33,4.22-22.96
		C64.9,54.38,66.89,58.52,68.52,62.34L68.52,62.34z"/>
	<path class="st1" d="M82.34,77.68c0-4.57-1.92-8.5-4.68-10.35c-0.37,0.73-0.81,1.75-1.25,2.88c1.79,1.2,3.03,3.75,3.03,6.71
		c0,4.11-4.33,12.18-5.34,12.18c-1.01,0-5.34-8.07-5.34-12.18c0-3.04,1.31-5.65,3.18-6.81l0.09,0.21c-0.44-1.25-0.88-2.36-1.25-3.13
		c-2.88,1.79-4.9,5.81-4.9,10.49c0,6.34,6.67,18.77,8.23,18.77C75.67,96.45,82.34,84.02,82.34,77.68L82.34,77.68z"/>
	<path class="st1" d="M179.21,129.14h5.14v-12.36h14.14v12.36h5.14V99.81h-5.14V112h-14.14V99.81h-5.14V129.14L179.21,129.14z
		 M225.8,117.49l5.05-11.73l5.09,11.73H225.8L225.8,117.49z M215.57,129.14h5.3l3.03-7.08h13.93l2.99,7.08h5.47L233.34,99.6h-4.8
		L215.57,129.14L215.57,129.14z M258.25,129.14h5.14v-20.87l16.21,20.87h4.33V99.81h-5.14v20.28l-15.75-20.28h-4.79V129.14
		L258.25,129.14z M303.54,124.49v-20.03h5.81c1.54,0,2.95,0.25,4.21,0.76c1.26,0.51,2.34,1.2,3.22,2.08
		c0.88,0.88,1.57,1.94,2.06,3.18c0.49,1.23,0.74,2.57,0.74,4v0.08c0,1.43-0.25,2.76-0.74,3.98c-0.49,1.22-1.18,2.27-2.06,3.16
		c-0.88,0.88-1.96,1.57-3.22,2.06c-1.26,0.49-2.67,0.74-4.21,0.74H303.54L303.54,124.49z M298.41,129.14h10.98
		c2.3,0,4.41-0.38,6.33-1.13c1.92-0.75,3.58-1.79,4.97-3.1c1.39-1.31,2.46-2.86,3.22-4.65c0.76-1.79,1.14-3.71,1.14-5.78v-0.08
		c0-2.07-0.38-3.99-1.14-5.76c-0.76-1.77-1.83-3.32-3.22-4.63c-1.39-1.31-3.04-2.34-4.97-3.08c-1.92-0.74-4.03-1.11-6.33-1.11
		h-10.98V129.14L298.41,129.14z M343.36,124.57v-8.05h8.18c2.04,0,3.56,0.34,4.55,1.03c0.99,0.69,1.49,1.65,1.49,2.91v0.08
		c0,1.34-0.5,2.35-1.51,3.02c-1.01,0.67-2.39,1.01-4.15,1.01H343.36L343.36,124.57z M343.36,112.17v-7.79h7.42
		c1.68,0,2.96,0.33,3.84,0.98c0.88,0.66,1.32,1.57,1.32,2.74v0.08c0,1.34-0.5,2.34-1.51,3c-1.01,0.66-2.35,0.98-4.03,0.98H343.36
		L343.36,112.17z M338.22,129.14h13.61c1.63,0,3.11-0.17,4.46-0.52c1.34-0.35,2.49-0.86,3.44-1.53c0.95-0.67,1.69-1.51,2.21-2.51
		c0.52-1.01,0.78-2.16,0.78-3.48v-0.08c0-1.01-0.14-1.89-0.42-2.64c-0.28-0.75-0.68-1.41-1.19-1.97c-0.52-0.56-1.13-1.04-1.84-1.44
		c-0.71-0.4-1.5-0.76-2.36-1.07c0.53-0.28,1.05-0.61,1.57-1.01c0.51-0.39,0.96-0.84,1.34-1.36c0.38-0.52,0.68-1.12,0.92-1.8
		c0.24-0.69,0.36-1.47,0.36-2.37v-0.08c0-1.93-0.66-3.55-1.97-4.86c-1.74-1.73-4.3-2.6-7.69-2.6h-13.19V129.14L338.22,129.14z
		 M385.63,124.07c-1.23-0.56-2.28-1.31-3.16-2.24c-0.88-0.94-1.57-2.04-2.05-3.31c-0.49-1.27-0.73-2.62-0.73-4.04v-0.08
		c0-1.43,0.24-2.77,0.73-4.02c0.49-1.26,1.17-2.35,2.03-3.29c0.87-0.94,1.91-1.68,3.12-2.22c1.21-0.55,2.55-0.82,4-0.82
		c1.45,0,2.79,0.28,4.02,0.84c1.23,0.56,2.28,1.31,3.16,2.24c0.88,0.94,1.56,2.04,2.05,3.31c0.49,1.27,0.73,2.62,0.73,4.04v0.08
		c0,1.42-0.25,2.77-0.73,4.02c-0.49,1.26-1.17,2.35-2.03,3.29c-0.87,0.94-1.91,1.68-3.12,2.22c-1.21,0.54-2.55,0.82-4,0.82
		S386.86,124.63,385.63,124.07L385.63,124.07z M395.8,128.43c1.88-0.81,3.51-1.91,4.88-3.29s2.44-2.99,3.2-4.82
		c0.76-1.83,1.14-3.78,1.14-5.85v-0.08c0-2.07-0.38-4.02-1.14-5.85c-0.76-1.83-1.81-3.43-3.16-4.8c-1.35-1.37-2.96-2.45-4.84-3.25
		c-1.88-0.8-3.96-1.19-6.23-1.19c-2.27,0-4.35,0.4-6.23,1.21c-1.88,0.81-3.51,1.91-4.88,3.29c-1.38,1.38-2.44,2.99-3.2,4.82
		c-0.76,1.83-1.14,3.78-1.14,5.85v0.08c0,2.07,0.38,4.02,1.14,5.85c0.76,1.83,1.81,3.43,3.16,4.8c1.35,1.37,2.96,2.45,4.84,3.25
		c1.88,0.8,3.96,1.19,6.23,1.19C391.85,129.64,393.92,129.24,395.8,128.43L395.8,128.43z M428.31,124.07
		c-1.23-0.56-2.28-1.31-3.16-2.24c-0.88-0.94-1.56-2.04-2.05-3.31c-0.49-1.27-0.73-2.62-0.73-4.04v-0.08c0-1.43,0.24-2.77,0.73-4.02
		c0.49-1.26,1.17-2.35,2.03-3.29c0.87-0.94,1.91-1.68,3.12-2.22c1.21-0.55,2.55-0.82,4-0.82s2.79,0.28,4.02,0.84
		c1.23,0.56,2.28,1.31,3.16,2.24c0.88,0.94,1.56,2.04,2.05,3.31c0.49,1.27,0.73,2.62,0.73,4.04v0.08c0,1.42-0.24,2.77-0.73,4.02
		c-0.49,1.26-1.17,2.35-2.03,3.29c-0.87,0.94-1.91,1.68-3.12,2.22c-1.21,0.54-2.55,0.82-4,0.82S429.54,124.63,428.31,124.07
		L428.31,124.07z M438.48,128.43c1.88-0.81,3.51-1.91,4.88-3.29s2.44-2.99,3.2-4.82c0.76-1.83,1.14-3.78,1.14-5.85v-0.08
		c0-2.07-0.38-4.02-1.14-5.85c-0.76-1.83-1.81-3.43-3.16-4.8c-1.35-1.37-2.96-2.45-4.84-3.25c-1.88-0.8-3.96-1.19-6.23-1.19
		c-2.27,0-4.35,0.4-6.23,1.21c-1.88,0.81-3.51,1.91-4.88,3.29s-2.44,2.99-3.2,4.82c-0.76,1.83-1.14,3.78-1.14,5.85v0.08
		c0,2.07,0.38,4.02,1.14,5.85c0.76,1.83,1.81,3.43,3.16,4.8c1.35,1.37,2.96,2.45,4.84,3.25c1.88,0.8,3.96,1.19,6.23,1.19
		C434.52,129.64,436.6,129.24,438.48,128.43L438.48,128.43z M460.87,129.14h5.14v-8.51l4.59-4.69l10.06,13.2h6.27l-12.79-16.72
		l12.25-12.61h-6.36l-14.02,14.75V99.81h-5.14V129.14L460.87,129.14z"/>
	<path class="st1" d="M205.69,65.13c-1.92-0.89-3.56-2.09-4.93-3.6c-1.37-1.5-2.43-3.23-3.19-5.2c-0.76-1.96-1.13-4.04-1.13-6.24
		v-0.17c0-2.19,0.36-4.27,1.09-6.24c0.73-1.96,1.77-3.68,3.14-5.16s3-2.64,4.89-3.51c1.89-0.87,4-1.3,6.33-1.3
		c2.33,0,4.45,0.45,6.37,1.34c1.92,0.9,3.58,2.09,4.97,3.6c1.39,1.5,2.47,3.24,3.23,5.2c0.76,1.96,1.14,4.04,1.14,6.24v0.17
		c0,2.2-0.38,4.28-1.14,6.24c-0.76,1.96-1.8,3.68-3.14,5.16c-1.34,1.47-2.97,2.64-4.89,3.51c-1.92,0.87-4.04,1.3-6.37,1.3
		C209.73,66.47,207.61,66.02,205.69,65.13L205.69,65.13z M224.98,79.16c4-1.65,7.48-3.9,10.44-6.76c2.96-2.86,5.27-6.21,6.92-10.05
		c1.65-3.84,2.48-7.93,2.48-12.26v-0.17c0-4.33-0.83-8.4-2.48-12.22c-1.65-3.81-3.93-7.13-6.83-9.96c-2.9-2.83-6.35-5.07-10.36-6.71
		c-4-1.65-8.35-2.47-13.05-2.47c-4.7,0-9.05,0.82-13.05,2.47c-4,1.65-7.48,3.9-10.44,6.76c-2.96,2.86-5.26,6.21-6.92,10.05
		c-1.65,3.84-2.48,7.93-2.48,12.26v0.17c0,4.33,0.83,8.4,2.48,12.22c1.65,3.81,3.93,7.13,6.83,9.96c2.9,2.83,6.35,5.07,10.36,6.71
		c4,1.65,8.35,2.47,13.05,2.47C216.63,81.63,220.98,80.81,224.98,79.16L224.98,79.16z M287.64,80.12c3.02-0.89,5.6-2.19,7.75-3.89
		c2.14-1.7,3.81-3.76,5-6.18c1.19-2.42,1.78-5.19,1.78-8.3v-0.17c0-2.82-0.52-5.26-1.57-7.31c-1.04-2.05-2.55-3.79-4.52-5.23
		c-1.97-1.44-4.37-2.67-7.18-3.68c-2.81-1.01-5.96-1.89-9.44-2.64c-2.09-0.46-3.82-0.91-5.18-1.34c-1.36-0.43-2.44-0.86-3.22-1.3
		c-0.78-0.43-1.34-0.91-1.65-1.43c-0.32-0.52-0.48-1.12-0.48-1.82v-0.17c0-1.1,0.51-2.02,1.52-2.77c1.02-0.75,2.54-1.12,4.57-1.12
		c2.73,0,5.55,0.51,8.49,1.52c2.93,1.01,5.79,2.5,8.57,4.46l8.44-11.91c-3.31-2.67-7.01-4.69-11.1-6.06
		c-4.09-1.37-8.75-2.05-13.97-2.05c-3.66,0-6.93,0.48-9.83,1.43c-2.9,0.95-5.38,2.29-7.44,4.02c-2.06,1.73-3.63,3.78-4.7,6.14
		c-1.07,2.36-1.61,4.96-1.61,7.78v0.17c0,3.11,0.59,5.72,1.78,7.83c1.19,2.11,2.81,3.86,4.87,5.28c2.06,1.41,4.48,2.57,7.27,3.46
		c2.78,0.89,5.8,1.72,9.05,2.46c2.09,0.46,3.79,0.91,5.09,1.34c1.31,0.43,2.35,0.88,3.13,1.34c0.78,0.46,1.32,0.94,1.61,1.43
		c0.29,0.49,0.44,1.05,0.44,1.69v0.17c0,1.33-0.6,2.35-1.79,3.07c-1.19,0.72-2.91,1.08-5.18,1.08c-7.08,0-13.66-2.43-19.76-7.28
		l-9.4,11.2c3.77,3.37,8.11,5.9,13.01,7.58c4.9,1.68,10.08,2.53,15.53,2.53C281.26,81.46,284.63,81.01,287.64,80.12L287.64,80.12z
		 M310.36,80.42h46.39V65.69h-29.5V19.77h-16.88V80.42L310.36,80.42z M402.39,80.59c2.7-0.69,5.13-1.65,7.31-2.86
		c2.18-1.21,4.12-2.66,5.83-4.33c1.71-1.67,3.29-3.49,4.74-5.46l-12.71-9.01c-0.93,1.1-1.87,2.09-2.83,2.99
		c-0.96,0.9-1.97,1.68-3.05,2.34c-1.07,0.66-2.26,1.17-3.57,1.52c-1.31,0.35-2.74,0.52-4.31,0.52c-2.15,0-4.11-0.42-5.88-1.26
		c-1.77-0.84-3.29-1.98-4.57-3.42c-1.28-1.44-2.28-3.16-3-5.16c-0.73-1.99-1.09-4.12-1.09-6.37v-0.17c0-2.19,0.36-4.27,1.09-6.24
		c0.73-1.96,1.73-3.67,3-5.11c1.28-1.44,2.8-2.58,4.57-3.42c1.77-0.84,3.73-1.26,5.88-1.26c2.96,0,5.48,0.64,7.57,1.91
		c2.09,1.27,4,3,5.74,5.2l12.71-9.79c-1.34-1.85-2.86-3.55-4.57-5.11c-1.71-1.56-3.63-2.9-5.74-4.03c-2.12-1.13-4.45-1.99-7.01-2.6
		c-2.55-0.61-5.4-0.91-8.53-0.91c-4.64,0-8.92,0.81-12.84,2.43c-3.92,1.62-7.3,3.86-10.14,6.71c-2.84,2.86-5.08,6.21-6.7,10.05
		c-1.63,3.84-2.44,7.96-2.44,12.35v0.17c0,4.51,0.83,8.68,2.48,12.52c1.65,3.84,3.89,7.16,6.7,9.96c2.81,2.8,6.14,4.98,9.97,6.54
		c3.83,1.56,7.92,2.34,12.27,2.34C396.66,81.63,399.69,81.28,402.39,80.59L402.39,80.59z"/>
</g>
</svg>
