<?xml version="1.0" encoding="utf-8"?>
<!-- Generator: Adobe Illustrator 26.0.1, SVG Export Plug-In . SVG Version: 6.00 Build 0)  -->
<svg version="1.1" id="Layer_1" xmlns="http://www.w3.org/2000/svg" xmlns:xlink="http://www.w3.org/1999/xlink" x="0px" y="0px"
	 viewBox="0 0 736.4 133.6" style="enable-background:new 0 0 736.4 133.6;" xml:space="preserve">
<style type="text/css">
	.st0{fill:#FE5000;}
	.st1{fill:#00C1D4;}
</style>
<g>
	<path class="st0" d="M6,70.4c-1.1,0-2,0.4-2.7,1.1c-0.7,0.7-1.1,1.6-1.1,2.7V128c0,1.1,0.4,2,1.1,2.7c0.7,0.7,1.6,1.1,2.7,1.1h3.9
		c0.6,0,1.3-0.2,1.9-0.5c0.6-0.3,1.1-0.8,1.4-1.4c0.4-0.6,0.5-1.2,0.5-1.9V74.2c0-1.1-0.4-2-1.1-2.7c-0.8-0.7-1.7-1.1-2.7-1.1H6
		L6,70.4z M69,70.5c-1.1,0-2,0.4-2.7,1.1c-0.7,0.8-1.1,1.7-1.1,2.7v30.2c0,0.4-0.2,0.6-0.6,0.8c-0.4,0.2-0.7,0.1-0.9-0.2L29.8,69.5
		c-0.5-0.5-1.1-0.6-1.8-0.4c-0.7,0.3-1,0.8-1,1.5v57.3c0,1.1,0.4,2,1.1,2.7c0.7,0.8,1.6,1.1,2.7,1.1h3.8c1.1,0,2-0.4,2.7-1.1
		c0.8-0.8,1.1-1.7,1.1-2.7V97.5c0-0.4,0.2-0.7,0.5-0.8c0.4-0.1,0.7-0.1,1,0.2l33.8,35.6c0.4,0.4,0.8,0.5,1.2,0.5
		c0.2,0,0.4-0.1,0.6-0.2c0.7-0.2,1.1-0.7,1.1-1.5v-57c0-1.1-0.4-2-1.1-2.7c-0.8-0.8-1.7-1.1-2.7-1.1H69L69,70.5z M89.4,70.4
		c-1.1,0-2,0.4-2.7,1.1c-0.8,0.7-1.1,1.6-1.1,2.7V128c0,1.1,0.4,2,1.1,2.7c0.8,0.7,1.7,1.1,2.7,1.1h3.7c1.1,0,2-0.4,2.7-1.1
		c0.8-0.7,1.1-1.6,1.1-2.7v-15c0-0.6,0.3-0.9,0.9-0.9h17.8c1.1,0,2-0.4,2.7-1.1c0.8-0.8,1.1-1.7,1.1-2.7v-3.7c0-1.1-0.4-2-1.1-2.7
		c-0.8-0.8-1.7-1.1-2.7-1.1H97.9c-0.6,0-0.9-0.3-0.9-0.9v-17c0-0.6,0.3-0.9,0.9-0.9h23.3c1.1,0,2-0.4,2.7-1.1
		c0.8-0.8,1.1-1.7,1.1-2.7v-3.8c0-0.6-0.2-1.3-0.5-1.9c-0.4-0.6-0.8-1.1-1.4-1.4c-0.6-0.3-1.2-0.5-1.9-0.5H89.4L89.4,70.4z
		 M137.7,70.4c-1.1,0-2,0.4-2.7,1.1c-0.7,0.7-1.1,1.6-1.1,2.7V128c0,1.1,0.4,2,1.1,2.7c0.7,0.7,1.6,1.1,2.7,1.1h3.8
		c1.1,0,2-0.4,2.7-1.1c0.8-0.7,1.1-1.6,1.1-2.7v-9.1c0-0.6,0.3-0.9,0.9-0.9h6.1c0.4,0,0.8,0,1.2,0c0.4,0,0.6,0.1,0.8,0.4l8.4,11.8
		c0.8,1.1,1.8,1.6,3.1,1.6h4.7c1.4,0,2.4-0.5,3.2-1.4c1.2-1.5,1.2-3.1,0.1-4.6l-7.8-11c-0.3-0.5-0.2-0.9,0.3-1.2
		c3.1-2.2,5.6-5.1,7.3-8.5c1.7-3.4,2.6-7,2.6-10.9v-1.1c0-6.2-2.2-11.6-6.7-16c-4.4-4.4-9.8-6.7-16.1-6.7H137.7L137.7,70.4z
		 M164.8,94.9c0,3.5-1.3,6.6-3.8,9.1c-2.5,2.5-5.6,3.8-9.1,3.8h-5.6c-0.6,0-0.9-0.3-0.9-0.9V81.5c0-0.6,0.3-0.9,0.9-0.9h6.2
		c3.4,0,6.3,1.2,8.7,3.6c2.4,2.4,3.6,5.3,3.6,8.7V94.9L164.8,94.9z M213.1,67.8c-0.9,0-1.5,0.4-1.8,1.1l-25.9,57.3
		c-0.8,1.7-0.4,3.2,1,4.5c0.7,0.7,1.6,1.1,2.8,1.1h3.7c1.8,0,3-0.8,3.7-2.5l2.6-6.1c0.1-0.4,0.4-0.6,0.8-0.6h26.2
		c0.4,0,0.6,0.2,0.8,0.6l2.6,6.1c0.6,1.7,1.9,2.5,3.7,2.5h3.6c1.2,0,2.1-0.4,2.9-1.1c1.4-1.3,1.7-2.8,1-4.5L214.9,69
		C214.5,68.2,213.9,67.8,213.1,67.8L213.1,67.8z M204.8,111.7c-0.2,0-0.4-0.1-0.5-0.3c-0.1-0.2-0.1-0.4,0-0.5l8.2-19.2
		c0.1-0.2,0.3-0.4,0.5-0.4c0.2,0,0.4,0.1,0.4,0.4l8.3,19.2c0.1,0.2,0.1,0.4,0,0.5c-0.1,0.2-0.3,0.3-0.4,0.3H204.8L204.8,111.7z
		 M275.7,95.9c-3.2-1.3-5.5-2.4-6.8-3.2c-4.6-2.7-6.5-5.4-5.7-8.2c0.4-1.3,1.2-2.4,2.4-3.4c1.2-0.9,2.2-1.4,3.2-1.5
		c2.4-0.1,4.2,0,5.5,0.4c1.3,0.4,2.8,1.4,4.6,3c0.7,0.6,1.5,1,2.5,1c0.9,0,1.8-0.2,2.6-0.8l2.4-1.9c0.9-0.7,1.4-1.7,1.5-2.9
		c0.1-1.2-0.4-2.2-1.2-3c-4.7-4.5-10.6-6.7-17.7-6.7c-3.6,0-6.9,1.2-9.8,3.5c-2.9,2.3-4.9,5.4-6,9.1c-0.6,2.1-0.9,4-0.7,5.9
		c0.2,1.9,0.6,3.6,1.1,5c0.6,1.5,1.4,2.9,2.5,4.2c1.1,1.3,2.2,2.4,3.4,3.4c1.1,0.9,2.4,1.8,3.7,2.5c1.8,1.1,4.6,2.4,8.3,4
		c4.2,1.7,7,3.1,8.2,4.2c1.2,1.1,1.7,2.8,1.5,5c-0.1,1.5-0.6,2.8-1.4,3.9c-0.8,1.1-1.8,1.8-2.9,2.3c-1.1,0.4-2.1,0.7-2.9,0.8
		c-0.8,0.1-1.6,0.2-2.3,0.2c-4.7,0-8.8-2.1-12.5-6.4c-0.6-0.8-1.5-1.2-2.5-1.3c-1-0.1-1.9,0.1-2.7,0.6l-2.3,1.7
		c-0.9,0.6-1.5,1.5-1.6,2.6c-0.2,1.1,0.1,2.1,0.7,3c1.5,1.9,3.1,3.6,4.9,5c1.8,1.4,3.3,2.5,4.7,3.1c1.4,0.7,2.9,1.2,4.6,1.5
		c1.7,0.4,3,0.6,3.8,0.6c0.8,0.1,1.8,0.1,2.9,0.1c1.2,0,2.6-0.1,4.2-0.4c1.5-0.3,3.3-0.8,5.2-1.6c1.9-0.8,3.7-1.8,5.3-3
		c1.6-1.2,3-2.8,4.2-4.9c1.2-2.1,2-4.4,2.3-7.1c0.2-1.8,0.1-3.6-0.2-5.2c-0.3-1.6-0.7-3.1-1.2-4.2c-0.5-1.2-1.3-2.3-2.3-3.4
		c-1-1.1-2-2-2.8-2.7c-0.9-0.7-2-1.4-3.4-2.2c-1.4-0.8-2.5-1.3-3.3-1.6c-0.8-0.3-1.9-0.8-3.3-1.4L275.7,95.9L275.7,95.9z
		 M305.2,70.4c-1.1,0-2,0.4-2.7,1.1c-0.7,0.7-1.1,1.6-1.1,2.7v3.5c0,1.1,0.4,2,1.1,2.7c0.7,0.8,1.6,1.1,2.7,1.1h13.3
		c0.6,0,0.9,0.3,0.9,0.9V128c0,1.1,0.4,2,1.1,2.7c0.8,0.7,1.7,1.1,2.7,1.1h3.8c1.1,0,2-0.4,2.7-1.1c0.7-0.7,1.1-1.6,1.1-2.7V82.5
		c0-0.6,0.3-0.9,0.9-0.9H345c1.1,0,2-0.4,2.7-1.1c0.8-0.8,1.1-1.7,1.1-2.7v-3.5c0-1.1-0.4-2-1.1-2.7c-0.8-0.7-1.7-1.1-2.7-1.1H305.2
		L305.2,70.4z M361.4,70.4c-1.1,0-2,0.4-2.7,1.1c-0.7,0.7-1.1,1.6-1.1,2.7V128c0,1.1,0.4,2,1.1,2.7c0.7,0.7,1.6,1.1,2.7,1.1h3.8
		c1.1,0,2-0.4,2.7-1.1c0.8-0.7,1.1-1.6,1.1-2.7v-9.1c0-0.6,0.3-0.9,0.9-0.9h6.1c0.4,0,0.8,0,1.2,0c0.4,0,0.6,0.1,0.8,0.4l8.4,11.8
		c0.8,1.1,1.8,1.6,3.1,1.6h4.7c1.4,0,2.4-0.5,3.2-1.4c1.2-1.5,1.2-3.1,0.1-4.6l-7.8-11c-0.3-0.5-0.2-0.9,0.3-1.2
		c3.1-2.2,5.6-5.1,7.3-8.5c1.7-3.4,2.6-7,2.6-10.9v-1.1c0-6.2-2.2-11.6-6.7-16c-4.4-4.4-9.8-6.7-16.1-6.7H361.4L361.4,70.4z
		 M388.4,94.9c0,3.5-1.3,6.6-3.8,9.1c-2.5,2.5-5.6,3.8-9.1,3.8H370c-0.6,0-0.9-0.3-0.9-0.9V81.5c0-0.6,0.3-0.9,0.9-0.9h6.2
		c3.4,0,6.3,1.2,8.7,3.6c2.4,2.4,3.6,5.3,3.6,8.7V94.9L388.4,94.9z M448.5,70.4c-1.1,0-2,0.4-2.7,1.1c-0.8,0.7-1.1,1.6-1.1,2.7v36.1
		c0,3-1.1,5.6-3.2,7.7c-2.1,2.1-4.7,3.2-7.7,3.2h-3.1c-3,0-5.6-1.1-7.7-3.2c-2.1-2.1-3.2-4.7-3.2-7.7V74.2c0-1.1-0.4-2-1.1-2.7
		c-0.8-0.7-1.7-1.1-2.7-1.1h-3.4c-1,0-1.9,0.4-2.7,1.1c-0.8,0.7-1.1,1.6-1.1,2.7v36.4c0,5.8,2.1,10.8,6.2,15
		c4.2,4.2,9.2,6.2,15.1,6.2h4.5c5.9,0,10.9-2.1,15.1-6.2c4.2-4.2,6.2-9.1,6.2-15V74.2c0-1.1-0.4-2-1.1-2.7c-0.8-0.7-1.7-1.1-2.7-1.1
		H448.5L448.5,70.4z M515.8,114.3c-0.8-0.6-1.8-0.8-2.8-0.8c-1,0.1-1.9,0.5-2.5,1.3c-1.2,1.4-2.6,2.6-4.2,3.7
		c-1.5,1-3.2,1.8-4.9,2.3c-1.8,0.5-3.6,0.8-5.5,0.8c-5.4,0-10-2-13.8-6c-3.8-4-5.7-8.8-5.7-14.5c0-5.7,1.9-10.5,5.7-14.5
		c3.8-4,8.4-6,13.8-6c5.5,0,10.1,2,14,6.1c0.7,0.8,1.5,1.2,2.5,1.2c1,0.1,1.8-0.2,2.6-0.9l3.1-2.4c0.9-0.7,1.4-1.6,1.4-2.7
		c0.1-1.1-0.2-2.1-1-2.9c-3-3.1-6.5-5.5-10.3-7.2c-3.9-1.7-8-2.5-12.3-2.5c-5.7,0-10.9,1.4-15.7,4.2c-4.8,2.8-8.6,6.7-11.4,11.6
		c-2.8,4.9-4.2,10.2-4.2,16c0,5.8,1.4,11.1,4.2,16c2.8,4.9,6.6,8.7,11.4,11.6c4.8,2.8,10,4.2,15.7,4.2c4.5,0,8.8-0.9,12.9-2.8
		c4.1-1.9,7.6-4.5,10.6-7.9c0.6-0.8,0.9-1.8,0.9-2.8c-0.1-1.1-0.6-1.9-1.5-2.7L515.8,114.3L515.8,114.3z M532.9,70.4
		c-1.1,0-2,0.4-2.7,1.1c-0.7,0.7-1.1,1.6-1.1,2.7v3.5c0,1.1,0.4,2,1.1,2.7c0.7,0.8,1.6,1.1,2.7,1.1h13.3c0.6,0,0.9,0.3,0.9,0.9V128
		c0,1.1,0.4,2,1.1,2.7c0.8,0.7,1.7,1.1,2.7,1.1h3.8c1.1,0,2-0.4,2.7-1.1c0.7-0.7,1.1-1.6,1.1-2.7V82.5c0-0.6,0.3-0.9,0.9-0.9h13.3
		c1.1,0,2-0.4,2.7-1.1c0.8-0.8,1.1-1.7,1.1-2.7v-3.5c0-1.1-0.4-2-1.1-2.7c-0.8-0.7-1.7-1.1-2.7-1.1H532.9L532.9,70.4z M625.2,70.4
		c-1.1,0-2,0.4-2.7,1.1c-0.8,0.7-1.1,1.6-1.1,2.7v36.1c0,3-1.1,5.6-3.2,7.7c-2.1,2.1-4.7,3.2-7.7,3.2h-3.1c-3,0-5.6-1.1-7.7-3.2
		c-2.1-2.1-3.2-4.7-3.2-7.7V74.2c0-1.1-0.4-2-1.1-2.7c-0.8-0.7-1.7-1.1-2.7-1.1h-3.4c-1,0-1.9,0.4-2.7,1.1c-0.8,0.7-1.1,1.6-1.1,2.7
		v36.4c0,5.8,2.1,10.8,6.2,15c4.2,4.2,9.2,6.2,15.1,6.2h4.5c5.9,0,10.9-2.1,15.1-6.2c4.2-4.2,6.2-9.1,6.2-15V74.2
		c0-1.1-0.4-2-1.1-2.7c-0.8-0.7-1.7-1.1-2.7-1.1H625.2L625.2,70.4z M649.5,70.4c-1.1,0-2,0.4-2.7,1.1c-0.7,0.7-1.1,1.6-1.1,2.7V128
		c0,1.1,0.4,2,1.1,2.7c0.7,0.7,1.6,1.1,2.7,1.1h3.8c1.1,0,2-0.4,2.7-1.1c0.8-0.7,1.1-1.6,1.1-2.7v-9.1c0-0.6,0.3-0.9,0.9-0.9h6.1
		c0.4,0,0.8,0,1.2,0c0.4,0,0.6,0.1,0.8,0.4l8.4,11.8c0.8,1.1,1.8,1.6,3.1,1.6h4.7c1.4,0,2.4-0.5,3.2-1.4c1.2-1.5,1.2-3.1,0.1-4.6
		l-7.8-11c-0.3-0.5-0.2-0.9,0.3-1.2c3.1-2.2,5.6-5.1,7.3-8.5c1.7-3.4,2.6-7,2.6-10.9v-1.1c0-6.2-2.2-11.6-6.7-16
		c-4.4-4.4-9.8-6.7-16.1-6.7H649.5L649.5,70.4z M676.5,94.9c0,3.5-1.3,6.6-3.8,9.1c-2.5,2.5-5.6,3.8-9.1,3.8h-5.6
		c-0.6,0-0.9-0.3-0.9-0.9V81.5c0-0.6,0.3-0.9,0.9-0.9h6.2c3.4,0,6.3,1.2,8.7,3.6c2.4,2.4,3.6,5.3,3.6,8.7V94.9L676.5,94.9z
		 M700.6,70.4c-1.1,0-2,0.4-2.7,1.1c-0.7,0.7-1.1,1.6-1.1,2.7V128c0,1.1,0.4,2,1.1,2.7c0.7,0.7,1.6,1.1,2.7,1.1h31.9
		c1.1,0,2-0.4,2.7-1.1c0.8-0.7,1.1-1.6,1.1-2.7v-3.8c0-1.1-0.4-2-1.1-2.7c-0.8-0.8-1.7-1.1-2.7-1.1h-23.3c-0.6,0-0.9-0.3-0.9-0.9
		V113c0-0.6,0.3-0.9,0.9-0.9h17.8c1.1,0,2-0.4,2.7-1.1c0.8-0.7,1.1-1.6,1.1-2.7v-3.8c0-1.1-0.4-2-1.1-2.7c-0.8-0.8-1.7-1.1-2.7-1.1
		h-17.8c-0.6,0-0.9-0.3-0.9-0.9v-17c0-0.6,0.3-0.9,0.9-0.9h23.3c1.1,0,2-0.4,2.7-1.1c0.8-0.8,1.1-1.7,1.1-2.7v-3.8
		c0-1.1-0.4-2-1.1-2.7c-0.8-0.7-1.7-1.1-2.7-1.1H700.6L700.6,70.4z"/>
	<path class="st1" d="M37.5,34c-0.6-0.4-1.3-0.6-2-0.5c-0.8,0.1-1.4,0.4-1.8,0.9c-0.9,1-1.9,1.9-3,2.7c-1.1,0.8-2.3,1.3-3.6,1.7
		c-1.3,0.4-2.6,0.6-4,0.6c-3.9,0-7.3-1.5-10.1-4.4c-2.8-2.9-4.2-6.5-4.2-10.6c0-4.1,1.4-7.7,4.2-10.6c2.8-2.9,6.2-4.4,10.1-4.4
		c4,0,7.4,1.5,10.2,4.5c0.5,0.6,1.1,0.9,1.8,0.9c0.7,0,1.3-0.2,1.9-0.6l2.3-1.7c0.6-0.5,1-1.2,1-2c0.1-0.8-0.2-1.5-0.7-2.1
		c-2.2-2.3-4.7-4-7.6-5.3c-2.8-1.2-5.8-1.8-9-1.8c-4.1,0-8,1-11.5,3.1c-3.5,2.1-6.3,4.9-8.3,8.5C1,16.3,0,20.2,0,24.4
		c0,4.2,1,8.1,3.1,11.7c2,3.6,4.8,6.4,8.3,8.5c3.5,2.1,7.3,3.1,11.5,3.1c3.3,0,6.4-0.7,9.4-2c3-1.4,5.6-3.3,7.8-5.8
		c0.5-0.6,0.7-1.3,0.6-2.1c-0.1-0.8-0.5-1.4-1.1-1.9L37.5,34L37.5,34z M50.4,12.7c-2.1,3.6-3.1,7.5-3.1,11.7c0,4.2,1,8.1,3.1,11.7
		c2.1,3.6,4.9,6.4,8.5,8.5c3.6,2.1,7.5,3.1,11.7,3.1c4.2,0,8.1-1,11.7-3.1c3.6-2.1,6.4-4.9,8.5-8.5c2.1-3.6,3.1-7.5,3.1-11.7
		c0-4.2-1-8.1-3.1-11.7c-2.1-3.6-4.9-6.4-8.5-8.5c-3.6-2.1-7.5-3.1-11.7-3.1c-4.2,0-8.1,1-11.7,3.1C55.3,6.3,52.5,9.1,50.4,12.7
		L50.4,12.7z M70.5,39.4c-4,0-7.4-1.5-10.3-4.4c-2.8-2.9-4.3-6.5-4.3-10.6c0-4.1,1.4-7.7,4.3-10.6c2.8-2.9,6.3-4.4,10.3-4.4
		s7.4,1.5,10.3,4.4c2.9,2.9,4.3,6.5,4.3,10.6c0,4.1-1.4,7.7-4.3,10.6C78,37.9,74.5,39.4,70.5,39.4L70.5,39.4z M139.9,1.6l-16.1,24.4
		c-0.1,0.2-0.3,0.3-0.5,0.3c-0.2,0-0.4-0.1-0.5-0.3L107.3,1.6C107,1.1,106.5,0.9,106,1c-0.6,0.1-0.9,0.5-0.9,1l-4.7,41.7
		c-0.1,0.8,0.2,1.5,0.7,2.2c0.6,0.6,1.2,0.9,2.1,0.9h2.6c0.7,0,1.3-0.2,1.8-0.7c0.5-0.5,0.9-1.1,0.9-1.7l2.2-20.4
		c0-0.3,0.2-0.5,0.5-0.6c0.3-0.1,0.5,0,0.7,0.3l10.3,16c0.3,0.3,0.6,0.5,1.1,0.5c0.5,0,0.8-0.2,1-0.5l10.3-16
		c0.2-0.3,0.4-0.4,0.7-0.3c0.3,0.1,0.5,0.2,0.5,0.5l2.1,20.4c0,0.5,0.2,0.9,0.5,1.3c0.3,0.4,0.6,0.7,1,0.9c0.4,0.2,0.9,0.3,1.3,0.3
		h2.7c0.9,0,1.6-0.3,2.1-0.9c0.5-0.6,0.8-1.3,0.7-2.1l-4-41.7c-0.1-0.6-0.4-1-0.9-1.1C140.6,0.9,140.2,1.1,139.9,1.6L139.9,1.6
		L139.9,1.6z M157.3,1.9c-0.8,0-1.4,0.3-2,0.8c-0.5,0.5-0.8,1.2-0.8,2v39.4c0,0.8,0.3,1.4,0.8,2c0.5,0.5,1.2,0.8,2,0.8h2.8
		c0.8,0,1.4-0.3,2-0.8c0.6-0.5,0.8-1.2,0.8-2v-6.7c0-0.4,0.2-0.6,0.6-0.6h4.5c4.8,0,8.9-1.7,12.4-5.1c3.4-3.4,5.1-7.5,5.1-12.3v-0.8
		c0-4.6-1.6-8.5-4.9-11.7c-3.3-3.3-7.2-4.9-11.8-4.9H157.3L157.3,1.9z M177.1,19.8c0,2.6-0.9,4.8-2.8,6.7c-1.9,1.9-4.1,2.8-6.7,2.8
		h-4.1c-0.4,0-0.6-0.2-0.6-0.6V10c0-0.4,0.2-0.6,0.6-0.6h4.5c1.6,0,3.1,0.4,4.5,1.2c1.4,0.8,2.5,1.9,3.3,3.3
		c0.8,1.4,1.2,2.9,1.2,4.5V19.8L177.1,19.8z M201.3,38.4c-0.3,0-0.5-0.1-0.7-0.3c-0.2-0.2-0.3-0.4-0.3-0.7V4.7
		c0-0.4-0.1-0.8-0.2-1.1c-0.2-0.3-0.4-0.6-0.6-0.9c-0.3-0.3-0.6-0.5-0.9-0.6c-0.3-0.1-0.7-0.2-1-0.2h-2.8c-0.8,0-1.4,0.3-2,0.8
		c-0.5,0.5-0.8,1.2-0.8,2v39.4c0,0.8,0.3,1.4,0.8,2c0.5,0.5,1.2,0.8,2,0.8h22c0.8,0,1.4-0.3,2-0.8c0.5-0.5,0.8-1.2,0.8-2v-2.8
		c0-0.8-0.3-1.4-0.8-2c-0.5-0.6-1.2-0.8-2-0.8H201.3L201.3,38.4z M231.9,1.9c-0.8,0-1.4,0.3-2,0.8c-0.5,0.5-0.8,1.2-0.8,2v39.4
		c0,0.8,0.3,1.4,0.8,2c0.5,0.5,1.2,0.8,2,0.8h2.8c0.5,0,0.9-0.1,1.4-0.4c0.4-0.2,0.8-0.6,1-1c0.3-0.4,0.4-0.9,0.4-1.4V4.7
		c0-0.8-0.3-1.4-0.8-2c-0.6-0.5-1.2-0.8-1.9-0.8H231.9L231.9,1.9z M267.8,0c-0.6,0-1.1,0.3-1.3,0.8l-19,41.9
		c-0.6,1.3-0.3,2.4,0.7,3.3c0.5,0.5,1.2,0.8,2.1,0.8h2.7c1.3,0,2.2-0.6,2.7-1.8l1.9-4.5c0.1-0.3,0.3-0.5,0.6-0.5h19.2
		c0.3,0,0.5,0.2,0.6,0.5l1.9,4.5c0.5,1.2,1.4,1.8,2.7,1.8h2.7c0.9,0,1.6-0.3,2.1-0.8c1-0.9,1.2-2,0.7-3.3l-19-41.9
		C268.9,0.3,268.4,0,267.8,0L267.8,0z M261.7,32.1c-0.2,0-0.3-0.1-0.4-0.2c-0.1-0.1-0.1-0.3,0-0.4l6-14c0.1-0.2,0.2-0.3,0.4-0.3
		c0.2,0,0.3,0.1,0.3,0.3l6.1,14c0.1,0.1,0.1,0.3,0,0.4c-0.1,0.1-0.2,0.2-0.3,0.2H261.7L261.7,32.1z M325.5,1.9c-0.8,0-1.4,0.3-2,0.8
		c-0.5,0.6-0.8,1.2-0.8,2v22.1c0,0.3-0.1,0.5-0.4,0.6c-0.3,0.1-0.5,0.1-0.7-0.1L296.8,1.2c-0.4-0.4-0.8-0.5-1.3-0.3
		c-0.5,0.2-0.7,0.6-0.7,1.1V44c0,0.8,0.3,1.4,0.8,2c0.5,0.6,1.2,0.8,2,0.8h2.8c0.8,0,1.4-0.3,2-0.8c0.6-0.6,0.8-1.2,0.8-2V21.7
		c0-0.3,0.1-0.5,0.4-0.6c0.3-0.1,0.5-0.1,0.7,0.2l24.7,26.1c0.3,0.3,0.6,0.4,0.9,0.4c0.2,0,0.3,0,0.5-0.1c0.5-0.2,0.8-0.5,0.8-1.1
		V4.8c0-0.8-0.3-1.4-0.8-2c-0.6-0.6-1.2-0.8-2-0.8H325.5L325.5,1.9z M340.3,1.9c-0.8,0-1.4,0.3-2,0.8c-0.5,0.5-0.8,1.2-0.8,2v2.6
		c0,0.8,0.3,1.4,0.8,2c0.5,0.6,1.2,0.8,2,0.8h9.7c0.4,0,0.6,0.2,0.6,0.6v33.3c0,0.8,0.3,1.4,0.8,2c0.6,0.5,1.2,0.8,2,0.8h2.8
		c0.8,0,1.4-0.3,2-0.8c0.5-0.5,0.8-1.2,0.8-2V10.7c0-0.4,0.2-0.6,0.6-0.6h9.7c0.8,0,1.4-0.3,2-0.8c0.6-0.6,0.8-1.2,0.8-2V4.7
		c0-0.8-0.3-1.4-0.8-2c-0.6-0.5-1.2-0.8-2-0.8H340.3L340.3,1.9z M403.4,1.9c-0.8,0-1.4,0.3-2,0.8c-0.6,0.5-0.8,1.2-0.8,2v39.4
		c0,0.8,0.3,1.4,0.8,2c0.6,0.5,1.2,0.8,2,0.8h2.7c0.8,0,1.4-0.3,2-0.8c0.6-0.5,0.8-1.2,0.8-2v-11c0-0.4,0.2-0.6,0.6-0.6h13
		c0.8,0,1.4-0.3,2-0.8c0.6-0.6,0.8-1.2,0.8-2v-2.7c0-0.8-0.3-1.4-0.8-2c-0.6-0.6-1.2-0.8-2-0.8h-13c-0.4,0-0.6-0.2-0.6-0.6V10.9
		c0-0.4,0.2-0.6,0.6-0.6h17.1c0.8,0,1.4-0.3,2-0.8c0.6-0.6,0.8-1.2,0.8-2V4.7c0-0.5-0.1-0.9-0.4-1.4c-0.3-0.5-0.6-0.8-1-1
		c-0.4-0.2-0.9-0.4-1.4-0.4H403.4L403.4,1.9z M442,1.9c-0.8,0-1.4,0.3-2,0.8c-0.5,0.5-0.8,1.2-0.8,2v39.4c0,0.8,0.3,1.4,0.8,2
		c0.5,0.5,1.2,0.8,2,0.8h2.8c0.5,0,0.9-0.1,1.4-0.4c0.4-0.2,0.8-0.6,1-1c0.3-0.4,0.4-0.9,0.4-1.4V4.7c0-0.8-0.3-1.4-0.8-2
		c-0.6-0.5-1.2-0.8-1.9-0.8H442L442,1.9z M488.1,1.9c-0.8,0-1.4,0.3-2,0.8c-0.5,0.6-0.8,1.2-0.8,2v22.1c0,0.3-0.1,0.5-0.4,0.6
		c-0.3,0.1-0.5,0.1-0.7-0.1L459.4,1.2c-0.4-0.4-0.8-0.5-1.3-0.3c-0.5,0.2-0.7,0.6-0.7,1.1V44c0,0.8,0.3,1.4,0.8,2
		c0.5,0.6,1.2,0.8,2,0.8h2.8c0.8,0,1.4-0.3,2-0.8c0.6-0.6,0.8-1.2,0.8-2V21.7c0-0.3,0.1-0.5,0.4-0.6c0.3-0.1,0.5-0.1,0.7,0.2
		l24.7,26.1c0.3,0.3,0.6,0.4,0.9,0.4c0.2,0,0.3,0,0.5-0.1c0.5-0.2,0.8-0.5,0.8-1.1V4.8c0-0.8-0.3-1.4-0.8-2c-0.6-0.6-1.2-0.8-2-0.8
		H488.1L488.1,1.9z M520.7,0c-0.6,0-1.1,0.3-1.3,0.8l-19,41.9c-0.6,1.3-0.3,2.4,0.7,3.3c0.5,0.5,1.2,0.8,2.1,0.8h2.7
		c1.3,0,2.2-0.6,2.7-1.8l1.9-4.5c0.1-0.3,0.3-0.5,0.6-0.5h19.2c0.3,0,0.5,0.2,0.6,0.5l1.9,4.5c0.5,1.2,1.4,1.8,2.7,1.8h2.7
		c0.9,0,1.6-0.3,2.1-0.8c1-0.9,1.2-2,0.7-3.3L522,0.8C521.8,0.3,521.3,0,520.7,0L520.7,0z M514.7,32.1c-0.2,0-0.3-0.1-0.4-0.2
		c-0.1-0.1-0.1-0.3,0-0.4l6-14c0.1-0.2,0.2-0.3,0.4-0.3s0.3,0.1,0.3,0.3l6.1,14c0.1,0.1,0.1,0.3,0,0.4c-0.1,0.1-0.2,0.2-0.3,0.2
		H514.7L514.7,32.1z M578.4,1.9c-0.8,0-1.4,0.3-2,0.8c-0.5,0.6-0.8,1.2-0.8,2v22.1c0,0.3-0.1,0.5-0.4,0.6c-0.3,0.1-0.5,0.1-0.7-0.1
		L549.7,1.2c-0.4-0.4-0.8-0.5-1.3-0.3c-0.5,0.2-0.7,0.6-0.7,1.1V44c0,0.8,0.3,1.4,0.8,2c0.5,0.6,1.2,0.8,2,0.8h2.8
		c0.8,0,1.4-0.3,2-0.8c0.6-0.6,0.8-1.2,0.8-2V21.7c0-0.3,0.1-0.5,0.4-0.6c0.3-0.1,0.5-0.1,0.7,0.2l24.7,26.1
		c0.3,0.3,0.6,0.4,0.9,0.4c0.2,0,0.3,0,0.5-0.1c0.5-0.2,0.8-0.5,0.8-1.1V4.8c0-0.8-0.3-1.4-0.8-2c-0.6-0.6-1.2-0.8-2-0.8H578.4
		L578.4,1.9z M627.9,34c-0.6-0.4-1.3-0.6-2-0.5c-0.8,0.1-1.4,0.4-1.8,0.9c-0.9,1-1.9,1.9-3,2.7c-1.1,0.8-2.3,1.3-3.6,1.7
		c-1.3,0.4-2.6,0.6-4,0.6c-3.9,0-7.3-1.5-10.1-4.4c-2.8-2.9-4.2-6.5-4.2-10.6c0-4.1,1.4-7.7,4.2-10.6c2.8-2.9,6.2-4.4,10.1-4.4
		c4,0,7.4,1.5,10.2,4.5c0.5,0.6,1.1,0.9,1.8,0.9c0.7,0,1.3-0.2,1.9-0.6l2.3-1.7c0.6-0.5,1-1.2,1-2c0.1-0.8-0.2-1.5-0.7-2.1
		c-2.2-2.3-4.7-4-7.6-5.3c-2.8-1.2-5.8-1.8-9-1.8c-4.1,0-8,1-11.5,3.1c-3.5,2.1-6.3,4.9-8.3,8.5c-2,3.6-3.1,7.5-3.1,11.7
		c0,4.2,1,8.1,3.1,11.7c2,3.6,4.8,6.4,8.3,8.5c3.5,2.1,7.3,3.1,11.5,3.1c3.3,0,6.4-0.7,9.4-2c3-1.4,5.6-3.3,7.8-5.8
		c0.5-0.6,0.7-1.3,0.6-2.1c-0.1-0.8-0.5-1.4-1.1-1.9L627.9,34L627.9,34z M643.7,1.9c-0.8,0-1.4,0.3-2,0.8c-0.5,0.5-0.8,1.2-0.8,2
		v39.4c0,0.8,0.3,1.4,0.8,2c0.5,0.5,1.2,0.8,2,0.8h2.8c0.5,0,0.9-0.1,1.4-0.4c0.4-0.2,0.8-0.6,1-1c0.3-0.4,0.4-0.9,0.4-1.4V4.7
		c0-0.8-0.3-1.4-0.8-2c-0.6-0.5-1.2-0.8-1.9-0.8H643.7L643.7,1.9z M679.6,0c-0.6,0-1.1,0.3-1.3,0.8l-19,41.9
		c-0.6,1.3-0.3,2.4,0.7,3.3c0.5,0.5,1.2,0.8,2.1,0.8h2.7c1.3,0,2.2-0.6,2.7-1.8l1.9-4.5c0.1-0.3,0.3-0.5,0.6-0.5h19.2
		c0.3,0,0.5,0.2,0.6,0.5l1.9,4.5c0.5,1.2,1.4,1.8,2.7,1.8h2.7c0.9,0,1.6-0.3,2.1-0.8c1-0.9,1.2-2,0.7-3.3l-19-41.9
		C680.7,0.3,680.2,0,679.6,0L679.6,0z M673.5,32.1c-0.2,0-0.3-0.1-0.4-0.2c-0.1-0.1-0.1-0.3,0-0.4l6-14c0.1-0.2,0.2-0.3,0.4-0.3
		c0.2,0,0.3,0.1,0.3,0.3l6.1,14c0.1,0.1,0.1,0.3,0,0.4c-0.1,0.1-0.2,0.2-0.3,0.2H673.5L673.5,32.1z M716,38.4
		c-0.3,0-0.5-0.1-0.7-0.3c-0.2-0.2-0.3-0.4-0.3-0.7V4.7c0-0.4-0.1-0.8-0.2-1.1c-0.2-0.3-0.4-0.6-0.6-0.9c-0.3-0.3-0.6-0.5-0.9-0.6
		c-0.3-0.1-0.7-0.2-1-0.2h-2.8c-0.8,0-1.4,0.3-2,0.8c-0.5,0.5-0.8,1.2-0.8,2v39.4c0,0.8,0.3,1.4,0.8,2c0.5,0.5,1.2,0.8,2,0.8h22
		c0.8,0,1.4-0.3,2-0.8c0.5-0.5,0.8-1.2,0.8-2v-2.8c0-0.8-0.3-1.4-0.8-2c-0.5-0.6-1.2-0.8-2-0.8H716L716,38.4z"/>
</g>
</svg>
