<?xml version="1.0" encoding="utf-8"?>
<!-- Generator: Adobe Illustrator 27.0.0, SVG Export Plug-In . SVG Version: 6.00 Build 0)  -->
<svg version="1.1" id="Layer_1" xmlns="http://www.w3.org/2000/svg" xmlns:xlink="http://www.w3.org/1999/xlink" x="0px" y="0px"
	 viewBox="0 0 715.2 245.5" style="enable-background:new 0 0 715.2 245.5;" xml:space="preserve">
<style type="text/css">
	.st0{fill:#FFFFFF;}
</style>
<g>
	<path class="st0" d="M685.9,99.3c18.1,0,29.2-11.2,29.2-26.6v-0.2c0-15.1-10.8-20.9-21.8-22.7l20.5-19.6V16.7H659V32h31.9
		l-19.4,19.5l2.8,11.4h7.4c10,0,15.9,3.7,15.9,10.3v0.2c0,6-4.8,9.9-11.5,9.9c-8.2,0-14-3.5-19.6-9.7l-12.3,11.7
		C661.2,93.5,671.3,99.3,685.9,99.3L685.9,99.3z"/>
	<path class="st0" d="M289,140.1h21.1V90.7h61.2V71.5h-61.2V38.1h69V18.8H289V140.1L289,140.1z M423.9,120.9V38.1h23.9
		c6.4,0,12.1,1,17.3,3.1c5.2,2.1,9.6,5,13.3,8.6c3.6,3.7,6.5,8,8.5,13.1c2,5.1,3,10.6,3,16.5v0.3c0,5.9-1,11.4-3,16.4
		c-2,5-4.9,9.4-8.5,13.1c-3.6,3.7-8.1,6.5-13.3,8.5c-5.2,2-11,3-17.3,3H423.9L423.9,120.9z M402.8,140.1H448
		c9.5,0,18.2-1.6,26.1-4.7c7.9-3.1,14.7-7.4,20.5-12.8c5.7-5.4,10.1-11.8,13.3-19.2c3.1-7.4,4.7-15.4,4.7-23.9v-0.3
		c0-8.6-1.6-16.5-4.7-23.8c-3.1-7.3-7.5-13.7-13.3-19.2c-5.7-5.4-12.5-9.7-20.5-12.7c-7.9-3.1-16.6-4.6-26.1-4.6h-45.2V140.1
		L402.8,140.1z M610.3,140.8c4.7-1,9-2.4,12.9-4.3c3.9-1.9,7.6-4.2,11-6.8c3.4-2.6,6.7-5.6,9.8-8.9l-13.7-13.9
		c-5.2,4.9-10.5,8.7-15.8,11.5c-5.3,2.8-11.7,4.2-19.1,4.2c-5.8,0-11.1-1.1-16-3.4c-4.9-2.3-9.2-5.3-12.7-9.3
		c-3.6-3.9-6.4-8.5-8.3-13.8c-2-5.3-2.9-10.8-2.9-16.7v-0.3c0-5.9,1-11.4,2.9-16.6c2-5.2,4.7-9.7,8.3-13.6c3.6-3.9,7.8-6.9,12.7-9.2
		c4.9-2.3,10.3-3.4,16-3.4c6.9,0,13.1,1.4,18.5,4.2c5.4,2.8,10.6,6.4,15.4,10.9l13.7-15.8c-2.9-2.8-6-5.3-9.2-7.6
		c-3.2-2.3-6.8-4.3-10.6-6c-3.8-1.7-8-3-12.6-3.9c-4.6-0.9-9.6-1.4-15.2-1.4c-9.2,0-17.7,1.6-25.3,4.9c-7.6,3.3-14.2,7.8-19.8,13.5
		c-5.6,5.7-9.9,12.4-13,19.9c-3.1,7.6-4.6,15.7-4.6,24.4v0.3c0,8.7,1.6,16.8,4.7,24.4c3.1,7.6,7.5,14.2,13,19.8
		c5.5,5.6,12,10,19.6,13.3c7.5,3.2,15.7,4.9,24.6,4.9C600.5,142.2,605.6,141.7,610.3,140.8L610.3,140.8z"/>
	<path class="st0" d="M297.5,211.8v-8.7h10c2.3,0,3.9,0.4,4.9,1.2c1,0.8,1.5,1.8,1.5,3.1v0.1c0,1.5-0.5,2.6-1.6,3.2
		c-1.1,0.7-2.6,1-4.5,1H297.5L297.5,211.8z M297.5,195.9v-8.4h8.6c1.8,0,3.3,0.3,4.2,1c1,0.7,1.5,1.7,1.5,3v0.1
		c0,1.5-0.6,2.5-1.7,3.2c-1.1,0.7-2.7,1-4.6,1H297.5L297.5,195.9z M289,219.4h18.8c2.2,0,4.2-0.2,6.1-0.7c1.8-0.5,3.4-1.1,4.7-2
		c1.3-0.9,2.3-2,3-3.4c0.7-1.4,1-2.9,1-4.7v-0.1c0-2.6-0.7-4.7-2-6.2c-1.3-1.5-3.1-2.7-5.4-3.5c0.7-0.4,1.4-0.8,2-1.4
		c0.6-0.5,1.2-1.1,1.6-1.8c0.5-0.7,0.8-1.5,1.1-2.3c0.3-0.9,0.4-1.9,0.4-3v-0.1c0-2.7-0.9-4.9-2.7-6.7c-2.3-2.3-5.8-3.5-10.3-3.5
		H289V219.4L289,219.4z M336.7,213.1c-0.9-0.6-1.3-1.5-1.3-2.7v-0.1c0-1.4,0.5-2.4,1.6-3.1c1.1-0.7,2.5-1.1,4.3-1.1
		c1.1,0,2,0.1,3,0.3c0.9,0.2,1.8,0.5,2.5,0.8v1.5c0,1.6-0.6,2.9-1.8,3.8c-1.2,1-2.9,1.5-4.9,1.5
		C338.7,214.1,337.5,213.8,336.7,213.1L336.7,213.1z M342.8,219c1.5-0.7,2.7-1.6,3.8-2.8v3.3h8.3v-17.6c0-2-0.3-3.9-0.8-5.5
		c-0.5-1.6-1.4-3-2.5-4.1c-1.1-1.1-2.5-1.9-4.1-2.5c-1.7-0.6-3.7-0.9-6.1-0.9c-2.6,0-4.7,0.2-6.5,0.7c-1.8,0.5-3.5,1-5.2,1.8
		l2.1,6.5c1.4-0.5,2.7-0.9,4-1.2c1.3-0.3,2.7-0.4,4.4-0.4c2.1,0,3.8,0.5,4.9,1.4c1.1,0.9,1.6,2.3,1.6,4.1v0.5
		c-1.1-0.4-2.2-0.7-3.4-0.9c-1.1-0.2-2.5-0.3-4-0.3c-1.8,0-3.5,0.2-4.9,0.6s-2.8,1-3.8,1.8c-1.1,0.8-1.9,1.8-2.5,3
		c-0.6,1.2-0.9,2.6-0.9,4.3v0.1c0,1.5,0.3,2.8,0.8,4c0.5,1.1,1.3,2.1,2.2,2.9c0.9,0.8,2,1.4,3.3,1.8c1.3,0.4,2.6,0.6,4,0.6
		C339.6,220,341.4,219.6,342.8,219L342.8,219z M383.9,218.6c1.9-1,3.6-2.4,5-4l-5-5.1c-1.1,1-2.1,1.8-3.2,2.3
		c-1.1,0.6-2.3,0.9-3.8,0.9c-1.2,0-2.2-0.2-3.2-0.6c-0.9-0.4-1.7-1-2.4-1.8c-0.7-0.8-1.2-1.6-1.6-2.7c-0.4-1-0.5-2.1-0.5-3.3v-0.1
		c0-1.1,0.2-2.2,0.5-3.2c0.4-1,0.9-1.9,1.5-2.6c0.7-0.8,1.4-1.3,2.3-1.8c0.9-0.4,1.9-0.6,3-0.6c1.5,0,2.8,0.3,3.9,0.9
		c1,0.6,2,1.4,3,2.4l5.2-5.6c-1.4-1.6-3.1-2.8-5-3.7c-1.9-0.9-4.3-1.4-7.1-1.4c-2.3,0-4.5,0.4-6.4,1.2c-1.9,0.8-3.6,2-5,3.4
		c-1.4,1.4-2.5,3.1-3.3,5c-0.8,1.9-1.2,4-1.2,6.1v0.1c0,2.1,0.4,4.2,1.2,6.1c0.8,1.9,1.9,3.6,3.3,5c1.4,1.4,3.1,2.5,5,3.4
		s4,1.2,6.3,1.2C379.6,220.1,382,219.6,383.9,218.6L383.9,218.6z M394.5,219.4h8.6v-9.2l3-3.2l7.9,12.4h9.8l-11.9-18.3l11.5-11.9
		h-10.3l-10,11v-22h-8.6V219.4L394.5,219.4z M440.9,212.1c-0.9-0.4-1.7-1-2.3-1.7c-0.7-0.7-1.2-1.6-1.6-2.7c-0.4-1-0.6-2.2-0.6-3.4
		v-0.1c0-1.2,0.2-2.4,0.6-3.4c0.4-1,0.9-1.9,1.6-2.7c0.7-0.7,1.4-1.3,2.3-1.7c0.9-0.4,1.8-0.6,2.8-0.6c1,0,2,0.2,2.9,0.6
		c0.9,0.4,1.7,1,2.3,1.7c0.7,0.7,1.2,1.6,1.6,2.7c0.4,1,0.6,2.2,0.6,3.4v0.1c0,1.3-0.2,2.4-0.6,3.4c-0.4,1-0.9,1.9-1.6,2.6
		c-0.7,0.7-1.5,1.3-2.3,1.7c-0.9,0.4-1.8,0.6-2.9,0.6C442.7,212.7,441.8,212.5,440.9,212.1L440.9,212.1z M427.9,228.5h8.6v-13
		c1,1.2,2.3,2.3,3.8,3.2c1.5,0.9,3.4,1.4,5.7,1.4c1.8,0,3.5-0.3,5.2-1c1.7-0.7,3.1-1.7,4.4-3c1.3-1.3,2.3-3,3-4.9
		c0.8-1.9,1.2-4.2,1.2-6.7v-0.1c0-2.5-0.4-4.7-1.2-6.7c-0.8-1.9-1.8-3.6-3.1-4.9c-1.3-1.3-2.7-2.3-4.4-3c-1.7-0.7-3.4-1-5.1-1
		c-2.3,0-4.1,0.5-5.6,1.4c-1.5,0.9-2.8,2.1-3.8,3.5v-4.3h-8.6V228.5L427.9,228.5z M466.4,219.4h8.6v-41.2h-8.6V219.4L466.4,219.4z
		 M490.9,213.1c-0.9-0.6-1.3-1.5-1.3-2.7v-0.1c0-1.4,0.5-2.4,1.6-3.1c1.1-0.7,2.5-1.1,4.3-1.1c1.1,0,2,0.1,3,0.3
		c0.9,0.2,1.8,0.5,2.5,0.8v1.5c0,1.6-0.6,2.9-1.8,3.8c-1.2,1-2.8,1.5-4.9,1.5C492.8,214.1,491.7,213.8,490.9,213.1L490.9,213.1z
		 M497,219c1.5-0.7,2.7-1.6,3.8-2.8v3.3h8.3v-17.6c0-2-0.3-3.9-0.8-5.5c-0.5-1.6-1.4-3-2.5-4.1c-1.1-1.1-2.5-1.9-4.1-2.5
		c-1.7-0.6-3.7-0.9-6.1-0.9c-2.6,0-4.7,0.2-6.5,0.7c-1.8,0.5-3.5,1-5.2,1.8l2.1,6.5c1.4-0.5,2.7-0.9,4-1.2c1.3-0.3,2.7-0.4,4.4-0.4
		c2.1,0,3.8,0.5,4.9,1.4c1.1,0.9,1.6,2.3,1.6,4.1v0.5c-1.1-0.4-2.2-0.7-3.4-0.9c-1.1-0.2-2.5-0.3-4-0.3c-1.8,0-3.5,0.2-4.9,0.6
		c-1.5,0.4-2.8,1-3.8,1.8c-1.1,0.8-1.9,1.8-2.5,3c-0.6,1.2-0.9,2.6-0.9,4.3v0.1c0,1.5,0.3,2.8,0.8,4c0.5,1.1,1.3,2.1,2.2,2.9
		c0.9,0.8,2,1.4,3.3,1.8c1.3,0.4,2.6,0.6,4,0.6C493.7,220,495.5,219.6,497,219L497,219z M516.5,219.4h8.6v-16.8c0-2,0.5-3.6,1.4-4.6
		c1-1,2.3-1.5,3.9-1.5c1.7,0,2.9,0.5,3.8,1.5c0.9,1,1.4,2.6,1.4,4.6v16.8h8.6v-19.6c0-3.5-0.9-6.2-2.7-8.2c-1.8-2-4.3-3-7.6-3
		c-1.1,0-2.1,0.1-2.9,0.4c-0.9,0.3-1.7,0.6-2.4,1.1c-0.7,0.5-1.4,1-1.9,1.6c-0.6,0.6-1.1,1.2-1.6,1.8v-4.3h-8.6V219.4L516.5,219.4z
		 M558.6,201.9c0.3-2,1.1-3.5,2.2-4.7c1.1-1.2,2.6-1.8,4.4-1.8c1.8,0,3.3,0.6,4.3,1.8c1.1,1.2,1.8,2.7,2,4.7H558.6L558.6,201.9z
		 M573.1,218.6c2-1,3.8-2.4,5.2-4.1l-4.9-4.3c-1.2,1.1-2.4,1.9-3.5,2.4c-1.1,0.5-2.4,0.7-3.8,0.7c-1.9,0-3.5-0.5-4.8-1.5
		c-1.3-1-2.2-2.5-2.6-4.4h21c0-0.4,0.1-0.8,0.1-1.2c0-0.4,0-0.7,0-1.1c0-2.1-0.3-4.2-0.9-6.2c-0.6-2-1.5-3.7-2.7-5.2
		c-1.2-1.5-2.8-2.7-4.6-3.6c-1.8-0.9-4-1.4-6.5-1.4c-2.2,0-4.2,0.4-6.1,1.2c-1.8,0.8-3.4,2-4.7,3.4c-1.3,1.4-2.3,3.1-3.1,5
		c-0.7,1.9-1.1,4-1.1,6.1v0.1c0,2.3,0.4,4.4,1.2,6.3c0.8,1.9,1.9,3.5,3.3,4.9c1.4,1.4,3.1,2.5,5,3.2c1.9,0.8,4,1.1,6.3,1.1
		C568.7,220.1,571.1,219.6,573.1,218.6L573.1,218.6z"/>
	<path class="st0" d="M217.7,184.9V65.9l-95.9,55.4c0.1,0.5,0.3,0.9,0.3,1.5c0,6-4,10.8-9.4,12.5v110.3L217.7,184.9L217.7,184.9z"/>
	<path class="st0" d="M119.1,114.8l94.6-54.6v-0.3L108.8,0L4,59.9v0.3l94.6,54.6c2.4-3.1,6-5.3,10.3-5.3
		C113.1,109.5,116.7,111.7,119.1,114.8L119.1,114.8z"/>
	<path class="st0" d="M95.9,121.3L0,65.9v118.9l105.1,60.7V135.2c-5.4-1.6-9.4-6.5-9.4-12.5C95.6,122.2,95.9,121.8,95.9,121.3
		L95.9,121.3z"/>
</g>
</svg>
