<?xml version="1.0" encoding="utf-8"?>
<!-- Generator: Adobe Illustrator 24.1.0, SVG Export Plug-In . SVG Version: 6.00 Build 0)  -->
<svg version="1.1" id="Layer_1" xmlns="http://www.w3.org/2000/svg" xmlns:xlink="http://www.w3.org/1999/xlink" x="0px" y="0px"
	 viewBox="0 0 730.17 398.1" style="enable-background:new 0 0 730.17 398.1;" xml:space="preserve">
<style type="text/css">
	.st0{fill:#00000A;}
</style>
<g>
	<path class="st0" d="M34.75,0C15.56,0,0,15.56,0,34.75v127.04c0,19.19,15.56,34.75,34.75,34.75l0,0
		c19.19,0,34.75-15.56,34.75-34.75V34.75C69.5,15.56,53.94,0,34.75,0L34.75,0L34.75,0z"/>
	<path class="st0" d="M695.42,398.1c19.19,0,34.75-15.56,34.75-34.75V236.31c0-19.19-15.56-34.75-34.75-34.75l0,0
		c-19.19,0-34.75,15.56-34.75,34.75v127.04C660.67,382.54,676.23,398.1,695.42,398.1L695.42,398.1L695.42,398.1z"/>
	<path class="st0" d="M166.88,11.84c-19.19,0-34.75,15.56-34.75,34.75v60.62c0,19.19,15.56,34.75,34.75,34.75l0,0
		c19.19,0,34.75-15.56,34.75-34.75V46.59C201.64,27.4,186.08,11.84,166.88,11.84L166.88,11.84L166.88,11.84z"/>
	<path class="st0" d="M563.29,386.26c19.19,0,34.75-15.56,34.75-34.75v-60.62c0-19.19-15.56-34.75-34.75-34.75l0,0
		c-19.19,0-34.75,15.56-34.75,34.75v60.62C528.54,370.7,544.1,386.26,563.29,386.26L563.29,386.26L563.29,386.26z"/>
	<path class="st0" d="M299.02,70.21c-19.19,0-34.75,15.56-34.75,34.75v36.35c0,19.19,15.56,34.75,34.75,34.75l0,0
		c19.19,0,34.75-15.56,34.75-34.75v-36.35C333.77,85.77,318.21,70.21,299.02,70.21L299.02,70.21L299.02,70.21z"/>
	<path class="st0" d="M431.15,327.89c19.19,0,34.75-15.56,34.75-34.75v-36.35c0-19.19-15.56-34.75-34.75-34.75l0,0
		c-19.19,0-34.75,15.56-34.75,34.75v36.35C396.4,312.33,411.96,327.89,431.15,327.89L431.15,327.89L431.15,327.89z"/>
	<path class="st0" d="M34.75,363.35c19.19,0,34.75-15.56,34.75-34.75c0-19.19-15.56-34.75-34.75-34.75
		C15.56,293.85,0,309.41,0,328.6C0,347.79,15.56,363.35,34.75,363.35L34.75,363.35z"/>
	<path class="st0" d="M695.42,34.75c-19.19,0-34.75,15.56-34.75,34.75c0,19.19,15.56,34.75,34.75,34.75
		c19.19,0,34.75-15.56,34.75-34.75C730.17,50.31,714.61,34.75,695.42,34.75L695.42,34.75z"/>
	<path class="st0" d="M166.88,398.1c19.19,0,34.75-15.56,34.75-34.75c0-19.19-15.56-34.75-34.75-34.75
		c-19.19,0-34.75,15.56-34.75,34.75C132.13,382.54,147.69,398.1,166.88,398.1L166.88,398.1z"/>
	<path class="st0" d="M563.29,0c-19.19,0-34.75,15.56-34.75,34.75c0,19.19,15.56,34.75,34.75,34.75c19.19,0,34.75-15.56,34.75-34.75
		C598.04,15.56,582.48,0,563.29,0L563.29,0z"/>
	<path class="st0" d="M299.02,340.03c19.19,0,34.75-15.56,34.75-34.75c0-19.19-15.56-34.75-34.75-34.75
		c-19.19,0-34.75,15.56-34.75,34.75C264.27,324.47,279.83,340.03,299.02,340.03L299.02,340.03z"/>
	<path class="st0" d="M431.15,58.07c-19.19,0-34.75,15.56-34.75,34.75c0,19.19,15.56,34.75,34.75,34.75
		c19.19,0,34.75-15.56,34.75-34.75C465.9,73.63,450.35,58.07,431.15,58.07L431.15,58.07z"/>
</g>
</svg>
