<?xml version="1.0" encoding="utf-8"?>
<!-- Generator: Adobe Illustrator 24.1.0, SVG Export Plug-In . SVG Version: 6.00 Build 0)  -->
<svg version="1.1" id="Layer_1" xmlns="http://www.w3.org/2000/svg" xmlns:xlink="http://www.w3.org/1999/xlink" x="0px" y="0px"
	 viewBox="0 0 746.91 529.54" style="enable-background:new 0 0 746.91 529.54;" xml:space="preserve">
<style type="text/css">
	.st0{opacity:0.4;fill:#FFFFFF;}
	.st1{fill:#FFFFFF;}
</style>
<g>
	<path class="st0" d="M536.43,327.14H419.82c64.22-0.01,101.14-44.65,101.14-101.71c0-103.45-123.27-84.51-127.19-131.45h-0.1
		c0,0-0.75-4.12-7.11-10.11c-6.37-5.99-11.98-9.36-28.08-10.48c-5.38-0.38-12.66-0.5-19.98-0.5c-10.99,0-22.07,0.28-26.89,0.42
		c-0.91,5.91-1.41,12.11-1.41,18.65c-1.15,112.76,130.38,88.37,130.77,140.37c0,15.19-10.39,23.47-23.85,23.47
		c-13.11,0-32.43-19.54-28.22-47.82c-13.48,4.26-28.67,6.83-46.04,6.83H309.7c2.88,75.65,51.53,112.33,110.09,112.33h-210.5V0
		h164.77c-29.52,9.37-51.75,30.49-60.16,62.34c7.07-0.72,20.9-1.85,34.48-1.85c13.22,0,26.21,1.07,32.54,4.65
		c7.4,4.18,11.44,11.01,13.48,16.98c2-9.72,7.56-16.42,15.56-16.42c0.2,0,0.4,0,0.6,0.01c13.85,0,24.23,9.2,25,29.46h81.92
		C515.41,45.37,490.51,12.43,450.56,0h85.87V327.14"/>
	<path class="st1" d="M463.2,105.3c0-3.43-0.14-6.8-0.37-10.12c-0.55-7.84-1.79-15.35-3.63-22.52c-0.22-0.85-0.4-1.73-0.64-2.57
		c-0.46-1.65-1.01-3.25-1.54-4.86c-0.34-1.04-0.66-2.09-1.03-3.11c-0.54-1.49-1.15-2.92-1.75-4.37c-0.45-1.09-0.9-2.2-1.39-3.27
		c-0.62-1.36-1.3-2.68-1.98-4c-0.56-1.1-1.12-2.2-1.72-3.27c-0.7-1.25-1.45-2.47-2.21-3.69c-0.67-1.08-1.35-2.16-2.06-3.21
		c-0.78-1.16-1.6-2.28-2.43-3.4c-0.78-1.05-1.58-2.08-2.4-3.1c-0.86-1.05-1.74-2.09-2.64-3.11c-0.9-1.01-1.83-2.01-2.77-2.98
		c-0.93-0.96-1.87-1.9-2.84-2.82c-1.02-0.97-2.08-1.9-3.15-2.83c-0.99-0.86-1.98-1.71-3.01-2.53c-1.15-0.92-2.36-1.8-3.56-2.67
		c-1.04-0.76-2.08-1.52-3.16-2.24c-1.3-0.87-2.67-1.68-4.03-2.5c-1.08-0.65-2.14-1.31-3.25-1.93c-1.49-0.82-3.05-1.58-4.6-2.34
		c-1.08-0.53-2.12-1.09-3.23-1.59c-1.79-0.81-3.66-1.53-5.53-2.26c-0.96-0.37-1.88-0.79-2.86-1.14c-2.89-1.04-5.87-2-8.94-2.86
		H209.29v327.14h89.35V214.8h11.06h33.16c4.53,0,8.88-0.22,13.14-0.53c12.02-0.94,22.93-3.15,32.9-6.3l-0.02,0.21
		c4.9-1.52,9.47-3.37,13.88-5.37c-78.86-26.67-82.48-51.19-88.74-62.42h-15.38V65.52h14.44h32.05c27.57,0,43.51,5.86,48.54,26.3
		c0.01,0.47-0.03,0.92,0,1.4c0.03,0.59,0.17,1.12,0.23,1.69l0.03,0.24c2.92,22.47,33.97,29.53,64.69,43.29
		C461.65,127.87,463.2,116.73,463.2,105.3L463.2,105.3z"/>
	<path class="st0" d="M220.87,528.12h-33.24l-21.25-39.47h-3.19v39.47h-29.75l0,0H71.45v-43.99c-6.5,4.86-15.43,7.87-26.97,7.87
		H29.75v36.13H0V421.11h1.58l0,0h69.87h68.46h3.51l0,0h36.92c26.56,0,39.92,15.18,39.92,34.3c0,13.96-7.59,26.11-23.53,30.97
		L220.87,528.12 M101.2,485.01v19.28h32.24v-19.28H101.2 M163.19,446v22.31h14.72c8.04,0,12.14-3.95,12.14-11.23
		c0-6.68-4.1-11.08-12.14-11.08H163.19 M29.75,445.09v23.22h11.84c8.96,0,12.6-4.55,12.6-11.54c0-7.13-3.64-11.69-12.6-11.69H29.75
		 M101.2,444.94v17.46h32.24v-17.46H101.2"/>
	<path class="st1" d="M708.2,504.65v-17.77h31.38c-0.72-3.82-1.14-7.8-1.14-11.98c0-4.12,0.41-8.06,1.12-11.83H708.2v-0.32V445.3
		h38.71v-23.83h-51.22h-17.23h-14.49l-24.14,77.26l-24.29-77.26h-9.98h-21.9h-6.33h-27.98h-1.77h-28.54H431.3h-1.05H256.64
		c-4.44-1.08-9.3-1.67-14.59-1.67c-22.62,0-40.07,11.23-40.07,32.18c-0.46,37.19,51.46,29.15,51.61,46.3c0,5.01-4.1,7.74-9.41,7.74
		c-5.46,0-10.17-2.73-10.78-10.78h-31.54l15.81,27.34c7.46,4.56,16.92,6.96,27.57,6.96c3.93,0,7.58-0.39,10.98-1.06h37.26v-36.13
		h14.73c4.34,0,8.28-0.46,11.89-1.25v13.57v23.81h23.81h80.78v-0.3c2.06,0.19,4.16,0.3,6.32,0.3c26.87,0,45.99-15.22,51.31-39.1
		h-32.03c-3.79,7.91-10.93,12.24-19.73,12.24c-13.66,0-22.62-10.45-22.62-26.72c0-16.12,8.96-26.57,22.62-26.57
		c8.8,0,15.94,4.33,19.73,12.24h32.03c-1.26-5.66-3.32-10.82-6.05-15.43h14.81v83.33h29.75v-83.33h26.46v59.65h-13.64v23.68h13.64
		h29.75h13.95V504.8h-13.64v-59.65h14.53l28.84,83.33h38.1l19.65-57.02v57.02h68.46v-23.83H708.2L708.2,504.65z M293.47,445.45
		h11.84c8.96,0,12.6,4.55,12.6,11.69c0,6.98-3.64,11.54-12.6,11.54h-11.84V445.45L293.47,445.45z M263.72,453.04v15.3
		c-14.12-6.22-30.02-8.57-30.02-17.43c0-5.16,3.49-7.74,7.89-7.59c5.46,0,9.56,3.04,9.87,9.71H263.72L263.72,453.04z M377.72,474.9
		c0,11.35,2.75,21.46,7.76,29.77H343.9v-17.8h31.29c-0.72-3.82-1.14-7.8-1.14-11.98c0-4.12,0.41-8.06,1.12-11.83h-27.37
		c0.3-1.94,0.48-3.92,0.48-5.93c0-4.22-0.6-8.19-1.72-11.86h38.91C380.46,453.56,377.72,463.62,377.72,474.9L377.72,474.9z"/>
</g>
</svg>
