<?xml version="1.0" encoding="utf-8"?>
<!-- Generator: Adobe Illustrator 24.1.0, SVG Export Plug-In . SVG Version: 6.00 Build 0)  -->
<svg version="1.1" id="Layer_1" xmlns="http://www.w3.org/2000/svg" xmlns:xlink="http://www.w3.org/1999/xlink" x="0px" y="0px"
	 viewBox="0 0 504 181.65" style="enable-background:new 0 0 504 181.65;" xml:space="preserve">
<style type="text/css">
	.st0{fill:#6D7181;}
	.st1{fill:#4A5161;}
	.st2{fill:#232D3F;}
	.st3{fill:#293244;}
	.st4{fill:#0C1B2F;}
	.st5{fill:#001227;}
	.st6{fill:#00021C;}
	.st7{fill:#00000A;}
</style>
<g>
	<path class="st0" d="M92.28,181.64c0.01,0,0.02,0,0.03,0C92.3,181.64,92.29,181.64,92.28,181.64 M92.32,181.64c0.03,0,0.06,0,0.1,0
		c23.46-0.4,44.74-9.72,60.64-24.69c-9.14-38.62-33.31-56.43-52.15-61.16c0.01-0.19,0.01-0.38,0.01-0.56
		c0-5.6-2.35-10.42-5.74-12.68c-1.65,3.23-4.35,10.91-4.35,14.14c0-3.29-2.58-11.12-4.09-14.31c-3.53,2.19-6,7.12-6,12.86
		c0,2.99,1.21,7.09,2.81,11c-6.26,5.15-15.76,7.23-27.08,7.23c-16.16,0-36.04-4.23-55.56-9.81c3.05,21.55,13.64,40.66,29.04,54.57
		C11.58,141.59,0,117.57,0,90.82C0,40.66,40.66,0,90.82,0c50.16,0,90.83,40.66,90.83,90.82
		C181.65,140.49,141.79,180.84,92.32,181.64 M68.81,178.95L68.81,178.95c29.45-24.42,30.16-51.36,26.9-67.52l0,0
		c0.38,1.88,0.71,3.91,0.94,6.06C98.42,133.83,94.83,157.37,68.81,178.95L68.81,178.95L68.81,178.95 M86.98,113.29L86.98,113.29
		c-0.01-0.01-0.01-0.02-0.01-0.03C86.97,113.27,86.97,113.28,86.98,113.29L86.98,113.29 M86.96,113.25c0-0.01-0.01-0.01-0.01-0.02
		C86.95,113.24,86.95,113.25,86.96,113.25 M86.94,113.23c-0.02-0.03-0.03-0.06-0.05-0.09C86.91,113.17,86.93,113.2,86.94,113.23
		 M86.89,113.14c0-0.01-0.01-0.02-0.01-0.03C86.88,113.12,86.89,113.13,86.89,113.14 M86.88,113.11c-0.02-0.04-0.05-0.08-0.07-0.12
		C86.83,113.03,86.85,113.07,86.88,113.11 M86.81,112.99c-0.01-0.02-0.02-0.04-0.03-0.06C86.78,112.94,86.8,112.96,86.81,112.99
		 M86.77,112.92c0-0.01-0.01-0.02-0.01-0.02C86.76,112.9,86.77,112.91,86.77,112.92 M86.75,112.89c0-0.01-0.01-0.01-0.01-0.02
		C86.75,112.87,86.75,112.88,86.75,112.89 M86.74,112.86c0-0.01-0.01-0.01-0.01-0.02C86.73,112.85,86.73,112.85,86.74,112.86
		 M86.71,112.81C86.71,112.81,86.71,112.81,86.71,112.81C86.71,112.81,86.71,112.81,86.71,112.81 M86.7,112.79
		C86.7,112.78,86.69,112.78,86.7,112.79C86.69,112.78,86.7,112.78,86.7,112.79"/>
	<path class="st1" d="M31.41,159.48c-0.48-0.42-0.96-0.84-1.44-1.27c0.39,0.35,0.77,0.69,1.17,1.04c0.01,0.01,0.01,0.01,0.02,0.02
		c0.01,0.01,0.02,0.02,0.03,0.03c0.01,0.01,0.03,0.02,0.04,0.04c0,0,0.01,0.01,0.01,0.01C31.3,159.39,31.35,159.44,31.41,159.48
		C31.41,159.48,31.41,159.48,31.41,159.48 M95.72,111.4C95.73,111.4,95.73,111.39,95.72,111.4C95.73,111.39,95.73,111.4,95.72,111.4
		 M95.74,111.36C95.74,111.36,95.75,111.36,95.74,111.36C95.75,111.36,95.74,111.36,95.74,111.36 M85.24,109.96
		c-0.58-1.2-1.15-2.46-1.67-3.74c0,0,0,0,0,0C84.09,107.5,84.66,108.76,85.24,109.96L85.24,109.96 M99.98,100.91
		C99.97,100.9,99.97,100.9,99.98,100.91c0.52-1.85,0.86-3.61,0.93-5.13c0,0,0,0,0,0C100.84,97.29,100.5,99.05,99.98,100.91"/>
	<path class="st2" d="M92.42,181.64c9.23-0.16,18.12-1.71,26.48-4.43c17.95-35.48-4.98-64.05-18.93-76.3
		c0.52-1.85,0.87-3.61,0.94-5.13c18.83,4.73,43.01,22.54,52.15,61.16C137.16,171.91,115.88,181.23,92.42,181.64 M68.81,178.95
		L68.81,178.95c26.02-21.58,29.61-45.12,27.84-61.45C98.42,133.83,94.83,157.37,68.81,178.95 M31.24,159.34
		C31.24,159.34,31.24,159.34,31.24,159.34C31.24,159.34,31.24,159.34,31.24,159.34 M31.19,159.3c-0.01-0.01-0.02-0.02-0.03-0.03
		C31.17,159.28,31.18,159.29,31.19,159.3 M31.14,159.25c-0.39-0.34-0.78-0.69-1.17-1.04c-15.4-13.91-25.99-33.03-29.04-54.57
		c19.52,5.57,39.4,9.81,55.56,9.81c11.32,0,20.81-2.08,27.08-7.23c0.52,1.28,1.09,2.55,1.67,3.74
		c-14.3,24.28-49.13,28.87-68.72,33.02C20.73,148.97,25.63,154.44,31.14,159.25"/>
	<path class="st3" d="M90.82,181.65c-7.59,0-14.96-0.95-22.01-2.7l0,0C75.86,180.7,83.23,181.65,90.82,181.65L90.82,181.65
		C90.82,181.65,90.82,181.65,90.82,181.65c0.02,0,0.05,0,0.07,0c0,0,0.01,0,0.01,0c0.02,0,0.04,0,0.06,0c0.01,0,0.02,0,0.02,0
		c0.02,0,0.03,0,0.05,0c0.01,0,0.02,0,0.03,0c0.01,0,0.03,0,0.05,0c0.01,0,0.02,0,0.03,0c0.01,0,0.03,0,0.04,0c0.01,0,0.02,0,0.03,0
		c0.01,0,0.03,0,0.04,0c0.01,0,0.02,0,0.03,0c0.01,0,0.03,0,0.04,0c0.01,0,0.02,0,0.04,0c0.01,0,0.02,0,0.03,0c0.01,0,0.03,0,0.04,0
		c0.01,0,0.02,0,0.03,0c0.01,0,0.03,0,0.05,0c0.01,0,0.02,0,0.02,0c0.02,0,0.04,0,0.05,0c0.01,0,0.01,0,0.02,0c0.02,0,0.04,0,0.05,0
		c0.01,0,0.01,0,0.01,0c0.02,0,0.04,0,0.06,0c0,0,0,0,0.01,0c0.02,0,0.04,0,0.07,0h0c0.16,0,0.31,0,0.47-0.01
		C91.8,181.65,91.31,181.65,90.82,181.65 M92.31,181.64c0,0,0.01,0,0.01,0C92.32,181.64,92.31,181.64,92.31,181.64 M31.41,159.48
		L31.41,159.48c25.4-8.6,46.48-20.18,55.57-46.19l0,0C77.88,139.3,56.8,150.89,31.41,159.48 M86.96,113.26
		C86.96,113.26,86.96,113.26,86.96,113.26C86.96,113.26,86.96,113.26,86.96,113.26C86.96,113.26,86.96,113.25,86.96,113.26
		C86.96,113.26,86.96,113.26,86.96,113.26 M86.95,113.23C86.95,113.23,86.94,113.23,86.95,113.23
		C86.94,113.23,86.94,113.23,86.95,113.23C86.94,113.23,86.94,113.23,86.95,113.23C86.94,113.23,86.94,113.23,86.95,113.23
		 M86.89,113.14C86.89,113.14,86.89,113.14,86.89,113.14C86.89,113.14,86.89,113.14,86.89,113.14 M86.88,113.11
		C86.88,113.11,86.88,113.11,86.88,113.11C86.88,113.11,86.88,113.11,86.88,113.11 M86.81,112.99L86.81,112.99L86.81,112.99
		 M86.77,112.92C86.77,112.92,86.77,112.92,86.77,112.92C86.77,112.92,86.77,112.92,86.77,112.92 M86.76,112.9c0,0,0-0.01-0.01-0.01
		C86.75,112.89,86.76,112.89,86.76,112.9 M86.74,112.87C86.74,112.86,86.74,112.86,86.74,112.87
		C86.74,112.86,86.74,112.86,86.74,112.87 M86.73,112.84c-0.01-0.01-0.01-0.02-0.02-0.03C86.72,112.82,86.72,112.83,86.73,112.84
		 M86.71,112.8c0-0.01-0.01-0.01-0.01-0.02C86.7,112.79,86.7,112.8,86.71,112.8 M86.69,112.78c0,0,0-0.01-0.01-0.01c0,0,0,0,0,0
		c0-0.01-0.01-0.02-0.01-0.03c0,0,0,0,0-0.01c0-0.01-0.01-0.01-0.01-0.02c0-0.01-0.01-0.01-0.01-0.02c0-0.01-0.01-0.01-0.01-0.02
		c0-0.01-0.01-0.01-0.01-0.02c0,0,0-0.01,0-0.01c0-0.01-0.01-0.01-0.01-0.02c0,0,0,0,0-0.01c-0.46-0.83-0.92-1.73-1.37-2.67l0,0
		C85.72,110.96,86.21,111.9,86.69,112.78 M95.71,111.43c0.01-0.01,0.01-0.02,0.02-0.04C95.72,111.41,95.71,111.42,95.71,111.43
		 M95.73,111.39c0.01-0.01,0.01-0.02,0.01-0.03C95.74,111.37,95.73,111.38,95.73,111.39 M95.75,111.35
		c1.63-3.16,3.24-6.97,4.23-10.45l0,0C98.99,104.38,97.37,108.19,95.75,111.35"/>
	<path class="st4" d="M90.82,181.65c-7.59,0-14.96-0.95-22.01-2.7l0,0C75.86,180.7,83.23,181.65,90.82,181.65
		C90.82,181.65,90.82,181.65,90.82,181.65 M90.9,181.65C90.9,181.65,90.9,181.65,90.9,181.65C90.9,181.65,90.9,181.65,90.9,181.65
		 M90.97,181.65c0.01,0,0.01,0,0.02,0C90.99,181.65,90.97,181.65,90.97,181.65 M91.04,181.65c0.01,0,0.02,0,0.03,0
		C91.06,181.65,91.05,181.65,91.04,181.65 M91.11,181.65c0.01,0,0.02,0,0.03,0C91.13,181.65,91.12,181.65,91.11,181.65
		 M91.18,181.65c0.01,0,0.02,0,0.03,0C91.2,181.65,91.2,181.65,91.18,181.65 M91.26,181.65c0.01,0,0.02,0,0.03,0
		C91.28,181.65,91.27,181.65,91.26,181.65 M91.33,181.65c0.01,0,0.02,0,0.04,0C91.35,181.65,91.34,181.65,91.33,181.65 M91.4,181.65
		c0.01,0,0.03,0,0.04,0C91.43,181.65,91.41,181.65,91.4,181.65 M91.47,181.65c0.02,0,0.03,0,0.05,0
		C91.5,181.65,91.48,181.65,91.47,181.65 M91.54,181.65c0.02,0,0.03,0,0.05,0C91.57,181.65,91.55,181.65,91.54,181.65 M91.61,181.65
		c0.02,0,0.04,0,0.05,0C91.64,181.65,91.63,181.65,91.61,181.65 M91.68,181.65c0.02,0,0.04,0,0.06,0
		C91.72,181.65,91.7,181.65,91.68,181.65 M91.74,181.64c0.02,0,0.04,0,0.07,0C91.79,181.64,91.77,181.64,91.74,181.64 M91.81,181.64
		c0.2,0,0.4-0.01,0.6-0.01c-0.03,0-0.07,0-0.1,0c0,0-0.01,0-0.01,0c-0.01,0-0.02,0-0.03,0C92.13,181.64,91.97,181.64,91.81,181.64
		 M96.65,117.5c-0.23-2.15-0.56-4.18-0.94-6.06l0,0C96.09,113.31,96.41,115.34,96.65,117.5 M86.98,113.29
		c-0.01-0.01-0.01-0.02-0.02-0.03c0,0,0,0,0,0C86.97,113.27,86.97,113.28,86.98,113.29 M86.96,113.26c0-0.01-0.01-0.02-0.01-0.03
		c0,0,0,0,0,0C86.95,113.24,86.95,113.25,86.96,113.26C86.96,113.25,86.96,113.26,86.96,113.26 M86.94,113.23
		c-0.08-0.15-0.17-0.3-0.26-0.46c0,0,0,0.01,0.01,0.01c0,0,0,0,0,0.01c0,0.01,0.01,0.01,0.01,0.02c0,0,0,0,0,0.01
		c0.01,0.01,0.01,0.02,0.02,0.03c0,0.01,0.01,0.01,0.01,0.02c0,0,0,0.01,0.01,0.01c0,0.01,0.01,0.01,0.01,0.02c0,0,0,0.01,0.01,0.01
		c0,0.01,0.01,0.01,0.01,0.02c0,0,0,0,0,0c0.01,0.02,0.02,0.04,0.03,0.06l0,0c0.02,0.04,0.04,0.08,0.07,0.12c0,0,0,0,0,0
		c0.01,0.01,0.01,0.02,0.01,0.03c0,0,0,0,0,0C86.91,113.17,86.93,113.2,86.94,113.23C86.94,113.23,86.94,113.23,86.94,113.23
		 M86.69,112.77c0-0.01-0.01-0.02-0.01-0.03C86.68,112.75,86.68,112.76,86.69,112.77 M86.67,112.73c0-0.01-0.01-0.01-0.01-0.02
		C86.66,112.72,86.66,112.73,86.67,112.73 M86.65,112.69c0-0.01-0.01-0.01-0.01-0.02C86.64,112.68,86.64,112.69,86.65,112.69
		 M86.63,112.66C86.63,112.66,86.63,112.66,86.63,112.66C86.63,112.65,86.63,112.66,86.63,112.66 M86.61,112.63
		C86.61,112.63,86.61,112.63,86.61,112.63C86.61,112.63,86.61,112.63,86.61,112.63"/>
	<path class="st5" d="M90.82,181.65L90.82,181.65c0.02,0,0.05,0,0.07,0C90.87,181.65,90.85,181.65,90.82,181.65 M90.91,181.65
		c0.02,0,0.04,0,0.06,0C90.95,181.65,90.93,181.65,90.91,181.65 M90.99,181.65c0.02,0,0.03,0,0.05,0
		C91.02,181.65,91.01,181.65,90.99,181.65 M91.07,181.65c0.02,0,0.03,0,0.05,0C91.1,181.65,91.08,181.65,91.07,181.65 M91.14,181.65
		c0.01,0,0.03,0,0.04,0C91.17,181.65,91.16,181.65,91.14,181.65 M91.21,181.65c0.01,0,0.03,0,0.04,0
		C91.24,181.65,91.23,181.65,91.21,181.65 M91.29,181.65c0.01,0,0.03,0,0.04,0C91.32,181.65,91.3,181.65,91.29,181.65 M91.36,181.65
		c0.01,0,0.02,0,0.03,0C91.39,181.65,91.37,181.65,91.36,181.65 M91.44,181.65c0.01,0,0.02,0,0.03,0
		C91.46,181.65,91.45,181.65,91.44,181.65 M91.51,181.65c0.01,0,0.01,0,0.02,0C91.53,181.65,91.52,181.65,91.51,181.65
		 M91.59,181.65c0.01,0,0.01,0,0.02,0C91.6,181.65,91.6,181.65,91.59,181.65 M91.66,181.65c0.01,0,0.01,0,0.01,0
		C91.67,181.65,91.67,181.65,91.66,181.65 M91.74,181.64L91.74,181.64C91.74,181.64,91.74,181.64,91.74,181.64 M91.81,181.64
		C91.81,181.64,91.81,181.64,91.81,181.64L91.81,181.64 M31.41,159.48c-0.06-0.05-0.11-0.09-0.16-0.14
		C31.3,159.39,31.35,159.44,31.41,159.48c25.4-8.6,46.48-20.18,55.57-46.19l0,0C77.88,139.3,56.8,150.89,31.41,159.48 M31.23,159.33
		c-0.01-0.01-0.03-0.02-0.04-0.04C31.21,159.31,31.22,159.32,31.23,159.33 M31.16,159.27c-0.01-0.01-0.01-0.01-0.02-0.02
		C31.15,159.26,31.15,159.26,31.16,159.27 M86.96,113.26C86.96,113.26,86.96,113.26,86.96,113.26
		C86.96,113.26,86.96,113.26,86.96,113.26 M86.94,113.23C86.94,113.23,86.94,113.23,86.94,113.23
		C86.94,113.23,86.94,113.23,86.94,113.23 M86.69,112.77C86.69,112.77,86.69,112.77,86.69,112.77
		C86.69,112.77,86.69,112.77,86.69,112.77 M86.67,112.74C86.67,112.74,86.67,112.74,86.67,112.74
		C86.67,112.74,86.67,112.74,86.67,112.74 M86.66,112.71c0-0.01-0.01-0.01-0.01-0.02C86.65,112.7,86.65,112.71,86.66,112.71
		 M86.64,112.68c0-0.01-0.01-0.01-0.01-0.02C86.63,112.67,86.64,112.67,86.64,112.68 M86.62,112.65c0-0.01-0.01-0.01-0.01-0.02
		C86.62,112.64,86.62,112.65,86.62,112.65 M86.61,112.63c-0.46-0.83-0.92-1.73-1.37-2.67c0,0,0,0,0,0
		C85.69,110.9,86.15,111.79,86.61,112.63 M95.71,111.43L95.71,111.43L95.71,111.43c0.01-0.01,0.01-0.02,0.02-0.04c0,0,0,0,0-0.01
		c0.01-0.01,0.01-0.02,0.01-0.03c0,0,0-0.01,0-0.01c1.63-3.16,3.24-6.97,4.23-10.45c0,0,0,0,0,0
		C98.98,104.41,97.35,108.26,95.71,111.43"/>
	<path class="st6" d="M90.82,181.65c-7.59,0-14.96-0.95-22.01-2.7c26.02-21.58,29.61-45.12,27.84-61.45
		c-0.23-2.15-0.56-4.18-0.94-6.06c1.64-3.17,3.28-7.02,4.27-10.53c13.94,12.25,36.87,40.82,18.93,76.3
		c-8.36,2.72-17.25,4.27-26.48,4.43c-0.2,0-0.4,0.01-0.6,0.01c0,0,0,0,0,0c-0.02,0-0.04,0-0.07,0h-0.01c-0.02,0-0.04,0-0.06,0
		c-0.01,0-0.01,0-0.01,0c-0.02,0-0.04,0-0.05,0c-0.01,0-0.01,0-0.02,0c-0.02,0-0.03,0-0.05,0c-0.01,0-0.01,0-0.02,0
		c-0.02,0-0.03,0-0.05,0c-0.01,0-0.02,0-0.03,0c-0.01,0-0.03,0-0.04,0c-0.01,0-0.02,0-0.03,0c-0.01,0-0.02,0-0.04,0
		c-0.01,0-0.03,0-0.04,0c-0.01,0-0.02,0-0.03,0s-0.03,0-0.04,0c-0.01,0-0.02,0-0.03,0c-0.01,0-0.03,0-0.04,0c-0.01,0-0.02,0-0.03,0
		c-0.01,0-0.03,0-0.05,0c-0.01,0-0.02,0-0.03,0c-0.02,0-0.03,0-0.05,0c-0.01,0-0.01,0-0.02,0c-0.02,0-0.04,0-0.06,0
		c-0.01,0-0.01,0-0.01,0C90.87,181.65,90.85,181.65,90.82,181.65 M31.41,159.48c-0.06-0.05-0.11-0.09-0.16-0.14
		c0,0-0.01-0.01-0.01-0.01c-0.01-0.01-0.03-0.02-0.04-0.04c-0.01-0.01-0.02-0.02-0.03-0.03c-0.01-0.01-0.02-0.01-0.02-0.02
		c-5.51-4.81-10.41-10.28-14.62-16.27c19.59-4.14,54.43-8.74,68.72-33.02c0.45,0.94,0.92,1.83,1.37,2.67c0,0,0,0,0,0.01
		c0,0.01,0.01,0.01,0.01,0.02c0,0,0,0.01,0,0.01c0,0.01,0.01,0.01,0.01,0.02c0,0.01,0,0.01,0.01,0.02c0,0.01,0.01,0.01,0.01,0.02
		c0,0.01,0.01,0.02,0.01,0.02c0,0,0,0.01,0,0.01c0.01,0.01,0.01,0.02,0.01,0.03c0,0,0,0,0,0c0.09,0.16,0.17,0.31,0.26,0.46
		c0,0,0,0,0,0c0,0.01,0.01,0.02,0.01,0.03c0,0,0,0,0,0.01c0.01,0.01,0.01,0.02,0.02,0.03l0,0C77.88,139.3,56.8,150.89,31.41,159.48"
		/>
	<path class="st7" d="M106.52,44.19c0-12.27-15.68-34.15-15.68-34.15S75.16,31.92,75.16,44.19c0,12.27,15.68,35.1,15.68,45.66
		C90.84,79.29,106.52,56.46,106.52,44.19L106.52,44.19z"/>
	<path class="st7" d="M97.66,76.41c4.64,2.14,11.76,6.55,11.76,13.44c6.6-11.85-1.49-23.69-5.17-28.14
		C102.1,66.65,99.65,71.73,97.66,76.41L97.66,76.41z"/>
	<path class="st7" d="M83.99,76.41c-4.64,2.14-11.76,6.55-11.76,13.44c-6.6-11.85,1.48-23.69,5.17-28.14
		C79.55,66.65,81.99,71.73,83.99,76.41L83.99,76.41z"/>
	<path class="st7" d="M100.93,95.22c0-5.6-2.35-10.42-5.74-12.68c-0.46,0.9-1,2.14-1.53,3.53c2.19,1.47,3.71,4.6,3.71,8.22
		c0,5.04-5.31,14.93-6.55,14.93c-1.24,0-6.54-9.89-6.54-14.93c0-3.72,1.6-6.92,3.89-8.34l0.11,0.25c-0.54-1.53-1.08-2.89-1.53-3.84
		c-3.53,2.19-6,7.12-6,12.86c0,7.77,8.18,23.01,10.09,23.01C92.75,118.22,100.93,102.99,100.93,95.22L100.93,95.22z"/>
	<path class="st7" d="M227.92,117v-15.53h8.81c2.83,0,5.09,0.65,6.77,1.94c1.68,1.3,2.52,3.22,2.52,5.76v0.12
		c0,2.26-0.83,4.11-2.49,5.55c-1.66,1.44-3.93,2.16-6.8,2.16H227.92L227.92,117z M220.43,137.63h7.49v-13.81h8.55
		c2.38,0,4.61-0.32,6.71-0.95c2.09-0.63,3.92-1.56,5.48-2.79c1.56-1.23,2.79-2.75,3.69-4.57c0.9-1.82,1.35-3.94,1.35-6.35v-0.12
		c0-2.17-0.38-4.13-1.13-5.89c-0.76-1.76-1.84-3.27-3.25-4.54c-1.41-1.27-3.13-2.24-5.16-2.92c-2.03-0.67-4.29-1.01-6.78-1.01
		h-16.94V137.63L220.43,137.63z M286.25,130.2c-1.79-0.82-3.33-1.91-4.62-3.28c-1.28-1.37-2.28-2.99-2.99-4.85
		c-0.71-1.86-1.07-3.84-1.07-5.92v-0.12c0-2.09,0.36-4.05,1.07-5.89c0.71-1.84,1.7-3.45,2.96-4.82c1.26-1.37,2.78-2.46,4.55-3.25
		c1.77-0.8,3.72-1.2,5.84-1.2c2.12,0,4.07,0.41,5.87,1.23c1.79,0.82,3.33,1.91,4.61,3.28c1.28,1.37,2.28,2.99,2.99,4.85
		c0.71,1.86,1.07,3.84,1.07,5.92v0.12c0,2.09-0.36,4.05-1.07,5.89c-0.71,1.84-1.7,3.45-2.96,4.82c-1.26,1.37-2.78,2.46-4.55,3.25
		c-1.77,0.8-3.72,1.2-5.84,1.2C290,131.43,288.05,131.02,286.25,130.2L286.25,130.2z M301.08,136.58c2.74-1.19,5.12-2.79,7.12-4.82
		c2-2.03,3.56-4.38,4.66-7.06c1.11-2.68,1.66-5.53,1.66-8.56v-0.12c0-3.03-0.55-5.88-1.66-8.56c-1.1-2.68-2.64-5.02-4.6-7.03
		c-1.96-2-4.32-3.59-7.06-4.76c-2.74-1.17-5.77-1.75-9.08-1.75c-3.32,0-6.34,0.59-9.08,1.78c-2.74,1.19-5.12,2.79-7.12,4.82
		c-2.01,2.03-3.56,4.38-4.66,7.06c-1.11,2.68-1.66,5.54-1.66,8.56v0.12c0,3.03,0.55,5.88,1.66,8.56c1.1,2.68,2.64,5.02,4.6,7.03
		c1.96,2.01,4.32,3.59,7.06,4.76c2.74,1.17,5.77,1.75,9.08,1.75C295.31,138.36,298.34,137.77,301.08,136.58L301.08,136.58z
		 M333.73,137.63h30.08v-6.81h-22.59V94.66h-7.49V137.63L333.73,137.63z M382.22,137.63h7.49V94.66h-7.49V137.63L382.22,137.63z
		 M436.82,137.84c1.66-0.35,3.18-0.86,4.57-1.54c1.39-0.67,2.69-1.47,3.9-2.39c1.21-0.92,2.36-1.97,3.47-3.16l-4.85-4.91
		c-1.84,1.72-3.7,3.08-5.59,4.08c-1.88,1-4.13,1.5-6.75,1.5c-2.05,0-3.94-0.4-5.68-1.2c-1.74-0.8-3.24-1.89-4.51-3.28
		c-1.27-1.39-2.25-3.02-2.95-4.88c-0.7-1.86-1.04-3.84-1.04-5.92v-0.12c0-2.09,0.35-4.05,1.04-5.89c0.69-1.84,1.68-3.45,2.95-4.82
		c1.27-1.37,2.77-2.46,4.51-3.25c1.74-0.8,3.63-1.2,5.68-1.2c2.46,0,4.64,0.49,6.57,1.47c1.92,0.98,3.74,2.27,5.46,3.87l4.85-5.58
		c-1.02-0.98-2.11-1.88-3.25-2.7c-1.15-0.82-2.39-1.52-3.74-2.12c-1.35-0.59-2.83-1.05-4.45-1.38c-1.62-0.33-3.41-0.49-5.37-0.49
		c-3.27,0-6.26,0.58-8.96,1.75c-2.7,1.17-5.04,2.76-7.01,4.79c-1.98,2.03-3.51,4.38-4.6,7.06c-1.09,2.68-1.64,5.55-1.64,8.62v0.12
		c0,3.07,0.56,5.95,1.67,8.65c1.11,2.7,2.65,5.04,4.6,7.03c1.96,1.98,4.26,3.55,6.92,4.7c2.66,1.14,5.56,1.72,8.72,1.72
		C433.33,138.36,435.16,138.19,436.82,137.84L436.82,137.84z M479.33,137.63h7.61V120.5L504,94.66h-8.66l-12.15,19.03l-12.03-19.03
		h-8.9l17.06,26.02V137.63L479.33,137.63z"/>
	<path class="st7" d="M219.66,70.67h16.24V49.74h27.7V36.18h-27.7v-9.88h30.63V12.08h-46.87V70.67L219.66,70.67z M297.36,55.89
		c-1.85-0.86-3.43-2.02-4.74-3.47c-1.32-1.45-2.34-3.12-3.06-5.02c-0.73-1.9-1.09-3.91-1.09-6.03V41.2c0-2.12,0.35-4.13,1.05-6.03
		c0.7-1.9,1.7-3.56,3.02-4.98c1.32-1.42,2.88-2.55,4.7-3.39c1.82-0.84,3.85-1.26,6.09-1.26c2.24,0,4.28,0.43,6.13,1.3
		c1.85,0.87,3.44,2.02,4.78,3.47c1.34,1.45,2.38,3.13,3.1,5.02c0.73,1.9,1.09,3.91,1.09,6.03v0.17c0,2.12-0.36,4.13-1.09,6.03
		c-0.73,1.9-1.74,3.56-3.02,4.98c-1.29,1.42-2.85,2.55-4.7,3.39c-1.85,0.84-3.89,1.26-6.13,1.26
		C301.25,57.19,299.21,56.76,297.36,55.89L297.36,55.89z M315.92,69.45c3.85-1.59,7.2-3.77,10.05-6.53c2.84-2.76,5.06-6,6.65-9.71
		c1.59-3.71,2.38-7.66,2.38-11.84V41.2c0-4.18-0.79-8.12-2.38-11.8c-1.59-3.68-3.78-6.89-6.57-9.63c-2.79-2.73-6.11-4.9-9.96-6.49
		c-3.85-1.59-8.04-2.39-12.55-2.39c-4.52,0-8.71,0.8-12.56,2.39c-3.85,1.59-7.2,3.77-10.04,6.53c-2.85,2.76-5.06,6-6.65,9.71
		c-1.59,3.71-2.39,7.66-2.39,11.84v0.17c0,4.18,0.8,8.12,2.39,11.8c1.59,3.68,3.78,6.89,6.57,9.63c2.79,2.73,6.11,4.9,9.96,6.49
		c3.85,1.59,8.04,2.38,12.56,2.38C307.88,71.84,312.07,71.04,315.92,69.45L315.92,69.45z M376.18,70.38
		c2.9-0.86,5.38-2.12,7.45-3.76c2.06-1.64,3.67-3.63,4.81-5.97c1.14-2.34,1.72-5.01,1.72-8.02v-0.17c0-2.73-0.5-5.08-1.51-7.06
		c-1-1.98-2.46-3.66-4.35-5.05c-1.9-1.39-4.2-2.58-6.91-3.55c-2.71-0.97-5.73-1.82-9.08-2.55c-2.01-0.44-3.67-0.88-4.98-1.29
		c-1.31-0.42-2.34-0.83-3.1-1.25c-0.75-0.42-1.28-0.88-1.59-1.38c-0.31-0.5-0.46-1.09-0.46-1.75v-0.17c0-1.06,0.49-1.95,1.46-2.67
		c0.98-0.72,2.44-1.09,4.4-1.09c2.62,0,5.34,0.49,8.16,1.46c2.82,0.98,5.57,2.41,8.24,4.31l8.12-11.5
		c-3.18-2.58-6.74-4.53-10.67-5.85c-3.93-1.32-8.41-1.98-13.43-1.98c-3.51,0-6.67,0.46-9.46,1.38c-2.79,0.92-5.18,2.21-7.16,3.89
		c-1.98,1.67-3.49,3.65-4.52,5.93c-1.03,2.28-1.55,4.79-1.55,7.52v0.17c0,3.01,0.57,5.53,1.72,7.56c1.14,2.03,2.71,3.73,4.69,5.1
		c1.98,1.37,4.31,2.48,6.99,3.34c2.68,0.86,5.58,1.66,8.71,2.38c2.01,0.45,3.64,0.88,4.9,1.3c1.26,0.42,2.26,0.85,3.01,1.29
		c0.75,0.45,1.27,0.91,1.55,1.38c0.28,0.47,0.42,1.02,0.42,1.63v0.17c0,1.28-0.57,2.27-1.72,2.97c-1.14,0.7-2.8,1.04-4.98,1.04
		c-6.81,0-13.14-2.34-19-7.03l-9.04,10.82c3.63,3.26,7.8,5.7,12.51,7.33c4.72,1.63,9.7,2.44,14.94,2.44
		C370.04,71.67,373.28,71.24,376.18,70.38L376.18,70.38z M430.76,70.38c2.9-0.86,5.39-2.12,7.45-3.76c2.06-1.64,3.67-3.63,4.81-5.97
		c1.14-2.34,1.72-5.01,1.72-8.02v-0.17c0-2.73-0.5-5.08-1.51-7.06c-1.01-1.98-2.46-3.66-4.35-5.05c-1.9-1.39-4.2-2.58-6.9-3.55
		c-2.71-0.97-5.73-1.82-9.08-2.55c-2.01-0.44-3.67-0.88-4.98-1.29c-1.31-0.42-2.34-0.83-3.1-1.25c-0.75-0.42-1.28-0.88-1.59-1.38
		c-0.31-0.5-0.46-1.09-0.46-1.75v-0.17c0-1.06,0.49-1.95,1.46-2.67c0.98-0.72,2.44-1.09,4.39-1.09c2.62,0,5.34,0.49,8.16,1.46
		c2.82,0.98,5.57,2.41,8.24,4.31l8.12-11.5c-3.18-2.58-6.74-4.53-10.67-5.85c-3.93-1.32-8.41-1.98-13.43-1.98
		c-3.52,0-6.67,0.46-9.46,1.38c-2.79,0.92-5.18,2.21-7.16,3.89c-1.98,1.67-3.49,3.65-4.52,5.93c-1.03,2.28-1.55,4.79-1.55,7.52v0.17
		c0,3.01,0.57,5.53,1.72,7.56c1.14,2.03,2.71,3.73,4.69,5.1c1.98,1.37,4.31,2.48,6.99,3.34c2.68,0.86,5.58,1.66,8.7,2.38
		c2.01,0.45,3.64,0.88,4.9,1.3c1.25,0.42,2.26,0.85,3.01,1.29c0.75,0.45,1.27,0.91,1.55,1.38s0.42,1.02,0.42,1.63v0.17
		c0,1.28-0.57,2.27-1.72,2.97c-1.14,0.7-2.8,1.04-4.98,1.04c-6.81,0-13.14-2.34-19-7.03l-9.04,10.82c3.63,3.26,7.8,5.7,12.51,7.33
		c4.72,1.63,9.7,2.44,14.94,2.44C424.62,71.67,427.85,71.24,430.76,70.38L430.76,70.38z"/>
</g>
</svg>
