<?xml version="1.0" encoding="utf-8"?>
<!-- Generator: Adobe Illustrator 24.1.0, SVG Export Plug-In . SVG Version: 6.00 Build 0)  -->
<svg version="1.1" id="Layer_1" xmlns="http://www.w3.org/2000/svg" xmlns:xlink="http://www.w3.org/1999/xlink" x="0px" y="0px"
	 viewBox="0 0 719.63 120.02" style="enable-background:new 0 0 719.63 120.02;" xml:space="preserve">
<style type="text/css">
	.st0{fill:#FFFFFF;}
</style>
<g>
	<path class="st0" d="M469.8,118.74h27.44V6.1H469.8v44.12h-42.68V6.1h-27.44v112.64h27.44V72.36h42.68V118.74L469.8,118.74z
		 M605.39,29.2h-27.44v48.62c0,12.19-6.74,18.93-17.33,18.93c-10.27,0-17.17-6.74-17.17-18.93V29.2h-27.28v52.31
		c0,23.91,13.96,38.19,34.66,38.19c12.03,0,21.66-5.45,27.12-13.16v12.19h27.44V29.2L605.39,29.2z M652.56,41.88V0h-27.44v118.74
		h27.44v-12.51c4.97,7.86,14.44,13.8,27.6,13.8c21.98,0,39.47-17.97,39.47-46.21c0-28.24-17.33-45.89-39.47-45.89
		C667.32,27.92,657.53,33.86,652.56,41.88L652.56,41.88z M691.71,73.81c0,14.28-9.31,22.3-19.74,22.3
		c-10.27,0-19.57-7.86-19.57-22.14c0-14.28,9.31-22.14,19.57-22.14C682.4,51.83,691.71,59.53,691.71,73.81L691.71,73.81z"/>
	<path class="st0" d="M42.2,6.1H0v112.64h42.2c35.94,0,59.05-22.95,59.05-56.32C101.25,28.88,78.14,6.1,42.2,6.1L42.2,6.1z
		 M27.44,94.99V29.52h13c20.7,0,32.89,12.19,32.89,32.89c0,20.7-12.19,32.57-32.89,32.57H27.44L27.44,94.99z M111.19,73.81
		c0,28.24,17.49,46.21,39.31,46.21c13.32,0,22.78-6.1,27.76-13.96v12.68h27.44V29.2h-27.44v12.68c-4.81-7.86-14.28-13.96-27.6-13.96
		C128.68,27.92,111.19,45.57,111.19,73.81L111.19,73.81z M178.26,73.97c0,14.28-9.15,22.14-19.57,22.14
		c-10.27,0-19.58-8.02-19.58-22.3c0-14.28,9.31-21.98,19.58-21.98C169.12,51.83,178.26,59.69,178.26,73.97L178.26,73.97z
		 M229.93,87.61c0,23.27,13,31.13,31.61,31.13h13.96V95.47h-9.79c-6.1,0-8.34-2.25-8.34-7.54V51.99h17.97V29.2h-17.97V7.38h-27.44
		V29.2h-10.91v22.78h10.91V87.61L229.93,87.61z M285.28,73.81c0,28.24,17.49,46.21,39.31,46.21c13.32,0,22.78-6.1,27.76-13.96v12.68
		h27.44V29.2h-27.44v12.68c-4.81-7.86-14.28-13.96-27.6-13.96C302.77,27.92,285.28,45.57,285.28,73.81L285.28,73.81z M352.35,73.97
		c0,14.28-9.15,22.14-19.57,22.14c-10.27,0-19.58-8.02-19.58-22.3c0-14.28,9.31-21.98,19.58-21.98
		C343.21,51.83,352.35,59.69,352.35,73.97L352.35,73.97z"/>
</g>
</svg>
