<?xml version="1.0" encoding="utf-8"?>
<!-- Generator: Adobe Illustrator 25.0.0, SVG Export Plug-In . SVG Version: 6.00 Build 0)  -->
<svg version="1.1" id="Layer_1" xmlns="http://www.w3.org/2000/svg" xmlns:xlink="http://www.w3.org/1999/xlink" x="0px" y="0px"
	 viewBox="0 0 792 263.7" style="enable-background:new 0 0 792 263.7;" xml:space="preserve">
<style type="text/css">
	.st0{fill:#FFFFFF;}
</style>
<g>
	<path class="st0" d="M62.8,184.2l-12.2,40l-4.5,16.5h-0.2L41.4,224l-12.3-39.9H0v78.4h18.2v-36l-0.6-24.1h0.2l19.4,60.1h16.5
		L73,202.4h0.2l-0.6,24.1v36h18v-78.4H62.8L62.8,184.2z M138.7,260.7c3.4-2,6.1-5.1,8-9.3l0.6,11.2h18v-59.4h-20.2V235
		c0,2.3-0.3,4.3-0.8,6c-0.5,1.7-1.2,3.1-2.2,4.2c-0.9,1.1-2.1,1.9-3.3,2.4c-1.3,0.5-2.6,0.8-4,0.8c-2.8,0-4.9-0.8-6.4-2.3
		c-1.5-1.5-2.3-4.2-2.3-8v-34.9h-20.2v39.7c0,5,0.9,9,2.6,12.1c1.7,3.1,4.1,5.3,7.2,6.7c3,1.4,6.6,2.1,10.6,2.1
		C131.2,263.7,135.3,262.7,138.7,260.7L138.7,260.7z M184.4,189.9v54.9c0.1,4.6,1,8.3,2.8,11c1.8,2.8,4.3,4.8,7.6,6.1
		c3.3,1.3,7.2,1.9,11.7,1.9c3.2,0,6.3-0.4,9.3-1.2c3-0.8,5.5-1.9,7.5-3.3l-2.1-12.5c-1.1,0.9-2.4,1.5-3.7,2c-1.4,0.4-3,0.7-4.9,0.7
		c-2.5,0-4.4-0.6-5.8-1.8c-1.4-1.2-2.1-3.3-2.1-6.1v-57.1L184.4,189.9L184.4,189.9z M174.2,203.1v14.4h48.1v-14.4H174.2L174.2,203.1
		z M264.1,260.7c3.4-2,6.1-5.1,8-9.3l0.6,11.2h18v-59.4h-20.2V235c0,2.3-0.3,4.3-0.8,6c-0.5,1.7-1.2,3.1-2.2,4.2
		c-1,1.1-2.1,1.9-3.3,2.4c-1.3,0.5-2.6,0.8-4,0.8c-2.8,0-4.9-0.8-6.4-2.3c-1.5-1.5-2.3-4.2-2.3-8v-34.9h-20.2v39.7
		c0,5,0.9,9,2.6,12.1c1.7,3.1,4.1,5.3,7.2,6.7c3,1.4,6.6,2.1,10.6,2.1C256.6,263.7,260.7,262.7,264.1,260.7L264.1,260.7z
		 M338.3,240.6c0,1.7-0.3,3.2-0.8,4.5c-0.6,1.3-1.3,2.3-2.3,3.1c-0.9,0.8-2,1.4-3.3,1.8c-1.2,0.4-2.5,0.6-3.9,0.6
		c-1.7,0-3.2-0.4-4.5-1.3c-1.3-0.9-1.9-2.2-1.9-3.9c0-1.8,0.6-3.2,1.7-4.1c1.1-0.9,2.9-1.6,5.3-2.1l11.4-2.4l0.1-10.7l-22.4,4.6
		c-5.5,1.1-9.6,3.1-12.2,5.9c-2.6,2.8-3.9,6.4-3.9,10.6c0,3.6,0.8,6.6,2.4,9c1.6,2.4,3.9,4.3,6.9,5.5c3,1.3,6.5,1.9,10.6,1.9
		c3.5,0,6.8-0.6,10-1.7c3.2-1.1,5.8-2.8,7.8-5.1c2-2.3,3-5.1,3-8.5l-2.3,0.8v0.7c0,3.1,0.7,5.6,2,7.7c1.3,2,3.2,3.5,5.6,4.5
		c2.4,1,5.1,1.5,8.2,1.5c3.4,0,6.3-0.6,8.7-1.7l1.2-11.5c-0.9,0.3-2,0.5-3.4,0.5c-2.8,0-4.2-1.5-4.2-4.6v-21.7c0-4.9-1.1-9-3.3-12.4
		c-2.2-3.4-5.3-5.9-9.4-7.6c-4.1-1.7-9-2.6-14.8-2.6c-8.6,0-15.3,1.7-20.1,5.1c-4.8,3.4-7.7,8-8.8,13.7l17.1,4
		c0.7-3.3,2-5.6,3.9-6.9c1.9-1.3,4.1-2,6.7-2c2.6,0,4.7,0.8,6.2,2.4c1.5,1.6,2.3,3.8,2.3,6.6V240.6L338.3,240.6z M373.7,178v67
		c0,6.6,1.4,11.4,4.3,14.4c2.8,2.9,7.4,4.4,13.8,4.4c2.2,0,4.5-0.3,6.8-0.8c2.3-0.6,4.2-1.3,5.6-2.1l1.3-12.1
		c-1.1,0.3-2.1,0.6-2.8,0.7c-0.8,0.2-1.8,0.2-3,0.2c-2.1,0-3.5-0.6-4.4-1.7c-0.9-1.1-1.3-3-1.3-5.6V178H373.7L373.7,178z
		 M431.7,193.9c1.9-1.5,2.9-4,2.9-7.3c0-3.4-0.9-5.9-2.9-7.4c-1.9-1.5-4.9-2.3-8.9-2.3c-4.1,0-7.1,0.8-9,2.3c-1.9,1.5-2.8,4-2.8,7.4
		c0,3.3,0.9,5.8,2.8,7.3c1.9,1.5,4.8,2.3,9,2.3C426.9,196.3,429.8,195.5,431.7,193.9L431.7,193.9z M412.7,203.1v59.4h20.2v-59.4
		H412.7L412.7,203.1z M497.5,262.5v-14.1h-20.4l-10.4,0.2l6.5-6.5l23.3-26.6v-12.3h-52v14.1h20.3l9.4-0.2l-6.3,6.3l-23.6,26.8v12.3
		H497.5L497.5,262.5z M541.7,240.6c0,1.7-0.3,3.2-0.8,4.5c-0.6,1.3-1.3,2.3-2.3,3.1c-1,0.8-2,1.4-3.3,1.8c-1.2,0.4-2.5,0.6-3.9,0.6
		c-1.7,0-3.2-0.4-4.5-1.3c-1.3-0.9-1.9-2.2-1.9-3.9c0-1.8,0.6-3.2,1.7-4.1c1.1-0.9,2.9-1.6,5.3-2.1l11.4-2.4l0.1-10.7l-22.4,4.6
		c-5.5,1.1-9.6,3.1-12.2,5.9c-2.6,2.8-3.9,6.4-3.9,10.6c0,3.6,0.8,6.6,2.4,9c1.6,2.4,3.9,4.3,6.9,5.5c3,1.3,6.5,1.9,10.6,1.9
		c3.5,0,6.8-0.6,10-1.7c3.2-1.1,5.8-2.8,7.8-5.1c2-2.3,3-5.1,3-8.5l-2.3,0.8v0.7c0,3.1,0.7,5.6,2,7.7c1.3,2,3.2,3.5,5.6,4.5
		c2.4,1,5.1,1.5,8.2,1.5c3.4,0,6.3-0.6,8.7-1.7l1.2-11.5c-0.9,0.3-2,0.5-3.4,0.5c-2.8,0-4.2-1.5-4.2-4.6v-21.7c0-4.9-1.1-9-3.3-12.4
		c-2.2-3.4-5.3-5.9-9.4-7.6c-4.1-1.7-9-2.6-14.8-2.6c-8.6,0-15.3,1.7-20.1,5.1c-4.7,3.4-7.7,8-8.8,13.7l17.1,4
		c0.7-3.3,2-5.6,3.9-6.9c1.9-1.3,4.1-2,6.7-2c2.6,0,4.7,0.8,6.2,2.4c1.5,1.6,2.3,3.8,2.3,6.6V240.6L541.7,240.6z M579.6,192.3v52.4
		c0.1,4.6,1,8.3,2.8,11c1.8,2.8,4.3,4.8,7.6,6.1c3.3,1.3,7.2,1.9,11.7,1.9c3.2,0,6.3-0.4,9.3-1.2c3-0.8,5.5-1.9,7.5-3.3l-2.1-12.5
		c-1.1,0.9-2.4,1.5-3.7,2c-1.4,0.4-3,0.7-4.9,0.7c-2.5,0-4.4-0.6-5.8-1.8c-1.4-1.2-2.1-3.3-2.1-6.1v-54.7L579.6,192.3L579.6,192.3z
		 M569.3,203.1v14.4h48.1v-14.4H569.3L569.3,203.1z M645.8,193.9c1.9-1.5,2.9-4,2.9-7.3c0-3.4-1-5.9-2.9-7.4
		c-1.9-1.5-4.9-2.3-8.9-2.3c-4.1,0-7.1,0.8-9,2.3c-1.9,1.5-2.8,4-2.8,7.4c0,3.3,0.9,5.8,2.8,7.3c1.9,1.5,4.8,2.3,9,2.3
		C640.9,196.3,643.9,195.5,645.8,193.9L645.8,193.9z M626.8,203.1v59.4H647v-59.4H626.8L626.8,203.1z M673.4,205.6
		c-4.7,2.4-8.5,5.9-11.1,10.6c-2.7,4.6-4,10.2-4,16.7c0,6.5,1.3,12.1,4,16.7c2.7,4.6,6.4,8.2,11.1,10.6c4.7,2.4,10.2,3.6,16.3,3.6
		c6.3,0,11.7-1.2,16.4-3.6c4.7-2.4,8.4-5.9,11-10.6c2.7-4.6,4-10.2,4-16.7c0-6.5-1.3-12.1-4-16.7c-2.7-4.6-6.3-8.2-11-10.6
		c-4.7-2.4-10.2-3.6-16.4-3.6C683.5,202,678.1,203.2,673.4,205.6L673.4,205.6z M695.7,218c1.7,1.1,2.9,2.9,3.8,5.3
		c0.9,2.5,1.3,5.6,1.3,9.5c0,3.9-0.4,7-1.3,9.4c-0.9,2.4-2.1,4.2-3.8,5.3c-1.7,1.1-3.7,1.7-6.1,1.7c-2.3,0-4.3-0.6-5.9-1.7
		c-1.7-1.1-2.9-2.9-3.8-5.3c-0.9-2.4-1.3-5.6-1.3-9.4c0-3.9,0.4-7,1.3-9.5c0.9-2.5,2.1-4.2,3.8-5.3c1.7-1.1,3.6-1.7,5.9-1.7
		C692,216.3,694,216.9,695.7,218L695.7,218z M752.7,262.5v-31.5c0-3.3,0.5-6,1.4-8c0.9-2,2.3-3.4,3.9-4.3c1.7-0.9,3.4-1.4,5.3-1.4
		c2.5,0,4.5,0.8,6.1,2.4c1.6,1.6,2.4,4.4,2.4,8.5v34.2H792V223c0-4.7-0.9-8.5-2.6-11.6c-1.7-3.1-4.1-5.4-7.2-7
		c-3-1.6-6.6-2.4-10.7-2.4c-3.8,0-7.2,0.7-10.3,2.2c-3,1.5-5.6,3.6-7.6,6.5c-2,2.8-3.4,6.4-4.2,10.7l2.3,2.3l-1.1-20.4h-18v59.4
		H752.7L752.7,262.5z"/>
	<path class="st0" d="M0,2.2v143.7h61c22.5,0,39.7-6.2,51.7-18.7c12-12.5,18-30.2,18-53.1c0-22.9-6-40.6-18-53.1
		C100.7,8.4,83.5,2.2,61,2.2H0L0,2.2z M37.5,117.6V30.5h19.8c12.2,0,21.1,3.7,26.7,11c5.6,7.3,8.4,18.2,8.4,32.6
		c0,14.4-2.8,25.2-8.4,32.6c-5.6,7.3-14.5,11-26.7,11H37.5L37.5,117.6z M228.6,144.8c6.8-2.2,12.7-5.4,17.7-9.7
		c5-4.3,8.5-9.5,10.6-15.6l-29.6-10c-1.6,3.9-4,7-7.3,9.1c-3.3,2.2-7.7,3.3-13.2,3.3c-4.9,0-9.1-1-12.6-3c-3.5-2-6.2-5.2-8.1-9.6
		c-1.9-4.4-2.8-10.2-2.8-17.4c0-7.3,0.8-13.2,2.5-17.7c1.7-4.6,4.1-7.9,7.4-10.1c3.3-2.2,7.2-3.3,11.9-3.3c6.5,0,11.4,2.3,14.5,7
		c3.1,4.6,4.7,11.3,4.7,20l17.9-7H172v20h86.2c0.3-1.7,0.5-3.9,0.7-6.4c0.1-2.5,0.2-5.2,0.2-7.9c0-10-2.1-18.9-6.4-26.7
		c-4.3-7.8-10.4-13.9-18.4-18.3c-8-4.4-17.7-6.6-29.2-6.6c-11.2,0-21.1,2.3-29.7,6.8c-8.6,4.5-15.3,10.9-20,19.3
		c-4.7,8.3-7.1,18.5-7.1,30.6c0,12.1,2.4,22.2,7.1,30.6c4.7,8.3,11.5,14.8,20.3,19.3c8.8,4.5,19.1,6.8,31,6.8
		C214.5,148.1,221.8,147,228.6,144.8L228.6,144.8z M324.2,120l-22.4-83h-39L302,145.9h44.2L385.4,37h-38.3L324.2,120L324.2,120z
		 M427.9,8.8c-10.6,5.9-18.7,14.3-24.4,25.4c-5.7,11-8.5,24.3-8.5,39.9c0,15.5,2.8,28.8,8.5,39.9c5.7,11,13.8,19.5,24.4,25.4
		c10.6,5.9,23.2,8.8,37.7,8.8c14.5,0,27-2.9,37.6-8.8c10.5-5.9,18.6-14.3,24.3-25.4c5.7-11,8.5-24.3,8.5-39.9
		c0-15.5-2.8-28.8-8.5-39.9c-5.7-11-13.8-19.5-24.3-25.4c-10.5-5.9-23-8.8-37.6-8.8C451.1,0,438.5,2.9,427.9,8.8L427.9,8.8z
		 M483.1,34.4c4.7,3.3,8.3,8.3,10.8,14.9c2.5,6.6,3.7,14.8,3.7,24.7c0,9.7-1.2,17.9-3.7,24.6c-2.5,6.7-6.1,11.7-10.8,15
		c-4.7,3.3-10.6,5-17.5,5c-7,0-12.8-1.7-17.6-5c-4.8-3.3-8.4-8.3-10.9-15c-2.5-6.7-3.7-14.9-3.7-24.6c0-9.9,1.2-18.1,3.7-24.7
		c2.5-6.6,6.1-11.6,10.9-14.9c4.8-3.3,10.7-5,17.6-5C472.5,29.4,478.4,31.1,483.1,34.4L483.1,34.4z M595.6,167.8v-56.1l-3.5,5.2
		c2,9,6.1,16.4,12.2,22.3c6.1,5.9,14.1,8.8,24,8.8c9,0,16.9-2.2,23.6-6.8c6.8-4.5,12-11,15.8-19.6c3.8-8.6,5.7-18.8,5.7-30.7
		c0-11.9-1.9-22-5.6-30.4c-3.7-8.3-8.9-14.7-15.6-19.2c-6.7-4.4-14.5-6.6-23.5-6.6c-7.1,0-13.4,1.6-18.9,4.8
		c-5.5,3.2-10,7.6-13.5,13.1c-3.5,5.5-5.7,11.9-6.8,19.2l4.4,4.6l-2-39.4h-33.3v141.9L595.6,167.8L595.6,167.8z M604.7,117.4
		c-3-2.3-5.3-5.7-6.9-10.1c-1.5-4.4-2.3-9.7-2.3-15.8c0-6.4,0.8-11.8,2.5-16.1c1.7-4.4,4-7.7,7.1-9.9c3-2.2,6.6-3.4,10.7-3.4
		c6.4,0,11.4,2.4,14.9,7.1c3.6,4.7,5.3,12.2,5.3,22.3c0,10.2-1.8,17.6-5.4,22.3c-3.6,4.7-8.6,7.1-15,7.1
		C611.4,120.9,607.8,119.7,604.7,117.4L604.7,117.4z M769.4,143.2c7.5-3.3,13.2-7.8,17-13.5c3.8-5.7,5.7-12,5.7-18.8
		c0-7.7-2.5-14.2-7.4-19.6c-4.9-5.4-13-9.1-24.2-11.1l-19.8-3.9c-4.9-1-8.3-2.2-10.1-3.6c-1.8-1.4-2.7-3-2.7-4.9
		c0-1.6,0.6-3,1.7-4.2c1.2-1.2,2.9-2.2,5.3-2.8c2.4-0.7,5.3-1,8.6-1c5.7,0,11.2,1.2,16.8,3.6c5.5,2.4,10,5.8,13.5,10.3l17.9-20
		c-5.1-6.1-11.8-10.7-20.3-13.9c-8.4-3.2-18.1-4.8-29.2-4.8c-11.6,0-21.2,1.7-28.9,5.2c-7.6,3.5-13.3,7.9-17,13.3
		c-3.7,5.4-5.6,11-5.6,17c0,8.9,2.9,16,8.7,21.4c5.8,5.4,15.6,9.5,29.4,12.3l15,2.8c4.4,1,7.3,2.1,8.7,3.4c1.4,1.2,2.2,2.9,2.2,4.9
		c0,2.9-1.5,5-4.4,6.2c-2.9,1.2-6.7,1.9-11.3,1.9c-7.4,0-14.1-1.6-20-4.7c-6-3.1-10.8-7-14.6-11.7L687,127.4
		c6.2,6.7,14,11.8,23.4,15.4c9.4,3.6,19.5,5.3,30.4,5.3C752.3,148.1,761.8,146.4,769.4,143.2L769.4,143.2z"/>
</g>
</svg>
