<?xml version="1.0" encoding="utf-8"?>
<!-- Generator: Adobe Illustrator 24.2.3, SVG Export Plug-In . SVG Version: 6.00 Build 0)  -->
<svg version="1.1" id="Layer_1" xmlns="http://www.w3.org/2000/svg" xmlns:xlink="http://www.w3.org/1999/xlink" x="0px" y="0px"
	 viewBox="0 0 936 239.7" style="enable-background:new 0 0 936 239.7;" xml:space="preserve">
<style type="text/css">
	.st0{fill:#FFFFFF;}
</style>
<g>
	<path class="st0" d="M119.5,0c30,0,58.6,11.7,81.2,31c2.7,2.7,3,6.7,0.3,9.3l-20.6,21.6c-2.7,2.7-5.7,2.7-8.7,0
		c-14.3-12.7-32-19.3-50.3-19.3c-41.6,0-74.6,35.6-74.6,77.2c0,41.3,33,76.2,74.9,76.2c18.6,0,33-5.7,39.6-8.3v-28.3h-26.6
		c-3.7,0-6.3-2.7-6.3-6v-26.3c0-3.7,2.7-6.3,6.3-6.3h63.9c3.3,0,6,3,6,6.3v85.2c0,2.7-1.3,4.3-2.7,5.3c0,0-34.3,21.6-82.6,21.6
		C53.3,239.3,0,186.7,0,120.2C0,53.6,53.3,0,119.5,0L119.5,0z"/>
	<path class="st0" d="M295.9,9.7c0-3.3,2.7-6.3,6.3-6.3h30.6c3.3,0,6.3,3,6.3,6.3v186.7h84.9c3.7,0,6.3,3,6.3,6.3V230
		c0,3.3-2.7,6.3-6.3,6.3H302.2c-3.7,0-6.3-3-6.3-6.3V9.7L295.9,9.7z"/>
	<path class="st0" d="M502.9,9.7c0-3.3,3-6.3,6.3-6.3h31.6c3.7,0,6.3,3,6.3,6.3v136.1c0,28.3,19.3,50.6,48.3,50.6
		c29,0,48.6-22.3,48.6-50.3V9.7c0-3.3,2.7-6.3,6.3-6.3H682c3.3,0,6.3,3,6.3,6.3v138.5c0,50.6-40.3,91.5-92.9,91.5
		c-52.3,0-92.5-40.9-92.5-91.5V9.7L502.9,9.7z"/>
	<path class="st0" d="M787.9,9.7c0-3.3,2.7-6.3,6.3-6.3h135.5c3.7,0,6.3,3,6.3,6.3V37c0,3.3-2.7,6.3-6.3,6.3h-98.5v54.6h82.2
		c3.3,0,6.3,3,6.3,6.3v27.6c0,3.7-3,6.3-6.3,6.3h-82.2v58.3h98.5c3.7,0,6.3,3,6.3,6.3V230c0,3.3-2.7,6.3-6.3,6.3H794.2
		c-3.7,0-6.3-3-6.3-6.3V9.7L787.9,9.7z"/>
</g>
</svg>
