<?xml version="1.0" encoding="utf-8"?>
<!-- Generator: Adobe Illustrator 25.0.0, SVG Export Plug-In . SVG Version: 6.00 Build 0)  -->
<svg version="1.1" id="Layer_1" xmlns="http://www.w3.org/2000/svg" xmlns:xlink="http://www.w3.org/1999/xlink" x="0px" y="0px"
	 viewBox="0 0 360 360" style="enable-background:new 0 0 360 360;" xml:space="preserve">
<style type="text/css">
	.st0{fill:#FFFFFF;}
</style>
<g>
	<path class="st0" d="M-143.2,190.6c-3.6-1.6-6.7-3.8-9.2-6.6c-2.6-2.7-4.6-6-6-9.7c-1.4-3.7-2.1-7.7-2.1-11.9v-0.2
		c0-4.2,0.7-8.1,2.1-11.8c1.4-3.7,3.4-6.9,5.9-9.6c2.5-2.7,5.6-4.9,9.1-6.5c3.5-1.6,7.4-2.4,11.7-2.4c4.2,0,8.2,0.8,11.7,2.5
		c3.6,1.6,6.7,3.8,9.2,6.6c2.6,2.7,4.6,6,6,9.7c1.4,3.7,2.1,7.7,2.1,11.8v0.2c0,4.2-0.7,8.1-2.1,11.8c-1.4,3.7-3.4,6.9-5.9,9.6
		c-2.5,2.7-5.6,4.9-9.1,6.5c-3.5,1.6-7.4,2.4-11.7,2.4C-135.7,193.1-139.6,192.3-143.2,190.6L-143.2,190.6z M-113.5,203.4
		c5.5-2.4,10.2-5.6,14.2-9.6c4-4.1,7.1-8.8,9.3-14.1c2.2-5.4,3.3-11.1,3.3-17.1v-0.2c0-6.1-1.1-11.8-3.3-17.1
		c-2.2-5.4-5.3-10-9.2-14.1c-3.9-4-8.6-7.2-14.1-9.5c-5.5-2.3-11.5-3.5-18.2-3.5c-6.6,0-12.7,1.2-18.2,3.6
		c-5.5,2.4-10.2,5.6-14.2,9.6c-4,4.1-7.1,8.8-9.3,14.1c-2.2,5.4-3.3,11.1-3.3,17.1v0.2c0,6.1,1.1,11.8,3.3,17.1
		c2.2,5.4,5.3,10.1,9.2,14.1c3.9,4,8.6,7.2,14.1,9.5c5.5,2.3,11.5,3.5,18.2,3.5S-119,205.8-113.5,203.4L-113.5,203.4z M-51.6,192.1
		v-23.6h23.9c6,0,10.4,1,13.3,3c2.9,2,4.3,4.9,4.3,8.5v0.2c0,3.9-1.5,6.9-4.4,8.8c-2.9,2-7,2.9-12.1,2.9H-51.6L-51.6,192.1z
		 M-51.6,155.7v-22.8H-30c4.9,0,8.6,1,11.2,2.9c2.6,1.9,3.9,4.6,3.9,8v0.2c0,3.9-1.5,6.9-4.4,8.8c-2.9,1.9-6.9,2.9-11.7,2.9H-51.6
		L-51.6,155.7z M-66.6,205.5h39.7c4.7,0,9.1-0.5,13-1.5c3.9-1,7.3-2.5,10.1-4.5c2.8-2,4.9-4.4,6.4-7.4c1.5-2.9,2.3-6.3,2.3-10.2
		v-0.2c0-2.9-0.4-5.5-1.2-7.7c-0.8-2.2-2-4.1-3.5-5.8c-1.5-1.6-3.3-3-5.4-4.2c-2.1-1.2-4.4-2.2-6.9-3.1c1.5-0.8,3.1-1.8,4.6-2.9
		c1.5-1.1,2.8-2.5,3.9-4c1.1-1.5,2-3.3,2.7-5.3c0.7-2,1-4.3,1-6.9v-0.2c0-5.6-1.9-10.4-5.8-14.2c-5.1-5.1-12.5-7.6-22.4-7.6h-38.5
		V205.5L-66.6,205.5z M54.6,204.8c3.5-1.3,6.5-3.2,9.1-5.7c2.5-2.5,4.5-5.7,5.9-9.5c1.4-3.8,2.1-8.2,2.1-13.4v-56.7H56.2v56.4
		c0,5.7-1.2,10-3.7,12.7c-2.5,2.7-5.8,4.1-9.9,4.1c-3.7,0-6.9-0.9-9.5-2.6c-2.7-1.8-5.3-4.2-7.8-7.4l-9.9,10.2
		c2.9,3.9,6.5,7.2,10.9,9.9c4.4,2.7,9.9,4,16.6,4C47.1,206.7,51.1,206.1,54.6,204.8L54.6,204.8z M94.1,205.5h64.2v-13.6h-49.2v-23
		h43.1v-13.6h-43.1v-22.1h48.6v-13.6H94.1V205.5L94.1,205.5z M229.1,205.9c3.3-0.7,6.4-1.7,9.1-3.1c2.8-1.4,5.4-2.9,7.8-4.8
		c2.4-1.8,4.7-3.9,6.9-6.3l-9.7-9.8c-3.7,3.4-7.4,6.2-11.2,8.2c-3.8,2-8.3,3-13.5,3c-4.1,0-7.9-0.8-11.4-2.4c-3.5-1.6-6.5-3.8-9-6.6
		c-2.5-2.8-4.5-6-5.9-9.8c-1.4-3.7-2.1-7.7-2.1-11.9v-0.2c0-4.2,0.7-8.1,2.1-11.8c1.4-3.7,3.4-6.9,5.9-9.6c2.5-2.7,5.5-4.9,9-6.5
		c3.5-1.6,7.3-2.4,11.4-2.4c4.9,0,9.3,1,13.1,2.9c3.8,2,7.5,4.5,10.9,7.7l9.7-11.2c-2-2-4.2-3.8-6.5-5.4c-2.3-1.6-4.8-3-7.5-4.2
		c-2.7-1.2-5.7-2.1-8.9-2.8c-3.2-0.7-6.8-1-10.7-1c-6.6,0-12.5,1.2-17.9,3.5c-5.4,2.3-10.1,5.5-14,9.6c-4,4.1-7,8.8-9.2,14.1
		c-2.2,5.4-3.3,11.1-3.3,17.3v0.2c0,6.1,1.1,11.9,3.3,17.3c2.2,5.4,5.3,10.1,9.2,14.1c3.9,4,8.5,7.1,13.9,9.4
		c5.3,2.3,11.1,3.4,17.4,3.4C222.2,207,225.8,206.6,229.1,205.9L229.1,205.9z M291.6,205.5h15.2v-72h27.3v-14h-69.7v14h27.3V205.5
		L291.6,205.5z M394.4,205c3.8-1.1,7-2.8,9.7-5c2.7-2.2,4.8-4.9,6.3-8.1c1.5-3.2,2.3-6.8,2.3-10.8v-0.2c0-3.5-0.6-6.6-1.8-9.3
		c-1.2-2.7-2.9-5-5.2-7c-2.3-2-5.2-3.7-8.7-5.1c-3.5-1.4-7.5-2.7-12-3.8c-4.1-1-7.5-1.9-10.2-2.8c-2.7-0.9-4.8-1.9-6.3-2.9
		c-1.5-1-2.6-2.2-3.1-3.4c-0.6-1.3-0.9-2.7-0.9-4.4v-0.2c0-2.9,1.2-5.3,3.7-7.2c2.5-2,5.9-2.9,10.3-2.9c3.9,0,7.8,0.8,11.7,2.3
		c3.8,1.5,7.7,3.7,11.7,6.6l8.1-11.4c-4.4-3.5-9.1-6.2-14.2-8c-5-1.8-10.7-2.8-17-2.8c-4.3,0-8.2,0.6-11.8,1.8
		c-3.6,1.2-6.7,2.9-9.2,5.1c-2.6,2.2-4.6,4.8-6,7.9s-2.2,6.4-2.2,10.1v0.2c0,3.9,0.6,7.3,1.9,10.1c1.3,2.8,3.1,5.1,5.5,7.1
		c2.4,1.9,5.4,3.6,9,4.9c3.6,1.4,7.7,2.6,12.2,3.6c4,0.9,7.3,1.8,9.8,2.7c2.5,0.9,4.5,1.9,5.9,2.9c1.4,1.1,2.4,2.2,3,3.4
		c0.5,1.2,0.8,2.6,0.8,4.1v0.2c0,3.3-1.4,5.9-4.1,7.9c-2.7,2-6.4,2.9-11.1,2.9c-5.4,0-10.2-1-14.5-2.9c-4.3-1.9-8.5-4.7-12.6-8.3
		l-9.1,10.8c5.2,4.7,10.8,8.1,16.8,10.4c6.1,2.3,12.4,3.4,19,3.4C386.5,206.7,390.6,206.1,394.4,205L394.4,205z"/>
	<path class="st0" d="M-176.2,82.7h23.8V52h40.6V32.1h-40.6V17.6h44.9V-3.3h-68.8V82.7L-176.2,82.7z M-94.4,82.7h23.9v-86h-23.9
		V82.7L-94.4,82.7z M-53,82.7h23.5V35.5L7.3,82.7h20.9v-86H4.7v45.4L-30.7-3.3H-53V82.7L-53,82.7z M76.4,48.9l9.7-24.4l9.6,24.4
		H76.4L76.4,48.9z M38.3,82.7h25.1l6.1-15.4h33.2l6.3,15.4h25.5L97.8-3.9h-23L38.3,82.7L38.3,82.7z M144.5,82.7h23.5V35.5l36.8,47.2
		h20.9v-86h-23.5v45.4L166.7-3.3h-22.3V82.7L144.5,82.7z M296.8,82.9c3.8-1,7.2-2.3,10.3-4.1c3.1-1.7,5.8-3.8,8.2-6.1
		c2.4-2.4,4.6-5,6.7-7.7l-17.9-12.8c-1.3,1.6-2.6,3-4,4.2c-1.4,1.3-2.8,2.4-4.3,3.3c-1.5,0.9-3.2,1.7-5,2.1s-3.9,0.7-6.1,0.7
		c-3,0-5.8-0.6-8.3-1.8c-2.5-1.2-4.6-2.8-6.4-4.9c-1.8-2-3.2-4.5-4.2-7.3c-1-2.8-1.5-5.8-1.5-9v-0.2c0-3.1,0.5-6.1,1.5-8.8
		c1-2.8,2.4-5.2,4.2-7.2c1.8-2,3.9-3.7,6.4-4.9c2.5-1.2,5.3-1.8,8.3-1.8c4.2,0,7.7,0.9,10.7,2.7c2.9,1.8,5.6,4.3,8.1,7.4l17.9-13.9
		c-1.9-2.6-4-5-6.4-7.2c-2.4-2.2-5.1-4.1-8.1-5.7c-3-1.6-6.3-2.8-9.9-3.7c-3.6-0.9-7.6-1.3-12-1.3c-6.6,0-12.6,1.1-18.1,3.4
		c-5.5,2.3-10.3,5.5-14.3,9.5c-4,4.1-7.2,8.8-9.5,14.2c-2.3,5.4-3.4,11.3-3.4,17.5v0.2c0,6.4,1.2,12.3,3.5,17.7
		c2.3,5.4,5.5,10.2,9.5,14.1c4,4,8.7,7.1,14.1,9.3c5.4,2.2,11.2,3.3,17.3,3.3C288.7,84.4,293,83.9,296.8,82.9L296.8,82.9z
		 M334.4,82.7h23.9v-86h-23.9V82.7L334.4,82.7z M407.1,48.9l9.7-24.4l9.6,24.4H407.1L407.1,48.9z M368.9,82.7H394l6.1-15.4h33.2
		l6.3,15.4h25.5L428.5-3.9h-23L368.9,82.7L368.9,82.7z M475.2,82.7h65.5V61.8H499V-3.3h-23.8V82.7L475.2,82.7z"/>
	<path class="st0" d="M-153.6,354.9c1.7-0.3,3.2-0.9,4.6-1.5c1.4-0.7,2.7-1.5,3.9-2.4c1.2-0.9,2.4-2,3.5-3.2l-4.9-4.9
		c-1.8,1.7-3.7,3.1-5.6,4.1c-1.9,1-4.1,1.5-6.8,1.5c-2,0-3.9-0.4-5.7-1.2c-1.7-0.8-3.2-1.9-4.5-3.3c-1.3-1.4-2.3-3-2.9-4.9
		c-0.7-1.9-1-3.8-1-5.9v-0.1c0-2.1,0.3-4.1,1-5.9c0.7-1.8,1.7-3.4,2.9-4.8c1.3-1.4,2.8-2.5,4.5-3.3c1.7-0.8,3.6-1.2,5.7-1.2
		c2.5,0,4.6,0.5,6.6,1.5c1.9,1,3.7,2.3,5.5,3.9l4.9-5.6c-1-1-2.1-1.9-3.3-2.7c-1.1-0.8-2.4-1.5-3.7-2.1c-1.4-0.6-2.8-1.1-4.5-1.4
		c-1.6-0.3-3.4-0.5-5.4-0.5c-3.3,0-6.3,0.6-9,1.8c-2.7,1.2-5,2.8-7,4.8c-2,2-3.5,4.4-4.6,7.1c-1.1,2.7-1.6,5.6-1.6,8.6v0.1
		c0,3.1,0.6,6,1.7,8.7c1.1,2.7,2.6,5,4.6,7c2,2,4.3,3.6,6.9,4.7c2.7,1.1,5.6,1.7,8.7,1.7C-157.1,355.4-155.2,355.2-153.6,354.9
		L-153.6,354.9z M-123,348.1c-1.2-0.6-2.2-1.3-3.1-2.3c-0.9-1-1.6-2.1-2-3.3c-0.5-1.2-0.7-2.6-0.7-4v-0.1c0-1.4,0.2-2.7,0.7-4
		c0.4-1.3,1.1-2.4,2-3.3c0.9-0.9,1.9-1.7,3.1-2.2c1.2-0.6,2.5-0.8,4-0.8c1.5,0,2.8,0.3,4,0.8c1.2,0.6,2.2,1.3,3.1,2.2
		c0.9,0.9,1.6,2,2,3.3c0.5,1.3,0.7,2.6,0.7,4.1v0.1c0,1.4-0.2,2.7-0.7,4c-0.4,1.2-1.1,2.3-2,3.3c-0.9,0.9-1.9,1.7-3.1,2.2
		c-1.2,0.6-2.6,0.8-4.1,0.8C-120.5,349-121.8,348.7-123,348.1L-123,348.1z M-112.3,354.1c2.1-0.9,4-2.1,5.5-3.7s2.7-3.3,3.6-5.4
		c0.9-2,1.3-4.2,1.3-6.5v-0.1c0-2.3-0.4-4.5-1.3-6.5c-0.9-2-2.1-3.8-3.6-5.3c-1.5-1.5-3.4-2.7-5.5-3.6c-2.1-0.9-4.4-1.3-6.9-1.3
		c-2.5,0-4.8,0.5-6.9,1.4c-2.1,0.9-3.9,2.1-5.5,3.7c-1.5,1.5-2.7,3.3-3.6,5.4c-0.9,2-1.3,4.2-1.3,6.6v0.1c0,2.3,0.4,4.5,1.3,6.5
		c0.9,2,2.1,3.8,3.6,5.3c1.5,1.5,3.4,2.7,5.5,3.6c2.1,0.9,4.4,1.3,6.8,1.3C-116.7,355.4-114.4,355-112.3,354.1L-112.3,354.1z
		 M-94.3,354.7h7.5v-18.2c0-2.5,0.6-4.5,1.9-5.9c1.3-1.4,2.9-2.1,5-2.1s3.7,0.7,4.8,2c1.1,1.3,1.7,3.3,1.7,5.8v18.4h7.5v-18.3
		c0-2.6,0.6-4.6,1.9-6c1.3-1.4,2.9-2.1,5-2.1c2.1,0,3.7,0.7,4.8,2c1.1,1.3,1.7,3.3,1.7,5.9v18.4h7.5V334c0-4-1-7-3-9.2
		c-2-2.1-4.8-3.2-8.4-3.2c-2.5,0-4.6,0.5-6.4,1.6c-1.8,1.1-3.3,2.4-4.6,4.2c-0.9-1.7-2.1-3.1-3.7-4.2c-1.6-1.1-3.6-1.6-5.9-1.6
		c-1.2,0-2.3,0.2-3.3,0.5c-1,0.3-1.9,0.7-2.7,1.3c-0.8,0.5-1.5,1.1-2.1,1.8c-0.6,0.7-1.2,1.4-1.7,2.1v-5h-7.5V354.7L-94.3,354.7z
		 M-36,354.7h7.5v-18.2c0-2.5,0.6-4.5,1.9-5.9c1.3-1.4,2.9-2.1,5-2.1s3.7,0.7,4.8,2c1.1,1.3,1.7,3.3,1.7,5.8v18.4h7.5v-18.3
		c0-2.6,0.6-4.6,1.9-6c1.3-1.4,2.9-2.1,5-2.1c2.1,0,3.7,0.7,4.8,2c1.1,1.3,1.7,3.3,1.7,5.9v18.4h7.5V334c0-4-1-7-3-9.2
		c-2-2.1-4.8-3.2-8.4-3.2c-2.5,0-4.6,0.5-6.4,1.6c-1.8,1.1-3.3,2.4-4.6,4.2c-0.9-1.7-2.1-3.1-3.7-4.2c-1.6-1.1-3.6-1.6-5.9-1.6
		c-1.2,0-2.3,0.2-3.3,0.5c-1,0.3-1.9,0.7-2.7,1.3c-0.8,0.5-1.5,1.1-2.1,1.8s-1.2,1.4-1.7,2.1v-5H-36V354.7L-36,354.7z M34,348.1
		c-1.2-0.6-2.2-1.3-3.1-2.3c-0.9-1-1.6-2.1-2-3.3c-0.5-1.2-0.7-2.6-0.7-4v-0.1c0-1.4,0.2-2.7,0.7-4c0.4-1.3,1.1-2.4,2-3.3
		c0.9-0.9,1.9-1.7,3.1-2.2c1.2-0.6,2.5-0.8,4-0.8c1.5,0,2.8,0.3,4,0.8c1.2,0.6,2.2,1.3,3.1,2.2c0.9,0.9,1.6,2,2,3.3
		c0.5,1.3,0.7,2.6,0.7,4.1v0.1c0,1.4-0.2,2.7-0.7,4c-0.4,1.2-1.1,2.3-2,3.3c-0.9,0.9-1.9,1.7-3.1,2.2c-1.2,0.6-2.6,0.8-4.1,0.8
		C36.5,349,35.2,348.7,34,348.1L34,348.1z M44.7,354.1c2.1-0.9,4-2.1,5.5-3.7c1.5-1.5,2.7-3.3,3.6-5.4c0.9-2,1.3-4.2,1.3-6.5v-0.1
		c0-2.3-0.4-4.5-1.3-6.5c-0.9-2-2.1-3.8-3.6-5.3c-1.5-1.5-3.4-2.7-5.5-3.6c-2.1-0.9-4.4-1.3-6.9-1.3c-2.5,0-4.8,0.5-6.9,1.4
		c-2.1,0.9-3.9,2.1-5.5,3.7c-1.5,1.5-2.7,3.3-3.6,5.4c-0.9,2-1.3,4.2-1.3,6.6v0.1c0,2.3,0.4,4.5,1.3,6.5c0.9,2,2.1,3.8,3.6,5.3
		c1.5,1.5,3.4,2.7,5.5,3.6c2.1,0.9,4.4,1.3,6.8,1.3C40.3,355.4,42.6,355,44.7,354.1L44.7,354.1z M62.7,354.7h7.5v-18.3
		c0-2.5,0.7-4.5,2-5.9s3.1-2.1,5.2-2.1c2.2,0,3.9,0.7,5.1,2.1c1.2,1.4,1.8,3.3,1.8,5.9v18.4h7.5v-20.6c0-3.8-1-6.8-3-9.1
		c-2-2.3-4.8-3.4-8.5-3.4c-1.3,0-2.4,0.2-3.4,0.5c-1,0.3-1.9,0.7-2.8,1.3c-0.8,0.5-1.6,1.1-2.2,1.8c-0.6,0.7-1.2,1.4-1.7,2.2v-5.1
		h-7.5V354.7L62.7,354.7z M130.6,354.7h7.6v-36h13.6v-7H117v7h13.6V354.7L130.6,354.7z M164.6,336.2c0.3-2.5,1.2-4.6,2.7-6.2
		c1.5-1.6,3.4-2.4,5.7-2.4c1.2,0,2.3,0.2,3.3,0.7c1,0.5,1.8,1.1,2.5,1.8c0.7,0.8,1.2,1.7,1.7,2.7c0.4,1,0.7,2.2,0.8,3.3H164.6
		L164.6,336.2z M181.5,353.8c2.1-1.1,4-2.6,5.6-4.4l-4.4-3.9c-1.3,1.3-2.6,2.2-4,2.9c-1.4,0.7-2.9,1-4.8,1c-2.4,0-4.5-0.7-6.2-2.1
		c-1.7-1.4-2.8-3.4-3.2-6.1h23.8c0-0.4,0.1-0.7,0.1-1.1c0-0.3,0-0.7,0-1c0-2.3-0.3-4.6-1-6.7c-0.7-2.1-1.6-4-2.9-5.6
		c-1.3-1.6-2.9-2.9-4.9-3.8c-1.9-0.9-4.2-1.4-6.8-1.4c-2.3,0-4.5,0.4-6.4,1.3c-1.9,0.9-3.6,2.1-5,3.6c-1.4,1.5-2.5,3.3-3.3,5.4
		c-0.8,2-1.2,4.2-1.2,6.6v0.1c0,2.5,0.4,4.8,1.3,6.8c0.9,2.1,2,3.8,3.5,5.3c1.5,1.5,3.3,2.6,5.3,3.4c2,0.8,4.2,1.2,6.5,1.2
		C176.8,355.4,179.4,354.9,181.5,353.8L181.5,353.8z M196.1,354.7h7.5v-18.2c0-2.5,0.6-4.5,1.9-5.9c1.3-1.4,2.9-2.1,5-2.1
		s3.7,0.7,4.8,2c1.1,1.3,1.7,3.3,1.7,5.8v18.4h7.5v-18.3c0-2.6,0.6-4.6,1.9-6c1.3-1.4,2.9-2.1,5-2.1c2.1,0,3.7,0.7,4.8,2
		c1.1,1.3,1.7,3.3,1.7,5.9v18.4h7.5V334c0-4-1-7-3-9.2c-2-2.1-4.8-3.2-8.4-3.2c-2.5,0-4.6,0.5-6.4,1.6c-1.8,1.1-3.3,2.4-4.6,4.2
		c-0.9-1.7-2.1-3.1-3.7-4.2c-1.6-1.1-3.6-1.6-5.9-1.6c-1.2,0-2.3,0.2-3.3,0.5c-1,0.3-1.9,0.7-2.7,1.3c-0.8,0.5-1.5,1.1-2.1,1.8
		c-0.6,0.7-1.2,1.4-1.7,2.1v-5h-7.5V354.7L196.1,354.7z M267.5,348.2c-1.1-0.5-2.1-1.2-3-2.1c-0.9-0.9-1.5-2-2.1-3.3
		c-0.5-1.3-0.8-2.7-0.8-4.3v-0.1c0-1.6,0.3-3,0.8-4.2c0.5-1.3,1.2-2.4,2.1-3.3c0.9-0.9,1.9-1.6,3-2.1c1.1-0.5,2.4-0.7,3.6-0.7
		c1.3,0,2.5,0.2,3.6,0.7c1.1,0.5,2.1,1.2,2.9,2.1c0.8,0.9,1.5,2,2,3.3c0.5,1.3,0.7,2.7,0.7,4.3v0.1c0,1.6-0.2,3-0.7,4.3
		c-0.5,1.3-1.2,2.4-2,3.3c-0.8,0.9-1.8,1.6-2.9,2.1c-1.1,0.5-2.3,0.7-3.6,0.7C269.9,348.9,268.7,348.7,267.5,348.2L267.5,348.2z
		 M254.4,364.5h7.5v-14.9c1.1,1.5,2.6,2.8,4.3,4c1.8,1.1,4,1.7,6.6,1.7c1.9,0,3.8-0.4,5.6-1.1c1.8-0.7,3.4-1.8,4.8-3.3
		c1.4-1.4,2.5-3.2,3.4-5.3c0.8-2.1,1.3-4.5,1.3-7.2v-0.1c0-2.7-0.4-5.1-1.3-7.2c-0.9-2.1-2-3.8-3.4-5.3c-1.4-1.4-3-2.5-4.8-3.3
		c-1.8-0.7-3.7-1.1-5.6-1.1c-2.6,0-4.8,0.6-6.6,1.8c-1.8,1.2-3.2,2.6-4.4,4.3v-5.4h-7.5V364.5L254.4,364.5z M296,354.7h7.5v-44.8
		H296V354.7L296,354.7z M333.1,343c0,1-0.2,2-0.6,2.8c-0.4,0.8-1,1.6-1.8,2.1c-0.8,0.6-1.7,1.1-2.7,1.4c-1,0.3-2.2,0.5-3.4,0.5
		c-1.8,0-3.2-0.4-4.5-1.2c-1.2-0.8-1.8-2-1.8-3.6v-0.1c0-1.6,0.7-2.8,2-3.7c1.3-0.9,3.1-1.4,5.5-1.4c1.4,0,2.8,0.1,4.1,0.4
		c1.3,0.2,2.4,0.6,3.3,0.9V343L333.1,343z M340.3,354.7v-19.2c0-4.3-1.2-7.7-3.5-10.1c-2.3-2.4-5.9-3.6-10.7-3.6
		c-2.7,0-4.9,0.2-6.8,0.7c-1.9,0.5-3.7,1.1-5.5,2l2,6c1.5-0.6,2.9-1.1,4.4-1.5c1.4-0.4,3.1-0.6,4.9-0.6c2.6,0,4.6,0.6,5.9,1.8
		c1.4,1.2,2.1,2.9,2.1,5.2v0.6c-1.3-0.4-2.6-0.7-4-1c-1.4-0.2-3-0.4-5-0.4c-1.9,0-3.6,0.2-5.2,0.6c-1.6,0.4-3,1.1-4.2,2
		c-1.2,0.9-2.1,2-2.7,3.3c-0.7,1.3-1,2.9-1,4.7v0.1c0,1.6,0.3,3.1,1,4.3c0.6,1.2,1.5,2.3,2.5,3.1c1,0.8,2.3,1.5,3.7,1.9
		c1.4,0.4,2.9,0.6,4.4,0.6c2.5,0,4.5-0.5,6.3-1.4c1.7-0.9,3.1-2,4.2-3.3v4H340.3L340.3,354.7z M363.7,354.8c1.1-0.3,2.1-0.7,3-1.2
		v-6.1c-1.5,0.7-3,1.1-4.6,1.1c-1.3,0-2.3-0.3-2.9-1c-0.7-0.6-1-1.7-1-3.1v-15.9h8.7v-6.4h-8.7v-8.9h-7.5v8.9h-4.1v6.4h4.1v17.1
		c0,1.8,0.2,3.3,0.7,4.5c0.5,1.2,1.1,2.2,2,2.9c0.8,0.7,1.8,1.3,3,1.6c1.2,0.3,2.4,0.5,3.8,0.5C361.4,355.2,362.7,355.1,363.7,354.8
		L363.7,354.8z M379.9,336.2c0.3-2.5,1.2-4.6,2.7-6.2c1.5-1.6,3.4-2.4,5.7-2.4c1.2,0,2.3,0.2,3.3,0.7c1,0.5,1.8,1.1,2.5,1.8
		c0.7,0.8,1.2,1.7,1.7,2.7c0.4,1,0.7,2.2,0.8,3.3H379.9L379.9,336.2z M396.9,353.8c2.1-1.1,4-2.6,5.6-4.4l-4.4-3.9
		c-1.3,1.3-2.6,2.2-4,2.9c-1.4,0.7-2.9,1-4.8,1c-2.4,0-4.5-0.7-6.2-2.1c-1.7-1.4-2.8-3.4-3.2-6.1h23.8c0-0.4,0.1-0.7,0.1-1.1
		c0-0.3,0-0.7,0-1c0-2.3-0.3-4.6-1-6.7c-0.7-2.1-1.6-4-2.9-5.6c-1.3-1.6-2.9-2.9-4.8-3.8c-1.9-0.9-4.2-1.4-6.8-1.4
		c-2.3,0-4.5,0.4-6.4,1.3c-1.9,0.9-3.6,2.1-5,3.6c-1.4,1.5-2.5,3.3-3.3,5.4c-0.8,2-1.2,4.2-1.2,6.6v0.1c0,2.5,0.4,4.8,1.3,6.8
		c0.9,2.1,2,3.8,3.5,5.3c1.5,1.5,3.3,2.6,5.3,3.4c2,0.8,4.2,1.2,6.5,1.2C392.1,355.4,394.7,354.9,396.9,353.8L396.9,353.8z"/>
	<path class="st0" d="M-171.6,266.5V251h8.8c2.8,0,5.1,0.6,6.8,1.9c1.7,1.3,2.5,3.2,2.5,5.8v0.1c0,2.3-0.8,4.1-2.5,5.5
		c-1.7,1.4-3.9,2.2-6.8,2.2H-171.6L-171.6,266.5z M-179.1,287.1h7.5v-13.8h8.6c2.4,0,4.6-0.3,6.7-1c2.1-0.6,3.9-1.6,5.5-2.8
		c1.6-1.2,2.8-2.8,3.7-4.6c0.9-1.8,1.4-3.9,1.4-6.4v-0.1c0-2.2-0.4-4.1-1.1-5.9c-0.8-1.8-1.8-3.3-3.3-4.5c-1.4-1.3-3.1-2.2-5.2-2.9
		c-2-0.7-4.3-1-6.8-1h-16.9V287.1L-179.1,287.1z M-138.9,287.1h7.5v-12.3c0-2.1,0.3-4,0.8-5.6c0.5-1.6,1.3-3,2.3-4
		c1-1.1,2.1-1.9,3.5-2.4c1.4-0.5,2.8-0.8,4.5-0.8h0.4v-7.9c-2.9-0.1-5.2,0.6-7.1,2c-1.9,1.5-3.3,3.4-4.4,5.9v-7.3h-7.5V287.1
		L-138.9,287.1z M-102,280.6c-1.2-0.6-2.2-1.3-3.1-2.3c-0.9-1-1.6-2.1-2-3.3c-0.5-1.2-0.7-2.6-0.7-4v-0.1c0-1.4,0.2-2.7,0.7-4
		c0.4-1.3,1.1-2.4,2-3.3s1.9-1.7,3.1-2.2c1.2-0.6,2.5-0.8,4-0.8c1.5,0,2.8,0.3,4,0.8c1.2,0.6,2.2,1.3,3.1,2.2c0.9,0.9,1.6,2,2,3.3
		c0.5,1.3,0.7,2.6,0.7,4.1v0.1c0,1.4-0.2,2.7-0.7,4c-0.4,1.2-1.1,2.3-2,3.3c-0.9,0.9-1.9,1.7-3.1,2.2c-1.2,0.6-2.6,0.8-4.1,0.8
		C-99.5,281.4-100.8,281.2-102,280.6L-102,280.6z M-91.2,286.5c2.1-0.9,4-2.1,5.5-3.7c1.5-1.5,2.7-3.3,3.6-5.4
		c0.9-2,1.3-4.2,1.3-6.5v-0.1c0-2.3-0.4-4.5-1.3-6.5c-0.9-2-2.1-3.8-3.6-5.3c-1.5-1.5-3.4-2.7-5.5-3.6c-2.1-0.9-4.4-1.3-6.9-1.3
		c-2.5,0-4.8,0.5-6.9,1.4c-2.1,0.9-3.9,2.1-5.5,3.7c-1.5,1.5-2.7,3.3-3.6,5.4c-0.9,2-1.3,4.2-1.3,6.6v0.1c0,2.3,0.4,4.5,1.3,6.5
		c0.9,2,2.1,3.8,3.6,5.3c1.5,1.5,3.4,2.7,5.5,3.6c2.1,0.9,4.4,1.3,6.8,1.3C-95.7,287.9-93.4,287.4-91.2,286.5L-91.2,286.5z
		 M-61.7,280.6c-1.1-0.5-2.1-1.2-3-2.1c-0.9-0.9-1.5-2-2-3.3c-0.5-1.3-0.7-2.7-0.7-4.3v-0.1c0-1.6,0.2-3,0.7-4.3
		c0.5-1.3,1.2-2.4,2-3.3c0.9-0.9,1.8-1.6,3-2.1c1.1-0.5,2.3-0.7,3.6-0.7c1.2,0,2.4,0.2,3.5,0.7c1.1,0.5,2.1,1.2,3,2.1
		c0.9,0.9,1.5,2,2.1,3.3c0.5,1.3,0.8,2.7,0.8,4.3v0.1c0,1.6-0.3,3-0.8,4.2c-0.5,1.3-1.2,2.4-2.1,3.3c-0.9,0.9-1.9,1.6-3,2.1
		c-1.1,0.5-2.3,0.7-3.5,0.7C-59.4,281.4-60.6,281.1-61.7,280.6L-61.7,280.6z M-53.3,286c1.8-1.2,3.3-2.6,4.5-4.3l-0.1,5.4h7.5v-44.8
		h-7.5v17.4c-1.2-1.5-2.7-2.8-4.4-4c-1.8-1.1-4-1.7-6.6-1.7c-1.9,0-3.8,0.4-5.6,1.1c-1.8,0.7-3.4,1.8-4.8,3.3
		c-1.4,1.4-2.5,3.2-3.3,5.3c-0.8,2.1-1.3,4.5-1.3,7.2v0.1c0,2.7,0.4,5.1,1.3,7.2c0.9,2.1,2,3.8,3.4,5.3c1.4,1.4,3,2.5,4.8,3.3
		c1.8,0.7,3.7,1.1,5.6,1.1C-57.2,287.8-55,287.2-53.3,286L-53.3,286z M-14.8,286.1c1.6-1.1,2.9-2.5,4-4.1v5.1h7.5v-32.4h-7.5V273
		c0,2.5-0.7,4.5-2,5.9c-1.3,1.4-3.1,2.1-5.2,2.1c-2.2,0-3.9-0.7-5.1-2.1c-1.2-1.4-1.8-3.3-1.8-5.9v-18.4h-7.5v20.6
		c0,3.8,1,6.8,3,9.1c2,2.3,4.8,3.4,8.5,3.4C-18.5,287.8-16.4,287.2-14.8,286.1L-14.8,286.1z M28.8,286.2c2-1.1,3.9-2.6,5.5-4.4
		l-4.5-4.4c-1.2,1.2-2.4,2.2-3.8,2.9c-1.3,0.8-2.9,1.1-4.6,1.1c-1.4,0-2.7-0.3-3.9-0.8c-1.2-0.6-2.2-1.3-3.1-2.2
		c-0.9-0.9-1.5-2-2-3.3c-0.5-1.3-0.7-2.6-0.7-4.1v-0.1c0-1.4,0.2-2.7,0.7-4c0.5-1.3,1.1-2.4,1.9-3.3s1.8-1.7,2.9-2.2
		c1.1-0.6,2.4-0.8,3.7-0.8c1.9,0,3.5,0.4,4.8,1.1c1.3,0.8,2.5,1.7,3.7,2.9l4.6-5c-1.5-1.7-3.3-3-5.3-4.1c-2-1-4.6-1.5-7.6-1.5
		c-2.4,0-4.7,0.5-6.7,1.4c-2.1,0.9-3.9,2.1-5.4,3.7c-1.5,1.5-2.7,3.3-3.5,5.4c-0.8,2.1-1.3,4.2-1.3,6.5v0.1c0,2.3,0.4,4.5,1.3,6.5
		c0.8,2,2,3.8,3.5,5.3c1.5,1.5,3.3,2.7,5.3,3.6c2,0.9,4.3,1.3,6.7,1.3C24.2,287.9,26.8,287.3,28.8,286.2L28.8,286.2z M55.6,287.3
		c1.1-0.3,2.1-0.7,3-1.2V280c-1.5,0.7-3,1.1-4.6,1.1c-1.3,0-2.3-0.3-2.9-1c-0.7-0.6-1-1.7-1-3.1v-15.9h8.7v-6.4H50v-8.9h-7.5v8.9
		h-4.1v6.4h4.1v17.1c0,1.8,0.2,3.3,0.7,4.5c0.5,1.2,1.1,2.2,1.9,2.9c0.8,0.7,1.8,1.3,3,1.6c1.2,0.3,2.4,0.5,3.8,0.5
		C53.3,287.7,54.6,287.5,55.6,287.3L55.6,287.3z M111,287.4c1.7-0.3,3.2-0.9,4.6-1.5c1.4-0.7,2.7-1.5,3.9-2.4s2.4-2,3.5-3.2
		l-4.9-4.9c-1.8,1.7-3.7,3.1-5.6,4.1c-1.9,1-4.1,1.5-6.8,1.5c-2,0-3.9-0.4-5.7-1.2c-1.7-0.8-3.2-1.9-4.5-3.3c-1.3-1.4-2.3-3-2.9-4.9
		c-0.7-1.9-1-3.8-1-5.9v-0.1c0-2.1,0.3-4.1,1-5.9c0.7-1.8,1.7-3.4,2.9-4.8c1.3-1.4,2.8-2.5,4.5-3.3c1.7-0.8,3.6-1.2,5.7-1.2
		c2.5,0,4.6,0.5,6.6,1.5c1.9,1,3.7,2.3,5.5,3.9l4.9-5.6c-1-1-2.1-1.9-3.3-2.7c-1.1-0.8-2.4-1.5-3.7-2.1c-1.4-0.6-2.8-1.1-4.5-1.4
		c-1.6-0.3-3.4-0.5-5.4-0.5c-3.3,0-6.3,0.6-9,1.7c-2.7,1.2-5,2.8-7,4.8c-2,2-3.5,4.4-4.6,7.1c-1.1,2.7-1.6,5.6-1.6,8.6v0.1
		c0,3.1,0.6,6,1.7,8.7c1.1,2.7,2.6,5,4.6,7c2,2,4.3,3.6,6.9,4.7c2.7,1.1,5.6,1.7,8.7,1.7C107.5,287.9,109.3,287.7,111,287.4
		L111,287.4z M141.5,280.6c-1.2-0.6-2.2-1.3-3.1-2.3c-0.9-1-1.6-2.1-2-3.3c-0.5-1.2-0.7-2.6-0.7-4v-0.1c0-1.4,0.2-2.7,0.7-4
		c0.4-1.3,1.1-2.4,2-3.3s1.9-1.7,3.1-2.2c1.2-0.6,2.5-0.8,4-0.8c1.5,0,2.8,0.3,4,0.8c1.2,0.6,2.2,1.3,3.1,2.2c0.9,0.9,1.6,2,2,3.3
		c0.5,1.3,0.7,2.6,0.7,4.1v0.1c0,1.4-0.2,2.7-0.7,4c-0.4,1.2-1.1,2.3-2,3.3c-0.9,0.9-1.9,1.7-3.1,2.2c-1.2,0.6-2.6,0.8-4.1,0.8
		C144,281.4,142.7,281.2,141.5,280.6L141.5,280.6z M152.3,286.5c2.1-0.9,4-2.1,5.5-3.7s2.7-3.3,3.6-5.4c0.9-2,1.3-4.2,1.3-6.5v-0.1
		c0-2.3-0.4-4.5-1.3-6.5c-0.9-2-2.1-3.8-3.6-5.3c-1.5-1.5-3.4-2.7-5.5-3.6c-2.1-0.9-4.4-1.3-6.9-1.3c-2.5,0-4.8,0.5-6.9,1.4
		c-2.1,0.9-3.9,2.1-5.5,3.7s-2.7,3.3-3.6,5.4c-0.9,2-1.3,4.2-1.3,6.6v0.1c0,2.3,0.4,4.5,1.3,6.5c0.9,2,2.1,3.8,3.6,5.3
		c1.5,1.5,3.4,2.7,5.5,3.6c2.1,0.9,4.4,1.3,6.8,1.3C147.8,287.9,150.1,287.4,152.3,286.5L152.3,286.5z M170.3,287.1h7.5v-18.3
		c0-2.5,0.7-4.5,2-5.9c1.3-1.4,3.1-2.1,5.2-2.1c2.2,0,3.9,0.7,5.1,2.1s1.8,3.3,1.8,5.9v18.4h7.5v-20.6c0-3.8-1-6.8-3-9.1
		c-2-2.3-4.8-3.4-8.5-3.4c-1.3,0-2.4,0.2-3.4,0.5c-1,0.3-1.9,0.7-2.8,1.3c-0.8,0.5-1.6,1.1-2.2,1.8c-0.6,0.7-1.2,1.4-1.7,2.2v-5.1
		h-7.5V287.1L170.3,287.1z M222.9,287.3c1.1-0.3,2.1-0.7,3-1.2V280c-1.5,0.7-3,1.1-4.6,1.1c-1.3,0-2.3-0.3-2.9-1
		c-0.7-0.6-1-1.7-1-3.1v-15.9h8.7v-6.4h-8.7v-8.9h-7.5v8.9h-4.1v6.4h4.1v17.1c0,1.8,0.2,3.3,0.7,4.5c0.5,1.2,1.1,2.2,1.9,2.9
		c0.8,0.7,1.8,1.3,3,1.6c1.2,0.3,2.4,0.5,3.8,0.5C220.7,287.7,221.9,287.5,222.9,287.3L222.9,287.3z M233.5,287.1h7.5v-12.3
		c0-2.1,0.3-4,0.8-5.6s1.3-3,2.3-4c1-1.1,2.1-1.9,3.5-2.4c1.4-0.5,2.8-0.8,4.5-0.8h0.4v-7.9c-2.9-0.1-5.2,0.6-7.1,2
		c-1.9,1.5-3.3,3.4-4.4,5.9v-7.3h-7.5V287.1L233.5,287.1z M270.5,280.6c-1.2-0.6-2.2-1.3-3.1-2.3c-0.9-1-1.6-2.1-2-3.3
		c-0.5-1.2-0.7-2.6-0.7-4v-0.1c0-1.4,0.2-2.7,0.7-4c0.4-1.3,1.1-2.4,2-3.3s1.9-1.7,3.1-2.2c1.2-0.6,2.5-0.8,4-0.8
		c1.5,0,2.8,0.3,4,0.8c1.2,0.6,2.2,1.3,3.1,2.2c0.9,0.9,1.6,2,2,3.3c0.5,1.3,0.7,2.6,0.7,4.1v0.1c0,1.4-0.2,2.7-0.7,4
		c-0.4,1.2-1.1,2.3-2,3.3c-0.9,0.9-1.9,1.7-3.1,2.2c-1.2,0.6-2.6,0.8-4.1,0.8C273,281.4,271.7,281.2,270.5,280.6L270.5,280.6z
		 M281.2,286.5c2.1-0.9,4-2.1,5.5-3.7c1.5-1.5,2.7-3.3,3.6-5.4c0.9-2,1.3-4.2,1.3-6.5v-0.1c0-2.3-0.4-4.5-1.3-6.5
		c-0.9-2-2.1-3.8-3.6-5.3c-1.5-1.5-3.4-2.7-5.5-3.6c-2.1-0.9-4.4-1.3-6.9-1.3s-4.8,0.5-6.9,1.4c-2.1,0.9-3.9,2.1-5.5,3.7
		c-1.5,1.5-2.7,3.3-3.6,5.4c-0.9,2-1.3,4.2-1.3,6.6v0.1c0,2.3,0.4,4.5,1.3,6.5c0.9,2,2.1,3.8,3.6,5.3c1.5,1.5,3.4,2.7,5.5,3.6
		c2.1,0.9,4.4,1.3,6.8,1.3C276.8,287.9,279.1,287.4,281.2,286.5L281.2,286.5z M299.6,287.1h7.5v-44.8h-7.5V287.1L299.6,287.1z"/>
</g>
</svg>
