<?xml version="1.0" encoding="utf-8"?>
<!-- Generator: Adobe Illustrator 26.3.1, SVG Export Plug-In . SVG Version: 6.00 Build 0)  -->
<svg version="1.1" id="Layer_1" xmlns="http://www.w3.org/2000/svg" xmlns:xlink="http://www.w3.org/1999/xlink" x="0px" y="0px"
	 viewBox="0 0 498.5 540.2" style="enable-background:new 0 0 498.5 540.2;" xml:space="preserve">
<style type="text/css">
	.st0{fill:#00000A;}
</style>
<g>
	<path class="st0" d="M405.5,359.3V188.5l-137.7,79.5c0.1,0.7,0.4,1.4,0.4,2.1c0,8.6-5.8,15.5-13.6,17.9v158.4L405.5,359.3
		L405.5,359.3z"/>
	<path class="st0" d="M264,258.8l135.8-78.4v-0.4l-150.6-86l-150.6,86v0.4l135.8,78.4c3.5-4.5,8.7-7.6,14.8-7.6
		C255.4,251.2,260.6,254.3,264,258.8L264,258.8z"/>
	<path class="st0" d="M230.7,268.1L93,188.5v170.8l150.8,87.1V288c-7.8-2.4-13.6-9.3-13.6-17.9C230.3,269.4,230.6,268.8,230.7,268.1
		L230.7,268.1z"/>
	<path class="st0" d="M249.3,67.3c-1.4,0-2.6-1.2-2.6-2.6V2.6c0-1.4,1.2-2.6,2.6-2.6s2.6,1.1,2.6,2.6v62.1
		C251.8,66.1,250.7,67.3,249.3,67.3L249.3,67.3z"/>
	<path class="st0" d="M249.3,473c-1.4,0-2.6,1.2-2.6,2.6v62.1c0,1.4,1.2,2.6,2.6,2.6s2.6-1.2,2.6-2.6v-62.1
		C251.8,474.1,250.7,473,249.3,473L249.3,473z"/>
	<path class="st0" d="M71.2,158.2c-0.8,1.2-2.4,1.5-3.6,0.7l-51.5-34.7c-1.2-0.8-1.5-2.4-0.7-3.6c0.8-1.2,2.4-1.5,3.6-0.7l51.5,34.7
		C71.7,155.4,72,157,71.2,158.2L71.2,158.2z"/>
	<path class="st0" d="M71.2,382c-0.8-1.2-2.4-1.5-3.6-0.7L16.1,416c-1.2,0.8-1.5,2.4-0.7,3.6c0.8,1.2,2.4,1.5,3.6,0.7l51.5-34.7
		C71.7,384.8,72,383.2,71.2,382L71.2,382z"/>
	<path class="st0" d="M427.3,158.2c0.8,1.2,2.4,1.5,3.6,0.7l51.5-34.7c1.2-0.8,1.5-2.4,0.7-3.6c-0.8-1.2-2.4-1.5-3.6-0.7L428,154.7
		C426.8,155.4,426.5,157,427.3,158.2L427.3,158.2z"/>
	<path class="st0" d="M427.3,382c0.8-1.2,2.4-1.5,3.6-0.7l51.5,34.7c1.2,0.8,1.5,2.4,0.7,3.6c-0.8,1.2-2.4,1.5-3.6,0.7L428,385.6
		C426.8,384.8,426.5,383.2,427.3,382L427.3,382z"/>
	<path class="st0" d="M114.5,48.5l12.6,34.1c0.2,0.6,0.7,1.1,1.3,1.4c0.6,0.3,1.3,0.3,1.9,0l17.5-7l5.1,28.1
		c0.1,0.8,0.7,1.5,1.4,1.8c0.5,0.2,1,0.3,1.5,0.1c1.4-0.3,2.3-1.6,2-3l-5.6-31c-0.1-0.7-0.6-1.4-1.2-1.7c-0.6-0.4-1.4-0.4-2.1-0.1
		l-18,7.2l-11.7-31.8c-0.4-1.2-1.8-1.9-3-1.5l-0.6-1l0.4,1.1C114.7,45.7,114,47.2,114.5,48.5L114.5,48.5z"/>
	<path class="st0" d="M114.5,491.7l12.6-34.1c0.2-0.6,0.7-1.1,1.3-1.4c0.6-0.3,1.3-0.3,1.9,0l17.5,7l5.1-28.1
		c0.1-0.8,0.7-1.5,1.4-1.8c0.5-0.2,1-0.3,1.5-0.1c1.4,0.3,2.3,1.6,2,3l-5.6,31c-0.1,0.7-0.6,1.4-1.2,1.7c-0.6,0.4-1.4,0.4-2.1,0.1
		l-18-7.2l-11.7,31.8c-0.4,1.2-1.8,1.9-3,1.5l-0.6,1l0.4-1.1C114.7,494.5,114,493,114.5,491.7L114.5,491.7z"/>
	<path class="st0" d="M384,48.5l-12.6,34.1c-0.2,0.6-0.7,1.1-1.3,1.4c-0.6,0.3-1.3,0.3-1.9,0l-17.5-7l-5.1,28.1
		c-0.1,0.8-0.7,1.5-1.4,1.8c-0.5,0.2-1,0.3-1.5,0.1c-1.4-0.3-2.3-1.6-2-3l5.6-31c0.1-0.7,0.6-1.4,1.2-1.7c0.6-0.4,1.4-0.4,2.1-0.1
		l18,7.2l11.7-31.8c0.4-1.2,1.8-1.9,3-1.5l0.6-1l-0.4,1.1C383.9,45.7,384.5,47.2,384,48.5L384,48.5z"/>
	<path class="st0" d="M384,491.7l-12.6-34.1c-0.2-0.6-0.7-1.1-1.3-1.4c-0.6-0.3-1.3-0.3-1.9,0l-17.5,7l-5.1-28.1
		c-0.1-0.8-0.7-1.5-1.4-1.8c-0.5-0.2-1-0.3-1.5-0.1c-1.4,0.3-2.3,1.6-2,3l5.6,31c0.1,0.7,0.6,1.4,1.2,1.7c0.6,0.4,1.4,0.4,2.1,0.1
		l18-7.2l11.7,31.8c0.4,1.2,1.8,1.9,3,1.5l0.6,1l-0.4-1.1C383.9,494.5,384.5,493,384,491.7L384,491.7z"/>
	<path class="st0" d="M494.6,284.8l-36.3-2.7c-0.7,0-1.3-0.4-1.7-0.9c-0.4-0.5-0.6-1.1-0.5-1.8l1.9-18.8l-28.4,2.8
		c-0.8,0.1-1.6-0.2-2.1-0.8c-0.3-0.4-0.5-0.9-0.5-1.4c-0.1-1.4,0.9-2.6,2.3-2.8l31.4-3.1c0.7-0.1,1.5,0.2,2,0.7
		c0.5,0.5,0.8,1.3,0.7,2l-1.9,19.3l33.8,2.5c1.3,0.1,2.3,1.2,2.2,2.5l1.1,0.3l-1.1-0.1C497.2,283.9,496,285,494.6,284.8L494.6,284.8
		z"/>
	<path class="st0" d="M3.9,284.8l36.3-2.7c0.7,0,1.3-0.4,1.7-0.9c0.4-0.5,0.6-1.1,0.5-1.8l-1.9-18.8l28.4,2.8
		c0.8,0.1,1.6-0.2,2.1-0.8c0.3-0.4,0.5-0.9,0.5-1.4c0.1-1.4-0.9-2.6-2.3-2.8l-31.4-3.1c-0.7-0.1-1.5,0.2-2,0.7
		c-0.5,0.5-0.8,1.3-0.7,2l1.9,19.3l-33.8,2.5c-1.3,0.1-2.3,1.2-2.2,2.5L0,282.6l1.1-0.1C1.3,283.9,2.5,285,3.9,284.8L3.9,284.8z"/>
</g>
</svg>
