<?xml version="1.0" encoding="UTF-8"?>
<svg id="Layer_1" xmlns="http://www.w3.org/2000/svg" version="1.1" viewBox="0 0 619.3846 539.7996">
  <!-- Generator: Adobe Illustrator 29.5.1, SVG Export Plug-In . SVG Version: 2.1.0 Build 141)  -->
  <defs>
    <style>
      .st0 {
        opacity: .5;
      }

      .st0, .st1, .st2 {
        fill: #fff;
      }

      .st1 {
        opacity: .75;
      }
    </style>
  </defs>
  <path class="st2" d="M0,399.9996v138h28v-56.4001h39.7996v-23.5999H28v-34.4001h44.7996v-23.6H0ZM119.7976,399.9996h-28v138h28v-138h0ZM209.1956,399.9996v76.6l-39.2-76.6h-23.2v138h28v-75.4l39,75.4h23.4v-138h-28ZM254.9936,480.1996h43.2v-22.4h-43.2v22.4h0ZM403.3896,478.7996v-19.6c0-42.6-18-61-45.6-61s-45.6,18.4-45.6,61v19.6c0,42.6,18,61,45.6,61s45.6-18.4,45.6-61h0ZM340.1896,478.7996v-19.6c0-27.6,5.6-37.4,17.6-37.4s17.6,9.8,17.6,37.4v19.6c0,27.6-5.6,37.4-17.6,37.4s-17.6-9.8-17.6-37.4h0ZM509.1876,442.7996c-3.8-30.2-19.6-44.6-42.2-44.6-27,0-45.6,18.4-45.6,61v19.6c0,42.2,18.6,61,45.6,61,23.9999,0,38.2-13.6,42.2-44.6h-26.6c-1.8,14-5.6,21-15.6,21-12.4,0-17.6-11.8001-17.6-37.4v-19.6c0-26.4,5.2-37.4,17.6-37.4,10,0,14.2,8,15.6,21h26.6ZM619.3846,537.9996l-23.4-59c11.8-6,19.2001-18.2,19.2001-36.8,0-28-17.4001-42.2-44.0001-42.2h-43.2v138h28v-54.2h13.7999l20.2001,54.2h29.4ZM555.9846,460.1996v-36.4h12c11.7999,0,19.2,4,19.2,18.4s-7.4001,18-19.2,18h-12Z"/>
  <path class="st0" d="M379.1096,283.9776h-116.747v-72.572h116.747v72.572M240.2756,72.5716h-72.572V0h72.572v72.5716"/>
  <path class="st2" d="M451.6816,283.9776v-72.572h-72.572v72.572h72.572M240.2756,72.5716h116.747V0h-116.747v72.5716"/>
  <path class="st1" d="M451.6816,211.4056h-72.572v-116.746h72.572v116.746M240.2756,189.3186h-72.572v-116.747h72.572v116.747"/>
  <polyline class="st2" points="451.6816 211.4056 379.1096 211.4056 379.1096 211.4056 451.6816 211.4056 451.6816 211.4056"/>
</svg>