<?xml version="1.0" encoding="UTF-8"?>
<svg id="Layer_1" xmlns="http://www.w3.org/2000/svg" version="1.1" viewBox="0 0 619.385 539.8001">
  <!-- Generator: Adobe Illustrator 29.5.1, SVG Export Plug-In . SVG Version: 2.1.0 Build 141)  -->
  <defs>
    <style>
      .st0 {
        fill: #007dff;
      }

      .st1 {
        fill: #00ce00;
      }

      .st2 {
        fill: #233158;
      }
    </style>
  </defs>
  <path class="st2" d="M0,400.0001v138h28v-56.4h39.8v-23.6H28v-34.4h44.8v-23.6H0ZM119.798,400.0001h-28v138h28v-138h0ZM209.196,400.0001v76.6l-39.2-76.6h-23.2v138h28v-75.4l39,75.4h23.4v-138h-28ZM254.994,480.2001h43.2v-22.4h-43.2v22.4h0ZM403.39,478.8v-19.6c0-42.6-18-61-45.6-61s-45.6,18.4-45.6,61v19.6c0,42.6001,18,61,45.6,61s45.6-18.4,45.6-61h0ZM340.19,478.8v-19.6c0-27.6,5.6-37.4,17.6-37.4s17.6,9.8,17.6,37.4v19.6c0,27.6001-5.6,37.4-17.6,37.4s-17.6-9.8-17.6-37.4h0ZM509.188,442.8001c-3.8-30.2-19.6-44.6-42.2-44.6-27,0-45.6,18.4-45.6,61v19.6c0,42.2,18.6,61,45.6,61,24,0,38.2-13.6,42.2-44.6h-26.6c-1.8,14.0001-5.6001,21-15.6,21-12.4,0-17.6-11.8-17.6-37.4v-19.6c0-26.4,5.2-37.4,17.6-37.4,9.9999,0,14.2,8,15.6,21h26.6ZM619.385,538.0001l-23.4-59c11.8-6,19.2-18.2,19.2-36.8,0-28-17.4001-42.2-43.9999-42.2h-43.2001v138h28v-54.2h13.8l20.2,54.2h29.4ZM555.985,460.2001v-36.4h12c11.7999,0,19.2,4,19.2,18.4s-7.4,18-19.2,18h-12Z"/>
  <path class="st1" d="M379.109,283.9781v-72.572h-116.746v72.572h116.746ZM167.704,72.5721h72.572V0h-72.572v72.5721h0Z"/>
  <path class="st2" d="M451.682,283.9781v-72.572h-72.573v72.572h72.573ZM240.276,72.5721h116.746V0h-116.746v72.5721h0Z"/>
  <path class="st0" d="M451.682,211.4061v-116.747h-72.573v116.747h72.573ZM167.704,189.3191h72.572v-116.747h-72.572v116.747h0Z"/>
</svg>