<?xml version="1.0" encoding="utf-8"?>
<!-- Generator: Adobe Illustrator 24.1.0, SVG Export Plug-In . SVG Version: 6.00 Build 0)  -->
<svg version="1.1" id="Layer_1" xmlns="http://www.w3.org/2000/svg" xmlns:xlink="http://www.w3.org/1999/xlink" x="0px" y="0px"
	 viewBox="0 0 719.99 211.53" style="enable-background:new 0 0 719.99 211.53;" xml:space="preserve">
<style type="text/css">
	.st0{fill:#00000A;}
</style>
<g>
	<path class="st0" d="M172.99,194.91v-0.38c0,3.67-2.98,6.65-6.65,6.65H48.41c-3.67,0-6.65-2.98-6.65-6.65v0.38
		c0,9.18,7.44,16.62,16.62,16.62h97.99C165.55,211.53,172.99,204.09,172.99,194.91L172.99,194.91z"/>
	<path class="st0" d="M158.91,73.23c-2.63-3.22-5.55-6.21-8.77-8.85c-8.35-1.82-24.52-5.41-29.14-6.87
		c-4.76-1.5-5.93-5.26-6.22-7.03c-1.37-0.09-2.73-0.21-4.13-0.21h-6.57c-1.24,0-2.46,0.11-3.68,0.19c-0.28,1.76-1.44,5.54-6.22,7.05
		c-4.73,1.5-21.61,5.23-29.76,7.01c-3.15,2.6-6,5.54-8.59,8.71c4.09-1.54,8.51-2.42,13.14-2.42c20.65,0,37.4,16.74,37.4,37.4
		s-16.74,37.4-37.4,37.4c-10.74,0-20.4-4.55-27.22-11.81v58.41c0,3.67,2.98,6.65,6.65,6.65h117.94c3.67,0,6.65-2.98,6.65-6.65V133.8
		c-6.82,7.25-16.48,11.81-27.22,11.81c-20.66,0-37.4-16.75-37.4-37.4s16.74-37.4,37.4-37.4C150.41,70.81,154.82,71.69,158.91,73.23
		L158.91,73.23z M107.53,154.59c7.77,0,15.54,0,23.3,0c0.03,0,0.04,0.01,0.06,0.01c0.13,0,0.26,0,0.4,0c0.55,0,0.96,0.07,1.36,0.16
		c0.03,0.01,0.09,0.01,0.12,0.02c1.04,0.27,1.52,0.95,1.59,2.14c0.04,0.53,0.04,1.14-0.04,1.92c-0.49,4.96-2.45,9.68-5.33,13.68
		c-2.6,3.77-5.96,6.76-9.86,8.77c-0.08,0.04-0.15,0.08-0.23,0.12c-1.1,0.55-2.23,1.04-3.41,1.43c-0.57,0.2-1.15,0.34-1.73,0.5
		c-0.75,0.19-1.51,0.35-2.28,0.48c-0.35,0.05-0.68,0.18-1.03,0.22c-1.04,0.11-2.06,0.15-3.07,0.14c-1.01,0.01-2.03-0.03-3.07-0.14
		c-0.35-0.04-0.68-0.16-1.03-0.22c-0.77-0.13-1.53-0.29-2.28-0.48c-0.58-0.15-1.16-0.3-1.73-0.5c-1.17-0.39-2.31-0.88-3.4-1.43
		c-0.08-0.04-0.16-0.07-0.23-0.12c-3.89-2.01-7.26-5-9.86-8.77c-2.88-4.01-4.84-8.72-5.33-13.68c-0.08-0.79-0.08-1.4-0.04-1.94
		c0.07-1.18,0.55-1.85,1.59-2.12c0.03-0.01,0.09-0.01,0.12-0.02c0.39-0.09,0.81-0.16,1.36-0.16c0.13,0,0.26,0,0.4,0
		c0.02,0,0.04-0.01,0.06-0.01c7.77-0.01,15.54,0,23.3,0c0.05,0,0.1,0,0.15,0C107.43,154.59,107.48,154.59,107.53,154.59
		L107.53,154.59z M86.39,52.86c2.1-0.62,4.26-1.12,6.45-1.52C90.9,51.8,88.71,52.32,86.39,52.86L86.39,52.86z"/>
	<path class="st0" d="M214.76,63.25c0-8.47-6.65-15.33-14.85-15.33s-14.85,6.86-14.85,15.33c0,6.08,3.45,11.28,8.42,13.76
		c-1.74,8.38-3.5,16.76-5.16,25.16c-0.2,1.03,0,2.22,0.31,3.25c3,9.83,6.02,19.66,9.14,29.46c0.58,1.83,0.47,3.39-0.27,5.12
		c-3.56,8.29-7.04,16.61-10.55,24.93c-1.91,4.52-2.47,4.84-7.71,4.21c0.01-4.31,0.22-8.86-4.87-10.2v29.76
		c2.93-0.82,4.74-2.98,4.82-6.23c0.05-2.14,0.01-4.29,0.01-6.8c2.51,0,4.92-0.09,7.32,0.03c2.17,0.11,3.41-0.8,4.27-2.76
		c4.81-10.97,9.74-21.89,14.48-32.9c0.58-1.35,0.66-3.25,0.23-4.66c-3-9.91-6.26-19.73-9.28-29.64c-0.52-1.7-0.64-3.69-0.33-5.44
		c1.27-7.27,2.76-14.5,4.17-21.74C208.19,78.47,214.76,71.66,214.76,63.25L214.76,63.25z M40.39,158.93
		c-5.09,1.33-4.88,5.89-4.87,10.2c-5.24,0.63-5.8,0.32-7.71-4.21c-3.51-8.31-6.99-16.64-10.55-24.93c-0.74-1.73-0.85-3.3-0.27-5.12
		c3.12-9.79,6.14-19.62,9.14-29.46c0.31-1.03,0.51-2.22,0.31-3.25c-1.66-8.4-3.43-16.77-5.16-25.16c4.96-2.48,8.42-7.68,8.42-13.76
		c0-8.47-6.65-15.33-14.85-15.33S0,54.78,0,63.25c0,8.41,6.56,15.22,14.69,15.31c1.42,7.24,2.9,14.47,4.17,21.74
		c0.31,1.75,0.19,3.74-0.33,5.44c-3.02,9.9-6.28,19.73-9.28,29.64c-0.43,1.42-0.35,3.31,0.23,4.66c4.73,11.01,9.67,21.93,14.48,32.9
		c0.86,1.96,2.1,2.87,4.27,2.76c2.4-0.12,4.82-0.03,7.32-0.03c0,2.51-0.04,4.66,0.01,6.8c0.08,3.25,1.9,5.41,4.83,6.23V158.93
		L40.39,158.93z"/>
	<path class="st0" d="M79.99,3.73c2.1,0.86,4.31,1.53,6.28,2.63c2.46,1.36,4.71,3.09,7.08,4.61c2.28,1.46,2.99,1.31,4.48-1.02
		c1.04-1.62,1.92-3.34,2.95-4.97c0.59-0.93,1.25-1.85,2.02-2.64c3.01-3.11,6.93-3.16,9.69,0.16c1.79,2.14,3.09,4.69,4.59,7.07
		c1.72,2.73,2.41,2.87,5.15,1.14c2.94-1.86,5.78-3.94,8.9-5.44c5.54-2.66,9.27-0.97,10.37,5c1.07,5.79,4.54,9.23,9.71,10.77
		c7.08,2.1,14.34,3.61,21.55,5.26c4.86,1.11,9.71,2.23,13.8,5.28c1.47,1.1,2.93,2.34,3.99,3.81c0.51,0.7,0.52,2.51-0.01,3.05
		c-0.61,0.61-2.62,0.9-3.1,0.42c-7.42-7.52-17.44-7.48-26.76-9.46c-4.99-1.06-10.01-2.07-14.96-3.29c-4.21-1.04-6.85-3.97-8.42-7.91
		c-0.77-1.93-1.39-3.91-2.17-5.83c-0.83-2.05-1.36-2.2-3.06-0.83c-1.67,1.35-3.2,2.89-4.91,4.19c-1.58,1.21-3.23,2.41-5.01,3.27
		c-3.09,1.5-5.36,0.98-7.5-1.7c-1.75-2.2-3.19-4.64-4.83-6.93c-1.76-2.46-2.73-2.46-4.5,0.03c-1.46,2.05-2.73,4.25-4.24,6.26
		c-2.61,3.47-5.15,4.15-8.88,1.89c-2.89-1.75-5.48-4.03-8.1-6.2c-2.86-2.36-3.71-2.4-4.43,1.1c-2.26,11.03-10.57,13.6-19.97,15.11
		c-7.02,1.13-14,2.51-20.94,4.04c-3.95,0.87-7.53,2.73-10.36,5.76c-1.17,1.25-2.48,1.31-3.75,0.26c-1.35-1.11-0.93-2.38,0.02-3.51
		c3.22-3.83,7.4-6.23,12.16-7.4c6.26-1.54,12.61-2.67,18.9-4.09c4.78-1.08,9.51-2.38,13.5-5.44c2.14-1.64,3.47-3.75,4.04-6.44
		c0.36-1.72,0.96-3.43,1.76-5C75.99,4.88,77.74,4.07,79.99,3.73L79.99,3.73z"/>
	<path class="st0" d="M140.39,60.15c-5.56-1.44-11.11-2.95-16.7-4.28c-3.08-0.73-5.43-2.22-6.82-5.11
		c-1.21-3.62-0.23-6.88,2.29-9.43c2.54-2.57,5.76-2.54,9.12-1.31c12.95,4.72,25.93,9.34,38.9,14.02c0.97,0.35,1.91,0.84,2.78,1.39
		c2.8,1.8,3.63,4.54,2.43,7.75c-0.86,2.3-3.13,3.53-6.27,3c-3.43-0.58-6.81-1.42-10.2-2.23C150.74,62.73,145.57,61.42,140.39,60.15
		L140.39,60.15z"/>
	<path class="st0" d="M74.36,60.15c5.56-1.44,11.11-2.95,16.7-4.28c3.08-0.73,5.43-2.22,6.82-5.11c1.2-3.62,0.23-6.88-2.29-9.43
		c-2.55-2.57-5.77-2.54-9.12-1.31c-12.95,4.72-25.93,9.34-38.9,14.02c-0.97,0.35-1.91,0.84-2.78,1.39c-2.8,1.8-3.63,4.54-2.43,7.75
		c0.86,2.3,3.13,3.53,6.27,3c3.43-0.58,6.81-1.42,10.2-2.23C64.02,62.73,69.19,61.42,74.36,60.15L74.36,60.15z"/>
	<path class="st0" d="M129.92,157.29c-0.03-0.01-0.08-0.01-0.11-0.01c-0.35-0.07-0.72-0.13-1.2-0.13c-0.12,0-0.24,0-0.35,0
		c-0.02,0-0.03,0-0.05,0c-6.9-0.01-13.79,0-20.69,0c-0.04,0-0.09,0-0.13,0c-0.04,0-0.09,0-0.13,0c-6.9,0-13.79-0.01-20.69,0
		c-0.02,0-0.03,0-0.06,0c-0.12,0-0.23,0-0.35,0c-0.49,0-0.86,0.06-1.2,0.13c-0.03,0.01-0.08,0.01-0.11,0.01
		c-0.92,0.22-1.35,0.77-1.41,1.73c-0.04,0.43-0.03,0.94,0.04,1.58c0.43,4.05,2.17,7.9,4.73,11.17c2.3,3.08,5.3,5.52,8.75,7.16
		c0.07,0.03,0.14,0.06,0.21,0.09c0.98,0.45,1.98,0.85,3.02,1.17c0.51,0.16,1.02,0.28,1.54,0.4c0.66,0.16,1.34,0.29,2.02,0.39
		c0.31,0.04,0.61,0.15,0.92,0.18c0.92,0.09,1.83,0.12,2.73,0.12c0.9,0,1.81-0.03,2.73-0.12c0.31-0.03,0.61-0.13,0.92-0.18
		c0.68-0.1,1.36-0.23,2.02-0.39c0.52-0.12,1.03-0.24,1.54-0.4c1.04-0.32,2.05-0.72,3.02-1.17c0.07-0.03,0.14-0.06,0.21-0.09
		c3.46-1.64,6.45-4.09,8.75-7.16c2.56-3.27,4.3-7.12,4.73-11.17c0.07-0.64,0.07-1.14,0.04-1.57
		C131.27,158.06,130.84,157.51,129.92,157.29L129.92,157.29z"/>
	<path class="st0" d="M180.68,108.21c0-19.28-15.63-34.91-34.91-34.91c-19.28,0-34.91,15.63-34.91,34.91
		c0,19.28,15.63,34.91,34.91,34.91C165.05,143.12,180.68,127.49,180.68,108.21L180.68,108.21z M176.03,108.08
		c0,16.73-13.57,30.3-30.3,30.3s-30.3-13.57-30.3-30.3c0-16.73,13.56-30.3,30.3-30.3S176.03,91.35,176.03,108.08L176.03,108.08z"/>
	<path class="st0" d="M162.4,108.21c0-9.18-7.44-16.62-16.62-16.62c-9.18,0-16.62,7.44-16.62,16.62c0,9.18,7.44,16.62,16.62,16.62
		C154.96,124.83,162.4,117.39,162.4,108.21L162.4,108.21z M155.96,108.08c0,5.58-4.58,10.11-10.24,10.11
		c-5.65,0-10.24-4.52-10.24-10.11c0-5.58,4.58-10.11,10.24-10.11C151.38,97.97,155.96,102.5,155.96,108.08L155.96,108.08z"/>
	<path class="st0" d="M152.61,108.21c0-3.73-3.06-6.75-6.83-6.75c-3.77,0-6.83,3.02-6.83,6.75c0,3.73,3.06,6.75,6.83,6.75
		C149.55,114.96,152.61,111.94,152.61,108.21L152.61,108.21z"/>
	<path class="st0" d="M103.89,108.21c0-19.28-15.63-34.91-34.91-34.91c-19.28,0-34.91,15.63-34.91,34.91
		c0,19.28,15.63,34.91,34.91,34.91C88.26,143.12,103.89,127.49,103.89,108.21L103.89,108.21z M99.23,108.08
		c0,16.73-13.57,30.3-30.3,30.3c-16.73,0-30.3-13.57-30.3-30.3c0-16.73,13.57-30.3,30.3-30.3C85.67,77.78,99.23,91.35,99.23,108.08
		L99.23,108.08z"/>
	<path class="st0" d="M85.6,108.21c0-9.18-7.44-16.62-16.62-16.62c-9.18,0-16.62,7.44-16.62,16.62c0,9.18,7.44,16.62,16.62,16.62
		C78.16,124.83,85.6,117.39,85.6,108.21L85.6,108.21z M79.17,108.08c0,5.58-4.58,10.11-10.24,10.11c-5.65,0-10.24-4.52-10.24-10.11
		c0-5.58,4.58-10.11,10.24-10.11C74.59,97.97,79.17,102.5,79.17,108.08L79.17,108.08z"/>
	<path class="st0" d="M75.81,108.21c0-3.73-3.06-6.75-6.83-6.75c-3.77,0-6.83,3.02-6.83,6.75c0,3.73,3.06,6.75,6.83,6.75
		C72.76,114.96,75.81,111.94,75.81,108.21L75.81,108.21z"/>
	<path class="st0" d="M552.31,88.17c-8.32,0-15.14,2.61-20.11,8.07V63.84h-19.36v92.09h18.49v-7.7c4.84,5.83,12.04,8.69,20.98,8.69
		c18.74,0,33.26-13.4,33.26-34.38C585.58,101.57,571.05,88.17,552.31,88.17L552.31,88.17z M548.96,141.04c-9.68,0-17-6.95-17-18.49
		c0-11.54,7.32-18.49,17-18.49c9.68,0,17,6.95,17,18.49C565.97,134.09,558.64,141.04,548.96,141.04L548.96,141.04z M630.26,156.93
		c21.22,0,36.61-14.27,36.61-34.38c0-20.11-15.39-34.38-36.61-34.38s-36.74,14.27-36.74,34.38
		C593.52,142.66,609.03,156.93,630.26,156.93L630.26,156.93z M630.26,141.04c-9.68,0-17.13-6.95-17.13-18.49
		c0-11.54,7.45-18.49,17.13-18.49s17,6.95,17,18.49C647.26,134.09,639.94,141.04,630.26,141.04L630.26,141.04z M714.9,139.06
		c-2.23,1.61-5.09,2.48-7.94,2.48c-5.21,0-8.19-3.1-8.19-8.81v-27.18h16.51V90.65h-16.51V74.39h-19.36v58.58
		c0,15.89,9.06,23.95,24.95,23.95c5.83,0,11.67-1.36,15.64-4.22L714.9,139.06L714.9,139.06z"/>
	<path class="st0" d="M481.69,136.95c8.44,0,15.51-6.7,15.51-15.76c0-9.06-7.08-15.64-15.51-15.64c-8.56,0-15.51,6.58-15.51,15.64
		C466.18,130.24,473.13,136.95,481.69,136.95L481.69,136.95z"/>
	<path class="st0" d="M299.86,156.93c14.03,0,25.07-6.21,29.91-16.88l-15.02-8.19c-3.6,6.45-8.94,9.18-15.02,9.18
		c-9.8,0-17.5-6.83-17.5-18.49c0-11.67,7.7-18.49,17.5-18.49c6.08,0,11.42,2.86,15.02,9.18l15.02-8.07
		c-4.84-10.92-15.89-17-29.91-17c-21.72,0-37.23,14.27-37.23,34.38C262.63,142.66,278.14,156.93,299.86,156.93L299.86,156.93z
		 M364.4,156.93c3.35,0,6.7-0.5,10.05-1.61l-0.87-15.02c-1.12,0.62-3.35,1.24-5.46,1.24c-5.34,0-8.32-3.1-8.32-8.81V63.84h-19.36v70
		C340.45,148.74,349.39,156.93,364.4,156.93L364.4,156.93z M431.18,89.16v7.07c-4.84-5.46-11.79-8.07-19.98-8.07
		c-18.87,0-33.39,13.4-33.39,34.38c0,20.98,14.52,34.38,33.39,34.38c8.94,0,16.01-2.85,20.85-8.69v7.7h18.49V89.16H431.18
		L431.18,89.16z M414.55,141.04c-9.68,0-17.13-6.95-17.13-18.49c0-11.54,7.45-18.49,17.13-18.49c9.56,0,17,6.95,17,18.49
		C431.55,134.09,424.1,141.04,414.55,141.04L414.55,141.04z"/>
</g>
</svg>
