<?xml version="1.0" encoding="utf-8"?>
<!-- Generator: Adobe Illustrator 24.1.0, SVG Export Plug-In . SVG Version: 6.00 Build 0)  -->
<svg version="1.1" id="Layer_1" xmlns="http://www.w3.org/2000/svg" xmlns:xlink="http://www.w3.org/1999/xlink" x="0px" y="0px"
	 viewBox="0 0 372.24 134.38" style="enable-background:new 0 0 372.24 134.38;" xml:space="preserve">
<style type="text/css">
	.st0{fill:#041E42;}
	.st1{fill:#0086BF;}
</style>
<g>
	<path class="st0" d="M0,133.77h6.21v-14.95h17.11v14.95h6.21V98.29h-6.21v14.75H6.21V98.29H0V133.77L0,133.77z M56.36,119.68
		l6.11-14.19l6.16,14.19H56.36L56.36,119.68z M43.99,133.77h6.42l3.67-8.57h16.85l3.61,8.57h6.62L65.48,98.03h-5.8L43.99,133.77
		L43.99,133.77z M95.62,133.77h6.21v-25.24l19.61,25.24h5.23V98.29h-6.21v24.53l-19.05-24.53h-5.79V133.77L95.62,133.77z
		 M150.4,128.14v-24.23h7.03c1.87,0,3.56,0.31,5.09,0.92c1.53,0.61,2.83,1.45,3.9,2.52c1.07,1.07,1.9,2.35,2.49,3.84
		c0.59,1.49,0.89,3.1,0.89,4.83v0.1c0,1.73-0.3,3.33-0.89,4.81c-0.59,1.48-1.43,2.75-2.49,3.82c-1.07,1.07-2.37,1.9-3.9,2.49
		c-1.53,0.59-3.22,0.89-5.09,0.89H150.4L150.4,128.14z M144.19,133.77h13.29c2.78,0,5.34-0.46,7.66-1.37
		c2.32-0.91,4.33-2.16,6.01-3.75c1.68-1.59,2.98-3.46,3.89-5.63c0.92-2.16,1.38-4.49,1.38-6.99v-0.1c0-2.5-0.46-4.82-1.38-6.97
		c-0.92-2.15-2.21-4.01-3.89-5.6c-1.68-1.59-3.68-2.83-6.01-3.73c-2.33-0.89-4.88-1.34-7.66-1.34h-13.29V133.77L144.19,133.77z
		 M198.57,128.24v-9.73h9.9c2.47,0,4.31,0.41,5.51,1.24c1.2,0.83,1.8,2,1.8,3.52v0.1c0,1.62-0.61,2.84-1.83,3.65
		c-1.22,0.81-2.89,1.22-5.03,1.22H198.57L198.57,128.24z M198.57,113.24v-9.43h8.98c2.03,0,3.58,0.4,4.64,1.19
		c1.07,0.79,1.6,1.9,1.6,3.32v0.1c0,1.62-0.61,2.83-1.83,3.63c-1.22,0.79-2.84,1.19-4.87,1.19H198.57L198.57,113.24z M192.36,133.77
		h16.47c1.97,0,3.76-0.21,5.39-0.63c1.63-0.42,3.02-1.04,4.17-1.85c1.15-0.81,2.04-1.83,2.67-3.04c0.63-1.22,0.94-2.62,0.94-4.21
		v-0.1c0-1.22-0.17-2.28-0.51-3.19c-0.34-0.91-0.82-1.71-1.44-2.38c-0.62-0.68-1.37-1.26-2.23-1.75c-0.86-0.49-1.81-0.92-2.86-1.29
		c0.64-0.34,1.27-0.74,1.89-1.22c0.62-0.47,1.16-1.02,1.62-1.65c0.46-0.63,0.82-1.35,1.11-2.18c0.29-0.83,0.43-1.78,0.43-2.86v-0.1
		c0-2.33-0.8-4.29-2.39-5.88c-2.1-2.09-5.2-3.14-9.3-3.14h-15.96V133.77L192.36,133.77z M249.71,127.64
		c-1.49-0.68-2.76-1.58-3.83-2.71c-1.07-1.13-1.89-2.47-2.49-4s-0.89-3.17-0.89-4.89v-0.1c0-1.72,0.3-3.35,0.89-4.87
		c0.59-1.52,1.41-2.85,2.46-3.98c1.05-1.13,2.31-2.03,3.78-2.69c1.47-0.66,3.08-0.99,4.84-0.99c1.76,0,3.38,0.34,4.87,1.01
		c1.49,0.68,2.76,1.58,3.83,2.71c1.07,1.13,1.89,2.47,2.49,4c0.59,1.54,0.89,3.17,0.89,4.89v0.1c0,1.72-0.3,3.35-0.89,4.87
		c-0.59,1.52-1.41,2.85-2.46,3.98c-1.05,1.13-2.31,2.03-3.78,2.69s-3.08,0.99-4.84,0.99C252.82,128.65,251.2,128.31,249.71,127.64
		L249.71,127.64z M262.01,132.91c2.27-0.98,4.24-2.31,5.91-3.98c1.66-1.67,2.95-3.62,3.87-5.83c0.92-2.21,1.38-4.57,1.38-7.07v-0.1
		c0-2.5-0.46-4.86-1.38-7.07c-0.92-2.21-2.19-4.15-3.82-5.8c-1.63-1.65-3.58-2.96-5.86-3.93c-2.27-0.96-4.79-1.45-7.54-1.45
		c-2.75,0-5.26,0.49-7.53,1.47c-2.28,0.98-4.24,2.31-5.91,3.98c-1.66,1.67-2.95,3.62-3.87,5.83c-0.92,2.21-1.37,4.57-1.37,7.07v0.1
		c0,2.5,0.46,4.86,1.37,7.07c0.92,2.21,2.19,4.15,3.82,5.8c1.63,1.66,3.58,2.96,5.85,3.93c2.27,0.96,4.79,1.45,7.54,1.45
		C257.22,134.38,259.73,133.89,262.01,132.91L262.01,132.91z M301.34,127.64c-1.49-0.68-2.76-1.58-3.83-2.71
		c-1.07-1.13-1.89-2.47-2.49-4c-0.59-1.54-0.89-3.17-0.89-4.89v-0.1c0-1.72,0.3-3.35,0.89-4.87c0.59-1.52,1.41-2.85,2.46-3.98
		c1.05-1.13,2.31-2.03,3.78-2.69c1.47-0.66,3.08-0.99,4.84-0.99s3.38,0.34,4.87,1.01c1.49,0.68,2.76,1.58,3.83,2.71
		c1.06,1.13,1.89,2.47,2.48,4c0.59,1.54,0.89,3.17,0.89,4.89v0.1c0,1.72-0.3,3.35-0.89,4.87c-0.59,1.52-1.41,2.85-2.46,3.98
		c-1.05,1.13-2.31,2.03-3.78,2.69s-3.09,0.99-4.84,0.99C304.45,128.65,302.82,128.31,301.34,127.64L301.34,127.64z M313.64,132.91
		c2.27-0.98,4.24-2.31,5.91-3.98c1.66-1.67,2.95-3.62,3.87-5.83c0.92-2.21,1.37-4.57,1.37-7.07v-0.1c0-2.5-0.46-4.86-1.37-7.07
		c-0.92-2.21-2.19-4.15-3.82-5.8c-1.63-1.65-3.58-2.96-5.85-3.93c-2.28-0.96-4.79-1.45-7.54-1.45c-2.75,0-5.26,0.49-7.54,1.47
		c-2.27,0.98-4.24,2.31-5.91,3.98c-1.66,1.67-2.95,3.62-3.87,5.83c-0.92,2.21-1.38,4.57-1.38,7.07v0.1c0,2.5,0.46,4.86,1.38,7.07
		c0.92,2.21,2.19,4.15,3.82,5.8c1.63,1.66,3.58,2.96,5.86,3.93c2.27,0.96,4.79,1.45,7.53,1.45
		C308.85,134.38,311.36,133.89,313.64,132.91L313.64,132.91z M340.72,133.77h6.21v-10.29l5.55-5.68l12.17,15.97h7.59l-15.48-20.23
		l14.82-15.26h-7.69l-16.96,17.84V98.29h-6.21V133.77L340.72,133.77z"/>
	<path class="st1" d="M32.03,56.33c-2.32-1.08-4.31-2.53-5.96-4.35c-1.65-1.82-2.94-3.91-3.85-6.29c-0.91-2.37-1.37-4.89-1.37-7.55
		v-0.21c0-2.65,0.44-5.17,1.32-7.55c0.88-2.37,2.15-4.45,3.8-6.24c1.65-1.78,3.63-3.2,5.91-4.24c2.29-1.05,4.84-1.57,7.65-1.57
		c2.81,0,5.38,0.54,7.71,1.62c2.32,1.08,4.33,2.53,6.02,4.35c1.69,1.82,2.99,3.91,3.91,6.29c0.91,2.38,1.37,4.89,1.37,7.55v0.21
		c0,2.66-0.46,5.17-1.37,7.55c-0.91,2.38-2.18,4.45-3.8,6.24c-1.62,1.78-3.59,3.2-5.91,4.24c-2.32,1.05-4.89,1.57-7.71,1.57
		C36.93,57.96,34.36,57.42,32.03,56.33L32.03,56.33z M55.37,73.31c4.84-1.99,9.05-4.72,12.63-8.17c3.58-3.46,6.37-7.51,8.37-12.16
		c2-4.65,3-9.59,3-14.83v-0.21c0-5.24-1-10.17-3-14.78c-2-4.61-4.76-8.63-8.26-12.05c-3.51-3.42-7.69-6.13-12.53-8.12
		C50.74,1,45.48,0,39.79,0C34.11,0,28.85,1,24,2.99c-4.84,1.99-9.05,4.72-12.63,8.17C7.79,14.62,5,18.67,3,23.32
		c-2,4.65-3,9.59-3,14.83v0.21c0,5.24,1,10.17,3,14.78c2,4.61,4.75,8.63,8.26,12.05c3.51,3.42,7.69,6.13,12.53,8.12
		c4.84,1.99,10.11,2.99,15.79,2.99C45.27,76.3,50.53,75.3,55.37,73.31L55.37,73.31z M131.17,74.47c3.65-1.08,6.77-2.65,9.37-4.71
		c2.6-2.06,4.61-4.55,6.05-7.48c1.44-2.93,2.16-6.28,2.16-10.04v-0.21c0-3.42-0.63-6.36-1.9-8.84c-1.26-2.48-3.09-4.59-5.47-6.33
		c-2.39-1.74-5.28-3.23-8.68-4.45c-3.4-1.22-7.21-2.28-11.42-3.19c-2.53-0.56-4.62-1.1-6.26-1.62c-1.65-0.52-2.95-1.04-3.89-1.57
		c-0.95-0.52-1.62-1.1-2-1.73c-0.39-0.63-0.58-1.36-0.58-2.2V21.9c0-1.32,0.61-2.44,1.84-3.35c1.23-0.91,3.07-1.36,5.53-1.36
		c3.3,0,6.72,0.61,10.26,1.83c3.54,1.22,7,3.02,10.37,5.4l10.21-14.4c-4-3.23-8.48-5.68-13.42-7.33c-4.95-1.65-10.58-2.48-16.9-2.48
		c-4.42,0-8.39,0.58-11.9,1.73c-3.51,1.15-6.51,2.77-9,4.87c-2.49,2.09-4.39,4.57-5.69,7.43c-1.3,2.86-1.95,6-1.95,9.42v0.21
		c0,3.77,0.72,6.92,2.16,9.47c1.44,2.55,3.4,4.67,5.9,6.38c2.49,1.71,5.42,3.1,8.79,4.19c3.37,1.08,7.02,2.07,10.95,2.98
		c2.53,0.56,4.58,1.1,6.16,1.62c1.58,0.52,2.84,1.06,3.79,1.62c0.95,0.56,1.6,1.13,1.95,1.73c0.35,0.59,0.53,1.27,0.53,2.04v0.21
		c0,1.6-0.72,2.84-2.16,3.72c-1.44,0.87-3.53,1.31-6.26,1.31c-8.56,0-16.53-2.93-23.9-8.8L84.43,63.86
		c4.56,4.08,9.81,7.14,15.74,9.18c5.93,2.04,12.19,3.06,18.79,3.06C123.45,76.09,127.52,75.55,131.17,74.47L131.17,74.47z
		 M158.65,74.83h56.11V57.02h-35.69V1.47h-20.42V74.83L158.65,74.83z M269.98,75.04c3.26-0.84,6.21-1.99,8.84-3.46
		c2.63-1.47,4.98-3.21,7.05-5.24c2.07-2.03,3.98-4.23,5.74-6.6l-15.37-10.9c-1.12,1.33-2.26,2.53-3.42,3.62
		c-1.16,1.08-2.39,2.03-3.68,2.83c-1.3,0.8-2.74,1.41-4.32,1.83c-1.58,0.42-3.32,0.63-5.21,0.63c-2.6,0-4.97-0.51-7.11-1.52
		c-2.14-1.01-3.98-2.39-5.53-4.14c-1.54-1.75-2.76-3.83-3.63-6.24c-0.88-2.41-1.32-4.98-1.32-7.7v-0.21c0-2.65,0.44-5.17,1.32-7.55
		c0.88-2.37,2.09-4.44,3.63-6.18c1.54-1.75,3.39-3.13,5.53-4.14c2.14-1.01,4.51-1.52,7.11-1.52c3.58,0,6.63,0.77,9.16,2.31
		c2.53,1.54,4.84,3.63,6.95,6.29l15.37-11.84c-1.61-2.24-3.46-4.3-5.53-6.18c-2.07-1.89-4.39-3.51-6.95-4.87
		c-2.56-1.36-5.39-2.41-8.47-3.14c-3.09-0.73-6.53-1.1-10.32-1.1c-5.62,0-10.79,0.98-15.53,2.93c-4.74,1.96-8.83,4.66-12.26,8.12
		c-3.44,3.46-6.14,7.51-8.11,12.16c-1.97,4.65-2.95,9.63-2.95,14.94v0.21c0,5.45,1,10.5,3,15.14c2,4.65,4.7,8.66,8.11,12.05
		c3.4,3.39,7.42,6.03,12.05,7.91s9.58,2.83,14.84,2.83C263.04,76.3,266.71,75.88,269.98,75.04L269.98,75.04z"/>
</g>
</svg>
