<?xml version="1.0" encoding="utf-8"?>
<!-- Generator: Adobe Illustrator 24.1.0, SVG Export Plug-In . SVG Version: 6.00 Build 0)  -->
<svg version="1.1" id="Layer_1" xmlns="http://www.w3.org/2000/svg" xmlns:xlink="http://www.w3.org/1999/xlink" x="0px" y="0px"
	 viewBox="0 0 404.16 540" style="enable-background:new 0 0 404.16 540;" xml:space="preserve">
<style type="text/css">
	.st0{fill:#FFFFFF;}
</style>
<g>
	<path class="st0" d="M249.06,487.05c-6.4,0-11.66,2.01-15.48,6.21v-24.95h-14.91v70.92h14.24v-5.93c3.73,4.49,9.27,6.69,16.15,6.69
		c14.43,0,25.62-10.32,25.62-26.48C274.68,497.37,263.49,487.05,249.06,487.05L249.06,487.05z M246.48,527.77
		c-7.46,0-13.1-5.35-13.1-14.24c0-8.89,5.64-14.24,13.1-14.24c7.45,0,13.1,5.35,13.1,14.24
		C259.57,522.41,253.93,527.77,246.48,527.77L246.48,527.77z M309.09,540c16.34,0,28.2-10.99,28.2-26.48
		c0-15.48-11.85-26.48-28.2-26.48c-16.35,0-28.29,10.99-28.29,26.48C280.79,529.01,292.74,540,309.09,540L309.09,540z
		 M309.09,527.77c-7.46,0-13.19-5.35-13.19-14.24c0-8.89,5.74-14.24,13.19-14.24s13.1,5.35,13.1,14.24
		C322.18,522.41,316.54,527.77,309.09,527.77L309.09,527.77z M374.27,526.24c-1.72,1.24-3.92,1.91-6.12,1.91
		c-4.02,0-6.31-2.39-6.31-6.79v-20.93h12.71v-11.47h-12.71v-12.52h-14.91v45.12c0,12.23,6.98,18.45,19.21,18.45
		c4.49,0,8.98-1.05,12.04-3.25L374.27,526.24L374.27,526.24z"/>
	<path class="st0" d="M194.67,524.61c6.5,0,11.95-5.16,11.95-12.14c0-6.98-5.45-12.04-11.95-12.04c-6.6,0-11.95,5.07-11.95,12.04
		C182.73,519.45,188.08,524.61,194.67,524.61L194.67,524.61z"/>
	<path class="st0" d="M54.65,540c10.8,0,19.31-4.78,23.04-13l-11.57-6.31c-2.77,4.97-6.88,7.07-11.57,7.07
		c-7.55,0-13.48-5.26-13.48-14.24c0-8.98,5.93-14.24,13.48-14.24c4.68,0,8.79,2.2,11.57,7.07l11.57-6.21
		c-3.73-8.41-12.23-13.09-23.04-13.09c-16.73,0-28.68,10.99-28.68,26.48C25.97,529.01,37.92,540,54.65,540L54.65,540z M104.35,540
		c2.58,0,5.16-0.38,7.74-1.24l-0.67-11.57c-0.86,0.48-2.58,0.96-4.21,0.96c-4.11,0-6.4-2.39-6.4-6.79v-53.05H85.9v53.91
		C85.9,533.69,92.78,540,104.35,540L104.35,540z M155.77,487.81v5.45c-3.73-4.2-9.08-6.21-15.39-6.21
		c-14.53,0-25.71,10.32-25.71,26.48c0,16.15,11.18,26.48,25.71,26.48c6.88,0,12.33-2.2,16.06-6.69v5.93h14.24v-51.42H155.77
		L155.77,487.81z M142.96,527.77c-7.46,0-13.19-5.35-13.19-14.24c0-8.89,5.74-14.24,13.19-14.24c7.36,0,13.1,5.35,13.1,14.24
		C156.06,522.41,150.32,527.77,142.96,527.77L142.96,527.77z"/>
	<path class="st0" d="M325.57,366.81v-0.72c0,6.91-5.6,12.51-12.51,12.51H91.11c-6.91,0-12.51-5.6-12.51-12.51v0.72
		c0,17.28,14.01,31.28,31.28,31.28h184.41C311.56,398.1,325.57,384.09,325.57,366.81L325.57,366.81z"/>
	<path class="st0" d="M299.07,137.82c-4.96-6.06-10.44-11.68-16.5-16.65c-15.72-3.43-46.14-10.19-54.84-12.93
		c-8.95-2.83-11.16-9.91-11.7-13.23c-2.58-0.17-5.14-0.39-7.77-0.39H195.9c-2.34,0-4.62,0.21-6.93,0.35
		c-0.53,3.3-2.71,10.43-11.71,13.27c-8.91,2.81-40.66,9.84-56.01,13.19c-5.93,4.9-11.3,10.43-16.17,16.39
		c7.7-2.9,16.01-4.55,24.73-4.55c38.87,0,70.39,31.51,70.39,70.39c0,38.87-31.51,70.38-70.39,70.38c-20.22,0-38.39-8.57-51.23-22.22
		v109.93c0,6.91,5.6,12.51,12.51,12.51h221.95c6.91,0,12.51-5.6,12.51-12.51V251.81c-12.84,13.65-31.01,22.22-51.23,22.22
		c-38.87,0-70.39-31.51-70.39-70.38c0-38.87,31.51-70.39,70.39-70.39C283.06,133.26,291.37,134.92,299.07,137.82L299.07,137.82z
		 M202.36,290.93c14.62,0,29.24-0.01,43.86,0.01c0.05,0,0.07,0.01,0.12,0.01c0.25,0,0.5,0,0.75,0c1.03,0,1.82,0.14,2.55,0.31
		c0.07,0.01,0.17,0.01,0.23,0.03c1.96,0.52,2.86,1.78,2.99,4.02c0.08,1,0.07,2.15-0.08,3.62c-0.92,9.34-4.6,18.21-10.03,25.75
		c-4.88,7.09-11.22,12.72-18.55,16.5c-0.14,0.08-0.29,0.14-0.44,0.22c-2.07,1.04-4.2,1.96-6.41,2.69c-1.07,0.37-2.16,0.64-3.26,0.93
		c-1.41,0.36-2.83,0.67-4.29,0.9c-0.66,0.1-1.29,0.34-1.95,0.41c-1.95,0.21-3.87,0.28-5.78,0.27c-1.9,0.01-3.83-0.06-5.78-0.27
		c-0.66-0.07-1.29-0.31-1.95-0.41c-1.45-0.24-2.88-0.54-4.29-0.9c-1.1-0.29-2.18-0.56-3.26-0.93c-2.21-0.74-4.34-1.65-6.41-2.69
		c-0.14-0.08-0.29-0.14-0.44-0.22c-7.33-3.79-13.67-9.42-18.56-16.51c-5.42-7.54-9.1-16.41-10.02-25.75
		c-0.15-1.48-0.16-2.64-0.08-3.64c0.14-2.22,1.04-3.48,2.99-4c0.06-0.02,0.17-0.01,0.23-0.03c0.74-0.17,1.52-0.31,2.55-0.31
		c0.25,0,0.5,0,0.75,0c0.05,0,0.07-0.01,0.12-0.01c14.62-0.02,29.24-0.01,43.86-0.01c0.09,0,0.18,0,0.28,0
		C202.17,290.93,202.27,290.93,202.36,290.93L202.36,290.93z M162.59,99.48c3.96-1.17,8.01-2.11,12.13-2.86
		C171.07,97.48,166.94,98.46,162.59,99.48L162.59,99.48z"/>
	<path class="st0" d="M404.16,119.03c0-15.93-12.51-28.85-27.95-28.85c-15.44,0-27.95,12.92-27.95,28.85
		c0,11.44,6.5,21.23,15.84,25.9c-3.27,15.78-6.59,31.54-9.72,47.34c-0.38,1.93,0,4.18,0.59,6.12c5.64,18.51,11.33,37,17.21,55.44
		c1.09,3.44,0.89,6.39-0.5,9.64c-6.7,15.6-13.25,31.27-19.85,46.91c-3.59,8.52-4.64,9.11-14.51,7.92
		c0.02-8.11,0.43-16.68-9.16-19.19v56.01c5.51-1.54,8.93-5.61,9.08-11.72c0.1-4.04,0.02-8.08,0.02-12.8c4.72,0,9.26-0.18,13.78,0.05
		c4.08,0.21,6.42-1.51,8.03-5.19c9.05-20.65,18.34-41.21,27.25-61.92c1.1-2.55,1.25-6.11,0.44-8.78
		c-5.65-18.64-11.78-37.14-17.46-55.78c-0.97-3.19-1.2-6.94-0.62-10.23c2.39-13.68,5.19-27.28,7.85-40.91
		C391.81,147.68,404.16,134.86,404.16,119.03L404.16,119.03z M76.01,299.1c-9.59,2.51-9.18,11.08-9.16,19.19
		c-9.87,1.19-10.92,0.59-14.51-7.92c-6.6-15.64-13.15-31.31-19.85-46.91c-1.4-3.25-1.6-6.2-0.5-9.64
		c5.88-18.43,11.56-36.93,17.21-55.44c0.59-1.93,0.97-4.18,0.59-6.12c-3.13-15.8-6.45-31.57-9.72-47.34
		c9.34-4.67,15.84-14.46,15.84-25.9c0-15.93-12.51-28.85-27.95-28.85S0,103.09,0,119.03c0,15.83,12.35,28.65,27.65,28.82
		c2.66,13.63,5.46,27.23,7.85,40.91c0.57,3.29,0.35,7.03-0.62,10.23c-5.68,18.64-11.81,37.13-17.46,55.78
		c-0.81,2.67-0.66,6.23,0.44,8.78c8.91,20.71,18.2,41.26,27.25,61.92c1.61,3.68,3.96,5.4,8.04,5.19c4.52-0.23,9.06-0.05,13.78-0.05
		c0,4.72-0.08,8.76,0.02,12.8c0.16,6.11,3.57,10.19,9.08,11.72V299.1L76.01,299.1z"/>
	<path class="st0" d="M150.54,7.01c3.96,1.62,8.11,2.89,11.82,4.94c4.63,2.56,8.86,5.81,13.33,8.68c4.29,2.76,5.62,2.47,8.43-1.91
		c1.96-3.05,3.62-6.29,5.56-9.35c1.11-1.76,2.35-3.48,3.79-4.97c5.67-5.86,13.03-5.96,18.23,0.29c3.36,4.04,5.82,8.83,8.64,13.3
		c3.24,5.13,4.54,5.4,9.69,2.15c5.54-3.5,10.88-7.41,16.76-10.23c10.43-5.01,17.44-1.83,19.52,9.41
		c2.02,10.9,8.54,17.38,18.27,20.27c13.33,3.95,26.99,6.8,40.56,9.9c9.15,2.09,18.28,4.19,25.97,9.94c2.77,2.07,5.51,4.41,7.52,7.17
		c0.96,1.33,0.98,4.72-0.03,5.73c-1.15,1.16-4.93,1.7-5.82,0.8c-13.95-14.16-32.81-14.07-50.36-17.8c-9.4-2-18.83-3.89-28.16-6.19
		c-7.93-1.96-12.89-7.47-15.84-14.88c-1.44-3.62-2.62-7.35-4.08-10.97c-1.56-3.85-2.56-4.14-5.76-1.57
		c-3.15,2.54-6.02,5.43-9.24,7.88c-2.98,2.28-6.08,4.53-9.43,6.16c-5.82,2.82-10.09,1.85-14.11-3.21c-3.29-4.14-6-8.73-9.08-13.04
		c-3.31-4.63-5.13-4.63-8.47,0.06c-2.75,3.86-5.13,8-7.97,11.79c-4.91,6.53-9.69,7.81-16.71,3.56c-5.44-3.3-10.31-7.59-15.25-11.67
		c-5.38-4.44-6.98-4.51-8.33,2.07c-4.26,20.75-19.89,25.59-37.58,28.44c-13.21,2.12-26.35,4.73-39.41,7.6
		c-7.44,1.64-14.16,5.13-19.49,10.84c-2.19,2.35-4.67,2.46-7.06,0.48c-2.53-2.1-1.75-4.48,0.04-6.61
		c6.06-7.21,13.92-11.72,22.89-13.92c11.77-2.89,23.74-5.03,35.57-7.7c9-2.03,17.89-4.47,25.4-10.23c4.03-3.09,6.53-7.06,7.6-12.12
		c0.68-3.23,1.82-6.46,3.3-9.4C143.01,9.19,146.3,7.66,150.54,7.01L150.54,7.01z"/>
	<path class="st0" d="M264.21,113.2c-10.47-2.7-20.9-5.56-31.42-8.05c-5.8-1.38-10.22-4.19-12.83-9.62
		c-2.27-6.81-0.44-12.94,4.31-17.74c4.79-4.84,10.85-4.77,17.16-2.47c24.37,8.88,48.81,17.57,73.2,26.38
		c1.82,0.66,3.6,1.57,5.23,2.62c5.27,3.4,6.82,8.54,4.56,14.58c-1.62,4.33-5.89,6.65-11.8,5.65c-6.45-1.1-12.82-2.67-19.19-4.19
		C283.68,118.05,273.95,115.6,264.21,113.2L264.21,113.2z"/>
	<path class="st0" d="M139.95,113.2c10.47-2.7,20.9-5.56,31.42-8.05c5.8-1.38,10.22-4.19,12.83-9.62
		c2.27-6.81,0.44-12.94-4.31-17.74c-4.79-4.84-10.85-4.77-17.16-2.47c-24.37,8.88-48.81,17.57-73.2,26.38
		c-1.82,0.66-3.6,1.57-5.23,2.62c-5.27,3.4-6.82,8.54-4.56,14.58c1.62,4.33,5.89,6.65,11.8,5.65c6.45-1.1,12.82-2.67,19.19-4.19
		C120.48,118.05,130.21,115.6,139.95,113.2L139.95,113.2z"/>
	<path class="st0" d="M244.5,296.01c-0.06-0.01-0.15-0.01-0.21-0.02c-0.65-0.14-1.35-0.25-2.26-0.25c-0.22,0-0.44,0-0.66,0
		c-0.04,0-0.06-0.01-0.1-0.01c-12.98-0.01-25.96,0-38.94,0c-0.08,0-0.16,0-0.25,0c-0.08,0-0.16,0-0.24,0
		c-12.98,0-25.96-0.01-38.94,0c-0.04,0-0.06,0.01-0.1,0.01c-0.22,0-0.44,0-0.66,0c-0.92,0-1.61,0.11-2.27,0.25
		c-0.06,0.01-0.15,0.01-0.21,0.02c-1.73,0.42-2.53,1.45-2.65,3.26c-0.07,0.82-0.06,1.77,0.07,2.98c0.82,7.62,4.09,14.86,8.9,21.02
		c4.34,5.79,9.97,10.39,16.48,13.48c0.13,0.06,0.26,0.11,0.39,0.18c1.84,0.85,3.73,1.6,5.69,2.2c0.95,0.3,1.92,0.53,2.89,0.76
		c1.25,0.3,2.52,0.54,3.81,0.74c0.58,0.08,1.14,0.28,1.73,0.33c1.73,0.17,3.44,0.23,5.13,0.22c1.69,0.01,3.4-0.05,5.13-0.22
		c0.59-0.06,1.15-0.25,1.73-0.34c1.29-0.19,2.56-0.44,3.81-0.74c0.97-0.24,1.94-0.46,2.89-0.76c1.96-0.6,3.85-1.35,5.69-2.2
		c0.13-0.06,0.26-0.11,0.39-0.18c6.51-3.09,12.13-7.69,16.47-13.48c4.81-6.16,8.08-13.4,8.9-21.03c0.13-1.2,0.14-2.14,0.07-2.95
		C247.04,297.46,246.24,296.43,244.5,296.01L244.5,296.01z"/>
	<path class="st0" d="M340.04,203.65c0-36.28-29.41-65.69-65.69-65.69s-65.69,29.41-65.69,65.69c0,36.28,29.41,65.69,65.69,65.69
		S340.04,239.93,340.04,203.65L340.04,203.65z M331.27,203.4c0,31.49-25.53,57.02-57.02,57.02c-31.49,0-57.02-25.53-57.02-57.02
		c0-31.49,25.53-57.02,57.02-57.02C305.74,146.38,331.27,171.91,331.27,203.4L331.27,203.4z"/>
	<path class="st0" d="M305.63,203.65c0-17.28-14.01-31.28-31.28-31.28c-17.28,0-31.28,14.01-31.28,31.28
		c0,17.28,14.01,31.28,31.28,31.28C291.62,234.93,305.63,220.92,305.63,203.65L305.63,203.65z M293.52,203.4
		c0,10.51-8.63,19.02-19.27,19.02c-10.64,0-19.27-8.52-19.27-19.02c0-10.5,8.63-19.02,19.27-19.02
		C284.89,184.38,293.52,192.9,293.52,203.4L293.52,203.4z"/>
	<path class="st0" d="M287.2,203.65c0-7.01-5.76-12.7-12.86-12.7c-7.1,0-12.86,5.68-12.86,12.7c0,7.01,5.76,12.7,12.86,12.7
		C281.45,216.34,287.2,210.66,287.2,203.65L287.2,203.65z"/>
	<path class="st0" d="M195.51,203.65c0-36.28-29.41-65.69-65.69-65.69s-65.69,29.41-65.69,65.69c0,36.28,29.41,65.69,65.69,65.69
		S195.51,239.93,195.51,203.65L195.51,203.65z M186.75,203.4c0,31.49-25.53,57.02-57.02,57.02c-31.49,0-57.02-25.53-57.02-57.02
		c0-31.49,25.53-57.02,57.02-57.02C161.22,146.38,186.75,171.91,186.75,203.4L186.75,203.4z"/>
	<path class="st0" d="M161.1,203.65c0-17.28-14.01-31.28-31.28-31.28c-17.28,0-31.28,14.01-31.28,31.28
		c0,17.28,14.01,31.28,31.28,31.28C147.1,234.93,161.1,220.92,161.1,203.65L161.1,203.65z M149,203.4
		c0,10.51-8.63,19.02-19.27,19.02c-10.64,0-19.27-8.52-19.27-19.02c0-10.5,8.63-19.02,19.27-19.02
		C140.37,184.38,149,192.9,149,203.4L149,203.4z"/>
	<path class="st0" d="M142.68,203.65c0-7.01-5.76-12.7-12.86-12.7c-7.1,0-12.86,5.68-12.86,12.7c0,7.01,5.76,12.7,12.86,12.7
		C136.92,216.34,142.68,210.66,142.68,203.65L142.68,203.65z"/>
</g>
</svg>
