<?xml version="1.0" encoding="utf-8"?>
<!-- Generator: Adobe Illustrator 24.1.0, SVG Export Plug-In . SVG Version: 6.00 Build 0)  -->
<svg version="1.1" id="Layer_1" xmlns="http://www.w3.org/2000/svg" xmlns:xlink="http://www.w3.org/1999/xlink" x="0px" y="0px"
	 viewBox="0 0 540 540" style="enable-background:new 0 0 540 540;" xml:space="preserve">
<style type="text/css">
	.st0{fill:#00000A;}
</style>
<g>
	<path class="st0" d="M540,84.78V49.41C540,22.12,517.88,0,490.59,0H49.41C22.12,0,0,22.12,0,49.41v241.44l90.36,50.09
		c5.6-6.18,13.62-10.14,22.62-10.14c3.81,0,7.43,0.78,10.79,2.06l94.15-94.15c-0.24-1.54-0.47-3.08-0.47-4.69
		c0-16.92,13.72-30.64,30.63-30.64c16.92,0,30.64,13.72,30.64,30.64c0,1.87-0.23,3.69-0.55,5.47l55.65,30.85
		c5-3.55,11.08-5.68,17.67-5.68c4.84,0,9.36,1.22,13.43,3.23l84.74-94.11l-29.18-26.28L540,84.78L540,84.78z"/>
	<path class="st0" d="M0,313.14v177.45C0,517.88,22.12,540,49.41,540h441.18c27.29,0,49.41-22.12,49.41-49.41V95.71l-46.67,117.38
		l-29.19-26.28l-85.37,94.82c2.07,4.13,3.35,8.73,3.35,13.66c0,16.92-13.72,30.64-30.63,30.64c-16.92,0-30.63-13.72-30.63-30.64
		c0-3.16,0.62-6.15,1.5-9.01l-53.65-29.74c-5.45,4.99-12.65,8.12-20.62,8.12c-7.92,0-15.07-3.09-20.51-8.02l-88.66,88.66
		c2.93,4.7,4.7,10.2,4.7,16.15c0,16.92-13.72,30.63-30.63,30.63c-16.92,0-30.63-13.72-30.63-30.63c0-0.86,0.18-1.67,0.25-2.51
		L0,313.14L0,313.14z"/>
</g>
</svg>
