<?xml version="1.0" encoding="utf-8"?>
<!-- Generator: Adobe Illustrator 24.1.0, SVG Export Plug-In . SVG Version: 6.00 Build 0)  -->
<svg version="1.1" id="Layer_1" xmlns="http://www.w3.org/2000/svg" xmlns:xlink="http://www.w3.org/1999/xlink" x="0px" y="0px"
	 viewBox="0 0 540 540" style="enable-background:new 0 0 540 540;" xml:space="preserve">
<style type="text/css">
	.st0{fill:#1B365D;}
	.st1{clip-path:url(#SVGID_2_);}
</style>
<path class="st0" d="M540,84.8V49.4C540,22.1,517.87,0,490.6,0H49.4C22.13,0,0,22.13,0,49.4v241.45l90.36,50.1
	c5.59-6.19,13.62-10.13,22.62-10.13c3.8,0,7.42,0.77,10.8,2.04l94.16-94.16c-0.25-1.55-0.46-3.1-0.46-4.68
	c0-16.92,13.72-30.65,30.65-30.65c16.92,0,30.65,13.72,30.65,30.65c0,1.86-0.25,3.69-0.56,5.49l55.66,30.86
	c5-3.55,11.08-5.66,17.66-5.66c4.86,0,9.36,1.23,13.44,3.24l84.73-94.12l-29.17-26.28L540,84.8L540,84.8z"/>
<g>
	<g>
		<defs>
			<path id="SVGID_1_" d="M0,313.16V490.6C0,517.9,22.13,540,49.4,540h441.2c27.3,0,49.4-22.13,49.4-49.4V95.71l-46.66,117.38
				l-29.2-26.28l-85.36,94.83c2.08,4.12,3.34,8.73,3.34,13.65c0,16.92-13.72,30.65-30.65,30.65s-30.65-13.72-30.65-30.65
				c0-3.17,0.63-6.16,1.51-9.01l-53.66-29.73c-5.45,5-12.63,8.13-20.62,8.13c-7.92,0-15.06-3.1-20.51-8.02l-88.67,88.67
				c2.92,4.68,4.71,10.2,4.71,16.15c0,16.92-13.72,30.65-30.65,30.65S82.3,378.39,82.3,361.47c0-0.84,0.18-1.65,0.25-2.5L0,313.16
				L0,313.16z"/>
		</defs>
		<clipPath id="SVGID_2_">
			<use xlink:href="#SVGID_1_"  style="overflow:visible;"/>
		</clipPath>
		<g class="st1">
			<g>
				<defs>
					<rect id="SVGID_3_" y="95.71" width="540" height="444.29"/>
				</defs>
				<linearGradient id="SVGID_4_" gradientUnits="userSpaceOnUse" x1="23.9265" y1="71.7795" x2="516.0735" y2="563.9266">
					<stop  offset="0.2016" style="stop-color:#00B5E2"/>
					<stop  offset="1" style="stop-color:#1B365D"/>
				</linearGradient>
				<use xlink:href="#SVGID_3_"  style="overflow:visible;fill:url(#SVGID_4_);"/>
				<clipPath id="SVGID_5_">
					<use xlink:href="#SVGID_3_"  style="overflow:visible;"/>
				</clipPath>
			</g>
		</g>
	</g>
</g>
</svg>
