<?xml version="1.0" encoding="UTF-8"?>
<svg id="Layer_1" data-name="Layer 1" xmlns="http://www.w3.org/2000/svg" version="1.1" viewBox="0 0 422.3 423.9">
  <defs>
    <style>
      .cls-1 {
        fill: #692832;
      }

      .cls-1, .cls-2 {
        stroke-width: 0px;
      }

      .cls-2 {
        fill: #c72731;
      }
    </style>
  </defs>
  <polygon class="cls-2" points="362 262.2 422.3 211.9 362 161.7 362 179.8 255.4 179.8 255.4 244.1 362 244.1 362 262.2 362 262.2"/>
  <polygon class="cls-2" points="60.3 262.2 0 211.9 60.3 161.7 60.3 179.8 166.9 179.8 166.9 244.1 60.3 244.1 60.3 262.2 60.3 262.2"/>
  <polygon class="cls-2" points="261.4 363.6 211.2 423.9 160.9 363.6 179 363.6 179 257 243.3 257 243.3 363.6 261.4 363.6 261.4 363.6"/>
  <polygon class="cls-1" points="102.6 102.6 102.6 166.9 166.9 166.9 166.9 102.6 102.6 102.6 102.6 102.6"/>
  <polygon class="cls-1" points="102.6 257 102.6 321.3 166.9 321.3 166.9 257 102.6 257 102.6 257"/>
  <polygon class="cls-1" points="179 179.8 179 244.1 243.3 244.1 243.3 179.8 179 179.8 179 179.8"/>
  <polygon class="cls-1" points="255.4 102.6 255.4 166.9 319.8 166.9 319.8 102.6 255.4 102.6 255.4 102.6"/>
  <polygon class="cls-1" points="255.4 257 255.4 321.3 319.8 321.3 319.8 257 255.4 257 255.4 257"/>
  <polygon class="cls-2" points="261.4 60.3 211.2 0 160.9 60.3 179 60.3 179 166.9 243.3 166.9 243.3 60.3 261.4 60.3 261.4 60.3"/>
</svg>