<?xml version="1.0" encoding="utf-8"?>
<!-- Generator: Adobe Illustrator 24.1.0, SVG Export Plug-In . SVG Version: 6.00 Build 0)  -->
<svg version="1.1" id="Layer_1" xmlns="http://www.w3.org/2000/svg" xmlns:xlink="http://www.w3.org/1999/xlink" x="0px" y="0px"
	 viewBox="0 0 737.84 140.31" style="enable-background:new 0 0 737.84 140.31;" xml:space="preserve">
<style type="text/css">
	.st0{fill:#3E4556;}
	.st1{fill:#111F32;}
	.st2{fill:#00011C;}
	.st3{fill:#6D7181;}
	.st4{fill:#00000A;}
</style>
<g>
	<path class="st0" d="M287.24,131.12h-47.15c-7.69,0-21.58-12.04-37.68-28.79c4.1,0,10.23,0,19.52,0
		C249.87,102.33,287.24,131.12,287.24,131.12"/>
	<path class="st0" d="M91.31,28.79c-6.26,0-14.74,0-25.99,0C37.37,28.79,0,0,0,0h47.16h6.76l0,0h0l0,0c-4.76,0-6.78,0-6.78,0
		s2.62,0,6.78,0c0.01,0,0.02,0,0.04,0c0,0,0,0,0.01,0c0.01,0,0.02,0,0.03,0c0,0,0,0,0.01,0c0.01,0,0.02,0,0.03,0c0,0,0,0,0,0
		c0.01,0,0.02,0,0.03,0c0,0,0.01,0,0.01,0c0.01,0,0.02,0,0.03,0c0,0,0.01,0,0.01,0c0.01,0,0.02,0,0.03,0c0,0,0.01,0,0.01,0
		c0.01,0,0.02,0,0.03,0c0,0,0.01,0,0.01,0c0.01,0,0.02,0,0.03,0c0.01,0,0.01,0,0.01,0c0.01,0,0.01,0,0.02,0c0.01,0,0.02,0,0.03,0
		c0,0,0.01,0,0.01,0c0.01,0,0.01,0,0.02,0c0,0,0,0,0,0C62.45,0.4,75.89,12.32,91.31,28.79 M104.85,0.05
		C104.63,0.02,104.42,0,104.22,0l0,0h0.63V0.05"/>
	<path class="st1" d="M240.09,131.12c-16.03,0-28.33,0-50.29,0C167.94,131.12,81.48,1.32,54.33,0.01c0,0,0,0,0,0
		c-0.01,0-0.02,0-0.02,0c0,0-0.01,0-0.01,0c-0.01,0-0.02,0-0.03,0c-0.01,0-0.01,0-0.02,0c-0.01,0-0.01,0-0.01,0
		c-0.01,0-0.02,0-0.03,0c0,0-0.01,0-0.01,0c-0.01,0-0.02,0-0.03,0c0,0-0.01,0-0.01,0c-0.01,0-0.02,0-0.03,0c0,0-0.01,0-0.01,0
		c-0.01,0-0.02,0-0.03,0c0,0,0,0-0.01,0c-0.01,0-0.02,0-0.03,0h0c-0.01,0-0.02,0-0.03,0c0,0,0,0-0.01,0c-0.01,0-0.02,0-0.03,0
		c0,0,0,0-0.01,0c-0.01,0-0.02,0-0.04,0c12.64,0,39.49,0,50.29,0l0,0c0.19,0,0.43,0.1,0.63,0.13V0.05
		C123.82,2.99,214.98,131.12,240.09,131.12"/>
	<path class="st2" d="M104.85,0.13C104.65,0.1,104.4,0,104.22,0c0.2,0,0.41,0.02,0.63,0.05V0.13 M54.33,0.01
		C54.33,0.01,54.33,0.01,54.33,0.01C54.33,0.01,54.33,0.01,54.33,0.01 M54.31,0.01C54.31,0.01,54.3,0.01,54.31,0.01
		C54.3,0.01,54.31,0.01,54.31,0.01 M54.27,0.01c-0.01,0-0.01,0-0.02,0C54.26,0.01,54.26,0.01,54.27,0.01 M54.24,0.01
		c-0.01,0-0.02,0-0.03,0C54.22,0.01,54.23,0.01,54.24,0.01 M54.19,0c-0.01,0-0.02,0-0.03,0C54.17,0,54.18,0,54.19,0 M54.16,0
		c-0.01,0-0.02,0-0.03,0C54.14,0,54.15,0,54.16,0 M54.12,0c-0.01,0-0.02,0-0.03,0C54.1,0,54.11,0,54.12,0 M54.08,0
		c-0.01,0-0.02,0-0.03,0C54.05,0,54.07,0,54.08,0 M54.04,0c-0.01,0-0.02,0-0.03,0C54.02,0,54.03,0,54.04,0 M54,0
		c-0.01,0-0.02,0-0.03,0C53.98,0,53.99,0,54,0 M53.96,0c-0.01,0-0.02,0-0.04,0h0C53.94,0,53.95,0,53.96,0 M53.93,0
		c-4.16,0-6.78,0-6.78,0S49.16,0,53.93,0L53.93,0"/>
	<path class="st3" d="M47.15,131.12H0c0,0,37.37-28.79,65.31-28.79c9.29,0,15.42,0,19.52,0C68.73,119.08,54.84,131.12,47.15,131.12"
		/>
	<path class="st3" d="M221.92,28.79c-11.25,0-19.73,0-25.99,0C211.61,12.04,225.24,0,233.31,0h6.76h47.16
		C287.24,0,249.87,28.79,221.92,28.79 M182.39,0.13V0h0.63C182.83,0,182.59,0.1,182.39,0.13"/>
	<path class="st4" d="M47.15,131.12c16.03,0,28.33,0,50.29,0S206.64,0,233.31,0c26.67,0-32.82,0-50.29,0S72.55,131.12,47.15,131.12
		L47.15,131.12z"/>
	<path class="st4" d="M375.41,98.12c5.52-6.7,8.28-16.13,8.28-28.3c0-12.53-2.62-22.08-7.87-28.64c-5.24-6.56-12.86-9.84-22.85-9.84
		c-11.17,0-19.3,4-24.38,11.99h-0.41l-1.3-10.56h-5.72v107.55h6.74v-28.2c0-4-0.09-7.67-0.27-11.03l-0.2-5.72h0.48
		c5.22,8.54,13.53,12.8,24.93,12.8C362.37,108.16,369.89,104.81,375.41,98.12L375.41,98.12z M333.73,94.75
		c-3.88-4.95-5.82-13.21-5.82-24.79v-2.18c0-10.72,2.02-18.45,6.06-23.19c4.04-4.74,10.38-7.12,19-7.12
		c15.71,0,23.57,10.88,23.57,32.63c0,10.13-2.08,18-6.23,23.63c-4.15,5.63-10.02,8.45-17.61,8.45
		C343.93,102.17,337.61,99.69,333.73,94.75L333.73,94.75z M416.51,0.82h-6.74V106.8h6.74V0.82L416.51,0.82z M488.5,107.18
		c3.54-0.66,7.4-1.9,11.58-3.71v-6.13c-4.9,1.95-8.96,3.22-12.16,3.81c-3.2,0.59-6.91,0.89-11.14,0.89
		c-8.67,0-15.34-2.68-19.99-8.04c-4.65-5.36-7.03-13.12-7.12-23.29h53.33v-5.45c0-10.44-2.52-18.71-7.56-24.79
		c-5.04-6.08-11.92-9.13-20.64-9.13c-9.85,0-17.69,3.55-23.5,10.66c-5.81,7.11-8.72,16.56-8.72,28.37c0,11.94,3.01,21.23,9.02,27.86
		c6.02,6.63,14.41,9.94,25.17,9.94C481.05,108.16,484.96,107.83,488.5,107.18L488.5,107.18z M490.27,44.58
		c3.72,4.84,5.59,11.54,5.59,20.13h-45.77c0.73-8.85,3.25-15.63,7.56-20.33c4.31-4.7,10.04-7.05,17.16-7.05
		C481.39,37.33,486.55,39.75,490.27,44.58L490.27,44.58z M520.37,106.8h7.42l23.43-33.03l23.29,33.03h7.83L555.1,68.73l25.41-35.96
		h-7.42l-21.86,31.19l-22.07-31.19h-7.76l25.81,35.96L520.37,106.8L520.37,106.8z M603.25,32.76v48.36
		c0,18.03,8.42,27.04,25.27,27.04c12.3,0,20.86-3.86,25.68-11.58h0.41l1.23,10.22h5.72V32.76h-6.67v40.87
		c0,10.04-2.08,17.28-6.23,21.73c-4.15,4.45-10.64,6.67-19.45,6.67c-6.58,0-11.44-1.69-14.58-5.07c-3.13-3.38-4.7-8.8-4.7-16.24
		V32.76H603.25L603.25,32.76z M735.55,78.88c-1.52-2.45-3.8-4.64-6.84-6.57c-3.04-1.93-7.9-4.1-14.58-6.5
		c-7.99-2.86-13.36-5.45-16.11-7.76c-2.75-2.32-4.12-5.4-4.12-9.26c0-3.54,1.77-6.31,5.31-8.31c3.54-2,8.33-3,14.37-3
		c6.22,0,12.96,1.5,20.23,4.5l2.52-6.13c-7.17-3-14.76-4.5-22.75-4.5c-8.35,0-14.86,1.61-19.51,4.84
		c-4.65,3.22-6.98,7.61-6.98,13.15c0,3.5,0.76,6.46,2.28,8.89c1.52,2.43,3.78,4.61,6.78,6.54c3,1.93,8.2,4.23,15.6,6.91
		c6.9,2.45,11.86,4.95,14.88,7.49c3.02,2.54,4.53,5.68,4.53,9.4c0,4.04-1.9,7.28-5.69,9.71c-3.79,2.43-9.34,3.64-16.65,3.64
		c-8.27,0-16.12-1.86-23.57-5.58v7.29c5.81,3.04,13.67,4.56,23.57,4.56c9.26,0,16.41-1.78,21.45-5.35
		c5.04-3.56,7.56-8.66,7.56-15.29C737.84,84.21,737.07,81.33,735.55,78.88L735.55,78.88z"/>
</g>
</svg>
