<?xml version="1.0" encoding="utf-8"?>
<!-- Generator: Adobe Illustrator 25.0.0, SVG Export Plug-In . SVG Version: 6.00 Build 0)  -->
<svg version="1.1" id="Layer_1" xmlns="http://www.w3.org/2000/svg" xmlns:xlink="http://www.w3.org/1999/xlink" x="0px" y="0px"
	 viewBox="0 0 936 164.2" style="enable-background:new 0 0 936 164.2;" xml:space="preserve">
<style type="text/css">
	.st0{fill:#004C97;}
	.st1{fill:#489FDF;}
</style>
<g>
	<path class="st0" d="M248.3,82.9V0c-6,5.7-12.4,11-19.1,15.8v55.3L248.3,82.9L248.3,82.9z M210.1,87V27.9
		c-6.2,3.3-12.5,6.3-19.1,8.9V87H210.1L210.1,87z M171.9,87V43.2c-6.2,1.7-12.6,3.1-19.1,4.2V87H171.9L171.9,87z M152.8,127v37.2
		h19.1V127H152.8L152.8,127z M191,127v37.2h19.1V127H191L191,127z M229.2,144.3v19.8h19.1v-31.6L229.2,144.3L229.2,144.3z"/>
	<polygon class="st1" points="218.7,64.6 218.7,86.9 0,86.9 0,120.5 218.7,120.5 218.7,142.7 282.2,103.7 218.7,64.6 	"/>
	<path class="st0" d="M0,0v164.2h19.1V15.8C12.4,11,6,5.7,0,0L0,0z"/>
	<path class="st0" d="M76.4,43.2v120.9h19.1V47.4C89,46.4,82.6,45,76.4,43.2L76.4,43.2z"/>
	<path class="st0" d="M38.2,27.9v136.3h19.1V36.8C50.7,34.2,44.4,31.2,38.2,27.9L38.2,27.9z"/>
	<path class="st0" d="M114.6,49.4v114.8h19.1V49.4c-3.2,0.2-6.3,0.3-9.5,0.3C120.9,49.7,117.8,49.6,114.6,49.4L114.6,49.4z"/>
	<polygon class="st1" points="324,112.4 343.7,112.4 343.7,36.8 324,36.8 324,112.4 	"/>
	<path class="st1" d="M358.7,112.4h19.8V74.3c3-2.8,5.1-4.4,8.7-4.4c3.9,0,5.7,1.9,5.7,9.3v33.2h19.8V76.6
		c0-14.4-5.3-23.7-17.9-23.7c-7.8,0-13.6,4-18.1,8.4h-0.5l-1.4-7h-16.1V112.4L358.7,112.4z"/>
	<path class="st1" d="M425.5,112.4h19.8V74.3c3-2.8,5.1-4.4,8.7-4.4c3.9,0,5.7,1.9,5.7,9.3v33.2h19.8V76.6
		c0-14.4-5.3-23.7-17.9-23.7c-7.8,0-13.5,4-18.1,8.4h-0.5l-1.4-7h-16.1V112.4L425.5,112.4z"/>
	<path class="st1" d="M541.9,81c0-15.6-8-28.1-25-28.1c-14,0-27.6,11.6-27.6,30.5c0,19.3,12.9,30.5,29.6,30.5
		c6.4,0,14.7-2.3,20.9-6.7l-6.4-11.9c-4.1,2.3-7.8,3.5-11.7,3.5c-5.6,0-11.6-2-13.7-9.3h33.1C541.5,88,541.9,84.5,541.9,81L541.9,81
		z M525.2,76.4H508c1.6-6.2,5.4-8.4,9.3-8.4C523.3,68,525.2,71.9,525.2,76.4L525.2,76.4z"/>
	<path class="st1" d="M587.6,52.9c-0.2,0-0.4,0-0.7,0c-5.6,0-12.1,3.5-16.3,11.4h-0.5l-1.4-10h-16.1v58.1h19.8V80.1
		c2.8-7.2,7.8-9.8,11.9-9.8c2.3,0,4.1,0.4,6,0.8c-2.3-3.3-3.7-7.3-3.7-12.2C586.7,56.8,587.1,54.8,587.6,52.9L587.6,52.9z"/>
	<path class="st1" d="M618.6,113.8c18.6,0,29.2-11.4,29.2-24.2c0-10.5-5.3-17-14.6-20.7l-9.1-3.6c-6.8-2.7-11-4-11-7.6
		c0-3.4,3-5.1,7.8-5.1c5.5,0,9.9,1.9,14.9,5.5l9.9-12.6c-6.9-6.9-16.3-10.1-24.8-10.1c-16.3,0-27.8,10.6-27.8,23.5
		c0,10.9,7,17.8,15,21l9.3,4c6.3,2.6,10.1,3.7,10.1,7.3c0,3.4-2.5,5.3-8.5,5.3c-5.5,0-12.2-3-17.5-7.3L590.4,103
		C598.4,110.3,609.2,113.8,618.6,113.8L618.6,113.8z"/>
	<path class="st1" d="M712.1,83.3c0-19.3-13.8-30.5-28.5-30.5S655.1,64,655.1,83.3c0,19.3,13.8,30.5,28.5,30.5
		S712.1,102.6,712.1,83.3L712.1,83.3z M691.9,83.3c0,8.8-2.3,14.4-8.3,14.4s-8.3-5.6-8.3-14.4c0-8.8,2.3-14.4,8.3-14.4
		S691.9,74.5,691.9,83.3L691.9,83.3z"/>
	<path class="st1" d="M739.9,113.8c7.8,0,13.1-3.5,17.7-9.1h0.5l1.4,7.7h16.1V54.3h-19.8v37.4c-2.5,3.7-4.6,5.1-8.3,5.1
		c-3.9,0-5.7-1.9-5.7-9.3V54.3H722v35.8C722,104.5,727.2,113.8,739.9,113.8L739.9,113.8z"/>
	<path class="st1" d="M788.8,112.4h19.8V80.1c2.8-7.2,7.8-9.8,11.9-9.8c2.5,0,4.4,0.5,6.4,0.9l3.2-17.2c-1.6-0.7-3.6-1.2-7.1-1.2
		c-5.6,0-12.1,3.5-16.3,11.4h-0.5l-1.4-10h-16.1V112.4L788.8,112.4z"/>
	<path class="st1" d="M861.6,113.8c6,0,13.3-1.6,19.1-6.7l-7.6-13c-2.8,2.1-6,3.7-9.2,3.7c-6.2,0-11-5.6-11-14.4
		c0-8.8,4.4-14.4,11.7-14.4c2.1,0,3.9,0.7,6.4,2.8l9.2-12.8c-4.4-3.7-9.9-6-16.8-6c-16.3,0-30.8,11.2-30.8,30.5
		C832.7,102.6,845.3,113.8,861.6,113.8L861.6,113.8z"/>
	<path class="st1" d="M936,81c0-15.6-8-28.1-25-28.1c-14,0-27.6,11.6-27.6,30.5c0,19.3,12.9,30.5,29.6,30.5c6.4,0,14.7-2.3,20.9-6.7
		l-6.4-11.9c-4.1,2.3-7.8,3.5-11.7,3.5c-5.6,0-11.6-2-13.7-9.3h33.1C935.5,88,936,84.5,936,81L936,81z M919.2,76.4h-17.1
		c1.6-6.2,5.4-8.4,9.3-8.4C917.4,68,919.2,71.9,919.2,76.4L919.2,76.4z"/>
	<path class="st0" d="M333.9,164.2c5.9,0,9.6-3.5,9.6-8c0-4.3-2.6-6.2-5.9-7.6l-4.1-1.8c-2.2-1-4.8-2-4.8-4.9c0-2.7,2.2-4.4,5.6-4.4
		c2.7,0,4.9,1.1,6.6,2.7l1.7-2c-1.9-2-4.9-3.5-8.3-3.5c-5.1,0-8.8,3.1-8.8,7.4c0,4.2,3.2,6.2,5.8,7.3l4.1,1.8
		c2.7,1.2,4.9,2.2,4.9,5.3c0,3-2.4,5-6.3,5c-3,0-6-1.4-8-3.7l-2,2.2C326.4,162.5,329.9,164.2,333.9,164.2L333.9,164.2z M355.7,163.7
		h3.2v-11.6h4.9c6.3,0,10.4-2.8,10.4-8.7c0-6.2-4.2-8.3-10.6-8.3h-7.9V163.7L355.7,163.7z M358.9,149.4v-11.8h4.2
		c5.2,0,7.9,1.4,7.9,5.7c0,4.2-2.5,6.1-7.7,6.1H358.9L358.9,149.4z M386.7,163.7h16.7v-2.7h-13.5v-11h11v-2.7h-11v-9.5h13v-2.7
		h-16.2V163.7L386.7,163.7z M426.7,164.2c3.7,0,6.4-1.5,8.7-4.1l-1.8-2c-1.9,2.1-4,3.3-6.8,3.3c-5.6,0-9.1-4.7-9.1-12.1
		s3.7-11.9,9.3-11.9c2.5,0,4.4,1.1,5.9,2.8l1.8-2.1c-1.6-1.8-4.3-3.5-7.7-3.5c-7.3,0-12.6,5.7-12.6,14.8
		C414.3,158.6,419.6,164.2,426.7,164.2L426.7,164.2z M447.4,163.7h3.2v-28.6h-3.2V163.7L447.4,163.7z M481,163.7h3.4l-9.8-28.6h-3.6
		l-9.8,28.6h3.3l2.9-9h10.7L481,163.7L481,163.7z M468.3,152.1l1.5-4.6c1.1-3.3,2-6.4,2.9-9.7h0.2c1,3.4,1.9,6.4,3,9.7l1.5,4.6
		H468.3L468.3,152.1z M495.1,163.7h15.8v-2.7h-12.6v-25.9h-3.2V163.7L495.1,163.7z M537.8,163.7h3.2v-28.6h-3.2V163.7L537.8,163.7z
		 M555.5,163.7h3V148c0-3-0.3-5.9-0.4-8.8h0.2l3.1,5.9l10.8,18.5h3.3v-28.6h-3v15.5c0,2.9,0.3,6.1,0.4,8.9h-0.2l-3.1-5.9l-10.8-18.5
		h-3.3V163.7L555.5,163.7z M596.1,163.7h3.2v-25.9h8.8v-2.7h-20.8v2.7h8.8V163.7L596.1,163.7z M619.8,163.7h16.7v-2.7h-13.5v-11h11
		v-2.7h-11v-9.5h13v-2.7h-16.2V163.7L619.8,163.7z M668.6,163.7l-7.4-12.7c4-0.9,6.7-3.5,6.7-8c0-5.8-4-7.9-9.8-7.9h-8.7v28.6h3.2
		v-12.4h5.4l7.1,12.4H668.6L668.6,163.7z M652.4,137.7h5c4.6,0,7.1,1.4,7.1,5.3c0,3.8-2.5,5.7-7.1,5.7h-5V137.7L652.4,137.7z
		 M680.2,163.7h16.7v-2.7h-13.5v-11h11v-2.7h-11v-9.5h13v-2.7h-16.2V163.7L680.2,163.7z M717.4,164.2c5.9,0,9.6-3.5,9.6-8
		c0-4.3-2.6-6.2-5.9-7.6l-4.1-1.8c-2.2-1-4.8-2-4.8-4.9c0-2.7,2.2-4.4,5.6-4.4c2.7,0,4.9,1.1,6.6,2.7l1.7-2c-1.9-2-4.9-3.5-8.3-3.5
		c-5.1,0-8.8,3.1-8.8,7.4c0,4.2,3.2,6.2,5.8,7.3l4.1,1.8c2.7,1.2,4.9,2.2,4.9,5.3c0,3-2.4,5-6.3,5c-3,0-6-1.4-8-3.7l-2,2.2
		C709.9,162.5,713.3,164.2,717.4,164.2L717.4,164.2z M744.3,163.7h3.2v-25.9h8.8v-2.7h-20.8v2.7h8.8V163.7L744.3,163.7z
		 M794.3,164.2c3.8,0,6.9-1.4,8.7-3.3V149h-9.2v2.7h6.3v7.8c-1.2,1.1-3.3,1.8-5.5,1.8c-6.2,0-9.7-4.7-9.7-12.1
		c0-7.4,3.8-11.9,9.8-11.9c2.9,0,4.8,1.3,6.3,2.8l1.8-2.1c-1.7-1.7-4.2-3.5-8.1-3.5c-7.6,0-13,5.7-13,14.8
		C781.6,158.6,786.8,164.2,794.3,164.2L794.3,164.2z M835.9,163.7l-7.4-12.7c4-0.9,6.7-3.5,6.7-8c0-5.8-4-7.9-9.8-7.9h-8.7v28.6h3.2
		v-12.4h5.4l7.1,12.4H835.9L835.9,163.7z M819.8,137.7h5c4.6,0,7.1,1.4,7.1,5.3c0,3.8-2.5,5.7-7.1,5.7h-5V137.7L819.8,137.7z
		 M858,164.2c7.1,0,12.1-5.8,12.1-14.9c0-9.1-5-14.7-12.1-14.7c-7.1,0-12.1,5.6-12.1,14.7C845.9,158.4,850.9,164.2,858,164.2
		L858,164.2z M858,161.4c-5.3,0-8.8-4.7-8.8-12.1c0-7.3,3.5-11.9,8.8-11.9c5.3,0,8.8,4.6,8.8,11.9
		C866.8,156.6,863.3,161.4,858,161.4L858,161.4z M892.9,164.2c5.6,0,10.1-3,10.1-12.1v-17H900v17c0,7.1-3.2,9.3-7.1,9.3
		c-3.8,0-6.9-2.2-6.9-9.3v-17h-3.2v17C882.8,161.2,887.3,164.2,892.9,164.2L892.9,164.2z M917.5,163.7h3.2v-11.6h4.9
		c6.3,0,10.4-2.8,10.4-8.7c0-6.2-4.2-8.3-10.6-8.3h-7.9V163.7L917.5,163.7z M920.7,149.4v-11.8h4.2c5.2,0,7.9,1.4,7.9,5.7
		c0,4.2-2.5,6.1-7.7,6.1H920.7L920.7,149.4z"/>
</g>
</svg>
