<?xml version="1.0" encoding="utf-8"?>
<!-- Generator: Adobe Illustrator 26.0.2, SVG Export Plug-In . SVG Version: 6.00 Build 0)  -->
<svg version="1.1" id="Layer_1" xmlns="http://www.w3.org/2000/svg" xmlns:xlink="http://www.w3.org/1999/xlink" x="0px" y="0px"
	 viewBox="0 0 658.3 501.8" style="enable-background:new 0 0 658.3 501.8;" xml:space="preserve">
<style type="text/css">
	.st0{fill:#A7A8A9;}
	.st1{fill:#00B5E2;}
</style>
<g>
	<path class="st0" d="M648.1,317.4c-6.6-23-22.6-43-33.1-36.3c-19.1-37.5-46.2-70.4-79-96.2l38.8-95.3c18.4,1.8,36.8-7.8,45.1-25.6
		c10.5-22.5,0.8-49.3-21.8-59.8C575.6-6.3,548.8,3.5,538.3,26c-8.3,17.8-3.8,38,9.4,51l-45.1,85.4c-42.4-24.7-91.6-39-144.2-39
		h-23.9v378.5H646v-84.4C668.3,412.9,654.7,340.5,648.1,317.4L648.1,317.4z M510.9,336.3c0,0.2,0.1,0.3,0.1,0.5
		c0,8.9-1.9,17.4-5.2,25.1c-10.3,25.3-35.1,43.2-64.2,43.2c-38.3,0-69.4-31.1-69.4-69.4c0-38.3,31.1-69.4,69.4-69.4
		c38.3,0,69.4,31.1,69.4,69.4C511,335.9,510.9,336.1,510.9,336.3L510.9,336.3z"/>
	<path class="st1" d="M10.2,317.4c6.6-23,22.6-43,33.1-36.3c19.1-37.5,46.2-70.4,79-96.2L83.5,89.6C65,91.4,46.7,81.8,38.4,64
		C27.9,41.5,37.6,14.7,60.1,4.2C82.7-6.3,109.4,3.5,119.9,26c8.3,17.8,3.8,38-9.4,51l45.1,85.4c42.4-24.7,91.6-39,144.2-39h23.9
		v378.5H12.2v-84.4C-10,412.9,3.6,340.5,10.2,317.4L10.2,317.4z M147.3,336.3c0,0.2-0.1,0.3-0.1,0.5c0,8.9,1.9,17.4,5.2,25.1
		c10.3,25.3,35.1,43.2,64.2,43.2c38.3,0,69.4-31.1,69.4-69.4c0-38.3-31.1-69.4-69.4-69.4c-38.3,0-69.4,31.1-69.4,69.4
		C147.3,335.9,147.3,336.1,147.3,336.3L147.3,336.3z"/>
</g>
</svg>
