<?xml version="1.0" encoding="utf-8"?>
<!-- Generator: Adobe Illustrator 27.0.0, SVG Export Plug-In . SVG Version: 6.00 Build 0)  -->
<svg version="1.1" id="Layer_1" xmlns="http://www.w3.org/2000/svg" xmlns:xlink="http://www.w3.org/1999/xlink" x="0px" y="0px"
	 viewBox="0 0 649.8 450.3" style="enable-background:new 0 0 649.8 450.3;" xml:space="preserve">
<style type="text/css">
	.st0{fill:#50C9EF;}
	.st1{fill:#FFFFFF;}
</style>
<g>
	<g>
		<path class="st0" d="M0,163.6V3.1h104v23.7H29.8v45.1h60.4v22.9H29.8v68.8H0z"/>
		<path class="st0" d="M123.1,163.6V3.1h55c19.1,0,34.4,3.1,46.6,9.9c12.2,6.9,21.4,16.1,26.8,28.3c6.1,12.2,9.2,26,9.2,42
			s-3.1,30.6-9.2,42c-6.1,12.2-15.3,21.4-26.8,28.3s-27.5,9.9-46.6,9.9H123.1z M152.1,138.4h24.5c13.8,0,23.7-2.3,32.1-6.9
			c7.6-4.6,13.8-10.7,16.8-19.1c3.1-8.4,5.4-18.3,5.4-29.8s-1.5-21.4-5.4-29.8c-3.1-8.4-9.2-14.5-16.8-19.1s-18.3-6.9-32.1-6.9
			h-24.5C152.1,26.8,152.1,138.4,152.1,138.4z"/>
		<path class="st0" d="M354.7,166.7c-16.1,0-29.8-3.8-42-10.7c-12.2-6.9-20.6-16.8-26.8-29.1s-9.2-26.8-9.2-43.6s3.1-30.6,9.2-43.6
			c6.1-12.2,15.3-22.2,26.8-29.1C324.2,3.8,337.9,0,354.7,0c19.1,0,35.2,4.6,47.4,14.5c12.2,9.9,19.9,22.9,22.9,40.5H393
			c-2.3-8.4-6.1-15.3-13-20.6c-6.9-4.6-15.3-7.6-26-7.6c-14.5,0-26.8,5.4-35.2,15.3s-12.2,23.7-12.2,41.3s3.8,31.3,12.2,41.3
			s19.9,15.3,35.2,15.3c10.7,0,19.1-2.3,26-6.9c6.9-4.6,10.7-11.5,13-19.1h32.1c-3.1,16.8-10.7,29.8-22.9,39
			C389.9,162.1,373.8,166.7,354.7,166.7z"/>
		<path class="st0" d="M500,166.7c-10.7,0-19.9-1.5-29.1-5.4c-9.2-3.8-15.3-9.2-20.6-17.6c-5.4-7.6-7.6-17.6-8.4-29.1h29.1
			c0,7.6,3.1,14.5,7.6,19.9c4.6,5.4,12.2,7.6,20.6,7.6c8.4,0,15.3-2.3,19.9-6.9c4.6-4.6,6.9-10.7,6.9-17.6c0-8.4-3.1-14.5-9.2-19.1
			c-6.1-4.6-13.8-6.9-22.9-6.9h-12.2V67.3h12.2c7.6,0,14.5-1.5,19.1-5.4c5.4-3.8,7.6-9.2,7.6-16.1c0-6.1-2.3-10.7-6.1-14.5
			c-3.8-3.8-9.2-5.4-16.1-5.4c-7.6,0-13,2.3-17.6,6.9c-4.6,4.6-6.9,9.9-6.9,16.1h-29.1c0.8-14.5,6.1-26.8,15.3-35.2
			c9.9-8.4,22.2-13,37.5-13c10.7,0,20.6,2.3,27.5,6.1c7.6,3.8,13,9.2,16.8,15.3s6.1,13.8,6.1,21.4c0,9.2-2.3,16.8-7.6,22.9
			c-5.4,6.1-11.5,10.7-18.3,12.2c9.2,1.5,16.1,6.1,22.2,13c5.4,6.9,8.4,16.1,8.4,26c0,9.2-2.3,16.8-6.1,24.5
			c-3.8,7.6-10.7,13-18.3,17.6C522.2,164.4,512.2,166.7,500,166.7z"/>
	</g>
	<g>
		<path class="st1" d="M87.2,450.3c-16.8,0-32.1-3.1-44.3-8.4c-13-6.1-22.9-13.8-30.6-25.2S0.8,393,0.8,376.9h44.3
			c0.8,10.7,4.6,19.9,11.5,26.8c7.6,7.6,17.6,10.7,30.6,10.7c11.5,0,19.9-3.1,26.8-8.4c6.9-5.4,9.9-12.2,9.9-21.4
			s-3.1-16.8-8.4-22.2c-6.1-5.4-13.8-9.2-22.9-13c-9.9-3.1-19.9-6.9-30.6-10.7c-17.6-6.1-31.3-13.8-40.5-23.7
			c-9.2-9.9-13.8-22.2-13.8-38.2c0-13.8,3.1-25.2,9.9-35.2c6.9-9.9,16.1-17.6,27.5-22.9c11.5-5.4,25.2-8.4,39.8-8.4
			c15.3,0,29.1,3.1,40.5,8.4c11.5,5.4,20.6,13,27.5,22.9c6.9,9.9,9.9,21.4,10.7,35.2h-45.1c0-8.4-3.1-15.3-9.2-21.4
			c-6.1-6.1-14.5-9.2-25.2-9.2c-9.2,0-16.8,2.3-22.9,6.9c-6.1,4.6-9.2,11.5-9.2,20.6c0,7.6,2.3,13.8,6.9,18.3
			c4.6,4.6,11.5,8.4,19.9,11.5c8.4,3.1,17.6,6.1,28.3,9.9c11.5,3.8,22.2,8.4,31.3,13.8s16.8,12.2,22.9,20.6
			c5.4,8.4,8.4,19.9,8.4,33.6c0,12.2-3.1,22.9-9.2,33.6c-6.1,9.9-15.3,18.3-27.5,24.5C119.3,447.2,104.7,450.3,87.2,450.3z"/>
		<path class="st1" d="M185,446.5l84.1-230.1h47.4l84.1,230.1h-44.3L337.9,393h-90.2l-19.1,53.5H185z M259.2,360.9h66.5L292,265.3
			L259.2,360.9z"/>
		<path class="st1" d="M425.1,446.5V216.4h42v230.1H425.1z"/>
		<path class="st1" d="M506.1,446.5V216.4h42v197.2h101.7v32.9H506.1z"/>
	</g>
</g>
</svg>
