<?xml version="1.0" encoding="utf-8"?>
<!-- Generator: Adobe Illustrator 27.0.0, SVG Export Plug-In . SVG Version: 6.00 Build 0)  -->
<svg version="1.1" id="Layer_1" xmlns="http://www.w3.org/2000/svg" xmlns:xlink="http://www.w3.org/1999/xlink" x="0px" y="0px"
	 viewBox="0 0 583.5 404.3" style="enable-background:new 0 0 583.5 404.3;" xml:space="preserve">
<g>
	<g>
		<path d="M0,146.9V2.7h93.4V24H26.8v40.5H81v20.6H26.8v61.8H0z"/>
		<path d="M110.5,146.9V2.7h49.4c17.2,0,30.9,2.7,41.9,8.9s19.2,14.4,24,25.4c5.5,11,8.2,23.3,8.2,37.8s-2.7,27.5-8.2,37.8
			c-5.5,11-13.7,19.2-24,25.4c-10.3,6.2-24.7,8.9-41.9,8.9H110.5z M136.6,124.2h22c12.4,0,21.3-2.1,28.8-6.2
			c6.9-4.1,12.4-9.6,15.1-17.2s4.8-16.5,4.8-26.8s-1.4-19.2-4.8-26.8c-2.7-7.6-8.2-13-15.1-17.2c-6.9-4.1-16.5-6.2-28.8-6.2h-22
			C136.6,24,136.6,124.2,136.6,124.2z"/>
		<path d="M318.5,149.6c-14.4,0-26.8-3.4-37.8-9.6c-11-6.2-18.5-15.1-24-26.1s-8.2-24-8.2-39.1s2.7-27.5,8.2-39.1
			c5.5-11,13.7-19.9,24-26.1C291,3.4,303.4,0,318.5,0c17.2,0,31.6,4.1,42.6,13c11,8.9,17.8,20.6,20.6,36.4h-28.8
			c-2.1-7.6-5.5-13.7-11.7-18.5c-6.2-4.1-13.7-6.9-23.3-6.9c-13,0-24,4.8-31.6,13.7c-7.6,8.9-11,21.3-11,37.1s3.4,28.1,11,37.1
			c7.6,8.9,17.8,13.7,31.6,13.7c9.6,0,17.2-2.1,23.3-6.2c6.2-4.1,9.6-10.3,11.7-17.2h28.8c-2.7,15.1-9.6,26.8-20.6,35
			C350.1,145.5,335.7,149.6,318.5,149.6z"/>
		<path d="M448.9,149.6c-9.6,0-17.8-1.4-26.1-4.8c-8.2-3.4-13.7-8.2-18.5-15.8c-4.8-6.9-6.9-15.8-7.6-26.1h26.1
			c0,6.9,2.7,13,6.9,17.8c4.1,4.8,11,6.9,18.5,6.9c7.6,0,13.7-2.1,17.8-6.2c4.1-4.1,6.2-9.6,6.2-15.8c0-7.6-2.7-13-8.2-17.2
			c-5.5-4.1-12.4-6.2-20.6-6.2h-11v-22h11c6.9,0,13-1.4,17.2-4.8c4.8-3.4,6.9-8.2,6.9-14.4c0-5.5-2.1-9.6-5.5-13
			c-3.4-3.4-8.2-4.8-14.4-4.8c-6.9,0-11.7,2.1-15.8,6.2c-4.1,4.1-6.2,8.9-6.2,14.4h-26.1c0.7-13,5.5-24,13.7-31.6
			c8.9-7.6,19.9-11.7,33.6-11.7c9.6,0,18.5,2.1,24.7,5.5c6.9,3.4,11.7,8.2,15.1,13.7s5.5,12.4,5.5,19.2c0,8.2-2.1,15.1-6.9,20.6
			c-4.8,5.5-10.3,9.6-16.5,11c8.2,1.4,14.4,5.5,19.9,11.7c4.8,6.2,7.6,14.4,7.6,23.3c0,8.2-2.1,15.1-5.5,22
			c-3.4,6.9-9.6,11.7-16.5,15.8C468.8,147.6,459.9,149.6,448.9,149.6z"/>
	</g>
	<g>
		<path d="M78.3,404.3c-15.1,0-28.8-2.7-39.8-7.6c-11.7-5.5-20.6-12.4-27.5-22.7S0.7,352.8,0.7,338.4h39.8c0.7,9.6,4.1,17.8,10.3,24
			c6.9,6.9,15.8,9.6,27.5,9.6c10.3,0,17.8-2.7,24-7.6c6.2-4.8,8.9-11,8.9-19.2c0-8.2-2.7-15.1-7.6-19.9c-5.5-4.8-12.4-8.2-20.6-11.7
			c-8.9-2.7-17.8-6.2-27.5-9.6c-15.8-5.5-28.1-12.4-36.4-21.3c-8.2-8.9-12.4-19.9-12.4-34.3c0-12.4,2.7-22.7,8.9-31.6
			s14.4-15.8,24.7-20.6s22.7-7.6,35.7-7.6c13.7,0,26.1,2.7,36.4,7.6c10.3,4.8,18.5,11.7,24.7,20.6c6.2,8.9,8.9,19.2,9.6,31.6h-40.5
			c0-7.6-2.7-13.7-8.2-19.2c-5.5-5.5-13-8.2-22.7-8.2c-8.2,0-15.1,2.1-20.6,6.2c-5.5,4.1-8.2,10.3-8.2,18.5c0,6.9,2.1,12.4,6.2,16.5
			c4.1,4.1,10.3,7.6,17.8,10.3c7.6,2.7,15.8,5.5,25.4,8.9c10.3,3.4,19.9,7.6,28.1,12.4c8.2,4.8,15.1,11,20.6,18.5
			c4.8,7.6,7.6,17.8,7.6,30.2c0,11-2.7,20.6-8.2,30.2c-5.5,8.9-13.7,16.5-24.7,22C107.1,401.6,94,404.3,78.3,404.3z"/>
		<path d="M166.1,400.9l75.5-206.6h42.6l75.5,206.6h-39.8l-16.5-48h-81l-17.2,48H166.1z M232.7,324h59.7l-30.2-85.8L232.7,324z"/>
		<path d="M381.6,400.9V194.3h37.8v206.6H381.6z"/>
		<path d="M454.4,400.9V194.3h37.8v177.1h91.3v29.5H454.4z"/>
	</g>
</g>
</svg>
