<?xml version="1.0" encoding="utf-8"?>
<!-- Generator: Adobe Illustrator 25.0.0, SVG Export Plug-In . SVG Version: 6.00 Build 0)  -->
<svg version="1.1" id="Layer_1" xmlns="http://www.w3.org/2000/svg" xmlns:xlink="http://www.w3.org/1999/xlink" x="0px" y="0px"
	 viewBox="0 0 720 122.1" style="enable-background:new 0 0 720 122.1;" xml:space="preserve">
<style type="text/css">
	.st0{fill:#00000A;}
</style>
<g>
	<path class="st0" d="M122.1,118.3V3.8c0-2.1-1.7-3.8-3.8-3.8H3.8C1.7,0,0,1.7,0,3.8v114.5c0,2.1,1.7,3.8,3.8,3.8h114.5
		C120.4,122.1,122.1,120.4,122.1,118.3L122.1,118.3z M87.2,76.3c0,5.4-3.1,10-8.1,12.4L61,98.1l-18.2-9.5c-4.9-2.4-8-7-8-12.4v-9.8
		l10.9,3.3v6.5c0,1.2,0.7,2,1.9,2.6L61,85.6l13.3-6.6c1.3-0.6,2-1.4,2-2.6v-8.7l-41.5-12V36c0-2.7,1.4-5.2,3.8-6.6
		c3.5-2.1,11-5.5,22.4-5.5c11.4,0,18.9,3.4,22.4,5.5c2.3,1.4,3.8,3.9,3.8,6.6v13l-10.9-3.3V38c-3-1.4-8-3.1-15.3-3.1
		c-7.3,0-12.3,1.7-15.3,3.1v10l41.5,12V76.3L87.2,76.3z"/>
	<path class="st0" d="M182,61c-8.8,0-16.3-2.9-23.1-7.1l4.2-6.3c6.8,4.3,13,6.4,19.9,6.4c8.1,0,12-3.1,12-6.8
		c0-10.6-34.5-4.2-34.5-21.1c0-8.2,8.2-14.7,21.5-14.7c8.9,0,16.6,3.3,21.2,7.9l-5.2,5.3c-3.9-3.4-9.9-6.1-16.2-6.1
		c-7.7,0-13,2.8-13,6.8c0,9.8,34.5,4.6,34.5,21.2C203.5,55.1,194.6,61,182,61L182,61z M237.3,40.8v18.6h-8.4V40.7L208,13h9.8
		l15.7,21.5L248.3,13h9.6L237.3,40.8L237.3,40.8z M316.2,59.4V23l-2.3,4.9l-16.4,31.4h-5L276.2,28l-2.3-4.9v36.4h-8V13h11.6
		l15.6,31.2l2.2,4.7l2.2-4.7L312.8,13h11.5v46.4H316.2L316.2,59.4z M369.8,26.8c0-3.8-2.6-6.7-8.9-6.7h-15.4v15h15.7
		c6.3,0,8.6-3.1,8.6-6.8V26.8L369.8,26.8z M360,41.9h-14.5v17.5h-8.4V13H360c12.7,0,18.2,5.7,18.2,13.8V28
		C378.2,36.1,372.6,41.9,360,41.9L360,41.9z M423.8,59.4v-20h-27.9v20h-8.4V13h8.4v19.6h27.9V13h8.4v46.4H423.8L423.8,59.4z
		 M482.6,33.3c0-7.9-5.5-14.8-15.7-14.8c-10.2,0-15.6,6.8-15.6,14.8V39c0,7.9,5.4,14.9,15.6,14.9c10.2,0,15.7-7,15.7-14.9V33.3
		L482.6,33.3z M466.9,61c-14.9,0-24-10.6-24-21.9v-5.8c0-11.6,9.1-21.9,24-21.9c15,0,24.1,10.4,24.1,21.9v5.8
		C491,50.4,481.9,61,466.9,61L466.9,61z M539.3,59.4l-26-29.3l-3.3-4.3v33.6h-8.3V13h7.7l25.1,29.4l3.4,4.3V13h8.2v46.4H539.3
		L539.3,59.4z M583.4,40.8v18.6H575V40.7L554.1,13h9.8l15.7,21.5L594.4,13h9.6L583.4,40.8L583.4,40.8z"/>
	<path class="st0" d="M172.1,111.1c6,0,10.1-3.1,10.1-8.5v-0.1c0-4.8-3.2-6.8-8.7-8.3c-4.8-1.2-6-1.8-6-3.6v-0.1
		c0-1.3,1.2-2.4,3.5-2.4c2.3,0,4.7,1,7.2,2.7l3.2-4.6c-2.8-2.2-6.2-3.5-10.2-3.5c-5.6,0-9.7,3.3-9.7,8.3v0.1c0,5.5,3.6,7,9.1,8.4
		c4.6,1.2,5.6,2,5.6,3.5v0.1c0,1.6-1.5,2.6-4,2.6c-3.2,0-5.8-1.3-8.2-3.4l-3.6,4.3C163.7,109.6,167.9,111.1,172.1,111.1L172.1,111.1
		z M186.1,110.7h20.4v-5.2h-12l4.5-3.5c4.9-3.8,7.2-6.1,7.2-10.7v-0.1c0-5.2-3.8-8.5-9.5-8.5c-4.9,0-7.6,2-10.3,5.7l4.3,3.4
		c2.1-2.5,3.5-3.7,5.6-3.7c2.2,0,3.7,1.3,3.7,3.6c0,2.3-1.3,3.8-4.8,6.6l-9.2,7.5V110.7L186.1,110.7z M236.8,111.2
		c5.3,0,8.5-1.9,11.3-4.9l-3.9-3.9c-2.2,2-4.1,3.2-7.3,3.2c-4.7,0-8-3.9-8-8.7v-0.1c0-4.7,3.4-8.6,8-8.6c2.8,0,4.9,1.2,7.1,3.1
		l3.9-4.5c-2.6-2.5-5.7-4.3-10.9-4.3c-8.5,0-14.4,6.4-14.4,14.3V97C222.7,104.9,228.7,111.2,236.8,111.2L236.8,111.2z M265.6,111.2
		c8.5,0,14.7-6.4,14.7-14.3v-0.1c0-7.8-6.1-14.2-14.6-14.2c-8.5,0-14.7,6.4-14.7,14.3V97C251,104.8,257.1,111.2,265.6,111.2
		L265.6,111.2z M265.7,105.6c-4.9,0-8.4-3.9-8.4-8.7v-0.1c0-4.7,3.4-8.6,8.3-8.6c4.9,0,8.4,3.9,8.4,8.7V97
		C273.9,101.7,270.6,105.6,265.7,105.6L265.7,105.6z M285.7,110.7h5.9V92.8l7.7,11.7h0.2l7.8-11.8v18h6V83.1h-6.5l-7.3,11.7
		l-7.3-11.7h-6.5V110.7L285.7,110.7z M319.9,110.7h5.9V92.8l7.7,11.7h0.2l7.8-11.8v18h6V83.1H341l-7.3,11.7l-7.3-11.7h-6.5V110.7
		L319.9,110.7z M367.5,111.2c8.5,0,14.7-6.4,14.7-14.3v-0.1c0-7.8-6.1-14.2-14.6-14.2c-8.5,0-14.7,6.4-14.7,14.3V97
		C352.9,104.8,359,111.2,367.5,111.2L367.5,111.2z M367.6,105.6c-4.9,0-8.4-3.9-8.4-8.7v-0.1c0-4.7,3.4-8.6,8.3-8.6
		c4.9,0,8.4,3.9,8.4,8.7V97C375.9,101.7,372.5,105.6,367.6,105.6L367.6,105.6z M387.6,110.7h6V93.2l13.4,17.5h5.2V83.1h-6v17
		l-12.9-17h-5.6V110.7L387.6,110.7z M443.5,111.2c5.3,0,8.5-1.9,11.3-4.9l-3.9-3.9c-2.2,2-4.1,3.2-7.3,3.2c-4.7,0-8-3.9-8-8.7v-0.1
		c0-4.7,3.4-8.6,8-8.6c2.8,0,4.9,1.2,7.1,3.1l3.9-4.5c-2.6-2.5-5.7-4.3-10.9-4.3c-8.5,0-14.4,6.4-14.4,14.3V97
		C429.4,104.9,435.4,111.2,443.5,111.2L443.5,111.2z M472.3,111.2c8.5,0,14.7-6.4,14.7-14.3v-0.1c0-7.8-6.1-14.2-14.6-14.2
		c-8.5,0-14.7,6.4-14.7,14.3V97C457.7,104.8,463.8,111.2,472.3,111.2L472.3,111.2z M472.4,105.6c-4.9,0-8.4-3.9-8.4-8.7v-0.1
		c0-4.7,3.4-8.6,8.3-8.6s8.4,3.9,8.4,8.7V97C480.6,101.7,477.2,105.6,472.4,105.6L472.4,105.6z M492.4,110.7h5.9V92.8l7.7,11.7h0.2
		l7.8-11.8v18h6V83.1h-6.5l-7.3,11.7l-7.3-11.7h-6.5V110.7L492.4,110.7z M526.6,110.7h6.1v-8.3h4.6c6.2,0,11.2-3.3,11.2-9.7v-0.1
		c0-5.6-4-9.5-10.6-9.5h-11.3V110.7L526.6,110.7z M532.7,97v-8.4h4.7c3,0,4.9,1.5,4.9,4.2v0.1c0,2.4-1.8,4.2-4.8,4.2H532.7L532.7,97
		z M566.3,111.2c8.5,0,14.7-6.4,14.7-14.3v-0.1c0-7.8-6.1-14.2-14.6-14.2s-14.7,6.4-14.7,14.3V97
		C551.7,104.8,557.8,111.2,566.3,111.2L566.3,111.2z M566.4,105.6c-4.9,0-8.4-3.9-8.4-8.7v-0.1c0-4.7,3.4-8.6,8.3-8.6
		c4.9,0,8.4,3.9,8.4,8.7V97C574.7,101.7,571.3,105.6,566.4,105.6L566.4,105.6z M586.4,110.7h6V93.2l13.4,17.5h5.2V83.1h-6v17
		l-12.9-17h-5.6V110.7L586.4,110.7z M617.6,110.7h21v-5.4h-15v-5.8h13v-5.4h-13v-5.6h14.8v-5.4h-20.8V110.7L617.6,110.7z M644,110.7
		h6V93.2l13.4,17.5h5.2V83.1h-6v17l-12.9-17H644V110.7L644,110.7z M681.5,110.7h6.1v-22h8.4v-5.6h-22.9v5.6h8.4V110.7L681.5,110.7z
		 M709.9,111.1c6,0,10.1-3.1,10.1-8.5v-0.1c0-4.8-3.2-6.8-8.7-8.3c-4.8-1.2-6-1.8-6-3.6v-0.1c0-1.3,1.2-2.4,3.5-2.4
		c2.3,0,4.7,1,7.2,2.7l3.2-4.6c-2.8-2.2-6.2-3.5-10.2-3.5c-5.6,0-9.7,3.3-9.7,8.3v0.1c0,5.5,3.6,7,9.1,8.4c4.6,1.2,5.6,2,5.6,3.5
		v0.1c0,1.6-1.5,2.6-4,2.6c-3.2,0-5.8-1.3-8.2-3.4l-3.6,4.3C701.5,109.6,705.7,111.1,709.9,111.1L709.9,111.1z"/>
</g>
</svg>
