<?xml version="1.0" encoding="utf-8"?>
<!-- Generator: Adobe Illustrator 24.1.0, SVG Export Plug-In . SVG Version: 6.00 Build 0)  -->
<svg version="1.1" id="Layer_1" xmlns="http://www.w3.org/2000/svg" xmlns:xlink="http://www.w3.org/1999/xlink" x="0px" y="0px"
	 viewBox="0 0 504 181.65" style="enable-background:new 0 0 504 181.65;" xml:space="preserve">
<style type="text/css">
	.st0{fill:#0B1F41;}
	.st1{fill:#0586BF;}
	.st2{fill:#5297C9;}
	.st3{fill:#1670A0;}
	.st4{fill:#2089C1;}
	.st5{fill:#0880B7;}
	.st6{fill:#FFFFFF;}
	.st7{fill:#F05323;}
	.st8{fill:#F58220;}
</style>
<g>
	<path class="st0" d="M227.92,116.79v-15.53h8.81c2.83,0,5.09,0.65,6.77,1.94c1.68,1.3,2.52,3.22,2.52,5.76v0.12
		c0,2.26-0.83,4.11-2.49,5.55c-1.66,1.44-3.93,2.16-6.8,2.16H227.92L227.92,116.79z M220.43,137.42h7.49v-13.81h8.55
		c2.38,0,4.61-0.32,6.71-0.95c2.09-0.63,3.92-1.56,5.48-2.79c1.56-1.23,2.79-2.75,3.69-4.57c0.9-1.82,1.35-3.94,1.35-6.35v-0.12
		c0-2.17-0.38-4.13-1.13-5.89c-0.76-1.76-1.84-3.27-3.25-4.54c-1.41-1.27-3.13-2.24-5.16-2.92c-2.03-0.67-4.29-1.01-6.78-1.01
		h-16.94V137.42L220.43,137.42z M286.25,129.99c-1.79-0.82-3.33-1.91-4.62-3.28c-1.28-1.37-2.28-2.99-2.99-4.85
		c-0.71-1.86-1.07-3.84-1.07-5.92v-0.12c0-2.09,0.36-4.05,1.07-5.89c0.71-1.84,1.7-3.45,2.96-4.82c1.26-1.37,2.78-2.46,4.55-3.25
		c1.77-0.8,3.72-1.2,5.84-1.2c2.12,0,4.07,0.41,5.87,1.23c1.79,0.82,3.33,1.91,4.61,3.28c1.28,1.37,2.28,2.99,2.99,4.85
		c0.71,1.86,1.07,3.84,1.07,5.92v0.12c0,2.09-0.36,4.05-1.07,5.89c-0.71,1.84-1.7,3.45-2.96,4.82c-1.26,1.37-2.78,2.46-4.55,3.25
		c-1.77,0.8-3.72,1.2-5.84,1.2C290,131.22,288.05,130.81,286.25,129.99L286.25,129.99z M301.08,136.37
		c2.74-1.19,5.12-2.79,7.12-4.82c2-2.03,3.56-4.38,4.66-7.06c1.11-2.68,1.66-5.53,1.66-8.56v-0.12c0-3.03-0.55-5.88-1.66-8.56
		c-1.1-2.68-2.64-5.02-4.6-7.03c-1.96-2-4.32-3.59-7.06-4.76c-2.74-1.17-5.77-1.75-9.08-1.75c-3.32,0-6.34,0.59-9.08,1.78
		c-2.74,1.19-5.12,2.79-7.12,4.82c-2.01,2.03-3.56,4.38-4.66,7.06c-1.11,2.68-1.66,5.54-1.66,8.56v0.12c0,3.03,0.55,5.88,1.66,8.56
		c1.1,2.68,2.64,5.02,4.6,7.03c1.96,2.01,4.32,3.59,7.06,4.76c2.74,1.17,5.77,1.75,9.08,1.75
		C295.31,138.15,298.34,137.56,301.08,136.37L301.08,136.37z M333.73,137.42h30.08v-6.81h-22.59V94.45h-7.49V137.42L333.73,137.42z
		 M382.22,137.42h7.49V94.45h-7.49V137.42L382.22,137.42z M436.82,137.63c1.66-0.35,3.18-0.86,4.57-1.54
		c1.39-0.67,2.69-1.47,3.9-2.39c1.21-0.92,2.36-1.97,3.47-3.16l-4.85-4.91c-1.84,1.72-3.7,3.08-5.59,4.08c-1.88,1-4.13,1.5-6.75,1.5
		c-2.05,0-3.94-0.4-5.68-1.2c-1.74-0.8-3.24-1.89-4.51-3.28c-1.27-1.39-2.25-3.02-2.95-4.88c-0.7-1.86-1.04-3.84-1.04-5.92v-0.12
		c0-2.09,0.35-4.05,1.04-5.89c0.69-1.84,1.68-3.45,2.95-4.82c1.27-1.37,2.77-2.46,4.51-3.25c1.74-0.8,3.63-1.2,5.68-1.2
		c2.46,0,4.64,0.49,6.57,1.47c1.92,0.98,3.74,2.27,5.46,3.87l4.85-5.58c-1.02-0.98-2.11-1.88-3.25-2.7
		c-1.15-0.82-2.39-1.52-3.74-2.12c-1.35-0.59-2.83-1.05-4.45-1.38c-1.62-0.33-3.41-0.49-5.37-0.49c-3.27,0-6.26,0.58-8.96,1.75
		c-2.7,1.17-5.04,2.76-7.01,4.79c-1.98,2.03-3.51,4.38-4.6,7.06c-1.09,2.68-1.64,5.55-1.64,8.62v0.12c0,3.07,0.56,5.95,1.67,8.65
		c1.11,2.7,2.65,5.04,4.6,7.03c1.96,1.98,4.26,3.55,6.92,4.7c2.66,1.14,5.56,1.72,8.72,1.72
		C433.33,138.15,435.16,137.98,436.82,137.63L436.82,137.63z M479.33,137.42h7.61v-17.12L504,94.45h-8.66l-12.15,19.03l-12.03-19.03
		h-8.9l17.06,26.02V137.42L479.33,137.42z"/>
	<path class="st1" d="M219.66,70.46h16.24V49.53h27.7V35.97h-27.7V26.1h30.63V11.87h-46.87V70.46L219.66,70.46z M297.36,55.68
		c-1.85-0.86-3.43-2.02-4.74-3.47c-1.32-1.45-2.34-3.12-3.06-5.02c-0.73-1.9-1.09-3.91-1.09-6.03v-0.17c0-2.12,0.35-4.13,1.05-6.03
		c0.7-1.9,1.7-3.56,3.02-4.98c1.32-1.42,2.88-2.55,4.7-3.39c1.82-0.84,3.85-1.26,6.09-1.26c2.24,0,4.28,0.43,6.13,1.3
		c1.85,0.87,3.44,2.02,4.78,3.47c1.34,1.45,2.38,3.13,3.1,5.02c0.73,1.9,1.09,3.91,1.09,6.03v0.17c0,2.12-0.36,4.13-1.09,6.03
		c-0.73,1.9-1.74,3.56-3.02,4.98c-1.29,1.42-2.85,2.55-4.7,3.39c-1.85,0.84-3.89,1.26-6.13,1.26
		C301.25,56.98,299.21,56.55,297.36,55.68L297.36,55.68z M315.92,69.24c3.85-1.59,7.2-3.77,10.05-6.53c2.84-2.76,5.06-6,6.65-9.71
		c1.59-3.71,2.38-7.66,2.38-11.84v-0.17c0-4.18-0.79-8.12-2.38-11.8c-1.59-3.68-3.78-6.89-6.57-9.63c-2.79-2.73-6.11-4.9-9.96-6.49
		c-3.85-1.59-8.04-2.39-12.55-2.39c-4.52,0-8.71,0.8-12.56,2.39c-3.85,1.59-7.2,3.77-10.04,6.53c-2.85,2.76-5.06,6-6.65,9.71
		c-1.59,3.71-2.39,7.66-2.39,11.84v0.17c0,4.18,0.8,8.12,2.39,11.8c1.59,3.68,3.78,6.89,6.57,9.63c2.79,2.73,6.11,4.9,9.96,6.49
		c3.85,1.59,8.04,2.38,12.56,2.38C307.88,71.63,312.07,70.83,315.92,69.24L315.92,69.24z M376.18,70.17
		c2.9-0.86,5.38-2.12,7.45-3.76c2.06-1.64,3.67-3.63,4.81-5.97c1.14-2.34,1.72-5.01,1.72-8.02v-0.17c0-2.73-0.5-5.08-1.51-7.06
		c-1-1.98-2.46-3.66-4.35-5.05c-1.9-1.39-4.2-2.58-6.91-3.55c-2.71-0.97-5.73-1.82-9.08-2.55c-2.01-0.44-3.67-0.88-4.98-1.29
		c-1.31-0.42-2.34-0.83-3.1-1.25c-0.75-0.42-1.28-0.88-1.59-1.38c-0.31-0.5-0.46-1.09-0.46-1.75v-0.17c0-1.06,0.49-1.95,1.46-2.67
		c0.98-0.72,2.44-1.09,4.4-1.09c2.62,0,5.34,0.49,8.16,1.46c2.82,0.98,5.57,2.41,8.24,4.31l8.12-11.5
		c-3.18-2.58-6.74-4.53-10.67-5.85c-3.93-1.32-8.41-1.98-13.43-1.98c-3.51,0-6.67,0.46-9.46,1.38c-2.79,0.92-5.18,2.21-7.16,3.89
		c-1.98,1.67-3.49,3.65-4.52,5.93c-1.03,2.28-1.55,4.79-1.55,7.52v0.17c0,3.01,0.57,5.53,1.72,7.56c1.14,2.03,2.71,3.73,4.69,5.1
		c1.98,1.37,4.31,2.48,6.99,3.34c2.68,0.86,5.58,1.66,8.71,2.38c2.01,0.45,3.64,0.88,4.9,1.3c1.26,0.42,2.26,0.85,3.01,1.29
		c0.75,0.45,1.27,0.91,1.55,1.38c0.28,0.47,0.42,1.02,0.42,1.63v0.17c0,1.28-0.57,2.27-1.72,2.97c-1.14,0.7-2.8,1.04-4.98,1.04
		c-6.81,0-13.14-2.34-19-7.03l-9.04,10.82c3.63,3.26,7.8,5.7,12.51,7.33c4.72,1.63,9.7,2.44,14.94,2.44
		C370.04,71.46,373.28,71.03,376.18,70.17L376.18,70.17z M430.76,70.17c2.9-0.86,5.39-2.12,7.45-3.76c2.06-1.64,3.67-3.63,4.81-5.97
		c1.14-2.34,1.72-5.01,1.72-8.02v-0.17c0-2.73-0.5-5.08-1.51-7.06c-1.01-1.98-2.46-3.66-4.35-5.05c-1.9-1.39-4.2-2.58-6.9-3.55
		c-2.71-0.97-5.73-1.82-9.08-2.55c-2.01-0.44-3.67-0.88-4.98-1.29c-1.31-0.42-2.34-0.83-3.1-1.25c-0.75-0.42-1.28-0.88-1.59-1.38
		c-0.31-0.5-0.46-1.09-0.46-1.75v-0.17c0-1.06,0.49-1.95,1.46-2.67c0.98-0.72,2.44-1.09,4.39-1.09c2.62,0,5.34,0.49,8.16,1.46
		c2.82,0.98,5.57,2.41,8.24,4.31l8.12-11.5c-3.18-2.58-6.74-4.53-10.67-5.85c-3.93-1.32-8.41-1.98-13.43-1.98
		c-3.52,0-6.67,0.46-9.46,1.38c-2.79,0.92-5.18,2.21-7.16,3.89c-1.98,1.67-3.49,3.65-4.52,5.93c-1.03,2.28-1.55,4.79-1.55,7.52v0.17
		c0,3.01,0.57,5.53,1.72,7.56c1.14,2.03,2.71,3.73,4.69,5.1c1.98,1.37,4.31,2.48,6.99,3.34c2.68,0.86,5.58,1.66,8.7,2.38
		c2.01,0.45,3.64,0.88,4.9,1.3c1.25,0.42,2.26,0.85,3.01,1.29c0.75,0.45,1.27,0.91,1.55,1.38s0.42,1.02,0.42,1.63v0.17
		c0,1.28-0.57,2.27-1.72,2.97c-1.14,0.7-2.8,1.04-4.98,1.04c-6.81,0-13.14-2.34-19-7.03l-9.04,10.82c3.63,3.26,7.8,5.7,12.51,7.33
		c4.72,1.63,9.7,2.44,14.94,2.44C424.62,71.46,427.85,71.03,430.76,70.17L430.76,70.17z"/>
	<path class="st0" d="M181.65,90.83C181.65,40.66,140.99,0,90.83,0C40.66,0,0,40.66,0,90.83c0,27.43,12.18,52.01,31.41,68.66
		c30.24-10.24,54.37-24.7,59.42-62.73c0,0,23.87,44.14-22.01,82.2c7.05,1.76,14.42,2.7,22.01,2.7
		C140.99,181.65,181.65,140.99,181.65,90.83"/>
	<path class="st2" d="M90.89,181.65C90.89,181.65,90.89,181.65,90.89,181.65C90.89,181.65,90.9,181.65,90.89,181.65
		C90.9,181.65,90.89,181.65,90.89,181.65 M90.91,181.65C90.91,181.65,90.91,181.65,90.91,181.65
		C90.92,181.65,90.91,181.65,90.91,181.65C90.91,181.65,90.91,181.65,90.91,181.65 M90.95,181.65
		C90.95,181.65,90.96,181.65,90.95,181.65c0.01,0,0.01,0,0.02,0C90.96,181.65,90.96,181.65,90.95,181.65 M91.01,181.65
		C91.02,181.65,91.02,181.65,91.01,181.65c0.02,0,0.02,0,0.03,0C91.03,181.65,91.02,181.65,91.01,181.65 M91.07,181.65
		c0.01,0,0.03,0,0.04,0C91.1,181.65,91.09,181.65,91.07,181.65 M91.15,181.65c0.01,0,0.03,0,0.04,0
		C91.17,181.65,91.16,181.65,91.15,181.65 M91.22,181.65c0.01,0,0.03,0,0.04,0C91.24,181.65,91.23,181.65,91.22,181.65
		 M91.29,181.65c0.01,0,0.02,0,0.03,0C91.32,181.65,91.31,181.65,91.29,181.65 M91.37,181.65c0.01,0,0.02,0,0.03,0
		C91.39,181.65,91.38,181.65,91.37,181.65 M91.45,181.65c0.01,0,0.02,0,0.02,0C91.46,181.65,91.45,181.65,91.45,181.65
		 M91.52,181.65c0.01,0,0.01,0,0.02,0C91.53,181.65,91.53,181.65,91.52,181.65 M91.59,181.65c0,0,0.01,0,0.01,0
		C91.6,181.65,91.6,181.65,91.59,181.65 M91.67,181.65C91.67,181.65,91.67,181.65,91.67,181.65
		C91.67,181.65,91.67,181.65,91.67,181.65 M88.65,181.63c-6.14-0.15-12.12-0.91-17.89-2.21C76.53,180.72,82.51,181.48,88.65,181.63
		 M31.41,159.49c-0.02-0.02-0.04-0.03-0.06-0.05C31.37,159.45,31.39,159.47,31.41,159.49 M31.41,159.49
		c30.24-10.24,54.37-24.7,59.42-62.73l0,0C85.78,134.78,61.65,149.25,31.41,159.49 M31.33,159.42c-0.02-0.01-0.04-0.03-0.05-0.05
		C31.3,159.39,31.32,159.41,31.33,159.42 M31.27,159.37c-0.1-0.09-0.21-0.18-0.31-0.27c0.06,0.05,0.12,0.11,0.18,0.16
		c0,0,0.01,0,0.01,0.01c0.02,0.01,0.03,0.03,0.04,0.04c0.01,0.01,0.02,0.02,0.04,0.03c0,0,0.01,0.01,0.02,0.01
		C31.26,159.35,31.26,159.36,31.27,159.37 M30.95,159.09c-0.01-0.01-0.03-0.02-0.04-0.04C30.93,159.07,30.94,159.08,30.95,159.09
		 M30.9,159.04c-0.01-0.01-0.02-0.02-0.03-0.02C30.88,159.02,30.89,159.03,30.9,159.04"/>
	<path class="st3" d="M90.89,181.65c0.01,0,0.02,0,0.02,0c0,0,0,0,0,0C90.91,181.65,90.9,181.65,90.89,181.65
		C90.9,181.65,90.89,181.65,90.89,181.65 M90.96,181.65c0.01,0,0.02,0,0.03,0c0,0-0.01,0-0.01,0
		C90.96,181.65,90.96,181.65,90.96,181.65 M91.02,181.65c0.01,0,0.02,0,0.03,0c0,0-0.01,0-0.01,0
		C91.03,181.65,91.03,181.65,91.02,181.65 M91.07,181.65c9.72-0.03,19.07-1.59,27.84-4.44c24.07-47.59-25.41-82.76-28.08-82.76
		c-6.55,38.09-51.11,43.63-74.31,48.54c4.22,5.99,9.12,11.47,14.63,16.28c-0.06-0.05-0.12-0.11-0.18-0.16c0,0-0.01-0.01-0.01-0.01
		c-0.01-0.01-0.03-0.02-0.04-0.04c-0.01,0-0.01-0.01-0.02-0.01c-0.01-0.01-0.02-0.02-0.03-0.02C14.98,145.04,4.04,125.6,0.93,103.64
		c19.52,5.57,39.4,9.81,55.56,9.81c17.68,0,30.91-5.07,34.33-19.01c19.11,0,51.35,16.49,62.24,62.5
		c-16.07,15.13-37.63,24.49-61.39,24.7c0,0-0.01,0-0.01,0c-0.02,0-0.04,0-0.06,0c0,0-0.01,0-0.01,0c-0.02,0-0.04,0-0.06,0
		c-0.01,0-0.01,0-0.02,0c-0.02,0-0.04,0-0.05,0c-0.01,0-0.02,0-0.02,0c-0.02,0-0.03,0-0.05,0c-0.01,0-0.02,0-0.03,0
		c-0.01,0-0.03,0-0.04,0c-0.01,0-0.02,0-0.03,0c-0.01,0-0.03,0-0.04,0c-0.01,0-0.03,0-0.04,0c-0.01,0-0.02,0-0.03,0
		c-0.01,0-0.03,0-0.04,0c-0.01,0-0.02,0-0.03,0C91.1,181.65,91.08,181.65,91.07,181.65C91.07,181.65,91.07,181.65,91.07,181.65
		 M90.03,181.65c-0.46,0-0.92-0.01-1.38-0.02c-6.14-0.15-12.12-0.91-17.89-2.21c-0.65-0.15-1.3-0.3-1.94-0.46
		C75.61,180.64,82.71,181.59,90.03,181.65 M31.25,159.35c0,0-0.01-0.01-0.02-0.01C31.24,159.34,31.24,159.34,31.25,159.35
		 M31.2,159.3c-0.02-0.01-0.03-0.03-0.04-0.04C31.17,159.28,31.18,159.29,31.2,159.3"/>
	<path class="st2" d="M90.83,181.65L90.83,181.65L90.83,181.65L90.83,181.65c0.02,0,0.04,0,0.06,0
		C90.87,181.65,90.85,181.65,90.83,181.65 M90.92,181.65c0.01,0,0.02,0,0.04,0C90.94,181.65,90.93,181.65,90.92,181.65
		 M90.99,181.65c0,0,0.01,0,0.01,0c0.01,0,0.01,0,0.02,0C91,181.65,91,181.65,90.99,181.65 M91.05,181.65L91.05,181.65
		C91.06,181.65,91.06,181.65,91.05,181.65 M31.35,159.44c-0.01-0.01-0.01-0.01-0.02-0.01C31.34,159.43,31.34,159.43,31.35,159.44
		 M31.28,159.38C31.28,159.38,31.28,159.37,31.28,159.38C31.28,159.37,31.28,159.38,31.28,159.38 M90.89,96.87
		c-0.04-0.07-0.06-0.11-0.06-0.12l0,0C90.83,96.76,90.85,96.8,90.89,96.87"/>
	<path class="st3" d="M90.98,181.65c0.01,0,0.01,0,0.01,0C90.99,181.65,90.99,181.65,90.98,181.65
		C90.99,181.65,90.99,181.65,90.98,181.65 M91.05,181.65c0.01,0,0.01,0,0.01,0C91.06,181.65,91.06,181.65,91.05,181.65L91.05,181.65
		C91.05,181.65,91.05,181.65,91.05,181.65 M69.68,178.23c43.36-36.74,22.51-78.84,21.21-81.35c-0.04-0.07-0.06-0.11-0.06-0.12l0,0
		C90.83,96.76,114.39,140.34,69.68,178.23"/>
	<path class="st4" d="M90.83,181.65L90.83,181.65c0.02,0,0.04,0,0.07,0c0,0,0,0,0,0C90.87,181.65,90.85,181.65,90.83,181.65
		 M90.91,181.65c0.01,0,0.03,0,0.04,0c0,0,0,0-0.01,0C90.94,181.65,90.93,181.65,90.91,181.65
		C90.91,181.65,90.92,181.65,90.91,181.65 M91,181.65c0.01,0,0.02,0,0.02,0c0,0,0,0-0.01,0C91.01,181.65,91,181.65,91,181.65
		 M31.41,159.49L31.41,159.49c-0.02-0.02-0.04-0.03-0.06-0.05c0,0-0.01-0.01-0.02-0.01c-0.02-0.01-0.04-0.03-0.05-0.05
		c0,0,0,0-0.01,0c-0.01-0.01-0.02-0.02-0.03-0.02C31.3,159.39,31.35,159.44,31.41,159.49c30.24-10.24,54.37-24.7,59.42-62.73l0,0
		l0,0l0,0C85.78,134.78,61.65,149.25,31.41,159.49L31.41,159.49 M31.23,159.33c-0.01-0.01-0.02-0.02-0.04-0.03
		C31.21,159.31,31.22,159.32,31.23,159.33 M31.15,159.26C31.15,159.26,31.15,159.26,31.15,159.26
		C31.14,159.26,31.15,159.26,31.15,159.26"/>
	<path class="st5" d="M90.83,181.65c-0.27,0-0.53,0-0.8,0c-7.31-0.06-14.41-1.01-21.22-2.7l0,0c0.29-0.24,0.58-0.48,0.87-0.73
		c44.71-37.89,21.15-81.47,21.15-81.47l0,0l0,0c-5.05,38.03-29.18,52.49-59.42,62.73c-0.05-0.05-0.11-0.09-0.16-0.14
		c-0.01,0-0.01-0.01-0.02-0.01c-0.01-0.01-0.02-0.02-0.04-0.03c-0.02-0.01-0.03-0.03-0.04-0.04c0,0-0.01-0.01-0.01-0.01
		c-5.51-4.81-10.41-10.28-14.63-16.28c23.2-4.91,67.77-10.45,74.31-48.54c2.67,0,52.15,35.17,28.08,82.76
		c-8.77,2.85-18.12,4.42-27.84,4.44c0,0-0.01,0-0.01,0c-0.01,0-0.02,0-0.03,0c-0.01,0-0.02,0-0.02,0c-0.01,0-0.01,0-0.01,0
		c-0.01,0-0.02,0-0.03,0c-0.01,0-0.03,0-0.04,0c-0.01,0-0.01,0-0.02,0C90.87,181.65,90.85,181.65,90.83,181.65"/>
	<path class="st6" d="M106.52,44.19c0-12.27-15.68-34.15-15.68-34.15S75.17,31.92,75.17,44.19c0,12.27,15.68,35.1,15.68,45.67
		C90.84,79.29,106.52,56.46,106.52,44.19L106.52,44.19z"/>
	<path class="st6" d="M97.66,76.41c4.64,2.14,11.76,6.55,11.76,13.44c6.6-11.85-1.49-23.69-5.17-28.14
		C102.1,66.65,99.66,71.73,97.66,76.41L97.66,76.41z"/>
	<path class="st6" d="M83.99,76.41c-4.64,2.14-11.76,6.55-11.76,13.44c-6.6-11.85,1.49-23.69,5.17-28.14
		C79.55,66.65,82,71.73,83.99,76.41L83.99,76.41z"/>
	<path class="st7" d="M100.93,95.22c0-5.6-2.35-10.42-5.74-12.68c-1.65,3.23-4.35,10.91-4.35,14.14c0-3.29-2.58-11.12-4.09-14.31
		c-3.53,2.19-6,7.12-6,12.86c0,7.77,8.18,23.01,10.09,23.01C92.75,118.23,100.93,102.99,100.93,95.22L100.93,95.22z"/>
	<path class="st8" d="M97.37,94.29c0-3.63-1.52-6.76-3.72-8.23c-1.07,2.1-2.82,7.08-2.82,9.17c0-2.13-1.67-7.22-2.65-9.29
		c-2.29,1.42-3.89,4.62-3.89,8.34c0,5.04,5.31,14.93,6.55,14.93S97.37,99.33,97.37,94.29L97.37,94.29z"/>
</g>
</svg>
