<?xml version="1.0" encoding="utf-8"?>
<!-- Generator: Adobe Illustrator 24.1.0, SVG Export Plug-In . SVG Version: 6.00 Build 0)  -->
<svg version="1.1" id="Layer_1" xmlns="http://www.w3.org/2000/svg" xmlns:xlink="http://www.w3.org/1999/xlink" x="0px" y="0px"
	 viewBox="0 0 352.69 504" style="enable-background:new 0 0 352.69 504;" xml:space="preserve">
<style type="text/css">
	.st0{opacity:0.4;fill:#FFFFFF;}
	.st1{fill:#FFFFFF;}
	.st2{opacity:0.54;fill:#FFFFFF;}
	.st3{opacity:0.7;fill:#FFFFFF;}
</style>
<g>
	<path class="st0" d="M149.27,298.53c-6.5,0-12.89-0.42-19.17-1.23C136.37,298.11,142.77,298.53,149.27,298.53L149.27,298.53
		 M149.39,298.53c0.01,0,0.02,0,0.03,0l0,0C149.4,298.53,149.4,298.53,149.39,298.53 M149.5,298.53c0.01,0,0.01,0,0.02,0
		c0,0,0,0,0,0C149.52,298.53,149.51,298.53,149.5,298.53 M149.62,298.53c0.01,0,0.01,0,0.01,0c0,0,0.01,0,0.01,0
		C149.64,298.53,149.63,298.53,149.62,298.53 M149.67,298.53C149.67,298.53,149.67,298.53,149.67,298.53L149.67,298.53
		C149.67,298.53,149.67,298.53,149.67,298.53 M149.74,298.53c0.02,0,0.03,0,0.05,0C149.77,298.53,149.76,298.53,149.74,298.53
		 M149.86,298.53c0.02,0,0.04,0,0.06,0C149.89,298.53,149.88,298.53,149.86,298.53 M149.98,298.53c0.02,0,0.04,0,0.06,0
		C150.02,298.53,150,298.53,149.98,298.53 M150.09,298.53c0.02,0,0.05,0,0.07,0C150.14,298.53,150.11,298.53,150.09,298.53
		 M150.21,298.53c0.03,0,0.05,0,0.08,0C150.26,298.53,150.24,298.53,150.21,298.53 M150.32,298.53c0.03,0,0.06,0,0.08,0
		C150.38,298.53,150.35,298.53,150.32,298.53 M150.44,298.53c0.03,0,0.06,0,0.09,0C150.5,298.53,150.47,298.53,150.44,298.53
		 M150.55,298.53c0.03,0,0.06,0,0.1,0C150.61,298.53,150.59,298.53,150.55,298.53 M150.66,298.53c0.04,0,0.07,0,0.11,0
		C150.73,298.53,150.7,298.53,150.66,298.53 M150.78,298.53c39-0.39,74.39-15.76,100.77-40.6c-15.02-63.47-54.75-92.75-85.7-100.52
		c0.01-0.31,0.02-0.62,0.02-0.92c0-9.2-3.86-17.12-9.43-20.84c-2.71,5.31-7.14,17.94-7.14,23.23c0-5.4-4.24-18.28-6.72-23.52
		c-5.81,3.6-9.86,11.7-9.86,21.13c0,4.92,1.99,11.66,4.63,18.08c-10.29,8.46-25.9,11.88-44.5,11.88c-26.56,0-59.22-6.96-91.31-16.12
		c5.15,36.4,23.4,68.57,49.86,91.59c0,0,0.01,0.01,0.01,0.01c0.03,0.03,0.06,0.05,0.08,0.07c0.01,0.01,0.02,0.01,0.03,0.02
		c0.03,0.03,0.06,0.06,0.1,0.08c0,0,0,0,0,0C20.02,234.74,0,194.35,0,149.27C0,66.83,66.83,0,149.27,0s149.27,66.83,149.27,149.27
		C298.53,231.2,232.52,297.72,150.78,298.53 M113.09,294.09L113.09,294.09c48.4-40.14,49.57-84.4,44.21-110.96
		c0.28-0.55,0.57-1.11,0.85-1.69c-0.28,0.57-0.57,1.14-0.85,1.69C162.66,209.69,161.49,253.95,113.09,294.09 M142.95,186.19
		c-0.1-0.17-0.19-0.35-0.29-0.52c-0.14-0.24-0.27-0.49-0.41-0.74C142.48,185.36,142.71,185.78,142.95,186.19L142.95,186.19
		 M142.24,184.9C142.23,184.9,142.23,184.9,142.24,184.9C142.23,184.9,142.23,184.9,142.24,184.9 M158.15,181.44
		c0.01-0.01,0.01-0.02,0.02-0.03C158.16,181.41,158.15,181.42,158.15,181.44 M158.18,181.37
		C158.18,181.37,158.18,181.37,158.18,181.37C158.18,181.37,158.18,181.37,158.18,181.37"/>
	<path class="st1" d="M149.27,298.53L149.27,298.53L149.27,298.53L149.27,298.53L149.27,298.53 M149.37,298.53
		C149.37,298.53,149.38,298.53,149.37,298.53c0.01,0,0.01,0,0.01,0C149.38,298.53,149.38,298.53,149.37,298.53 M149.48,298.53
		C149.48,298.53,149.48,298.53,149.48,298.53c0.02,0,0.02,0,0.03,0C149.49,298.53,149.49,298.53,149.48,298.53 M149.58,298.53
		c0,0,0.01,0,0.01,0c0.01,0,0.02,0,0.03,0C149.61,298.53,149.59,298.53,149.58,298.53 M149.67,298.53c0.02,0,0.05,0,0.07,0
		C149.72,298.53,149.69,298.53,149.67,298.53 M149.79,298.53c0.02,0,0.04,0,0.06,0C149.84,298.53,149.81,298.53,149.79,298.53
		 M149.91,298.53c0.02,0,0.04,0,0.06,0C149.95,298.53,149.94,298.53,149.91,298.53 M150.04,298.53c0.02,0,0.03,0,0.05,0
		C150.08,298.53,150.06,298.53,150.04,298.53 M150.16,298.53c0.01,0,0.03,0,0.05,0C150.19,298.53,150.18,298.53,150.16,298.53
		 M150.29,298.53c0.01,0,0.03,0,0.04,0C150.31,298.53,150.3,298.53,150.29,298.53 M150.41,298.53c0.01,0,0.02,0,0.03,0
		C150.42,298.53,150.42,298.53,150.41,298.53 M150.53,298.53c0.01,0,0.02,0,0.02,0C150.54,298.53,150.53,298.53,150.53,298.53
		 M150.65,298.53c0.01,0,0.01,0,0.02,0C150.66,298.53,150.65,298.53,150.65,298.53 M150.77,298.53L150.77,298.53L150.77,298.53
		 M130.1,297.3c-5.78-0.75-11.46-1.83-17.01-3.21l0,0l0,0l0,0c3.8,0.94,7.65,1.75,11.55,2.4
		C126.44,296.79,128.27,297.06,130.1,297.3 M51.62,262.11L51.62,262.11C51.62,262.11,51.62,262.11,51.62,262.11
		C51.62,262.11,51.62,262.11,51.62,262.11 M142.95,186.19L142.95,186.19L142.95,186.19L142.95,186.19L142.95,186.19 M158.14,181.45
		c0,0,0-0.01,0-0.01C158.15,181.44,158.14,181.44,158.14,181.45 M158.16,181.4c0.01-0.01,0.01-0.02,0.02-0.03
		C158.17,181.38,158.17,181.39,158.16,181.4 M158.18,181.37c0.21-0.43,0.42-0.86,0.63-1.3c-0.11,0.23-0.22,0.45-0.32,0.68
		c0,0,0,0.01-0.01,0.01c0,0.01-0.01,0.02-0.01,0.03C158.37,180.98,158.28,181.17,158.18,181.37 M140.09,180.72
		c-0.95-1.96-1.88-4.04-2.75-6.15c0,0,0,0,0,0C138.21,176.68,139.14,178.75,140.09,180.72L140.09,180.72 M158.83,180.03
		C158.83,180.03,158.83,180.03,158.83,180.03C158.83,180.03,158.83,180.03,158.83,180.03 M164.31,165.83
		C164.3,165.83,164.3,165.83,164.31,165.83c0.86-3.04,1.42-5.93,1.54-8.42c0,0,0.01,0,0.01,0
		C165.73,159.9,165.17,162.79,164.31,165.83"/>
	<path class="st2" d="M149.27,298.53c-6.5,0-12.89-0.42-19.17-1.23c-1.83-0.24-3.65-0.51-5.46-0.81
		C132.65,297.83,140.87,298.53,149.27,298.53L149.27,298.53 M149.38,298.53c0.01,0,0.02,0,0.04,0
		C149.4,298.53,149.4,298.53,149.38,298.53C149.38,298.53,149.38,298.53,149.38,298.53 M149.48,298.53c0.01,0,0.03,0,0.04,0
		c-0.01,0-0.01,0-0.02,0C149.49,298.53,149.49,298.53,149.48,298.53 M149.59,298.53c0.01,0,0.03,0,0.04,0c-0.01,0-0.01,0-0.01,0
		C149.61,298.53,149.61,298.53,149.59,298.53 M149.67,298.53c15.96-0.04,31.33-2.62,45.74-7.31c29.49-58.31-8.19-105.27-31.1-125.4
		c0.86-3.04,1.43-5.93,1.54-8.42c30.95,7.77,70.68,37.05,85.7,100.52c-26.38,24.84-61.77,40.21-100.77,40.6h-0.01
		c-0.04,0-0.07,0-0.11,0c0,0-0.01,0-0.02,0c-0.03,0-0.06,0-0.1,0c-0.01,0-0.02,0-0.02,0c-0.03,0-0.06,0-0.09,0
		c-0.01,0-0.02,0-0.03,0c-0.03,0-0.06,0-0.08,0c-0.01,0-0.03,0-0.04,0c-0.03,0-0.05,0-0.08,0c-0.01,0-0.03,0-0.05,0
		c-0.02,0-0.05,0-0.07,0c-0.02,0-0.03,0-0.05,0c-0.02,0-0.04,0-0.06,0c-0.02,0-0.04,0-0.06,0c-0.02,0-0.04,0-0.06,0
		c-0.02,0-0.04,0-0.06,0s-0.03,0-0.05,0S149.69,298.53,149.67,298.53L149.67,298.53 M113.09,294.09L113.09,294.09
		c48.4-40.14,49.57-84.4,44.21-110.96c0.28-0.55,0.57-1.11,0.85-1.69c0,0,0-0.01,0-0.01c0.01-0.01,0.01-0.02,0.02-0.03
		c0.01-0.01,0.01-0.02,0.02-0.03c0,0,0,0,0-0.01c0.1-0.19,0.19-0.39,0.28-0.58c-0.39,0.8-0.78,1.59-1.18,2.35
		C162.66,209.69,161.49,253.95,113.09,294.09 M51.62,262.11c-0.03-0.03-0.06-0.06-0.1-0.08C51.55,262.05,51.58,262.08,51.62,262.11
		C51.62,262.11,51.62,262.11,51.62,262.11 M51.49,262c-0.03-0.02-0.06-0.05-0.08-0.07C51.44,261.95,51.46,261.98,51.49,262
		 M51.4,261.92C24.93,238.9,6.69,206.73,1.53,170.33c32.08,9.16,64.75,16.12,91.31,16.12c18.6,0,34.21-3.42,44.5-11.88
		c0.86,2.11,1.79,4.18,2.75,6.15c-23.5,39.9-80.74,47.45-112.95,54.26C34.13,244.9,42.26,253.97,51.4,261.92 M142.95,186.19
		c-0.1-0.17-0.19-0.35-0.29-0.52C142.75,185.84,142.85,186.01,142.95,186.19L142.95,186.19 M158.48,180.76c0,0,0.01-0.01,0.01-0.01
		C158.49,180.75,158.48,180.75,158.48,180.76"/>
	<path class="st1" d="M149.27,298.53L149.27,298.53c0.04,0,0.07,0,0.11,0C149.34,298.53,149.3,298.53,149.27,298.53 M149.41,298.53
		L149.41,298.53c0.02,0,0.04,0,0.07,0C149.46,298.53,149.43,298.53,149.41,298.53 M149.53,298.53c0.01,0,0.01,0,0.02,0
		c0.01,0,0.02,0,0.03,0C149.56,298.53,149.55,298.53,149.53,298.53 M149.64,298.53c0,0,0.02,0,0.02,0
		C149.66,298.53,149.65,298.53,149.64,298.53 M51.62,262.11L51.62,262.11L51.62,262.11c41.74-14.13,76.39-33.17,91.33-75.92l0,0
		C128,228.94,93.35,247.97,51.62,262.11 M142.25,184.93c0-0.01-0.01-0.01-0.01-0.02C142.24,184.91,142.24,184.92,142.25,184.93
		 M142.23,184.9c-0.06-0.11-0.12-0.23-0.18-0.34c0-0.01-0.01-0.02-0.01-0.03c0,0,0-0.01-0.01-0.01c-0.65-1.2-1.3-2.48-1.94-3.81l0,0
		C140.8,182.18,141.52,183.59,142.23,184.9 M158.81,180.07c0-0.01,0.01-0.02,0.02-0.04C158.82,180.04,158.82,180.05,158.81,180.07
		 M158.83,180.02c2.14-4.51,4.15-9.53,5.47-14.19l0,0C162.99,170.49,160.98,175.51,158.83,180.02"/>
	<path class="st1" d="M149.41,298.53L149.41,298.53L149.41,298.53L149.41,298.53 M149.53,298.53c0.01,0,0.02,0,0.02,0
		C149.54,298.53,149.54,298.53,149.53,298.53C149.53,298.53,149.53,298.53,149.53,298.53 M149.64,298.53c0.01,0,0.02,0,0.03,0
		c0,0,0,0,0,0C149.66,298.53,149.65,298.53,149.64,298.53C149.64,298.53,149.64,298.53,149.64,298.53 M51.52,262.02
		c-0.01-0.01-0.02-0.01-0.03-0.02C51.5,262.01,51.51,262.02,51.52,262.02 M51.41,261.93c0,0-0.01-0.01-0.01-0.01
		C51.4,261.92,51.4,261.92,51.41,261.93 M142.65,185.67c-0.2-0.36-0.4-0.73-0.61-1.11c0.06,0.11,0.12,0.23,0.18,0.34c0,0,0,0,0,0
		c0,0.01,0.01,0.01,0.01,0.02C142.38,185.18,142.52,185.42,142.65,185.67 M142.04,184.53c0,0,0-0.01-0.01-0.01
		C142.03,184.53,142.03,184.53,142.04,184.53"/>
	<path class="st1" d="M149.27,298.53L149.27,298.53c0.04,0,0.07,0,0.11,0c0,0,0,0,0,0C149.34,298.53,149.3,298.53,149.27,298.53
		 M149.41,298.53c0.02,0,0.05,0,0.07,0c0,0,0,0-0.01,0C149.46,298.53,149.43,298.53,149.41,298.53 M149.55,298.53
		c0.01,0,0.03,0,0.04,0c0,0-0.01,0-0.01,0C149.57,298.53,149.56,298.53,149.55,298.53 M124.63,296.49c-3.9-0.65-7.75-1.45-11.55-2.4
		l0,0C116.88,295.04,120.73,295.84,124.63,296.49 M51.62,262.11L51.62,262.11L51.62,262.11c41.74-14.13,76.39-33.17,91.33-75.92l0,0
		C128,228.94,93.35,247.97,51.62,262.11 M142.05,184.56c0-0.01-0.01-0.02-0.01-0.03C142.04,184.54,142.04,184.55,142.05,184.56
		 M142.03,184.52c-0.65-1.2-1.3-2.48-1.94-3.81c0,0,0,0,0,0C140.73,182.04,141.38,183.32,142.03,184.52 M158.47,180.78
		c0.01-0.01,0.01-0.02,0.01-0.03C158.48,180.77,158.47,180.77,158.47,180.78 M158.49,180.74c0.11-0.22,0.22-0.45,0.32-0.68
		c0-0.01,0.01-0.02,0.02-0.04c0,0,0,0,0-0.01c2.15-4.51,4.15-9.53,5.47-14.19c0,0,0,0,0,0
		C162.92,170.74,160.76,176.05,158.49,180.74"/>
	<path class="st3" d="M149.27,298.53c-8.39,0-16.62-0.7-24.63-2.04c-3.9-0.65-7.75-1.45-11.55-2.4
		c48.4-40.14,49.57-84.4,44.21-110.96c0.39-0.76,0.79-1.55,1.18-2.35c0.01-0.01,0.01-0.02,0.01-0.03c0,0,0.01-0.01,0.01-0.01
		c2.27-4.69,4.43-10,5.82-14.91c22.91,20.13,60.6,67.09,31.1,125.4c-14.41,4.68-29.78,7.26-45.74,7.31c-0.01,0-0.02,0-0.03,0
		c-0.01,0-0.03,0-0.04,0c-0.01,0-0.03,0-0.04,0c-0.01,0-0.02,0-0.02,0c-0.01,0-0.03,0-0.04,0c-0.02,0-0.05,0-0.07,0l0,0
		c-0.01,0-0.02,0-0.04,0C149.34,298.53,149.3,298.53,149.27,298.53 M51.62,262.11c-0.03-0.03-0.06-0.06-0.1-0.08
		c-0.01-0.01-0.02-0.02-0.03-0.02c-0.03-0.02-0.06-0.05-0.08-0.07c0,0-0.01-0.01-0.01-0.01c-9.14-7.95-17.27-17.01-24.25-26.94
		c32.2-6.81,89.45-14.36,112.95-54.26c0.64,1.33,1.29,2.6,1.94,3.81c0,0,0,0.01,0.01,0.01c0,0.01,0.01,0.02,0.01,0.03
		c0.2,0.38,0.4,0.74,0.61,1.11c0.1,0.18,0.2,0.35,0.29,0.52C128,228.94,93.35,247.97,51.62,262.11"/>
	<path class="st1" d="M175.06,72.63c0-20.16-25.76-56.13-25.76-56.13s-25.76,35.97-25.76,56.13c0,20.16,25.76,57.69,25.76,75.05
		C149.29,130.31,175.06,92.79,175.06,72.63L175.06,72.63z"/>
	<path class="st1" d="M160.49,125.58c7.63,3.52,19.33,10.76,19.33,22.09c10.84-19.48-2.44-38.94-8.49-46.25
		C167.8,109.54,163.78,117.89,160.49,125.58L160.49,125.58z"/>
	<path class="st1" d="M138.04,125.58c-7.63,3.52-19.33,10.76-19.33,22.09c-10.84-19.48,2.44-38.94,8.49-46.25
		C130.74,109.54,134.76,117.89,138.04,125.58L138.04,125.58z"/>
	<path class="st1" d="M165.87,156.49c0-9.2-3.86-17.12-9.43-20.84c-0.75,1.47-1.64,3.52-2.52,5.81c3.61,2.42,6.11,7.55,6.11,13.51
		c0,8.29-8.72,24.53-10.76,24.53c-2.04,0-10.76-16.24-10.76-24.53c0-6.12,2.63-11.38,6.4-13.71c0.06,0.13,0.12,0.27,0.19,0.41
		c-0.89-2.51-1.78-4.75-2.52-6.31c-5.81,3.6-9.86,11.7-9.86,21.13c0,12.77,13.44,37.81,16.58,37.81
		C152.43,194.3,165.87,169.26,165.87,156.49L165.87,156.49z"/>
	<path class="st1" d="M29.09,478.96v-18.2h10.32c3.32,0,5.97,0.76,7.94,2.28c1.97,1.52,2.96,3.77,2.96,6.75v0.14
		c0,2.65-0.97,4.81-2.92,6.5c-1.95,1.69-4.61,2.53-7.98,2.53H29.09L29.09,478.96z M20.32,503.14h8.78v-16.19h10.02
		c2.79,0,5.41-0.37,7.86-1.11c2.45-0.74,4.59-1.83,6.42-3.27c1.83-1.44,3.27-3.23,4.33-5.36c1.06-2.13,1.59-4.62,1.59-7.45v-0.14
		c0-2.54-0.44-4.84-1.33-6.91c-0.89-2.06-2.16-3.84-3.81-5.32c-1.65-1.49-3.67-2.62-6.04-3.42c-2.37-0.79-5.02-1.19-7.95-1.19H20.32
		V503.14L20.32,503.14z M97.47,494.43c-2.1-0.96-3.91-2.24-5.41-3.85s-2.67-3.5-3.51-5.68c-0.84-2.18-1.25-4.5-1.25-6.94v-0.14
		c0-2.45,0.42-4.75,1.25-6.91c0.84-2.16,1.99-4.04,3.47-5.65c1.48-1.61,3.26-2.88,5.34-3.81c2.08-0.93,4.36-1.4,6.84-1.4
		c2.48,0,4.77,0.48,6.88,1.44c2.1,0.96,3.9,2.24,5.41,3.85c1.51,1.61,2.68,3.5,3.51,5.68c0.84,2.18,1.26,4.5,1.26,6.94v0.14
		c0,2.45-0.42,4.75-1.26,6.91c-0.84,2.16-1.99,4.04-3.47,5.65c-1.48,1.61-3.26,2.88-5.34,3.81c-2.08,0.94-4.36,1.4-6.84,1.4
		C101.86,495.87,99.57,495.39,97.47,494.43L97.47,494.43z M114.85,501.91c3.21-1.39,5.99-3.27,8.35-5.65
		c2.35-2.37,4.17-5.13,5.47-8.27c1.29-3.14,1.94-6.49,1.94-10.04v-0.14c0-3.55-0.65-6.9-1.94-10.04c-1.3-3.14-3.09-5.89-5.4-8.24
		c-2.3-2.35-5.06-4.21-8.27-5.58c-3.21-1.37-6.76-2.05-10.65-2.05c-3.88,0-7.43,0.7-10.65,2.09c-3.21,1.39-6,3.27-8.35,5.65
		c-2.35,2.37-4.17,5.13-5.47,8.27c-1.3,3.14-1.94,6.49-1.94,10.04v0.14c0,3.55,0.65,6.9,1.94,10.04c1.3,3.14,3.09,5.89,5.4,8.24
		c2.3,2.35,5.06,4.21,8.27,5.58c3.21,1.37,6.76,2.05,10.65,2.05C108.09,504,111.63,503.3,114.85,501.91L114.85,501.91z
		 M153.12,503.14h35.25v-7.99H161.9v-42.38h-8.78V503.14L153.12,503.14z M209.96,503.14h8.78v-50.36h-8.78V503.14L209.96,503.14z
		 M273.95,503.39c1.94-0.41,3.73-1.01,5.36-1.8c1.63-0.79,3.15-1.73,4.57-2.81c1.41-1.08,2.77-2.31,4.07-3.7l-5.68-5.76
		c-2.16,2.02-4.34,3.61-6.55,4.79c-2.21,1.18-4.84,1.76-7.91,1.76c-2.4,0-4.62-0.47-6.66-1.4c-2.04-0.94-3.8-2.22-5.29-3.85
		c-1.49-1.63-2.64-3.54-3.45-5.72c-0.82-2.18-1.22-4.5-1.22-6.94v-0.14c0-2.45,0.41-4.75,1.22-6.91c0.82-2.16,1.97-4.04,3.45-5.65
		c1.49-1.61,3.25-2.88,5.29-3.81c2.04-0.93,4.26-1.4,6.66-1.4c2.88,0,5.44,0.58,7.7,1.73c2.25,1.15,4.39,2.66,6.4,4.53l5.68-6.55
		c-1.2-1.15-2.47-2.21-3.81-3.17c-1.34-0.96-2.81-1.79-4.39-2.48c-1.58-0.7-3.32-1.23-5.22-1.62c-1.9-0.38-3.99-0.57-6.3-0.57
		c-3.84,0-7.34,0.68-10.5,2.05c-3.17,1.37-5.91,3.24-8.22,5.61c-2.32,2.37-4.12,5.13-5.4,8.27c-1.28,3.14-1.92,6.51-1.92,10.11v0.14
		c0,3.6,0.65,6.98,1.96,10.14c1.3,3.17,3.1,5.91,5.4,8.24c2.29,2.33,5,4.16,8.11,5.5c3.12,1.34,6.52,2.01,10.22,2.01
		C269.86,504,272.01,503.79,273.95,503.39L273.95,503.39z M323.77,503.14h8.92v-20.07l20-30.29h-10.14l-14.25,22.3l-14.1-22.3
		h-10.43l20,30.5V503.14L323.77,503.14z"/>
	<path class="st1" d="M19.42,424.65h19.03v-24.53h32.47v-15.89H38.45v-11.58h35.91v-16.68H19.42V424.65L19.42,424.65z
		 M110.49,407.34c-2.16-1.01-4.02-2.37-5.56-4.07c-1.54-1.7-2.74-3.66-3.59-5.89c-0.85-2.22-1.28-4.58-1.28-7.06v-0.2
		c0-2.48,0.41-4.84,1.23-7.06c0.82-2.22,2-4.17,3.54-5.84c1.54-1.67,3.38-2.99,5.51-3.97c2.13-0.98,4.51-1.47,7.13-1.47
		c2.62,0,5.02,0.51,7.18,1.52c2.17,1.01,4.03,2.37,5.61,4.07c1.57,1.7,2.79,3.66,3.64,5.89c0.85,2.23,1.28,4.58,1.28,7.06v0.2
		c0,2.49-0.43,4.84-1.28,7.06c-0.85,2.22-2.03,4.17-3.54,5.84c-1.51,1.67-3.35,2.99-5.51,3.97c-2.16,0.98-4.56,1.47-7.18,1.47
		C115.05,408.86,112.65,408.35,110.49,407.34L110.49,407.34z M132.24,423.23c4.51-1.86,8.44-4.42,11.77-7.65
		c3.34-3.24,5.94-7.03,7.8-11.38c1.86-4.35,2.8-8.98,2.8-13.88v-0.2c0-4.91-0.93-9.52-2.8-13.83c-1.86-4.32-4.43-8.08-7.7-11.28
		c-3.27-3.2-7.16-5.74-11.67-7.6c-4.51-1.86-9.42-2.8-14.72-2.8c-5.3,0-10.2,0.93-14.72,2.8c-4.51,1.86-8.44,4.41-11.77,7.65
		c-3.33,3.24-5.93,7.03-7.8,11.38c-1.86,4.35-2.8,8.98-2.8,13.88v0.2c0,4.9,0.93,9.52,2.8,13.83c1.86,4.32,4.43,8.08,7.7,11.28
		c3.27,3.2,7.16,5.74,11.68,7.6c4.51,1.86,9.42,2.8,14.72,2.8C122.82,426.03,127.73,425.09,132.24,423.23L132.24,423.23z
		 M202.87,424.31c3.4-1.01,6.31-2.48,8.73-4.41c2.42-1.93,4.3-4.26,5.64-7c1.34-2.74,2.01-5.88,2.01-9.4v-0.2
		c0-3.2-0.59-5.96-1.77-8.28c-1.18-2.32-2.88-4.29-5.1-5.92c-2.22-1.63-4.92-3.02-8.09-4.16c-3.17-1.14-6.72-2.14-10.65-2.99
		c-2.35-0.52-4.3-1.03-5.84-1.52c-1.54-0.49-2.75-0.98-3.63-1.47c-0.88-0.49-1.51-1.03-1.86-1.62c-0.36-0.59-0.54-1.27-0.54-2.06
		v-0.2c0-1.24,0.57-2.28,1.72-3.13c1.14-0.85,2.86-1.27,5.15-1.27c3.07,0,6.26,0.57,9.56,1.72c3.3,1.14,6.52,2.83,9.66,5.05
		l9.52-13.48c-3.73-3.03-7.9-5.31-12.51-6.86c-4.61-1.55-9.86-2.32-15.74-2.32c-4.12,0-7.82,0.54-11.09,1.62
		c-3.27,1.08-6.07,2.6-8.39,4.55c-2.32,1.96-4.09,4.28-5.3,6.95c-1.21,2.68-1.82,5.62-1.82,8.81v0.19c0,3.53,0.67,6.48,2.01,8.86
		c1.34,2.38,3.17,4.37,5.49,5.97c2.32,1.6,5.05,2.91,8.19,3.92c3.14,1.01,6.54,1.94,10.2,2.79c2.35,0.52,4.27,1.03,5.74,1.52
		c1.47,0.49,2.65,1,3.53,1.52c0.88,0.52,1.49,1.06,1.81,1.62c0.33,0.55,0.49,1.19,0.49,1.91v0.2c0,1.5-0.67,2.66-2.01,3.48
		c-1.34,0.82-3.29,1.22-5.84,1.22c-7.98,0-15.4-2.75-22.27-8.24l-10.6,12.68c4.25,3.82,9.14,6.68,14.67,8.59
		c5.53,1.91,11.36,2.86,17.51,2.86C195.68,425.83,199.47,425.32,202.87,424.31L202.87,424.31z M266.84,424.31
		c3.4-1.01,6.31-2.48,8.73-4.41c2.42-1.93,4.3-4.26,5.64-7c1.34-2.74,2.01-5.88,2.01-9.4v-0.2c0-3.2-0.59-5.96-1.77-8.28
		c-1.18-2.32-2.88-4.29-5.1-5.92c-2.22-1.63-4.92-3.02-8.09-4.16c-3.17-1.14-6.72-2.14-10.64-2.99c-2.35-0.52-4.3-1.03-5.84-1.52
		c-1.54-0.49-2.75-0.98-3.63-1.47c-0.88-0.49-1.51-1.03-1.86-1.62c-0.36-0.59-0.54-1.27-0.54-2.06v-0.2c0-1.24,0.57-2.28,1.72-3.13
		c1.14-0.85,2.86-1.27,5.15-1.27c3.07,0,6.26,0.57,9.56,1.72c3.3,1.14,6.52,2.83,9.66,5.05l9.52-13.48
		c-3.73-3.03-7.9-5.31-12.51-6.86c-4.61-1.55-9.86-2.32-15.75-2.32c-4.12,0-7.82,0.54-11.09,1.62c-3.27,1.08-6.07,2.6-8.39,4.55
		c-2.32,1.96-4.09,4.28-5.3,6.95c-1.21,2.68-1.82,5.62-1.82,8.81v0.19c0,3.53,0.67,6.48,2.01,8.86c1.34,2.38,3.17,4.37,5.49,5.97
		c2.32,1.6,5.05,2.91,8.19,3.92c3.14,1.01,6.54,1.94,10.2,2.79c2.35,0.52,4.27,1.03,5.74,1.52c1.47,0.49,2.65,1,3.53,1.52
		c0.88,0.52,1.49,1.06,1.81,1.62c0.33,0.55,0.49,1.19,0.49,1.91v0.2c0,1.5-0.67,2.66-2.01,3.48c-1.34,0.82-3.29,1.22-5.84,1.22
		c-7.98,0-15.4-2.75-22.27-8.24l-10.6,12.68c4.25,3.82,9.14,6.68,14.67,8.59c5.53,1.91,11.36,2.86,17.51,2.86
		C259.64,425.83,263.44,425.32,266.84,424.31L266.84,424.31z"/>
</g>
</svg>
