<?xml version="1.0" encoding="utf-8"?>
<!-- Generator: Adobe Illustrator 24.1.0, SVG Export Plug-In . SVG Version: 6.00 Build 0)  -->
<svg version="1.1" id="Layer_1" xmlns="http://www.w3.org/2000/svg" xmlns:xlink="http://www.w3.org/1999/xlink" x="0px" y="0px"
	 viewBox="0 0 720 110.5" style="enable-background:new 0 0 720 110.5;" xml:space="preserve">
<style type="text/css">
	.st0{fill:#6A6DCD;}
</style>
<g>
	<path class="st0" d="M22.93,88.01V25.17h17.72c4.67,0,8.93,0.77,12.81,2.31c3.87,1.54,7.17,3.7,9.9,6.48
		c2.73,2.78,4.86,6.11,6.4,9.98c1.54,3.87,2.31,8.09,2.31,12.66v0.3c0,4.67-0.77,8.89-2.31,12.66c-1.54,3.77-3.67,7.05-6.4,9.83
		c-2.73,2.78-6.03,4.91-9.9,6.4c-3.87,1.49-8.14,2.23-12.81,2.23H22.93L22.93,88.01z M0,108.71h40.65c8.14,0,15.61-1.34,22.41-4.02
		c6.8-2.68,12.66-6.35,17.57-11.02c4.91-4.66,8.71-10.17,11.39-16.53c2.68-6.35,4.02-13.2,4.02-20.55v-0.3
		c0-7.35-1.34-14.17-4.02-20.48c-2.68-6.3-6.48-11.79-11.39-16.46c-4.91-4.67-10.77-8.31-17.57-10.95
		c-6.8-2.63-14.27-3.95-22.41-3.95H0V108.71L0,108.71z M134.62,92.03c-2.28-1.69-3.42-4.07-3.42-7.15v-0.3
		c0-3.57,1.39-6.3,4.17-8.19c2.78-1.89,6.6-2.83,11.47-2.83c2.78,0,5.38,0.27,7.82,0.82c2.43,0.55,4.64,1.27,6.63,2.16v4.02
		c0,4.17-1.62,7.55-4.84,10.13c-3.23,2.58-7.52,3.87-12.88,3.87C139.88,94.56,136.9,93.72,134.62,92.03L134.62,92.03z
		 M150.85,107.44c3.87-1.84,7.2-4.29,9.98-7.37v8.64h21.89V62.4c0-5.36-0.7-10.2-2.09-14.52c-1.39-4.32-3.57-7.97-6.55-10.95
		c-2.88-2.88-6.53-5.09-10.95-6.63c-4.42-1.54-9.75-2.31-16.01-2.31c-6.75,0-12.51,0.6-17.27,1.79c-4.76,1.19-9.33,2.73-13.7,4.62
		l5.66,17.27c3.67-1.39,7.17-2.46,10.5-3.2c3.32-0.74,7.17-1.12,11.54-1.12c5.66,0,9.93,1.24,12.81,3.72
		c2.88,2.48,4.32,6.11,4.32,10.87v1.34c-2.88-0.99-5.83-1.79-8.86-2.38c-3.03-0.6-6.58-0.89-10.65-0.89
		c-4.76,0-9.11,0.52-13.03,1.56c-3.92,1.04-7.3,2.61-10.13,4.69c-2.83,2.08-5.04,4.72-6.63,7.89c-1.59,3.18-2.38,6.95-2.38,11.32
		v0.3c0,3.97,0.72,7.47,2.16,10.5c1.44,3.03,3.4,5.58,5.88,7.67c2.48,2.08,5.38,3.65,8.71,4.69c3.32,1.04,6.87,1.56,10.65,1.56
		C142.26,110.2,146.98,109.28,150.85,107.44L150.85,107.44z M239.16,108.78c2.88-0.84,5.51-1.96,7.89-3.35V87.26
		c-3.48,1.99-7.2,2.98-11.17,2.98c-4.86,0-7.3-2.59-7.3-7.77V48.25h18.76V28.89h-18.76V8.49h-22.63v20.4h-9.53v19.36h9.53v37.82
		c0,4.67,0.57,8.51,1.71,11.54c1.14,3.03,2.73,5.49,4.77,7.37c2.03,1.89,4.47,3.2,7.3,3.95c2.83,0.74,5.98,1.12,9.46,1.12
		C232.95,110.05,236.28,109.63,239.16,108.78L239.16,108.78z M284.58,92.03c-2.28-1.69-3.43-4.07-3.43-7.15v-0.3
		c0-3.57,1.39-6.3,4.17-8.19c2.78-1.89,6.6-2.83,11.47-2.83c2.78,0,5.38,0.27,7.82,0.82c2.43,0.55,4.64,1.27,6.63,2.16v4.02
		c0,4.17-1.61,7.55-4.84,10.13c-3.23,2.58-7.52,3.87-12.88,3.87C289.84,94.56,286.86,93.72,284.58,92.03L284.58,92.03z
		 M300.81,107.44c3.87-1.84,7.2-4.29,9.98-7.37v8.64h21.89V62.4c0-5.36-0.7-10.2-2.08-14.52c-1.39-4.32-3.57-7.97-6.55-10.95
		c-2.88-2.88-6.53-5.09-10.95-6.63c-4.42-1.54-9.75-2.31-16.01-2.31c-6.75,0-12.51,0.6-17.27,1.79c-4.77,1.19-9.33,2.73-13.7,4.62
		l5.66,17.27c3.67-1.39,7.17-2.46,10.5-3.2c3.32-0.74,7.17-1.12,11.54-1.12c5.66,0,9.93,1.24,12.81,3.72
		c2.88,2.48,4.32,6.11,4.32,10.87v1.34c-2.88-0.99-5.83-1.79-8.86-2.38c-3.03-0.6-6.58-0.89-10.65-0.89
		c-4.77,0-9.11,0.52-13.03,1.56c-3.92,1.04-7.3,2.61-10.13,4.69c-2.83,2.08-5.04,4.72-6.63,7.89c-1.59,3.18-2.38,6.95-2.38,11.32
		v0.3c0,3.97,0.72,7.47,2.16,10.5c1.44,3.03,3.4,5.58,5.88,7.67c2.48,2.08,5.38,3.65,8.71,4.69c3.32,1.04,6.87,1.56,10.65,1.56
		C292.22,110.2,296.94,109.28,300.81,107.44L300.81,107.44z M354.57,108.71h22.93V66.86h42.29v41.85h22.93V4.47h-22.93v41.25H377.5
		V4.47h-22.93V108.71L354.57,108.71z M483.68,62.54c0.89-5.16,2.8-9.28,5.73-12.36c2.93-3.08,6.78-4.62,11.54-4.62
		c4.76,0,8.59,1.56,11.47,4.69c2.88,3.13,4.67,7.22,5.36,12.29H483.68L483.68,62.54z M522.1,106.55c5.36-2.63,9.93-6.28,13.7-10.95
		l-12.95-11.47c-3.18,2.88-6.26,4.96-9.23,6.25c-2.98,1.29-6.36,1.94-10.13,1.94c-5.06,0-9.31-1.31-12.73-3.95
		c-3.43-2.63-5.68-6.53-6.78-11.69h55.55c0.1-1.09,0.17-2.13,0.22-3.13c0.05-0.99,0.07-1.94,0.07-2.83c0-5.66-0.77-11.09-2.31-16.31
		c-1.54-5.21-3.92-9.83-7.15-13.85c-3.23-4.02-7.27-7.22-12.14-9.61c-4.86-2.38-10.62-3.57-17.27-3.57
		c-5.86,0-11.19,1.09-16.01,3.28c-4.82,2.18-8.96,5.16-12.43,8.93c-3.48,3.77-6.18,8.19-8.12,13.25c-1.94,5.06-2.9,10.42-2.9,16.08
		v0.3c0,6.16,1.04,11.74,3.13,16.75c2.09,5.02,4.99,9.36,8.71,13.03c3.72,3.67,8.14,6.5,13.25,8.49c5.11,1.98,10.65,2.98,16.6,2.98
		C510.43,110.5,516.73,109.18,522.1,106.55L522.1,106.55z M557.69,108.71h22.64V0h-22.64V108.71L557.69,108.71z M602.66,108.71
		h22.64V28.89h-22.64V108.71L602.66,108.71z M602.06,20.1h23.83V0h-23.83V20.1L602.06,20.1z M639.88,108.71h23.68l16.08-24.87
		l16.08,24.87H720l-28.15-40.95l26.95-38.87h-23.68l-15.04,23.23L665.2,28.89h-24.27l26.95,39.31L639.88,108.71L639.88,108.71z"/>
</g>
</svg>
