<?xml version="1.0" encoding="utf-8"?>
<!-- Generator: Adobe Illustrator 23.0.3, SVG Export Plug-In . SVG Version: 6.00 Build 0)  -->
<svg version="1.1" id="Layer_1" xmlns="http://www.w3.org/2000/svg" xmlns:xlink="http://www.w3.org/1999/xlink" x="0px" y="0px"
	 viewBox="0 0 612 792" style="enable-background:new 0 0 612 792;" xml:space="preserve">
<style type="text/css">
	.st0{fill:#FFFFFF;}
</style>
<g>
	<path class="st0" d="M618.36,430.71c30.83,0,49.79-19.15,49.79-45.24v-0.4c0-25.7-18.37-35.59-37.14-38.75l34.96-33.41V290H572.5
		v26.07h54.36l-33.01,33.22l4.74,19.38h12.65c17,0,27.08,6.33,27.08,17.6v0.4c0,10.28-8.1,16.81-19.57,16.81
		c-14.03,0-23.92-5.93-33.41-16.61l-20.95,19.96C576.26,420.83,593.45,430.71,618.36,430.71L618.36,430.71z"/>
	<path class="st0" d="M-58,500.31h36.04v-84.18H82.31v-32.79H-21.96v-57.01H95.6v-32.79H-58V500.31L-58,500.31z M171.8,467.52
		V326.33h40.76c10.83,0,20.68,1.78,29.54,5.34c8.86,3.56,16.39,8.45,22.6,14.69s11.03,13.69,14.47,22.39
		c3.44,8.7,5.17,18.09,5.17,28.18v0.6c0,10.08-1.73,19.43-5.17,28.03c-3.45,8.6-8.27,16.02-14.47,22.25
		c-6.2,6.23-13.74,11.07-22.6,14.53c-8.86,3.46-18.71,5.19-29.54,5.19H171.8L171.8,467.52z M135.77,500.31h77.09
		c16.14,0,30.96-2.66,44.45-7.98c13.49-5.32,25.11-12.6,34.85-21.86c9.75-9.25,17.28-20.18,22.6-32.79
		c5.32-12.6,7.97-26.19,7.97-40.76v-0.59c0-14.57-2.66-28.11-7.97-40.61c-5.32-12.5-12.85-23.38-22.6-32.64
		c-9.75-9.25-21.37-16.49-34.85-21.71c-13.49-5.22-28.31-7.83-44.45-7.83h-77.09V500.31L135.77,500.31z M489.48,501.34
		c7.98-1.67,15.31-4.13,22.01-7.38c6.69-3.25,12.95-7.09,18.76-11.52c5.81-4.43,11.37-9.5,16.69-15.21L523.6,443.6
		c-8.86,8.27-17.82,14.82-26.88,19.64c-9.06,4.83-19.89,7.24-32.49,7.24c-9.85,0-18.95-1.92-27.32-5.76
		c-8.37-3.84-15.61-9.11-21.71-15.8c-6.11-6.69-10.83-14.52-14.18-23.48c-3.35-8.96-5.02-18.46-5.02-28.5v-0.59
		c0-10.04,1.67-19.49,5.02-28.36c3.35-8.86,8.07-16.59,14.18-23.19c6.1-6.6,13.34-11.82,21.71-15.66
		c8.37-3.84,17.47-5.76,27.32-5.76c11.82,0,22.35,2.36,31.61,7.09c9.25,4.73,18.02,10.93,26.29,18.61l23.34-26.88
		c-4.93-4.73-10.15-9.05-15.66-13c-5.52-3.94-11.52-7.33-18.02-10.19c-6.5-2.85-13.64-5.07-21.41-6.65
		c-7.78-1.57-16.39-2.36-25.85-2.36c-15.76,0-30.13,2.81-43.13,8.42c-13,5.61-24.25,13.29-33.76,23.04
		c-9.51,9.75-16.9,21.07-22.15,33.97c-5.26,12.9-7.89,26.73-7.89,41.5v0.59c0,14.77,2.68,28.65,8.03,41.65
		c5.36,13,12.74,24.27,22.15,33.82c9.41,9.55,20.52,17.09,33.32,22.6c12.8,5.51,26.78,8.27,41.94,8.27
		C472.69,503.86,481.51,503.02,489.48,501.34L489.48,501.34z"/>
</g>
</svg>
