<?xml version="1.0" encoding="utf-8"?>
<!-- Generator: Adobe Illustrator 24.1.0, SVG Export Plug-In . SVG Version: 6.00 Build 0)  -->
<svg version="1.1" id="Layer_1" xmlns="http://www.w3.org/2000/svg" xmlns:xlink="http://www.w3.org/1999/xlink" x="0px" y="0px"
	 viewBox="0 0 614.57 540" style="enable-background:new 0 0 614.57 540;" xml:space="preserve">
<style type="text/css">
	.st0{fill:#FFFFFF;}
</style>
<g>
	<path class="st0" d="M490.21,57.44V33.47C490.21,14.99,475.22,0,456.74,0H157.84c-18.49,0-33.47,14.99-33.47,33.47v163.57
		l61.22,33.93c3.8-4.19,9.23-6.87,15.33-6.87c2.58,0,5.03,0.53,7.31,1.39l63.78-63.78c-0.16-1.04-0.32-2.09-0.32-3.18
		c0-11.46,9.29-20.76,20.75-20.75c11.46,0,20.75,9.29,20.75,20.75c0,1.27-0.16,2.5-0.37,3.71l37.7,20.9
		c3.39-2.4,7.5-3.85,11.97-3.85c3.28,0,6.34,0.83,9.1,2.18l57.41-63.76l-19.77-17.8L490.21,57.44L490.21,57.44z"/>
	<path class="st0" d="M124.37,212.15v120.22c0,18.49,14.99,33.48,33.47,33.48h298.89c18.49,0,33.47-14.99,33.47-33.48V64.84
		l-31.62,79.52l-19.77-17.8l-57.84,64.24c1.4,2.8,2.27,5.91,2.27,9.26c0,11.46-9.29,20.75-20.75,20.75
		c-11.46,0-20.76-9.29-20.76-20.75c0-2.14,0.42-4.16,1.02-6.11l-36.35-20.15c-3.69,3.38-8.57,5.5-13.97,5.5
		c-5.37,0-10.21-2.09-13.9-5.43l-60.06,60.06c1.99,3.18,3.18,6.91,3.18,10.94c0,11.46-9.29,20.75-20.75,20.75
		c-11.46,0-20.75-9.29-20.75-20.75c0-0.58,0.12-1.13,0.17-1.7L124.37,212.15L124.37,212.15z"/>
	<path class="st0" d="M401.22,538.9h23.43v-96.19h-23.43v37.68h-36.45v-37.68h-23.43v96.19h23.43v-39.6h36.45V538.9L401.22,538.9z
		 M517.01,462.44h-23.43v41.52c0,10.41-5.76,16.17-14.8,16.17c-8.77,0-14.66-5.76-14.66-16.17v-41.52h-23.29v44.67
		c0,20.42,11.92,32.61,29.6,32.61c10.28,0,18.5-4.66,23.16-11.24v10.41h23.43V462.44L517.01,462.44z M557.29,473.27V437.5h-23.43
		v101.4h23.43v-10.69c4.25,6.72,12.33,11.79,23.57,11.79c18.77,0,33.71-15.35,33.71-39.47c0-24.12-14.8-39.19-33.71-39.19
		C569.9,461.34,561.54,466.41,557.29,473.27L557.29,473.27z M590.73,500.53c0,12.2-7.95,19.05-16.85,19.05
		c-8.77,0-16.72-6.71-16.72-18.91c0-12.2,7.95-18.91,16.72-18.91C582.78,481.76,590.73,488.34,590.73,500.53L590.73,500.53z"/>
	<path class="st0" d="M36.04,442.71H0v96.19h36.04c30.7,0,50.43-19.6,50.43-48.1C86.47,462.17,66.73,442.71,36.04,442.71
		L36.04,442.71z M23.43,518.62v-55.91h11.1c17.68,0,28.09,10.41,28.09,28.09c0,17.68-10.41,27.82-28.09,27.82H23.43L23.43,518.62z
		 M94.96,500.53c0,24.12,14.94,39.47,33.57,39.47c11.37,0,19.46-5.21,23.71-11.92v10.83h23.43v-76.46h-23.43v10.83
		c-4.11-6.71-12.2-11.92-23.57-11.92C109.9,461.34,94.96,476.42,94.96,500.53L94.96,500.53z M152.24,500.67
		c0,12.2-7.81,18.91-16.72,18.91c-8.77,0-16.72-6.85-16.72-19.05c0-12.19,7.95-18.77,16.72-18.77
		C144.43,481.76,152.24,488.48,152.24,500.67L152.24,500.67z M196.36,512.32c0,19.87,11.1,26.58,26.99,26.58h11.92v-19.87h-8.36
		c-5.21,0-7.12-1.92-7.12-6.44V481.9h15.35v-19.46h-15.35V443.8h-23.43v18.64h-9.32v19.46h9.32V512.32L196.36,512.32z
		 M243.64,500.53c0,24.12,14.94,39.47,33.57,39.47c11.37,0,19.46-5.21,23.71-11.92v10.83h23.43v-76.46h-23.43v10.83
		c-4.11-6.71-12.2-11.92-23.57-11.92C258.57,461.34,243.64,476.42,243.64,500.53L243.64,500.53z M300.91,500.67
		c0,12.2-7.81,18.91-16.72,18.91c-8.77,0-16.72-6.85-16.72-19.05c0-12.19,7.95-18.77,16.72-18.77
		C293.1,481.76,300.91,488.48,300.91,500.67L300.91,500.67z"/>
</g>
</svg>
