<?xml version="1.0" encoding="utf-8"?>
<!-- Generator: Adobe Illustrator 24.1.0, SVG Export Plug-In . SVG Version: 6.00 Build 0)  -->
<svg version="1.1" id="Layer_1" xmlns="http://www.w3.org/2000/svg" xmlns:xlink="http://www.w3.org/1999/xlink" x="0px" y="0px"
	 viewBox="0 0 540.82 540.81" style="enable-background:new 0 0 540.82 540.81;" xml:space="preserve">
<style type="text/css">
	.st0{fill:#25282A;}
	.st1{fill:#97999B;}
</style>
<g>
	<path class="st0" d="M540.82,540.81V0H398.86c66.04,20.55,107.21,75,110.65,157.34H374.08c-1.27-33.48-18.44-48.69-41.33-48.69
		c-13.76-0.57-23.32,10.66-26.71,27.12c-3.38-9.87-10.06-21.16-22.29-28.07c-21.23-12-87.74-6.97-110.8-4.64
		C186.85,50.4,223.59,15.49,272.4,0H0v540.81h347.99c-96.82-0.01-177.25-60.64-182-185.7h54.82c28.71,0,53.82-4.23,76.11-11.28
		c-6.97,46.75,24.98,79.06,46.65,79.06c22.25,0,39.42-13.7,39.42-38.8c-0.64-85.98-218.09-45.65-216.18-232.06
		c0-10.81,0.84-21.06,2.33-30.83c13.27-0.38,55.25-1.42,77.48,0.13c26.62,1.86,35.9,7.43,46.42,17.33
		c10.52,9.9,11.76,16.71,11.76,16.71s0.05,0,0.17,0c6.48,77.59,210.27,46.29,210.27,217.31c0,94.34-61.03,168.14-167.2,168.15
		H540.82L540.82,540.81z"/>
	<path class="st1" d="M419.76,174.08c0-5.67-0.23-11.24-0.61-16.74c-0.91-12.96-2.96-25.37-6-37.23c-0.36-1.41-0.66-2.86-1.05-4.25
		c-0.76-2.73-1.67-5.37-2.55-8.03c-0.57-1.71-1.09-3.46-1.7-5.14c-0.89-2.45-1.9-4.83-2.9-7.22c-0.75-1.81-1.48-3.63-2.29-5.4
		c-1.03-2.25-2.15-4.43-3.27-6.61c-0.93-1.82-1.85-3.64-2.85-5.41c-1.16-2.07-2.4-4.09-3.65-6.1c-1.11-1.78-2.23-3.56-3.4-5.3
		c-1.29-1.91-2.65-3.78-4.02-5.63c-1.29-1.73-2.61-3.45-3.97-5.13c-1.42-1.74-2.87-3.46-4.36-5.14c-1.49-1.68-3.02-3.32-4.58-4.93
		c-1.53-1.58-3.08-3.14-4.69-4.67c-1.69-1.6-3.44-3.15-5.21-4.68c-1.64-1.42-3.27-2.83-4.98-4.19c-1.91-1.52-3.9-2.97-5.89-4.42
		c-1.72-1.25-3.43-2.51-5.22-3.7c-2.15-1.43-4.41-2.78-6.66-4.13c-1.78-1.07-3.53-2.17-5.38-3.19c-2.46-1.36-5.04-2.61-7.61-3.87
		c-1.78-0.87-3.51-1.8-5.34-2.62c-2.96-1.33-6.05-2.53-9.14-3.73c-1.59-0.62-3.11-1.31-4.74-1.89C302.93,3,298.01,1.42,292.93,0H0
		v540.81h147.71V355.11h18.28h54.82c7.49,0,14.67-0.36,21.72-0.87c19.87-1.56,37.91-5.2,54.39-10.41c-0.02,0.12-0.02,0.23-0.03,0.34
		c8.11-2.52,15.65-5.58,22.94-8.88c-130.37-44.1-136.35-84.62-146.7-103.19h-25.42V108.31h23.87h52.99
		c45.58,0,71.93,9.68,80.24,43.49c0.02,0.78-0.05,1.52-0.01,2.32c0.05,0.97,0.27,1.86,0.39,2.8c0.02,0.13,0.03,0.26,0.05,0.39
		c4.83,37.14,56.15,48.82,106.94,71.56C417.18,211.39,419.76,192.97,419.76,174.08L419.76,174.08z"/>
</g>
</svg>
