<?xml version="1.0" encoding="utf-8"?>
<!-- Generator: Adobe Illustrator 25.0.0, SVG Export Plug-In . SVG Version: 6.00 Build 0)  -->
<svg version="1.1" id="Layer_1" xmlns="http://www.w3.org/2000/svg" xmlns:xlink="http://www.w3.org/1999/xlink" x="0px" y="0px"
	 viewBox="0 0 576 575.6" style="enable-background:new 0 0 576 575.6;" xml:space="preserve">
<style type="text/css">
	.st0{fill:#FFFFFF;}
</style>
<g>
	<path class="st0" d="M330.5,490c16.5,0,29.9-13.4,29.9-29.9c0-16.5-13.4-29.9-29.9-29.9c-11.8,0-22.3,6.8-27.2,17.5H128.1v-185
		h21.1v163.8h171.4c13.5,0,26.2-3.2,37.8-9.6l30.5,37l1,1.5l0.2-0.2l0.1,0.1l1.3-1.1c0.7-0.5,1.5-0.9,2.2-1.3c1.1-0.6,2.1-1.2,3.2-2
		c23.4-16.7,42.3-39.8,56-68.7c13.8-28.9,20.7-60.7,20.7-94.4c0-33.9-7-65.8-20.7-94.6c-13.8-28.8-32.6-51.9-56-68.6
		c-23.5-16.7-49.2-25.2-76.4-25.2H99.5v376.7h206.4C311.5,484.8,320.6,490,330.5,490L330.5,490z M392.8,385.6
		c19.8-26.9,29.9-59.8,29.9-97.8c0-37.8-10.1-70.6-29.9-97.6c-20-27.2-44.2-41-72.1-41H192c-5.8-8.1-14.4-12.7-23.9-12.7
		c-16.5,0-29.9,13.4-29.9,29.9c0,16.5,13.4,29.9,29.9,29.9c12.1,0,22.8-7.2,27.4-18.5h125.1c19.7,0,36.9,10.7,51.1,31.8
		c14.3,21.3,21.6,47.7,21.6,78.2c0,30.3-7.3,56.6-21.6,78.1c-14.2,21.2-31.4,32-51.1,32H177.8v-162l-0.3-1.9l-49.5,0v-106h192.6
		c22,0,42.8,7.1,61.6,21.2c18.9,14.1,34.1,33.7,45.3,58.2c11.2,24.5,16.9,51.5,16.9,80.4c0,43.8-12.4,81.8-36.7,113
		c-4.2,5.4-8.6,10.4-13.2,14.9l-13.5-16.4C385.4,394.9,389.3,390.4,392.8,385.6L392.8,385.6z"/>
	<path class="st0" d="M541.1,143.6c-22.6-42.9-53.2-77.5-91-103.1c0-0.1,0.1-0.3,0.1-0.4c0.3-1,0.6-2.1,0.6-3.3
		c0-16.5-13.4-29.9-29.9-29.9c-16.5,0-29.9,13.4-29.9,29.9c0,16.5,13.4,29.9,29.9,29.9c4,0,7.9-0.9,11.9-2.7
		c17.6,11.5,33.3,25.1,46.7,40.4c20.3,23.1,36.7,51,48.9,82.8c12.2,31.9,18.4,65.7,18.4,100.5c0,34.8-6.2,68.7-18.4,100.7
		c-12.2,32-28.6,59.9-48.9,82.8c-20.2,23-44.6,41.5-72.3,55.2c-27.7,13.6-56.8,20.5-86.6,20.5h-292v-95.2h21.1v74h270.9
		c36.1,0,70.3-10.7,101.6-31.9c31.2-21.1,56.4-50.4,74.9-86.9c18.5-36.5,27.8-76.6,27.8-119.3s-9.4-82.8-27.8-119.3
		c-18.5-36.5-43.7-65.7-74.9-86.9c-17.6-12-37.2-20.7-58-26l7-50.1l-16.5-2.3c-13.5-2.3-24-3.3-34-3.3H0v575.6h320.6
		c33.7,0,66.7-7.7,98-22.8c31.3-15.1,58.7-35.8,81.6-61.4c22.8-25.6,41.4-56.5,55.1-91.9c13.7-35.4,20.7-73,20.7-111.7
		C576,236.2,564.2,187.7,541.1,143.6L541.1,143.6z M335.9,50.8l-1.6-0.2c-4.5-0.5-9.1-0.9-13.7-0.9H49.7v285.6
		c-9.9,5.2-16,15.2-16,26.3c0,16.5,13.4,29.9,29.9,29.9c16.5,0,29.9-13.4,29.9-29.9c0-10.5-5.8-20.3-15.2-25.7V78.3h242.3
		c30.8,0,59.9,9.4,86.7,28c26.8,18.6,48.4,44.4,64.3,76.5c15.9,32.2,24,67.5,24,105c0,37.7-8.1,73.1-24,105.2
		c-15.9,32-37.5,57.7-64.2,76.3c-26.6,18.6-55.8,28-86.8,28H78.3v-74.1l-49.7,0.1V28.6h292c5.8,0,11.8,0.3,18.3,1L335.9,50.8
		L335.9,50.8z"/>
</g>
</svg>
