<?xml version="1.0" encoding="utf-8"?>
<!-- Generator: Adobe Illustrator 26.3.1, SVG Export Plug-In . SVG Version: 6.00 Build 0)  -->
<svg version="1.1" id="Layer_1" xmlns="http://www.w3.org/2000/svg" xmlns:xlink="http://www.w3.org/1999/xlink" x="0px" y="0px"
	 viewBox="0 0 717.8 245.9" style="enable-background:new 0 0 717.8 245.9;" xml:space="preserve">
<style type="text/css">
	.st0{fill:#00000A;}
</style>
<g>
	<path class="st0" d="M314.5,219.1c1.5-0.3,2.9-0.8,4.2-1.4c1.3-0.6,2.4-1.3,3.5-2.2c1.1-0.8,2.1-1.8,3.1-2.9l-5.4-5.5
		c-1.5,1.4-3,2.5-4.6,3.3c-1.5,0.8-3.4,1.2-5.6,1.2c-1.7,0-3.2-0.3-4.6-1c-1.4-0.6-2.6-1.5-3.5-2.6c-1-1.1-1.7-2.4-2.3-3.9
		c-0.6-1.5-0.8-3-0.8-4.7v-0.1c0-1.7,0.3-3.2,0.8-4.7c0.6-1.5,1.3-2.7,2.3-3.9c1-1.1,2.2-2,3.6-2.6c1.4-0.6,2.9-0.9,4.5-0.9
		c2,0,3.7,0.4,5.3,1.2c1.6,0.8,3.1,1.8,4.6,3.2l5.4-6.3c-0.9-0.9-1.8-1.7-2.9-2.4c-1-0.7-2.2-1.4-3.4-1.9c-1.2-0.5-2.6-0.9-4.1-1.2
		c-1.5-0.3-3.2-0.4-5-0.4c-3,0-5.7,0.5-8.2,1.6c-2.5,1.1-4.6,2.5-6.4,4.3c-1.8,1.8-3.2,4-4.2,6.4c-1,2.4-1.5,5-1.5,7.8v0.1
		c0,2.8,0.5,5.4,1.5,7.8c1,2.4,2.4,4.6,4.2,6.3c1.8,1.8,3.9,3.2,6.3,4.2c2.4,1,5.1,1.6,7.9,1.6C311.3,219.6,313,219.4,314.5,219.1
		L314.5,219.1z M342.7,211.7c-0.9-0.4-1.8-1-2.5-1.8c-0.7-0.8-1.2-1.6-1.6-2.6c-0.4-1-0.6-2-0.6-3.1V204c0-1.1,0.2-2.2,0.5-3.1
		c0.4-1,0.9-1.8,1.5-2.6c0.7-0.7,1.5-1.3,2.4-1.7c0.9-0.4,2-0.6,3.2-0.6c1.1,0,2.2,0.2,3.2,0.7c1,0.4,1.8,1,2.5,1.8
		c0.7,0.8,1.2,1.6,1.6,2.6c0.4,1,0.6,2,0.6,3.1v0.1c0,1.1-0.2,2.2-0.5,3.1c-0.4,1-0.9,1.8-1.5,2.6c-0.7,0.7-1.5,1.3-2.4,1.7
		c-0.9,0.4-2,0.6-3.2,0.6C344.7,212.3,343.7,212.1,342.7,211.7L342.7,211.7z M352.2,218.4c2-0.8,3.7-1.9,5.1-3.3
		c1.4-1.4,2.6-3,3.4-4.9c0.8-1.9,1.2-3.9,1.2-6V204c0-2.1-0.4-4.1-1.2-6c-0.8-1.9-1.9-3.5-3.4-4.9c-1.4-1.4-3.1-2.5-5.1-3.3
		c-2-0.8-4.1-1.2-6.4-1.2c-2.3,0-4.5,0.4-6.4,1.2c-2,0.8-3.7,1.9-5.1,3.3c-1.4,1.4-2.6,3-3.4,4.9c-0.8,1.9-1.2,3.9-1.2,6v0.1
		c0,2.1,0.4,4.1,1.2,6c0.8,1.9,1.9,3.5,3.4,4.9c1.4,1.4,3.1,2.5,5.1,3.3c2,0.8,4.1,1.2,6.4,1.2C348.1,219.6,350.3,219.2,352.2,218.4
		L352.2,218.4z M368,218.9h8.4v-16.5c0-2,0.5-3.5,1.4-4.5c0.9-1,2.2-1.5,3.9-1.5c1.6,0,2.9,0.5,3.8,1.5c0.9,1,1.3,2.5,1.3,4.5v16.5
		h8.4v-19.2c0-3.4-0.9-6.1-2.6-8.1c-1.8-2-4.2-2.9-7.5-2.9c-1.1,0-2,0.1-2.9,0.4c-0.8,0.3-1.6,0.6-2.3,1.1c-0.7,0.4-1.3,1-1.9,1.5
		c-0.6,0.6-1.1,1.2-1.6,1.8v-4.2H368V218.9L368,218.9z M404,218.9h8.4v-22.5h6.7v-6.9h-6.8v-1.2c0-2.1,1-3.2,3-3.2
		c0.7,0,1.4,0.1,2,0.2c0.6,0.1,1.2,0.3,1.8,0.5v-7c-0.8-0.3-1.6-0.5-2.6-0.6c-0.9-0.1-2.1-0.2-3.4-0.2c-3,0-5.3,0.8-6.8,2.3
		c-1.6,1.6-2.4,4-2.4,7.2v1.9h-3.5v6.9h3.5V218.9L404,218.9z M435.2,211.7c-0.9-0.4-1.8-1-2.5-1.8c-0.7-0.8-1.2-1.6-1.6-2.6
		c-0.4-1-0.6-2-0.6-3.1V204c0-1.1,0.2-2.2,0.5-3.1c0.4-1,0.9-1.8,1.5-2.6c0.7-0.7,1.5-1.3,2.4-1.7c0.9-0.4,2-0.6,3.2-0.6
		c1.1,0,2.2,0.2,3.2,0.7c1,0.4,1.8,1,2.5,1.8c0.7,0.8,1.2,1.6,1.6,2.6c0.4,1,0.6,2,0.6,3.1v0.1c0,1.1-0.2,2.2-0.5,3.1
		c-0.4,1-0.9,1.8-1.5,2.6c-0.7,0.7-1.5,1.3-2.4,1.7c-0.9,0.4-2,0.6-3.2,0.6C437.2,212.3,436.2,212.1,435.2,211.7L435.2,211.7z
		 M444.7,218.4c2-0.8,3.7-1.9,5.1-3.3c1.4-1.4,2.6-3,3.4-4.9c0.8-1.9,1.2-3.9,1.2-6V204c0-2.1-0.4-4.1-1.2-6
		c-0.8-1.9-1.9-3.5-3.4-4.9c-1.4-1.4-3.1-2.5-5.1-3.3c-2-0.8-4.1-1.2-6.4-1.2c-2.3,0-4.5,0.4-6.4,1.2c-2,0.8-3.7,1.9-5.1,3.3
		c-1.4,1.4-2.6,3-3.4,4.9c-0.8,1.9-1.2,3.9-1.2,6v0.1c0,2.1,0.4,4.1,1.2,6c0.8,1.9,1.9,3.5,3.4,4.9c1.4,1.4,3.1,2.5,5.1,3.3
		c2,0.8,4.1,1.2,6.4,1.2C440.6,219.6,442.8,219.2,444.7,218.4L444.7,218.4z M460.5,218.9h8.4v-11c0-3.6,0.8-6.2,2.4-7.9
		c1.6-1.7,3.8-2.5,6.6-2.5h0.4v-8.8c-2.5-0.1-4.5,0.4-6,1.7c-1.5,1.2-2.6,2.8-3.5,4.9v-6h-8.4V218.9L460.5,218.9z M483.7,218.9h8.4
		v-16.5c0-2,0.5-3.5,1.4-4.5c0.9-1,2.2-1.5,3.7-1.5c1.6,0,2.8,0.5,3.7,1.5c0.9,1,1.3,2.5,1.3,4.5v16.5h8.4v-16.5
		c0-2,0.5-3.5,1.4-4.5c0.9-1,2.2-1.5,3.7-1.5c1.6,0,2.8,0.5,3.7,1.5c0.8,1,1.3,2.5,1.3,4.5v16.5h8.4v-19.3c0-3.6-0.9-6.3-2.7-8.1
		c-1.8-1.8-4.2-2.8-7.4-2.8c-2,0-3.8,0.4-5.4,1.2c-1.6,0.8-3,2-4.3,3.5c-0.8-1.5-1.9-2.7-3.3-3.5c-1.4-0.8-3.1-1.2-5.1-1.2
		c-1.1,0-2,0.1-2.9,0.4c-0.9,0.3-1.7,0.6-2.4,1.1c-0.7,0.4-1.3,1-1.9,1.5c-0.6,0.6-1.1,1.2-1.6,1.8v-4.2h-8.4V218.9L483.7,218.9z
		 M544,212.7c-0.9-0.6-1.3-1.5-1.3-2.7v-0.1c0-1.3,0.5-2.3,1.6-3c1-0.7,2.5-1.1,4.3-1.1c1,0,2,0.1,2.9,0.3c0.9,0.2,1.7,0.5,2.5,0.8
		v1.5c0,1.6-0.6,2.8-1.8,3.8c-1.2,1-2.8,1.4-4.8,1.4C546,213.7,544.8,213.3,544,212.7L544,212.7z M550,218.4
		c1.4-0.7,2.7-1.6,3.7-2.7v3.2h8.1v-17.2c0-2-0.3-3.8-0.8-5.4c-0.5-1.6-1.3-3-2.4-4.1c-1.1-1.1-2.4-1.9-4.1-2.5
		c-1.6-0.6-3.6-0.9-6-0.9c-2.5,0-4.7,0.2-6.4,0.7c-1.8,0.4-3.5,1-5.1,1.7l2.1,6.4c1.4-0.5,2.7-0.9,3.9-1.2c1.2-0.3,2.7-0.4,4.3-0.4
		c2.1,0,3.7,0.5,4.8,1.4c1.1,0.9,1.6,2.3,1.6,4v0.5c-1.1-0.4-2.2-0.7-3.3-0.9c-1.1-0.2-2.4-0.3-4-0.3c-1.8,0-3.4,0.2-4.8,0.6
		c-1.5,0.4-2.7,1-3.8,1.7c-1.1,0.8-1.9,1.8-2.5,2.9c-0.6,1.2-0.9,2.6-0.9,4.2v0.1c0,1.5,0.3,2.8,0.8,3.9c0.5,1.1,1.3,2.1,2.2,2.9
		c0.9,0.8,2,1.4,3.2,1.7c1.2,0.4,2.6,0.6,4,0.6C546.8,219.5,548.6,219.1,550,218.4L550,218.4z M569.2,218.9h8.4v-16.5
		c0-2,0.5-3.5,1.4-4.5c0.9-1,2.2-1.5,3.9-1.5c1.6,0,2.9,0.5,3.8,1.5c0.9,1,1.3,2.5,1.3,4.5v16.5h8.4v-19.2c0-3.4-0.9-6.1-2.6-8.1
		c-1.8-2-4.2-2.9-7.5-2.9c-1.1,0-2,0.1-2.9,0.4c-0.9,0.3-1.6,0.6-2.3,1.1c-0.7,0.4-1.3,1-1.9,1.5c-0.6,0.6-1.1,1.2-1.6,1.8v-4.2
		h-8.4V218.9L569.2,218.9z M624.9,218.1c1.8-1,3.5-2.3,4.9-3.9l-4.9-5c-1,1-2.1,1.7-3.1,2.3c-1.1,0.6-2.3,0.9-3.7,0.9
		c-1.1,0-2.2-0.2-3.1-0.6c-0.9-0.4-1.7-1-2.4-1.7c-0.7-0.7-1.2-1.6-1.5-2.6c-0.4-1-0.5-2.1-0.5-3.2V204c0-1.1,0.2-2.2,0.5-3.1
		c0.3-1,0.8-1.8,1.5-2.6c0.6-0.7,1.4-1.3,2.3-1.7c0.9-0.4,1.8-0.6,2.9-0.6c1.5,0,2.8,0.3,3.8,0.9c1,0.6,2,1.4,3,2.4l5.2-5.5
		c-1.4-1.6-3-2.8-4.9-3.7c-1.8-0.9-4.2-1.3-7-1.3c-2.3,0-4.4,0.4-6.3,1.2c-1.9,0.8-3.5,1.9-4.9,3.3c-1.4,1.4-2.4,3-3.2,4.9
		c-0.8,1.9-1.2,3.9-1.2,6v0.1c0,2.1,0.4,4.1,1.2,6c0.8,1.9,1.8,3.5,3.2,4.9c1.4,1.4,3,2.5,4.9,3.3c1.9,0.8,4,1.2,6.2,1.2
		C620.7,219.6,623.1,219.1,624.9,218.1L624.9,218.1z M642.1,201.7c0.3-1.9,1-3.5,2.1-4.6c1.1-1.1,2.5-1.7,4.3-1.7
		c1.8,0,3.2,0.6,4.3,1.7c1.1,1.2,1.7,2.7,2,4.6H642.1L642.1,201.7z M656.4,218.1c2-1,3.7-2.3,5.1-4.1l-4.8-4.3
		c-1.2,1.1-2.3,1.8-3.4,2.3c-1.1,0.5-2.4,0.7-3.8,0.7c-1.9,0-3.5-0.5-4.7-1.5c-1.3-1-2.1-2.4-2.5-4.4h20.7c0-0.4,0.1-0.8,0.1-1.2
		c0-0.4,0-0.7,0-1.1c0-2.1-0.3-4.1-0.9-6.1c-0.6-1.9-1.5-3.7-2.7-5.2c-1.2-1.5-2.7-2.7-4.5-3.6c-1.8-0.9-4-1.3-6.4-1.3
		c-2.2,0-4.2,0.4-6,1.2c-1.8,0.8-3.3,1.9-4.6,3.3c-1.3,1.4-2.3,3-3,4.9c-0.7,1.9-1.1,3.9-1.1,6v0.1c0,2.3,0.4,4.4,1.2,6.2
		c0.8,1.9,1.9,3.5,3.2,4.8c1.4,1.4,3,2.4,4.9,3.2c1.9,0.7,4,1.1,6.2,1.1C652.1,219.6,654.4,219.1,656.4,218.1L656.4,218.1z"/>
	<path class="st0" d="M688.4,99.8c18.2,0,29.4-11.3,29.4-26.7v-0.2c0-15.2-10.8-21-21.9-22.9l20.6-19.7V16.8h-55.1v15.4h32.1
		L674,51.7l2.8,11.4h7.5c10,0,16,3.7,16,10.4v0.2c0,6.1-4.8,9.9-11.5,9.9c-8.3,0-14.1-3.5-19.7-9.8l-12.4,11.8
		C663.6,93.9,673.7,99.8,688.4,99.8L688.4,99.8z"/>
	<path class="st0" d="M289.5,140.8h21.3V91.1h61.5V71.8h-61.5V38.2h69.3V18.8h-90.6V140.8L289.5,140.8z M425,121.5V38.2h24
		c6.4,0,12.2,1.1,17.4,3.1c5.2,2.1,9.7,5,13.3,8.7c3.7,3.7,6.5,8.1,8.5,13.2c2,5.1,3,10.7,3,16.6v0.4c0,5.9-1,11.5-3,16.5
		c-2,5.1-4.9,9.4-8.5,13.1c-3.7,3.7-8.1,6.5-13.3,8.6c-5.2,2-11,3.1-17.4,3.1H425L425,121.5z M403.8,140.8h45.5
		c9.5,0,18.3-1.6,26.2-4.7c8-3.1,14.8-7.4,20.6-12.9c5.7-5.5,10.2-11.9,13.3-19.3c3.1-7.4,4.7-15.4,4.7-24v-0.3
		c0-8.6-1.6-16.6-4.7-24c-3.1-7.4-7.6-13.8-13.3-19.3c-5.7-5.5-12.6-9.7-20.6-12.8c-8-3.1-16.7-4.6-26.2-4.6h-45.5V140.8
		L403.8,140.8z M612.4,141.4c4.7-1,9-2.4,13-4.4c3.9-1.9,7.6-4.2,11.1-6.8c3.4-2.6,6.7-5.6,9.8-9l-13.8-13.9
		c-5.2,4.9-10.5,8.7-15.9,11.6c-5.3,2.8-11.7,4.3-19.2,4.3c-5.8,0-11.2-1.1-16.1-3.4c-4.9-2.3-9.2-5.4-12.8-9.3
		c-3.6-3.9-6.4-8.6-8.4-13.9c-2-5.3-3-10.9-3-16.8v-0.3c0-5.9,1-11.5,3-16.7c2-5.2,4.8-9.8,8.4-13.7c3.6-3.9,7.9-7,12.8-9.2
		c4.9-2.3,10.3-3.4,16.1-3.4c7,0,13.2,1.4,18.6,4.2c5.5,2.8,10.6,6.4,15.5,11l13.8-15.9c-2.9-2.8-6-5.3-9.2-7.7
		c-3.3-2.3-6.8-4.3-10.6-6c-3.8-1.7-8-3-12.6-3.9c-4.6-0.9-9.7-1.4-15.2-1.4c-9.3,0-17.8,1.7-25.4,5c-7.7,3.3-14.3,7.8-19.9,13.6
		c-5.6,5.7-10,12.4-13.1,20c-3.1,7.6-4.7,15.8-4.7,24.5v0.3c0,8.7,1.6,16.9,4.7,24.6c3.2,7.7,7.5,14.3,13.1,19.9
		c5.6,5.6,12.1,10.1,19.7,13.3c7.5,3.3,15.8,4.9,24.7,4.9C602.5,142.9,607.7,142.4,612.4,141.4L612.4,141.4z"/>
	<path class="st0" d="M218,185.1V66l-96.1,55.5c0.1,0.5,0.3,0.9,0.3,1.5c0,6-4,10.8-9.5,12.5v110.5L218,185.1L218,185.1z"/>
	<path class="st0" d="M119.3,115L214,60.3V60L109,0L4,60v0.3L98.7,115c2.4-3.1,6-5.3,10.3-5.3C113.3,109.7,116.9,111.9,119.3,115
		L119.3,115z"/>
	<path class="st0" d="M96.1,121.5L0,66v119.1l105.2,60.8V135.4c-5.4-1.6-9.5-6.5-9.5-12.5C95.8,122.4,96,122,96.1,121.5L96.1,121.5z
		"/>
</g>
</svg>
