<?xml version="1.0" encoding="utf-8"?>
<!-- Generator: Adobe Illustrator 26.3.1, SVG Export Plug-In . SVG Version: 6.00 Build 0)  -->
<svg version="1.1" id="Layer_1" xmlns="http://www.w3.org/2000/svg" xmlns:xlink="http://www.w3.org/1999/xlink" x="0px" y="0px"
	 viewBox="0 0 586.5 546.2" style="enable-background:new 0 0 586.5 546.2;" xml:space="preserve">
<style type="text/css">
	.st0{fill:#231F20;}
	.st1{font-family:'ProximaNova-Black';}
	.st2{font-size:46.9877px;}
	.st3{letter-spacing:2;}
</style>
<path class="st0" d="M439.4,410h14l-11.2-16.6l10.5-13.9H439l-7,10.9v-22.5h-11.4V410H432v-6.9l2.2-3L439.4,410z M389.6,410H401
	v-18.6c1.3-1.5,4.4-2.1,6.8-2.1c1.1,0,2,0.1,2.6,0.3v-10.9c-3.5,0-7.5,2-9.3,4.2v-3.5h-11.4V410H389.6z M361.9,400.7
	c-3.5,0-5.4-2.6-5.4-6c0-3.3,2-5.9,5.4-5.9c3.5,0,5.5,2.6,5.5,5.9C367.4,398.1,365.4,400.7,361.9,400.7 M361.9,410.8
	c10.9,0,17.2-7.5,17.2-16s-6.3-16-17.2-16c-10.8,0-17.1,7.5-17.1,16S351.1,410.8,361.9,410.8 M317.7,410h12.8v-16.7l15.7-25.4h-14.3
	l-7.7,14.2l-7.8-14.2h-14.3l15.8,25.4V410H317.7z M253.8,410h12.4l8.8-30.5h-11.7l-4,16.8l-5.3-16.8h-10.2l-5.4,16.8l-4-16.8h-11.7
	l8.8,30.5h12.4l4.9-17.1L253.8,410z M200.5,387.4c3.7,0,4.7,2.3,5.1,3.7h-10C195.9,389.7,197.1,387.4,200.5,387.4 M183.9,394.7
	c0,10,7.5,16,17,16c4.5,0,10-1.2,13-3.8l-4.7-7c-1.5,1.2-4.3,2.1-6.9,2.1c-3.9,0-6.1-1.9-6.7-3.9h20.7v-2.3
	c0-10.7-6.9-17.2-15.9-17.2C190.7,378.7,183.9,385.9,183.9,394.7 M160.9,410h12.3v-42.1h-12.8v21.2l-14.7-21.2h-13.1V410h12.8v-22.6
	L160.9,410z"/>
<g>
	<path class="st0" d="M586.2,350.1v-41.5h-17.3l-7.3,21.1l-7.3-21.1H537v41.5h12.6v-26.2l9.3,26.2h5.6l9.3-26.2v26.2H586.2z
		 M484.2,333c0,10.3,6,17.8,20,17.8s19.9-7.5,19.9-17.8v-24.4h-12.7v24c0,4-2.1,7.1-7.1,7.1c-5.2,0-7.2-3.2-7.2-7.1v-24h-12.7V333
		H484.2z M460.2,322.6c0,2.3-2,3.7-4.1,3.7h-7.6V319h7.6C458.2,319,460.2,320.4,460.2,322.6 M473,350.1l-7.5-14.7
		c3.3-1.6,7.5-5.4,7.5-12.6c0-7.8-5.2-14.2-14.9-14.2H436V350h12.6v-13.3h4.5l5.7,13.3L473,350.1L473,350.1z M412.4,329.4
		c0,5.8-3.9,10.4-9.9,10.4s-9.9-4.6-9.9-10.4s3.9-10.4,9.9-10.4S412.4,323.6,412.4,329.4 M379.8,329.4c0,12.7,9.9,21.4,22.7,21.4
		c12.8,0,22.7-8.7,22.7-21.4c0-12.7-9.9-21.4-22.7-21.4C389.7,307.9,379.8,316.6,379.8,329.4 M351.6,350.1v-15.7h18.5V324h-18.5v-5
		h18.9v-10.4h-31.4v41.5H351.6z M305.2,350.1v-10.4h-18.9v-5.3h18.4V324h-18.5v-5h18.9v-10.4h-31.4v41.5H305.2z M244.5,350.8
		c11.2,0,16.7-6.6,19.1-12.1l-10.8-5c-1.1,3.2-4.3,6-8.3,6c-5.7,0-9.8-4.6-9.8-10.4s4-10.4,9.8-10.4c4,0,7.3,2.8,8.3,6l10.8-5
		c-2.5-5.7-8-12.1-19.1-12.1c-12.7,0-22.5,8.6-22.5,21.4C222,342.1,231.8,350.8,244.5,350.8 M211.3,350.1v-41.5h-12.6v20.9
		l-14.4-20.9h-12.9v41.5H184v-22.2l15.3,22.2H211.3z M144.5,334.2h-9.4l4.7-14.6L144.5,334.2z M162.9,350.1l-15.3-41.5h-15.8
		l-15.3,41.5h13.6l1.6-5.3h16l1.6,5.3H162.9z M108.1,350.1v-41.5H95.5v20.9l-14.4-20.9H68.2v41.5h12.5v-22.2L96,350.1H108.1z
		 M55.3,308.6H42.7v41.5h12.6C55.3,350.1,55.3,308.6,55.3,308.6z M12.3,350.1v-15.7h18.4V324H12.3v-5h18.9v-10.4H-0.3v41.5H12.3z"/>
	<path class="st0" d="M546,263.5h40.2v-14h-24v-13h23.3v-13.9h-23.3v-12h24v-14H546V263.5z M515.3,264.7c14.6,0,20.9-10,24-18.4
		l-13.4-5.6c-1.4,5.3-5.1,9.6-10.5,9.6c-7.9,0-12.6-8.5-12.6-20.3c0-11.7,4.7-20.3,12.6-20.3c5.2,0,8.8,3.8,10.5,9l13.4-5.8
		c-3.3-8.2-9.6-17.6-24-17.6c-17.9,0-29.2,14.2-29.2,34.6C486.1,250.4,497.4,264.7,515.3,264.7 M463.6,218.5c0,4.8-3,7.9-7.3,7.9
		h-8.6v-16h8.5C460.6,210.5,463.6,213.6,463.6,218.5 M462.6,263.5h18l-11.1-25.9c4.8-2.2,10.7-7.8,10.7-19.3
		c0-12.3-8.3-21.8-21.4-21.8h-27.3v66.9h16.2v-23.1h6L462.6,263.5z M368.9,239.8c0,15.8,9.9,24.9,26,24.9c16,0,25.9-9.1,25.9-25
		v-43.2h-16.5v43.3c0,6.7-3.2,10.6-9.4,10.6c-6.4,0-9.6-3.9-9.6-10.6v-43.3h-16.4V239.8z M344.5,230.1c0,11.5-4.5,20.3-12.6,20.3
		c-8.2,0-12.6-8.7-12.6-20.3s4.4-20.3,12.6-20.3C340,209.8,344.5,218.4,344.5,230.1 M302.7,230.1c0,20.2,11.1,34.6,29.2,34.6
		s29.2-14.5,29.2-34.6c0-20.2-11.1-34.6-29.2-34.6C313.8,195.4,302.7,209.9,302.7,230.1 M249.9,256c5.6,5.4,13.3,8.7,24.2,8.7
		c15.2,0,24-8.6,24-21.4c0-13.5-11.4-17.8-20.1-20.9c-5.8-2.1-9.5-3.9-9.5-7.5c0-3,2.1-5.3,6.7-5.3s9.9,1.7,14.2,5.5l7.5-12
		c-5.5-4.9-13-7.6-21.6-7.6c-15.1,0-23.4,9.6-23.4,20.4c0,14.2,11.5,17.9,20.2,21c5.6,2.1,9.5,4,9.5,8c0,3.3-3,5.8-7.7,5.8
		c-6.4,0-12.3-2.9-16.3-7.1L249.9,256z M207.4,263.5h15.5v-66.9h-16.2v36.7l-19.3-36.7h-16.6v66.9H187V225L207.4,263.5z
		 M121.7,263.5h40.2v-14h-24v-13h23.3v-13.9h-23.3v-12h24v-14h-40.2V263.5z M98.1,218.5c0,4.8-2.9,7.9-7.2,7.9h-8.6v-16h8.6
		C95.1,210.5,98.1,213.6,98.1,218.5 M65.9,263.5h16.3v-23.1h10.6c14.6,0,21.8-10,21.8-21.8s-7.2-22.1-21.8-22.1H65.9V263.5z
		 M41.6,230.1c0,11.5-4.5,20.3-12.6,20.3c-8.2,0-12.6-8.7-12.6-20.3s4.4-20.3,12.6-20.3C37,209.8,41.6,218.4,41.6,230.1 M-0.3,230.1
		c0,20.2,11.1,34.6,29.2,34.6s29.2-14.5,29.2-34.6c0-20.2-11.1-34.6-29.2-34.6S-0.3,209.9-0.3,230.1"/>
	<path class="st0" d="M304.5,293.6V279h-4.4v7.4L295,279h-4.6v14.6h4.4v-7.9l5.4,7.9H304.5z M285.8,279h-4.4v14.6h4.4V279z"/>
	<rect x="20.7" y="284.8" class="st0" width="253.9" height="1.1"/>
	<rect x="311.3" y="284.8" class="st0" width="253.9" height="1.1"/>
</g>
<text transform="matrix(1 0 0 1 227.9647 177.832)" class="st0 st1 st2 st3">2022</text>
<g>
	<path class="st0" d="M546.9,176.5l-11.4-6.3c0.2-0.7,0.3-1.5,0.1-2.2l6.5-3.3c-0.2-0.4-0.3-0.7-0.5-1.1l-6.5,3.3
		c-0.4-0.7-0.9-1.3-1.7-1.6c-0.8-0.4-1.7-0.4-2.5-0.3l-22.7-44.7c0.7-0.5,1.2-1.1,1.6-1.8c1.3-2.6,0.2-5.8-2.5-7
		c-2.6-1.3-5.8-0.2-7,2.5c-0.5,1-0.5,2-0.4,2.9l-70.5,28.7c-0.3-0.4-0.7-0.7-1.2-0.9c-2-1-4.5-0.1-5.4,1.9c-1,2-0.1,4.5,1.9,5.4
		c0.9,0.4,1.9,0.5,2.8,0.2l18.6,22.1c-0.1,0.1-0.2,0.1-0.3,0.2l-57.1-24.4c0.1-0.5,0.1-1,0-1.5c-0.5-2.2-2.6-3.6-4.8-3.1
		c-1.4,0.3-2.4,1.3-2.9,2.6l-23.5-3.4l54-18.5c0.3,0.4,0.6,0.8,1,1.1c1.8,1.3,4.4,0.9,5.7-0.9c0.8-1.2,0.9-2.6,0.4-3.9l57-38.1
		c0.1,0.1,0.2,0.3,0.4,0.4c1.8,1.3,4.4,0.9,5.7-0.9c0.1-0.2,0.2-0.3,0.2-0.5l7.7,1.6c-0.5-0.5-0.9-1-1.4-1.5l-5.9-1.2
		c0.1-0.4,0-0.9,0-1.4l2.6-0.7c-0.3-0.3-0.5-0.5-0.8-0.8L482,80c-0.1-0.3-0.2-0.6-0.4-0.9l1-1.1c-0.3-0.3-0.5-0.6-0.8-0.8l-1,1.1
		c0,0,0,0-0.1-0.1c-0.5-0.4-1.1-0.6-1.7-0.7l0.2-2.9c-0.4-0.3-0.7-0.7-1.1-1l-0.3,3.9c-1.1,0.1-2.1,0.7-2.8,1.6
		c-0.2,0.3-0.3,0.6-0.4,0.9l-56.9-23.2c0.4-0.8,0.5-1.7,0.3-2.6L437.4,42c-0.4-0.2-0.8-0.4-1.1-0.7L417.7,53
		c-0.2-0.3-0.5-0.6-0.8-0.9l11.5-15.4c-0.3-0.2-0.5-0.3-0.8-0.5l-11.5,15.4c-0.2-0.1-0.3-0.2-0.5-0.2l3.6-19.8
		c-0.4-0.2-0.7-0.4-1.1-0.6l-3.6,20.1c-0.3,0-0.6,0.1-0.8,0.1l-6.4-25.6c-0.4-0.2-0.7-0.3-1.1-0.5l6.6,26.2
		c-0.6,0.2-1.2,0.6-1.7,1.1l-43.7-37.2c0.1-0.1,0.2-0.2,0.2-0.3c0.7-0.9,1-1.9,1.2-2.9l4,0.3c-3.5-1.1-7.1-2.2-10.7-3.1
		c-2.9-0.8-5.8-1.4-8.7-2.1l2.5,1.3c-0.4,1-0.6,2.1-0.5,3.2l-53.8,4.2c-0.1-0.5-0.4-1-0.7-1.5l12.7-13.5c-0.4,0-0.8-0.1-1.2-0.1
		l-12.1,13c-0.1,0-0.1-0.1-0.1-0.1c-0.2-0.2-0.5-0.2-0.7-0.3l4.3-13c-0.4,0-0.8,0-1.2,0L298.4,13c-0.8-0.1-1.5,0-2.2,0.3L287.7,0
		c-0.5,0-0.9,0-1.4,0l8.6,13.8c-0.2,0.2-0.5,0.4-0.6,0.7c-0.2,0.3-0.4,0.7-0.5,1.1l-42.6-7.4l4.4-5.9c-0.5,0.1-1.1,0.1-1.6,0.2
		L249.9,8l-13.5-2.4c-1,0.2-2,0.4-3,0.7L249.2,9l-12.5,16.7L220.8,9.2c-0.4,0.1-0.9,0.2-1.3,0.3l16.5,17l-13.2,17.8
		c-0.7-0.5-1.6-0.7-2.4-0.6l-10.9-31.2c-0.4,0.1-0.7,0.2-1.1,0.4l10.8,31c-0.3,0.1-0.6,0.2-0.9,0.4c-1,0.6-1.6,1.6-1.8,2.7
		l-60.4,0.8c-0.1-0.4-0.2-0.8-0.5-1.2c-0.3-0.5-0.7-0.8-1.1-1.1l10.1-14.4c-0.8,0.4-1.5,0.8-2.3,1.3L153.4,45c-0.1,0-0.2,0-0.3,0
		l1.1-8.2c-0.4,0.2-0.7,0.4-1,0.6l-1,7.4c-0.6,0-1.2,0.1-1.7,0.3l-2.5-4.5c-0.3,0.2-0.7,0.4-1,0.6l2.6,4.6c-0.6,0.5-1,1.1-1.2,1.8
		l-9.9-0.8c-0.5,0.3-1,0.7-1.5,1l11.3,0.9c0,0.8,0.1,1.6,0.6,2.3c0.5,0.8,1.2,1.3,2,1.5l-4,50c-0.8,0.1-1.6,0.3-2.3,0.7
		c-2.4,1.6-3.1,4.8-1.6,7.3c1.6,2.4,4.8,3.1,7.3,1.6c0.9-0.6,1.5-1.4,1.9-2.3l75.1,12.4c0.1,0.5,0.3,1,0.5,1.4
		c0.5,0.8,1.2,1.2,2,1.5l-12.9,18c-0.9-0.4-1.9-0.5-2.9-0.3c-2.8,0.6-4.6,3.4-4,6.2s3.4,4.6,6.2,4c0.9-0.2,1.6-0.6,2.2-1.1l4.5,3.8
		v-1.5l-3.7-3.1c0.7-1,1.1-2.1,1-3.4l2.7-0.3v-1.1l-2.9,0.3c-0.1-0.4-0.3-0.7-0.5-1l43.2-27.2c0.6,1.4,2.1,2.3,3.7,1.9
		c1.1-0.2,1.9-1,2.3-2l36.7,18.9c-0.1,0.3-0.3,0.6-0.3,1l-0.9,0.1h9.6l-0.6-0.1c0-0.2,0-0.3,0-0.5c-0.5-2.2-2.6-3.6-4.8-3.1
		c-0.2,0-0.3,0.1-0.5,0.2L268.1,81c0.4-0.8,0.6-1.8,0.4-2.7c-0.5-2.2-2.6-3.6-4.8-3.1c-2.2,0.5-3.6,2.6-3.1,4.8
		c0.1,0.5,0.3,1,0.6,1.4l-27,37.6c-0.5-0.6-1.2-1-1.9-1.2l-10-66.2c0.2-0.1,0.3-0.1,0.5-0.2c1.9-1.2,2.4-3.7,1.2-5.6
		c-0.1-0.2-0.3-0.2-0.4-0.4l13.2-17.9L264.2,56l-0.1,0.1c-1.3,1.8-0.9,4.4,0.9,5.7s4.4,0.9,5.7-0.9c0.2-0.2,0.2-0.5,0.4-0.8l62.6,17
		c0.1,1.2,0.6,2.3,1.6,3.1c0.7,0.5,1.5,0.7,2.4,0.7l8.7,57.5h1.1l-8.7-57.8c0.6-0.2,1.1-0.4,1.6-0.8l70.7,43.2
		c-0.2,0.7-0.2,1.4,0,2.1l-54.2,18.6c0,0.3,0.1,0.5,0.1,0.8v1.4l23.9,3.4c0,0.4-0.1,0.7,0,1.1c0.2,0.8,0.6,1.4,1.1,1.9L359.1,178
		h1.6l22.2-25c0.3,0.1,0.6,0.2,0.9,0.3l-4.1,24.7h1l4.1-24.5c0.3,0,0.7,0.1,1,0c0.1,0,0.2-0.1,0.3-0.1l7.3,24.7h1.2l-7.5-25.2
		c0.6-0.4,1.1-0.9,1.4-1.6l56.6,24.2c-0.5,0.8-0.7,1.7-0.6,2.6h8.1c0.1-0.4,0.1-0.8,0-1.2c-0.5-2.2-2.6-3.6-4.8-3.1
		c-0.1,0-0.2,0.1-0.3,0.2l-18.6-22c0.6-0.4,1.2-0.9,1.6-1.6c0-0.1,0.1-0.2,0.1-0.3l29.8,7.9c-0.3,1.4,0.4,2.9,1.8,3.6
		c0.3,0.2,0.7,0.2,1,0.3l4,16.4h1l-4-16.4c1-0.2,2-0.8,2.5-1.8c0.7-1.4,0.2-3.1-1-4l36.6-35.6c0.3,0.2,0.5,0.5,0.8,0.7l-19.8,57.2
		h1.2l19.7-56.8c1.2,0.3,2.4,0.2,3.5-0.2l22.6,44.5c-0.7,0.4-1.4,1-1.8,1.8c-0.6,1.2-0.4,2.6,0.2,3.7l-11.1,7h2.2l9.7-6.1
		c0.3,0.3,0.6,0.6,1.1,0.8s1,0.3,1.5,0.4l-0.3,4.9h1.2l0.3-5.1c0.1,0,0.2-0.1,0.2-0.1l2.3,5.2h1l-2.5-5.6c0.5-0.3,1-0.7,1.3-1.2
		l12.1,6.7h0.3C547.3,177.5,547.1,177,546.9,176.5z M417.1,57.9l57.2,23.4c-0.1,0.8,0.1,1.7,0.5,2.4L418,121.5
		c-0.2-0.3-0.4-0.6-0.7-0.8c-0.6-0.5-1.4-0.6-2.1-0.7l-0.4-60.9C415.7,59,416.5,58.5,417.1,57.9z M147.9,102.5l4-49.7
		c0.8,0.1,1.7-0.1,2.5-0.6c1.2-0.7,1.7-2,1.8-3.2l60.3-0.8c0.1,0.6,0.2,1.2,0.6,1.8L151,104.2C150.2,103.4,149,102.8,147.9,102.5z
		 M151.9,105.2l66.2-54.3c0.1,0.3,0.4,0.4,0.8,0.5l-12.6,39.3c-1-0.4-2.1-0.4-3,0.2c-1.3,0.9-1.8,2.5-1.2,4l-49.8,11.3
		C152.2,105.8,152.1,105.5,151.9,105.2z M227.1,121.2l-74.7-12.4c0.1-0.6,0.1-1.1,0-1.7l50-11.3c1,1.3,2.8,1.6,4.3,0.8L228,119
		C227.5,119.5,227.1,120.4,227.1,121.2z M265.4,83c0.8-0.2,1.4-0.6,2-1.1l39.4,53.5c-0.4,0.3-0.7,0.6-0.9,1l-36.9-19
		c0-0.3,0.1-0.7,0-1c-0.3-1.5-1.6-2.5-3.1-2.6L265.1,83C265.2,83,265.3,83,265.4,83z M233.3,124.9c1.6-1.1,2.2-3.1,1.5-4.9L262,82
		c0.6,0.5,1.4,0.8,2.2,0.9l0.8,30.8c-1.6,0.4-2.6,1.9-2.5,3.6l-43.4,27.4c-0.3-0.5-0.7-0.9-1.2-1.2l13-18.1
		C231.7,125.5,232.5,125.4,233.3,124.9z M231.1,117.5c-0.8,0-1.5,0.1-2.2,0.6c-0.1,0.1-0.1,0.1-0.2,0.2l-21.3-22.4
		c1-1.1,1.2-2.7,0.4-4c-0.2-0.3-0.5-0.5-0.7-0.7l12.7-39.5c0.4,0.1,0.8,0.2,1.3,0.1L231.1,117.5z M411.8,58.5
		c0.6,0.4,1.2,0.6,1.8,0.6l0.4,61c-0.3,0.1-0.6,0.2-0.9,0.3L391,86c0.2-0.2,0.4-0.3,0.6-0.5c0.9-1.3,0.8-2.9-0.2-4L411.8,58.5z
		 M411.1,57.9l-20.4,22.9c-1.5-1-3.5-0.6-4.5,0.8c-0.2,0.3-0.4,0.7-0.5,1.1L342,77l68.8-19.3C410.9,57.7,411,57.8,411.1,57.9z
		 M269.2,54.9c-1.4-0.7-3-0.6-4.2,0.3l-27.6-28.6l13-17.4l43.2,7.5c0,1.1,0.4,2.1,1.1,3L269.2,54.9z M334.3,74.5
		c-0.3,0.4-0.5,0.9-0.6,1.4l-62.3-17c0.1-1.2-0.3-2.5-1.2-3.4l25.4-35.1c1.2,0.7,2.5,0.7,3.7,0.2L334.7,74
		C334.6,74.2,334.4,74.2,334.3,74.5z M335.6,73.4L300.2,20c0.2-0.2,0.5-0.4,0.7-0.6c0.5-0.7,0.7-1.5,0.7-2.2l53.9-4.3
		c0.4,1.5,1.2,2.8,2.6,3.8c0.4,0.2,0.9,0.4,1.3,0.6L338.8,73C337.7,72.7,336.6,72.9,335.6,73.4z M340,73.5c-0.1,0-0.1,0-0.2-0.1
		l20.7-55.8c2.1,0.5,4.3,0,6-1.4l43.9,37.4c-0.4,0.9-0.4,2-0.1,2.9l-68.8,19.3C341.3,74.9,340.8,74,340,73.5z M341,79
		c0.2-0.4,0.3-0.7,0.4-1.1l44.1,5.7c0,1,0.4,2,1.3,2.6c1,0.7,2.2,0.8,3.3,0.3l22.1,34.5c-0.3,0.2-0.5,0.4-0.7,0.7
		c0,0.1,0,0.2-0.1,0.3L341,79z M464.4,155.3c-1.5-0.6-3.3,0.1-4,1.6l-29.8-7.9c0.1-0.8,0-1.6-0.4-2.4l70.1-28.5
		c0.1,0.5,0.4,1,0.8,1.4L464.4,155.3z"/>
	<path class="st0" d="M502.1,371.2c-1.4-1.8-4-2-5.7-0.6c-1.4,1.1-1.8,3-1.2,4.6L462.5,393v1.3l33.2-18c0,0,0,0.1,0.1,0.1
		c0.3,0.3,0.6,0.6,1,0.8l-33.4,70.4c-1-0.3-2.1-0.2-3.1,0.3l-18.5-23.2h-1.4l19,23.8c-0.9,0.9-1.3,2.2-1.1,3.5l-61,19.8
		c-0.1-0.1-0.1-0.3-0.3-0.4c-0.3-0.4-0.7-0.7-1.2-1l27.1-45.7h-1.4L394.6,470c-1.2-0.3-2.4-0.1-3.4,0.7c-0.7,0.6-1.1,1.3-1.3,2.1
		l-61.5-7.8c-0.1-0.6-0.4-1.2-0.8-1.7c-0.6-0.7-1.4-1.2-2.3-1.4l6-10.1c1.4,0.6,3.1,0.4,4.3-0.7c1.7-1.5,1.8-4.1,0.3-5.8
		c-0.5-0.6-1.2-0.9-2-1.1l2.6-20h-1.1l-2.5,19.8c-0.9,0-1.9,0.3-2.6,1c-0.3,0.3-0.6,0.7-0.8,1.1l-41.2-16c0.2-1,0-2.1-0.6-3.1
		l3.1-2.7H289l-2,1.8c-1-0.8-2.2-1.1-3.4-0.8l-0.4-1H282l0.5,1.4c-0.3,0.1-0.6,0.3-0.8,0.5c-1.1,1-1.5,2.5-1.2,3.8l-46.9,16.6
		c-0.1-0.3-0.3-0.5-0.5-0.8c-0.3-0.3-0.6-0.5-0.9-0.7l8.6-20.8h-1.4l-8.4,20.3c-1-0.2-2.1-0.1-3.1,0.4l-18.5-20.7h-1.6l19.1,21.5
		c-0.9,1-1.2,2.3-0.9,3.5l-59.9,23c-0.1-0.1-0.2-0.3-0.3-0.4c-0.4-0.4-0.8-0.7-1.2-0.9l24.5-46.7h-1.3l-24.4,46.4
		c-1.2-0.2-2.4,0.1-3.4,0.9c-0.7,0.6-1,1.3-1.2,2.1l-33.9-2.3l35.5-47.1h-1.5l-35.4,47h-0.7c-0.1,0-0.1-0.1-0.2-0.1l4.7-46.8h-1
		l-4.7,46.5c-0.4-0.1-0.8-0.1-1.2-0.1l-29-81.8c0.8-0.3,1.5-0.8,2-1.4l27.2,27v-1.3L94,386.9c0.4-0.5,0.8-1.1,1-1.7l25.6,8.4v-1.2
		L95.5,384c0.2-0.8,0.2-1.7,0.1-2.6c0-0.2-0.2-0.3-0.2-0.5l25.4-8.3v-1L95,380c-0.4-1-1-1.9-1.9-2.6l7.5-9.3h-1.5l-7,8.6
		c-1.3-0.7-2.9-1.1-4.5-0.8c-0.5,0.1-0.9,0.3-1.4,0.5l-4.1-8.4h-1.3l4.4,8.9c-1.8,1.4-3,3.3-3.1,5.5l-39.3,4.2
		c0.2,0.4,0.4,0.7,0.5,1.1l38.8-4.1c0,0.1,0,0.2,0,0.4c0.2,1.1,0.7,2.1,1.3,2.9l-23.5,21.5c-0.7-0.6-1.7-0.9-2.7-0.7
		c-0.8,0.2-1.5,0.6-2,1.2l-1.6-0.9c0.3,0.5,0.6,1.1,0.9,1.6l0.3,0.2c0,0.1,0,0.1-0.1,0.2c0.8,1.4,1.7,2.7,2.5,4.1
		c0.3,0,0.5,0.1,0.8,0.1l0.3,1.7c0.5,0.8,0.9,1.6,1.4,2.4l-0.9-4.3c1.5-0.5,2.5-2.1,2.2-3.7c-0.1-0.5-0.3-0.9-0.5-1.3L84,387.5
		c0.5,0.5,1,0.9,1.7,1.2l-14.1,46.8c0.3,0.4,0.6,0.8,0.9,1.2l14.3-47.5c1,0.3,2.1,0.4,3.1,0.2c0.1,0,0.1,0,0.2,0l29.3,81.6l-7.8-0.5
		l-15.3-6.2c0.7,0.7,1.4,1.4,2.1,2.1l9.4,3.8l-6-0.4c0.4,0.4,0.8,0.8,1.3,1.3l8.2,0.6l5.7,2.3c-0.1,0.5-0.1,1,0,1.6
		c0.1,0.5,0.3,1,0.6,1.4l-4.7,3c0.3,0.3,0.6,0.5,0.9,0.8l4.6-3c0.9,0.8,2.1,1.2,3.4,1c2.2-0.4,3.7-2.5,3.3-4.8
		c-0.1-0.6-0.4-1-0.7-1.5l34.5,2.4c0.1,0.6,0.2,1.2,0.5,1.7L137.7,499c0.3,0.2,0.7,0.4,1,0.7l21.3-22.1c0.3,0.3,0.6,0.5,1,0.7
		l-10.5,29c0.3,0.2,0.6,0.3,0.8,0.5l10.4-28.8l2,35.8c0.4,0.2,0.8,0.4,1.2,0.6l-2.1-36.6c0.9,0,1.9-0.3,2.6-1
		c0.1-0.1,0.1-0.1,0.1-0.2l50,32.3c-0.9,1.9-0.9,4.2,0.1,6.1l-18.2,13.7c0.4,0.2,0.9,0.3,1.3,0.5l17.5-13.2c0.1,0.1,0.1,0.2,0.2,0.3
		c0.7,0.8,1.6,1.4,2.6,1.8l-4.8,16.2c0.3,0.1,0.6,0.2,0.9,0.3l4.8-16.2c0.7,0.2,1.4,0.2,2.1,0.2l4.9,19.2c0.4,0.1,0.9,0.2,1.3,0.3
		l-5-19.7c1-0.3,2-0.7,2.8-1.5l0.1-0.1l32.5,26.7c0.7,0.1,1.5,0.2,2.2,0.3l-33.9-27.9c0.5-0.7,0.8-1.4,1-2.2l42.7,10.5
		c-0.1,0.9,0.2,1.8,0.8,2.5c0.9,1,2.2,1.3,3.4,0.9l8.4,17.7c0.4,0,0.7,0,1.1,0l-8.6-18.2c0.1-0.1,0.3-0.1,0.4-0.2
		c1.3-1.2,1.4-3.1,0.4-4.5l26.5-26.9c0.5,0.4,1.1,0.7,1.7,0.9l-5.2,48.9c0.4,0,0.8,0,1.2,0l5.2-48.8c0.9,0,1.8-0.3,2.5-1
		c1.7-1.5,1.8-4.1,0.3-5.8c-0.1-0.2-0.3-0.3-0.5-0.4l13.1-21.8c0.4,0.4,0.9,0.8,1.4,1l3.7,62c-0.5,0.1-0.9,0.4-1.4,0.7
		c-1.8,1.4-2,4-0.6,5.7c0.9,1.1,2.3,1.6,3.6,1.4l1.4,4.4c0.4-0.1,0.8-0.1,1.2-0.2l-1.5-4.5c0.3-0.1,0.7-0.3,1-0.5
		c0.6-0.5,1-1.2,1.2-1.9l15,4.1c0.8-0.2,1.7-0.4,2.5-0.5l-17.2-4.7c0-0.3-0.1-0.6-0.1-0.9l39.2-12.1c0.1,0.2,0.2,0.5,0.3,0.7
		c1,1.2,2.6,1.5,3.9,0.9l4.8,7.5c0.3-0.1,0.6-0.2,0.9-0.3l-5-7.7c1.3-1.2,1.5-3.2,0.4-4.5c-0.3-0.3-0.6-0.5-0.9-0.7l17.2-40.6
		l0.2,49.1c0.4-0.2,0.8-0.3,1.2-0.5l-0.2-48.8c0.9,0,1.9-0.2,2.6-0.8c0.1,0,0.1-0.1,0.1-0.2l39.3,28.4c0.4-0.2,0.7-0.4,1.1-0.7
		L397,475.7c0.6-0.9,0.7-2.1,0.5-3.1l60.9-19.8c0.1,0.3,0.2,0.6,0.4,0.8c0.5,0.6,1.2,1,2,1.3l-7.4,38.1c0.5-0.3,0.9-0.7,1.4-1
		l7.1-36.8c0.5,0,1.1-0.1,1.6-0.3l12.1,19.8c0.2-0.2,0.5-0.4,0.7-0.6l-12-19.6c0.1,0,0.1-0.1,0.2-0.1c0.2-0.2,0.3-0.4,0.5-0.6
		l19.2,12.8c0.3-0.3,0.6-0.6,0.8-0.8l-19.4-12.9c0.3-0.7,0.4-1.5,0.3-2.2l43.3-12.8c0.4-0.5,0.8-1,1.2-1.6l-44.8,13.3
		c-0.1-0.3-0.3-0.5-0.5-0.8c-0.3-0.3-0.6-0.6-0.9-0.8l33.4-70.4c0.6,0.2,1.2,0.2,1.8,0.2l15.8,52.1c0.3-0.4,0.6-0.8,0.8-1.3
		l-15.5-51.1c0.3-0.1,0.6-0.3,0.8-0.5c0.7-0.5,1-1.2,1.3-2l39.4,6.5c0.2-0.4,0.3-0.7,0.5-1.1l-39.6-6.5
		C502.9,373,502.7,372.1,502.1,371.2z M117.4,472.8l-2.4-1l3,0.2C117.8,472.2,117.5,472.5,117.4,472.8z M232.6,451.5
		c0.2-0.2,0.3-0.4,0.5-0.6l68.9,40.9c0,0.1,0,0.3-0.1,0.4l-48.1-12.9c0.1-0.9-0.1-1.8-0.8-2.6c-1-1.1-2.6-1.4-3.9-0.7l-16.7-24.4
		C232.5,451.6,232.5,451.5,232.6,451.5z M221.4,506c-1.5,0.1-3,0.6-4.3,1.7c-0.4,0.3-0.6,0.8-0.9,1.2l-49.9-32.3
		c0.5-1,0.6-2.1,0.3-3.2l59.8-23c0.1,0.3,0.3,0.6,0.5,0.8c0.6,0.6,1.3,1,2,1.2L221.4,506z M225.5,507.2c-0.9-0.5-1.9-1-2.9-1.2
		l7.5-53.5c0.5,0,1.1-0.2,1.6-0.4l16.7,24.4c-1.3,1.2-1.4,3.2-0.3,4.6L225.5,507.2z M226.6,508.1c0-0.1-0.2-0.2-0.4-0.3l22.6-26.1
		c1.2,0.8,2.8,0.7,4-0.3c0.4-0.3,0.6-0.7,0.8-1.2l48.2,12.9c0,0.2-0.1,0.4-0.1,0.5l-73.8,16.7C227.6,509.5,227.2,508.8,226.6,508.1z
		 M276,522.6c-1.2-0.9-2.9-0.9-4.1,0.1c-0.4,0.4-0.7,0.8-0.8,1.2l-42.8-10.5c0-0.6,0-1.2-0.1-1.9l73.8-16.7c0.1,0.3,0.3,0.6,0.5,0.8
		L276,522.6z M303,490.2c-0.1,0.2-0.2,0.4-0.4,0.6l-68.9-41c0.3-0.7,0.3-1.5,0.2-2.2l46.9-16.6c0.2,0.3,0.3,0.6,0.5,0.8
		c1,1.1,2.4,1.5,3.7,1.2l18.9,56.7C303.6,490,303.3,490,303,490.2z M321.9,462.5c-1.5,1.2-1.8,3.1-1.2,4.7l-13.4,22.3
		c-0.7-0.3-1.5-0.4-2.2-0.2l-18.9-56.6c0.3-0.2,0.6-0.3,0.9-0.5c0.3-0.3,0.6-0.7,0.8-1.1l41.2,16c-0.3,1.2-0.1,2.6,0.9,3.6
		c0.1,0.2,0.3,0.2,0.5,0.4l-6.4,10.6C323.3,461.8,322.6,462,321.9,462.5z M329.7,532c-0.6-0.3-1.3-0.5-2.1-0.5l-3.6-61.6
		c1,0.1,2.1-0.1,3-0.8c0.9-0.7,1.4-1.8,1.5-2.9l61.4,7.5c0,0.6,0.1,1.2,0.4,1.7L329.7,532z M374.6,518c-1-0.3-2-0.1-2.9,0.6
		c-1,0.8-1.3,2-1.2,3.1l-39.2,12.1c-0.1-0.3-0.2-0.6-0.5-0.9c-0.1-0.2-0.1-0.2-0.2-0.3l60.3-56.3c0.3,0.3,0.6,0.5,1,0.7L374.6,518z"
		/>
	<path class="st0" d="M402.7,436.2l-16.2-12.1h-1.9v0.1l17.6,13.2c-0.2,0.6-0.3,1.3-0.1,2c0.5,2.2,2.6,3.6,4.8,3.1
		c2.2-0.5,3.6-2.6,3.1-4.8c-0.1-0.5-0.3-1-0.6-1.4l8.8-12.2h-1.4l-8.2,11.3c-0.8-0.6-1.8-1-2.8-0.9l-2.2-10.4h-1.2l2.3,10.6
		C403.9,435,403.2,435.5,402.7,436.2z"/>
	<path class="st0" d="M53.4,175.6l-0.8,2.6h1.2l0.7-2.3c0.5,0.1,0.9,0.3,1.4,0.3c1.6,0,3.1-0.5,4.3-1.5l4,3.5H66l-4.9-4.3
		c0.7-0.8,1.2-1.8,1.5-2.8l34.1,5.2c0,0.7,0.2,1.4,0.7,2h5.3c0.4-0.5,0.7-1.2,0.7-1.9c0-1-0.4-1.9-1.1-2.5l28.2-41.1
		c0.1,0.1,0.2,0.2,0.3,0.2l-15.4,45h1.2l15.2-44.8c0.2,0,0.4,0.1,0.7,0.1c0.4,0,0.7-0.1,1-0.2l18.2,44.9h1.3l-18.4-45.3
		c0.7-0.4,1.2-1,1.6-1.6l42.5,14.3c0,0.2-0.1,0.4-0.1,0.6c0,1.4,0.7,2.5,1.7,3.3l-15.4,28.8h1.3l15.1-28.2c0.4,0.1,0.8,0.3,1.3,0.3
		c1,0,1.9-0.4,2.6-1l31.9,28.9h1.7L186,148.4c0.4-0.6,0.7-1.3,0.7-2.1c0-2.3-1.7-4.1-4-4.2c-1.6,0-3,0.9-3.7,2.3L136.6,130
		c0-0.2,0.1-0.4,0.1-0.6c0-2.3-1.7-4.1-4-4.2c-1,0-1.9,0.4-2.6,0.9L90.8,88.9l0.4-0.3c0.9,0.8,2.1,1.2,3.4,1
		c2.2-0.4,3.7-2.5,3.3-4.8c-0.1-0.6-0.4-1.2-0.8-1.6l6.1-8.1c-2,1.9-3.9,3.8-5.8,5.7l-1.2,1.6c-0.1-0.1-0.2-0.1-0.3-0.1
		c-2.7,2.7-5.2,5.5-7.8,8.3l1.5-1l39.5,37.5c-0.4,0.5-0.6,1.1-0.7,1.7l-37.6-3.3c-0.1-1.7-1.5-3.1-3.2-3.1c-0.2,0-0.3,0.1-0.5,0.1
		L80.7,99c-0.2,0.3-0.5,0.6-0.7,0.9l6.2,22.8c-1.1,0.5-2,1.6-2,3c0,1,0.4,1.8,1,2.4l-25.7,35.7c-0.7-0.5-1.4-0.8-2.2-1l7.6-42.7
		c-0.5,0.8-1.1,1.6-1.6,2.4l-6.9,40.1c-0.1,0-0.1,0-0.2,0c-1.1,0-2.1,0.2-3.1,0.7L47,150.9c-0.2,0.4-0.4,0.9-0.6,1.3l5.7,11.6
		c-0.6,0.4-1,0.9-1.4,1.5l-8-5.2c-0.1,0.3-0.3,0.6-0.4,0.9l7.9,5.1c-0.5,0.9-0.8,2-0.8,3.1c0,0.1,0,0.2,0,0.4l-11,0.7
		c-0.2,0.4-0.3,0.8-0.5,1.2l11.6-0.7C50,172.9,51.4,174.7,53.4,175.6z M129.4,131.7c0.1,0.1,0.3,0.2,0.4,0.3l-28.3,41.2
		c-0.4-0.2-0.9-0.4-1.4-0.4c-1.5,0-2.8,1-3.2,2.4L62.8,170c0-0.2,0.1-0.4,0.1-0.6c0-0.9-0.2-1.8-0.5-2.5L129.4,131.7z M86.2,128.5
		c0.4,0.2,0.9,0.4,1.4,0.4c1.6,0,2.9-1.1,3.2-2.6l37.7,3.3c0.2,0.3,0.2,0.6,0.3,0.9l-67,35.2c-0.4-0.6-0.8-1.1-1.3-1.5L86.2,128.5z"
		/>
</g>
</svg>
