<?xml version="1.0" encoding="utf-8"?>
<!-- Generator: Adobe Illustrator 26.3.1, SVG Export Plug-In . SVG Version: 6.00 Build 0)  -->
<svg version="1.1" id="Layer_1" xmlns="http://www.w3.org/2000/svg" xmlns:xlink="http://www.w3.org/1999/xlink" x="0px" y="0px"
	 viewBox="0 0 586.5 546.2" style="enable-background:new 0 0 586.5 546.2;" xml:space="preserve">
<style type="text/css">
	.st0{fill:#231F20;}
</style>
<path class="st0" d="M439.7,410h14l-11.2-16.6l10.5-13.9h-13.7l-7,10.9v-22.5h-11.4V410h11.4v-6.9l2.2-3L439.7,410z M389.9,410h11.4
	v-18.6c1.3-1.5,4.4-2.1,6.8-2.1c1.1,0,2,0.1,2.6,0.3v-10.9c-3.5,0-7.5,2-9.3,4.2v-3.5H390V410H389.9z M362.2,400.7
	c-3.5,0-5.4-2.6-5.4-6c0-3.3,2-5.9,5.4-5.9c3.5,0,5.5,2.6,5.5,5.9C367.7,398.1,365.7,400.7,362.2,400.7 M362.2,410.8
	c10.9,0,17.2-7.5,17.2-16s-6.3-16-17.2-16c-10.8,0-17.1,7.5-17.1,16S351.4,410.8,362.2,410.8 M318,410h12.8v-16.7l15.7-25.4h-14.3
	l-7.7,14.2l-7.8-14.2h-14.3l15.8,25.4V410H318z M254.1,410h12.4l8.8-30.5h-11.7l-4,16.8l-5.3-16.8h-10.2l-5.4,16.8l-4-16.8H223
	l8.8,30.5h12.4l4.9-17.1L254.1,410z M200.8,387.4c3.7,0,4.7,2.3,5.1,3.7h-10C196.2,389.7,197.4,387.4,200.8,387.4 M184.2,394.7
	c0,10,7.5,16,17,16c4.5,0,10-1.2,13-3.8l-4.7-7c-1.5,1.2-4.3,2.1-6.9,2.1c-3.9,0-6.1-1.9-6.7-3.9h20.7v-2.3
	c0-10.7-6.9-17.2-15.9-17.2C191,378.7,184.2,385.9,184.2,394.7 M161.2,410h12.3v-42.1h-12.8v21.2L146,367.9h-13.1V410h12.8v-22.6
	L161.2,410z"/>
<path class="st0" d="M119.6,472.1c-0.2,0.2-0.5,0.5-0.6,0.8l-2.4-1L119.6,472.1z M167.9,476.6c0.5-1,0.6-2.1,0.3-3.2l59.8-23
	c0.1,0.3,0.3,0.6,0.5,0.8c0.6,0.6,1.3,1,2,1.2L223,506c-1.5,0.1-3,0.6-4.3,1.7c-0.4,0.3-0.6,0.8-0.9,1.2L167.9,476.6z M224.2,506
	l7.5-53.5c0.5,0,1.1-0.2,1.6-0.4l16.7,24.4c-1.3,1.2-1.4,3.2-0.3,4.6l-22.6,26.1C226.2,506.7,225.2,506.2,224.2,506 M227.8,507.9
	l22.6-26.1c1.2,0.8,2.8,0.7,4-0.3c0.4-0.3,0.6-0.7,0.8-1.2l48.2,12.9c0,0.2-0.1,0.4-0.1,0.5l-73.8,16.7c-0.3-0.8-0.7-1.6-1.3-2.2
	C228.2,508.1,228,508,227.8,507.9 M229.8,511.6l73.8-16.7c0.1,0.3,0.3,0.6,0.5,0.8l-26.5,27c-1.2-0.9-2.9-0.9-4.1,0.1
	c-0.4,0.4-0.7,0.8-0.8,1.2l-42.8-10.5C229.9,512.9,229.9,512.3,229.8,511.6 M304.2,490.9l-68.9-41c0.3-0.7,0.3-1.5,0.2-2.2
	l46.9-16.6c0.2,0.3,0.3,0.6,0.5,0.8c1,1.1,2.4,1.5,3.7,1.2l18.9,56.7c-0.3,0.2-0.6,0.3-0.9,0.5C304.5,490.5,304.4,490.7,304.2,490.9
	 M287.8,432.8c0.3-0.2,0.6-0.3,0.9-0.5c0.3-0.3,0.6-0.7,0.8-1.1l41.2,16c-0.3,1.2-0.1,2.6,0.9,3.6c0.1,0.2,0.3,0.2,0.5,0.4
	l-6.4,10.6c-0.8,0.1-1.5,0.3-2.2,0.8c-1.5,1.2-1.8,3.1-1.2,4.7l-13.4,22.3c-0.7-0.3-1.5-0.4-2.2-0.2L287.8,432.8z M325.6,469.9
	c1,0.1,2.1-0.1,3-0.8c0.9-0.7,1.4-1.8,1.5-2.9l61.4,7.5c0,0.6,0.1,1.2,0.4,1.7L331.3,532c-0.6-0.3-1.3-0.5-2.1-0.5L325.6,469.9z
	 M332.2,532.6l60.3-56.3c0.3,0.3,0.6,0.5,1,0.7l-17.3,41c-1-0.3-2-0.1-2.9,0.6c-1,0.8-1.3,2-1.2,3.1l-39.2,12.1
	c-0.1-0.3-0.2-0.6-0.5-0.9C332.3,532.7,332.3,532.7,332.2,532.6 M303.6,491.9c0,0.1,0,0.3-0.1,0.4l-48.1-12.9
	c0.1-0.9-0.1-1.8-0.8-2.6c-1-1.1-2.6-1.4-3.9-0.7L234,451.7c0.1,0,0.1-0.1,0.2-0.1c0.2-0.2,0.3-0.4,0.5-0.6L303.6,491.9z
	 M83.7,382.4l-39.3,4.2c0.2,0.4,0.4,0.7,0.5,1.1l38.8-4.1c0,0.1,0,0.2,0,0.4c0.2,1.1,0.7,2.1,1.3,2.9l-23.5,21.5
	c-0.7-0.6-1.7-0.9-2.7-0.7c-0.8,0.2-1.5,0.6-2,1.2l-1.6-0.9c0.3,0.5,0.6,1.1,0.9,1.6l0.3,0.2c0,0.1,0,0.1-0.1,0.2
	c0.8,1.4,1.7,2.7,2.5,4.1c0.3,0,0.5,0.1,0.8,0.1l0.3,1.7c0.5,0.8,0.9,1.6,1.4,2.4l-0.9-4.3c1.5-0.5,2.5-2.1,2.2-3.7
	c-0.1-0.5-0.3-0.9-0.5-1.3l23.5-21.5c0.5,0.5,1,0.9,1.7,1.2l-14.1,46.8c0.3,0.4,0.6,0.8,0.9,1.2l14.3-47.5c1,0.3,2.1,0.4,3.1,0.2
	c0.1,0,0.1,0,0.2,0L121,471l-7.8-0.5l-15.3-6.2c0.7,0.7,1.4,1.4,2.1,2.1l9.4,3.8l-6-0.4c0.4,0.4,0.8,0.8,1.3,1.3l8.2,0.6l5.7,2.3
	c-0.1,0.5-0.1,1,0,1.6c0.1,0.5,0.3,1,0.6,1.4l-4.7,3c0.3,0.3,0.6,0.5,0.9,0.8l4.6-3c0.9,0.8,2.1,1.2,3.4,1c2.2-0.4,3.7-2.5,3.3-4.8
	c-0.1-0.6-0.4-1-0.7-1.5l34.5,2.4c0.1,0.6,0.2,1.2,0.5,1.7L139.3,499c0.3,0.2,0.7,0.4,1,0.7l21.3-22.1c0.3,0.3,0.6,0.5,1,0.7
	l-10.5,29c0.3,0.2,0.6,0.3,0.8,0.5l10.4-28.8l2,35.8c0.4,0.2,0.8,0.4,1.2,0.6l-2.1-36.6c0.9,0,1.9-0.3,2.6-1
	c0.1-0.1,0.1-0.1,0.1-0.2l50,32.3c-0.9,1.9-0.9,4.2,0.1,6.1L199,529.7c0.4,0.2,0.9,0.3,1.3,0.5l17.5-13.2c0.1,0.1,0.1,0.2,0.2,0.3
	c0.7,0.8,1.6,1.4,2.6,1.8l-4.8,16.2c0.3,0.1,0.6,0.2,0.9,0.3l4.8-16.2c0.7,0.2,1.4,0.2,2.1,0.2l4.9,19.2c0.4,0.1,0.9,0.2,1.3,0.3
	l-5-19.7c1-0.3,2-0.7,2.8-1.5l0.1-0.1l32.5,26.7c0.7,0.1,1.5,0.2,2.2,0.3l-33.9-27.9c0.5-0.7,0.8-1.4,1-2.2l42.7,10.5
	c-0.1,0.9,0.2,1.8,0.8,2.5c0.9,1,2.2,1.3,3.4,0.9l8.4,17.7c0.4,0,0.7,0,1.1,0l-8.6-18.2c0.1-0.1,0.3-0.1,0.4-0.2
	c1.3-1.2,1.4-3.1,0.4-4.5l26.5-26.9c0.5,0.4,1.1,0.7,1.7,0.9l-5.2,48.9c0.4,0,0.8,0,1.2,0l5.2-48.8c0.9,0,1.8-0.3,2.5-1
	c1.7-1.5,1.8-4.1,0.3-5.8c-0.1-0.2-0.3-0.3-0.5-0.4l13.1-21.8c0.4,0.4,0.9,0.8,1.4,1l3.7,62c-0.5,0.1-0.9,0.4-1.4,0.7
	c-1.8,1.4-2,4-0.6,5.7c0.9,1.1,2.3,1.6,3.6,1.4l1.4,4.4c0.4-0.1,0.8-0.1,1.2-0.2l-1.5-4.5c0.3-0.1,0.7-0.3,1-0.5
	c0.6-0.5,1-1.2,1.2-1.9l15,4.1c0.8-0.2,1.7-0.4,2.5-0.5l-17.2-4.7c0-0.3-0.1-0.6-0.1-0.9l39.2-12.1c0.1,0.2,0.2,0.5,0.3,0.7
	c1,1.2,2.6,1.5,3.9,0.9l4.8,7.5c0.3-0.1,0.6-0.2,0.9-0.3l-5-7.7c1.3-1.2,1.5-3.2,0.4-4.5c-0.3-0.3-0.6-0.5-0.9-0.7l17.2-40.6
	l0.2,49.1c0.4-0.2,0.8-0.3,1.2-0.5l-0.2-48.8c0.9,0,1.9-0.2,2.6-0.8c0.1,0,0.1-0.1,0.1-0.2l39.3,28.4c0.4-0.2,0.7-0.4,1.1-0.7
	l-39.6-28.6c0.6-0.9,0.7-2.1,0.5-3.1l60.9-19.8c0.1,0.3,0.2,0.6,0.4,0.8c0.5,0.6,1.2,1,2,1.3L455,493c0.5-0.3,0.9-0.7,1.4-1
	l7.1-36.8c0.5,0,1.1-0.1,1.6-0.3l12.1,19.8c0.2-0.2,0.5-0.4,0.7-0.6l-12-19.6c0.1,0,0.1-0.1,0.2-0.1c0.2-0.2,0.3-0.4,0.5-0.6
	l19.2,12.8c0.3-0.3,0.6-0.6,0.8-0.8l-19.4-12.9c0.3-0.7,0.4-1.5,0.3-2.2l43.3-12.8c0.4-0.5,0.8-1,1.2-1.6l-44.8,13.3
	c-0.1-0.3-0.3-0.5-0.5-0.8c-0.3-0.3-0.6-0.6-0.9-0.8l33.4-70.4c0.6,0.2,1.2,0.2,1.8,0.2l15.8,52.1c0.3-0.4,0.6-0.8,0.8-1.3
	l-15.5-51.1c0.3-0.1,0.6-0.3,0.8-0.5c0.7-0.5,1-1.2,1.3-2l39.4,6.5c0.2-0.4,0.3-0.7,0.5-1.1l-39.6-6.5c0-0.9-0.2-1.8-0.8-2.6
	c-1.4-1.8-4-2-5.7-0.6c-1.4,1.1-1.8,3-1.2,4.6L464.1,393v1.3l33.2-18c0,0,0,0.1,0.1,0.1c0.3,0.3,0.6,0.6,1,0.8L465,447.6
	c-1-0.3-2.1-0.2-3.1,0.3l-18.5-23.2H442l19,23.8c-0.9,0.9-1.3,2.2-1.1,3.5l-61,19.8c-0.1-0.1-0.1-0.3-0.3-0.4
	c-0.3-0.4-0.7-0.7-1.2-1l27.1-45.7h-1.4L396.2,470c-1.2-0.3-2.4-0.1-3.4,0.7c-0.7,0.6-1.1,1.3-1.3,2.1L330,465
	c-0.1-0.6-0.4-1.2-0.8-1.7c-0.6-0.7-1.4-1.2-2.3-1.4l6-10.1c1.4,0.6,3.1,0.4,4.3-0.7c1.7-1.5,1.8-4.1,0.3-5.8
	c-0.5-0.6-1.2-0.9-2-1.1l2.6-20H337l-2.5,19.8c-0.9,0-1.9,0.3-2.6,1c-0.3,0.3-0.6,0.7-0.8,1.1l-41.2-16c0.2-1,0-2.1-0.6-3.1l3.1-2.7
	h-1.8l-2,1.8c-1-0.8-2.2-1.1-3.4-0.8l-0.4-1h-1.2l0.5,1.4c-0.3,0.1-0.6,0.3-0.8,0.5c-1.1,1-1.5,2.5-1.2,3.8l-46.9,16.6
	c-0.1-0.3-0.3-0.5-0.5-0.8c-0.3-0.3-0.6-0.5-0.9-0.7l8.6-20.8H241l-8.4,20.3c-1-0.2-2.1-0.1-3.1,0.4L211,424.3h-1.6l19.1,21.5
	c-0.9,1-1.2,2.3-0.9,3.5l-59.9,23c-0.1-0.1-0.2-0.3-0.3-0.4c-0.4-0.4-0.8-0.7-1.2-0.9l24.5-46.7h-1.3L165,470.7
	c-1.2-0.2-2.4,0.1-3.4,0.9c-0.7,0.6-1,1.3-1.2,2.1l-33.9-2.3l35.5-47.1h-1.5l-35.4,47h-0.7c-0.1,0-0.1-0.1-0.2-0.1l4.7-46.8h-1
	l-4.7,46.5c-0.4-0.1-0.8-0.1-1.2-0.1L93,389c0.8-0.3,1.5-0.8,2-1.4l27.2,27v-1.3l-26.6-26.4c0.4-0.5,0.8-1.1,1-1.7l25.6,8.4v-1.2
	L97.1,384c0.2-0.8,0.2-1.7,0.1-2.6c0-0.2-0.2-0.3-0.2-0.5l25.4-8.3v-1L96.6,380c-0.4-1-1-1.9-1.9-2.6l7.5-9.3h-1.5l-7,8.6
	c-1.3-0.7-2.9-1.1-4.5-0.8c-0.5,0.1-0.9,0.3-1.4,0.5l-4.1-8.4h-1.3l4.4,8.9C85,378.3,83.8,380.2,83.7,382.4 M386.2,424.3l17.6,13.2
	c-0.2,0.6-0.3,1.3-0.1,2c0.5,2.2,2.6,3.6,4.8,3.1c2.2-0.5,3.6-2.6,3.1-4.8c-0.1-0.5-0.3-1-0.6-1.4l8.8-12.2h-1.4l-8.2,11.3
	c-0.8-0.6-1.8-1-2.8-0.9l-2.2-10.4H404l2.3,10.6c-0.8,0.3-1.5,0.8-2,1.5l-16.2-12.1L386.2,424.3L386.2,424.3z M131.4,132l-28.3,41.2
	c-0.4-0.2-0.9-0.4-1.4-0.4c-1.5,0-2.8,1-3.2,2.4L64.4,170c0-0.2,0.1-0.4,0.1-0.6c0-0.9-0.2-1.8-0.5-2.5l67-35.2
	C131.1,131.8,131.3,131.9,131.4,132 M130.4,130.6l-67,35.2c-0.4-0.6-0.8-1.1-1.3-1.5l25.7-35.7c0.4,0.2,0.9,0.4,1.4,0.4
	c1.6,0,2.9-1.1,3.2-2.6l37.7,3.3C130.3,130,130.3,130.3,130.4,130.6 M138.2,130c0-0.2,0.1-0.4,0.1-0.6c0-2.3-1.7-4.1-4-4.2
	c-1,0-1.9,0.4-2.6,0.9L92.4,88.9l0.4-0.3c0.9,0.8,2.1,1.2,3.4,1c2.2-0.4,3.7-2.5,3.3-4.8c-0.1-0.6-0.4-1.2-0.8-1.6l6.1-8.1
	c-2,1.9-3.9,3.8-5.8,5.7l-1.2,1.6c-0.1-0.1-0.2-0.1-0.3-0.1c-2.7,2.7-5.2,5.5-7.8,8.3l1.5-1l39.5,37.5c-0.4,0.5-0.6,1.1-0.7,1.7
	l-37.6-3.3c-0.1-1.7-1.5-3.1-3.2-3.1c-0.2,0-0.3,0.1-0.5,0.1L82.3,99c-0.2,0.3-0.5,0.6-0.7,0.9l6.2,22.8c-1.1,0.5-2,1.6-2,3
	c0,1,0.4,1.8,1,2.4l-25.7,35.7c-0.7-0.5-1.4-0.8-2.2-1l7.6-42.7c-0.5,0.8-1.1,1.6-1.6,2.4L58,162.6c-0.1,0-0.1,0-0.2,0
	c-1.1,0-2.1,0.2-3.1,0.7l-6.1-12.4c-0.2,0.4-0.4,0.9-0.6,1.3l5.7,11.6c-0.6,0.4-1,0.9-1.4,1.5l-8-5.2c-0.1,0.3-0.3,0.6-0.4,0.9
	l7.9,5.1c-0.5,0.9-0.8,2-0.8,3.1c0,0.1,0,0.2,0,0.4l-11,0.7c-0.2,0.4-0.3,0.8-0.5,1.2l11.6-0.7c0.5,2.1,1.9,3.9,3.9,4.8l-0.8,2.6
	h1.2l0.7-2.3c0.5,0.1,0.9,0.3,1.4,0.3c1.6,0,3.1-0.5,4.3-1.5l4,3.5h1.8l-4.9-4.3c0.7-0.8,1.2-1.8,1.5-2.8l34.1,5.2
	c0,0.7,0.2,1.4,0.7,2h5.3c0.4-0.5,0.7-1.2,0.7-1.9c0-1-0.4-1.9-1.1-2.5l28.2-41.1c0.1,0.1,0.2,0.2,0.3,0.2L117,178.1h1.2l15.2-44.8
	c0.2,0,0.4,0.1,0.7,0.1c0.4,0,0.7-0.1,1-0.2l18.2,44.9h1.3l-18.4-45.3c0.7-0.4,1.2-1,1.6-1.6l42.5,14.3c0,0.2-0.1,0.4-0.1,0.6
	c0,1.4,0.7,2.5,1.7,3.3l-15.4,28.8h1.3l15.1-28.2c0.4,0.1,0.8,0.3,1.3,0.3c1,0,1.9-0.4,2.6-1l31.9,28.9h1.7l-32.8-29.8
	c0.4-0.6,0.7-1.3,0.7-2.1c0-2.3-1.7-4.1-4-4.2c-1.6,0-3,0.9-3.7,2.3L138.2,130z M502.7,119.6L466,155.4c-1.5-0.6-3.3,0.1-4,1.6
	l-29.8-7.9c0.1-0.8,0-1.6-0.4-2.4l70.1-28.5C502,118.7,502.3,119.2,502.7,119.6 M356.6,144.4L354,144c-0.3-0.6-0.7-1.1-1.2-1.6
	c-1-0.7-2.1-0.8-3.2-0.6l-9.2-61.2c0.6-0.2,1.1-0.4,1.6-0.8l70.7,43.2c-0.2,0.7-0.2,1.4,0,2.1L356.6,144.4z M413,122l-70.4-43
	c0.2-0.4,0.3-0.7,0.4-1.1l44.1,5.7c0,1,0.4,2,1.3,2.6c1,0.7,2.2,0.8,3.3,0.3l22.1,34.5c-0.3,0.2-0.5,0.4-0.7,0.7
	C413.1,121.8,413.1,121.9,413,122 M392.6,86c0.2-0.2,0.4-0.3,0.6-0.5c0.9-1.3,0.8-2.9-0.2-4l20.4-22.9c0.6,0.4,1.2,0.6,1.8,0.6
	l0.4,61c-0.3,0.1-0.6,0.2-0.9,0.3L392.6,86z M412.7,57.9l-20.4,22.9c-1.5-1-3.5-0.6-4.5,0.8c-0.2,0.3-0.4,0.7-0.5,1.1L343.6,77
	l68.8-19.3C412.5,57.7,412.6,57.8,412.7,57.9 M412,53.6c-0.4,0.9-0.4,2-0.1,2.9l-68.8,19.3c-0.2-0.9-0.7-1.7-1.5-2.3
	c-0.1,0-0.1,0-0.2-0.1l20.7-55.8c2.1,0.5,4.3,0,6-1.4L412,53.6z M361,17.3L340.4,73c-1.1-0.3-2.2-0.1-3.2,0.4L301.8,20
	c0.2-0.2,0.5-0.4,0.7-0.6c0.5-0.7,0.7-1.5,0.7-2.2l53.9-4.3c0.4,1.5,1.2,2.8,2.6,3.8C360.1,16.9,360.6,17.1,361,17.3 M336.3,74.1
	c-0.1,0.1-0.3,0.2-0.4,0.4c-0.3,0.4-0.5,0.9-0.6,1.4l-62.3-17c0.1-1.2-0.3-2.5-1.2-3.4l25.4-35.1c1.2,0.7,2.5,0.7,3.7,0.2
	L336.3,74.1z M296.3,19.7l-25.5,35.2c-1.4-0.7-3-0.6-4.2,0.3L239,26.6l13-17.4l43.2,7.5C295.2,17.8,295.6,18.8,296.3,19.7
	 M238.4,27.5L265.8,56l-0.1,0.1c-1.3,1.8-0.9,4.4,0.9,5.7s4.4,0.9,5.7-0.9c0.2-0.2,0.2-0.5,0.4-0.8l62.6,17c0.1,1.2,0.6,2.3,1.6,3.1
	c0.7,0.5,1.5,0.7,2.4,0.7l9.3,61.4c-0.4,0.2-0.7,0.5-1.1,0.8l-32.7-4.8c0-0.2,0-0.3,0-0.5c-0.5-2.2-2.6-3.6-4.8-3.1
	c-0.2,0-0.3,0.1-0.5,0.2L269.7,81c0.4-0.8,0.6-1.8,0.4-2.7c-0.5-2.2-2.6-3.6-4.8-3.1c-2.2,0.5-3.6,2.6-3.1,4.8
	c0.1,0.5,0.3,1,0.6,1.4l-27,37.6c-0.5-0.6-1.2-1-1.9-1.2l-10-66.2c0.2-0.1,0.3-0.1,0.5-0.2c1.9-1.2,2.4-3.7,1.2-5.6
	c-0.1-0.2-0.3-0.2-0.4-0.4L238.4,27.5z M222.7,51.8l10,65.7c-0.8,0-1.5,0.1-2.2,0.6c-0.1,0.1-0.1,0.1-0.2,0.2L209,95.9
	c1-1.1,1.2-2.7,0.4-4c-0.2-0.3-0.5-0.5-0.7-0.7l12.7-39.5C221.8,51.8,222.2,51.9,222.7,51.8 M220.5,51.4l-12.6,39.3
	c-1-0.4-2.1-0.4-3,0.2c-1.3,0.9-1.8,2.5-1.2,4l-49.8,11.3c-0.1-0.3-0.2-0.7-0.4-1l66.2-54.3C219.8,51.2,220.1,51.3,220.5,51.4
	 M218.7,50.1l-66.1,54.2c-0.8-0.9-2-1.5-3.1-1.7l4-49.7c0.8,0.1,1.7-0.1,2.5-0.6c1.2-0.7,1.7-2,1.8-3.2l60.3-0.8
	C218.2,48.9,218.3,49.5,218.7,50.1L218.7,50.1 M154,108.8c0.1-0.6,0.1-1.1,0-1.7l50-11.3c1,1.3,2.8,1.6,4.3,0.8l21.3,22.4
	c-0.5,0.6-0.9,1.4-0.9,2.2L154,108.8z M232.5,125.5c0.8,0,1.6-0.1,2.4-0.6c1.6-1.1,2.2-3.1,1.5-4.9l27.2-37.9
	c0.6,0.5,1.4,0.8,2.2,0.9l0.8,30.8c-1.6,0.4-2.6,1.9-2.5,3.6l-43.4,27.4c-0.3-0.5-0.7-0.9-1.2-1.2L232.5,125.5z M221.1,145.7
	l43.2-27.2c0.6,1.4,2.1,2.3,3.7,1.9c1.1-0.2,1.9-1,2.3-2l36.7,18.9c-0.1,0.3-0.3,0.6-0.3,1l-85.1,8.4
	C221.5,146.3,221.3,146,221.1,145.7 M307.5,136.4l-36.9-19c0-0.3,0.1-0.7,0-1c-0.3-1.5-1.6-2.5-3.1-2.6L266.7,83c0.1,0,0.2,0,0.3,0
	c0.8-0.2,1.4-0.6,2-1.1l39.4,53.5C308,135.7,307.7,136,307.5,136.4 M416.4,59.2c0.9-0.2,1.7-0.6,2.3-1.3l57.2,23.4
	c-0.1,0.8,0.1,1.7,0.5,2.4l-56.8,37.9c-0.2-0.3-0.4-0.6-0.7-0.8c-0.6-0.5-1.4-0.6-2.1-0.7L416.4,59.2z M548.5,176.6l-11.4-6.3
	c0.2-0.7,0.3-1.5,0.1-2.2l6.5-3.3c-0.2-0.4-0.3-0.7-0.5-1.1l-6.5,3.3c-0.4-0.7-0.9-1.3-1.7-1.6c-0.8-0.4-1.7-0.4-2.5-0.3l-22.7-44.7
	c0.7-0.5,1.2-1.1,1.6-1.8c1.3-2.6,0.2-5.8-2.5-7c-2.6-1.3-5.8-0.2-7,2.5c-0.5,1-0.5,2-0.4,2.9L431,145.7c-0.3-0.4-0.7-0.7-1.2-0.9
	c-2-1-4.5-0.1-5.4,1.9c-1,2-0.1,4.5,1.9,5.4c0.9,0.4,1.9,0.5,2.8,0.2l18.6,22.1c-0.1,0.1-0.2,0.1-0.3,0.2l-57.1-24.4
	c0.1-0.5,0.1-1,0-1.5c-0.5-2.2-2.6-3.6-4.8-3.1c-1.4,0.3-2.4,1.3-2.9,2.6l-23.5-3.4l54-18.5c0.3,0.4,0.6,0.8,1,1.1
	c1.8,1.3,4.4,0.9,5.7-0.9c0.8-1.2,0.9-2.6,0.4-3.9l57-38.1c0.1,0.1,0.2,0.3,0.4,0.4c1.8,1.3,4.4,0.9,5.7-0.9
	c0.1-0.2,0.2-0.3,0.2-0.5l7.7,1.6c-0.5-0.5-0.9-1-1.4-1.5l-5.9-1.2c0.1-0.4,0-0.9,0-1.4l2.6-0.7c-0.3-0.3-0.5-0.5-0.8-0.8l-2.1,0.6
	c-0.1-0.3-0.2-0.6-0.4-0.9l1-1.1c-0.3-0.3-0.5-0.6-0.8-0.8l-1,1.1c0,0,0,0-0.1-0.1c-0.5-0.4-1.1-0.6-1.7-0.7l0.2-2.9
	c-0.4-0.3-0.7-0.7-1.1-1l-0.3,3.9c-1.1,0.1-2.1,0.7-2.8,1.6c-0.2,0.3-0.3,0.6-0.4,0.9l-56.9-23.2c0.4-0.8,0.5-1.7,0.3-2.6L439,42.1
	c-0.4-0.2-0.8-0.4-1.1-0.7l-18.6,11.7c-0.2-0.3-0.5-0.6-0.8-0.9L430,36.8c-0.3-0.2-0.5-0.3-0.8-0.5l-11.5,15.4
	c-0.2-0.1-0.3-0.2-0.5-0.2l3.6-19.8c-0.4-0.2-0.7-0.4-1.1-0.6l-3.6,20.1c-0.3,0-0.6,0.1-0.8,0.1l-6.4-25.6c-0.4-0.2-0.7-0.3-1.1-0.5
	l6.6,26.2c-0.6,0.2-1.2,0.6-1.7,1.1L369,15.3c0.1-0.1,0.2-0.2,0.2-0.3c0.7-0.9,1-1.9,1.2-2.9l4,0.3c-3.5-1.1-7.1-2.2-10.7-3.1
	c-2.9-0.8-5.8-1.4-8.7-2.1l2.5,1.3c-0.4,1-0.6,2.1-0.5,3.2l-53.8,4.2c-0.1-0.5-0.4-1-0.7-1.5l12.7-13.5c-0.4,0-0.8-0.1-1.2-0.1
	l-12.1,13c-0.1,0-0.1-0.1-0.1-0.1c-0.2-0.2-0.5-0.2-0.7-0.3l4.3-13c-0.4,0-0.8,0-1.2,0L300,13.1c-0.8-0.1-1.5,0-2.2,0.3L289.3,0
	c-0.5,0-0.9,0-1.4,0l8.6,13.8c-0.2,0.2-0.5,0.4-0.6,0.7c-0.2,0.3-0.4,0.7-0.5,1.1l-42.6-7.4l4.4-5.9c-0.5,0.1-1.1,0.1-1.6,0.2
	L251.5,8L238,5.6c-1,0.2-2,0.4-3,0.7L250.8,9l-12.5,16.7L222.4,9.3c-0.4,0.1-0.9,0.2-1.3,0.3l16.5,17l-13.2,17.8
	c-0.7-0.5-1.6-0.7-2.4-0.6l-10.9-31.2c-0.4,0.1-0.7,0.2-1.1,0.4l10.8,31c-0.3,0.1-0.6,0.2-0.9,0.4c-1,0.6-1.6,1.6-1.8,2.7l-60.4,0.8
	c-0.1-0.4-0.2-0.8-0.5-1.2c-0.3-0.5-0.7-0.8-1.1-1.1l10.1-14.4c-0.8,0.4-1.5,0.8-2.3,1.3L155,45.1c-0.1,0-0.2,0-0.3,0l1.1-8.2
	c-0.4,0.2-0.7,0.4-1,0.6l-1,7.4c-0.6,0-1.2,0.1-1.7,0.3l-2.5-4.5c-0.3,0.2-0.7,0.4-1,0.6l2.6,4.6c-0.6,0.5-1,1.1-1.2,1.8l-9.9-0.8
	c-0.5,0.3-1,0.7-1.5,1l11.3,0.9c0,0.8,0.1,1.6,0.6,2.3c0.5,0.8,1.2,1.3,2,1.5l-4,50c-0.8,0.1-1.6,0.3-2.3,0.7
	c-2.4,1.6-3.1,4.8-1.6,7.3c1.6,2.4,4.8,3.1,7.3,1.6c0.9-0.6,1.5-1.4,1.9-2.3l75.1,12.4c0.1,0.5,0.3,1,0.5,1.4c0.5,0.8,1.2,1.2,2,1.5
	l-12.9,18c-0.9-0.4-1.9-0.5-2.9-0.3c-2.8,0.6-4.6,3.4-4,6.2s3.4,4.6,6.2,4c0.9-0.2,1.6-0.6,2.2-1.1l30.6,26.1h1.8l-31.6-26.9
	c0.7-1,1.1-2.1,1-3.4l85-8.4v0.1c0.1,0.6,0.4,1.2,0.8,1.7l-37.9,36.9h1.7l37.1-36.1c0.9,0.6,2,0.9,3.2,0.7c0.3-0.1,0.6-0.2,0.9-0.3
	l17.3,35.8h1.3l-17.6-36.5c0.6-0.6,1.1-1.3,1.2-2.1l32,4.7c-0.8,1.7-0.3,3.8,1.3,4.9c1.8,1.3,4.4,0.9,5.7-0.9
	c0.4-0.5,0.6-1.2,0.7-1.8l2.3-0.8l25.7,3.7c0,0.4-0.1,0.7,0,1.1c0.2,0.8,0.6,1.4,1.1,1.9l-22.9,25.7h1.6l22.2-25
	c0.3,0.1,0.6,0.2,0.9,0.3l-4.1,24.7h1l4.1-24.5c0.3,0,0.7,0.1,1,0c0.1,0,0.2-0.1,0.3-0.1l7.3,24.7h1.2l-7.5-25.2
	c0.6-0.4,1.1-0.9,1.4-1.6l56.6,24.2c-0.5,0.8-0.7,1.7-0.6,2.6h8.1c0.1-0.4,0.1-0.8,0-1.2c-0.5-2.2-2.6-3.6-4.8-3.1
	c-0.1,0-0.2,0.1-0.3,0.2l-18.6-22c0.6-0.4,1.2-0.9,1.6-1.6c0-0.1,0.1-0.2,0.1-0.3l29.8,7.9c-0.3,1.4,0.4,2.9,1.8,3.6
	c0.3,0.2,0.7,0.2,1,0.3l4,16.4h1l-4-16.4c1-0.2,2-0.8,2.5-1.8c0.7-1.4,0.2-3.1-1-4l36.6-35.6c0.3,0.2,0.5,0.5,0.8,0.7l-19.8,57.2
	h1.2l19.7-56.8c1.2,0.3,2.4,0.2,3.5-0.2l22.6,44.5c-0.7,0.4-1.4,1-1.8,1.8c-0.6,1.2-0.4,2.6,0.2,3.7l-11.1,7h2.2l9.7-6.1
	c0.3,0.3,0.6,0.6,1.1,0.8s1,0.3,1.5,0.4l-0.3,4.9h1.2l0.3-5.1c0.1,0,0.2-0.1,0.2-0.1l2.3,5.2h1l-2.5-5.6c0.5-0.3,1-0.7,1.3-1.2
	l12.1,6.7h0.3C548.9,177.6,548.7,177.1,548.5,176.6"/>
<path class="st0" d="M586.5,350.1v-41.5h-17.3l-7.3,21.1l-7.3-21.1h-17.3v41.5h12.6v-26.2l9.3,26.2h5.6l9.3-26.2v26.2H586.5z
	 M484.5,333c0,10.3,6,17.8,20,17.8s19.9-7.5,19.9-17.8v-24.4h-12.7v24c0,4-2.1,7.1-7.1,7.1c-5.2,0-7.2-3.2-7.2-7.1v-24h-12.7V333
	H484.5z M460.5,322.6c0,2.3-2,3.7-4.1,3.7h-7.6V319h7.6C458.5,319,460.5,320.4,460.5,322.6 M473.3,350.1l-7.5-14.7
	c3.3-1.6,7.5-5.4,7.5-12.6c0-7.8-5.2-14.2-14.9-14.2h-22.1v41.5h12.6v-13.3h4.5l5.7,13.3L473.3,350.1L473.3,350.1z M412.7,329.4
	c0,5.8-3.9,10.4-9.9,10.4s-9.9-4.6-9.9-10.4s3.9-10.4,9.9-10.4C408.8,319,412.7,323.6,412.7,329.4 M380.1,329.4
	c0,12.7,9.9,21.4,22.7,21.4c12.8,0,22.7-8.7,22.7-21.4c0-12.7-9.9-21.4-22.7-21.4C390,307.9,380.1,316.6,380.1,329.4 M351.9,350.1
	v-15.7h18.5V324h-18.5v-5h18.9v-10.4h-31.4v41.5H351.9z M305.5,350.1v-10.4h-18.9v-5.3H305V324h-18.5v-5h18.9v-10.4H274v41.5H305.5z
	 M244.8,350.8c11.2,0,16.7-6.6,19.1-12.1l-10.8-5c-1.1,3.2-4.3,6-8.3,6c-5.7,0-9.8-4.6-9.8-10.4s4-10.4,9.8-10.4c4,0,7.3,2.8,8.3,6
	l10.8-5c-2.5-5.7-8-12.1-19.1-12.1c-12.7,0-22.5,8.6-22.5,21.4C222.3,342.1,232.1,350.8,244.8,350.8 M211.6,350.1v-41.5H199v20.9
	l-14.4-20.9h-12.9v41.5h12.6v-22.2l15.3,22.2H211.6z M144.8,334.3h-9.4l4.7-14.6L144.8,334.3z M163.2,350.1l-15.3-41.5h-15.8
	l-15.3,41.5h13.6l1.6-5.3h16l1.6,5.3H163.2z M108.4,350.1v-41.5H95.8v20.9l-14.4-20.9H68.5v41.5H81v-22.2l15.3,22.2H108.4z
	 M55.6,308.6H43v41.5h12.6V308.6z M12.6,350.1v-15.7H31V324H12.6v-5h18.9v-10.4H0v41.5H12.6z"/>
<path class="st0" d="M546.3,263.5h40.2v-14h-24v-13h23.3v-13.9h-23.3v-12h24v-14h-40.2V263.5z M515.6,264.7c14.6,0,20.9-10,24-18.4
	l-13.4-5.6c-1.4,5.3-5.1,9.6-10.5,9.6c-7.9,0-12.6-8.5-12.6-20.3c0-11.7,4.7-20.3,12.6-20.3c5.2,0,8.8,3.8,10.5,9l13.4-5.8
	c-3.3-8.2-9.6-17.6-24-17.6c-17.9,0-29.2,14.2-29.2,34.6C486.4,250.4,497.7,264.7,515.6,264.7 M463.9,218.5c0,4.8-3,7.9-7.3,7.9H448
	v-16h8.5C460.9,210.5,463.9,213.6,463.9,218.5 M462.9,263.5h18l-11.1-25.9c4.8-2.2,10.7-7.8,10.7-19.3c0-12.3-8.3-21.8-21.4-21.8
	h-27.3v66.9H448v-23.1h6L462.9,263.5z M369.2,239.8c0,15.8,9.9,24.9,26,24.9c16,0,25.9-9.1,25.9-25v-43.2h-16.5v43.3
	c0,6.7-3.2,10.6-9.4,10.6c-6.4,0-9.6-3.9-9.6-10.6v-43.3h-16.4V239.8z M344.8,230.1c0,11.5-4.5,20.3-12.6,20.3
	c-8.2,0-12.6-8.7-12.6-20.3s4.4-20.3,12.6-20.3C340.3,209.8,344.8,218.4,344.8,230.1 M303,230.1c0,20.2,11.1,34.6,29.2,34.6
	s29.2-14.5,29.2-34.6c0-20.2-11.1-34.6-29.2-34.6C314.1,195.4,303,209.9,303,230.1 M250.2,256c5.6,5.4,13.3,8.7,24.2,8.7
	c15.2,0,24-8.6,24-21.4c0-13.5-11.4-17.8-20.1-20.9c-5.8-2.1-9.5-3.9-9.5-7.5c0-3,2.1-5.3,6.7-5.3s9.9,1.7,14.2,5.5l7.5-12
	c-5.5-4.9-13-7.6-21.6-7.6c-15.1,0-23.4,9.6-23.4,20.4c0,14.2,11.5,17.9,20.2,21c5.6,2.1,9.5,4,9.5,8c0,3.3-3,5.8-7.7,5.8
	c-6.4,0-12.3-2.9-16.3-7.1L250.2,256z M207.7,263.5h15.5v-66.9H207v36.7l-19.3-36.7h-16.6v66.9h16.2V225L207.7,263.5z M122,263.5
	h40.2v-14h-24v-13h23.3v-13.9h-23.3v-12h24v-14H122V263.5z M98.4,218.5c0,4.8-2.9,7.9-7.2,7.9h-8.6v-16h8.6
	C95.4,210.5,98.4,213.6,98.4,218.5 M66.2,263.5h16.3v-23.1h10.6c14.6,0,21.8-10,21.8-21.8s-7.2-22.1-21.8-22.1H66.2V263.5z
	 M41.9,230.1c0,11.5-4.5,20.3-12.6,20.3c-8.2,0-12.6-8.7-12.6-20.3s4.4-20.3,12.6-20.3C37.3,209.8,41.9,218.4,41.9,230.1 M0,230.1
	c0,20.2,11.1,34.6,29.2,34.6s29.2-14.5,29.2-34.6c0-20.2-11.1-34.6-29.2-34.6S0,209.9,0,230.1"/>
<path class="st0" d="M304.8,293.6V279h-4.4v7.4l-5.1-7.4h-4.6v14.6h4.4v-7.9l5.4,7.9H304.8z M286.1,279h-4.4v14.6h4.4V279z"/>
<rect x="21" y="284.8" class="st0" width="253.9" height="1.1"/>
<rect x="311.6" y="284.8" class="st0" width="253.9" height="1.1"/>
</svg>
