<?xml version="1.0" encoding="utf-8"?>
<!-- Generator: Adobe Illustrator 22.1.0, SVG Export Plug-In . SVG Version: 6.00 Build 0)  -->
<svg version="1.1" id="Layer_1" xmlns="http://www.w3.org/2000/svg" xmlns:xlink="http://www.w3.org/1999/xlink" x="0px" y="0px"
	 viewBox="0 0 792 182.8" style="enable-background:new 0 0 792 182.8;" xml:space="preserve">
<style type="text/css">
	.st0{fill:#434343;}
	.st1{fill:url(#SVGID_1_);}
	.st2{fill:url(#SVGID_2_);}
	.st3{fill:url(#SVGID_3_);}
	.st4{fill:url(#SVGID_4_);}
	.st5{fill:url(#SVGID_5_);}
	.st6{fill:url(#SVGID_6_);}
	.st7{fill:url(#SVGID_7_);}
	.st8{fill:url(#SVGID_8_);}
</style>
<g>
	<path class="st0" d="M239.8,102.4c0,14-11.7,19.5-25.6,19.5c-15,0-24.9-6.1-31.5-11.7l6.5-7.7c4.7,4,12.9,10,25.1,10
		c7.9,0,14.2-2.9,14.2-8.8c0-6.4-6.2-7.8-15.6-8.5c-12.6-0.9-27.2-2.1-27.2-16.3c0-13.8,12.7-17.9,23.4-17.9c12,0,22,4.6,26.7,8
		l-6.6,7.8c-3.3-2.7-10.5-6.4-20.5-6.4c-6.3,0-11.9,2.2-11.9,7.6c0,5.7,8,6,16.1,6.6C223.6,85.4,239.8,86.5,239.8,102.4z
		 M348.6,95.3h-0.2L329,62.7h-11.1v57.4h10.8V83.9h0.4l17.6,29.5h2.5l17.6-29.5h0.4v36.2h11.3V62.7h-10.7L348.6,95.3z M502.8,85.4
		h-29.1V62.7h-11.3v57.4h11.3v-25h29.1v25H514V62.7h-11.3V85.4z M560.5,61c-17.5,0-31.2,13.6-31.2,30.3c0,17,13.7,30.5,31.2,30.5
		S592,108.3,592,91.3C592,74.5,578,61,560.5,61z M560.5,112c-10.9,0-19.4-9.4-19.4-20.7c0-11.2,8.5-20.4,19.4-20.4
		c11,0,19.7,9.2,19.7,20.4C580.2,102.6,571.5,112,560.5,112z M648.4,100.4L648.4,100.4l-31.3-37.7h-9.8v57.4h11.3V82.4h0.1
		l31.2,37.7h9.8V62.7h-11.3V100.4z M718.2,62.7L702,90h-0.3l-16.2-27.3h-13.7l24,38.3v19.1h11.3V101l24-38.3H718.2z M277.7,90h-0.3
		l-16.2-27.3h-13.7l24,38.3v19.1h11.2V101l24-38.3h-12.9L277.7,90z M425.7,62.7H396v57.4h11.2v-18.7l18.5,0c8.4,0,13.8-2.3,17.5-5.9
		c3.6-3.4,5.8-8.2,5.8-13.5c0-4.7-1.7-9-5-12.6C440.1,65.1,434.4,62.7,425.7,62.7z M434.9,88.6c-2.7,2.6-6.2,2.9-8.9,2.9l-18.8,0
		V72.4H426c3,0,6.5,0.4,9.2,3.2c1.6,1.7,2.6,3.9,2.6,6.4C437.8,84.4,436.7,86.9,434.9,88.6z"/>
	<g>
		<linearGradient id="SVGID_1_" gradientUnits="userSpaceOnUse" x1="80.293" y1="103.4274" x2="93.0454" y2="100.1294">
			<stop  offset="0" style="stop-color:#329C87"/>
			<stop  offset="1" style="stop-color:#177B69"/>
		</linearGradient>
		<path class="st1" d="M72.1,97c0,5.8,1.4,11.3,3.9,16.2L107.7,97H72.1z"/>
		<linearGradient id="SVGID_2_" gradientUnits="userSpaceOnUse" x1="94.77" y1="107.9802" x2="107.7306" y2="107.9802">
			<stop  offset="0" style="stop-color:#1C7E7C"/>
			<stop  offset="1" style="stop-color:#33AFB5"/>
		</linearGradient>
		<path class="st2" d="M94.8,114.8c3.6,2.6,8.1,4.2,13,4.2V97L94.8,114.8z"/>
		<linearGradient id="SVGID_3_" gradientUnits="userSpaceOnUse" x1="112.8938" y1="52.5246" x2="108.5831" y2="84.4073">
			<stop  offset="0" style="stop-color:#398F87"/>
			<stop  offset="1" style="stop-color:#185952"/>
		</linearGradient>
		<path class="st3" d="M127.3,49.6c-6-2.5-12.7-3.9-19.6-3.9c-2.7,0-5.4,0.2-8,0.6l8,50.6L127.3,49.6z"/>
		<linearGradient id="SVGID_4_" gradientUnits="userSpaceOnUse" x1="123.4037" y1="93.3162" x2="139.6065" y2="87.0965">
			<stop  offset="0" style="stop-color:#37A7B9"/>
			<stop  offset="1" style="stop-color:#3792B4"/>
		</linearGradient>
		<path class="st4" d="M107.7,97h44.6c0-9.8-3.2-18.8-8.5-26.2L107.7,97z"/>
		<linearGradient id="SVGID_5_" gradientUnits="userSpaceOnUse" x1="69.1534" y1="86.0178" x2="93.1513" y2="92.4929">
			<stop  offset="0" style="stop-color:#1F5180"/>
			<stop  offset="1" style="stop-color:#061D3B"/>
		</linearGradient>
		<path class="st5" d="M67.8,72.5C63.4,79.6,60.9,88,60.9,97h46.8L67.8,72.5z"/>
		<linearGradient id="SVGID_6_" gradientUnits="userSpaceOnUse" x1="89.3878" y1="81.3541" x2="107.7306" y2="81.3541">
			<stop  offset="0" style="stop-color:#227A6D"/>
			<stop  offset="1" style="stop-color:#42BDAE"/>
		</linearGradient>
		<path class="st6" d="M107.7,65.8c-6.9,0-13.2,2.2-18.3,6L107.7,97V65.8z"/>
		<linearGradient id="SVGID_7_" gradientUnits="userSpaceOnUse" x1="106.8189" y1="110.0439" x2="114.5964" y2="124.2497">
			<stop  offset="0" style="stop-color:#11466A"/>
			<stop  offset="1" style="stop-color:#266495"/>
		</linearGradient>
		<path class="st7" d="M107.7,137.1c8.8,0,17-2.8,23.6-7.7L107.7,97V137.1z"/>
		<linearGradient id="SVGID_8_" gradientUnits="userSpaceOnUse" x1="116.1453" y1="96.865" x2="131.0882" y2="99.3924">
			<stop  offset="0" style="stop-color:#261C49"/>
			<stop  offset="1" style="stop-color:#483A6D"/>
		</linearGradient>
		<path class="st8" d="M138.6,92.1L107.7,97l28.8,11.9c1.5-3.7,2.4-7.7,2.4-11.9C138.9,95.3,138.8,93.7,138.6,92.1z"/>
	</g>
</g>
</svg>
