<?xml version="1.0" encoding="utf-8"?>
<!-- Generator: Adobe Illustrator 25.0.0, SVG Export Plug-In . SVG Version: 6.00 Build 0)  -->
<svg version="1.1" id="Layer_1" xmlns="http://www.w3.org/2000/svg" xmlns:xlink="http://www.w3.org/1999/xlink" x="0px" y="0px"
	 viewBox="0 0 720 151.5" style="enable-background:new 0 0 720 151.5;" xml:space="preserve">
<style type="text/css">
	.st0{fill:#00000A;}
</style>
<g>
	<polygon class="st0" points="0,90.5 23.2,90.5 23.2,1.6 0,1.6 0,90.5 	"/>
	<path class="st0" d="M40.8,90.5H64V45.7c3.5-3.3,5.9-5.2,10.3-5.2c4.6,0,6.8,2.2,6.8,10.9v39.1h23.2V48.4c0-17-6.2-27.9-21.1-27.9
		c-9.2,0-15.9,4.6-21.3,9.8h-0.5l-1.6-8.2H40.8V90.5L40.8,90.5z"/>
	<path class="st0" d="M119.4,90.5h23.2V45.7c3.5-3.3,5.9-5.2,10.3-5.2c4.6,0,6.8,2.2,6.8,10.9v39.1h23.2V48.4
		c0-17-6.2-27.9-21.1-27.9c-9.2,0-15.9,4.6-21.3,9.8h-0.5l-1.6-8.2h-18.9V90.5L119.4,90.5z"/>
	<path class="st0" d="M256.4,53.6c0-18.3-9.5-33.1-29.4-33.1c-16.5,0-32.4,13.7-32.4,35.8c0,22.7,15.1,35.8,34.9,35.8
		c7.6,0,17.3-2.7,24.6-7.9l-7.6-13.9c-4.9,2.7-9.2,4.1-13.8,4.1c-6.6,0-13.6-2.3-16.1-10.9h38.9C255.8,61.8,256.4,57.7,256.4,53.6
		L256.4,53.6z M236.7,48.1h-20.1c1.9-7.2,6.3-9.8,10.9-9.8C234.5,38.3,236.7,42.9,236.7,48.1L236.7,48.1z"/>
	<path class="st0" d="M310.2,20.5c-0.3,0-0.5,0-0.8,0c-6.6,0-14.2,4.1-19.2,13.4h-0.5L288,22.2h-18.9v68.4h23.2v-38
		c3.2-8.5,9.2-11.5,14-11.5c2.7,0,4.8,0.5,7,1c-2.7-3.9-4.4-8.6-4.4-14.4C309,25.2,309.5,22.8,310.2,20.5L310.2,20.5z"/>
	<path class="st0" d="M346.6,92.2c21.9,0,34.3-13.4,34.3-28.4c0-12.3-6.2-20-17.2-24.3l-10.7-4.2c-8-3.1-13-4.6-13-8.9
		c0-4,3.5-6,9.2-6c6.5,0,11.6,2.2,17.6,6.4l11.6-14.8C370.4,3.8,359.3,0,349.3,0c-19.2,0-32.7,12.4-32.7,27.6
		c0,12.9,8.2,20.9,17.7,24.7l10.9,4.6c7.4,3,11.9,4.4,11.9,8.6c0,4-3,6.3-10,6.3c-6.5,0-14.3-3.6-20.5-8.6l-13.2,16.1
		C322.9,88.1,335.6,92.2,346.6,92.2L346.6,92.2z"/>
	<path class="st0" d="M456.6,56.3c0-22.7-16.2-35.8-33.5-35.8c-17.3,0-33.5,13.1-33.5,35.8c0,22.7,16.2,35.8,33.5,35.8
		C440.4,92.2,456.6,79,456.6,56.3L456.6,56.3z M432.8,56.3c0,10.4-2.7,17-9.7,17c-7,0-9.7-6.6-9.7-17c0-10.4,2.7-17,9.7-17
		C430.1,39.4,432.8,45.9,432.8,56.3L432.8,56.3z"/>
	<path class="st0" d="M489.3,92.2c9.2,0,15.4-4.1,20.8-10.7h0.5l1.6,9h18.9V22.2h-23.2v44c-3,4.4-5.4,6-9.7,6
		c-4.6,0-6.8-2.2-6.8-10.9V22.2h-23.2v42.1C468.2,81.2,474.4,92.2,489.3,92.2L489.3,92.2z"/>
	<path class="st0" d="M546.8,90.5h23.2v-38c3.2-8.5,9.2-11.5,14-11.5c3,0,5.1,0.5,7.6,1.1l3.8-20.2c-1.9-0.8-4.2-1.4-8.4-1.4
		c-6.6,0-14.2,4.1-19.2,13.4h-0.5l-1.6-11.8h-18.9V90.5L546.8,90.5z"/>
	<path class="st0" d="M632.5,92.2c7,0,15.7-1.9,22.4-7.9L646,68.9c-3.2,2.5-7,4.4-10.8,4.4c-7.3,0-13-6.6-13-17
		c0-10.4,5.1-17,13.8-17c2.4,0,4.6,0.8,7.6,3.3l10.8-15c-5.1-4.4-11.6-7.1-19.7-7.1c-19.2,0-36.2,13.1-36.2,35.8
		C598.4,79,613.3,92.2,632.5,92.2L632.5,92.2z"/>
	<path class="st0" d="M720,53.6c0-18.3-9.5-33.1-29.4-33.1c-16.5,0-32.4,13.7-32.4,35.8c0,22.7,15.1,35.8,34.9,35.8
		c7.6,0,17.3-2.7,24.6-7.9L710,70.3c-4.9,2.7-9.2,4.1-13.8,4.1c-6.6,0-13.6-2.3-16.1-10.9h38.9C719.5,61.8,720,57.7,720,53.6
		L720,53.6z M700.3,48.1h-20.1c1.9-7.2,6.3-9.8,10.9-9.8C698.1,38.3,700.3,42.9,700.3,48.1L700.3,48.1z"/>
	<path class="st0" d="M11.7,151.5c6.9,0,11.3-4.1,11.3-9.4c0-5.1-3.1-7.3-7-9l-4.9-2.2c-2.6-1.1-5.6-2.4-5.6-5.8
		c0-3.2,2.6-5.2,6.6-5.2c3.2,0,5.7,1.3,7.7,3.2l2-2.4c-2.3-2.4-5.7-4.1-9.8-4.1c-5.9,0-10.3,3.7-10.3,8.8c0,5,3.7,7.3,6.8,8.6
		l4.9,2.2c3.2,1.4,5.7,2.6,5.7,6.2c0,3.5-2.8,5.8-7.4,5.8c-3.6,0-7-1.7-9.4-4.3L0,146.4C2.9,149.5,6.9,151.5,11.7,151.5L11.7,151.5z
		 M37.3,150.8h3.8v-13.6h5.7c7.4,0,12.3-3.3,12.3-10.2c0-7.3-5-9.8-12.5-9.8h-9.3V150.8L37.3,150.8z M41.1,134.1v-13.8h5
		c6.1,0,9.3,1.6,9.3,6.7c0,5-2.9,7.1-9.1,7.1H41.1L41.1,134.1z M73.8,150.8h19.6v-3.2H77.6v-12.9h12.9v-3.2H77.6v-11.1h15.3v-3.2
		H73.8V150.8L73.8,150.8z M120.8,151.5c4.4,0,7.6-1.8,10.2-4.9l-2.1-2.4c-2.3,2.5-4.7,3.9-8,3.9c-6.6,0-10.8-5.5-10.8-14.2
		s4.3-14,10.9-14c2.9,0,5.2,1.3,7,3.3l2.1-2.5c-1.9-2.1-5.1-4.1-9.1-4.1c-8.6,0-14.8,6.7-14.8,17.5
		C106.3,144.9,112.5,151.5,120.8,151.5L120.8,151.5z M145.2,150.9h3.8v-33.7h-3.8V150.9L145.2,150.9z M184.7,150.8h4l-11.5-33.6H173
		l-11.5,33.6h3.8l3.4-10.6h12.5L184.7,150.8L184.7,150.8z M169.8,137.2l1.7-5.4c1.3-3.8,2.4-7.5,3.4-11.4h0.2
		c1.1,3.9,2.3,7.6,3.5,11.4l1.7,5.4H169.8L169.8,137.2z M201.3,150.8h18.6v-3.2h-14.9v-30.4h-3.8V150.8L201.3,150.8z M251.6,150.9
		h3.8v-33.7h-3.8V150.9L251.6,150.9z M272.4,150.8h3.6v-18.4c0-3.5-0.3-6.9-0.5-10.3h0.2l3.7,6.9l12.7,21.8h3.9v-33.6h-3.6v18.2
		c0,3.4,0.3,7.1,0.5,10.5h-0.2L289,139l-12.7-21.8h-3.9V150.8L272.4,150.8z M320.1,150.8h3.8v-30.4h10.3v-3.2h-24.4v3.2h10.3V150.8
		L320.1,150.8z M348.1,150.8h19.6v-3.2h-15.8v-12.9h12.9v-3.2h-12.9v-11.1h15.3v-3.2h-19.1V150.8L348.1,150.8z M405.4,150.8
		l-8.8-14.9c4.8-1,7.8-4.1,7.8-9.4c0-6.9-4.8-9.3-11.6-9.3h-10.3v33.6h3.8v-14.5h6.4l8.4,14.5H405.4L405.4,150.8z M386.4,120.3h5.9
		c5.4,0,8.4,1.6,8.4,6.3c0,4.5-3,6.7-8.4,6.7h-5.9V120.3L386.4,120.3z M419.1,150.8h19.6v-3.2h-15.8v-12.9h12.9v-3.2h-12.9v-11.1
		h15.3v-3.2h-19.1V150.8L419.1,150.8z M462.8,151.5c6.9,0,11.3-4.1,11.3-9.4c0-5.1-3.1-7.3-7-9l-4.9-2.2c-2.6-1.1-5.6-2.4-5.6-5.8
		c0-3.2,2.6-5.2,6.6-5.2c3.2,0,5.7,1.3,7.7,3.2l2-2.4c-2.3-2.4-5.7-4.1-9.8-4.1c-5.9,0-10.3,3.7-10.3,8.8c0,5,3.7,7.3,6.8,8.6
		l4.9,2.2c3.2,1.4,5.7,2.6,5.7,6.2c0,3.5-2.8,5.8-7.4,5.8c-3.6,0-7-1.7-9.4-4.3l-2.3,2.6C454,149.5,458,151.5,462.8,151.5
		L462.8,151.5z M494.5,150.8h3.8v-30.4h10.3v-3.2h-24.4v3.2h10.3V150.8L494.5,150.8z M553.3,151.5c4.5,0,8.1-1.6,10.3-3.9v-13.9
		h-10.9v3.2h7.4v9.2c-1.4,1.3-3.9,2.2-6.5,2.2c-7.3,0-11.4-5.5-11.4-14.2c0-8.7,4.5-14,11.5-14c3.4,0,5.7,1.5,7.4,3.3l2.1-2.5
		c-1.9-2-4.9-4.1-9.6-4.1c-8.9,0-15.3,6.7-15.3,17.5C538.3,144.9,544.5,151.5,553.3,151.5L553.3,151.5z M602.3,150.8l-8.8-14.9
		c4.8-1,7.8-4.1,7.8-9.4c0-6.9-4.8-9.3-11.6-9.3h-10.3v33.6h3.8v-14.5h6.4l8.4,14.5H602.3L602.3,150.8z M583.3,120.3h5.9
		c5.4,0,8.4,1.6,8.4,6.3c0,4.5-3,6.7-8.4,6.7h-5.9V120.3L583.3,120.3z M628.3,151.5c8.4,0,14.2-6.8,14.2-17.6
		c0-10.7-5.9-17.3-14.2-17.3c-8.4,0-14.3,6.6-14.3,17.3S619.9,151.5,628.3,151.5L628.3,151.5z M628.3,148.1
		c-6.3,0-10.4-5.6-10.4-14.2c0-8.6,4.1-14,10.4-14c6.2,0,10.3,5.4,10.3,14C638.6,142.6,634.5,148.1,628.3,148.1L628.3,148.1z
		 M669.3,151.5c6.6,0,11.9-3.5,11.9-14.2v-20h-3.6v20c0,8.3-3.7,10.9-8.3,10.9c-4.5,0-8.1-2.6-8.1-10.9v-20h-3.8v20
		C657.4,147.9,662.7,151.5,669.3,151.5L669.3,151.5z M698.2,150.8h3.8v-13.6h5.7c7.4,0,12.3-3.3,12.3-10.2c0-7.3-5-9.8-12.5-9.8
		h-9.3V150.8L698.2,150.8z M702,134.1v-13.8h5c6.1,0,9.3,1.6,9.3,6.7c0,5-2.9,7.1-9.1,7.1H702L702,134.1z"/>
</g>
</svg>
