<?xml version="1.0" encoding="UTF-8"?>
<svg id="Layer_1" xmlns="http://www.w3.org/2000/svg" xmlns:xlink="http://www.w3.org/1999/xlink" version="1.1" viewBox="0 0 720 211.685">
  <!-- Generator: Adobe Illustrator 30.6.0, SVG Export Plug-In . SVG Version: 2.1.4 Build 109)  -->
  <defs>
    <style>
      .st0 {
        fill: #4600d2;
      }

      .st1 {
        fill: #ff148c;
      }

      .st2 {
        fill: #fff;
      }

      .st3 {
        fill: url(#New_Gradient_Swatch_2);
      }
    </style>
    <linearGradient id="New_Gradient_Swatch_2" data-name="New Gradient Swatch 2" x1="150.8756" y1="25.3874" x2="42.8756" y2="181.3874" gradientUnits="userSpaceOnUse">
      <stop offset="0" stop-color="#4600d2"/>
      <stop offset=".9988" stop-color="#ff148c"/>
      <stop offset="1" stop-color="#ff148c"/>
    </linearGradient>
  </defs>
  <path class="st1" d="M707.2679,196.698c-.7159-.452-1.287-1.062-1.713-1.83-.426-.768-.639-1.617-.639-2.547,0-.929.213-1.778.639-2.546s.997-1.378,1.713-1.83c.717-.452,1.5071-.678,2.3721-.678.8779,0,1.672.226,2.382.678.71.452,1.268,1.062,1.675,1.83.407.768.61,1.617.61,2.546,0,.93-.203,1.776-.61,2.537-.407.762-.965,1.372-1.675,1.83-.71.458-1.504.687-2.382.687-.865,0-1.655-.225-2.3721-.677M714.656,184.615c-.594-.736-1.314-1.333-2.1591-1.792-.8459-.458-1.824-.687-2.934-.687-1.394,0-2.701.265-3.921.794-1.22.529-2.295,1.262-3.224,2.198-.93.936-1.659,2.017-2.188,3.243-.53,1.227-.794,2.543-.794,3.95,0,1.408.264,2.724.794,3.951.529,1.226,1.258,2.307,2.188,3.243.929.936,2.004,1.669,3.224,2.198,1.22.529,2.527.794,3.921.794,1.11,0,2.088-.23,2.934-.688.845-.458,1.5651-1.055,2.1591-1.791v2.246c0,.671-.149,1.259-.446,1.762-.297.504-.704.923-1.22,1.259-.516.336-1.1.587-1.752.755-.652.168-1.3329.252-2.043.252-.658,0-1.2939-.126-1.907-.378-.614-.251-1.156-.61-1.627-1.074-.4711-.465-.842-1.02-1.113-1.666l-4.88,2.227c.542,1.227,1.297,2.311,2.266,3.253.968.943,2.078,1.682,3.33,2.218,1.252.535,2.563.803,3.931.803,1.446,0,2.817-.22,4.1151-.658,1.297-.439,2.446-1.072,3.447-1.898,1-.826,1.791-1.817,2.3721-2.972.5809-1.156.871-2.45.871-3.883v-19.634h-5.344v1.975ZM685.261,196.523c-.658-.426-1.184-1.003-1.578-1.733-.394-.729-.59-1.552-.59-2.469,0-.877.1899-1.684.571-2.42.381-.736.9-1.33,1.559-1.782.658-.451,1.3939-.677,2.207-.677.787,0,1.511.219,2.169.658.658.439,1.184,1.03,1.578,1.772.394.742.5909,1.559.5909,2.449,0,.865-.188,1.666-.562,2.402-.374.735-.8911,1.326-1.549,1.771-.658.446-1.401.668-2.227.668-.787,0-1.51-.213-2.169-.639M691.196,201.713c1.169-.529,2.195-1.262,3.079-2.198.884-.936,1.578-2.017,2.082-3.243.503-1.227.755-2.543.755-3.951,0-1.884-.436-3.601-1.307-5.15s-2.04-2.782-3.505-3.699c-1.465-.916-3.088-1.375-4.87-1.375-1.33,0-2.582.265-3.756.794-1.1749.53-2.205,1.262-3.089,2.198-.884.936-1.578,2.021-2.0809,3.253-.504,1.233-.756,2.559-.756,3.979,0,1.872.436,3.58,1.307,5.122.872,1.543,2.04,2.772,3.505,3.689,1.465.916,3.089,1.375,4.87,1.375,1.343,0,2.598-.265,3.766-.794M674.263,172.958h-5.344v29.046h5.344v-29.046ZM652.189,196.698c-.724-.452-1.301-1.062-1.734-1.83-.432-.768-.6479-1.617-.6479-2.547,0-.929.213-1.778.639-2.546s1-1.378,1.723-1.83c.723-.452,1.53-.678,2.421-.678.877,0,1.671.226,2.381.678.7101.452,1.272,1.059,1.6851,1.82.413.762.62,1.614.62,2.556,0,.93-.207,1.779-.62,2.547-.413.768-.975,1.378-1.6851,1.83-.71.452-1.504.677-2.381.677-.878,0-1.679-.225-2.401-.677M659.934,184.77c-.71-.775-1.5389-1.414-2.488-1.917-.949-.504-2.017-.756-3.205-.756-1.381,0-2.6689.259-3.863.775-1.194.516-2.25,1.233-3.166,2.149-.917.917-1.627,1.975-2.1299,3.176-.5031,1.2-.755,2.491-.755,3.873,0,1.446.2679,2.798.803,4.056.536,1.259,1.281,2.366,2.2369,3.321.9551.956,2.0591,1.704,3.311,2.246,1.252.543,2.601.814,4.047.814,1.058,0,1.9821-.233,2.769-.697.787-.465,1.433-1.072,1.937-1.821l.251,2.014h5.364v-19.363h-5.344l.2319,2.13ZM642.003,182.64h-3.485v-6.081h-5.345v6.081h-2.672v5.344h2.672v14.019h5.345v-14.019h3.485v-5.344ZM614.739,196.698c-.723-.452-1.3-1.062-1.733-1.83-.432-.768-.649-1.617-.649-2.547,0-.929.213-1.778.64-2.546.425-.768,1-1.378,1.723-1.83s1.53-.678,2.42-.678c.8779,0,1.672.226,2.382.678.71.452,1.271,1.059,1.6851,1.82.413.762.619,1.614.619,2.556,0,.93-.206,1.779-.619,2.547-.4141.768-.975,1.378-1.6851,1.83-.71.452-1.504.677-2.382.677s-1.678-.225-2.401-.677M622.485,184.77c-.71-.775-1.54-1.414-2.488-1.917-.949-.504-2.0179-.756-3.205-.756-1.382,0-2.669.259-3.863.775-1.1949.516-2.25,1.233-3.166,2.149-.9171.917-1.627,1.975-2.13,3.176-.504,1.2-.756,2.491-.756,3.873,0,1.446.2681,2.798.8041,4.056.5359,1.259,1.2809,2.366,2.2369,3.321.955.956,2.059,1.704,3.311,2.246,1.252.543,2.601.814,4.047.814,1.058,0,1.981-.233,2.769-.697.787-.465,1.433-1.072,1.936-1.821l.252,2.014h5.364v-19.363h-5.345l.233,2.13ZM599.1899,200.977c1.8461-1.02,3.376-2.369,4.5891-4.047l-4.763-2.595c-.723.852-1.591,1.537-2.605,2.053-1.0131.516-2.1071.774-3.282.774-1.097,0-2.13-.229-3.098-.687-.968-.458-1.817-1.084-2.546-1.878-.73-.794-1.301-1.717-1.714-2.769-.413-1.052-.62-2.179-.62-3.379,0-1.214.207-2.343.62-3.389.413-1.046.984-1.968,1.714-2.769.729-.8,1.578-1.426,2.546-1.878.968-.452,2.001-.678,3.098-.678,1.162,0,2.2529.255,3.2729.765,1.019.51,1.891,1.191,2.614,2.043l4.763-2.576c-1.213-1.691-2.743-3.043-4.5891-4.056-1.8459-1.014-3.866-1.52-6.0609-1.52-1.833,0-3.556.364-5.17,1.094-1.614.729-3.03,1.736-4.25,3.02-1.22,1.285-2.176,2.776-2.866,4.473-.691,1.698-1.036,3.522-1.036,5.471,0,1.936.345,3.753,1.036,5.451.6899,1.697,1.646,3.192,2.866,4.482,1.22,1.291,2.636,2.302,4.25,3.031s3.337,1.094,5.17,1.094c2.1949,0,4.215-.51,6.0609-1.53M563.881,201.781c1.207-.497,2.191-1.227,2.953-2.189.762-.961,1.143-2.081,1.143-3.359.038-1.097-.246-2.053-.852-2.866-.6071-.813-1.4041-1.501-2.392-2.062-.987-.562-2.043-1.023-3.166-1.385-.374-.129-.807-.242-1.297-.339-.491-.096-.923-.245-1.298-.445-.374-.2-.561-.513-.561-.939,0-.439.119-.787.358-1.046.239-.258.565-.435.978-.532.413-.097.871-.126,1.375-.087.387.026.7521.119,1.094.28.342.162.645.356.91.581.264.226.481.462.649.707l4.2209-2.498c-.788-1.149-1.827-2.039-3.118-2.672-1.291-.632-2.691-.949-4.202-.949-1.2781,0-2.465.259-3.563.775-1.097.516-1.988,1.249-2.672,2.198-.684.948-1.026,2.075-1.026,3.378,0,1.188.329,2.208.988,3.06.658.852,1.5131,1.546,2.5651,2.082,1.052.535,2.172.907,3.36,1.113.387.077.79.171,1.21.281.4191.11.778.274,1.075.494.297.219.445.535.445.948,0,.375-.116.675-.348.901-.233.226-.536.387-.911.484-.374.097-.761.145-1.1609.145-.5421,0-1.017-.09-1.424-.271-.406-.181-.752-.39-1.035-.629-.285-.239-.4979-.462-.64-.668l-4.492,1.936c.4.826.959,1.533,1.675,2.12.717.588,1.533,1.053,2.45,1.394.916.342,1.871.552,2.865.63,1.356.116,2.637-.075,3.844-.571M549.755,172.958h-5.344v29.046h5.344v-29.046ZM529.0749,196.523c-.658-.426-1.184-1.003-1.578-1.733-.3939-.729-.5909-1.552-.5909-2.469,0-.877.191-1.684.572-2.42.3799-.736.9-1.33,1.558-1.782.6589-.451,1.394-.677,2.208-.677.787,0,1.51.219,2.1689.658.658.439,1.184,1.03,1.578,1.772.393.742.59,1.559.59,2.449,0,.865-.187,1.666-.561,2.402-.375.735-.891,1.326-1.5491,1.771-.6589.446-1.401.668-2.2269.668-.788,0-1.511-.213-2.1691-.639M535.01,201.713c1.168-.529,2.1949-1.262,3.079-2.198s1.578-2.017,2.081-3.243c.504-1.227.756-2.543.756-3.951,0-1.884-.436-3.601-1.307-5.15-.8721-1.549-2.04-2.782-3.505-3.699-1.4661-.916-3.089-1.375-4.87-1.375-1.33,0-2.582.265-3.757.794-1.175.53-2.204,1.262-3.088,2.198-.885.936-1.578,2.021-2.082,3.253-.5031,1.233-.755,2.559-.755,3.979,0,1.872.436,3.58,1.307,5.122.871,1.543,2.0389,2.772,3.505,3.689,1.465.916,3.088,1.375,4.87,1.375,1.342,0,2.5969-.265,3.766-.794M512.848,202.003v-10.843c0-.685.162-1.301.485-1.85.322-.548.761-.984,1.316-1.307.555-.322,1.168-.484,1.84-.484.477,0,.949.097,1.413.291l2.111-5.403c-.71-.206-1.42-.31-2.13-.31-.968,0-1.888.175-2.759.523-.8721.349-1.63.833-2.276,1.452l-.019-1.432h-5.344l.019,19.363h5.3441ZM503.999,182.64h-3.485v-6.081h-5.345v6.081h-2.672v5.344h2.672v14.019h5.345v-14.019h3.485v-5.344ZM488.566,185.864c-.684-1.143-1.597-2.056-2.74-2.74-1.142-.684-2.417-1.027-3.824-1.027-.968,0-1.888.175-2.759.523-.872.349-1.63.833-2.276,1.452l-.019-1.432h-5.344l.019,19.363h5.344v-10.843c0-.685.162-1.301.485-1.85.322-.548.761-.984,1.316-1.307.555-.322,1.168-.484,1.84-.484.671,0,1.281.162,1.83.484.548.323.987.759,1.316,1.307.33.549.494,1.165.494,1.85v10.843h5.345v-12.315c0-1.407-.343-2.682-1.027-3.824M456.268,196.523c-.659-.426-1.185-1.003-1.578-1.733-.394-.729-.591-1.552-.591-2.469,0-.877.19-1.684.571-2.42s.901-1.33,1.559-1.782c.658-.451,1.394-.677,2.207-.677.788,0,1.511.219,2.169.658.659.439,1.184,1.03,1.578,1.772.394.742.591,1.559.591,2.449,0,.865-.187,1.666-.562,2.402-.374.735-.89,1.326-1.549,1.771-.658.446-1.401.668-2.227.668-.787,0-1.51-.213-2.168-.639M462.203,201.713c1.168-.529,2.194-1.262,3.079-2.198.884-.936,1.578-2.017,2.081-3.243.504-1.227.755-2.543.755-3.951,0-1.884-.435-3.601-1.307-5.15-.871-1.549-2.04-2.782-3.505-3.699-1.465-.916-3.088-1.375-4.87-1.375-1.329,0-2.582.265-3.756.794-1.175.53-2.205,1.262-3.089,2.198-.884.936-1.578,2.021-2.081,3.253-.504,1.233-.755,2.559-.755,3.979,0,1.872.435,3.58,1.307,5.122.871,1.543,2.039,2.772,3.504,3.689,1.465.916,3.089,1.375,4.87,1.375,1.343,0,2.598-.265,3.767-.794M441.067,200.977c1.846-1.02,3.376-2.369,4.589-4.047l-4.763-2.595c-.723.852-1.591,1.537-2.605,2.053-1.013.516-2.107.774-3.282.774-1.097,0-2.13-.229-3.098-.687-.968-.458-1.817-1.084-2.546-1.878-.73-.794-1.301-1.717-1.714-2.769s-.62-2.179-.62-3.379c0-1.214.207-2.343.62-3.389s.984-1.968,1.714-2.769c.729-.8,1.578-1.426,2.546-1.878.968-.452,2.001-.678,3.098-.678,1.162,0,2.253.255,3.273.765,1.019.51,1.891,1.191,2.614,2.043l4.763-2.576c-1.213-1.691-2.743-3.043-4.589-4.056-1.846-1.014-3.866-1.52-6.061-1.52-1.833,0-3.556.364-5.17,1.094-1.614.729-3.03,1.736-4.25,3.02-1.22,1.285-2.176,2.776-2.866,4.473-.691,1.698-1.036,3.522-1.036,5.471,0,1.936.345,3.753,1.036,5.451.69,1.697,1.646,3.192,2.866,4.482,1.22,1.291,2.636,2.302,4.25,3.031,1.614.729,3.337,1.094,5.17,1.094,2.195,0,4.215-.51,6.061-1.53M408.265,185.864c-.684-1.143-1.597-2.056-2.74-2.74-1.142-.684-2.417-1.027-3.824-1.027-.968,0-1.888.175-2.759.523-.872.349-1.63.833-2.276,1.452l-.019-1.432h-5.344l.019,19.363h5.344v-10.843c0-.685.162-1.301.485-1.85.322-.548.761-.984,1.316-1.307.555-.322,1.169-.484,1.84-.484s1.281.162,1.83.484c.548.323.987.759,1.317,1.307.329.549.493,1.165.493,1.85v10.843h5.345v-12.315c0-1.407-.342-2.682-1.027-3.824M375.967,196.523c-.659-.426-1.185-1.003-1.578-1.733-.394-.729-.591-1.552-.591-2.469,0-.877.19-1.684.571-2.42s.901-1.33,1.559-1.782c.658-.451,1.394-.677,2.207-.677.788,0,1.511.219,2.169.658.659.439,1.184,1.03,1.578,1.772.394.742.591,1.559.591,2.449,0,.865-.187,1.666-.562,2.402-.374.735-.89,1.326-1.549,1.771-.658.446-1.401.668-2.227.668-.787,0-1.51-.213-2.168-.639M381.902,201.713c1.168-.529,2.194-1.262,3.079-2.198.884-.936,1.578-2.017,2.081-3.243.504-1.227.755-2.543.755-3.951,0-1.884-.435-3.601-1.307-5.15-.871-1.549-2.04-2.782-3.505-3.699-1.465-.916-3.088-1.375-4.87-1.375-1.329,0-2.582.265-3.756.794-1.175.53-2.205,1.262-3.089,2.198-.884.936-1.578,2.021-2.081,3.253-.504,1.233-.755,2.559-.755,3.979,0,1.872.435,3.58,1.307,5.122.871,1.543,2.039,2.772,3.505,3.689,1.465.916,3.088,1.375,4.869,1.375,1.343,0,2.598-.265,3.767-.794M340.551,202.003v-10.843c0-.671.164-1.281.494-1.83.329-.549.768-.988,1.316-1.317.549-.329,1.153-.494,1.811-.494.671,0,1.281.162,1.83.484.548.323.984.759,1.307,1.307.322.549.484,1.165.484,1.85v10.843h5.344v-10.843c0-.685.165-1.301.494-1.85.329-.548.768-.984,1.317-1.307.548-.322,1.158-.484,1.83-.484.671,0,1.278.165,1.82.494.542.329.978.768,1.307,1.317.329.549.494,1.159.494,1.83v10.843h5.344v-12.315c0-1.407-.342-2.682-1.026-3.824-.685-1.143-1.598-2.056-2.74-2.74-1.143-.684-2.418-1.027-3.824-1.027-1.305,0-2.505.304-3.602.91-1.098.607-1.988,1.414-2.672,2.421-.672-1.007-1.559-1.814-2.663-2.421-1.104-.606-2.314-.91-3.631-.91-.968,0-1.884.175-2.749.523-.865.349-1.627.833-2.285,1.452v-1.432h-5.345v19.363h5.345ZM306.142,202.003v-10.843c0-.671.165-1.281.494-1.83.329-.549.768-.988,1.316-1.317.549-.329,1.153-.494,1.811-.494.671,0,1.281.162,1.83.484.548.323.984.759,1.307,1.307.322.549.484,1.165.484,1.85v10.843h5.344v-10.843c0-.685.165-1.301.494-1.85.329-.548.768-.984,1.317-1.307.548-.322,1.158-.484,1.83-.484.671,0,1.278.165,1.82.494.542.329.978.768,1.307,1.317.329.549.494,1.159.494,1.83v10.843h5.344v-12.315c0-1.407-.342-2.682-1.026-3.824-.684-1.143-1.598-2.056-2.74-2.74-1.143-.684-2.418-1.027-3.824-1.027-1.304,0-2.505.304-3.602.91-1.097.607-1.988,1.414-2.672,2.421-.672-1.007-1.559-1.814-2.663-2.421-1.104-.606-2.314-.91-3.631-.91-.968,0-1.884.175-2.749.523-.865.349-1.627.833-2.285,1.452v-1.432h-5.344v19.363h5.344ZM285.462,196.523c-.659-.426-1.185-1.003-1.579-1.733-.394-.729-.59-1.552-.59-2.469,0-.877.19-1.684.571-2.42s.9-1.33,1.559-1.782c.658-.451,1.394-.677,2.207-.677.788,0,1.511.219,2.169.658.658.439,1.184,1.03,1.578,1.772.394.742.591,1.559.591,2.449,0,.865-.188,1.666-.562,2.402-.374.735-.891,1.326-1.549,1.771-.658.446-1.401.668-2.227.668-.787,0-1.51-.213-2.168-.639M291.397,201.713c1.168-.529,2.194-1.262,3.078-2.198s1.579-2.017,2.082-3.243c.503-1.227.755-2.543.755-3.951,0-1.884-.436-3.601-1.307-5.15s-2.04-2.782-3.505-3.699c-1.465-.916-3.088-1.375-4.87-1.375-1.329,0-2.582.265-3.756.794-1.175.53-2.205,1.262-3.089,2.198-.884.936-1.578,2.021-2.081,3.253-.504,1.233-.756,2.559-.756,3.979,0,1.872.436,3.58,1.307,5.122.872,1.543,2.04,2.772,3.505,3.689,1.465.916,3.089,1.375,4.87,1.375,1.343,0,2.598-.265,3.767-.794M270.261,200.977c1.846-1.02,3.376-2.369,4.589-4.047l-4.763-2.595c-.723.852-1.591,1.537-2.605,2.053-1.013.516-2.107.774-3.282.774-1.097,0-2.13-.229-3.098-.687-.968-.458-1.817-1.084-2.546-1.878-.73-.794-1.301-1.717-1.714-2.769s-.62-2.179-.62-3.379c0-1.214.207-2.343.62-3.389s.984-1.968,1.714-2.769c.729-.8,1.578-1.426,2.546-1.878.968-.452,2.001-.678,3.098-.678,1.162,0,2.253.255,3.273.765,1.019.51,1.891,1.191,2.614,2.043l4.763-2.576c-1.213-1.691-2.743-3.043-4.589-4.056-1.846-1.014-3.866-1.52-6.061-1.52-1.833,0-3.556.364-5.17,1.094-1.614.729-3.03,1.736-4.25,3.02-1.22,1.285-2.176,2.776-2.866,4.473-.691,1.698-1.036,3.522-1.036,5.471,0,1.936.345,3.753,1.036,5.451.69,1.697,1.646,3.192,2.866,4.482,1.22,1.291,2.636,2.302,4.25,3.031,1.614.729,3.337,1.094,5.17,1.094,2.195,0,4.215-.51,6.061-1.53"/>
  <path class="st0" d="M696.9799,133.374c9.257-5.081,16.928-11.862,23.014-20.343l-17.964-9.808c-4.144,5.309-9.307,9.565-15.489,12.769-6.183,3.205-12.834,4.807-19.955,4.807-6.409,0-12.429-1.311-18.061-3.933-5.632-2.622-10.6021-6.246-14.906-10.876-4.306-4.627-7.656-9.968-10.05-16.022-2.396-6.052-3.593-12.542-3.593-19.469,0-6.862,1.197-13.336,3.593-19.422,2.394-6.084,5.729-11.425,10.001-16.022,4.273-4.596,9.225-8.22,14.858-10.876,5.632-2.653,11.684-3.981,18.158-3.981,6.992,0,13.595,1.587,19.81,4.758,6.214,3.173,11.425,7.414,15.634,12.721l17.964-9.613c-6.086-8.48-13.757-15.278-23.014-20.393-9.2579-5.113-19.389-7.671-30.394-7.671-9.193,0-17.835,1.83-25.927,5.487-8.093,3.658-15.197,8.707-21.314,15.148-6.1179,6.442-10.91,13.935-14.3719,22.48-3.464,8.545-5.195,17.673-5.195,27.384s1.731,18.838,5.195,27.383c3.462,8.545,8.254,16.039,14.3719,22.48,6.1171,6.442,13.2211,11.492,21.314,15.148,8.092,3.657,16.734,5.487,25.927,5.487,11.005,0,21.136-2.54,30.394-7.623M582.3009,138.472v-20.198h-58.554V2.525h-20.198v135.947h78.752ZM393.3359,22.723h24.762c6.603,0,12.769,1.23,18.498,3.69,5.729,2.461,10.811,5.891,15.246,10.293,4.433,4.403,7.88,9.484,10.341,15.245,2.46,5.763,3.69,11.944,3.69,18.548s-1.23,12.786-3.69,18.547c-2.461,5.762-5.908,10.844-10.341,15.245-4.435,4.403-9.517,7.834-15.246,10.293-5.729,2.461-11.895,3.69-18.498,3.69h-24.762V22.723ZM418.0979,138.472c9.385,0,18.19-1.763,26.412-5.292,8.221-3.528,15.44-8.415,21.655-14.663,6.214-6.247,11.085-13.464,14.614-21.654,3.528-8.189,5.292-16.977,5.292-26.364s-1.764-18.174-5.292-26.365c-3.529-8.188-8.4-15.406-14.614-21.654-6.215-6.247-13.434-11.134-21.655-14.663-8.222-3.528-17.027-5.292-26.412-5.292h-44.96v135.947h44.96ZM326.0919,135.996c7.606-3.333,13.724-8.026,18.353-14.08,4.628-6.053,6.943-13.093,6.943-21.121,0-7.962-2.315-14.678-6.943-20.149-4.629-5.47-10.747-9.856-18.353-13.158-7.608-3.301-15.877-5.664-24.81-7.088-5.569-.971-10.602-2.055-15.1-3.253-4.5-1.198-8.077-3.059-10.73-5.584-2.656-2.525-3.982-6.215-3.982-11.07,0-3.948,1.423-7.412,4.273-10.39,2.848-2.977,6.521-5.324,11.021-7.04,4.499-1.715,9.338-2.54,14.518-2.477,4.855,0,9.467.68,13.837,2.04,4.37,1.359,8.108,3.221,11.216,5.583,3.107,2.364,5.21,5.132,6.312,8.303l19.129-6.895c-2.266-6.215-6.005-11.507-11.215-15.876-5.212-4.37-11.233-7.704-18.062-10.002-6.831-2.297-13.903-3.448-21.217-3.448-8.87,0-17.108,1.668-24.714,5.001-7.607,3.335-13.725,8.012-18.353,14.032-4.629,6.021-6.943,13.077-6.943,21.169,0,8.611,2.185,15.602,6.555,20.975,4.37,5.374,10.325,9.549,17.867,12.526,7.541,2.979,16.071,5.244,25.588,6.798,4.919.777,9.662,1.942,14.226,3.495,4.563,1.554,8.317,3.659,11.264,6.312,2.945,2.656,4.418,6.054,4.418,10.196,0,4.015-1.408,7.511-4.224,10.488-2.816,2.978-6.506,5.309-11.07,6.991-4.564,1.684-9.436,2.525-14.614,2.525-4.856,0-9.468-.68-13.838-2.039-4.37-1.36-8.125-3.253-11.264-5.681-3.141-2.427-5.26-5.195-6.36-8.302l-18.936,7.088c2.2,6.021,5.858,11.216,10.973,15.586,5.113,4.369,11.102,7.72,17.964,10.05,6.861,2.331,14.015,3.496,21.461,3.496,8.933,0,17.202-1.668,24.81-5.001"/>
  <path class="st2" d="M125.8837,162.6773c10.011-.057,15.656-11.355,15.505-19.414-.164-8.715-6.801-18.218-16.383-18.309l-62.116-.587c-28.991-1.208-51.391-24.408-53.218-53.178C7.6327,39.0823,31.9877,9.8043,64.6847,9.6903l97.059-.34c2.716-.009,4.619-1.865,5.007-4.104C167.0657,3.4323,165.5097-.0077,163.0277.0003l-98.625.3c-22.14.067-42.154,13.365-53.103,30.058C-1.8363,50.3883-3.3323,73.5783,5.8377,94.6663c9.962,22.912,31.769,38.871,57.004,38.987l60.103.276c5.463.025,9.253,5.173,9.232,10.135-.017,4.116-3.353,9.757-8.589,9.762l-87.146.094c-2.859.003-4.778,2.969-4.621,5.137.186,2.57,2.386,4.146,5.478,4.128l88.585-.508Z"/>
  <path class="st2" d="M173.9997,20.4592c-5.402.82-8.367,6.061-6.908,11.23,1.095,3.878,5.468,7.038,10.601,5.873,4.092-.928,7.485-5.049,6.513-10.172-.806-4.248-4.656-7.773-10.206-6.931"/>
  <path class="st2" d="M165.2226,149.3922c3.43-25.943-15.496-48.362-40.959-48.57l-60.554-.495c-17.56-.966-29.838-17.391-29.208-34.418.632-17.119,13.649-32.146,31.132-32.205l85.486-.288c2.657-.009,4.599-2.987,4.421-4.981-.153-1.712-2.153-4.337-4.382-4.329l-85.641.291c-22.899.079-40.012,20.132-40.501,41.942-.488,21.801,15.929,42.171,38.782,43.409l60.846.456c9.054.068,16.925,4.021,22.847,10.694,8.729,9.835,11.344,23.091,6.154,35.948-4.071,10.086-14.462,20.77-27.342,20.821l-89.895.357c-2.648.011-4.715,2.7-4.667,4.865.048,2.143,2.148,4.568,4.788,4.561l88.022-.23c21.134-.055,37.9-16.868,40.671-37.828"/>
  <path class="st2" d="M127.8895,211.2849c39.096-.152,70.862-42.847,59.415-86.971-7.168-27.629-31.473-47.238-60.076-47.366l-61.692-.275c-5.798-.026-8.306-7.426-7.47-11.31,1.371-6.367,5.925-8.014,11.886-8.013l81.185.014c2.501,0,4.555-3.097,4.321-4.967-.202-1.623-2.216-4.263-4.319-4.258l-85.625.187c-9.978.021-16.802,10.077-16.695,18.83.113,9.256,6.738,18.629,16.909,18.684l59.799.321c24.363.131,45.06,15.712,52.271,38.822,6.368,20.406,1.656,42.474-12.294,58.421-12.001,13.72-28.217,19.166-46.181,19.133l-93.551-.171c-2.603-.005-4.682,2.247-4.942,4.478-.191,1.644,1.715,4.85,4.079,4.841l102.98-.4Z"/>
  <path class="st2" d="M8.1782,174.1655c-5.127,2.275-6.414,8.262-4.331,12.154,2.417,4.516,7.122,5.701,11.227,4.217,5.129-1.853,6.621-7.166,4.854-11.695-1.721-4.414-6.871-6.841-11.75-4.676"/>
  <path class="st0" d="M125.8837,162.6773l-88.585.508c-3.092.018-5.292-1.558-5.478-4.128-.157-2.168,1.762-5.134,4.621-5.137l87.146-.094c5.236-.005,8.572-5.646,8.589-9.762.021-4.962-3.769-10.11-9.232-10.135l-60.103-.276c-25.235-.116-47.042-16.075-57.004-38.987C-3.3323,73.5783-1.8363,50.3883,11.2997,30.3583,22.2487,13.6653,42.2627.3673,64.4027.3003L163.0277.0003c2.482-.008,4.038,3.432,3.723,5.246-.388,2.239-2.291,4.095-5.007,4.104l-97.059.34c-32.697.114-57.052,29.392-55.013,61.499,1.827,28.77,24.227,51.97,53.218,53.178l62.116.587c9.582.091,16.219,9.594,16.383,18.309.151,8.059-5.494,19.357-15.505,19.414"/>
  <path class="st0" d="M127.8895,211.2849l-102.98.4c-2.364.009-4.27-3.197-4.079-4.841.26-2.231,2.339-4.483,4.942-4.478l93.551.171c17.964.033,34.18-5.413,46.181-19.133,13.95-15.947,18.662-38.015,12.294-58.421-7.211-23.11-27.908-38.691-52.271-38.822l-59.799-.321c-10.171-.055-16.796-9.428-16.909-18.684-.107-8.753,6.717-18.809,16.695-18.83l85.625-.187c2.103-.005,4.117,2.635,4.319,4.258.234,1.87-1.82,4.967-4.321,4.967l-81.185-.014c-5.961-.001-10.515,1.646-11.886,8.013-.836,3.884,1.672,11.284,7.47,11.31l61.692.275c28.603.128,52.908,19.737,60.076,47.366,11.447,44.124-20.319,86.819-59.415,86.971"/>
  <path class="st3" d="M151.159,24.1052l-85.642.293c-22.898.077-40.012,20.131-40.501,41.941-.487,21.801,15.929,42.171,38.782,43.409l60.847.456c9.054.068,16.925,4.021,22.847,10.693,8.728,9.837,11.344,23.092,6.154,35.949-4.071,10.086-14.462,20.77-27.342,20.822l-89.895.356c-2.648.011-4.716,2.699-4.667,4.865.048,2.142,2.147,4.568,4.787,4.562l88.023-.231c21.134-.056,37.9-16.868,40.671-37.828,3.429-25.943-15.496-48.362-40.959-48.57l-60.555-.495c-17.559-.966-29.837-17.391-29.208-34.418.633-17.12,13.649-32.147,31.132-32.205l85.487-.288c2.657-.009,4.599-2.987,4.421-4.981-.153-1.709-2.148-4.33-4.373-4.33h-.009"/>
  <path class="st1" d="M8.1782,174.1655c4.879-2.165,10.029.262,11.75,4.676,1.767,4.529.275,9.842-4.854,11.695-4.105,1.484-8.81.299-11.227-4.217-2.083-3.892-.796-9.879,4.331-12.154"/>
  <path class="st0" d="M173.9997,20.4592c5.55-.842,9.4,2.683,10.206,6.931.972,5.123-2.421,9.244-6.513,10.172-5.133,1.165-9.506-1.995-10.601-5.873-1.459-5.169,1.506-10.41,6.908-11.23"/>
</svg>