<?xml version="1.0" encoding="utf-8"?>
<!-- Generator: Adobe Illustrator 26.3.1, SVG Export Plug-In . SVG Version: 6.00 Build 0)  -->
<svg version="1.1" id="Layer_1" xmlns="http://www.w3.org/2000/svg" xmlns:xlink="http://www.w3.org/1999/xlink" x="0px" y="0px"
	 viewBox="0 0 720 286.4" style="enable-background:new 0 0 720 286.4;" xml:space="preserve">
<style type="text/css">
	.st0{fill:#00000A;}
</style>
<g>
	<path class="st0" d="M215,190.5V100l-73,42.2c0,0.4,0.2,0.7,0.2,1.1c0,4.5-3.1,8.2-7.2,9.5v84L215,190.5L215,190.5z"/>
	<path class="st0" d="M140,137.2l72-41.6v-0.2l-79.8-45.6L52.3,95.4v0.2l72,41.6c1.8-2.4,4.6-4,7.8-4
		C135.4,133.2,138.1,134.8,140,137.2L140,137.2z"/>
	<path class="st0" d="M122.3,142.1l-73-42.2v90.5l80,46.2v-84c-4.1-1.3-7.2-4.9-7.2-9.5C122.1,142.8,122.3,142.5,122.3,142.1
		L122.3,142.1z"/>
	<path class="st0" d="M132.1,35.7c-0.8,0-1.4-0.6-1.4-1.4V1.4c0-0.8,0.6-1.4,1.4-1.4s1.4,0.6,1.4,1.4v32.9
		C133.5,35,132.9,35.7,132.1,35.7L132.1,35.7z"/>
	<path class="st0" d="M132.1,250.7c-0.8,0-1.4,0.6-1.4,1.4V285c0,0.8,0.6,1.4,1.4,1.4s1.4-0.6,1.4-1.4v-32.9
		C133.5,251.3,132.9,250.7,132.1,250.7L132.1,250.7z"/>
	<path class="st0" d="M37.8,83.9c-0.4,0.6-1.3,0.8-1.9,0.4L8.6,65.8c-0.6-0.4-0.8-1.3-0.4-1.9c0.4-0.6,1.3-0.8,1.9-0.4L37.4,82
		C38,82.4,38.2,83.3,37.8,83.9L37.8,83.9z"/>
	<path class="st0" d="M37.8,202.5c-0.4-0.6-1.3-0.8-1.9-0.4L8.6,220.6c-0.6,0.4-0.8,1.3-0.4,1.9c0.4,0.6,1.3,0.8,1.9,0.4l27.3-18.4
		C38,204,38.2,203.1,37.8,202.5L37.8,202.5z"/>
	<path class="st0" d="M226.5,83.9c0.4,0.6,1.3,0.8,1.9,0.4l27.3-18.4c0.6-0.4,0.8-1.3,0.4-1.9c-0.4-0.6-1.3-0.8-1.9-0.4L226.9,82
		C226.3,82.4,226.1,83.3,226.5,83.9L226.5,83.9z"/>
	<path class="st0" d="M226.5,202.5c0.4-0.6,1.3-0.8,1.9-0.4l27.3,18.4c0.6,0.4,0.8,1.3,0.4,1.9c-0.4,0.6-1.3,0.8-1.9,0.4l-27.3-18.4
		C226.3,204,226.1,203.1,226.5,202.5L226.5,202.5z"/>
	<path class="st0" d="M60.7,25.7l6.7,18.1c0.1,0.3,0.4,0.6,0.7,0.7c0.3,0.1,0.7,0.1,1,0l9.3-3.7L81,55.8c0.1,0.4,0.4,0.8,0.7,1
		c0.2,0.1,0.5,0.1,0.8,0.1c0.7-0.1,1.2-0.9,1.1-1.6l-3-16.5c-0.1-0.4-0.3-0.7-0.6-0.9c-0.3-0.2-0.8-0.2-1.1-0.1l-9.5,3.8l-6.2-16.9
		c-0.2-0.6-0.9-1-1.6-0.8l-0.3-0.5l0.2,0.6C60.8,24.2,60.4,25,60.7,25.7L60.7,25.7z"/>
	<path class="st0" d="M60.7,260.7l6.7-18.1c0.1-0.3,0.4-0.6,0.7-0.7c0.3-0.1,0.7-0.1,1,0l9.3,3.7l2.7-14.9c0.1-0.4,0.4-0.8,0.7-1
		c0.2-0.1,0.5-0.1,0.8-0.1c0.7,0.1,1.2,0.9,1.1,1.6l-3,16.5c-0.1,0.4-0.3,0.7-0.6,0.9c-0.3,0.2-0.8,0.2-1.1,0.1l-9.5-3.8l-6.2,16.9
		c-0.2,0.6-0.9,1-1.6,0.8l-0.3,0.5l0.2-0.6C60.8,262.2,60.4,261.4,60.7,260.7L60.7,260.7z"/>
	<path class="st0" d="M203.6,25.7l-6.7,18.1c-0.1,0.3-0.4,0.6-0.7,0.7c-0.3,0.1-0.7,0.1-1,0l-9.3-3.7l-2.7,14.9
		c-0.1,0.4-0.4,0.8-0.7,1c-0.2,0.1-0.5,0.1-0.8,0.1c-0.7-0.1-1.2-0.9-1.1-1.6l3-16.5c0.1-0.4,0.3-0.7,0.6-0.9
		c0.3-0.2,0.8-0.2,1.1-0.1l9.5,3.8l6.2-16.9c0.2-0.6,0.9-1,1.6-0.8l0.3-0.5l-0.2,0.6C203.5,24.2,203.9,25,203.6,25.7L203.6,25.7z"/>
	<path class="st0" d="M203.6,260.7l-6.7-18.1c-0.1-0.3-0.4-0.6-0.7-0.7c-0.3-0.1-0.7-0.1-1,0l-9.3,3.7l-2.7-14.9
		c-0.1-0.4-0.4-0.8-0.7-1c-0.2-0.1-0.5-0.1-0.8-0.1c-0.7,0.1-1.2,0.9-1.1,1.6l3,16.5c0.1,0.4,0.3,0.7,0.6,0.9
		c0.3,0.2,0.8,0.2,1.1,0.1l9.5-3.8l6.2,16.9c0.2,0.6,0.9,1,1.6,0.8l0.3,0.5l-0.2-0.6C203.5,262.2,203.9,261.4,203.6,260.7
		L203.6,260.7z"/>
	<path class="st0" d="M262.2,151l-19.2-1.4c-0.4,0-0.7-0.2-0.9-0.5c-0.2-0.3-0.3-0.6-0.3-0.9l1-10l-15.1,1.5c-0.4,0-0.8-0.1-1.1-0.4
		c-0.2-0.2-0.3-0.5-0.3-0.7c-0.1-0.7,0.5-1.4,1.2-1.5l16.6-1.7c0.4,0,0.8,0.1,1,0.4c0.3,0.3,0.4,0.7,0.4,1l-1,10.2l17.9,1.3
		c0.7,0.1,1.2,0.6,1.2,1.3l0.6,0.1l-0.6-0.1C263.6,150.5,262.9,151.1,262.2,151L262.2,151z"/>
	<path class="st0" d="M2.1,151l19.2-1.4c0.4,0,0.7-0.2,0.9-0.5c0.2-0.3,0.3-0.6,0.3-0.9l-1-10l15.1,1.5c0.4,0,0.9-0.1,1.1-0.4
		c0.2-0.2,0.3-0.5,0.3-0.7c0.1-0.7-0.5-1.4-1.2-1.5l-16.6-1.7c-0.4,0-0.8,0.1-1,0.4c-0.3,0.3-0.4,0.7-0.4,1l1,10.2l-17.9,1.3
		c-0.7,0.1-1.2,0.6-1.2,1.3L0,149.8l0.6-0.1C0.7,150.5,1.3,151.1,2.1,151L2.1,151z"/>
	<path class="st0" d="M311.4,241.3h28.4V234h-20.3v-7.8h17.6v-7.3h-17.6v-7.6h20V204h-28.1V241.3L311.4,241.3z M346.7,241.3h8.1v-39
		h-8.1V241.3L346.7,241.3z M369,224.8c0.3-1.9,1-3.3,2.1-4.4c1-1.1,2.4-1.7,4.1-1.7c1.7,0,3.1,0.6,4.1,1.7c1,1.1,1.7,2.6,1.9,4.4
		H369L369,224.8z M382.8,240.6c1.9-0.9,3.6-2.2,4.9-3.9l-4.6-4.1c-1.1,1-2.2,1.8-3.3,2.2c-1.1,0.5-2.3,0.7-3.6,0.7
		c-1.8,0-3.3-0.5-4.6-1.4c-1.2-0.9-2-2.3-2.4-4.2h19.9c0-0.4,0.1-0.8,0.1-1.1c0-0.4,0-0.7,0-1c0-2-0.3-4-0.8-5.8
		c-0.6-1.9-1.4-3.5-2.6-5c-1.2-1.4-2.6-2.6-4.4-3.4c-1.7-0.9-3.8-1.3-6.2-1.3c-2.1,0-4,0.4-5.7,1.2c-1.7,0.8-3.2,1.9-4.5,3.2
		c-1.2,1.4-2.2,2.9-2.9,4.8c-0.7,1.8-1,3.7-1,5.8v0.1c0,2.2,0.4,4.2,1.1,6c0.7,1.8,1.8,3.4,3.1,4.7c1.3,1.3,2.9,2.3,4.8,3
		c1.8,0.7,3.8,1.1,6,1.1C378.6,242,380.9,241.5,382.8,240.6L382.8,240.6z M415.6,240.5c1.8-1,3.4-2.2,4.8-3.8l-4.8-4.8
		c-1,0.9-2,1.7-3,2.2c-1,0.6-2.2,0.8-3.5,0.8c-1.1,0-2.1-0.2-3-0.6c-0.9-0.4-1.7-1-2.3-1.7c-0.6-0.7-1.1-1.5-1.5-2.5
		c-0.3-1-0.5-2-0.5-3.1V227c0-1.1,0.2-2.1,0.5-3c0.3-0.9,0.8-1.8,1.4-2.5c0.6-0.7,1.4-1.3,2.2-1.7c0.8-0.4,1.8-0.6,2.8-0.6
		c1.5,0,2.7,0.3,3.7,0.9c1,0.6,1.9,1.3,2.9,2.3l5-5.3c-1.4-1.5-2.9-2.7-4.7-3.5c-1.8-0.9-4-1.3-6.7-1.3c-2.2,0-4.2,0.4-6.1,1.2
		c-1.8,0.8-3.4,1.9-4.7,3.2c-1.3,1.4-2.3,2.9-3.1,4.8c-0.7,1.8-1.1,3.7-1.1,5.8v0.1c0,2,0.4,3.9,1.1,5.7c0.7,1.8,1.8,3.4,3.1,4.7
		c1.3,1.3,2.9,2.4,4.7,3.2c1.8,0.8,3.8,1.2,6,1.2C411.5,242,413.9,241.5,415.6,240.5L415.6,240.5z M438.9,241.4c1-0.3,2-0.7,2.8-1.2
		v-6.5c-1.2,0.7-2.6,1.1-4,1.1c-1.7,0-2.6-0.9-2.6-2.8v-12.3h6.7v-6.9h-6.7v-7.3H427v7.3h-3.4v6.9h3.4v13.6c0,1.7,0.2,3.1,0.6,4.1
		c0.4,1.1,1,2,1.7,2.6c0.7,0.7,1.6,1.1,2.6,1.4c1,0.3,2.1,0.4,3.4,0.4C436.7,241.8,437.9,241.7,438.9,241.4L438.9,241.4z
		 M447.8,241.3h8.1v-10.6c0-3.5,0.8-6,2.3-7.6c1.5-1.6,3.7-2.5,6.4-2.5h0.4v-8.5c-2.4-0.1-4.3,0.4-5.8,1.6c-1.4,1.2-2.5,2.7-3.4,4.7
		v-5.8h-8.1V241.3L447.8,241.3z M481.2,234.3c-0.9-0.4-1.7-1-2.4-1.7c-0.7-0.7-1.2-1.6-1.5-2.5c-0.4-0.9-0.5-1.9-0.5-3V227
		c0-1.1,0.2-2.1,0.5-3c0.3-0.9,0.8-1.8,1.5-2.5c0.6-0.7,1.4-1.3,2.3-1.7c0.9-0.4,1.9-0.6,3.1-0.6c1.1,0,2.1,0.2,3,0.6
		c0.9,0.4,1.7,1,2.4,1.7c0.7,0.7,1.2,1.6,1.5,2.5c0.4,0.9,0.5,1.9,0.5,3v0.1c0,1.1-0.2,2.1-0.5,3c-0.3,0.9-0.8,1.8-1.5,2.5
		c-0.6,0.7-1.4,1.3-2.3,1.7c-0.9,0.4-1.9,0.6-3.1,0.6C483.2,235,482.1,234.8,481.2,234.3L481.2,234.3z M490.4,240.8
		c1.9-0.8,3.5-1.8,4.9-3.2c1.4-1.4,2.5-2.9,3.3-4.7c0.8-1.8,1.2-3.7,1.2-5.8V227c0-2.1-0.4-4-1.2-5.8c-0.8-1.8-1.9-3.4-3.2-4.7
		c-1.4-1.3-3-2.4-4.9-3.1c-1.9-0.8-3.9-1.1-6.1-1.1c-2.2,0-4.3,0.4-6.2,1.2c-1.9,0.8-3.5,1.9-4.9,3.2c-1.4,1.4-2.5,2.9-3.3,4.7
		c-0.8,1.8-1.2,3.7-1.2,5.8v0.1c0,2.1,0.4,4,1.2,5.8c0.8,1.8,1.9,3.4,3.2,4.7c1.4,1.3,3,2.4,4.9,3.1c1.9,0.8,3.9,1.1,6.1,1.1
		C486.4,242,488.5,241.6,490.4,240.8L490.4,240.8z M505.6,241.3h8.1v-15.9c0-1.9,0.5-3.4,1.4-4.3c0.9-1,2.1-1.5,3.7-1.5
		c1.6,0,2.8,0.5,3.6,1.5c0.9,1,1.3,2.4,1.3,4.3v15.9h8.1v-18.5c0-3.3-0.8-5.9-2.5-7.8c-1.7-1.9-4.1-2.8-7.2-2.8c-1,0-2,0.1-2.8,0.4
		c-0.8,0.3-1.6,0.6-2.2,1c-0.7,0.4-1.3,0.9-1.8,1.5c-0.6,0.6-1.1,1.1-1.5,1.7v-4.1h-8.1V241.3L505.6,241.3z"/>
	<path class="st0" d="M692,127.7c17.3,0,28-10.8,28-25.5V102c0-14.5-10.3-20-20.9-21.8l19.7-18.8V48.5h-52.6v14.7h30.6l-18.6,18.7
		l2.7,10.9h7.1c9.6,0,15.2,3.6,15.2,9.9v0.2c0,5.8-4.6,9.5-11,9.5c-7.9,0-13.5-3.3-18.8-9.3l-11.8,11.2
		C668.3,122.1,678,127.7,692,127.7L692,127.7z"/>
	<path class="st0" d="M311.4,166.8h20.3v-47.4h58.7V101h-58.7V68.9h66.1V50.5h-86.4V166.8L311.4,166.8z M440.7,148.4V68.9h22.9
		c6.1,0,11.6,1,16.6,3c5,2,9.2,4.8,12.7,8.3c3.5,3.5,6.2,7.7,8.1,12.6c1.9,4.9,2.9,10.2,2.9,15.9v0.3c0,5.7-1,10.9-2.9,15.8
		c-1.9,4.8-4.7,9-8.1,12.5c-3.5,3.5-7.7,6.2-12.7,8.2c-5,1.9-10.5,2.9-16.6,2.9H440.7L440.7,148.4z M420.5,166.8h43.4
		c9.1,0,17.4-1.5,25-4.5c7.6-3,14.1-7.1,19.6-12.3c5.5-5.2,9.7-11.4,12.7-18.4c3-7.1,4.5-14.7,4.5-22.9v-0.3
		c0-8.2-1.5-15.8-4.5-22.9c-3-7-7.2-13.2-12.7-18.4c-5.5-5.2-12-9.3-19.6-12.2c-7.6-2.9-15.9-4.4-25-4.4h-43.4V166.8L420.5,166.8z
		 M619.5,167.4c4.5-0.9,8.6-2.3,12.4-4.2c3.8-1.8,7.3-4,10.6-6.5c3.3-2.5,6.4-5.3,9.4-8.6l-13.1-13.3c-5,4.7-10,8.3-15.1,11.1
		c-5.1,2.7-11.2,4.1-18.3,4.1c-5.5,0-10.7-1.1-15.4-3.2c-4.7-2.2-8.8-5.1-12.2-8.9c-3.4-3.8-6.1-8.2-8-13.2c-1.9-5-2.8-10.4-2.8-16
		v-0.3c0-5.7,0.9-11,2.8-16c1.9-5,4.5-9.3,8-13c3.4-3.7,7.5-6.6,12.2-8.8c4.7-2.2,9.8-3.2,15.4-3.2c6.6,0,12.6,1.3,17.8,4
		c5.2,2.7,10.1,6.1,14.8,10.5L651,66.6c-2.8-2.7-5.7-5.1-8.8-7.3c-3.1-2.2-6.5-4.1-10.1-5.7c-3.7-1.6-7.7-2.9-12.1-3.7
		c-4.4-0.9-9.2-1.3-14.5-1.3c-8.9,0-17,1.6-24.3,4.7c-7.3,3.2-13.6,7.5-19,13c-5.4,5.5-9.5,11.9-12.5,19.1c-3,7.3-4.4,15-4.4,23.4
		v0.3c0,8.3,1.5,16.1,4.5,23.4c3,7.3,7.2,13.7,12.5,19c5.3,5.4,11.5,9.6,18.7,12.7c7.2,3.1,15.1,4.7,23.6,4.7
		C610,168.8,615,168.3,619.5,167.4L619.5,167.4z"/>
</g>
</svg>
