<?xml version="1.0" encoding="utf-8"?>
<!-- Generator: Adobe Illustrator 24.1.0, SVG Export Plug-In . SVG Version: 6.00 Build 0)  -->
<svg version="1.1" id="Layer_1" xmlns="http://www.w3.org/2000/svg" xmlns:xlink="http://www.w3.org/1999/xlink" x="0px" y="0px"
	 viewBox="0 0 537.91 537.92" style="enable-background:new 0 0 537.91 537.92;" xml:space="preserve">
<style type="text/css">
	.st0{fill:#6D7181;}
	.st1{fill:#353D4F;}
	.st2{fill:#152235;}
	.st3{fill:#00000A;}
</style>
<g>
	<path class="st0" d="M272.59,537.89c0.1,0,0.2,0,0.3,0c69.8-1,133.11-28.64,180.37-73.14c-27.06-114.36-98.64-167.12-154.42-181.13
		c0.03-0.56,0.04-1.12,0.04-1.65c0-16.57-6.95-30.84-17-37.56C277,253.97,269,276.73,269,286.27c0-9.73-7.64-32.94-12.1-42.39
		c-10.46,6.48-17.77,21.08-17.77,38.08c0,8.87,3.59,21,8.34,32.58c-18.55,15.25-46.66,21.4-80.18,21.4
		c-47.85,0-106.71-12.54-164.53-29.04c9.12,64.41,40.99,121.49,87.3,162.79C34.83,420.44,0,348.79,0,268.96
		C0,120.42,120.42,0,268.96,0s268.96,120.42,268.96,268.96C537.91,416.28,419.45,535.94,272.59,537.89 M203.76,529.91L203.76,529.91
		c87.21-72.33,89.32-152.08,79.65-199.93c0.39-0.76,0.79-1.53,1.18-2.32c-0.39,0.79-0.78,1.56-1.18,2.32l0,0l0,0
		c1.59,7.87,2.86,16.61,3.49,26.04C290.09,403.88,276.62,469.49,203.76,529.91 M90.19,469.81c-0.03-0.03-0.07-0.06-0.1-0.09
		C90.12,469.74,90.15,469.77,90.19,469.81 M284.6,327.64c0-0.01,0.01-0.01,0.01-0.02C284.61,327.63,284.6,327.64,284.6,327.64"/>
	<path class="st0" d="M203.76,529.91L203.76,529.91L203.76,529.91L203.76,529.91C203.76,529.92,203.76,529.92,203.76,529.91
		 M92.88,472.17c-0.01-0.01-0.03-0.02-0.04-0.03C92.85,472.15,92.87,472.16,92.88,472.17 M92.75,472.06
		c-0.01-0.01-0.03-0.03-0.04-0.04C92.73,472.04,92.74,472.05,92.75,472.06 M92.61,471.94c-0.03-0.03-0.06-0.05-0.09-0.08
		C92.55,471.89,92.58,471.91,92.61,471.94 M92.51,471.85c-0.78-0.68-1.55-1.36-2.33-2.05c0.54,0.48,1.07,0.95,1.62,1.43
		C92.04,471.44,92.28,471.65,92.51,471.85 M90.08,469.71c-0.01,0-0.01-0.01-0.02-0.02C90.07,469.7,90.08,469.71,90.08,469.71
		 M257.57,335.5L257.57,335.5L257.57,335.5c-0.17-0.29-0.33-0.59-0.5-0.89c0,0,0-0.01-0.01-0.01c-0.01-0.01-0.01-0.02-0.02-0.03
		c-0.01-0.02-0.02-0.04-0.03-0.06v0c-0.29-0.53-0.59-1.07-0.89-1.62C256.61,333.78,257.1,334.65,257.57,335.5L257.57,335.5
		 M284.59,327.66c0-0.01,0.01-0.01,0.01-0.02C284.6,327.65,284.59,327.66,284.59,327.66 M284.61,327.63
		c0.12-0.24,0.24-0.48,0.36-0.71c-0.07,0.14-0.13,0.27-0.2,0.4C284.71,327.42,284.66,327.52,284.61,327.63 M252.42,325.63
		c-1.71-3.54-3.4-7.28-4.95-11.08c0,0,0,0,0,0C249.03,318.35,250.7,322.08,252.42,325.63L252.42,325.63 M296.06,298.81
		C296.05,298.81,296.05,298.81,296.06,298.81c1.55-5.49,2.56-10.7,2.77-15.19c0,0,0.01,0,0.01,0
		C298.63,288.11,297.61,293.32,296.06,298.81"/>
	<path class="st1" d="M272.89,537.89c27.62-0.4,54.21-5.01,79.22-13.14c53.14-105.07-14.76-189.67-56.05-225.94
		c1.55-5.49,2.57-10.7,2.78-15.19c55.77,14.01,127.36,66.77,154.42,181.13C406,509.25,342.69,536.89,272.89,537.89 M203.76,529.91
		L203.76,529.91c72.86-60.43,86.32-126.04,83.14-173.89C290.09,403.88,276.62,469.49,203.76,529.91 M91.8,471.23
		c-0.54-0.48-1.08-0.95-1.62-1.43c-0.03-0.03-0.07-0.06-0.1-0.09c-0.01-0.01-0.01-0.01-0.02-0.02
		c-46.31-41.3-78.18-98.38-87.3-162.79c57.81,16.51,116.68,29.04,164.53,29.04c33.52,0,61.63-6.15,80.18-21.4
		c1.55,3.8,3.23,7.54,4.95,11.08c-42.34,71.89-145.49,85.5-203.51,97.77C61.29,440.99,75.67,457.08,91.8,471.23 M257.57,335.5
		c-0.17-0.29-0.33-0.59-0.5-0.89C257.24,334.9,257.41,335.2,257.57,335.5L257.57,335.5 M257.07,334.59
		c-0.01-0.01-0.01-0.02-0.02-0.03C257.05,334.57,257.06,334.58,257.07,334.59 M257.02,334.5C257.02,334.5,257.02,334.5,257.02,334.5
		L257.02,334.5 M283.41,329.98L283.41,329.98c0.39-0.76,0.79-1.53,1.18-2.32c0-0.01,0.01-0.01,0.01-0.02c0-0.01,0.01-0.01,0.01-0.02
		c0.05-0.1,0.1-0.21,0.15-0.31C284.32,328.22,283.87,329.11,283.41,329.98"/>
	<path class="st0" d="M268.96,537.92c-22.49,0-44.31-2.8-65.19-8l0,0c15.44,3.84,31.39,6.38,47.75,7.44
		C257.28,537.72,263.1,537.91,268.96,537.92L268.96,537.92L268.96,537.92c0.04,0,0.07,0,0.11,0c0.01,0,0.01,0,0.02,0
		c0.03,0,0.06,0,0.09,0c0.01,0,0.02,0,0.03,0c0.03,0,0.05,0,0.08,0c0.01,0,0.02,0,0.03,0c0.03,0,0.05,0,0.07,0c0.01,0,0.03,0,0.04,0
		c0.02,0,0.04,0,0.07,0c0.01,0,0.04,0,0.04,0c0.02,0,0.04,0,0.06,0c0.01,0,0.04,0,0.05,0c0.02,0,0.04,0,0.05,0c0.02,0,0.04,0,0.05,0
		c0.02,0,0.03,0,0.05,0c0.03,0,0.03,0,0.06,0c0.01,0,0.03,0,0.05,0c0.02,0,0.05,0,0.06,0c0.01,0,0.03,0,0.04,0c0.03,0,0.04,0,0.07,0
		c0.01,0,0.02,0,0.04,0c0.02,0,0.05,0,0.07,0c0.01,0,0.02,0,0.03,0c0.03,0,0.05,0,0.08,0c0.01,0,0.01,0,0.02,0c0.04,0,0.05,0,0.09,0
		c0.01,0,0.01,0,0.02,0c0.04,0,0.06,0,0.09,0h0.01c0.69,0,1.37-0.01,2.06-0.02C271.38,537.91,270.17,537.92,268.96,537.92
		 M93,472.28c-0.04-0.04-0.08-0.07-0.12-0.11C92.92,472.21,92.96,472.24,93,472.28c75.2-25.46,137.64-59.76,164.57-136.78l0,0
		C230.65,412.52,168.21,446.81,93,472.28 M92.84,472.14c-0.03-0.02-0.06-0.05-0.09-0.08C92.79,472.09,92.81,472.11,92.84,472.14
		 M92.71,472.03c-0.03-0.03-0.07-0.06-0.1-0.09C92.65,471.97,92.68,472,92.71,472.03 M92.52,471.86
		C92.52,471.86,92.52,471.86,92.52,471.86C92.52,471.86,92.52,471.86,92.52,471.86 M256.13,332.88c-1.24-2.29-2.48-4.72-3.71-7.26
		l0,0C253.65,328.16,254.9,330.6,256.13,332.88 M284.97,326.91c4.32-8.75,8.46-18.82,11.08-28.11l0,0
		C293.43,308.09,289.28,318.16,284.97,326.91"/>
	<path class="st1" d="M268.96,537.91c-5.86,0-11.68-0.19-17.44-0.56C257.28,537.72,263.1,537.91,268.96,537.91L268.96,537.91
		 M269.06,537.91c0.01,0,0.01,0,0.02,0C269.07,537.91,269.07,537.91,269.06,537.91 M269.17,537.91c0.01,0,0.02,0,0.03,0
		C269.19,537.91,269.18,537.91,269.17,537.91 M269.28,537.91c0.01,0,0.03,0,0.03,0C269.3,537.91,269.29,537.91,269.28,537.91
		 M269.38,537.91c0.01,0,0.03,0,0.04,0C269.42,537.91,269.39,537.91,269.38,537.91 M269.49,537.91c0.01,0,0.03,0,0.04,0
		C269.53,537.91,269.5,537.91,269.49,537.91 M269.6,537.91c0.02,0,0.03,0,0.05,0C269.64,537.91,269.61,537.91,269.6,537.91
		 M269.7,537.91c0.02,0,0.04,0,0.05,0C269.74,537.91,269.72,537.91,269.7,537.91 M269.81,537.91c0.02,0,0.04,0,0.06,0
		C269.84,537.91,269.83,537.91,269.81,537.91 M269.91,537.91c0.02,0,0.04,0,0.06,0C269.96,537.91,269.93,537.91,269.91,537.91
		 M270.02,537.91c0.02,0,0.05,0,0.07,0C270.06,537.91,270.04,537.91,270.02,537.91 M270.12,537.91c0.03,0,0.05,0,0.07,0
		C270.18,537.91,270.14,537.91,270.12,537.91 M270.22,537.91c0.03,0,0.05,0,0.08,0C270.28,537.91,270.25,537.91,270.22,537.91
		 M270.32,537.91c0.03,0,0.06,0,0.09,0C270.38,537.91,270.36,537.91,270.32,537.91 M270.43,537.91c0.03,0,0.06,0,0.09,0
		C270.48,537.91,270.46,537.91,270.43,537.91 M270.53,537.91c0.79,0,1.58-0.01,2.36-0.02c-0.1,0-0.2,0-0.3,0
		C271.9,537.9,271.22,537.91,270.53,537.91 M286.91,356.02c-0.63-9.43-1.9-18.16-3.49-26.04l0,0
		C285.01,337.86,286.28,346.59,286.91,356.02"/>
	<path class="st1" d="M268.96,537.91L268.96,537.91c0.04,0,0.07,0,0.11,0C269.03,537.91,268.99,537.91,268.96,537.91 M269.08,537.91
		c0.03,0,0.06,0,0.09,0C269.15,537.91,269.11,537.91,269.08,537.91 M269.2,537.91c0.03,0,0.05,0,0.08,0
		C269.25,537.91,269.23,537.91,269.2,537.91 M269.31,537.91c0.03,0,0.05,0,0.07,0C269.36,537.91,269.34,537.91,269.31,537.91
		 M269.43,537.91c0.03,0,0.04,0,0.07,0C269.47,537.91,269.45,537.91,269.43,537.91 M269.54,537.91c0.03,0,0.03,0,0.06,0
		C269.57,537.91,269.56,537.91,269.54,537.91 M269.65,537.91c0.02,0,0.04,0,0.05,0C269.68,537.91,269.67,537.91,269.65,537.91
		 M269.76,537.91c0.02,0,0.03,0,0.05,0C269.79,537.91,269.77,537.91,269.76,537.91 M269.87,537.91c0.01,0,0.04,0,0.05,0
		C269.9,537.91,269.88,537.91,269.87,537.91 M269.98,537.91c0.02,0,0.02,0,0.04,0C270,537.91,269.99,537.91,269.98,537.91
		 M270.09,537.91c0.01,0,0.03,0,0.04,0C270.11,537.91,270.1,537.91,270.09,537.91 M270.19,537.91c0.02,0,0.01,0,0.03,0
		C270.22,537.91,270.2,537.91,270.19,537.91 M270.31,537.91h0.02C270.32,537.91,270.31,537.91,270.31,537.91 M270.41,537.91l0.02,0
		C270.42,537.91,270.42,537.91,270.41,537.91 M270.52,537.91L270.52,537.91L270.52,537.91 M251.52,537.35
		c-16.36-1.06-32.31-3.59-47.75-7.44c0,0,0,0,0,0C219.2,533.76,235.16,536.29,251.52,537.35 M93,472.28
		c-0.04-0.03-0.08-0.07-0.12-0.11c-0.01-0.01-0.03-0.02-0.04-0.03c-0.03-0.03-0.06-0.05-0.09-0.08c-0.01-0.01-0.03-0.02-0.04-0.04
		c-0.04-0.03-0.07-0.06-0.1-0.09c-0.03-0.03-0.06-0.05-0.09-0.08c0,0-0.01,0-0.01-0.01c-0.24-0.21-0.47-0.41-0.71-0.62
		C92.2,471.58,92.6,471.93,93,472.28c75.2-25.47,137.64-59.76,164.57-136.78l0,0C230.65,412.52,168.21,446.81,93,472.28
		 M257.07,334.6c0,0,0-0.01-0.01-0.01C257.07,334.59,257.07,334.6,257.07,334.6 M257.05,334.56c-0.01-0.02-0.02-0.04-0.03-0.06
		C257.03,334.52,257.04,334.54,257.05,334.56 M257.02,334.5c-1.52-2.74-3.07-5.73-4.6-8.87c0,0,0,0,0,0
		c1.23,2.54,2.48,4.97,3.71,7.26C256.43,333.43,256.72,333.97,257.02,334.5 M284.76,327.32c0.07-0.14,0.13-0.27,0.2-0.4
		c4.32-8.75,8.46-18.83,11.08-28.11c0,0,0,0,0.01,0.01C293.39,308.23,289.15,318.48,284.76,327.32"/>
	<path class="st2" d="M268.96,537.91c-5.86,0-11.68-0.19-17.44-0.56c-16.36-1.06-32.32-3.59-47.75-7.44
		c72.86-60.43,86.32-126.04,83.14-173.89c-0.63-9.43-1.9-18.16-3.49-26.04c0.45-0.87,0.9-1.76,1.35-2.67
		c4.39-8.84,8.62-19.08,11.29-28.51c41.28,36.27,109.19,120.88,56.05,225.94c-25.01,8.12-51.6,12.73-79.22,13.14
		c-0.79,0.01-1.57,0.02-2.36,0.02h-0.01c-0.03,0-0.06,0-0.09,0l-0.02,0c-0.03,0-0.06,0-0.09,0h-0.02c-0.03,0-0.05,0-0.08,0
		c-0.02,0-0.01,0-0.03,0c-0.03,0-0.05,0-0.07,0c-0.01,0-0.03,0-0.04,0c-0.02,0-0.05,0-0.07,0c-0.02,0-0.02,0-0.04,0
		c-0.02,0-0.04,0-0.06,0c-0.01,0-0.04,0-0.05,0c-0.02,0-0.04,0-0.06,0c-0.02,0-0.03,0-0.05,0c-0.02,0-0.04,0-0.05,0
		c-0.02,0-0.04,0-0.05,0c-0.02,0-0.03,0-0.05,0c-0.03,0-0.03,0-0.06,0c-0.01,0-0.03,0-0.04,0c-0.03,0-0.04,0-0.07,0
		c-0.01,0-0.03,0-0.04,0c-0.03,0-0.05,0-0.07,0c-0.01,0-0.03,0-0.03,0c-0.03,0-0.05,0-0.08,0c-0.01,0-0.02,0-0.03,0
		c-0.03,0-0.06,0-0.09,0c-0.01,0-0.01,0-0.02,0C269.03,537.91,268.99,537.91,268.96,537.91 M93,472.28c-0.4-0.35-0.8-0.7-1.2-1.05
		c-16.14-14.15-30.51-30.24-42.9-47.83c58.02-12.27,161.18-25.89,203.51-97.77c1.52,3.14,3.07,6.13,4.6,8.87c0,0,0,0,0,0
		c0.01,0.02,0.02,0.04,0.03,0.06c0.01,0.01,0.01,0.02,0.02,0.03c0,0,0,0.01,0.01,0.01c0.17,0.3,0.34,0.6,0.5,0.89
		C230.65,412.52,168.2,446.81,93,472.28"/>
	<path class="st3" d="M315.43,130.86C315.43,94.53,269,29.72,269,29.72s-46.42,64.81-46.42,101.14
		c0,36.33,46.42,103.95,46.42,135.23C269,234.81,315.43,167.19,315.43,130.86L315.43,130.86z"/>
	<path class="st3" d="M289.19,226.28c13.75,6.35,34.83,19.39,34.83,39.81c19.54-35.09-4.4-70.16-15.3-83.34
		C302.34,197.38,295.1,212.42,289.19,226.28L289.19,226.28z"/>
	<path class="st3" d="M248.72,226.28c-13.75,6.35-34.83,19.39-34.83,39.81c-19.54-35.09,4.4-70.16,15.3-83.34
		C235.57,197.38,242.81,212.42,248.72,226.28L248.72,226.28z"/>
	<path class="st3" d="M298.88,281.97c0-16.57-6.95-30.84-17-37.56c-1.35,2.65-2.95,6.34-4.54,10.47c6.5,4.36,11,13.61,11,24.35
		c0,14.93-15.71,44.2-19.38,44.2c-3.67,0-19.38-29.27-19.38-44.2c0-11.03,4.74-20.5,11.53-24.7c0.11,0.23,0.22,0.49,0.34,0.74
		c-1.6-4.53-3.21-8.57-4.54-11.37c-10.46,6.48-17.77,21.08-17.77,38.08c0,23.01,24.22,68.13,29.87,68.13
		C274.66,350.09,298.88,304.98,298.88,281.97L298.88,281.97z"/>
</g>
</svg>
