<?xml version="1.0" encoding="utf-8"?>
<!-- Generator: Adobe Illustrator 28.2.0, SVG Export Plug-In . SVG Version: 6.00 Build 0)  -->
<svg version="1.1" id="Layer_1" xmlns="http://www.w3.org/2000/svg" xmlns:xlink="http://www.w3.org/1999/xlink" x="0px" y="0px"
	 viewBox="0 0 720 413.4" style="enable-background:new 0 0 720 413.4;" xml:space="preserve">
<style type="text/css">
	.st0{fill:#FFFFFF;}
</style>
<g>
	<path class="st0" d="M80.6,411.9l-39.4-84.5h-1.9L0,411.9h9.6l8.4-18.9h44.6l8.6,18.9H80.6L80.6,411.9z M59.6,385.9H21l19.3-42.3
		L59.6,385.9L59.6,385.9z"/>
	<polygon class="st0" points="90.7,411.9 99.5,411.9 99.5,328.9 90.7,328.9 90.7,411.9 	"/>
	<path class="st0" d="M176.2,371.9c10.6-1.6,18.5-8.6,18.5-20.1c0-14.9-11.5-22.9-30-22.9h-17.4v83.1h8.8v-36.8h7.8
		c20.9,0,19.4,36.8,45.4,36.8l1.6-8.8C192.9,403.4,189.6,376.2,176.2,371.9L176.2,371.9z M164.6,368.1h-8.6V336h9.4
		c12.9,0,20.5,5.5,20.5,16.1C185.9,362.8,178,368.1,164.6,368.1L164.6,368.1z"/>
	<path class="st0" d="M342.3,411.9l-39.4-84.5H301l-39.4,84.5h9.6l8.4-18.9h44.6l8.6,18.9H342.3L342.3,411.9z M321.2,385.9h-38.6
		l19.3-42.3L321.2,385.9L321.2,385.9z"/>
	<path class="st0" d="M422.8,370.4c0-23.2-14.5-41.5-49.7-41.5h-20.8v83.1h20.8C408.3,411.9,422.8,393.5,422.8,370.4L422.8,370.4z
		 M413.9,370.3c0,19.2-12.2,34.2-40.1,34.2h-12.7v-68.3h12.7C401.8,336.1,413.9,351.1,413.9,370.3L413.9,370.3z"/>
	<polygon class="st0" points="437.5,411.9 446.4,411.9 446.4,328.9 437.5,328.9 437.5,411.9 	"/>
	<polygon class="st0" points="545.6,328.9 545.6,337.7 593.9,337.7 593.9,328.9 545.6,328.9 	"/>
	<polygon class="st0" points="209.2,328.9 209.2,337.7 257.5,337.7 257.5,328.9 209.2,328.9 	"/>
	<polygon class="st0" points="545.6,366.1 545.6,375 593.9,375 593.9,366.1 545.6,366.1 	"/>
	<polygon class="st0" points="209.2,366.1 209.2,375 257.5,375 257.5,366.1 209.2,366.1 	"/>
	<polygon class="st0" points="545.6,403.1 545.6,411.9 593.9,411.9 593.9,403.1 545.6,403.1 	"/>
	<polygon class="st0" points="209.2,403.1 209.2,411.9 257.5,411.9 257.5,403.1 209.2,403.1 	"/>
	<polygon class="st0" points="533.4,413 535.4,413 535.4,328.9 526.6,328.9 526.6,394.4 466.9,327.5 465.1,327.5 465.1,411.9 
		474,411.9 474,346.6 533.4,413 	"/>
	<path class="st0" d="M651.4,334.5c-5.1-3.8-12.7-6.8-21.7-6.8c-14.9,0-25.9,7.5-25.9,20.5c0,27.2,44.1,18,44.1,41.4
		c0,9.4-7,16.3-19.4,16.3c-7.5,0-16.3-2.8-24.1-8.3l-3.8,6.7c9.5,6.8,18.8,9.1,28,9.1c16.9,0,28-9.9,28-23.8
		c0-29.9-43.9-20.9-43.9-41.5c0-9.5,9.4-12.7,17.4-12.7c7.6,0,15,2.9,20.8,7.2C651,339.9,651.3,337.2,651.4,334.5L651.4,334.5z"/>
	<path class="st0" d="M714.8,334.5c-5.1-3.8-12.7-6.8-21.7-6.8c-14.9,0-25.9,7.5-25.9,20.5c0,27.2,44.1,18,44.1,41.4
		c0,9.4-7,16.3-19.4,16.3c-7.5,0-16.3-2.8-24.1-8.3l-3.8,6.7c9.5,6.8,18.8,9.1,28,9.1c16.9,0,28-9.9,28-23.8
		c0-29.9-43.9-20.9-43.9-41.5c0-9.5,9.4-12.7,17.4-12.7c7.6,0,15,2.9,20.8,7.2C714.4,339.9,714.6,337.2,714.8,334.5L714.8,334.5z"/>
	<path class="st0" d="M348.8,48.1L324.9,0H316L198.6,235.5h58.8L348.8,48.1L348.8,48.1z M333.1,132.5l50.3,103h58.9L361.7,73.9
		L333.1,132.5L333.1,132.5z"/>
	<path class="st0" d="M402.2,0h-7.1h-46l26.8,53.9L402.2,0L402.2,0z M388.8,79.8l77.5,155.7h55.1L416,24L388.8,79.8L388.8,79.8z"/>
</g>
</svg>
