<?xml version="1.0" encoding="utf-8"?>
<!-- Generator: Adobe Illustrator 26.0.1, SVG Export Plug-In . SVG Version: 6.00 Build 0)  -->
<svg version="1.1" id="Layer_1" xmlns="http://www.w3.org/2000/svg" xmlns:xlink="http://www.w3.org/1999/xlink" x="0px" y="0px"
	 viewBox="0 0 721.15 145.75" style="enable-background:new 0 0 721.15 145.75;" xml:space="preserve">
<style type="text/css">
	.st0{fill:#FFFFFF;}
</style>
<g>
	<path class="st0" d="M145.75,141.22V4.53c0-2.5-2.03-4.53-4.53-4.53H4.53C2.03,0,0,2.03,0,4.53v136.69c0,2.5,2.03,4.53,4.53,4.53
		h136.69C143.72,145.75,145.75,143.72,145.75,141.22L145.75,141.22z M104.15,91.12c0,6.44-3.69,11.92-9.64,14.81l-21.63,11.25
		l-21.71-11.29c-5.86-2.85-9.56-8.33-9.56-14.77V79.39l13.03,3.91v7.82c0,1.41,0.89,2.4,2.31,3.09l15.93,7.98l15.85-7.94
		c1.51-0.74,2.39-1.72,2.39-3.14V80.69L41.6,66.36v-23.4c0-3.19,1.73-6.19,4.5-7.83c4.16-2.45,13.17-6.56,26.77-6.56
		c13.6,0,22.61,4.11,26.77,6.56c2.78,1.64,4.5,4.64,4.5,7.83v15.58l-13.03-3.91v-9.29c-3.54-1.71-9.57-3.74-18.24-3.74
		c-8.67,0-14.7,2.03-18.24,3.74v11.9l49.51,14.33V91.12L104.15,91.12z"/>
	<path class="st0" d="M217.33,72.87c-10.48,0-19.46-3.41-27.53-8.48l4.99-7.57c8.07,5.15,15.47,7.65,23.78,7.65
		c9.73,0,14.3-3.74,14.3-8.15c0-12.64-41.17-5.07-41.17-25.2c0-9.81,9.81-17.55,25.61-17.55c10.65,0,19.88,3.99,25.28,9.4
		l-6.15,6.32c-4.66-4.08-11.81-7.32-19.29-7.32c-9.23,0-15.47,3.33-15.47,8.07c0,11.73,41.25,5.49,41.25,25.28
		C242.94,65.81,232.38,72.87,217.33,72.87L217.33,72.87z M283.28,48.67v22.2h-9.98V48.59l-24.95-33.1h11.64l18.71,25.61l17.71-25.61
		h11.48L283.28,48.67L283.28,48.67z M377.51,70.88V27.47l-2.74,5.9l-19.63,37.51h-5.99l-19.38-37.51l-2.74-5.9v43.41h-9.57V15.49
		h13.89l18.63,37.26l2.58,5.66l2.58-5.66l18.38-37.26h13.72v55.39H377.51L377.51,70.88z M441.52,31.96c0-4.57-3.08-7.98-10.65-7.98
		h-18.38v17.88h18.8c7.57,0,10.23-3.66,10.23-8.15V31.96L441.52,31.96z M429.79,50.01h-17.3v20.87h-9.98V15.49h27.28
		c15.14,0,21.79,6.82,21.79,16.47v1.5C451.58,43.1,444.93,50.01,429.79,50.01L429.79,50.01z M505.96,70.88V47.01h-33.35v23.87h-9.98
		V15.49h9.98v23.45h33.35V15.49h9.98v55.39H505.96L505.96,70.88z M576.2,39.78c0-9.48-6.57-17.63-18.71-17.63
		c-12.15,0-18.63,8.15-18.63,17.63v6.74c0,9.48,6.48,17.8,18.63,17.8c12.14,0,18.71-8.32,18.71-17.8V39.78L576.2,39.78z
		 M557.48,72.87c-17.8,0-28.69-12.64-28.69-26.2v-6.9c0-13.81,10.9-26.2,28.69-26.2c17.88,0,28.77,12.39,28.77,26.2v6.9
		C586.26,60.23,575.36,72.87,557.48,72.87L557.48,72.87z M643.88,70.88l-31.02-35.01l-3.99-5.16v40.17h-9.9V15.49h9.23l30.02,35.1
		l4.08,5.16V15.49h9.81v55.39H643.88L643.88,70.88z M696.53,48.67v22.2h-9.98V48.59l-24.95-33.1h11.65l18.71,25.61l17.71-25.61
		h11.48L696.53,48.67L696.53,48.67z"/>
	<path class="st0" d="M223.06,131.72c2.45-1.07,4.57-2.36,6.35-3.88v-15.02h-15.02v6.57h7.66v4.98c-1.94,1.39-4.33,2.09-7.16,2.09
		c-1.55,0-2.96-0.27-4.22-0.82c-1.27-0.54-2.37-1.31-3.31-2.3c-0.94-0.99-1.66-2.15-2.17-3.49c-0.51-1.34-0.77-2.8-0.77-4.38v-0.1
		c0-1.49,0.25-2.88,0.77-4.18c0.51-1.3,1.22-2.44,2.12-3.42c0.91-0.97,1.96-1.75,3.16-2.33c1.2-0.58,2.5-0.87,3.88-0.87
		c0.99,0,1.89,0.08,2.72,0.25c0.82,0.16,1.59,0.39,2.3,0.69c0.71,0.3,1.39,0.66,2.05,1.09c0.66,0.43,1.32,0.92,1.98,1.48l4.79-5.78
		c-0.89-0.76-1.81-1.43-2.77-2.03c-0.96-0.59-1.98-1.09-3.06-1.48c-1.09-0.39-2.27-0.7-3.53-0.91c-1.27-0.21-2.68-0.32-4.22-0.32
		c-2.64,0-5.06,0.47-7.26,1.41s-4.12,2.22-5.73,3.85c-1.61,1.63-2.87,3.53-3.78,5.68c-0.91,2.16-1.36,4.47-1.36,6.94v0.1
		c0,2.57,0.45,4.94,1.33,7.12c0.89,2.17,2.13,4.05,3.73,5.63c1.6,1.58,3.51,2.82,5.73,3.71c2.22,0.89,4.69,1.33,7.39,1.33
		C217.8,133.33,220.61,132.79,223.06,131.72L223.06,131.72z M237.42,132.74h26.29v-6.77h-18.78v-7.26h16.31v-6.77h-16.31v-7.02
		h18.53v-6.77h-26.04V132.74L237.42,132.74z M271.21,132.74h7.51v-21.99l16.75,21.99h6.47V98.15h-7.51v21.3l-16.21-21.3h-7.02
		V132.74L271.21,132.74z M310.94,132.74h26.29v-6.77h-18.78v-7.26h16.31v-6.77h-16.31v-7.02h18.53v-6.77h-26.04V132.74
		L310.94,132.74z M352.35,114.95v-9.93h7.56c1.88,0,3.34,0.41,4.4,1.24c1.05,0.82,1.58,2.06,1.58,3.71v0.1
		c0,1.48-0.5,2.67-1.51,3.56c-1,0.89-2.45,1.33-4.32,1.33H352.35L352.35,114.95z M344.74,132.74h7.61v-11.07h5.88h0.1l7.41,11.07
		h8.89l-8.45-12.35c2.21-0.82,3.99-2.12,5.36-3.88c1.37-1.76,2.05-4.04,2.05-6.84v-0.1c0-3.29-0.99-5.93-2.96-7.91
		c-2.34-2.34-5.7-3.51-10.08-3.51h-15.81V132.74L344.74,132.74z M391.83,118.26l4.6-11.22l4.6,11.22H391.83L391.83,118.26z
		 M378.19,132.74h7.76l3.16-7.76h14.63l3.16,7.76h7.95L400.03,97.9h-7.02L378.19,132.74L378.19,132.74z M428.94,132.74h7.61v-27.57
		h10.52v-7.02h-28.66v7.02h10.52V132.74L428.94,132.74z M466.27,125.45c-1.27-0.58-2.37-1.36-3.31-2.35
		c-0.94-0.99-1.66-2.14-2.17-3.46c-0.51-1.32-0.77-2.72-0.77-4.2v-0.1c0-1.48,0.25-2.87,0.77-4.18c0.51-1.3,1.22-2.45,2.12-3.43
		s1.99-1.76,3.26-2.32c1.27-0.56,2.68-0.84,4.22-0.84c1.51,0,2.92,0.29,4.2,0.86c1.29,0.58,2.4,1.36,3.34,2.35
		c0.94,0.99,1.66,2.14,2.17,3.46c0.51,1.32,0.77,2.72,0.77,4.2v0.1c0,1.48-0.26,2.87-0.77,4.18c-0.51,1.3-1.22,2.45-2.12,3.43
		s-2,1.76-3.29,2.32c-1.28,0.56-2.68,0.84-4.2,0.84C468.95,126.31,467.54,126.02,466.27,125.45L466.27,125.45z M477.78,131.92
		c2.26-0.94,4.2-2.22,5.83-3.86c1.63-1.63,2.91-3.52,3.83-5.68c0.92-2.16,1.38-4.47,1.38-6.94v-0.1c0-2.47-0.45-4.79-1.36-6.94
		c-0.91-2.16-2.17-4.04-3.8-5.63c-1.63-1.6-3.57-2.87-5.81-3.8c-2.24-0.94-4.69-1.41-7.36-1.41c-2.67,0-5.13,0.47-7.39,1.41
		c-2.26,0.94-4.2,2.22-5.83,3.85c-1.63,1.63-2.91,3.53-3.83,5.68c-0.92,2.16-1.38,4.47-1.38,6.94v0.1c0,2.47,0.45,4.79,1.36,6.94
		c0.91,2.16,2.17,4.03,3.8,5.63c1.63,1.6,3.57,2.87,5.81,3.81c2.24,0.94,4.69,1.41,7.36,1.41
		C473.06,133.33,475.53,132.86,477.78,131.92L477.78,131.92z M503.9,114.95v-9.93h7.56c1.88,0,3.34,0.41,4.4,1.24
		c1.05,0.82,1.58,2.06,1.58,3.71v0.1c0,1.48-0.5,2.67-1.51,3.56c-1.01,0.89-2.45,1.33-4.32,1.33H503.9L503.9,114.95z M496.29,132.74
		h7.61v-11.07h5.88h0.1l7.41,11.07h8.9l-8.45-12.35c2.21-0.82,3.99-2.12,5.36-3.88c1.37-1.76,2.05-4.04,2.05-6.84v-0.1
		c0-3.29-0.99-5.93-2.96-7.91c-2.34-2.34-5.7-3.51-10.08-3.51h-15.81V132.74L496.29,132.74z"/>
</g>
</svg>
