<?xml version="1.0" encoding="utf-8"?>
<!-- Generator: Adobe Illustrator 25.0.0, SVG Export Plug-In . SVG Version: 6.00 Build 0)  -->
<svg version="1.1" id="Layer_1" xmlns="http://www.w3.org/2000/svg" xmlns:xlink="http://www.w3.org/1999/xlink" x="0px" y="0px"
	 viewBox="0 0 731.7 182.6" style="enable-background:new 0 0 731.7 182.6;" xml:space="preserve">
<style type="text/css">
	.st0{fill:#1C5E35;}
	.st1{fill:#47AF67;}
</style>
<g>
	<path class="st0" d="M239.2,131.2c4.7,0,7.6-2.8,7.6-6.3c0-3.4-2.1-4.9-4.7-6l-3.3-1.5c-1.7-0.8-3.8-1.6-3.8-3.9
		c0-2.1,1.8-3.5,4.4-3.5c2.1,0,3.9,0.9,5.2,2.2l1.4-1.6c-1.5-1.6-3.9-2.8-6.6-2.8c-4,0-7,2.5-7,5.9c0,3.3,2.5,4.9,4.6,5.8l3.3,1.5
		c2.2,1,3.9,1.7,3.9,4.2c0,2.3-1.9,3.9-5,3.9c-2.4,0-4.7-1.1-6.3-2.9l-1.6,1.8C233.3,129.9,236,131.2,239.2,131.2L239.2,131.2z
		 M256.5,130.8h2.6v-9.2h3.9c5,0,8.3-2.2,8.3-6.9c0-4.9-3.3-6.6-8.4-6.6h-6.3V130.8L256.5,130.8z M259.1,119.5v-9.3h3.4
		c4.1,0,6.3,1.1,6.3,4.5c0,3.4-2,4.8-6.1,4.8H259.1L259.1,119.5z M281.1,130.8h13.2v-2.2h-10.7v-8.7h8.7v-2.1h-8.7v-7.5H294v-2.2
		h-12.9V130.8L281.1,130.8z M312.8,131.2c2.9,0,5.1-1.2,6.9-3.3l-1.4-1.6c-1.5,1.7-3.2,2.6-5.4,2.6c-4.5,0-7.2-3.7-7.2-9.6
		c0-5.8,2.9-9.5,7.4-9.5c2,0,3.5,0.9,4.7,2.2l1.4-1.7c-1.3-1.4-3.4-2.8-6.1-2.8c-5.8,0-10,4.5-10,11.8
		C303,126.8,307.1,131.2,312.8,131.2L312.8,131.2z M329.2,130.8h2.5v-22.7h-2.5V130.8L329.2,130.8z M355.8,130.8h2.7l-7.7-22.7H348
		l-7.8,22.7h2.6l2.3-7.1h8.5L355.8,130.8L355.8,130.8z M345.7,121.6l1.2-3.7c0.9-2.6,1.6-5,2.3-7.7h0.1c0.8,2.7,1.5,5.1,2.3,7.7
		l1.2,3.7H345.7L345.7,121.6z M367,130.8h12.6v-2.2h-10v-20.5H367V130.8L367,130.8z M400.9,130.8h2.6v-22.7h-2.6V130.8L400.9,130.8z
		 M414.9,130.8h2.4v-12.4c0-2.3-0.2-4.7-0.3-6.9h0.1l2.5,4.7l8.6,14.7h2.6v-22.7h-2.4v12.3c0,2.3,0.2,4.8,0.3,7.1h-0.1l-2.5-4.7
		l-8.6-14.7h-2.6V130.8L414.9,130.8z M447.1,130.8h2.6v-20.5h6.9v-2.2h-16.5v2.2h7V130.8L447.1,130.8z M465.9,130.8h13.2v-2.2h-10.7
		v-8.7h8.7v-2.1h-8.7v-7.5h10.3v-2.2h-12.9V130.8L465.9,130.8z M504.5,130.8l-5.9-10c3.2-0.7,5.3-2.8,5.3-6.4c0-4.6-3.2-6.3-7.8-6.3
		h-6.9v22.7h2.5V121h4.3l5.6,9.8H504.5L504.5,130.8z M491.7,110.2h4c3.7,0,5.7,1.1,5.7,4.2c0,3-2,4.5-5.7,4.5h-4V110.2L491.7,110.2z
		 M513.8,130.8H527v-2.2h-10.7v-8.7h8.7v-2.1h-8.7v-7.5h10.3v-2.2h-12.9V130.8L513.8,130.8z M543.2,131.2c4.7,0,7.6-2.8,7.6-6.3
		c0-3.4-2.1-4.9-4.7-6l-3.3-1.5c-1.7-0.8-3.8-1.6-3.8-3.9c0-2.1,1.8-3.5,4.4-3.5c2.1,0,3.9,0.9,5.2,2.2l1.4-1.6
		c-1.5-1.6-3.9-2.8-6.6-2.8c-4,0-7,2.5-7,5.9c0,3.3,2.5,4.9,4.6,5.8l3.3,1.5c2.2,1,3.9,1.7,3.9,4.2c0,2.3-1.9,3.9-5,3.9
		c-2.4,0-4.7-1.1-6.4-2.9l-1.6,1.8C537.3,129.9,540,131.2,543.2,131.2L543.2,131.2z M564.6,130.8h2.5v-20.5h6.9v-2.2h-16.5v2.2h7
		V130.8L564.6,130.8z M604.2,131.2c3,0,5.5-1.1,6.9-2.6v-9.4h-7.3v2.1h5v6.2c-1,0.9-2.6,1.4-4.4,1.4c-4.9,0-7.7-3.7-7.7-9.6
		c0-5.8,3-9.5,7.7-9.5c2.3,0,3.8,1,5,2.2l1.4-1.7c-1.3-1.3-3.3-2.8-6.5-2.8c-6,0-10.3,4.5-10.3,11.8
		C594.1,126.8,598.3,131.2,604.2,131.2L604.2,131.2z M637.2,130.8l-5.9-10c3.2-0.7,5.3-2.8,5.3-6.4c0-4.6-3.2-6.3-7.8-6.3h-6.9v22.7
		h2.6V121h4.3l5.6,9.8H637.2L637.2,130.8z M624.4,110.2h4c3.7,0,5.7,1.1,5.7,4.2c0,3-2,4.5-5.7,4.5h-4V110.2L624.4,110.2z
		 M654.7,131.2c5.6,0,9.6-4.6,9.6-11.8c0-7.2-4-11.7-9.6-11.7c-5.7,0-9.6,4.4-9.6,11.7C645.1,126.6,649.1,131.2,654.7,131.2
		L654.7,131.2z M654.7,129c-4.2,0-7-3.8-7-9.6c0-5.8,2.8-9.4,7-9.4c4.2,0,6.9,3.6,6.9,9.4C661.7,125.2,658.9,129,654.7,129
		L654.7,129z M682.4,131.2c4.5,0,8-2.4,8-9.6v-13.5H688v13.5c0,5.6-2.5,7.4-5.6,7.4c-3,0-5.5-1.8-5.5-7.4v-13.5h-2.5v13.5
		C674.4,128.8,677.9,131.2,682.4,131.2L682.4,131.2z M701.8,130.8h2.6v-9.2h3.9c5,0,8.3-2.2,8.3-6.9c0-4.9-3.3-6.6-8.4-6.6h-6.3
		V130.8L701.8,130.8z M704.4,119.5v-9.3h3.3c4.1,0,6.3,1.1,6.3,4.5c0,3.4-2,4.8-6.1,4.8H704.4L704.4,119.5z"/>
	<path class="st1" d="M243.5,90.1l-8.1-14.3c3.9-1.6,6.5-4.9,6.5-10.1c0-8.2-5.9-10.8-13.4-10.8h-12.4v35.2h7.4V77h4.7l7,13H243.5
		L243.5,90.1z M223.5,60.8h4.4c4.4,0,6.8,1.2,6.8,4.9s-2.4,5.5-6.8,5.5h-4.4V60.8L223.5,60.8z M269.7,75.5c0-7.3-3.8-12.8-11.3-12.8
		c-6.4,0-12.5,5.3-12.5,14c0,8.8,5.8,14,13.4,14c3.2,0,6.7-1.1,9.3-3l-2.4-4.5c-1.9,1.1-3.8,1.8-5.9,1.8c-3.3,0-6.7-1.7-7.4-6.2
		h16.5C269.6,78.2,269.7,76.9,269.7,75.5L269.7,75.5z M253,74c0.8-4,3.2-5.6,5.6-5.6c3.3,0,4.8,2.2,4.8,5.6H253L253,74z
		 M284.8,101.6c9,0,14.7-4,14.7-9.5c0-4.7-3.6-6.7-10-6.7h-4.5c-3,0-4.1-0.8-4.1-2.1c0-1,0.4-1.6,1.1-2.2c1.2,0.4,2.3,0.5,3.3,0.5
		c5.8,0,10.4-2.9,10.4-9c0-1.5-0.5-3-1.1-3.8h4.5v-5.4h-9.6c-1.2-0.4-2.6-0.6-4.1-0.6c-5.7,0-10.8,3.3-10.8,9.7c0,3.1,1.7,5.6,3.6,7
		v0.2c-1.7,1.1-3,3-3,5c0,2.2,1,3.6,2.4,4.5v0.2c-2.5,1.4-3.8,3.2-3.8,5.5C273.6,99.5,278.5,101.6,284.8,101.6L284.8,101.6z
		 M285.3,77.1c-2.2,0-3.9-1.7-3.9-4.7c0-3,1.7-4.6,3.9-4.6c2.3,0,4,1.6,4,4.6C289.3,75.5,287.5,77.1,285.3,77.1L285.3,77.1z
		 M285.9,96.9c-3.8,0-6.2-1.2-6.2-3.3c0-1,0.5-2,1.7-2.9c0.9,0.3,2,0.4,3.7,0.4h3.1c2.7,0,4.3,0.4,4.3,2.3
		C292.4,95.3,289.7,96.9,285.9,96.9L285.9,96.9z M311.9,90.7c3.6,0,6.1-1.7,8.4-4.4h0.2l0.5,3.8h6V63.4h-7.3v17.8
		c-1.7,2.3-3,3.2-5.1,3.2c-2.5,0-3.6-1.3-3.6-5.3V63.4h-7.3V80C303.6,86.7,306.1,90.7,311.9,90.7L311.9,90.7z M341.2,90.7
		c1.7,0,2.9-0.3,3.8-0.6l-0.9-5.5c-0.4,0.1-0.6,0.1-1,0.1c-0.6,0-1.4-0.5-1.4-2.2V52.2h-7.3v30.1C334.4,87.4,336.2,90.7,341.2,90.7
		L341.2,90.7z M356.2,90.7c3,0,5.6-1.5,7.9-3.5h0.2l0.5,2.8h6V74.7c0-7.9-3.6-11.9-10.4-11.9c-4.2,0-8,1.5-11.2,3.5l2.6,4.9
		c2.5-1.5,4.8-2.5,7.2-2.5c3.1,0,4.3,1.8,4.4,4.3c-10.7,1.1-15.2,4.2-15.2,9.8C348.2,87.3,351.4,90.7,356.2,90.7L356.2,90.7z
		 M358.6,85c-2,0-3.3-0.9-3.3-2.9c0-2.2,2-3.9,8.1-4.7v5.1C361.9,84,360.5,85,358.6,85L358.6,85z M386.8,90.7c2.4,0,4.3-0.5,5.8-1
		l-1.2-5.4c-0.8,0.3-1.7,0.5-2.6,0.5c-2.2,0-3.6-1.3-3.6-4.4V69.2h6.5v-5.8h-6.5v-7.1h-6.1l-0.9,7.1l-4.1,0.3v5.5h3.7v11.4
		C377.8,86.6,380.3,90.7,386.8,90.7L386.8,90.7z M400.7,59.2c2.4,0,4.2-1.6,4.2-3.9c0-2.3-1.7-3.9-4.2-3.9c-2.4,0-4.2,1.6-4.2,3.9
		C396.6,57.6,398.3,59.2,400.7,59.2L400.7,59.2z M397.1,90.1h7.3V63.4h-7.3V90.1L397.1,90.1z M423,90.7c6.7,0,12.9-5.1,12.9-14
		c0-8.9-6.2-14-12.9-14c-6.7,0-12.9,5.1-12.9,14C410.1,85.6,416.3,90.7,423,90.7L423,90.7z M423,84.7c-3.5,0-5.3-3.1-5.3-8
		c0-4.9,1.8-8,5.3-8c3.4,0,5.3,3.2,5.3,8C428.3,81.6,426.4,84.7,423,84.7L423,84.7z M441.5,90.1h7.3V71.9c1.9-1.8,3.2-2.8,5.3-2.8
		c2.5,0,3.6,1.3,3.6,5.3v15.7h7.4V73.5c0-6.7-2.5-10.7-8.2-10.7c-3.7,0-6.4,1.9-8.6,4.1h-0.2l-0.5-3.5h-6V90.1L441.5,90.1z
		 M483.5,90.1h7.4V54.9h-7.4V90.1L483.5,90.1z M498.8,90.1h7.3V71.9c1.9-1.8,3.2-2.8,5.3-2.8c2.5,0,3.6,1.3,3.6,5.3v15.7h7.4V73.5
		c0-6.7-2.5-10.7-8.2-10.7c-3.7,0-6.4,1.9-8.6,4.1h-0.2l-0.5-3.5h-6V90.1L498.8,90.1z M529.5,90.1h7.3V71.9c1.9-1.8,3.2-2.8,5.3-2.8
		c2.5,0,3.6,1.3,3.6,5.3v15.7h7.4V73.5c0-6.7-2.5-10.7-8.2-10.7c-3.7,0-6.4,1.9-8.6,4.1H536l-0.5-3.5h-6V90.1L529.5,90.1z
		 M571.4,90.7c6.7,0,12.9-5.1,12.9-14c0-8.9-6.2-14-12.9-14c-6.7,0-12.9,5.1-12.9,14C558.5,85.6,564.6,90.7,571.4,90.7L571.4,90.7z
		 M571.4,84.7c-3.5,0-5.3-3.1-5.3-8c0-4.9,1.8-8,5.3-8c3.5,0,5.3,3.2,5.3,8C576.7,81.6,574.8,84.7,571.4,84.7L571.4,84.7z
		 M595.6,90.1h8.5l8.8-26.7h-7.1l-3.7,13c-0.7,2.6-1.5,5.4-2.2,8.1h-0.2c-0.7-2.7-1.4-5.5-2.1-8.1l-3.7-13h-7.4L595.6,90.1
		L595.6,90.1z M622.7,90.7c3,0,5.6-1.5,7.9-3.5h0.2l0.5,2.8h6V74.7c0-7.9-3.6-11.9-10.4-11.9c-4.2,0-8,1.5-11.2,3.5l2.6,4.9
		c2.5-1.5,4.8-2.5,7.2-2.5c3.1,0,4.3,1.8,4.4,4.3c-10.7,1.1-15.2,4.2-15.2,9.8C614.8,87.3,617.9,90.7,622.7,90.7L622.7,90.7z
		 M625.2,85c-2,0-3.3-0.9-3.3-2.9c0-2.2,2-3.9,8.1-4.7v5.1C628.4,84,627.1,85,625.2,85L625.2,85z M653.4,90.7c2.4,0,4.3-0.5,5.8-1
		l-1.2-5.4c-0.8,0.3-1.7,0.5-2.6,0.5c-2.2,0-3.6-1.3-3.6-4.4V69.2h6.5v-5.8h-6.5v-7.1h-6.1l-0.9,7.1l-4.1,0.3v5.5h3.7v11.4
		C644.4,86.6,646.9,90.7,653.4,90.7L653.4,90.7z M667.3,59.2c2.4,0,4.2-1.6,4.2-3.9c0-2.3-1.7-3.9-4.2-3.9s-4.2,1.6-4.2,3.9
		C663.2,57.6,664.9,59.2,667.3,59.2L667.3,59.2z M663.7,90.1h7.3V63.4h-7.3V90.1L663.7,90.1z M689.6,90.7c6.7,0,12.9-5.1,12.9-14
		c0-8.9-6.2-14-12.9-14c-6.7,0-12.9,5.1-12.9,14C676.7,85.6,682.8,90.7,689.6,90.7L689.6,90.7z M689.6,84.7c-3.5,0-5.3-3.1-5.3-8
		c0-4.9,1.8-8,5.3-8c3.4,0,5.3,3.2,5.3,8C694.9,81.6,693,84.7,689.6,84.7L689.6,84.7z M708.1,90.1h7.3V71.9c1.9-1.8,3.2-2.8,5.3-2.8
		c2.5,0,3.6,1.3,3.6,5.3v15.7h7.4V73.5c0-6.7-2.5-10.7-8.2-10.7c-3.7,0-6.4,1.9-8.6,4.1h-0.2l-0.5-3.5h-6V90.1L708.1,90.1z"/>
	<path class="st1" d="M182.6,91.3C182.6,40.9,141.7,0,91.3,0c-0.3,0-0.6,0-0.9,0l30.1,46.8h-16.2c0.2,12.9,1.4,16.7,10.8,24.5
		c23.3,19.7,24,51.8-0.1,71.2c-7.8-6.7-16.8-12.2-23.9-17.8c6.9-5.5,11.9-11,11.9-17.7c0-5.7-3.6-10.5-8.8-15.1
		c-1-0.9-2.1-1.8-3.2-2.6C76.2,78,75,60.6,75.2,46.9H58.9L89,0.1C39.6,1.3,0,41.6,0,91.3c0,35.5,20.3,66.3,49.9,81.4
		c0.9-10.5,6.6-20.9,17.4-30.1c7.7,6.2,16.7,11,23.9,15.9c-2.9,2-5.4,3.9-7.3,5.8c-3.7,3.6-4.5,7.1-4.7,10.6
		c-0.1,2.3,0.1,4.7,1.3,7.1c3.5,0.4,7.2,0.7,10.8,0.7C141.7,182.6,182.6,141.7,182.6,91.3L182.6,91.3z"/>
	<path class="st0" d="M132.4,172.8c-0.8-10.5-6.6-21-17.4-30.2l0,0l0,0c-4.6-3.9-9.6-7.5-14.4-10.8c-3.3-2.4-6.6-4.6-9.5-6.9
		c-6.9-5.5-11.9-11-11.9-17.7c0-6,5.7-12.6,11.8-17.9c-8.9-6.8-12.9-15.8-14.6-24.8c-31.5,22.1-32.3,59.6-9.1,78.2
		c7.7,6.2,16.7,11,23.9,15.9c12.3,8.3,15.8,15.7,11,23.5C112.9,180.6,123.1,177.5,132.4,172.8L132.4,172.8z"/>
</g>
</svg>
