<?xml version="1.0" encoding="utf-8"?>
<!-- Generator: Adobe Illustrator 24.1.0, SVG Export Plug-In . SVG Version: 6.00 Build 0)  -->
<svg version="1.1" id="Layer_1" xmlns="http://www.w3.org/2000/svg" xmlns:xlink="http://www.w3.org/1999/xlink" x="0px" y="0px"
	 viewBox="0 0 720.27 425.79" style="enable-background:new 0 0 720.27 425.79;" xml:space="preserve">
<style type="text/css">
	.st0{opacity:0.6;fill:#FFFFFF;}
	.st1{fill:#FFFFFF;}
</style>
<g>
	<path class="st0" d="M484.66,425.79c-8.38,0-15.38-3.14-19.09-9.75l10.31-5.96c1.53,2.82,3.87,5.07,9.18,5.07
		c5.64,0,9.1-2.9,9.1-8.62v-3.71c-2.66,3.3-6.52,5.24-11.76,5.24c-11.44,0-19.82-9.34-19.82-20.46c0-11.12,8.38-20.46,19.82-20.46
		c5.24,0,9.1,1.93,11.76,5.24v-4.11h11.76v38.26C505.93,420.07,495.38,425.79,484.66,425.79 M653.41,378.91
		c-5.24,0-9.26,3.79-9.26,9.51c0,5.72,4.03,9.5,9.26,9.5c5.24,0,9.26-3.79,9.26-9.5C662.68,382.69,658.65,378.91,653.41,378.91
		 M436.42,378.91c-5.24,0-9.26,3.79-9.26,9.51c0,5.72,4.03,9.5,9.26,9.5c5.24,0,9.26-3.79,9.26-9.5
		C445.68,382.69,441.65,378.91,436.42,378.91 M484.42,378.26c-5.72,0-9.75,3.79-9.75,9.34c0,5.56,4.03,9.34,9.75,9.34
		c5.72,0,9.75-3.79,9.75-9.34C494.17,382.05,490.14,378.26,484.42,378.26 M348.54,377.86c-4.59,0-7.65,2.26-8.78,6.36h17.32
		C355.79,379.55,352.16,377.86,348.54,377.86 M294.97,364.25v14.5h9.67c3.54,0,6.44-3.14,6.44-7.25c0-4.11-2.9-7.25-6.44-7.25
		H294.97 M567.79,364.73c-3.95,0-7.25-3.3-7.25-7.25c0-3.95,3.3-7.25,7.25-7.25c3.95,0,7.25,3.3,7.25,7.25
		C575.04,361.43,571.74,364.73,567.79,364.73 M619.18,364.73c-3.95,0-7.25-3.3-7.25-7.25c0-3.95,3.3-7.25,7.25-7.25
		c3.95,0,7.25,3.3,7.25,7.25C626.43,361.43,623.13,364.73,619.18,364.73 M325.58,408.55h-13.85l-10.63-18.53h-6.12v18.53h-12.89
		v-56.38h22.55c10.71,0,19.33,8.62,19.33,19.33c0,6.93-4.19,13.21-10.39,16.35L325.58,408.55 M553.45,408.55h-12.08v-22.96
		c0-4.99-3.14-7.33-7.01-7.33c-4.43,0-7.49,2.58-7.49,8.3v21.99h-12.08v-40.28h12.08v3.79c2.17-2.98,6.2-4.91,11.52-4.91
		c8.14,0,15.06,5.8,15.06,16.67V408.55 M573.83,408.55h-12.08v-40.28h12.08V408.55 M625.22,408.55h-12.08v-40.28h12.08V408.55
		 M720.27,408.55h-12.08v-22.96c0-4.99-3.14-7.33-7.01-7.33c-4.43,0-7.49,2.58-7.49,8.3v21.99h-12.08v-40.28h12.08v3.79
		c2.18-2.98,6.2-4.91,11.52-4.91c8.14,0,15.06,5.8,15.06,16.67V408.55 M600.83,408.85c-11.41,0-14.92-4.87-14.92-14.72v-14.26h-6.44
		v-11.6h6.44v-7.65L598,357v11.28h8.3v11.6H598v14.26c0,2.83,1.98,3.56,5.6,3.56c0.82,0,1.72-0.04,2.7-0.1v10.95
		C604.3,408.75,602.48,408.85,600.83,408.85 M349.5,409.68c-13.77,0-22.31-9.26-22.31-21.26c0-12,8.7-21.27,21.43-21.27
		c11.76,0,20.46,9.1,20.46,21.27c0,1.69-0.16,3.3-0.48,4.83H340c1.53,4.19,5.24,5.64,9.67,5.64c3.3,0,6.12-1.29,7.73-3.06l9.67,5.56
		C363.12,406.86,357.15,409.68,349.5,409.68 M394.85,409.68c-12.24,0-21.35-9.26-21.35-21.26c0-12,9.1-21.27,21.35-21.27
		c7.81,0,14.74,4.11,18.2,10.31l-10.55,6.12c-1.37-2.82-4.27-4.51-7.81-4.51c-5.24,0-9.1,3.79-9.1,9.34c0,5.56,3.87,9.34,9.1,9.34
		c3.54,0,6.52-1.69,7.81-4.51l10.55,6.04C409.59,405.57,402.75,409.68,394.85,409.68 M436.42,409.68
		c-11.84,0-21.35-9.26-21.35-21.26c0-12,9.51-21.27,21.35-21.27c11.84,0,21.35,9.26,21.35,21.27
		C457.76,400.41,448.26,409.68,436.42,409.68 M653.41,409.68c-11.84,0-21.35-9.26-21.35-21.26c0-12,9.51-21.27,21.35-21.27
		c11.84,0,21.34,9.26,21.34,21.27C674.76,400.41,665.26,409.68,653.41,409.68"/>
	<path class="st1" d="M22.55,409.68c12.24,0,20.94-6.44,20.94-17.32c0-11.92-9.59-14.9-18.12-17.48
		c-8.78-2.66-10.15-4.43-10.15-7.01c0-2.26,2.01-4.27,6.04-4.27c5.16,0,7.81,2.5,9.75,6.52l10.87-6.36
		c-4.11-8.3-11.36-12.73-20.62-12.73c-9.75,0-18.93,6.28-18.93,17.16c0,10.79,8.22,14.82,16.59,17.16
		c8.46,2.34,11.68,3.7,11.68,7.17c0,2.17-1.53,4.59-7.65,4.59c-6.36,0-9.83-3.14-11.84-7.81L0,395.74
		C3.14,404.04,10.71,409.68,22.55,409.68L22.55,409.68z M73.62,367.15c-5.4,0-9.34,1.85-12,4.91v-3.79H49.54v56.39h12.08v-19.9
		c2.66,3.06,6.6,4.91,12,4.91c10.55,0,19.25-9.26,19.25-21.26C92.87,376.41,84.17,367.15,73.62,367.15L73.62,367.15z M71.21,398.24
		c-5.56,0-9.59-3.79-9.59-9.83c0-6.04,4.03-9.83,9.59-9.83c5.56,0,9.58,3.79,9.58,9.83C80.79,394.45,76.76,398.24,71.21,398.24
		L71.21,398.24z M110.51,393.24h28.6c0.32-1.53,0.48-3.14,0.48-4.83c0-12.16-8.7-21.27-20.46-21.27c-12.73,0-21.43,9.26-21.43,21.27
		c0,12,8.54,21.26,22.31,21.26c7.65,0,13.61-2.82,17.56-8.3l-9.67-5.56c-1.61,1.77-4.43,3.06-7.73,3.06
		C115.75,398.88,112.04,397.43,110.51,393.24L110.51,393.24z M110.27,384.22c1.13-4.11,4.19-6.36,8.78-6.36
		c3.62,0,7.25,1.69,8.54,6.36H110.27L110.27,384.22z M156.83,393.24h28.6c0.32-1.53,0.48-3.14,0.48-4.83
		c0-12.16-8.7-21.27-20.46-21.27c-12.73,0-21.43,9.26-21.43,21.27c0,12,8.54,21.26,22.31,21.26c7.65,0,13.61-2.82,17.56-8.3
		l-9.67-5.56c-1.61,1.77-4.43,3.06-7.73,3.06C162.06,398.88,158.36,397.43,156.83,393.24L156.83,393.24z M156.59,384.22
		c1.13-4.11,4.19-6.36,8.78-6.36c3.62,0,7.25,1.69,8.54,6.36H156.59L156.59,384.22z M211.68,409.68c7.89,0,14.74-4.11,18.2-10.39
		l-10.55-6.04c-1.29,2.82-4.27,4.51-7.81,4.51c-5.24,0-9.1-3.79-9.1-9.34c0-5.56,3.87-9.34,9.1-9.34c3.54,0,6.44,1.69,7.81,4.51
		l10.55-6.12c-3.46-6.2-10.39-10.31-18.2-10.31c-12.24,0-21.35,9.26-21.35,21.27C190.34,400.41,199.44,409.68,211.68,409.68
		L211.68,409.68z M258.32,367.15c-5.32,0-9.34,1.93-11.52,4.91v-19.89h-12.08v56.38h12.08v-21.99c0-5.72,3.06-8.3,7.49-8.3
		c3.87,0,7.01,2.34,7.01,7.33v22.96h12.08v-24.73C273.38,372.94,266.46,367.15,258.32,367.15L258.32,367.15z"/>
	<path class="st1" d="M287.32,183.61l-0.22,0.15c-1.28,0.9-20.5,14.11-49.3,18.95l-0.27-0.05c-1.53-0.26-24.47-4.51-48.26-21.45
		l-0.16-0.22c-0.9-1.27-14.11-20.49-18.95-49.3l0.05-0.27c0.27-1.53,4.52-24.47,21.45-48.25l0.23-0.16
		c1.27-0.9,20.49-14.11,49.29-18.95l0.27,0.04c1.53,0.27,24.47,4.52,48.26,21.46l0.15,0.23c0.9,1.27,14.11,20.49,18.95,49.29
		l-0.05,0.27C308.51,136.88,304.26,159.81,287.32,183.61 M359.77,193.55c-0.17-23.61-5.25-46.14-15.09-66.96
		c-14.58-30.83-36.95-49.91-56.88-61.53c5.15,1.11,10.41,2.57,15.76,4.5c19.43,6.96,36.96,18.04,52.08,32.93l5.81,5.72l11.44-11.62
		l-5.81-5.72c-16.82-16.56-36.34-28.9-58.02-36.67c-32.11-11.5-61.41-9.17-83.73-3.29c4.44-2.86,9.19-5.53,14.33-7.97
		c18.66-8.82,38.89-13.37,60.12-13.53l8.16-0.07l-0.13-16.3l-8.15,0.06c-23.61,0.18-46.14,5.26-66.96,15.09
		c-30.83,14.58-49.91,36.95-61.53,56.88c1.11-5.15,2.57-10.41,4.49-15.76c6.96-19.43,18.05-36.95,32.94-52.08l5.72-5.81L202.71,0
		l-5.72,5.81c-16.57,16.82-28.91,36.34-36.68,58.02c-11.49,32.1-9.17,61.41-3.29,83.72c-2.86-4.42-5.53-9.18-7.96-14.32
		c-8.82-18.67-13.37-38.89-13.54-60.12l-0.06-8.15l-16.3,0.13l0.05,8.15c0.19,23.62,5.26,46.14,15.1,66.96
		c14.58,30.83,36.95,49.91,56.88,61.53c-5.15-1.12-10.41-2.58-15.76-4.5c-19.43-6.96-36.96-18.05-52.08-32.94l-5.81-5.72
		l-11.44,11.62l5.8,5.72c16.83,16.57,36.35,28.91,58.02,36.67c32.11,11.5,61.41,9.17,83.73,3.29c-4.43,2.86-9.18,5.54-14.33,7.96
		c-18.66,8.82-38.88,13.38-60.12,13.54l-8.15,0.06l0.12,16.31l8.15-0.07c23.62-0.18,46.14-5.25,66.96-15.09
		c30.84-14.58,49.9-36.94,61.53-56.87c-1.12,5.15-2.58,10.41-4.5,15.76c-6.97,19.43-18.05,36.96-32.94,52.08l-5.72,5.81l11.62,11.44
		l5.72-5.81c16.57-16.83,28.91-36.34,36.67-58.02c11.5-32.11,9.17-61.41,3.29-83.72c2.86,4.43,5.54,9.18,7.97,14.33
		c8.82,18.67,13.37,38.89,13.54,60.12l0.06,8.15l16.31-0.12L359.77,193.55L359.77,193.55z"/>
	<polygon class="st1" points="270.2,133.39 239.5,86.05 208.79,133.39 239.49,180.73 270.2,133.39 	"/>
	<path class="st1" d="M463.56,175c17.43,0.02,30.33-11.51,30.35-28.37l0.02-11.93c0.02-16.86-12.84-28.62-30.27-28.65
		c-14.96-0.02-30.14,8.86-30.17,28.55l-0.01,11.93C433.46,166.04,448.6,174.97,463.56,175 M452.49,233.89l0.03-15.35l7.58,0.01
		c15.53,0.03,33.73-4.49,33.76-26.65l0.01-11.75c-8.34,6.82-19.34,10.2-30.33,10.18c-22.73-0.04-45.45-15.04-45.41-43.83l0.02-11.93
		c0.04-28.79,22.8-43.91,45.53-43.87c10.99,0.02,21.97,3.44,30.29,10.28v-1.89l0.01-0.76l0.01-7.58l15.35,0.03l-0.01,7.58l0,0.75
		l-0.13,92.81c-0.02,12.5-4.4,23.3-12.93,30.67c-8.73,7.37-20.86,11.33-36.21,11.3L452.49,233.89L452.49,233.89z"/>
	<polygon class="st1" points="522.09,190.43 522.29,54.05 537.64,54.08 537.51,143.48 590.26,90.91 612.42,90.95 565.94,136.9 
		614.17,190.58 593.7,190.55 555.32,147.49 537.48,165.08 537.44,190.46 522.09,190.43 	"/>
</g>
</svg>
