<?xml version="1.0" encoding="utf-8"?>
<!-- Generator: Adobe Illustrator 25.0.0, SVG Export Plug-In . SVG Version: 6.00 Build 0)  -->
<svg version="1.1" id="Layer_1" xmlns="http://www.w3.org/2000/svg" xmlns:xlink="http://www.w3.org/1999/xlink" x="0px" y="0px"
	 viewBox="0 0 720 111.5" style="enable-background:new 0 0 720 111.5;" xml:space="preserve">
<style type="text/css">
	.st0{fill:#010307;}
</style>
<g>
	<path class="st0" d="M32.2,111.5c6.5,0,10.6-3.9,10.6-8.9c0-4.8-2.9-6.9-6.6-8.4l-4.6-2c-2.4-1.1-5.3-2.2-5.3-5.4
		c0-3,2.5-4.9,6.2-4.9c3,0,5.4,1.2,7.3,3l1.9-2.3c-2.1-2.3-5.4-3.9-9.2-3.9c-5.6,0-9.7,3.5-9.7,8.2c0,4.7,3.5,6.8,6.4,8.1l4.6,2
		c3,1.4,5.4,2.4,5.4,5.8c0,3.3-2.6,5.5-6.9,5.5c-3.4,0-6.6-1.6-8.9-4l-2.2,2.5C23.9,109.6,27.7,111.5,32.2,111.5L32.2,111.5z
		 M56.4,110.9h3.6V98.1h5.4c6.9,0,11.6-3.1,11.6-9.6c0-6.8-4.7-9.2-11.8-9.2h-8.8V110.9L56.4,110.9z M59.9,95.1v-13h4.7
		c5.8,0,8.7,1.5,8.7,6.3c0,4.7-2.7,6.7-8.5,6.7H59.9L59.9,95.1z M90.7,110.9h18.5v-3H94.2V95.7h12.1v-3H94.2V82.3h14.4v-3h-18V110.9
		L90.7,110.9z M134.9,111.5c4.1,0,7.1-1.7,9.6-4.6l-2-2.2c-2.1,2.3-4.4,3.7-7.5,3.7c-6.2,0-10.1-5.2-10.1-13.4
		c0-8.1,4-13.2,10.3-13.2c2.7,0,4.9,1.3,6.6,3.1l2-2.4c-1.8-2-4.8-3.8-8.6-3.8c-8.1,0-13.9,6.3-13.9,16.4
		C121.2,105.3,127.1,111.5,134.9,111.5L134.9,111.5z M157.8,110.9h3.6V79.2h-3.6V110.9L157.8,110.9z M195,110.9h3.8L188,79.2h-4
		l-10.8,31.7h3.6l3.2-10h11.8L195,110.9L195,110.9z M181,98.1l1.6-5.1c1.2-3.6,2.2-7,3.2-10.8h0.2c1.1,3.7,2.1,7.1,3.3,10.8l1.6,5.1
		H181L181,98.1z M210.7,110.9h17.5v-3h-14V79.2h-3.6V110.9L210.7,110.9z M258,110.9h3.6V79.2H258V110.9L258,110.9z M277.6,110.9h3.4
		V93.5c0-3.3-0.3-6.5-0.5-9.7h0.2l3.5,6.5l12,20.5h3.7V79.2h-3.4v17.2c0,3.2,0.3,6.7,0.5,9.9h-0.2l-3.5-6.5l-12-20.5h-3.7V110.9
		L277.6,110.9z M322.5,110.9h3.6V82.3h9.7v-3h-23v3h9.7V110.9L322.5,110.9z M348.8,110.9h18.5v-3h-14.9V95.7h12.1v-3h-12.1V82.3
		h14.4v-3h-18V110.9L348.8,110.9z M402.7,110.9l-8.2-14c4.5-1,7.4-3.9,7.4-8.9c0-6.5-4.5-8.8-10.9-8.8h-9.7v31.7h3.6V97.2h6
		l7.9,13.7H402.7L402.7,110.9z M384.8,82.1h5.5c5.1,0,7.9,1.5,7.9,5.9c0,4.2-2.8,6.3-7.9,6.3h-5.5V82.1L384.8,82.1z M415.6,110.9
		h18.5v-3h-14.9V95.7h12.1v-3h-12.1V82.3h14.4v-3h-18V110.9L415.6,110.9z M456.7,111.5c6.5,0,10.6-3.9,10.6-8.9
		c0-4.8-2.9-6.9-6.6-8.4l-4.6-2c-2.4-1.1-5.3-2.2-5.3-5.4c0-3,2.5-4.9,6.2-4.9c3,0,5.4,1.2,7.3,3l1.9-2.3c-2.1-2.3-5.4-3.9-9.2-3.9
		c-5.6,0-9.7,3.5-9.7,8.2c0,4.7,3.5,6.8,6.4,8.1l4.6,2c3,1.4,5.4,2.4,5.4,5.8c0,3.3-2.6,5.5-6.9,5.5c-3.4,0-6.6-1.6-8.9-4l-2.2,2.5
		C448.5,109.6,452.3,111.5,456.7,111.5L456.7,111.5z M486.6,110.9h3.6V82.3h9.7v-3h-23v3h9.7V110.9L486.6,110.9z M541.9,111.5
		c4.2,0,7.7-1.5,9.7-3.7V94.7h-10.2v3h6.9v8.6c-1.4,1.3-3.7,2-6.1,2c-6.8,0-10.8-5.2-10.8-13.4c0-8.2,4.2-13.2,10.8-13.2
		c3.2,0,5.4,1.4,6.9,3.1l2-2.4c-1.8-1.9-4.6-3.9-9-3.9c-8.4,0-14.4,6.3-14.4,16.4C527.8,105.3,533.6,111.5,541.9,111.5L541.9,111.5z
		 M588,110.9l-8.2-14c4.5-1,7.4-3.9,7.4-8.9c0-6.5-4.5-8.8-10.9-8.8h-9.7v31.7h3.6V97.2h6l7.9,13.7H588L588,110.9z M570.1,82.1h5.5
		c5.1,0,7.9,1.5,7.9,5.9c0,4.2-2.8,6.3-7.9,6.3h-5.5V82.1L570.1,82.1z M612.4,111.5c7.9,0,13.4-6.4,13.4-16.5
		c0-10.1-5.5-16.3-13.4-16.3c-7.9,0-13.4,6.2-13.4,16.3S604.5,111.5,612.4,111.5L612.4,111.5z M612.4,108.3c-5.9,0-9.7-5.3-9.7-13.4
		c0-8.1,3.9-13.2,9.7-13.2c5.8,0,9.7,5.1,9.7,13.2C622.1,103.1,618.3,108.3,612.4,108.3L612.4,108.3z M651.1,111.5
		c6.2,0,11.2-3.3,11.2-13.4V79.2h-3.4v18.8c0,7.8-3.5,10.3-7.8,10.3c-4.2,0-7.6-2.5-7.6-10.3V79.2h-3.6v18.8
		C639.9,108.1,644.8,111.5,651.1,111.5L651.1,111.5z M678.2,110.9h3.6V98.1h5.4c6.9,0,11.6-3.1,11.6-9.6c0-6.8-4.7-9.2-11.8-9.2
		h-8.8V110.9L678.2,110.9z M681.8,95.1v-13h4.7c5.8,0,8.7,1.5,8.7,6.3c0,4.7-2.7,6.7-8.5,6.7H681.8L681.8,95.1z"/>
	<path class="st0" d="M38.2,54.1l-11.4-20C32.4,31.8,36,27.3,36,20C36,8.5,27.7,4.9,17.3,4.9H0v49.2h10.3V35.8h6.5l9.8,18.2H38.2
		L38.2,54.1z M10.3,13.1h6.1c6.2,0,9.5,1.7,9.5,6.9c0,5.1-3.3,7.7-9.5,7.7h-6.1V13.1L10.3,13.1z M74.8,33.7
		c0-10.2-5.3-17.8-15.7-17.8c-8.9,0-17.4,7.5-17.4,19.6c0,12.3,8.1,19.5,18.7,19.5c4.5,0,9.3-1.6,13-4.1L70,44.6
		c-2.7,1.6-5.3,2.5-8.3,2.5c-4.7,0-9.3-2.3-10.4-8.7h23C74.6,37.5,74.8,35.6,74.8,33.7L74.8,33.7z M51.5,31.5
		c1.1-5.6,4.4-7.8,7.8-7.8c4.7,0,6.7,3.1,6.7,7.8H51.5L51.5,31.5z M95.8,70.1c12.6,0,20.5-5.6,20.5-13.2c0-6.6-5-9.4-14-9.4h-6.2
		c-4.2,0-5.7-1.1-5.7-2.9c0-1.4,0.5-2.2,1.5-3c1.7,0.5,3.2,0.8,4.7,0.8c8.1,0,14.5-4.1,14.5-12.6c0-2.1-0.7-4.1-1.6-5.3h6.2v-7.5
		h-13.5c-1.7-0.5-3.6-0.9-5.7-0.9c-7.9,0-15.1,4.7-15.1,13.5c0,4.4,2.3,7.8,5,9.7v0.3c-2.3,1.6-4.1,4.2-4.1,6.9c0,3.1,1.4,5,3.4,6.3
		v0.3c-3.5,2-5.3,4.5-5.3,7.7C80.3,67.2,87.1,70.1,95.8,70.1L95.8,70.1z M96.5,36c-3.1,0-5.5-2.3-5.5-6.6c0-4.2,2.3-6.5,5.5-6.5
		c3.2,0,5.6,2.3,5.6,6.5C102.1,33.7,99.7,36,96.5,36L96.5,36z M97.4,63.6c-5.3,0-8.7-1.7-8.7-4.7c0-1.4,0.8-2.8,2.3-4.1
		c1.3,0.4,2.8,0.5,5.1,0.5h4.3c3.8,0,5.9,0.6,5.9,3.2C106.4,61.4,102.8,63.6,97.4,63.6L97.4,63.6z M133.7,55c5,0,8.6-2.4,11.7-6.2
		h0.3l0.8,5.3h8.4V16.8h-10.2v24.9c-2.4,3.2-4.2,4.4-7.2,4.4c-3.5,0-5-1.9-5-7.5V16.8h-10.2V40C122.2,49.3,125.6,55,133.7,55
		L133.7,55z M174.7,55c2.4,0,4.1-0.4,5.3-0.8l-1.3-7.7c-0.6,0.2-0.9,0.2-1.4,0.2c-0.9,0-2-0.8-2-3V1.1h-10.2v42
		C165.1,50.3,167.6,55,174.7,55L174.7,55z M195.5,55c4.2,0,7.8-2,11.1-4.8h0.2l0.8,3.9h8.4V32.5c0-11.1-5-16.6-14.5-16.6
		c-5.9,0-11.1,2.1-15.7,4.9l3.7,6.8c3.5-2,6.7-3.5,10-3.5c4.4,0,6,2.6,6.2,6c-14.9,1.6-21.2,5.8-21.2,13.7
		C184.4,50.1,188.8,55,195.5,55L195.5,55z M198.9,47c-2.8,0-4.6-1.3-4.6-4c0-3.1,2.8-5.5,11.4-6.6v7.2C203.5,45.6,201.6,47,198.9,47
		L198.9,47z M238.3,55c3.4,0,6-0.7,8.1-1.4l-1.7-7.5c-1.1,0.4-2.4,0.8-3.7,0.8c-3.1,0-5-1.8-5-6.1V24.9h9.1v-8.1H236V6.9h-8.5
		l-1.2,9.9l-5.7,0.5v7.7h5.2v15.9C225.8,49.2,229.2,55,238.3,55L238.3,55z M257.8,11c3.4,0,5.8-2.3,5.8-5.5c0-3.2-2.4-5.5-5.8-5.5
		c-3.4,0-5.8,2.3-5.8,5.5C252,8.7,254.4,11,257.8,11L257.8,11z M252.6,54.1h10.2V16.8h-10.2V54.1L252.6,54.1z M288.9,55
		c9.3,0,18-7.2,18-19.5c0-12.4-8.7-19.6-18-19.6c-9.4,0-18,7.2-18,19.6C270.9,47.8,279.4,55,288.9,55L288.9,55z M288.9,46.6
		c-4.9,0-7.5-4.4-7.5-11.1s2.6-11.2,7.5-11.2c4.8,0,7.5,4.4,7.5,11.2S293.7,46.6,288.9,46.6L288.9,46.6z M314.8,54.1H325V28.6
		c2.6-2.6,4.5-3.9,7.5-3.9c3.5,0,5,1.9,5,7.5v21.9h10.3V30.9c0-9.3-3.5-15-11.5-15c-5.1,0-8.9,2.6-12,5.7h-0.3l-0.8-4.8h-8.4V54.1
		L314.8,54.1z M373.4,54.1h10.3V4.9h-10.3V54.1L373.4,54.1z M394.8,54.1H405V28.6c2.6-2.6,4.5-3.9,7.5-3.9c3.5,0,5,1.9,5,7.5v21.9
		h10.3V30.9c0-9.3-3.5-15-11.5-15c-5.1,0-8.9,2.6-12,5.7h-0.3l-0.8-4.8h-8.4V54.1L394.8,54.1z M437.5,54.1h10.2V28.6
		c2.6-2.6,4.5-3.9,7.5-3.9c3.5,0,5,1.9,5,7.5v21.9h10.3V30.9c0-9.3-3.5-15-11.5-15c-5.1,0-8.9,2.6-12,5.7h-0.3l-0.8-4.8h-8.4V54.1
		L437.5,54.1z M496,55c9.3,0,18-7.2,18-19.5c0-12.4-8.7-19.6-18-19.6c-9.4,0-18,7.2-18,19.6C478,47.8,486.6,55,496,55L496,55z
		 M496,46.6c-4.9,0-7.5-4.4-7.5-11.1s2.6-11.2,7.5-11.2c4.8,0,7.5,4.4,7.5,11.2S500.9,46.6,496,46.6L496,46.6z M529.8,54.1h11.8
		L554,16.8h-9.9l-5.2,18.1c-1,3.7-2,7.5-3,11.4h-0.3c-1-3.8-2-7.7-2.9-11.4l-5.2-18.1h-10.4L529.8,54.1L529.8,54.1z M567.8,55
		c4.2,0,7.8-2,11.1-4.8h0.2l0.8,3.9h8.4V32.5c0-11.1-5-16.6-14.5-16.6c-5.9,0-11.1,2.1-15.7,4.9l3.7,6.8c3.5-2,6.7-3.5,10-3.5
		c4.4,0,6,2.6,6.2,6c-14.9,1.6-21.2,5.8-21.2,13.7C556.7,50.1,561.1,55,567.8,55L567.8,55z M571.2,47c-2.8,0-4.6-1.3-4.6-4
		c0-3.1,2.8-5.5,11.4-6.6v7.2C575.8,45.6,573.9,47,571.2,47L571.2,47z M610.5,55c3.4,0,6-0.7,8.1-1.4l-1.7-7.5
		c-1.1,0.4-2.4,0.8-3.7,0.8c-3.1,0-5-1.8-5-6.1V24.9h9.1v-8.1h-9.1V6.9h-8.5l-1.2,9.9l-5.7,0.5v7.7h5.2v15.9
		C598,49.2,601.5,55,610.5,55L610.5,55z M630,11c3.4,0,5.8-2.3,5.8-5.5c0-3.2-2.4-5.5-5.8-5.5c-3.4,0-5.8,2.3-5.8,5.5
		C624.2,8.7,626.7,11,630,11L630,11z M624.9,54.1h10.2V16.8h-10.2V54.1L624.9,54.1z M661.1,55c9.3,0,18-7.2,18-19.5
		c0-12.4-8.7-19.6-18-19.6c-9.4,0-18,7.2-18,19.6C643.1,47.8,651.7,55,661.1,55L661.1,55z M661.1,46.6c-4.9,0-7.5-4.4-7.5-11.1
		s2.6-11.2,7.5-11.2c4.8,0,7.5,4.4,7.5,11.2S665.9,46.6,661.1,46.6L661.1,46.6z M687,54.1h10.2V28.6c2.6-2.6,4.5-3.9,7.5-3.9
		c3.5,0,5,1.9,5,7.5v21.9H720V30.9c0-9.3-3.5-15-11.5-15c-5.1,0-8.9,2.6-12,5.7h-0.3l-0.8-4.8H687V54.1L687,54.1z"/>
</g>
</svg>
