<?xml version="1.0" encoding="utf-8"?>
<!-- Generator: Adobe Illustrator 25.0.0, SVG Export Plug-In . SVG Version: 6.00 Build 0)  -->
<svg version="1.1" id="Layer_1" xmlns="http://www.w3.org/2000/svg" xmlns:xlink="http://www.w3.org/1999/xlink" x="0px" y="0px"
	 viewBox="0 0 511.2 540.5" style="enable-background:new 0 0 511.2 540.5;" xml:space="preserve">
<style type="text/css">
	.st0{fill:#FFFFFF;}
</style>
<g>
	<path class="st0" d="M25.5,473.1c-2.4-1.1-4.5-2.6-6.2-4.4c-1.7-1.8-3-4-4-6.5c-1-2.5-1.4-5.1-1.4-7.9v-0.2c0-2.8,0.5-5.4,1.4-7.9
		c1-2.5,2.3-4.6,4-6.4c1.7-1.8,3.7-3.3,6.1-4.3c2.4-1.1,5-1.6,7.8-1.6c2.8,0,5.4,0.5,7.8,1.6c2.4,1.1,4.4,2.6,6.2,4.4
		c1.7,1.8,3,4,4,6.5c1,2.5,1.4,5.1,1.4,7.9v0.2c0,2.8-0.5,5.4-1.4,7.9c-1,2.5-2.3,4.6-4,6.4c-1.7,1.8-3.7,3.3-6.1,4.3
		c-2.4,1.1-5,1.6-7.8,1.6C30.5,474.7,27.9,474.2,25.5,473.1L25.5,473.1z M45.3,481.6c3.7-1.6,6.8-3.7,9.5-6.4
		c2.7-2.7,4.8-5.8,6.2-9.4c1.5-3.6,2.2-7.4,2.2-11.4v-0.2c0-4-0.7-7.9-2.2-11.4c-1.5-3.6-3.5-6.7-6.2-9.4c-2.6-2.7-5.8-4.8-9.4-6.4
		c-3.7-1.6-7.7-2.3-12.1-2.3c-4.4,0-8.5,0.8-12.1,2.4c-3.7,1.6-6.8,3.7-9.5,6.4c-2.7,2.7-4.8,5.8-6.2,9.4c-1.5,3.6-2.2,7.4-2.2,11.4
		v0.2c0,4,0.7,7.9,2.2,11.4c1.5,3.6,3.5,6.7,6.2,9.4c2.6,2.7,5.8,4.8,9.4,6.4c3.7,1.6,7.7,2.3,12.1,2.3
		C37.6,484,41.6,483.2,45.3,481.6L45.3,481.6z M86.6,474v-15.7h15.9c4,0,6.9,0.7,8.9,2c1.9,1.3,2.9,3.2,2.9,5.7v0.2
		c0,2.6-1,4.6-2.9,5.9c-2,1.3-4.7,2-8.1,2H86.6L86.6,474z M86.6,449.8v-15.3h14.5c3.3,0,5.8,0.6,7.5,1.9c1.7,1.3,2.6,3.1,2.6,5.4
		v0.2c0,2.6-1,4.6-2.9,5.9c-2,1.3-4.6,1.9-7.8,1.9H86.6L86.6,449.8z M76.6,483h26.5c3.2,0,6.1-0.3,8.7-1c2.6-0.7,4.9-1.7,6.7-3
		c1.9-1.3,3.3-3,4.3-4.9c1-2,1.5-4.2,1.5-6.8v-0.2c0-2-0.3-3.7-0.8-5.2c-0.5-1.5-1.3-2.8-2.3-3.9c-1-1.1-2.2-2-3.6-2.8
		c-1.4-0.8-2.9-1.5-4.6-2.1c1-0.5,2-1.2,3.1-2c1-0.8,1.9-1.7,2.6-2.7c0.7-1,1.3-2.2,1.8-3.5c0.5-1.3,0.7-2.9,0.7-4.6v-0.2
		c0-3.8-1.3-6.9-3.8-9.5c-3.4-3.4-8.4-5.1-15-5.1H76.6V483L76.6,483z M157.6,482.5c2.3-0.8,4.4-2.1,6.1-3.8c1.7-1.7,3-3.8,3.9-6.3
		c0.9-2.5,1.4-5.5,1.4-8.9v-37.9h-10.3v37.6c0,3.8-0.8,6.7-2.5,8.5c-1.7,1.8-3.9,2.7-6.6,2.7c-2.5,0-4.6-0.6-6.4-1.8
		c-1.8-1.2-3.5-2.8-5.2-5l-6.6,6.8c1.9,2.6,4.3,4.8,7.3,6.6c3,1.8,6.6,2.7,11.1,2.7C152.6,483.8,155.2,483.4,157.6,482.5
		L157.6,482.5z M184,483h42.9v-9.1H194v-15.3h28.8v-9.1H194v-14.8h32.5v-9.1H184V483L184,483z M274.1,483.3c2.2-0.5,4.2-1.1,6.1-2.1
		c1.9-0.9,3.6-2,5.2-3.2c1.6-1.2,3.2-2.6,4.6-4.2l-6.5-6.6c-2.5,2.3-4.9,4.1-7.5,5.5c-2.5,1.3-5.5,2-9,2c-2.7,0-5.3-0.5-7.6-1.6
		c-2.3-1.1-4.3-2.5-6-4.4c-1.7-1.9-3-4-3.9-6.5c-0.9-2.5-1.4-5.1-1.4-7.9v-0.2c0-2.8,0.5-5.4,1.4-7.9c0.9-2.5,2.2-4.6,3.9-6.4
		c1.7-1.8,3.7-3.3,6-4.3c2.3-1.1,4.9-1.6,7.6-1.6c3.3,0,6.2,0.7,8.8,2c2.6,1.3,5,3,7.3,5.2l6.5-7.5c-1.4-1.3-2.8-2.5-4.3-3.6
		c-1.5-1.1-3.2-2-5-2.8c-1.8-0.8-3.8-1.4-5.9-1.8c-2.2-0.4-4.6-0.7-7.2-0.7c-4.4,0-8.4,0.8-12,2.3c-3.6,1.6-6.7,3.7-9.4,6.4
		c-2.6,2.7-4.7,5.8-6.2,9.4c-1.5,3.6-2.2,7.4-2.2,11.5v0.2c0,4.1,0.7,8,2.2,11.6c1.5,3.6,3.5,6.7,6.2,9.4c2.6,2.7,5.7,4.7,9.2,6.3
		c3.6,1.5,7.4,2.3,11.6,2.3C269.5,484,271.9,483.7,274.1,483.3L274.1,483.3z M315.8,483H326v-48.1h18.2v-9.3h-46.6v9.3h18.2V483
		L315.8,483z M384.4,482.7c2.5-0.8,4.7-1.9,6.4-3.4c1.8-1.5,3.2-3.3,4.2-5.4c1-2.1,1.5-4.5,1.5-7.2v-0.2c0-2.3-0.4-4.4-1.2-6.2
		c-0.8-1.8-2-3.3-3.5-4.7c-1.5-1.3-3.5-2.5-5.8-3.4c-2.3-0.9-5-1.8-8-2.5c-2.7-0.7-5-1.3-6.8-1.9c-1.8-0.6-3.2-1.2-4.2-1.9
		c-1-0.7-1.7-1.4-2.1-2.3c-0.4-0.8-0.6-1.8-0.6-2.9v-0.2c0-1.9,0.8-3.5,2.5-4.8c1.6-1.3,3.9-2,6.9-2c2.6,0,5.2,0.5,7.8,1.5
		c2.6,1,5.2,2.5,7.8,4.4l5.4-7.6c-3-2.4-6.1-4.1-9.5-5.4c-3.4-1.2-7.1-1.8-11.4-1.8c-2.8,0-5.5,0.4-7.9,1.2c-2.4,0.8-4.5,2-6.2,3.4
		c-1.7,1.4-3,3.2-4,5.2c-1,2.1-1.5,4.3-1.5,6.8v0.2c0,2.6,0.4,4.9,1.3,6.7c0.8,1.9,2.1,3.4,3.7,4.7c1.6,1.3,3.6,2.4,6,3.3
		c2.4,0.9,5.1,1.7,8.2,2.4c2.7,0.6,4.9,1.2,6.5,1.8c1.7,0.6,3,1.3,3.9,2c1,0.7,1.6,1.5,2,2.3c0.4,0.8,0.5,1.7,0.5,2.7v0.2
		c0,2.2-0.9,3.9-2.7,5.2c-1.8,1.3-4.3,2-7.4,2c-3.6,0-6.8-0.6-9.7-1.9c-2.8-1.3-5.7-3.1-8.4-5.5l-6.1,7.2c3.4,3.1,7.2,5.4,11.2,6.9
		c4,1.5,8.3,2.3,12.7,2.3C379.2,483.8,381.9,483.4,384.4,482.7L384.4,482.7z"/>
	<path class="st0" d="M3.5,401h15.9v-20.5h27.1v-13.3H19.4v-9.7h30v-13.9H3.5V401L3.5,401z M58.1,401h16v-57.4h-16V401L58.1,401z
		 M85.7,401h15.7v-31.5L126,401h14v-57.4h-15.7v30.3l-23.7-30.3H85.7V401L85.7,401z M172.1,378.4l6.5-16.3l6.4,16.3H172.1
		L172.1,378.4z M146.6,401h16.7l4.1-10.2h22.1l4.2,10.2h17.1l-24.4-57.8h-15.3L146.6,401L146.6,401z M217.6,401h15.7v-31.5
		l24.6,31.5h14v-57.4h-15.7v30.3l-23.7-30.3h-14.9V401L217.6,401z M319.3,401.1c2.5-0.7,4.8-1.6,6.9-2.7c2-1.1,3.9-2.5,5.5-4.1
		c1.6-1.6,3.1-3.3,4.5-5.2l-12-8.5c-0.9,1-1.8,2-2.7,2.8c-0.9,0.8-1.9,1.6-2.9,2.2c-1,0.6-2.1,1.1-3.4,1.4c-1.2,0.3-2.6,0.5-4.1,0.5
		c-2,0-3.9-0.4-5.5-1.2c-1.7-0.8-3.1-1.9-4.3-3.2c-1.2-1.4-2.1-3-2.8-4.9c-0.7-1.9-1-3.9-1-6v-0.2c0-2.1,0.3-4,1-5.9
		c0.7-1.9,1.6-3.5,2.8-4.8c1.2-1.4,2.6-2.4,4.3-3.2c1.7-0.8,3.5-1.2,5.5-1.2c2.8,0,5.2,0.6,7.1,1.8c2,1.2,3.8,2.8,5.4,4.9l12-9.3
		c-1.3-1.7-2.7-3.4-4.3-4.8c-1.6-1.5-3.4-2.7-5.4-3.8c-2-1.1-4.2-1.9-6.6-2.5c-2.4-0.6-5.1-0.9-8-0.9c-4.4,0-8.4,0.8-12.1,2.3
		c-3.7,1.5-6.9,3.6-9.6,6.4c-2.7,2.7-4.8,5.9-6.3,9.5c-1.5,3.6-2.3,7.5-2.3,11.7v0.2c0,4.3,0.8,8.2,2.3,11.8
		c1.6,3.6,3.7,6.8,6.3,9.4c2.7,2.7,5.8,4.7,9.4,6.2c3.6,1.5,7.5,2.2,11.6,2.2C313.9,402.1,316.8,401.8,319.3,401.1L319.3,401.1z
		 M344.4,401h16v-57.4h-16V401L344.4,401z M393,378.4l6.5-16.3l6.4,16.3H393L393,378.4z M367.5,401h16.7l4.1-10.2h22.1l4.2,10.2
		h17.1l-24.4-57.8h-15.3L367.5,401L367.5,401z M438.4,401h43.7V387h-27.8v-43.5h-15.9V401L438.4,401z"/>
	<path class="st0" d="M16.5,534.6c1-0.2,1.9-0.5,2.7-0.9c0.8-0.4,1.6-0.9,2.3-1.4c0.7-0.6,1.4-1.2,2.1-1.9l-2.9-3
		c-1.1,1-2.2,1.9-3.4,2.5c-1.1,0.6-2.5,0.9-4.1,0.9c-1.2,0-2.4-0.2-3.4-0.7c-1-0.5-1.9-1.1-2.7-2c-0.8-0.8-1.4-1.8-1.8-2.9
		c-0.4-1.1-0.6-2.3-0.6-3.6v-0.1c0-1.3,0.2-2.4,0.6-3.5c0.4-1.1,1-2.1,1.8-2.9c0.8-0.8,1.7-1.5,2.7-2c1-0.5,2.2-0.7,3.4-0.7
		c1.5,0,2.8,0.3,3.9,0.9c1.2,0.6,2.3,1.4,3.3,2.3l2.9-3.4c-0.6-0.6-1.3-1.1-2-1.6c-0.7-0.5-1.4-0.9-2.3-1.3
		c-0.8-0.4-1.7-0.6-2.7-0.8c-1-0.2-2-0.3-3.2-0.3c-2,0-3.8,0.4-5.4,1.1c-1.6,0.7-3,1.7-4.2,2.9c-1.2,1.2-2.1,2.6-2.8,4.2
		c-0.7,1.6-1,3.3-1,5.2v0.1c0,1.8,0.3,3.6,1,5.2c0.7,1.6,1.6,3,2.8,4.2c1.2,1.2,2.6,2.1,4.2,2.8c1.6,0.7,3.3,1,5.2,1
		C14.4,535,15.5,534.9,16.5,534.6L16.5,534.6z M34.8,530.6c-0.7-0.3-1.3-0.8-1.9-1.4c-0.5-0.6-0.9-1.2-1.2-2
		c-0.3-0.8-0.4-1.6-0.4-2.4v-0.1c0-0.8,0.1-1.6,0.4-2.4c0.3-0.8,0.7-1.4,1.2-2c0.5-0.6,1.1-1,1.9-1.3c0.7-0.3,1.5-0.5,2.4-0.5
		c0.9,0,1.7,0.2,2.4,0.5c0.7,0.3,1.3,0.8,1.9,1.3c0.5,0.6,0.9,1.2,1.2,2c0.3,0.8,0.4,1.6,0.4,2.4v0.1c0,0.8-0.1,1.6-0.4,2.4
		c-0.3,0.8-0.7,1.4-1.2,2c-0.5,0.6-1.1,1-1.9,1.3c-0.7,0.3-1.5,0.5-2.4,0.5C36.3,531.1,35.6,530.9,34.8,530.6L34.8,530.6z
		 M41.3,534.1c1.3-0.5,2.4-1.3,3.3-2.2c0.9-0.9,1.6-2,2.2-3.2c0.5-1.2,0.8-2.5,0.8-3.9v-0.1c0-1.4-0.3-2.7-0.8-3.9
		c-0.5-1.2-1.2-2.3-2.2-3.2c-0.9-0.9-2-1.6-3.3-2.2c-1.3-0.5-2.7-0.8-4.2-0.8c-1.5,0-2.9,0.3-4.2,0.8c-1.3,0.5-2.4,1.3-3.3,2.2
		s-1.6,2-2.2,3.2c-0.5,1.2-0.8,2.5-0.8,3.9v0.1c0,1.4,0.3,2.7,0.8,3.9c0.5,1.2,1.2,2.3,2.2,3.2c0.9,0.9,2,1.6,3.3,2.2
		c1.3,0.5,2.6,0.8,4.1,0.8C38.6,535,40,534.7,41.3,534.1L41.3,534.1z M52.1,534.5h4.5v-10.9c0-1.5,0.4-2.7,1.1-3.6
		c0.8-0.9,1.8-1.3,3-1.3c1.2,0,2.2,0.4,2.9,1.2c0.7,0.8,1,2,1,3.5v11.1h4.5v-11c0-1.6,0.4-2.8,1.2-3.6c0.8-0.8,1.8-1.2,3-1.2
		c1.2,0,2.2,0.4,2.9,1.2c0.7,0.8,1,2,1,3.5v11h4.5v-12.4c0-2.4-0.6-4.2-1.8-5.5c-1.2-1.3-2.9-1.9-5-1.9c-1.5,0-2.8,0.3-3.8,0.9
		c-1.1,0.6-2,1.5-2.8,2.5c-0.5-1-1.3-1.9-2.2-2.5c-1-0.6-2.2-0.9-3.5-0.9c-0.7,0-1.4,0.1-2,0.3c-0.6,0.2-1.1,0.4-1.6,0.8
		c-0.5,0.3-0.9,0.7-1.3,1.1c-0.4,0.4-0.7,0.8-1,1.3v-3h-4.5V534.5L52.1,534.5z M87.2,534.5h4.5v-10.9c0-1.5,0.4-2.7,1.1-3.6
		c0.8-0.9,1.8-1.3,3-1.3c1.2,0,2.2,0.4,2.9,1.2c0.7,0.8,1,2,1,3.5v11.1h4.5v-11c0-1.6,0.4-2.8,1.2-3.6c0.8-0.8,1.8-1.2,3-1.2
		c1.2,0,2.2,0.4,2.9,1.2c0.7,0.8,1,2,1,3.5v11h4.5v-12.4c0-2.4-0.6-4.2-1.8-5.5c-1.2-1.3-2.9-1.9-5-1.9c-1.5,0-2.8,0.3-3.8,0.9
		c-1.1,0.6-2,1.5-2.8,2.5c-0.5-1-1.3-1.9-2.2-2.5c-1-0.6-2.2-0.9-3.6-0.9c-0.7,0-1.4,0.1-2,0.3c-0.6,0.2-1.1,0.4-1.6,0.8
		c-0.5,0.3-0.9,0.7-1.3,1.1c-0.4,0.4-0.7,0.8-1,1.3v-3h-4.5V534.5L87.2,534.5z M129.2,530.6c-0.7-0.3-1.3-0.8-1.9-1.4
		c-0.5-0.6-0.9-1.2-1.2-2c-0.3-0.8-0.4-1.6-0.4-2.4v-0.1c0-0.8,0.1-1.6,0.4-2.4c0.3-0.8,0.7-1.4,1.2-2c0.5-0.6,1.1-1,1.9-1.3
		c0.7-0.3,1.5-0.5,2.4-0.5c0.9,0,1.7,0.2,2.4,0.5c0.7,0.3,1.3,0.8,1.9,1.3c0.5,0.6,0.9,1.2,1.2,2c0.3,0.8,0.4,1.6,0.4,2.4v0.1
		c0,0.8-0.1,1.6-0.4,2.4c-0.3,0.8-0.7,1.4-1.2,2c-0.5,0.6-1.1,1-1.9,1.3c-0.7,0.3-1.5,0.5-2.4,0.5
		C130.7,531.1,129.9,530.9,129.2,530.6L129.2,530.6z M135.6,534.1c1.3-0.5,2.4-1.3,3.3-2.2c0.9-0.9,1.6-2,2.2-3.2
		c0.5-1.2,0.8-2.5,0.8-3.9v-0.1c0-1.4-0.3-2.7-0.8-3.9c-0.5-1.2-1.2-2.3-2.2-3.2c-0.9-0.9-2-1.6-3.3-2.2c-1.3-0.5-2.7-0.8-4.2-0.8
		c-1.5,0-2.9,0.3-4.2,0.8c-1.3,0.5-2.4,1.3-3.3,2.2c-0.9,0.9-1.6,2-2.2,3.2c-0.5,1.2-0.8,2.5-0.8,3.9v0.1c0,1.4,0.3,2.7,0.8,3.9
		c0.5,1.2,1.2,2.3,2.2,3.2c0.9,0.9,2,1.6,3.3,2.2c1.3,0.5,2.6,0.8,4.1,0.8C133,535,134.4,534.7,135.6,534.1L135.6,534.1z
		 M153.4,530.6c-0.7-0.3-1.3-0.7-1.8-1.3c-0.5-0.5-0.9-1.2-1.2-2c-0.3-0.8-0.4-1.6-0.4-2.6v-0.1c0-1,0.1-1.8,0.4-2.6
		c0.3-0.8,0.7-1.4,1.2-2c0.5-0.5,1.1-1,1.8-1.2c0.7-0.3,1.4-0.4,2.2-0.4c0.7,0,1.4,0.1,2.1,0.4c0.7,0.3,1.3,0.7,1.8,1.3
		c0.5,0.5,0.9,1.2,1.2,2c0.3,0.8,0.5,1.6,0.5,2.6v0.1c0,0.9-0.2,1.8-0.5,2.5c-0.3,0.8-0.7,1.4-1.2,2c-0.5,0.6-1.1,1-1.8,1.3
		c-0.7,0.3-1.4,0.4-2.1,0.4C154.8,531,154.1,530.9,153.4,530.6L153.4,530.6z M158.5,533.9c1.1-0.7,2-1.6,2.7-2.6l0,3.2h4.5v-26.9
		h-4.5v10.5c-0.7-0.9-1.6-1.7-2.7-2.4c-1.1-0.7-2.4-1-4-1c-1.2,0-2.3,0.2-3.4,0.7c-1.1,0.4-2.1,1.1-2.9,2c-0.8,0.9-1.5,1.9-2,3.2
		c-0.5,1.3-0.8,2.7-0.8,4.3v0.1c0,1.6,0.3,3.1,0.8,4.3c0.5,1.3,1.2,2.3,2,3.2c0.8,0.9,1.8,1.5,2.9,2c1.1,0.4,2.2,0.7,3.4,0.7
		C156.1,534.9,157.4,534.6,158.5,533.9L158.5,533.9z M171.4,534.5h4.5V515h-4.5V534.5L171.4,534.5z M171.3,512h4.8v-4.2h-4.8V512
		L171.3,512z M190.5,534.6c0.6-0.2,1.2-0.4,1.8-0.7v-3.7c-0.9,0.4-1.8,0.7-2.8,0.7c-0.8,0-1.4-0.2-1.8-0.6s-0.6-1-0.6-1.9v-9.6h5.2
		V515h-5.2v-5.4h-4.5v5.4h-2.5v3.8h2.5v10.3c0,1.1,0.1,2,0.4,2.7c0.3,0.7,0.7,1.3,1.2,1.8c0.5,0.4,1.1,0.8,1.8,1
		c0.7,0.2,1.4,0.3,2.3,0.3C189.1,534.8,189.9,534.8,190.5,534.6L190.5,534.6z M197.1,534.5h4.5V515h-4.5V534.5L197.1,534.5z
		 M196.9,512h4.8v-4.2h-4.8V512L196.9,512z M210.8,523.4c0.2-1.5,0.7-2.8,1.6-3.7c0.9-0.9,2-1.4,3.4-1.4c0.7,0,1.4,0.1,2,0.4
		c0.6,0.3,1.1,0.6,1.5,1.1c0.4,0.5,0.8,1,1,1.6c0.2,0.6,0.4,1.3,0.5,2H210.8L210.8,523.4z M221,534c1.3-0.7,2.4-1.5,3.3-2.7
		l-2.6-2.3c-0.8,0.8-1.6,1.3-2.4,1.7c-0.8,0.4-1.8,0.6-2.9,0.6c-1.5,0-2.7-0.4-3.7-1.3c-1-0.8-1.7-2.1-1.9-3.7h14.3
		c0-0.2,0-0.4,0.1-0.6c0-0.2,0-0.4,0-0.6c0-1.4-0.2-2.7-0.6-4c-0.4-1.3-1-2.4-1.8-3.3c-0.8-1-1.7-1.7-2.9-2.3
		c-1.2-0.6-2.5-0.8-4.1-0.8c-1.4,0-2.7,0.3-3.8,0.8c-1.2,0.5-2.2,1.3-3,2.2c-0.8,0.9-1.5,2-2,3.2c-0.5,1.2-0.7,2.5-0.7,3.9v0.1
		c0,1.5,0.3,2.9,0.8,4.1c0.5,1.2,1.2,2.3,2.1,3.2c0.9,0.9,2,1.6,3.2,2.1c1.2,0.5,2.5,0.7,3.9,0.7C218.1,535,219.7,534.6,221,534
		L221,534z M239.2,534.5c0.9-0.3,1.7-0.6,2.3-1.1c0.7-0.5,1.2-1.1,1.5-1.9c0.4-0.8,0.6-1.7,0.6-2.7v-0.1c0-0.9-0.2-1.6-0.6-2.2
		c-0.4-0.6-0.8-1.1-1.4-1.6c-0.6-0.4-1.2-0.8-1.9-1.1c-0.7-0.3-1.4-0.6-2.1-0.8c-0.6-0.2-1.1-0.3-1.6-0.5c-0.5-0.2-1-0.4-1.4-0.6
		c-0.4-0.2-0.7-0.4-1-0.7s-0.4-0.6-0.4-0.9v-0.1c0-0.6,0.2-1,0.7-1.4c0.5-0.4,1.1-0.6,2-0.6c0.8,0,1.7,0.2,2.7,0.5
		c1,0.3,1.9,0.8,2.8,1.3l1.8-3.2c-1-0.7-2.2-1.2-3.4-1.6c-1.3-0.4-2.5-0.6-3.7-0.6c-1,0-1.9,0.1-2.7,0.4c-0.8,0.3-1.6,0.7-2.2,1.2
		c-0.6,0.5-1.1,1.1-1.5,1.9c-0.4,0.7-0.5,1.6-0.5,2.5v0.1c0,0.9,0.2,1.7,0.6,2.4c0.4,0.6,0.8,1.2,1.4,1.6s1.2,0.8,2,1
		c0.7,0.3,1.4,0.5,2.2,0.7c0.6,0.2,1.1,0.3,1.6,0.5c0.5,0.2,1,0.4,1.4,0.6c0.4,0.2,0.7,0.4,1,0.7c0.2,0.3,0.4,0.6,0.4,1v0.1
		c0,0.6-0.3,1.1-0.8,1.5c-0.5,0.4-1.3,0.6-2.2,0.6c-1,0-2.1-0.2-3.2-0.6c-1.1-0.4-2.2-1-3.2-1.8l-2,3c1.2,1,2.6,1.7,4,2.2
		c1.4,0.5,2.9,0.7,4.3,0.7C237.4,534.9,238.3,534.8,239.2,534.5L239.2,534.5z M264.2,522.1v-9.3h5.3c1.7,0,3.1,0.4,4.1,1.2
		c1,0.8,1.5,1.9,1.5,3.5v0.1c0,1.4-0.5,2.5-1.5,3.3c-1,0.9-2.4,1.3-4.1,1.3H264.2L264.2,522.1z M259.7,534.5h4.5v-8.3h5.1
		c1.4,0,2.8-0.2,4-0.6c1.3-0.4,2.4-0.9,3.3-1.7c0.9-0.7,1.7-1.7,2.2-2.7c0.5-1.1,0.8-2.4,0.8-3.8v-0.1c0-1.3-0.2-2.5-0.7-3.5
		c-0.5-1.1-1.1-2-2-2.7c-0.8-0.8-1.9-1.3-3.1-1.8c-1.2-0.4-2.6-0.6-4.1-0.6h-10.2V534.5L259.7,534.5z M295.9,527.5
		c0,0.6-0.1,1.2-0.4,1.7c-0.3,0.5-0.6,0.9-1.1,1.3c-0.5,0.4-1,0.6-1.6,0.8c-0.6,0.2-1.3,0.3-2,0.3c-1.1,0-2-0.2-2.7-0.7
		c-0.7-0.5-1.1-1.2-1.1-2.1v-0.1c0-0.9,0.4-1.7,1.2-2.2c0.8-0.5,1.9-0.8,3.3-0.8c0.9,0,1.7,0.1,2.5,0.2c0.8,0.1,1.4,0.3,2,0.6V527.5
		L295.9,527.5z M300.2,534.5V523c0-2.6-0.7-4.6-2.1-6.1c-1.4-1.4-3.6-2.2-6.5-2.2c-1.6,0-3,0.1-4.1,0.4c-1.1,0.3-2.2,0.7-3.3,1.2
		l1.2,3.6c0.9-0.4,1.8-0.7,2.6-0.9c0.9-0.2,1.8-0.3,3-0.3c1.5,0,2.7,0.4,3.6,1.1c0.8,0.7,1.2,1.7,1.2,3.1v0.4
		c-0.8-0.2-1.6-0.4-2.4-0.6c-0.8-0.1-1.8-0.2-3-0.2c-1.1,0-2.2,0.1-3.2,0.4c-1,0.3-1.8,0.7-2.5,1.2c-0.7,0.5-1.2,1.2-1.6,2
		c-0.4,0.8-0.6,1.7-0.6,2.8v0.1c0,1,0.2,1.9,0.6,2.6c0.4,0.8,0.9,1.4,1.5,1.9c0.6,0.5,1.4,0.9,2.2,1.1c0.8,0.3,1.7,0.4,2.7,0.4
		c1.5,0,2.7-0.3,3.8-0.8c1-0.5,1.9-1.2,2.5-2v2.4H300.2L300.2,534.5z M311.6,540.2c0.6-0.2,1.2-0.5,1.7-0.9c0.5-0.4,1-1,1.4-1.7
		c0.4-0.7,0.8-1.5,1.2-2.5l7.7-20H319l-5.1,14.5l-5.5-14.5h-4.8l8.1,19.5c-0.4,0.9-0.8,1.5-1.2,1.8c-0.4,0.3-0.9,0.5-1.6,0.5
		c-0.5,0-0.9-0.1-1.3-0.2c-0.4-0.1-0.9-0.3-1.3-0.5l-1.5,3.3c0.7,0.4,1.4,0.7,2.1,0.9c0.7,0.2,1.6,0.3,2.5,0.3
		C310.3,540.5,311,540.4,311.6,540.2L311.6,540.2z M334.5,530.6c-0.7-0.3-1.3-0.8-1.9-1.4c-0.5-0.6-0.9-1.2-1.2-2
		c-0.3-0.8-0.4-1.6-0.4-2.4v-0.1c0-0.8,0.1-1.6,0.4-2.4c0.3-0.8,0.7-1.4,1.2-2c0.5-0.6,1.1-1,1.9-1.3c0.7-0.3,1.5-0.5,2.4-0.5
		c0.9,0,1.7,0.2,2.4,0.5c0.7,0.3,1.3,0.8,1.9,1.3c0.5,0.6,0.9,1.2,1.2,2c0.3,0.8,0.4,1.6,0.4,2.4v0.1c0,0.8-0.1,1.6-0.4,2.4
		c-0.3,0.8-0.7,1.4-1.2,2c-0.5,0.6-1.1,1-1.9,1.3c-0.7,0.3-1.5,0.5-2.4,0.5C336,531.1,335.2,530.9,334.5,530.6L334.5,530.6z
		 M341,534.1c1.3-0.5,2.4-1.3,3.3-2.2c0.9-0.9,1.6-2,2.2-3.2c0.5-1.2,0.8-2.5,0.8-3.9v-0.1c0-1.4-0.3-2.7-0.8-3.9
		c-0.5-1.2-1.2-2.3-2.2-3.2c-0.9-0.9-2-1.6-3.3-2.2c-1.3-0.5-2.7-0.8-4.2-0.8c-1.5,0-2.9,0.3-4.2,0.8c-1.3,0.5-2.4,1.3-3.3,2.2
		c-0.9,0.9-1.6,2-2.2,3.2c-0.5,1.2-0.8,2.5-0.8,3.9v0.1c0,1.4,0.3,2.7,0.8,3.9c0.5,1.2,1.2,2.3,2.2,3.2c0.9,0.9,2,1.6,3.3,2.2
		c1.3,0.5,2.6,0.8,4.1,0.8C338.3,535,339.7,534.7,341,534.1L341,534.1z M362.1,533.9c1-0.7,1.8-1.5,2.4-2.4v3.1h4.5V515h-4.5v11
		c0,1.5-0.4,2.7-1.2,3.6c-0.8,0.8-1.9,1.3-3.1,1.3c-1.3,0-2.3-0.4-3.1-1.2c-0.7-0.8-1.1-2-1.1-3.5v-11h-4.5v12.4
		c0,2.3,0.6,4.1,1.8,5.5c1.2,1.4,2.9,2,5.1,2C360,534.9,361.2,534.6,362.1,533.9L362.1,533.9z M383.4,534.6c0.6-0.2,1.2-0.4,1.8-0.7
		v-3.7c-0.9,0.4-1.8,0.7-2.8,0.7c-0.8,0-1.4-0.2-1.8-0.6c-0.4-0.4-0.6-1-0.6-1.9v-9.6h5.2V515h-5.2v-5.4h-4.5v5.4h-2.5v3.8h2.5v10.3
		c0,1.1,0.1,2,0.4,2.7c0.3,0.7,0.7,1.3,1.2,1.8c0.5,0.4,1.1,0.8,1.8,1c0.7,0.2,1.4,0.3,2.3,0.3C382,534.8,382.8,534.8,383.4,534.6
		L383.4,534.6z M407.7,534.5h4.6v-21.6h8.2v-4.2h-21v4.2h8.2V534.5L407.7,534.5z M428.1,523.4c0.2-1.5,0.7-2.8,1.6-3.7
		c0.9-0.9,2-1.4,3.4-1.4c0.7,0,1.4,0.1,2,0.4s1.1,0.6,1.5,1.1c0.4,0.5,0.8,1,1,1.6c0.2,0.6,0.4,1.3,0.5,2H428.1L428.1,523.4z
		 M438.3,534c1.3-0.7,2.4-1.5,3.3-2.7L439,529c-0.8,0.8-1.6,1.3-2.4,1.7c-0.8,0.4-1.8,0.6-2.9,0.6c-1.5,0-2.7-0.4-3.7-1.3
		c-1-0.8-1.7-2.1-1.9-3.7h14.3c0-0.2,0-0.4,0.1-0.6c0-0.2,0-0.4,0-0.6c0-1.4-0.2-2.7-0.6-4c-0.4-1.3-1-2.4-1.8-3.3
		c-0.8-1-1.7-1.7-2.9-2.3c-1.2-0.6-2.5-0.8-4.1-0.8c-1.4,0-2.7,0.3-3.8,0.8c-1.2,0.5-2.2,1.3-3,2.2c-0.8,0.9-1.5,2-2,3.2
		c-0.5,1.2-0.7,2.5-0.7,3.9v0.1c0,1.5,0.3,2.9,0.8,4.1c0.5,1.2,1.2,2.3,2.1,3.2c0.9,0.9,2,1.6,3.2,2.1c1.2,0.5,2.5,0.7,3.9,0.7
		C435.5,535,437,534.6,438.3,534L438.3,534z M447,534.5h4.5v-7.4c0-1.3,0.2-2.4,0.5-3.4c0.3-1,0.8-1.8,1.4-2.4
		c0.6-0.6,1.3-1.1,2.1-1.4c0.8-0.3,1.7-0.5,2.7-0.5h0.3v-4.7c-1.7-0.1-3.1,0.3-4.3,1.2c-1.1,0.9-2,2.1-2.6,3.5V515H447V534.5
		L447,534.5z M462.3,534.5h4.5v-10.9c0-1.5,0.4-2.7,1.1-3.6c0.8-0.9,1.8-1.3,3-1.3c1.2,0,2.2,0.4,2.9,1.2c0.7,0.8,1,2,1,3.5v11.1
		h4.5v-11c0-1.6,0.4-2.8,1.2-3.6c0.8-0.8,1.8-1.2,3-1.2c1.2,0,2.2,0.4,2.9,1.2c0.7,0.8,1,2,1,3.5v11h4.5v-12.4
		c0-2.4-0.6-4.2-1.8-5.5c-1.2-1.3-2.9-1.9-5-1.9c-1.5,0-2.8,0.3-3.8,0.9c-1.1,0.6-2,1.5-2.8,2.5c-0.5-1-1.3-1.9-2.2-2.5
		c-1-0.6-2.2-0.9-3.6-0.9c-0.7,0-1.4,0.1-2,0.3c-0.6,0.2-1.1,0.4-1.6,0.8c-0.5,0.3-0.9,0.7-1.3,1.1c-0.4,0.4-0.7,0.8-1,1.3v-3h-4.5
		V534.5L462.3,534.5z M506.9,534.5c0.9-0.3,1.7-0.6,2.3-1.1c0.7-0.5,1.2-1.1,1.5-1.9c0.4-0.8,0.6-1.7,0.6-2.7v-0.1
		c0-0.9-0.2-1.6-0.6-2.2c-0.4-0.6-0.8-1.1-1.4-1.6c-0.6-0.4-1.2-0.8-1.9-1.1c-0.7-0.3-1.4-0.6-2.1-0.8c-0.6-0.2-1.1-0.3-1.6-0.5
		c-0.5-0.2-1-0.4-1.4-0.6c-0.4-0.2-0.7-0.4-1-0.7c-0.2-0.3-0.4-0.6-0.4-0.9v-0.1c0-0.6,0.2-1,0.7-1.4c0.5-0.4,1.2-0.6,2-0.6
		c0.8,0,1.7,0.2,2.7,0.5c1,0.3,1.9,0.8,2.8,1.3l1.8-3.2c-1-0.7-2.2-1.2-3.4-1.6c-1.3-0.4-2.5-0.6-3.7-0.6c-1,0-1.9,0.1-2.7,0.4
		c-0.8,0.3-1.6,0.7-2.2,1.2c-0.6,0.5-1.1,1.1-1.5,1.9c-0.4,0.7-0.5,1.6-0.5,2.5v0.1c0,0.9,0.2,1.7,0.6,2.4c0.4,0.6,0.8,1.2,1.4,1.6
		c0.6,0.4,1.2,0.8,2,1c0.7,0.3,1.4,0.5,2.2,0.7c0.6,0.2,1.1,0.3,1.6,0.5c0.5,0.2,1,0.4,1.4,0.6c0.4,0.2,0.7,0.4,1,0.7
		c0.2,0.3,0.4,0.6,0.4,1v0.1c0,0.6-0.3,1.1-0.8,1.5c-0.5,0.4-1.3,0.6-2.2,0.6c-1,0-2.1-0.2-3.2-0.6c-1.1-0.4-2.2-1-3.2-1.8l-2,3
		c1.2,1,2.6,1.7,4,2.2c1.4,0.5,2.9,0.7,4.3,0.7C505,534.9,506,534.8,506.9,534.5L506.9,534.5z"/>
	<path class="st0" d="M287.6,125.1c-3.3,0.6-6.6,0.6-9.7-0.3c-3.8,8-10.9,16.6-20.5,25c-8.4-9.1-18.6-18.2-30.5-27
		c4.2-14.1,7-27.5,8.4-39.8c12.7,1.1,23.5,3.8,31.4,7.9c2-2.5,4.6-4.5,7.6-6c-9.4-5.9-22.5-9.6-38.2-11c0.9-15.7-0.8-29.3-5.3-39.4
		c-1.9,2.8-4.3,5-7,6.6c3,8.4,4,19.4,3.2,32.2c-12.3-0.4-26,0.5-40.5,2.6c-7-13-14.5-24.5-22.3-34.3c9.8-8.2,19.3-14,27.8-16.6
		c-0.4-3.2,0-6.4,1.1-9.6c-10.8,2.5-22.7,9.1-34.8,19.2c-10.5-11.7-21.3-20.1-31.6-24.1c0.6,3.3,0.6,6.6-0.3,9.7
		c8,3.8,16.6,10.9,25,20.5c-9.1,8.4-18.2,18.6-27,30.5c-14.1-4.2-27.5-7-39.8-8.4c1.1-12.7,3.8-23.5,7.9-31.4c-2.5-2-4.5-4.6-6-7.6
		c-5.9,9.4-9.6,22.5-11,38.2c-15.7-0.9-29.3,0.8-39.4,5.3c2.8,1.9,5,4.3,6.6,7c8.4-3,19.4-4,32.2-3.2c-0.5,12.4,0.3,26.1,2.5,40.7
		c-13,7-24.5,14.4-34.1,22.1c-8.2-9.8-14-19.3-16.6-27.8c-3.2,0.4-6.4,0-9.6-1.1c2.5,10.8,9.1,22.7,19.2,34.8
		c-11.7,10.5-20.1,21.3-24.1,31.6c3.3-0.6,6.6-0.6,9.7,0.3c3.8-8,10.9-16.6,20.5-25c8.4,9.1,18.6,18.2,30.5,27
		c-4.2,14.1-7,27.5-8.4,39.8c-12.7-1.1-23.5-3.8-31.4-7.9c-2,2.5-4.6,4.5-7.6,6c9.4,5.9,22.5,9.6,38.2,11
		c-0.9,15.7,0.8,29.3,5.3,39.4c1.9-2.8,4.3-5,7-6.6c-3-8.4-4-19.4-3.2-32.2c12.3,0.4,26-0.5,40.5-2.6c7,13,14.5,24.5,22.3,34.3
		c-9.8,8.2-19.3,14-27.8,16.6c0.4,3.2,0,6.4-1.1,9.6c10.8-2.5,22.7-9.1,34.8-19.2c10.5,11.7,21.3,20.1,31.6,24.1
		c-0.6-3.3-0.6-6.6,0.3-9.7c-8-3.8-16.6-10.9-25-20.5c9.1-8.4,18.2-18.6,27-30.5c14.1,4.2,27.5,7,39.8,8.4
		c-1.1,12.7-3.8,23.5-7.9,31.4c2.5,2,4.5,4.6,6,7.6c5.9-9.4,9.6-22.5,11-38.2c15.7,0.9,29.3-0.8,39.4-5.3c-2.8-1.9-5-4.3-6.6-7
		c-8.4,3-19.4,4-32.2,3.2c0.5-12.4-0.3-26.1-2.5-40.7c13-7,24.5-14.4,34.1-22.1c8.2,9.8,14,19.3,16.6,27.8c3.2-0.4,6.4,0,9.6,1.1
		c-2.5-10.8-9.1-22.7-19.2-34.8C275.2,146.2,283.6,135.5,287.6,125.1L287.6,125.1z M181.1,217.4c4.1-6,8.2-12.3,12.1-18.8
		c7.1-2.9,13.9-6,20.4-9.3c1.7,12.6,2.3,24.5,2,35.3C205,223.3,193.3,220.9,181.1,217.4L181.1,217.4z M87.7,117
		c3.7-1.9,7.5-3.8,11.4-5.6c-1.6,2.9-3.2,5.9-4.7,8.9c-1.5,3-3,6.1-4.4,9.1C89.2,125.2,88.4,121.1,87.7,117L87.7,117z M87.9,158.1
		c1,3.2,1.9,6.4,3,9.6c1.1,3.2,2.2,6.4,3.3,9.5c-3.6-2.4-7.1-4.7-10.5-7.2C85,166.2,86.4,162.2,87.9,158.1L87.9,158.1z M102.6,124.4
		c3.3-6.6,6.9-12.9,10.5-19.1c6.6-2.6,13.3-5.1,20.3-7.4s13.9-4.3,20.7-6.1c6.6,2.8,13.2,5.8,19.8,9.1c6.6,3.3,12.9,6.9,19.1,10.5
		c2.6,6.6,5.1,13.3,7.4,20.3c2.3,7,4.3,13.9,6.1,20.7c-2.8,6.6-5.8,13.2-9.1,19.8c-3.3,6.6-6.9,12.9-10.5,19.1
		c-6.6,2.6-13.3,5.1-20.3,7.4s-13.9,4.3-20.7,6.1c-6.6-2.8-13.2-5.8-19.8-9.1c-6.6-3.3-12.9-6.9-19.1-10.5
		c-2.6-6.6-5.1-13.3-7.4-20.3c-2.3-7-4.3-13.9-6.1-20.7C96.3,137.6,99.3,131,102.6,124.4L102.6,124.4z M205.5,176.3
		c1.5-3,3-6.1,4.4-9.1c0.9,4.2,1.7,8.3,2.4,12.4c-3.7,1.9-7.5,3.8-11.4,5.6C202.4,182.3,203.9,179.3,205.5,176.3L205.5,176.3z
		 M205.7,119.3c3.6,2.4,7.1,4.7,10.5,7.2c-1.3,4-2.7,8-4.2,12c-1-3.2-1.9-6.4-3-9.6C207.9,125.6,206.8,122.4,205.7,119.3
		L205.7,119.3z M171.8,214.5c-4-1.3-8-2.7-12-4.2c3.2-1,6.4-1.9,9.6-3c3.2-1.1,6.4-2.2,9.5-3.3C176.6,207.6,174.2,211.1,171.8,214.5
		L171.8,214.5z M123.1,219.1c7.2-1.3,14.5-2.8,22-4.7c7.1,3,14.1,5.6,21,7.9c-7.8,10.1-15.7,19-23.5,26.4
		C135.8,240.2,129.3,230.2,123.1,219.1L123.1,219.1z M113,199.1c2.9,1.6,5.9,3.2,8.9,4.7c3,1.5,6.1,3,9.1,4.4
		c-4.2,0.9-8.4,1.6-12.5,2.3C116.6,206.8,114.8,203,113,199.1L113,199.1z M73.7,214c1.3-10.7,3.7-22.3,7.2-34.6
		c6,4.1,12.3,8.2,18.8,12.1c2.9,7.1,6,13.9,9.2,20.3C96.3,213.6,84.4,214.3,73.7,214L73.7,214z M83.8,143.4c-3,7.1-5.6,14.1-7.9,21
		c-10.1-7.8-19-15.7-26.4-23.5c8.4-6.6,18.5-13.1,29.6-19.2C80.4,128.7,82,136,83.8,143.4L83.8,143.4z M118.8,79.2
		c-4.1,6-8.2,12.3-12.1,18.8c-7.1,2.9-13.9,6-20.4,9.3c-1.7-12.6-2.3-24.5-2-35.3C94.9,73.3,106.6,75.7,118.8,79.2L118.8,79.2z
		 M128.1,82.1c4,1.3,8,2.7,12,4.2c-3.2,1-6.4,1.9-9.6,3c-3.2,1.1-6.4,2.2-9.5,3.3C123.3,89,125.7,85.4,128.1,82.1L128.1,82.1z
		 M176.8,77.5c-7.2,1.3-14.5,2.8-22,4.7c-7.1-3-14.1-5.6-21-7.9c7.8-10.1,15.7-19,23.5-26.4C164.1,56.4,170.6,66.3,176.8,77.5
		L176.8,77.5z M186.9,97.5c-2.9-1.6-5.9-3.2-8.9-4.7c-3-1.5-6.1-3-9.1-4.4c4.2-0.9,8.4-1.6,12.5-2.3
		C183.3,89.8,185.1,93.6,186.9,97.5L186.9,97.5z M226.2,82.6c-1.3,10.7-3.7,22.3-7.2,34.6c-6-4.1-12.3-8.2-18.8-12.1
		c-2.9-7.1-6-13.9-9.2-20.3C203.6,83,215.5,82.3,226.2,82.6L226.2,82.6z M250.4,155.8c-8.4,6.6-18.5,13.1-29.6,19.2
		c-1.3-7.1-2.9-14.4-4.7-21.8c3-7.1,5.6-14.1,7.9-21C234.1,140,243,147.9,250.4,155.8L250.4,155.8z"/>
	<path class="st0" d="M169.9,172.5c2.4-1.7,4.4-3.6,5.8-5.8c1.4-2.2,2.3-4.5,2.7-7.1c0.3-2.5,0.1-5.2-0.9-8l-0.1-0.2
		c-0.8-2.5-2-4.6-3.6-6.1c-1.5-1.5-3.4-2.7-5.6-3.4c-2.2-0.7-4.7-1.1-7.5-1.2c-2.8-0.1-5.9,0.1-9.3,0.4c-2,0.2-3.7,0.3-5.1,0.3
		c-1.4,0-2.4-0.1-3.3-0.2c-0.8-0.2-1.5-0.4-1.9-0.8c-0.4-0.4-0.8-0.9-1-1.5l-0.1-0.2c-0.3-1-0.1-2,0.5-2.9c0.7-1,1.9-1.8,3.8-2.4
		c2.4-0.8,5.1-1.2,8.1-1.1c2.9,0,5.9,0.5,9,1.5l4-13.2c-3.8-1.4-7.7-2.2-11.8-2.2c-4.1,0-8.5,0.7-13.2,2.3c-3.3,1.1-6.1,2.5-8.4,4.2
		c-2.3,1.7-4.2,3.7-5.5,5.8c-1.3,2.2-2.1,4.5-2.4,6.9c-0.3,2.5,0,5,0.9,7.5l0.1,0.2c0.9,2.8,2.2,5,3.9,6.5c1.7,1.5,3.7,2.7,5.9,3.3
		c2.3,0.7,4.8,1,7.6,1c2.8,0,5.7-0.2,8.9-0.5c2-0.2,3.7-0.3,5-0.3c1.3,0,2.4,0.1,3.2,0.3s1.5,0.5,1.9,0.8c0.4,0.4,0.7,0.8,0.9,1.4
		l0.1,0.2c0.4,1.2,0.2,2.3-0.7,3.3c-0.9,1-2.3,1.8-4.3,2.5c-6.4,2.1-13,1.9-19.9-0.7l-5.1,12.9c4.4,1.9,9,2.9,13.9,3
		c4.9,0.1,9.8-0.7,14.7-2.3C164.6,175.6,167.5,174.2,169.9,172.5L169.9,172.5z"/>
	<path class="st0" d="M144.4,115.6l-2.6-7.9l-11.3,3.7l2.7,8.3c1.9-1.1,3.9-2.1,6.2-2.9C141.1,116.3,142.8,115.9,144.4,115.6
		L144.4,115.6z"/>
	<path class="st0" d="M154,182.5l2.3,7l11.3-3.7l-2.1-6.3c-0.9,0.4-1.9,0.8-2.9,1.2C159.7,181.6,156.8,182.2,154,182.5L154,182.5z"
		/>
	<path class="st0" d="M297.5,99.6c-2.6-7.8-10.9-12-18.7-9.4c-7.8,2.6-12,10.9-9.4,18.7c2.6,7.8,10.9,12,18.7,9.4
		C295.8,115.8,300.1,107.4,297.5,99.6L297.5,99.6z"/>
	<path class="st0" d="M226.4,29.5c3.7-7.3,0.7-16.2-6.6-19.9c-7.3-3.7-16.2-0.7-19.9,6.6c-3.7,7.3-0.7,16.2,6.6,19.9
		C213.9,39.7,222.8,36.8,226.4,29.5L226.4,29.5z"/>
	<path class="st0" d="M120,10.2c-2.6-7.8-10.9-12-18.7-9.4c-7.8,2.6-12,10.9-9.4,18.7c2.6,7.8,10.9,12,18.7,9.4
		C118.3,26.3,122.6,17.9,120,10.2L120,10.2z"/>
	<path class="st0" d="M31.1,71.8c-7.3-3.7-16.2-0.7-19.9,6.6c-3.7,7.3-0.7,16.2,6.6,19.9c7.3,3.7,16.2,0.7,19.9-6.6
		C41.4,84.4,38.4,75.5,31.1,71.8L31.1,71.8z"/>
	<path class="st0" d="M11.8,178.2c-7.8,2.6-12,10.9-9.4,18.7c2.6,7.8,10.9,12,18.7,9.4c7.8-2.6,12-10.9,9.4-18.7
		C28,179.9,19.6,175.7,11.8,178.2L11.8,178.2z"/>
	<path class="st0" d="M73.5,267.1c-3.7,7.3-0.7,16.2,6.6,19.9c7.3,3.7,16.2,0.7,19.9-6.6c3.7-7.3,0.7-16.2-6.6-19.9
		C86.1,256.9,77.1,259.8,73.5,267.1L73.5,267.1z"/>
	<path class="st0" d="M179.9,286.4c2.6,7.8,10.9,12,18.7,9.4c7.8-2.6,12-10.9,9.4-18.7c-2.6-7.8-10.9-12-18.7-9.4
		C181.6,270.3,177.3,278.6,179.9,286.4L179.9,286.4z"/>
	<path class="st0" d="M268.8,224.8c7.3,3.7,16.2,0.7,19.9-6.6c3.7-7.3,0.7-16.2-6.6-19.9c-7.3-3.7-16.2-0.7-19.9,6.6
		C258.5,212.2,261.5,221.1,268.8,224.8L268.8,224.8z"/>
</g>
</svg>
