<?xml version="1.0" encoding="utf-8"?>
<!-- Generator: Adobe Illustrator 25.4.1, SVG Export Plug-In . SVG Version: 6.00 Build 0)  -->
<svg version="1.1" id="Layer_1" xmlns="http://www.w3.org/2000/svg" xmlns:xlink="http://www.w3.org/1999/xlink" x="0px" y="0px"
	 viewBox="0 0 722.2 428.2" style="enable-background:new 0 0 722.2 428.2;" xml:space="preserve">
<style type="text/css">
	.st0{fill:#008FFF;}
	.st1{fill:#000029;}
</style>
<g>
	<path class="st0" d="M0,427.4h10.1v-30.5l13.1,19.9h0.3l13.2-20.1v30.7H47v-47H35.9l-12.4,19.9l-12.4-19.9H0V427.4L0,427.4z
		 M58.3,427.4h35.8v-9.2H68.6v-9.9h22.2v-9.2H68.6v-9.5h25.2v-9.2H58.3V427.4L58.3,427.4z M103.3,427.4h18.3c14.8,0,25-10.3,25-23.5
		v-0.1c0-13.2-10.2-23.4-25-23.4h-18.3V427.4L103.3,427.4z M121.6,389.7c8.5,0,14.2,5.8,14.2,14.2v0.1c0,8.3-5.7,14-14.2,14h-8
		v-28.3H121.6L121.6,389.7z M156.3,427.4h10.3v-47h-10.3V427.4L156.3,427.4z M174.3,427.4h10.5l4.3-10.5h19.9l4.3,10.5h10.8
		L204,380.1h-9.5L174.3,427.4L174.3,427.4z M192.9,407.7l6.2-15.2l6.2,15.2H192.9L192.9,407.7z M251.6,427.4h22.4
		c10.6,0,17.6-4.3,17.6-12.9v-0.1c0-6.3-3.4-9.5-8.8-11.6c3.4-1.9,6.2-4.8,6.2-10.1v-0.1c0-3.2-1.1-5.8-3.2-8
		c-2.7-2.7-6.9-4.2-12.3-4.2h-21.8V427.4L251.6,427.4z M278.6,394.4c0,3.5-2.9,5-7.5,5h-9.5v-9.9h10.2c4.4,0,6.8,1.7,6.8,4.8V394.4
		L278.6,394.4z M281.3,413.1v0.1c0,3.5-2.8,5.1-7.3,5.1h-12.3V408h12C278.9,408,281.3,410,281.3,413.1L281.3,413.1z M300.1,427.4
		h10.3v-15h8.1l10.1,15h12.1l-11.5-16.8c6-2.2,10.1-7,10.1-14.6v-0.1c0-4.4-1.4-8.1-4-10.7c-3.1-3.1-7.7-4.8-13.7-4.8h-21.5V427.4
		L300.1,427.4z M310.4,403.2v-13.5h10.3c5,0,8.1,2.3,8.1,6.7v0.1c0,4-2.9,6.7-7.9,6.7H310.4L310.4,403.2z M349.1,427.4h10.3v-47
		h-10.3V427.4L349.1,427.4z M371.2,427.4h18.3c14.8,0,25-10.3,25-23.5v-0.1c0-13.2-10.2-23.4-25-23.4h-18.3V427.4L371.2,427.4z
		 M389.5,389.7c8.5,0,14.2,5.8,14.2,14.2v0.1c0,8.3-5.7,14-14.2,14h-8v-28.3H389.5L389.5,389.7z M446.3,428.2
		c8.6,0,15.2-3.4,20.1-7.4v-20.4H446v8.9h10.4v6.7c-2.6,1.9-6,2.8-9.7,2.8c-8.3,0-14.2-6.3-14.2-14.9v-0.1c0-8,6-14.6,13.5-14.6
		c5.4,0,8.7,1.7,12.3,4.8l6.5-7.9c-4.9-4.2-10-6.4-18.5-6.4c-14.2,0-24.6,10.9-24.6,24.3v0.1C421.6,418,431.7,428.2,446.3,428.2
		L446.3,428.2z M476.3,427.4h35.8v-9.2h-25.5v-9.9h22.2v-9.2h-22.2v-9.5h25.2v-9.2h-35.5V427.4L476.3,427.4z"/>
	<path class="st1" d="M198.1,191.9V6.2c0-3.4-2.8-6.2-6.2-6.2H6.2C2.8,0,0,2.8,0,6.2v185.8c0,3.4,2.8,6.2,6.2,6.2h185.8
		C195.3,198.1,198.1,195.3,198.1,191.9L198.1,191.9z"/>
	<path class="st0" d="M141.5,79.6V58.4c0-4.3-2.3-8.4-6.1-10.6c-5.7-3.3-17.9-8.9-36.4-8.9c-18.5,0-30.7,5.6-36.4,8.9
		c-3.8,2.2-6.1,6.3-6.1,10.6v31.8l67.3,19.5v14.2c0,1.9-1.2,3.3-3.3,4.3L99,138.9L77.4,128c-1.9-0.9-3.1-2.3-3.1-4.2v-10.6
		l-17.7-5.3v15.9c0,8.8,5,16.2,13,20.1L99,159.3l29.4-15.3c8.1-3.9,13.1-11.4,13.1-20.1V97.3L74.3,77.8V61.6
		c4.8-2.3,13-5.1,24.8-5.1c11.8,0,20,2.8,24.8,5.1v12.6L141.5,79.6L141.5,79.6z"/>
	<path class="st1" d="M37.4,346.1c-14.2,0-26.4-4.6-37.4-11.5l6.8-10.3c11,7,21,10.4,32.3,10.4c13.2,0,19.4-5.1,19.4-11.1
		c0-17.2-55.9-6.9-55.9-34.2c0-13.3,13.3-23.8,34.8-23.8c14.5,0,27,5.4,34.4,12.8l-8.4,8.6c-6.3-5.5-16.1-9.9-26.2-9.9
		c-12.5,0-21,4.5-21,11c0,15.9,56.1,7.5,56.1,34.4C72.2,336.5,57.9,346.1,37.4,346.1L37.4,346.1z M127,313.2v30.2h-13.6v-30.3
		l-33.9-45h15.8l25.4,34.8l24.1-34.8h15.6L127,313.2L127,313.2z M255.1,343.4v-59l-3.7,8l-26.7,51h-8.1l-26.3-51l-3.7-8v59h-13
		v-75.3h18.9l25.3,50.6l3.5,7.7l3.5-7.7l25-50.6h18.6v75.3H255.1L255.1,343.4z M342.1,290.5c0-6.2-4.2-10.9-14.5-10.9h-25v24.3h25.5
		c10.3,0,13.9-5,13.9-11.1V290.5L342.1,290.5z M326.2,315h-23.5v28.4h-13.6v-75.3h37.1c20.6,0,29.6,9.3,29.6,22.4v2
		C355.8,305.6,346.7,315,326.2,315L326.2,315z M429.7,343.4v-32.4h-45.3v32.4h-13.6v-75.3h13.6V300h45.3v-31.9h13.6v75.3H429.7
		L429.7,343.4z M525.2,301.1c0-12.9-8.9-24-25.4-24c-16.5,0-25.3,11.1-25.3,24v9.2c0,12.9,8.8,24.2,25.3,24.2
		c16.5,0,25.4-11.3,25.4-24.2V301.1L525.2,301.1z M499.7,346.1c-24.2,0-39-17.2-39-35.6v-9.4c0-18.8,14.8-35.6,39-35.6
		c24.3,0,39.1,16.8,39.1,35.6v9.4C538.8,328.9,524,346.1,499.7,346.1L499.7,346.1z M617.1,343.4L575,295.8l-5.4-7v54.6h-13.5v-75.3
		h12.5l40.8,47.7l5.5,7v-54.7h13.3v75.3H617.1L617.1,343.4z M688.7,313.2v30.2h-13.6v-30.3l-33.9-45h15.8l25.4,34.8l24.1-34.8h15.6
		L688.7,313.2L688.7,313.2z"/>
</g>
</svg>
