<?xml version="1.0" encoding="utf-8"?>
<!-- Generator: Adobe Illustrator 24.1.0, SVG Export Plug-In . SVG Version: 6.00 Build 0)  -->
<svg version="1.1" id="Layer_1" xmlns="http://www.w3.org/2000/svg" xmlns:xlink="http://www.w3.org/1999/xlink" x="0px" y="0px"
	 viewBox="0 0 720 146.54" style="enable-background:new 0 0 720 146.54;" xml:space="preserve">
<style type="text/css">
	.st0{fill:#00000A;}
</style>
<g>
	<path class="st0" d="M456.03,38.3c-13.09,0-23.84,4.1-31.65,12.7V0H393.9v144.98h29.11v-12.11c7.62,9.18,18.95,13.68,33.02,13.68
		c29.5,0,52.36-21.1,52.36-54.12C508.4,59.4,485.54,38.3,456.03,38.3L456.03,38.3z M450.76,121.53c-15.24,0-26.77-10.94-26.77-29.11
		c0-18.17,11.53-29.11,26.77-29.11c15.24,0,26.77,10.94,26.77,29.11C477.52,110.59,466,121.53,450.76,121.53L450.76,121.53z
		 M578.73,146.54c33.41,0,57.64-22.47,57.64-54.12S612.15,38.3,578.73,38.3c-33.41,0-57.84,22.47-57.84,54.12
		S545.32,146.54,578.73,146.54L578.73,146.54z M578.73,121.53c-15.24,0-26.96-10.94-26.96-29.11c0-18.17,11.72-29.11,26.96-29.11
		s26.77,10.94,26.77,29.11C605.5,110.59,593.97,121.53,578.73,121.53L578.73,121.53z M711.99,118.41
		c-3.52,2.54-8.01,3.91-12.51,3.91c-8.21,0-12.9-4.89-12.9-13.87V65.65h25.99V42.2h-25.99v-25.6h-30.48v92.22
		c0,25.01,14.26,37.71,39.27,37.71c9.18,0,18.37-2.15,24.62-6.64L711.99,118.41L711.99,118.41z"/>
	<path class="st0" d="M344.86,115.08c13.29,0,24.42-10.55,24.42-24.81c0-14.26-11.14-24.62-24.42-24.62
		c-13.48,0-24.42,10.36-24.42,24.62C320.43,104.53,331.38,115.08,344.86,115.08L344.86,115.08z"/>
	<path class="st0" d="M58.62,146.54c22.08,0,39.47-9.77,47.09-26.57l-23.64-12.9c-5.67,10.16-14.07,14.46-23.64,14.46
		c-15.44,0-27.55-10.75-27.55-29.11c0-18.37,12.11-29.11,27.55-29.11c9.57,0,17.98,4.49,23.64,14.46l23.64-12.7
		C98.08,47.87,80.7,38.3,58.62,38.3C24.42,38.3,0,60.77,0,92.42S24.42,146.54,58.62,146.54L58.62,146.54z M160.22,146.54
		c5.28,0,10.55-0.78,15.83-2.54l-1.37-23.64c-1.76,0.98-5.27,1.95-8.6,1.95c-8.4,0-13.09-4.89-13.09-13.87V0h-30.48v110.2
		C122.51,133.65,136.57,146.54,160.22,146.54L160.22,146.54z M265.34,39.86V51c-7.62-8.6-18.56-12.7-31.46-12.7
		c-29.7,0-52.56,21.1-52.56,54.12c0,33.02,22.86,54.12,52.56,54.12c14.07,0,25.2-4.49,32.82-13.68v12.11h29.11V39.86H265.34
		L265.34,39.86z M239.15,121.53c-15.24,0-26.96-10.94-26.96-29.11c0-18.17,11.72-29.11,26.96-29.11c15.04,0,26.77,10.94,26.77,29.11
		C265.92,110.59,254.2,121.53,239.15,121.53L239.15,121.53z"/>
</g>
</svg>
