<?xml version="1.0" encoding="utf-8"?>
<!-- Generator: Adobe Illustrator 24.1.0, SVG Export Plug-In . SVG Version: 6.00 Build 0)  -->
<svg version="1.1" id="Layer_1" xmlns="http://www.w3.org/2000/svg" xmlns:xlink="http://www.w3.org/1999/xlink" x="0px" y="0px"
	 viewBox="0 0 719.34 105.7" style="enable-background:new 0 0 719.34 105.7;" xml:space="preserve">
<style type="text/css">
	.st0{fill:#97999B;}
	.st1{fill:#25282A;}
</style>
<path class="st0" d="M189.47,64.13c15.35-4.68,22.66-16.37,22.66-29.82c0-18.42-12.86-33.04-38.45-33.04h-35.56v0h-3.38H68.81H1.52
	v0H0v103.07h28.65V69.54h14.18c11.1,0,19.72-2.88,25.97-7.55v42.34h59.7h6.23h22.42V66.32h3.07l20.47,38.01h32.02L189.47,64.13z
	 M128.51,41.03H97.46V24.21h31.05V41.03z M40.06,46.73h-11.4V24.36h11.4c8.62,0,12.13,4.39,12.13,11.26
	C52.19,42.34,48.68,46.73,40.06,46.73z M97.46,81.38V62.81h31.05v18.57H97.46z M171.35,46.73h-14.18V25.24h14.18
	c7.75,0,11.7,4.24,11.7,10.67C183.04,42.93,179.09,46.73,171.35,46.73z"/>
<path class="st1" d="M682.06,24.56h37.28V1.61h-49.33h-16.6h-13.96l-23.24,74.41L592.82,1.61h-9.61h-21.09h-6.1h-26.95h-1.71h-27.48
	h-84.49h-1.01H247.32C243.01,0.55,238.26,0,233.12,0c-21.78,0-38.6,10.82-38.6,30.99c-0.44,35.82,49.56,28.07,49.7,44.59
	c0,4.82-3.95,7.46-9.06,7.46c-5.26,0-9.79-2.63-10.38-10.38h-30.38l15.22,26.33c7.18,4.39,16.3,6.71,26.56,6.71
	c3.86,0,7.46-0.36,10.78-1.02h35.67V69.88h14.18c4.17,0,7.98-0.41,11.46-1.16v13.02v22.93v0h22.93v0H409v-0.29
	c1.98,0.19,4.01,0.29,6.09,0.29c25.88,0,44.3-14.66,49.41-37.66h-30.85c-3.66,7.62-10.53,11.79-19.01,11.79
	c-13.16,0-21.78-10.06-21.78-25.73c0-15.52,8.62-25.59,21.78-25.59c8.48,0,15.35,4.17,19.01,11.79h30.85
	c-1.21-5.45-3.18-10.43-5.81-14.86h14.24v80.26h28.65V24.41h25.48v57.45h-13.14v22.81h13.14h28.65h13.43V81.87h-13.14V24.41h13.99
	l27.78,80.26h36.69l18.93-54.91v54.91h65.93V81.72h-37.28V64.6h30.22c-0.69-3.68-1.1-7.51-1.1-11.54c0-3.97,0.4-7.76,1.08-11.39
	h-30.19v-0.3V24.56z M225.08,29.97c0-4.97,3.36-7.46,7.6-7.31c5.26,0,9.21,2.92,9.5,9.36h11.81v14.73
	C240.39,40.76,225.08,38.5,225.08,29.97z M294.04,47.07h-11.4V24.71h11.4c8.63,0,12.14,4.39,12.14,11.26
	C306.18,42.69,302.67,47.07,294.04,47.07z M331.21,64.6h30.13c-0.69-3.68-1.1-7.51-1.1-11.54c0-3.97,0.4-7.76,1.08-11.39h-26.34
	c0.29-1.87,0.44-3.78,0.44-5.71c0-4.06-0.55-7.89-1.64-11.43h37.45c-4.81,7.98-7.45,17.67-7.45,28.53c0,10.93,2.65,20.67,7.48,28.68
	h-40.05V64.6z"/>
</svg>
