<?xml version="1.0" encoding="utf-8"?>
<!-- Generator: Adobe Illustrator 24.1.0, SVG Export Plug-In . SVG Version: 6.00 Build 0)  -->
<svg version="1.1" id="Layer_1" xmlns="http://www.w3.org/2000/svg" xmlns:xlink="http://www.w3.org/1999/xlink" x="0px" y="0px"
	 viewBox="0 0 719.35 105.7" style="enable-background:new 0 0 719.35 105.7;" xml:space="preserve">
<style type="text/css">
	.st0{fill:#6D7181;}
	.st1{fill:#00000A;}
</style>
<g>
	<path class="st0" d="M212.72,104.33H180.7l-20.47-38.01h-3.07v38.01h-28.65v0h-59.7V61.96c-6.26,4.68-14.86,7.57-25.98,7.57H28.65
		v34.79H0V1.26h1.52h67.29h65.93h3.38h35.56c25.58,0,38.45,14.62,38.45,33.04c0,13.45-7.31,25.15-22.66,29.82L212.72,104.33
		 M97.46,62.81v18.57h31.05V62.81H97.46 M157.17,25.24v21.49h14.18c7.75,0,11.69-3.8,11.69-10.82c0-6.43-3.95-10.67-11.69-10.67
		H157.17 M28.65,24.36v22.37h11.4c8.62,0,12.13-4.39,12.13-11.11c0-6.87-3.51-11.26-12.13-11.26H28.65 M97.46,24.21v16.81h31.05
		V24.21H97.46"/>
	<path class="st1" d="M682.07,81.72V64.61h30.22c-0.69-3.68-1.1-7.51-1.1-11.54c0-3.97,0.39-7.76,1.07-11.39h-30.19v-0.3V24.56
		h37.28V1.61h-49.34h-16.6h-13.96l-23.24,74.41L592.82,1.61h-9.61h-21.09h-6.1h-26.95h-1.71h-27.48h-84.49h-1.01H247.17
		C242.9,0.57,238.21,0,233.12,0c-21.78,0-38.6,10.82-38.6,30.99c-0.44,35.82,49.56,28.07,49.71,44.59c0,4.82-3.95,7.46-9.06,7.46
		c-5.26,0-9.8-2.63-10.38-10.38h-30.38l15.23,26.33c7.18,4.39,16.3,6.71,26.56,6.71c3.79,0,7.3-0.38,10.57-1.02h35.88V69.88h14.18
		c4.18,0,7.97-0.45,11.46-1.2v13.07v22.93h22.93h77.8v-0.29c1.98,0.19,4.01,0.29,6.09,0.29c25.88,0,44.3-14.66,49.41-37.66h-30.85
		c-3.65,7.62-10.53,11.79-19.01,11.79c-13.16,0-21.78-10.06-21.78-25.73c0-15.52,8.62-25.59,21.78-25.59
		c8.48,0,15.35,4.17,19.01,11.79h30.85c-1.21-5.46-3.2-10.42-5.83-14.86h14.26v80.26h28.65V24.41h25.48v57.45h-13.14v22.81h13.14
		h28.65h13.43V81.87h-13.14V24.41h13.99l27.78,80.26h36.69l18.93-54.91v54.91h65.93V81.72H682.07L682.07,81.72z M282.64,24.71h11.4
		c8.63,0,12.14,4.39,12.14,11.26c0,6.72-3.51,11.11-12.14,11.11h-11.4V24.71L282.64,24.71z M253.99,32.02v14.74
		c-13.6-5.99-28.91-8.25-28.91-16.79c0-4.97,3.36-7.46,7.6-7.31c5.26,0,9.21,2.92,9.5,9.36H253.99L253.99,32.02z M363.78,53.07
		c0,10.93,2.65,20.67,7.48,28.68h-40.05V64.61h30.13c-0.69-3.68-1.1-7.51-1.1-11.54c0-3.97,0.39-7.76,1.08-11.39h-26.36
		c0.29-1.87,0.46-3.78,0.46-5.71c0-4.07-0.58-7.89-1.66-11.43h37.48C366.42,32.51,363.78,42.21,363.78,53.07L363.78,53.07z"/>
</g>
</svg>
