<?xml version="1.0" encoding="utf-8"?>
<!-- Generator: Adobe Illustrator 24.1.0, SVG Export Plug-In . SVG Version: 6.00 Build 0)  -->
<svg version="1.1" id="Layer_1" xmlns="http://www.w3.org/2000/svg" xmlns:xlink="http://www.w3.org/1999/xlink" x="0px" y="0px"
	 viewBox="0 0 720 262.74" style="enable-background:new 0 0 720 262.74;" xml:space="preserve">
<style type="text/css">
	.st0{fill:#FFFFFF;}
</style>
<g>
	<path class="st0" d="M343.44,207.21c2.77-0.86,5.15-2.1,7.15-3.72c2-1.62,3.55-3.63,4.67-6.03c1.12-2.39,1.67-5.13,1.67-8.2v-0.18
		c0-2.72-0.43-5.05-1.29-7c-0.86-1.95-2.13-3.65-3.82-5.1c-1.69-1.45-3.76-2.69-6.22-3.72c-2.46-1.03-5.26-1.96-8.4-2.79
		c-2.67-0.71-4.88-1.33-6.62-1.86c-1.75-0.53-3.13-1.09-4.13-1.68c-1.01-0.59-1.7-1.26-2.09-1.99c-0.39-0.74-0.58-1.61-0.58-2.61
		v-0.18c0-1.54,0.67-2.82,1.99-3.86c1.33-1.03,3.32-1.55,5.98-1.55c2.66,0,5.32,0.55,7.98,1.64c2.66,1.09,5.38,2.59,8.16,4.48
		l7.09-10.28c-3.19-2.54-6.69-4.49-10.51-5.85c-3.81-1.36-7.99-2.04-12.54-2.04c-3.19,0-6.11,0.44-8.76,1.33
		c-2.65,0.89-4.93,2.16-6.84,3.81c-1.91,1.65-3.39,3.62-4.45,5.89c-1.06,2.28-1.58,4.83-1.58,7.67v0.18c0,3.07,0.49,5.64,1.47,7.71
		c0.98,2.07,2.35,3.8,4.13,5.19c1.78,1.39,3.94,2.56,6.49,3.5c2.55,0.95,5.39,1.8,8.53,2.57c2.61,0.65,4.72,1.27,6.36,1.86
		c1.63,0.59,2.9,1.18,3.82,1.77c0.92,0.59,1.54,1.23,1.87,1.91c0.33,0.68,0.49,1.46,0.49,2.35v0.18c0,1.83-0.78,3.27-2.35,4.3
		c-1.57,1.03-3.77,1.55-6.61,1.55c-3.55,0-6.81-0.68-9.8-2.04c-2.99-1.36-5.9-3.19-8.73-5.5l-8.07,9.66
		c3.72,3.37,7.86,5.87,12.41,7.49c4.55,1.62,9.19,2.44,13.92,2.44C337.61,208.5,340.67,208.07,343.44,207.21L343.44,207.21z
		 M390.71,207.65c1.71-0.5,3.28-1.17,4.7-1.99v-10.82c-2.07,1.18-4.29,1.77-6.65,1.77c-2.9,0-4.34-1.54-4.34-4.63v-20.37h11.17
		v-11.52h-11.17v-12.15h-13.48v12.15h-5.67v11.52h5.67v22.52c0,2.78,0.34,5.07,1.02,6.87c0.68,1.8,1.63,3.27,2.84,4.39
		c1.21,1.12,2.66,1.91,4.34,2.35c1.68,0.44,3.56,0.66,5.63,0.66C387.01,208.41,388.99,208.16,390.71,207.65L390.71,207.65z
		 M419.08,197.68c-1.36-1-2.04-2.42-2.04-4.25v-0.18c0-2.13,0.83-3.75,2.48-4.88c1.65-1.12,3.93-1.69,6.83-1.69
		c1.65,0,3.21,0.16,4.65,0.49c1.45,0.32,2.76,0.75,3.95,1.28v2.39c0,2.48-0.96,4.49-2.88,6.03c-1.92,1.54-4.48,2.3-7.67,2.3
		C422.21,199.19,420.44,198.69,419.08,197.68L419.08,197.68z M428.74,206.86c2.3-1.09,4.28-2.55,5.94-4.39v5.14h13.03v-27.57
		c0-3.19-0.41-6.07-1.24-8.64c-0.83-2.57-2.13-4.74-3.9-6.52c-1.72-1.71-3.89-3.03-6.52-3.94c-2.63-0.92-5.81-1.37-9.53-1.37
		c-4.02,0-7.45,0.35-10.28,1.06c-2.84,0.71-5.56,1.63-8.16,2.75l3.37,10.28c2.19-0.83,4.27-1.46,6.25-1.91
		c1.98-0.44,4.27-0.67,6.87-0.67c3.37,0,5.91,0.74,7.62,2.22c1.71,1.48,2.57,3.63,2.57,6.47v0.8c-1.71-0.59-3.47-1.06-5.27-1.42
		c-1.8-0.36-3.91-0.53-6.34-0.53c-2.84,0-5.42,0.31-7.76,0.93c-2.34,0.62-4.34,1.55-6.03,2.79c-1.68,1.24-3,2.81-3.95,4.7
		c-0.95,1.89-1.42,4.14-1.42,6.74v0.18c0,2.36,0.43,4.45,1.29,6.25c0.86,1.8,2.02,3.32,3.5,4.57c1.48,1.24,3.21,2.17,5.19,2.79
		c1.98,0.62,4.09,0.93,6.34,0.93C423.63,208.5,426.43,207.95,428.74,206.86L428.74,206.86z M460.65,207.61h13.47v-26.44
		c0-3.18,0.75-5.59,2.26-7.21c1.51-1.62,3.56-2.43,6.16-2.43c2.6,0,4.61,0.81,6.03,2.43c1.42,1.62,2.13,4.02,2.13,7.21v26.44h13.48
		v-30.76c0-5.5-1.41-9.81-4.21-12.94c-2.81-3.13-6.78-4.7-11.92-4.7c-1.71,0-3.25,0.21-4.61,0.63c-1.36,0.42-2.6,0.98-3.72,1.7
		c-1.12,0.71-2.14,1.53-3.06,2.46c-0.92,0.92-1.76,1.89-2.53,2.9v-6.79h-13.47V207.61L460.65,207.61z M535.7,196.13
		c-1.39-0.62-2.61-1.51-3.68-2.66c-1.06-1.15-1.91-2.54-2.53-4.17c-0.62-1.62-0.93-3.41-0.93-5.36v-0.18c0-2.01,0.31-3.81,0.93-5.41
		c0.62-1.6,1.46-2.97,2.53-4.12c1.06-1.15,2.29-2.04,3.68-2.66c1.39-0.62,2.88-0.93,4.48-0.93c1.6,0,3.09,0.31,4.48,0.93
		c1.39,0.62,2.6,1.51,3.64,2.66c1.03,1.15,1.86,2.54,2.48,4.17c0.62,1.63,0.93,3.41,0.93,5.36v0.18c0,1.95-0.31,3.74-0.93,5.36
		c-0.62,1.63-1.45,3.01-2.48,4.17c-1.04,1.15-2.25,2.04-3.64,2.66c-1.39,0.62-2.88,0.93-4.48,0.93
		C538.58,197.06,537.08,196.75,535.7,196.13L535.7,196.13z M545.54,206.32c2.33-1.45,4.33-3.29,5.98-5.54v6.83H565v-64.72h-13.47
		v23.4c-1.6-1.89-3.56-3.55-5.9-4.96c-2.34-1.42-5.31-2.13-8.91-2.13c-2.84,0-5.56,0.53-8.16,1.6c-2.6,1.06-4.89,2.65-6.87,4.74
		c-1.98,2.1-3.58,4.67-4.79,7.71c-1.21,3.05-1.82,6.55-1.82,10.51v0.18c0,3.96,0.61,7.46,1.82,10.51c1.21,3.04,2.82,5.62,4.83,7.71
		c2.01,2.1,4.31,3.68,6.92,4.74c2.6,1.06,5.29,1.59,8.07,1.59C540.26,208.5,543.2,207.77,545.54,206.32L545.54,206.32z
		 M590.61,197.68c-1.36-1-2.04-2.42-2.04-4.25v-0.18c0-2.13,0.83-3.75,2.48-4.88c1.65-1.12,3.93-1.69,6.83-1.69
		c1.65,0,3.21,0.16,4.66,0.49c1.45,0.32,2.76,0.75,3.94,1.28v2.39c0,2.48-0.96,4.49-2.88,6.03c-1.92,1.54-4.48,2.3-7.67,2.3
		C593.75,199.19,591.97,198.69,590.61,197.68L590.61,197.68z M600.28,206.86c2.3-1.09,4.28-2.55,5.94-4.39v5.14h13.03v-27.57
		c0-3.19-0.42-6.07-1.24-8.64c-0.83-2.57-2.13-4.74-3.9-6.52c-1.71-1.71-3.89-3.03-6.52-3.94c-2.63-0.92-5.81-1.37-9.53-1.37
		c-4.02,0-7.45,0.35-10.28,1.06c-2.84,0.71-5.56,1.63-8.16,2.75l3.37,10.28c2.19-0.83,4.27-1.46,6.25-1.91
		c1.98-0.44,4.27-0.67,6.87-0.67c3.37,0,5.91,0.74,7.62,2.22c1.71,1.48,2.57,3.63,2.57,6.47v0.8c-1.71-0.59-3.47-1.06-5.27-1.42
		c-1.8-0.36-3.92-0.53-6.34-0.53c-2.84,0-5.42,0.31-7.76,0.93c-2.34,0.62-4.34,1.55-6.03,2.79c-1.68,1.24-3,2.81-3.95,4.7
		c-0.95,1.89-1.42,4.14-1.42,6.74v0.18c0,2.36,0.43,4.45,1.29,6.25c0.86,1.8,2.02,3.32,3.5,4.57c1.48,1.24,3.21,2.17,5.19,2.79
		c1.98,0.62,4.09,0.93,6.34,0.93C595.16,208.5,597.97,207.95,600.28,206.86L600.28,206.86z M632.19,207.61h13.48v-17.55
		c0-5.73,1.29-9.96,3.86-12.68c2.57-2.72,6.1-4.08,10.59-4.08h0.71v-14.1c-4.02-0.18-7.21,0.71-9.58,2.66
		c-2.36,1.95-4.23,4.55-5.58,7.8v-9.57h-13.48V207.61L632.19,207.61z M689.06,196.13c-1.39-0.62-2.61-1.51-3.68-2.66
		c-1.06-1.15-1.91-2.54-2.53-4.17c-0.62-1.62-0.93-3.41-0.93-5.36v-0.18c0-2.01,0.31-3.81,0.93-5.41c0.62-1.6,1.46-2.97,2.53-4.12
		c1.06-1.15,2.29-2.04,3.68-2.66c1.39-0.62,2.88-0.93,4.48-0.93c1.6,0,3.09,0.31,4.48,0.93c1.39,0.62,2.6,1.51,3.64,2.66
		c1.03,1.15,1.86,2.54,2.48,4.17c0.62,1.63,0.93,3.41,0.93,5.36v0.18c0,1.95-0.31,3.74-0.93,5.36c-0.62,1.63-1.45,3.01-2.48,4.17
		c-1.04,1.15-2.25,2.04-3.64,2.66c-1.39,0.62-2.88,0.93-4.48,0.93C691.94,197.06,690.45,196.75,689.06,196.13L689.06,196.13z
		 M698.9,206.32c2.33-1.45,4.33-3.29,5.98-5.54v6.83h13.47v-64.72h-13.47v23.4c-1.6-1.89-3.56-3.55-5.9-4.96
		c-2.33-1.42-5.3-2.13-8.91-2.13c-2.84,0-5.56,0.53-8.16,1.6c-2.6,1.06-4.89,2.65-6.87,4.74c-1.98,2.1-3.58,4.67-4.79,7.71
		c-1.21,3.05-1.82,6.55-1.82,10.51v0.18c0,3.96,0.6,7.46,1.82,10.51c1.21,3.04,2.82,5.62,4.83,7.71c2.01,2.1,4.31,3.68,6.91,4.74
		c2.6,1.06,5.29,1.59,8.07,1.59C693.63,208.5,696.57,207.77,698.9,206.32L698.9,206.32z"/>
	<path class="st0" d="M310.88,118.96h13.47V78.71l17.29,26.24h0.35l17.46-26.51v40.51h13.48V56.9h-14.72l-16.31,26.24L325.59,56.9
		h-14.72V118.96L310.88,118.96z M397.31,91.48c0.53-3.07,1.67-5.52,3.41-7.36c1.74-1.83,4.03-2.75,6.87-2.75
		c2.84,0,5.11,0.93,6.83,2.79c1.71,1.86,2.78,4.3,3.19,7.31H397.31L397.31,91.48z M420.18,117.67c3.19-1.56,5.91-3.74,8.16-6.52
		l-7.71-6.83c-1.89,1.71-3.72,2.96-5.5,3.72c-1.77,0.77-3.78,1.15-6.03,1.15c-3.01,0-5.54-0.78-7.58-2.35
		c-2.04-1.56-3.38-3.88-4.03-6.96h33.07c0.06-0.65,0.1-1.27,0.13-1.86c0.03-0.59,0.04-1.15,0.04-1.68c0-3.37-0.46-6.6-1.37-9.71
		c-0.92-3.1-2.34-5.85-4.26-8.25c-1.92-2.39-4.33-4.3-7.22-5.72c-2.9-1.42-6.32-2.13-10.28-2.13c-3.49,0-6.66,0.65-9.53,1.95
		c-2.87,1.3-5.34,3.07-7.4,5.32c-2.07,2.25-3.68,4.88-4.83,7.89c-1.15,3.01-1.73,6.21-1.73,9.57v0.18c0,3.67,0.62,6.99,1.86,9.97
		c1.24,2.99,2.97,5.57,5.19,7.76c2.22,2.19,4.85,3.87,7.89,5.05c3.04,1.18,6.34,1.77,9.89,1.77
		C413.24,120.02,416.99,119.24,420.18,117.67L420.18,117.67z M462.74,119c1.71-0.5,3.28-1.17,4.7-1.99v-10.82
		c-2.07,1.18-4.29,1.77-6.65,1.77c-2.9,0-4.34-1.54-4.34-4.63V82.97h11.17V71.44h-11.17V59.3h-13.47v12.15h-5.67v11.52h5.67v22.52
		c0,2.78,0.34,5.07,1.02,6.87c0.68,1.8,1.63,3.27,2.84,4.39c1.21,1.12,2.66,1.91,4.34,2.35c1.68,0.44,3.56,0.67,5.63,0.67
		C459.04,119.76,461.02,119.5,462.74,119L462.74,119z M489.77,109.03c-1.36-1-2.04-2.42-2.04-4.26v-0.18c0-2.13,0.83-3.75,2.48-4.88
		c1.65-1.12,3.93-1.68,6.83-1.68c1.65,0,3.21,0.16,4.65,0.49c1.45,0.33,2.76,0.75,3.95,1.29v2.39c0,2.48-0.96,4.49-2.88,6.03
		c-1.92,1.54-4.48,2.31-7.67,2.31C492.91,110.54,491.13,110.04,489.77,109.03L489.77,109.03z M499.44,118.21
		c2.3-1.09,4.29-2.56,5.94-4.39v5.14h13.03V91.39c0-3.19-0.41-6.07-1.24-8.64c-0.83-2.57-2.13-4.74-3.9-6.52
		c-1.72-1.71-3.89-3.03-6.52-3.95c-2.63-0.91-5.81-1.37-9.53-1.37c-4.02,0-7.45,0.35-10.28,1.06c-2.84,0.71-5.56,1.63-8.16,2.75
		l3.37,10.28c2.19-0.83,4.27-1.46,6.25-1.91c1.98-0.44,4.27-0.67,6.87-0.67c3.37,0,5.91,0.74,7.62,2.22
		c1.71,1.48,2.57,3.63,2.57,6.47v0.8c-1.72-0.59-3.47-1.06-5.28-1.42c-1.8-0.35-3.92-0.53-6.34-0.53c-2.84,0-5.42,0.31-7.76,0.93
		c-2.33,0.62-4.34,1.55-6.03,2.79c-1.68,1.24-3,2.81-3.95,4.7c-0.95,1.89-1.42,4.14-1.42,6.74v0.18c0,2.36,0.43,4.45,1.29,6.25
		c0.86,1.8,2.02,3.32,3.5,4.56c1.48,1.24,3.2,2.17,5.19,2.79c1.98,0.62,4.09,0.93,6.34,0.93
		C494.33,119.85,497.13,119.3,499.44,118.21L499.44,118.21z M548.51,107.48c-1.39-0.62-2.62-1.51-3.68-2.66
		c-1.06-1.15-1.91-2.54-2.53-4.17c-0.62-1.62-0.93-3.41-0.93-5.36v-0.18c0-2.01,0.31-3.81,0.93-5.41c0.62-1.6,1.46-2.97,2.53-4.12
		c1.06-1.15,2.29-2.04,3.68-2.66c1.39-0.62,2.88-0.93,4.48-0.93c1.6,0,3.09,0.31,4.48,0.93c1.39,0.62,2.6,1.51,3.64,2.66
		c1.03,1.15,1.86,2.54,2.48,4.17c0.62,1.63,0.93,3.41,0.93,5.36v0.18c0,1.95-0.31,3.74-0.93,5.36c-0.62,1.63-1.45,3.01-2.48,4.17
		c-1.03,1.15-2.25,2.04-3.64,2.66c-1.39,0.62-2.88,0.93-4.48,0.93C551.39,108.41,549.89,108.1,548.51,107.48L548.51,107.48z
		 M558.35,117.67c2.33-1.45,4.33-3.29,5.98-5.54v6.83h13.48V54.24h-13.48v23.4c-1.6-1.89-3.56-3.55-5.89-4.96
		c-2.34-1.42-5.31-2.13-8.91-2.13c-2.84,0-5.56,0.53-8.16,1.6c-2.6,1.06-4.89,2.65-6.87,4.74c-1.98,2.1-3.58,4.67-4.79,7.71
		c-1.21,3.04-1.82,6.55-1.82,10.5v0.18c0,3.96,0.61,7.46,1.82,10.51c1.21,3.04,2.82,5.61,4.83,7.71c2.01,2.1,4.31,3.68,6.91,4.74
		c2.6,1.06,5.29,1.6,8.07,1.6C553.07,119.85,556.01,119.12,558.35,117.67L558.35,117.67z M602.09,109.03
		c-1.36-1-2.04-2.42-2.04-4.26v-0.18c0-2.13,0.83-3.75,2.48-4.88c1.65-1.12,3.93-1.68,6.83-1.68c1.65,0,3.2,0.16,4.65,0.49
		c1.45,0.33,2.76,0.75,3.95,1.29v2.39c0,2.48-0.96,4.49-2.88,6.03c-1.92,1.54-4.48,2.31-7.67,2.31
		C605.23,110.54,603.45,110.04,602.09,109.03L602.09,109.03z M611.76,118.21c2.3-1.09,4.28-2.56,5.94-4.39v5.14h13.03V91.39
		c0-3.19-0.41-6.07-1.24-8.64c-0.83-2.57-2.13-4.74-3.9-6.52c-1.72-1.71-3.89-3.03-6.52-3.95c-2.63-0.91-5.81-1.37-9.53-1.37
		c-4.02,0-7.45,0.35-10.28,1.06c-2.84,0.71-5.56,1.63-8.16,2.75l3.37,10.28c2.19-0.83,4.27-1.46,6.25-1.91
		c1.98-0.44,4.27-0.67,6.87-0.67c3.37,0,5.91,0.74,7.62,2.22c1.71,1.48,2.57,3.63,2.57,6.47v0.8c-1.71-0.59-3.47-1.06-5.28-1.42
		c-1.8-0.35-3.92-0.53-6.34-0.53c-2.84,0-5.42,0.31-7.76,0.93c-2.33,0.62-4.34,1.55-6.03,2.79c-1.68,1.24-3,2.81-3.95,4.7
		c-0.95,1.89-1.42,4.14-1.42,6.74v0.18c0,2.36,0.43,4.45,1.29,6.25c0.86,1.8,2.02,3.32,3.5,4.56c1.48,1.24,3.21,2.17,5.19,2.79
		c1.98,0.62,4.09,0.93,6.34,0.93C606.65,119.85,609.45,119.3,611.76,118.21L611.76,118.21z M664.33,119c1.71-0.5,3.28-1.17,4.7-1.99
		v-10.82c-2.07,1.18-4.29,1.77-6.65,1.77c-2.9,0-4.34-1.54-4.34-4.63V82.97h11.17V71.44h-11.17V59.3h-13.48v12.15h-5.67v11.52h5.67
		v22.52c0,2.78,0.34,5.07,1.02,6.87c0.68,1.8,1.62,3.27,2.84,4.39c1.21,1.12,2.66,1.91,4.34,2.35c1.68,0.44,3.56,0.67,5.63,0.67
		C660.63,119.76,662.61,119.5,664.33,119L664.33,119z M691.37,109.03c-1.36-1-2.04-2.42-2.04-4.26v-0.18c0-2.13,0.83-3.75,2.48-4.88
		c1.65-1.12,3.93-1.68,6.83-1.68c1.65,0,3.21,0.16,4.65,0.49c1.45,0.33,2.76,0.75,3.95,1.29v2.39c0,2.48-0.96,4.49-2.88,6.03
		c-1.92,1.54-4.48,2.31-7.67,2.31C694.5,110.54,692.72,110.04,691.37,109.03L691.37,109.03z M701.03,118.21
		c2.3-1.09,4.28-2.56,5.94-4.39v5.14H720V91.39c0-3.19-0.41-6.07-1.24-8.64c-0.83-2.57-2.13-4.74-3.9-6.52
		c-1.71-1.71-3.89-3.03-6.52-3.95c-2.63-0.91-5.81-1.37-9.53-1.37c-4.02,0-7.45,0.35-10.28,1.06c-2.84,0.71-5.56,1.63-8.16,2.75
		l3.37,10.28c2.18-0.83,4.27-1.46,6.25-1.91c1.98-0.44,4.27-0.67,6.87-0.67c3.37,0,5.91,0.74,7.62,2.22
		c1.71,1.48,2.57,3.63,2.57,6.47v0.8c-1.71-0.59-3.47-1.06-5.28-1.42c-1.8-0.35-3.92-0.53-6.34-0.53c-2.84,0-5.42,0.31-7.76,0.93
		c-2.34,0.62-4.34,1.55-6.03,2.79c-1.68,1.24-3,2.81-3.95,4.7c-0.95,1.89-1.42,4.14-1.42,6.74v0.18c0,2.36,0.43,4.45,1.29,6.25
		c0.86,1.8,2.02,3.32,3.5,4.56c1.48,1.24,3.21,2.17,5.19,2.79c1.98,0.62,4.09,0.93,6.34,0.93
		C695.92,119.85,698.72,119.3,701.03,118.21L701.03,118.21z"/>
	<path class="st0" d="M262.74,131.37C262.74,58.82,203.93,0,131.37,0v218.69l3.15-0.04l0.34,26.67l-3.49,0.04v17.39
		C203.93,262.74,262.74,203.93,262.74,131.37L262.74,131.37z M178,235.91l-13.01-23.28l17.52-9.8l2.55,4.55l-12.47,6.97l2.64,4.72
		l10.97-6.13l2.55,4.56l-10.97,6.13l2.73,4.89l12.64-7.06l2.55,4.56L178,235.91L178,235.91z M151.4,215.91
		c1.21-0.29,2.34-0.47,3.38-0.51c1.05-0.05,2.02,0,2.92,0.15c0.9,0.15,1.75,0.38,2.57,0.71c0.81,0.33,1.58,0.71,2.32,1.16
		l-2.61,5.07c-1.24-0.67-2.44-1.13-3.61-1.39c-1.18-0.26-2.42-0.23-3.73,0.08c-1.09,0.26-2.04,0.72-2.86,1.37
		c-0.82,0.64-1.48,1.42-1.96,2.32c-0.49,0.9-0.79,1.89-0.93,2.95c-0.13,1.07-0.06,2.15,0.21,3.26l0.02,0.08
		c0.27,1.11,0.71,2.11,1.32,3.01c0.61,0.9,1.33,1.64,2.17,2.22c0.83,0.58,1.77,0.97,2.8,1.18c1.03,0.21,2.1,0.17,3.21-0.1
		c1.48-0.36,2.67-0.94,3.56-1.73c0.89-0.79,1.73-1.78,2.51-2.97l4.52,2.78c-0.49,0.88-1.03,1.69-1.6,2.43
		c-0.58,0.74-1.24,1.42-1.99,2.04c-0.75,0.62-1.61,1.15-2.57,1.61c-0.96,0.46-2.07,0.84-3.33,1.15c-1.9,0.46-3.75,0.55-5.55,0.26
		s-3.43-0.89-4.91-1.8c-1.48-0.91-2.75-2.1-3.81-3.56c-1.06-1.47-1.82-3.12-2.27-4.97l-0.02-0.08c-0.45-1.85-0.54-3.66-0.27-5.44
		c0.27-1.78,0.85-3.42,1.74-4.93c0.89-1.51,2.07-2.82,3.55-3.93C147.66,217.2,149.4,216.4,151.4,215.91L151.4,215.91z M165.53,99.18
		c7.85,8.93,12.18,20.41,12.18,32.33c0,11.87-4.29,23.31-12.08,32.22c-1.56,1.78-3.74,2.69-5.94,2.69c-1.84,0-3.69-0.64-5.19-1.95
		c-3.28-2.87-3.61-7.85-0.74-11.12c5.28-6.04,8.19-13.79,8.19-21.85c0-8.09-2.93-15.87-8.25-21.92c-2.88-3.27-2.56-8.25,0.71-11.12
		C157.68,95.59,162.66,95.91,165.53,99.18L165.53,99.18z M190.4,75.47c13.76,15.35,21.33,35.25,21.33,56.04
		c0,20.69-7.51,40.51-21.14,55.83c-1.56,1.75-3.72,2.64-5.89,2.64c-1.86,0-3.74-0.66-5.24-1.99c-3.25-2.9-3.54-7.88-0.65-11.13
		c11.06-12.43,17.15-28.53,17.15-45.35c0-16.9-6.15-33.07-17.31-45.52c-2.9-3.24-2.63-8.22,0.61-11.13
		C182.51,71.96,187.49,72.23,190.4,75.47L190.4,75.47z M245.35,131.51c0,29.23-10.98,57.12-30.91,78.53
		c-1.55,1.67-3.66,2.51-5.77,2.51c-1.92,0-3.85-0.7-5.37-2.11c-3.19-2.97-3.36-7.95-0.4-11.14c17.21-18.48,26.69-42.56,26.69-67.79
		c0-25.36-9.57-49.53-26.93-68.05c-2.98-3.18-2.82-8.16,0.36-11.14c3.18-2.98,8.16-2.82,11.14,0.36
		C234.27,74.13,245.35,102.13,245.35,131.51L245.35,131.51z"/>
	<path class="st0" d="M131.37,218.69V0C58.82,0,0,58.82,0,131.37c0,72.56,58.82,131.37,131.37,131.37v-17.39l-2.37,0.03l-0.34-26.67
		L131.37,218.69L131.37,218.69z M94.72,226.49l0.02-0.07c0.41-1.86,1.13-3.53,2.18-5c1.05-1.48,2.32-2.69,3.82-3.65
		s3.17-1.61,5.03-1.95s3.79-0.29,5.8,0.15c2.01,0.44,3.78,1.19,5.32,2.27c1.53,1.08,2.78,2.35,3.75,3.82
		c0.97,1.47,1.61,3.09,1.94,4.87c0.33,1.78,0.29,3.59-0.12,5.45l-0.02,0.08c-0.4,1.86-1.13,3.53-2.18,5
		c-1.05,1.48-2.32,2.69-3.82,3.65c-1.5,0.96-3.17,1.61-5.02,1.95c-1.85,0.34-3.79,0.29-5.8-0.15c-2.01-0.44-3.78-1.19-5.31-2.27
		c-1.53-1.07-2.78-2.35-3.75-3.82c-0.97-1.47-1.61-3.09-1.94-4.87C94.27,230.17,94.31,228.36,94.72,226.49L94.72,226.49z
		 M71.63,228.79l3.7-28.7l5.65,3.16l-3.08,19.8l15.25-12.99l5.52,3.09l-22.52,18.18L71.63,228.79L71.63,228.79z M119.72,129.77
		c-4.69,1.43-8.19,2.98-5.48,9.08c0.52,1.18-1.41,4.19-2.96,5.37c-1.95,1.49-4.68,1.97-8.71,3.52c2.98,2,4.71,3.17,6.45,4.33
		c3.08,2.05,4.93,4.15,1.79,7.87c-1.02,1.21-1.17,3.61-0.91,5.35c0.94,6.39-0.94,10.26-7.19,11.51c-4.37,0.88-9.08,0.88-13.54,0.38
		c-17.7-1.98-25.52,3.74-28.21,21.5c-0.91,5.99-1.25,12.07-1.9,18.52c-0.86-0.5-1.97-0.94-2.82-1.68
		C0,166.33,6.29,77.35,68.77,36.33c4.73-3.11,8.4-3.69,13.32-0.37c18.65,12.6,29.4,29.65,28.56,52.4
		c-0.45,12.3,3.03,21.99,11.95,30.28C127.96,123.63,126.76,127.63,119.72,129.77L119.72,129.77z M100.73,227.72
		c-0.24,1.12-0.28,2.21-0.11,3.29c0.17,1.08,0.53,2.06,1.07,2.96c0.54,0.9,1.25,1.67,2.11,2.31c0.86,0.64,1.87,1.09,3.04,1.34
		c1.14,0.25,2.24,0.27,3.3,0.06c1.06-0.21,2.01-0.62,2.86-1.21c0.84-0.6,1.56-1.34,2.16-2.24c0.6-0.9,1.02-1.9,1.26-3.02l0.02-0.08
		c0.24-1.12,0.28-2.21,0.11-3.29c-0.17-1.08-0.53-2.06-1.07-2.96c-0.54-0.9-1.25-1.67-2.13-2.32c-0.87-0.64-1.88-1.09-3.02-1.34
		c-1.17-0.26-2.27-0.27-3.32-0.06c-1.05,0.21-1.99,0.62-2.84,1.21c-0.85,0.6-1.57,1.34-2.17,2.24c-0.6,0.9-1.02,1.9-1.26,3.02
		L100.73,227.72L100.73,227.72z"/>
</g>
</svg>
