<?xml version="1.0" encoding="utf-8"?>
<!-- Generator: Adobe Illustrator 25.0.0, SVG Export Plug-In . SVG Version: 6.00 Build 0)  -->
<svg version="1.1" id="Layer_1" xmlns="http://www.w3.org/2000/svg" xmlns:xlink="http://www.w3.org/1999/xlink" x="0px" y="0px"
	 viewBox="0 0 719.9 140.8" style="enable-background:new 0 0 719.9 140.8;" xml:space="preserve">
<g>
	<path d="M181.8,89c-1.8-6.5-6.3-12.1-9.3-10.2c-5.4-10.5-12.9-19.7-22.2-27l10.9-26.7c5.2,0.5,10.3-2.2,12.7-7.2
		c2.9-6.3,0.2-13.8-6.1-16.8C161.4-1.8,153.9,1,151,7.3c-2.3,5-1.1,10.7,2.6,14.3L141,45.5c-11.9-6.9-25.7-10.9-40.4-10.9h-6.7
		v106.2h87.4v-23.7C187.4,115.8,183.6,95.5,181.8,89L181.8,89z M143.3,94.3c0,0,0,0.1,0,0.1c0,2.5-0.5,4.9-1.5,7.1
		c-2.9,7.1-9.9,12.1-18,12.1c-10.7,0-19.5-8.7-19.5-19.5c0-10.7,8.7-19.5,19.5-19.5s19.5,8.7,19.5,19.5
		C143.3,94.2,143.3,94.3,143.3,94.3L143.3,94.3z"/>
	<path d="M2.9,89c1.8-6.5,6.3-12.1,9.3-10.2c5.4-10.5,12.9-19.7,22.2-27L23.4,25.1c-5.2,0.5-10.3-2.2-12.7-7.2
		c-2.9-6.3-0.2-13.8,6.1-16.8C23.2-1.8,30.7,1,33.6,7.3c2.3,5,1.1,10.7-2.6,14.3l12.6,23.9c11.9-6.9,25.7-10.9,40.4-10.9h6.7v106.2
		H3.4v-23.7C-2.8,115.8,1,95.5,2.9,89L2.9,89z M41.3,94.3c0,0,0,0.1,0,0.1c0,2.5,0.5,4.9,1.5,7.1c2.9,7.1,9.9,12.1,18,12.1
		c10.7,0,19.5-8.7,19.5-19.5c0-10.7-8.7-19.5-19.5-19.5c-10.7,0-19.5,8.7-19.5,19.5C41.3,94.2,41.3,94.3,41.3,94.3L41.3,94.3z"/>
	<path d="M380.2,122.5c2.7,0,4.9-0.8,6.4-2.3c1.5-1.5,2.3-3.7,2.3-6.6V97.5h-5.6v15.9c0,2.9-1.3,4.1-3.3,4.1c-1.7,0-3.1-0.9-4.5-2.5
		l-3.4,3.8C373.8,120.8,376.3,122.5,380.2,122.5L380.2,122.5z M396.7,122.2h5.5l2.3-5.5H415l2.3,5.5h5.7l-10.6-24.9h-5L396.7,122.2
		L396.7,122.2z M406.5,111.8l3.3-8l3.3,8H406.5L406.5,111.8z M436.3,122.3h4.8l10-24.9h-5.9l-6.5,17.4l-6.5-17.4h-6L436.3,122.3
		L436.3,122.3z M454.6,122.2h5.5l2.3-5.5h10.4l2.3,5.5h5.7l-10.6-24.9h-5L454.6,122.2L454.6,122.2z M464.3,111.8l3.3-8l3.3,8H464.3
		L464.3,111.8z M511.5,122.2h5.4v-19.7h7.5v-5H504v5h7.5V122.2L511.5,122.2z M544.8,122.6c7.6,0,13.2-5.7,13.2-12.8v-0.1
		c0-7-5.5-12.7-13.1-12.7c-7.6,0-13.2,5.7-13.2,12.8v0.1C531.7,116.9,537.2,122.6,544.8,122.6L544.8,122.6z M544.9,117.6
		c-4.4,0-7.5-3.5-7.5-7.8v-0.1c0-4.2,3-7.7,7.4-7.7c4.4,0,7.5,3.5,7.5,7.8v0.1C552.3,114.1,549.2,117.6,544.9,117.6L544.9,117.6z
		 M580.1,122.6c7.6,0,13.2-5.7,13.2-12.8v-0.1c0-7-5.5-12.7-13.1-12.7c-7.6,0-13.2,5.7-13.2,12.8v0.1
		C567,116.9,572.4,122.6,580.1,122.6L580.1,122.6z M580.1,117.6c-4.4,0-7.5-3.5-7.5-7.8v-0.1c0-4.2,3-7.7,7.4-7.7s7.5,3.5,7.5,7.8
		v0.1C587.5,114.1,584.5,117.6,580.1,117.6L580.1,117.6z M603.3,122.2h17.7v-4.9h-12.3V97.5h-5.4V122.2L603.3,122.2z M630.5,122.2
		h5.4v-7.5l2.9-3l7.7,10.5h6.5L642.4,108l10.1-10.5h-6.6l-10,10.8V97.5h-5.4V122.2L630.5,122.2z M661.7,122.2h5.4V97.5h-5.4V122.2
		L661.7,122.2z M684.4,122.2h5.4v-19.7h7.5v-5h-20.5v5h7.5V122.2L684.4,122.2z"/>
	<path d="M257.4,80.9c-9.6,0-17.9-3.1-25.3-7.8l4.6-6.9c7.4,4.7,14.2,7,21.8,7c8.9,0,13.1-3.4,13.1-7.5c0-11.6-37.8-4.7-37.8-23.1
		c0-9,9-16.1,23.5-16.1c9.8,0,18.2,3.7,23.2,8.6l-5.6,5.8c-4.3-3.7-10.8-6.7-17.7-6.7c-8.5,0-14.2,3.1-14.2,7.4
		c0,10.8,37.9,5,37.9,23.2C280.9,74.4,271.2,80.9,257.4,80.9L257.4,80.9z M317.9,58.7v20.4h-9.2V58.6l-22.9-30.4h10.7l17.2,23.5
		L330,28.2h10.5L317.9,58.7L317.9,58.7z M404.4,79.1V39.2l-2.5,5.4l-18,34.4h-5.5l-17.8-34.4l-2.5-5.4v39.9h-8.8V28.2H362l17.1,34.2
		l2.4,5.2l2.4-5.2l16.9-34.2h12.6v50.8H404.4L404.4,79.1z M463.2,43.3c0-4.2-2.8-7.3-9.8-7.3h-16.9v16.4h17.3c6.9,0,9.4-3.4,9.4-7.5
		V43.3L463.2,43.3z M452.4,59.9h-15.9v19.2h-9.2V28.2h25c13.9,0,20,6.3,20,15.1v1.4C472.4,53.6,466.3,59.9,452.4,59.9L452.4,59.9z
		 M522.3,79.1V57.1h-30.6v21.9h-9.2V28.2h9.2v21.5h30.6V28.2h9.2v50.8H522.3L522.3,79.1z M586.8,50.5c0-8.7-6-16.2-17.2-16.2
		c-11.2,0-17.1,7.5-17.1,16.2v6.2c0,8.7,6,16.3,17.1,16.3c11.1,0,17.2-7.6,17.2-16.3V50.5L586.8,50.5z M569.6,80.9
		c-16.3,0-26.3-11.6-26.3-24.1v-6.3c0-12.7,10-24,26.3-24c16.4,0,26.4,11.4,26.4,24v6.3C596.1,69.3,586.1,80.9,569.6,80.9
		L569.6,80.9z M649,79.1l-28.5-32.1l-3.7-4.7v36.9h-9.1V28.2h8.5l27.6,32.2l3.7,4.7v-37h9v50.8H649L649,79.1z M697.3,58.7v20.4h-9.2
		V58.6l-22.9-30.4h10.7l17.2,23.5l16.3-23.5h10.5L697.3,58.7L697.3,58.7z"/>
</g>
</svg>
