<?xml version="1.0" encoding="utf-8"?>
<!-- Generator: Adobe Illustrator 28.0.0, SVG Export Plug-In . SVG Version: 6.00 Build 0)  -->
<svg version="1.1" id="Layer_1" xmlns="http://www.w3.org/2000/svg" xmlns:xlink="http://www.w3.org/1999/xlink" x="0px" y="0px"
	 viewBox="0 0 411 248" style="enable-background:new 0 0 411 248;" xml:space="preserve">
<style type="text/css">
	.st0{fill:#FFFFFF;}
</style>
<g>
	<path class="st0" d="M411,235.1V201h-23.6v14h8.4v18.3c0,0.2-0.2,0.5-0.5,0.5h-14.2c-0.4,0-0.5-0.2-0.5-0.5v-56.1
		c0-0.4,0.1-0.5,0.5-0.5h14.2c0.2,0,0.5,0.1,0.5,0.5v11.3H411v-13.2c0-7.5-5.2-12.8-12.9-12.8h-19.9c-7.5,0-12.8,5.2-12.8,12.8v59.9
		c0,7.7,5.2,12.9,12.8,12.9h19.9C405.7,248,411,242.8,411,235.1 M354.6,247.8v-85.1h-14.9V208l-0.4-1.8l-14.1-43.5H309v85.1H324
		v-50.9l0.4,1.7l16.5,49.2H354.6z M298.2,162.7H283v85.1h15.2V162.7z M272.2,247.8v-85.1h-14.9V208l-0.4-1.8l-14.1-43.5h-16.2v85.1
		h14.9v-50.9l0.4,1.7l16.5,49.2H272.2z M215.8,247.8v-85.1h-14.9V208l-0.4-1.8l-14.1-43.5h-16.2v85.1h14.9v-50.9l0.4,1.7l16.5,49.2
		H215.8z M129.4,222.8l6.3-32.4l0.4-3l0.4,3l6.2,32.4H129.4z M147.5,247.8h15.9l-18.2-85.1h-18.3l-18.2,85.1h15.9l2.3-11.5h18.5
		L147.5,247.8z M102,235v-13.1H86.8v11.4c0,0.2-0.2,0.5-0.5,0.5H72.1c-0.4,0-0.5-0.2-0.5-0.5v-56.1c0-0.4,0.1-0.5,0.5-0.5h14.2
		c0.2,0,0.5,0.1,0.5,0.5v11.3H102v-13.2c0-7.4-5.3-12.8-12.9-12.8H69.1c-7.4,0-12.8,5.3-12.8,12.8V235c0,7.5,5.3,12.9,12.8,12.9
		h19.9C96.6,247.9,102,242.5,102,235 M30.4,222.4v10.9c0,0.2-0.2,0.5-0.5,0.5H15.7c-0.4,0-0.5-0.2-0.5-0.5v-11.4H0v13.2
		c0,7.7,5.1,12.9,12.8,12.9h19.9c7.7,0,12.9-5.2,12.9-12.9v-11.4c0-5.2-1.9-9.4-5.3-12.8l-24.5-24.3c-0.4-0.4-0.5-0.6-0.5-1.1v-8.4
		c0-0.4,0.1-0.5,0.5-0.5h14.2c0.2,0,0.5,0.1,0.5,0.5v11.3h15.2v-13.2c0-7.5-5.2-12.8-12.9-12.8H12.8c-7.7,0-12.8,5.2-12.8,12.8v9
		c0,5.2,1.8,9.4,5.3,12.8l24.5,24.3C30.1,221.6,30.4,221.9,30.4,222.4"/>
	<path class="st0" d="M208.8,145.7v-14h-24.3v-23.6h18.2V94.8h-18.2V74.6h24.3v-14h-39.5v85.1H208.8z M142.7,131.7H128V74.6h14.7
		c0.2,0,0.5,0.1,0.5,0.5v56.1C143.1,131.5,142.9,131.7,142.7,131.7 M158.3,132.8V73.4c0-7.5-5.2-12.8-12.9-12.8h-32.7v85.1h32.7
		C153.1,145.7,158.3,140.5,158.3,132.8 M86.8,75.1v56.1c0,0.2-0.2,0.5-0.5,0.5H72.1c-0.4,0-0.5-0.2-0.5-0.5V75.1
		c0-0.4,0.1-0.5,0.5-0.5h14.2C86.5,74.6,86.8,74.7,86.8,75.1 M101.9,133V73.1c0-7.5-5.2-12.8-12.9-12.8H69.1
		c-7.5,0-12.8,5.2-12.8,12.8V133c0,7.7,5.2,12.9,12.8,12.9h19.9C96.7,145.9,101.9,140.7,101.9,133 M45.6,132.9v-13.1H30.4v11.4
		c0,0.2-0.2,0.5-0.5,0.5H15.7c-0.4,0-0.5-0.2-0.5-0.5V75.1c0-0.4,0.1-0.5,0.5-0.5h14.2c0.2,0,0.5,0.1,0.5,0.5v11.3h15.2V73.1
		c0-7.4-5.3-12.8-12.9-12.8H12.8C5.3,60.4,0,65.7,0,73.1v59.8c0,7.5,5.3,12.9,12.8,12.9h19.9C40.2,145.8,45.6,140.5,45.6,132.9"/>
	<polygon class="st0" points="0,0.7 0,39.9 8.6,39.9 8.6,24.7 27.3,24.7 27.3,16.9 8.6,16.9 8.6,8.5 29.9,8.5 29.9,0.7 	"/>
	<rect x="37.6" y="0.7" class="st0" width="8.6" height="39.3"/>
	<polygon class="st0" points="56,0.7 64,0.7 82.4,24.8 82.4,0.7 90.9,0.7 90.9,39.9 83.6,39.9 64.5,15 64.5,39.9 56,39.9 	"/>
	<path class="st0" d="M131,20.4v-0.1C131,13.6,126,8,119.1,8c-7,0-11.8,5.5-11.8,12.2v0.1c0,6.7,4.9,12.3,11.9,12.3
		S131,27.1,131,20.4L131,20.4z M98.3,20.4v-0.1C98.3,9.1,107.1,0,119.2,0C131.3,0,140,9,140,20.2v0.1c0,11.2-8.8,20.3-20.9,20.3
		S98.3,31.6,98.3,20.4"/>
	<path class="st0" d="M144.4,34.2l5.1-6.1c3.5,2.9,7.2,4.8,11.7,4.8c3.5,0,5.7-1.4,5.7-3.7V29c0-2.2-1.3-3.3-7.9-5
		c-7.9-2-13-4.2-13-12v-0.1c0-7.1,5.7-11.8,13.7-11.8c5.3-0.1,10.5,1.7,14.6,5l-4.5,6.5c-3.5-2.4-6.9-3.9-10.2-3.9
		c-3.3,0-5,1.5-5,3.4v0.1c0,2.6,1.7,3.4,8.5,5.2c8,2.1,12.4,4.9,12.4,11.8v0.1c0,7.8-5.9,12.2-14.4,12.2
		C154.9,40.5,149,38.3,144.4,34.2"/>
</g>
</svg>
