<?xml version="1.0" encoding="utf-8"?>
<!-- Generator: Adobe Illustrator 24.1.0, SVG Export Plug-In . SVG Version: 6.00 Build 0)  -->
<svg version="1.1" id="Layer_1" xmlns="http://www.w3.org/2000/svg" xmlns:xlink="http://www.w3.org/1999/xlink" x="0px" y="0px"
	 viewBox="0 0 533.72 462.06" style="enable-background:new 0 0 533.72 462.06;" xml:space="preserve">
<style type="text/css">
	.st0{fill:#FFFFFF;}
	.st1{opacity:0.4;fill:#FFFFFF;enable-background:new    ;}
	.st2{opacity:0.54;fill:#FFFFFF;enable-background:new    ;}
	.st3{opacity:0.7;fill:#FFFFFF;enable-background:new    ;}
</style>
<path class="st0" d="M115.21,446.16v-10.34h7.86c2.02,0,3.59,0.43,4.7,1.3c1.11,0.86,1.67,2.13,1.67,3.8v0.09
	c0,1.58-0.57,2.84-1.71,3.76c-1.14,0.92-2.68,1.39-4.61,1.39H115.21L115.21,446.16z M109.86,461.62h5.34v-10.69h6.68h0.09
	l7.56,10.69h6.35l-8.28-11.61c1.08-0.29,2.07-0.71,2.96-1.25c0.89-0.54,1.66-1.2,2.3-1.97c0.64-0.77,1.15-1.66,1.51-2.67
	c0.37-1.01,0.55-2.14,0.55-3.39v-0.09c0-1.34-0.22-2.57-0.66-3.68c-0.44-1.11-1.07-2.09-1.88-2.93c-0.99-0.96-2.23-1.72-3.72-2.26
	c-1.49-0.54-3.2-0.81-5.12-0.81h-13.67V461.62L109.86,461.62z M148.71,461.62h22.91v-4.86h-17.56v-8.19h15.37v-4.86h-15.37v-7.88
	h17.35v-4.86h-22.69V461.62L148.71,461.62z M193.26,449.44l5.26-12.26l5.3,12.26H193.26L193.26,449.44z M182.61,461.62h5.52
	l3.15-7.4h14.5l3.11,7.4h5.69l-13.49-30.88h-4.99L182.61,461.62L182.61,461.62z M232.37,456.76v-20.94h6.04
	c1.61,0,3.07,0.26,4.38,0.79c1.31,0.53,2.43,1.25,3.35,2.18c0.92,0.92,1.64,2.03,2.15,3.32c0.51,1.29,0.77,2.68,0.77,4.18v0.09
	c0,1.49-0.26,2.88-0.77,4.16c-0.51,1.27-1.23,2.38-2.15,3.3c-0.92,0.92-2.04,1.64-3.35,2.15c-1.31,0.51-2.77,0.77-4.38,0.77H232.37
	L232.37,456.76z M227.03,461.62h11.43c2.39,0,4.59-0.39,6.59-1.18c2-0.79,3.72-1.87,5.17-3.24c1.45-1.37,2.56-2.99,3.35-4.86
	c0.79-1.87,1.18-3.88,1.18-6.04v-0.09c0-2.16-0.39-4.17-1.18-6.02c-0.79-1.85-1.9-3.47-3.35-4.84c-1.45-1.37-3.17-2.45-5.17-3.22
	c-2-0.77-4.2-1.16-6.59-1.16h-11.43V461.62L227.03,461.62z M268.77,461.62h5.34v-30.66h-5.34V461.62L268.77,461.62z M289.53,461.62
	h5.34v-21.81l16.87,21.81h4.5v-30.66h-5.34v21.2l-16.39-21.2h-4.98V461.62L289.53,461.62z M331.31,461.62h22.91v-4.86h-17.56v-8.19
	h15.37v-4.86h-15.37v-7.88H354v-4.86h-22.69V461.62L331.31,461.62z M383.04,461.44c1.34-0.41,2.49-1.01,3.44-1.8
	c0.95-0.79,1.7-1.75,2.24-2.89c0.54-1.14,0.8-2.42,0.8-3.85v-0.09c0-1.25-0.21-2.36-0.64-3.31s-1.05-1.78-1.87-2.5
	c-0.82-0.71-1.85-1.32-3.1-1.82c-1.24-0.5-2.67-0.95-4.28-1.36c-1.46-0.35-2.67-0.68-3.62-1.01c-0.95-0.32-1.7-0.66-2.24-1.03
	c-0.54-0.36-0.91-0.77-1.12-1.23c-0.21-0.45-0.31-0.97-0.31-1.56v-0.09c0-1.02,0.44-1.88,1.31-2.58c0.88-0.7,2.1-1.05,3.68-1.05
	c1.4,0,2.79,0.27,4.16,0.81c1.37,0.54,2.76,1.32,4.16,2.34l2.89-4.07c-1.58-1.26-3.26-2.21-5.06-2.87c-1.8-0.66-3.82-0.99-6.07-0.99
	c-1.52,0-2.92,0.22-4.2,0.66c-1.28,0.44-2.38,1.04-3.29,1.82c-0.91,0.77-1.63,1.71-2.15,2.8c-0.52,1.1-0.78,2.3-0.78,3.61v0.09
	c0,1.4,0.23,2.6,0.68,3.59c0.45,0.99,1.11,1.83,1.98,2.52c0.86,0.69,1.93,1.27,3.2,1.75c1.27,0.48,2.73,0.91,4.37,1.29
	c1.44,0.32,2.6,0.64,3.49,0.96c0.89,0.32,1.6,0.67,2.11,1.05c0.51,0.38,0.86,0.78,1.05,1.21c0.19,0.42,0.29,0.91,0.29,1.47v0.09
	c0,1.17-0.49,2.1-1.47,2.8c-0.98,0.7-2.3,1.05-3.96,1.05c-1.93,0-3.65-0.34-5.17-1.03c-1.52-0.69-3.02-1.67-4.51-2.96l-3.24,3.86
	c1.84,1.66,3.84,2.9,6,3.7c2.16,0.8,4.42,1.2,6.79,1.2C380.22,462.06,381.69,461.85,383.04,461.44L383.04,461.44z M418.25,461.44
	c1.34-0.41,2.49-1.01,3.45-1.8c0.95-0.79,1.7-1.75,2.24-2.89c0.54-1.14,0.8-2.42,0.8-3.85v-0.09c0-1.25-0.21-2.36-0.64-3.31
	s-1.05-1.78-1.87-2.5c-0.82-0.71-1.85-1.32-3.1-1.82c-1.24-0.5-2.67-0.95-4.28-1.36c-1.46-0.35-2.67-0.68-3.62-1.01
	c-0.95-0.32-1.7-0.66-2.24-1.03c-0.54-0.36-0.91-0.77-1.12-1.23c-0.21-0.45-0.31-0.97-0.31-1.56v-0.09c0-1.02,0.44-1.88,1.31-2.58
	c0.88-0.7,2.1-1.05,3.68-1.05c1.4,0,2.79,0.27,4.16,0.81c1.37,0.54,2.76,1.32,4.16,2.34l2.89-4.07c-1.58-1.26-3.26-2.21-5.06-2.87
	c-1.8-0.66-3.82-0.99-6.07-0.99c-1.52,0-2.92,0.22-4.2,0.66c-1.28,0.44-2.38,1.04-3.29,1.82c-0.91,0.77-1.63,1.71-2.15,2.8
	c-0.52,1.1-0.78,2.3-0.78,3.61v0.09c0,1.4,0.23,2.6,0.68,3.59c0.45,0.99,1.11,1.83,1.98,2.52c0.86,0.69,1.93,1.27,3.2,1.75
	c1.27,0.48,2.73,0.91,4.37,1.29c1.43,0.32,2.6,0.64,3.49,0.96c0.89,0.32,1.6,0.67,2.11,1.05c0.51,0.38,0.86,0.78,1.05,1.21
	c0.19,0.42,0.28,0.91,0.28,1.47v0.09c0,1.17-0.49,2.1-1.47,2.8c-0.98,0.7-2.3,1.05-3.96,1.05c-1.93,0-3.65-0.34-5.17-1.03
	c-1.52-0.69-3.02-1.67-4.51-2.96l-3.24,3.86c1.84,1.66,3.84,2.9,6,3.7c2.16,0.8,4.42,1.2,6.79,1.2
	C415.43,462.06,416.91,461.85,418.25,461.44L418.25,461.44z"/>
<path class="st0" d="M24.99,397.85c-1.81-0.85-3.36-1.98-4.65-3.41c-1.29-1.42-2.29-3.07-3.01-4.93c-0.71-1.86-1.07-3.83-1.07-5.91
	v-0.16c0-2.08,0.34-4.05,1.03-5.91c0.69-1.86,1.67-3.49,2.96-4.89c1.29-1.4,2.83-2.51,4.61-3.33c1.78-0.82,3.77-1.23,5.97-1.23
	c2.2,0,4.2,0.43,6.01,1.27c1.81,0.85,3.38,1.98,4.69,3.41c1.32,1.42,2.33,3.07,3.05,4.93c0.71,1.86,1.07,3.83,1.07,5.91v0.16
	c0,2.08-0.36,4.05-1.07,5.91c-0.71,1.86-1.7,3.49-2.96,4.89c-1.26,1.4-2.8,2.51-4.61,3.33c-1.81,0.82-3.82,1.23-6.01,1.23
	C28.81,399.12,26.8,398.7,24.99,397.85L24.99,397.85z M43.2,411.15c3.78-1.56,7.06-3.7,9.85-6.4c2.79-2.71,4.97-5.89,6.53-9.53
	c1.56-3.64,2.34-7.51,2.34-11.62v-0.16c0-4.11-0.78-7.97-2.34-11.58c-1.56-3.61-3.71-6.76-6.45-9.45c-2.74-2.68-6-4.8-9.77-6.36
	c-3.78-1.56-7.88-2.34-12.32-2.34c-4.43,0-8.54,0.78-12.32,2.34c-3.78,1.56-7.06,3.7-9.85,6.41c-2.79,2.71-4.97,5.89-6.53,9.53
	C0.78,375.62,0,379.49,0,383.6v0.16c0,4.11,0.78,7.97,2.34,11.58c1.56,3.61,3.71,6.76,6.45,9.45c2.74,2.68,6,4.8,9.77,6.36
	c3.78,1.56,7.88,2.34,12.32,2.34C35.31,413.49,39.42,412.71,43.2,411.15L43.2,411.15z M90.15,399.53c-1.09-0.49-2.04-1.19-2.86-2.09
	c-0.82-0.9-1.46-1.97-1.92-3.2c-0.46-1.23-0.7-2.59-0.7-4.07v-0.17c0-1.48,0.23-2.82,0.7-4.02c0.46-1.2,1.1-2.26,1.92-3.16
	c0.82-0.9,1.77-1.6,2.86-2.09c1.09-0.49,2.26-0.74,3.52-0.74c2.56,0,4.72,0.93,6.46,2.79c1.74,1.86,2.62,4.27,2.62,7.23v0.17
	c0,3.01-0.87,5.45-2.62,7.31c-1.74,1.86-3.9,2.79-6.46,2.79C92.41,400.27,91.24,400.02,90.15,399.53L90.15,399.53z M69.31,425.48H85
	v-18.56c0.71,0.82,1.5,1.63,2.37,2.42c0.87,0.79,1.86,1.48,2.95,2.05c1.09,0.57,2.31,1.04,3.65,1.4c1.34,0.36,2.85,0.53,4.55,0.53
	c2.62,0,5.12-0.53,7.49-1.6c2.38-1.07,4.45-2.6,6.23-4.6c1.77-2,3.2-4.43,4.26-7.31c1.07-2.87,1.6-6.12,1.6-9.73v-0.16
	c0-3.56-0.53-6.76-1.6-9.61c-1.06-2.85-2.5-5.26-4.3-7.23c-1.8-1.97-3.89-3.49-6.27-4.56c-2.38-1.07-4.88-1.6-7.49-1.6
	c-1.64,0-3.13,0.19-4.46,0.58c-1.34,0.38-2.54,0.89-3.6,1.52c-1.07,0.63-2.04,1.36-2.91,2.18c-0.87,0.82-1.69,1.7-2.46,2.63v-5.91
	H69.31V425.48L69.31,425.48z M137.8,386.47c0.44-2.46,1.31-4.42,2.63-5.87c1.31-1.45,3.01-2.18,5.09-2.18
	c2.14,0,3.89,0.73,5.26,2.18c1.37,1.45,2.19,3.41,2.46,5.87H137.8L137.8,386.47z M158.21,410.95c3.15-1.64,5.79-3.83,7.93-6.57
	l-8.62-7.15c-1.59,1.59-3.16,2.74-4.72,3.45c-1.56,0.71-3.27,1.07-5.13,1.07c-2.46,0-4.53-0.6-6.2-1.81
	c-1.67-1.2-2.81-3.04-3.41-5.5h29.73c0.05-0.55,0.08-1.1,0.08-1.64c0-0.55,0-1.07,0-1.56c0-3.28-0.45-6.39-1.36-9.32
	c-0.9-2.93-2.27-5.5-4.11-7.72c-1.84-2.22-4.16-3.98-6.98-5.3c-2.82-1.31-6.15-1.97-9.98-1.97c-3.29,0-6.3,0.6-9.03,1.81
	c-2.74,1.21-5.11,2.86-7.1,4.97c-2,2.11-3.55,4.57-4.64,7.39c-1.1,2.82-1.64,5.84-1.64,9.07v0.16c0,3.45,0.59,6.6,1.77,9.44
	c1.18,2.85,2.82,5.27,4.93,7.27c2.11,2,4.61,3.56,7.51,4.68c2.9,1.12,6.1,1.68,9.61,1.68C151.27,413.41,155.06,412.59,158.21,410.95
	L158.21,410.95z M174.51,412.34h15.69v-24.06c0-2.46,0.61-4.32,1.82-5.58c1.22-1.26,2.77-1.89,4.66-1.89c1.84,0,3.32,0.63,4.46,1.89
	c1.13,1.26,1.7,3.12,1.7,5.58v24.06h15.69v-29.07c0-5.09-1.34-9.09-4-11.99c-2.67-2.9-6.4-4.35-11.19-4.35c-1.57,0-3,0.21-4.3,0.62
	c-1.3,0.41-2.49,0.95-3.57,1.6c-1.08,0.66-2.05,1.43-2.92,2.3c-0.87,0.88-1.65,1.78-2.35,2.71v-6.24h-15.69V412.34L174.51,412.34z
	 M282.34,412.06c2.85-0.85,5.28-2.08,7.31-3.69c2.03-1.61,3.6-3.57,4.72-5.86c1.12-2.29,1.68-4.92,1.68-7.87v-0.17
	c0-2.68-0.49-4.99-1.48-6.93c-0.99-1.94-2.41-3.59-4.27-4.96c-1.86-1.37-4.12-2.53-6.77-3.48c-2.66-0.96-5.63-1.79-8.91-2.5
	c-1.97-0.44-3.6-0.86-4.89-1.27c-1.29-0.41-2.3-0.82-3.04-1.23c-0.74-0.41-1.26-0.86-1.56-1.35c-0.3-0.49-0.45-1.07-0.45-1.72v-0.16
	c0-1.04,0.48-1.91,1.44-2.62c0.96-0.71,2.4-1.07,4.31-1.07c2.57,0,5.24,0.48,8.01,1.44c2.76,0.96,5.46,2.37,8.09,4.23l7.97-11.29
	c-3.12-2.53-6.61-4.45-10.47-5.74c-3.86-1.3-8.25-1.94-13.18-1.94c-3.45,0-6.54,0.45-9.28,1.35c-2.74,0.9-5.08,2.17-7.02,3.81
	c-1.94,1.64-3.42,3.58-4.43,5.82c-1.01,2.24-1.52,4.7-1.52,7.38v0.16c0,2.95,0.56,5.43,1.68,7.42c1.12,2,2.65,3.66,4.6,5
	c1.94,1.34,4.23,2.43,6.86,3.28s5.47,1.63,8.54,2.34c1.97,0.44,3.57,0.86,4.81,1.27c1.23,0.41,2.22,0.83,2.96,1.27
	c0.74,0.44,1.24,0.89,1.52,1.35c0.27,0.47,0.41,1,0.41,1.6v0.16c0,1.26-0.56,2.23-1.68,2.91c-1.12,0.68-2.75,1.02-4.89,1.02
	c-6.68,0-12.89-2.3-18.64-6.9l-8.87,10.62c3.56,3.2,7.65,5.59,12.28,7.19c4.63,1.6,9.51,2.4,14.66,2.4
	C276.32,413.33,279.49,412.91,282.34,412.06L282.34,412.06z M321.93,399.29c-1.15-0.54-2.15-1.26-3-2.16
	c-0.85-0.9-1.51-1.94-1.97-3.13c-0.47-1.19-0.7-2.47-0.7-3.83v-0.16c0-1.3,0.22-2.55,0.66-3.75c0.44-1.19,1.05-2.24,1.85-3.14
	c0.79-0.9,1.76-1.6,2.91-2.12c1.15-0.52,2.44-0.77,3.86-0.77c1.37,0,2.63,0.27,3.78,0.81c1.15,0.54,2.15,1.26,3,2.16
	c0.85,0.89,1.51,1.94,1.97,3.14c0.46,1.19,0.7,2.47,0.7,3.83v0.16c0,1.3-0.22,2.55-0.66,3.75c-0.44,1.2-1.05,2.24-1.85,3.14
	c-0.8,0.9-1.77,1.6-2.92,2.12c-1.15,0.52-2.44,0.77-3.86,0.77C324.33,400.11,323.08,399.84,321.93,399.29L321.93,399.29z
	 M335.39,411.56c3.01-1.23,5.61-2.9,7.8-5.01c2.19-2.11,3.9-4.57,5.13-7.39c1.23-2.82,1.85-5.82,1.85-8.99v-0.17
	c0-3.17-0.6-6.16-1.81-8.95c-1.2-2.79-2.9-5.23-5.09-7.31c-2.19-2.08-4.78-3.74-7.76-4.97c-2.98-1.23-6.26-1.85-9.81-1.85
	s-6.84,0.62-9.85,1.85c-3.01,1.23-5.61,2.9-7.8,5.01c-2.19,2.11-3.9,4.57-5.13,7.39c-1.23,2.82-1.85,5.82-1.85,8.99v0.16
	c0,3.18,0.6,6.16,1.81,8.95c1.2,2.79,2.9,5.24,5.09,7.35c2.19,2.11,4.78,3.76,7.76,4.97c2.98,1.2,6.25,1.81,9.81,1.81
	C329.1,413.41,332.38,412.8,335.39,411.56L335.39,411.56z M379.48,411.19c2.11-1.42,3.87-3.07,5.27-4.93v6.08h15.69v-44.43h-15.69
	v24.06c0,2.46-0.61,4.33-1.82,5.59c-1.22,1.26-2.74,1.89-4.58,1.89c-1.89,0-3.41-0.63-4.54-1.89c-1.14-1.26-1.7-3.12-1.7-5.59
	v-24.06h-15.69v29.07c0,5.09,1.33,9.09,4,11.99c2.67,2.9,6.4,4.35,11.19,4.35C374.75,413.33,377.37,412.62,379.48,411.19
	L379.48,411.19z M408.81,412.34h15.69v-13.8c0-5.14,1.09-8.92,3.29-11.33c2.19-2.41,5.34-3.61,9.44-3.61h1.31v-16.43
	c-3.72-0.16-6.68,0.66-8.87,2.46c-2.19,1.81-3.91,4.22-5.17,7.23v-8.95h-15.69V412.34L408.81,412.34z M477.39,410.62
	c3.12-1.86,5.72-4.32,7.8-7.39l-10.43-7.56c-1.26,1.42-2.53,2.55-3.82,3.37c-1.29,0.82-2.86,1.23-4.72,1.23
	c-1.31,0-2.52-0.26-3.61-0.78c-1.1-0.52-2.03-1.23-2.79-2.14c-0.77-0.9-1.37-1.97-1.81-3.2c-0.44-1.23-0.66-2.56-0.66-3.98v-0.17
	c0-1.37,0.22-2.64,0.66-3.82c0.44-1.18,1.04-2.22,1.81-3.12c0.77-0.9,1.68-1.61,2.75-2.14c1.07-0.52,2.23-0.78,3.49-0.78
	c1.92,0,3.5,0.41,4.76,1.23c1.26,0.82,2.44,1.97,3.53,3.45l10.59-7.88c-1.92-3.01-4.41-5.42-7.47-7.23
	c-3.07-1.81-6.9-2.71-11.5-2.71c-3.5,0-6.72,0.62-9.65,1.85c-2.93,1.23-5.43,2.9-7.51,5.01c-2.08,2.11-3.71,4.57-4.89,7.39
	c-1.18,2.82-1.77,5.79-1.77,8.91v0.16c0,3.12,0.59,6.09,1.77,8.91c1.18,2.82,2.79,5.27,4.85,7.35c2.05,2.08,4.5,3.74,7.35,4.97
	c2.85,1.23,5.94,1.85,9.28,1.85C470.27,413.41,474.27,412.48,477.39,410.62L477.39,410.62z M503.67,386.47
	c0.44-2.46,1.31-4.42,2.63-5.87c1.31-1.45,3.01-2.18,5.09-2.18c2.14,0,3.89,0.73,5.26,2.18c1.37,1.45,2.19,3.41,2.46,5.87H503.67
	L503.67,386.47z M524.07,410.95c3.15-1.64,5.79-3.83,7.93-6.57l-8.62-7.15c-1.59,1.59-3.16,2.74-4.72,3.45
	c-1.56,0.71-3.27,1.07-5.13,1.07c-2.46,0-4.53-0.6-6.2-1.81c-1.67-1.2-2.81-3.04-3.41-5.5h29.73c0.05-0.55,0.08-1.1,0.08-1.64
	c0-0.55,0-1.07,0-1.56c0-3.28-0.45-6.39-1.35-9.32c-0.9-2.93-2.27-5.5-4.11-7.72c-1.84-2.22-4.16-3.98-6.98-5.3
	s-6.15-1.97-9.98-1.97c-3.28,0-6.3,0.6-9.03,1.81c-2.74,1.21-5.1,2.86-7.1,4.97c-2,2.11-3.55,4.57-4.64,7.39
	c-1.1,2.82-1.64,5.84-1.64,9.07v0.16c0,3.45,0.59,6.6,1.77,9.44c1.18,2.85,2.82,5.27,4.93,7.27c2.11,2,4.61,3.56,7.52,4.68
	c2.9,1.12,6.1,1.68,9.61,1.68C517.13,413.41,520.92,412.59,524.07,410.95L524.07,410.95z"/>
<g>
	<path class="st1" d="M268.95,305.73c0.06,0,0.11,0,0.17,0c39.67-0.57,75.66-16.28,102.52-41.57c-15.38-65-56.07-94.99-87.77-102.95
		c0.02-0.32,0.02-0.64,0.02-0.94c0-9.42-3.95-17.53-9.66-21.35c-2.77,5.43-7.32,18.37-7.32,23.79c0-5.53-4.34-18.72-6.88-24.09
		c-5.95,3.68-10.1,11.98-10.1,21.64c0,5.04,2.04,11.94,4.74,18.52c-10.54,8.67-26.52,12.16-45.57,12.16
		c-27.2,0-60.65-7.13-93.52-16.51c5.18,36.61,23.3,69.05,49.62,92.53c-31.39-27.99-51.19-68.72-51.19-114.09
		C114.02,68.45,182.46,0,266.89,0s152.87,68.45,152.87,152.87C419.76,236.61,352.43,304.62,268.95,305.73 M229.83,301.2
		L229.83,301.2c49.57-41.11,50.77-86.44,45.27-113.64c0.22-0.43,0.45-0.87,0.67-1.32c-0.22,0.45-0.44,0.89-0.67,1.32l0,0l0,0
		c0.9,4.47,1.63,9.44,1.98,14.8C278.9,229.56,271.24,266.85,229.83,301.2 M165.28,267.04c-0.02-0.02-0.04-0.03-0.06-0.05
		C165.24,267,165.26,267.01,165.28,267.04 M275.78,186.23c0-0.01,0.01-0.01,0.01-0.01C275.78,186.22,275.78,186.23,275.78,186.23"/>
	<path class="st0" d="M229.83,301.2L229.83,301.2L229.83,301.2L229.83,301.2C229.83,301.2,229.83,301.2,229.83,301.2 M166.81,268.38
		c-0.01-0.01-0.02-0.01-0.02-0.02C166.79,268.37,166.8,268.37,166.81,268.38 M166.73,268.31c-0.01-0.01-0.02-0.02-0.02-0.02
		C166.72,268.3,166.73,268.31,166.73,268.31 M166.65,268.25c-0.02-0.02-0.03-0.03-0.05-0.05
		C166.62,268.22,166.64,268.23,166.65,268.25 M166.6,268.19c-0.44-0.39-0.88-0.77-1.32-1.17c0.31,0.27,0.61,0.54,0.92,0.81
		C166.33,267.96,166.47,268.08,166.6,268.19 M165.22,266.98c-0.01,0-0.01-0.01-0.01-0.01C165.21,266.97,165.22,266.98,165.22,266.98
		 M260.42,190.69L260.42,190.69L260.42,190.69c-0.1-0.16-0.19-0.34-0.28-0.51c0,0,0-0.01-0.01-0.01c-0.01-0.01-0.01-0.01-0.01-0.02
		c-0.01-0.01-0.01-0.02-0.02-0.03l0,0c-0.16-0.3-0.34-0.61-0.51-0.92C259.87,189.72,260.15,190.21,260.42,190.69L260.42,190.69
		 M275.77,186.24c0-0.01,0.01-0.01,0.01-0.01C275.78,186.23,275.77,186.24,275.77,186.24 M275.78,186.22
		c0.07-0.14,0.14-0.27,0.2-0.4c-0.04,0.08-0.07,0.15-0.11,0.23C275.84,186.1,275.81,186.16,275.78,186.22 M257.49,185.08
		c-0.97-2.01-1.93-4.14-2.81-6.3l0,0C255.56,180.95,256.51,183.07,257.49,185.08L257.49,185.08 M282.29,169.84
		C282.29,169.84,282.29,169.84,282.29,169.84c0.88-3.12,1.46-6.08,1.57-8.63h0.01C283.75,163.76,283.17,166.72,282.29,169.84"/>
	<path class="st2" d="M269.12,305.73c15.7-0.23,30.81-2.85,45.03-7.47c30.2-59.72-8.39-107.81-31.86-128.42
		c0.88-3.12,1.46-6.08,1.58-8.63c31.7,7.96,72.39,37.95,87.77,102.95C344.78,289.45,308.8,305.16,269.12,305.73 M229.83,301.2
		L229.83,301.2c41.41-34.35,49.06-71.64,47.26-98.84C278.9,229.56,271.24,266.85,229.83,301.2 M166.19,267.84
		c-0.31-0.27-0.61-0.54-0.92-0.81c-0.02-0.02-0.04-0.03-0.06-0.05c-0.01-0.01-0.01-0.01-0.01-0.01
		c-26.32-23.47-44.44-55.92-49.62-92.53c32.86,9.38,66.32,16.51,93.52,16.51c19.05,0,35.03-3.5,45.57-12.16
		c0.88,2.16,1.84,4.29,2.81,6.3c-24.07,40.86-82.69,48.6-115.67,55.57C148.85,250.65,157.03,259.8,166.19,267.84 M260.42,190.69
		c-0.1-0.16-0.19-0.34-0.28-0.51C260.23,190.35,260.32,190.52,260.42,190.69L260.42,190.69 M260.13,190.18
		c-0.01-0.01-0.01-0.01-0.01-0.02C260.12,190.17,260.13,190.17,260.13,190.18 M260.1,190.13L260.1,190.13L260.1,190.13
		 M275.1,187.56L275.1,187.56c0.22-0.43,0.45-0.87,0.67-1.32c0-0.01,0.01-0.01,0.01-0.01c0-0.01,0.01-0.01,0.01-0.01
		c0.03-0.06,0.06-0.12,0.09-0.18C275.62,186.56,275.36,187.06,275.1,187.56"/>
	<path class="st0" d="M266.89,305.75c-12.78,0-25.19-1.59-37.05-4.55l0,0c8.78,2.18,17.84,3.63,27.14,4.23
		C260.25,305.63,263.56,305.74,266.89,305.75L266.89,305.75L266.89,305.75c0.02,0,0.04,0,0.06,0c0.01,0,0.01,0,0.01,0
		c0.02,0,0.03,0,0.05,0c0.01,0,0.01,0,0.02,0c0.02,0,0.03,0,0.05,0c0.01,0,0.01,0,0.02,0c0.02,0,0.03,0,0.04,0c0.01,0,0.02,0,0.02,0
		c0.01,0,0.02,0,0.04,0c0.01,0,0.02,0,0.02,0c0.01,0,0.02,0,0.03,0c0.01,0,0.02,0,0.03,0c0.01,0,0.02,0,0.03,0c0.01,0,0.02,0,0.03,0
		c0.01,0,0.02,0,0.03,0c0.02,0,0.02,0,0.03,0c0.01,0,0.02,0,0.03,0c0.01,0,0.03,0,0.03,0c0.01,0,0.02,0,0.02,0c0.02,0,0.02,0,0.04,0
		c0.01,0,0.01,0,0.02,0c0.01,0,0.03,0,0.04,0c0.01,0,0.01,0,0.02,0c0.02,0,0.03,0,0.05,0c0.01,0,0.01,0,0.01,0c0.02,0,0.03,0,0.05,0
		c0.01,0,0.01,0,0.01,0c0.02,0,0.03,0,0.05,0h0.01c0.39,0,0.78-0.01,1.17-0.01C268.27,305.74,267.58,305.75,266.89,305.75
		 M166.88,268.44c-0.02-0.02-0.05-0.04-0.07-0.06C166.83,268.4,166.85,268.42,166.88,268.44c42.74-14.47,78.23-33.97,93.54-77.74
		l0,0C245.11,234.47,209.62,253.96,166.88,268.44 M166.78,268.36c-0.02-0.01-0.03-0.03-0.05-0.05
		C166.76,268.33,166.77,268.34,166.78,268.36 M166.71,268.3c-0.02-0.02-0.04-0.03-0.06-0.05
		C166.68,268.26,166.69,268.28,166.71,268.3 M166.6,268.2L166.6,268.2L166.6,268.2 M259.6,189.21c-0.7-1.3-1.41-2.68-2.11-4.13l0,0
		C258.19,186.52,258.9,187.91,259.6,189.21 M275.99,185.81c2.46-4.97,4.81-10.7,6.3-15.98l0,0
		C280.8,175.12,278.44,180.84,275.99,185.81"/>
	<path class="st0" d="M266.89,305.74c-3.33,0-6.64-0.11-9.91-0.32C260.25,305.63,263.56,305.74,266.89,305.74L266.89,305.74
		 M266.95,305.74c0.01,0,0.01,0,0.01,0C266.95,305.74,266.95,305.74,266.95,305.74 M267.01,305.74c0.01,0,0.01,0,0.02,0
		C267.02,305.74,267.01,305.74,267.01,305.74 M267.07,305.74c0.01,0,0.02,0,0.02,0C267.08,305.74,267.08,305.74,267.07,305.74
		 M267.13,305.74c0.01,0,0.02,0,0.02,0C267.15,305.74,267.13,305.74,267.13,305.74 M267.19,305.74c0.01,0,0.02,0,0.02,0
		C267.21,305.74,267.2,305.74,267.19,305.74 M267.25,305.74c0.01,0,0.02,0,0.03,0C267.28,305.74,267.26,305.74,267.25,305.74
		 M267.31,305.74c0.01,0,0.02,0,0.03,0C267.33,305.74,267.32,305.74,267.31,305.74 M267.37,305.74c0.01,0,0.02,0,0.03,0
		C267.39,305.74,267.38,305.74,267.37,305.74 M267.43,305.74c0.01,0,0.02,0,0.03,0C267.46,305.74,267.44,305.74,267.43,305.74
		 M267.49,305.74c0.01,0,0.03,0,0.04,0C267.51,305.74,267.5,305.74,267.49,305.74 M267.55,305.74c0.02,0,0.03,0,0.04,0
		C267.58,305.74,267.56,305.74,267.55,305.74 M267.61,305.74c0.02,0,0.03,0,0.05,0C267.64,305.74,267.62,305.74,267.61,305.74
		 M267.66,305.74c0.02,0,0.03,0,0.05,0C267.7,305.74,267.69,305.74,267.66,305.74 M267.73,305.74c0.02,0,0.03,0,0.05,0
		C267.75,305.74,267.74,305.74,267.73,305.74 M267.78,305.74c0.45,0,0.9-0.01,1.34-0.01c-0.06,0-0.11,0-0.17,0
		C268.56,305.74,268.17,305.74,267.78,305.74 M277.09,202.36c-0.36-5.36-1.08-10.32-1.98-14.8l0,0
		C276.01,192.04,276.73,197,277.09,202.36"/>
	<path class="st0" d="M266.89,305.74L266.89,305.74c0.02,0,0.04,0,0.06,0C266.93,305.74,266.91,305.74,266.89,305.74 M266.96,305.74
		c0.02,0,0.03,0,0.05,0C267,305.74,266.97,305.74,266.96,305.74 M267.03,305.74c0.02,0,0.03,0,0.05,0
		C267.05,305.74,267.04,305.74,267.03,305.74 M267.09,305.74c0.02,0,0.03,0,0.04,0C267.12,305.74,267.11,305.74,267.09,305.74
		 M267.16,305.74c0.02,0,0.02,0,0.04,0C267.18,305.74,267.17,305.74,267.16,305.74 M267.22,305.74c0.02,0,0.02,0,0.03,0
		C267.24,305.74,267.23,305.74,267.22,305.74 M267.28,305.74c0.01,0,0.02,0,0.03,0C267.3,305.74,267.29,305.74,267.28,305.74
		 M267.34,305.74c0.01,0,0.02,0,0.03,0C267.36,305.74,267.35,305.74,267.34,305.74 M267.41,305.74c0.01,0,0.02,0,0.03,0
		C267.42,305.74,267.41,305.74,267.41,305.74 M267.47,305.74c0.01,0,0.01,0,0.02,0C267.48,305.74,267.47,305.74,267.47,305.74
		 M267.53,305.74c0.01,0,0.02,0,0.02,0C267.54,305.74,267.54,305.74,267.53,305.74 M267.59,305.74c0.01,0,0.01,0,0.02,0
		C267.61,305.74,267.59,305.74,267.59,305.74 M267.66,305.74h0.01C267.66,305.74,267.66,305.74,267.66,305.74 M267.71,305.74h0.01
		C267.72,305.74,267.72,305.74,267.71,305.74 M267.78,305.74L267.78,305.74L267.78,305.74 M256.98,305.42
		c-9.3-0.6-18.36-2.04-27.14-4.23l0,0C238.61,303.38,247.68,304.82,256.98,305.42 M166.88,268.44c-0.02-0.02-0.05-0.04-0.07-0.06
		c-0.01-0.01-0.02-0.01-0.02-0.02c-0.02-0.02-0.03-0.03-0.05-0.05c-0.01-0.01-0.02-0.01-0.02-0.02c-0.02-0.02-0.04-0.03-0.06-0.05
		c-0.02-0.02-0.03-0.03-0.05-0.05c0,0-0.01,0-0.01-0.01c-0.14-0.12-0.27-0.23-0.4-0.35C166.42,268.04,166.65,268.24,166.88,268.44
		c42.74-14.48,78.23-33.97,93.54-77.74l0,0C245.11,234.47,209.62,253.96,166.88,268.44 M260.13,190.18
		C260.13,190.18,260.13,190.18,260.13,190.18C260.13,190.18,260.13,190.18,260.13,190.18 M260.12,190.16
		c-0.01-0.01-0.01-0.02-0.02-0.03C260.11,190.14,260.11,190.15,260.12,190.16 M260.1,190.13c-0.86-1.56-1.74-3.26-2.61-5.04l0,0
		c0.7,1.44,1.41,2.82,2.11,4.13C259.77,189.52,259.93,189.82,260.1,190.13 M275.87,186.05c0.04-0.08,0.07-0.15,0.11-0.23
		c2.46-4.97,4.81-10.7,6.3-15.98c0,0,0,0,0.01,0.01C280.78,175.19,278.37,181.02,275.87,186.05"/>
	<path class="st3" d="M266.89,305.74c-3.33,0-6.64-0.11-9.91-0.32c-9.3-0.6-18.37-2.04-27.14-4.23
		c41.41-34.35,49.06-71.64,47.26-98.84c-0.36-5.36-1.08-10.32-1.98-14.8c0.26-0.49,0.51-1,0.77-1.52c2.5-5.02,4.9-10.84,6.42-16.2
		c23.46,20.62,62.06,68.71,31.86,128.42c-14.22,4.62-29.33,7.24-45.03,7.47c-0.45,0.01-0.89,0.01-1.34,0.01h-0.01
		c-0.02,0-0.03,0-0.05,0h-0.01c-0.02,0-0.03,0-0.05,0h-0.01c-0.02,0-0.03,0-0.05,0c-0.01,0-0.01,0-0.02,0c-0.02,0-0.03,0-0.04,0
		c-0.01,0-0.02,0-0.02,0c-0.01,0-0.03,0-0.04,0c-0.01,0-0.01,0-0.02,0c-0.01,0-0.02,0-0.03,0c-0.01,0-0.02,0-0.03,0
		c-0.01,0-0.02,0-0.03,0c-0.01,0-0.02,0-0.03,0c-0.01,0-0.02,0-0.03,0c-0.01,0-0.02,0-0.03,0c-0.01,0-0.02,0-0.03,0
		c-0.02,0-0.02,0-0.03,0c-0.01,0-0.02,0-0.02,0c-0.02,0-0.02,0-0.04,0c-0.01,0-0.02,0-0.02,0c-0.02,0-0.03,0-0.04,0
		c-0.01,0-0.02,0-0.02,0c-0.02,0-0.03,0-0.05,0c-0.01,0-0.01,0-0.02,0c-0.02,0-0.03,0-0.05,0c-0.01,0-0.01,0-0.01,0
		C266.93,305.74,266.91,305.74,266.89,305.74 M166.88,268.44c-0.23-0.2-0.45-0.4-0.68-0.6c-9.17-8.04-17.34-17.19-24.38-27.19
		c32.98-6.97,91.61-14.72,115.67-55.57c0.86,1.78,1.74,3.48,2.61,5.04l0,0c0.01,0.01,0.01,0.02,0.02,0.03
		c0.01,0.01,0.01,0.01,0.01,0.02c0,0,0,0.01,0.01,0.01c0.1,0.17,0.19,0.34,0.28,0.51C245.11,234.47,209.62,253.96,166.88,268.44"/>
	<path class="st0" d="M293.3,74.38c0-20.65-26.39-57.49-26.39-57.49s-26.38,36.84-26.38,57.49s26.38,59.08,26.38,76.86
		C266.91,133.46,293.3,95.03,293.3,74.38L293.3,74.38z"/>
	<path class="st0" d="M278.39,128.62c7.82,3.61,19.8,11.02,19.8,22.63c11.11-19.94-2.5-39.88-8.7-47.37
		C285.86,112.19,281.75,120.74,278.39,128.62L278.39,128.62z"/>
	<path class="st0" d="M255.39,128.62c-7.82,3.61-19.8,11.02-19.8,22.63c-11.11-19.94,2.5-39.88,8.7-47.37
		C247.91,112.19,252.03,120.74,255.39,128.62L255.39,128.62z"/>
	<path class="st0" d="M283.9,160.27c0-9.42-3.95-17.53-9.66-21.35c-0.77,1.51-1.68,3.6-2.58,5.95c3.69,2.48,6.25,7.74,6.25,13.84
		c0,8.49-8.93,25.12-11.02,25.12s-11.02-16.64-11.02-25.12c0-6.27,2.69-11.65,6.55-14.04c0.06,0.13,0.13,0.28,0.19,0.42
		c-0.91-2.57-1.82-4.87-2.58-6.46c-5.95,3.68-10.1,11.98-10.1,21.64c0,13.08,13.77,38.72,16.98,38.72
		C270.13,198.99,283.9,173.35,283.9,160.27L283.9,160.27z"/>
</g>
</svg>
