<?xml version="1.0" encoding="utf-8"?>
<!-- Generator: Adobe Illustrator 25.0.0, SVG Export Plug-In . SVG Version: 6.00 Build 0)  -->
<svg version="1.1" id="Layer_1" xmlns="http://www.w3.org/2000/svg" xmlns:xlink="http://www.w3.org/1999/xlink" x="0px" y="0px"
	 viewBox="0 0 535.2 540" style="enable-background:new 0 0 535.2 540;" xml:space="preserve">
<style type="text/css">
	.st0{fill:#FFFFFF;}
</style>
<g>
	<path class="st0" d="M42.5,486.2l-8.3,27l-3,11.2H31l-3-11.2l-8.3-27H0v53h12.3v-24.3l-0.4-16.3H12l13.1,40.6h11.2l13.1-40.6h0.2
		l-0.4,16.3v24.3h12.2v-53H42.5L42.5,486.2z M93.7,538c2.3-1.4,4.1-3.5,5.4-6.3l0.4,7.5h12.2v-40.1H98.1v21.5c0,1.6-0.2,2.9-0.5,4.1
		c-0.3,1.2-0.8,2.1-1.5,2.8c-0.6,0.7-1.4,1.3-2.2,1.6c-0.9,0.3-1.8,0.5-2.7,0.5c-1.9,0-3.3-0.5-4.3-1.5c-1-1-1.5-2.8-1.5-5.4v-23.6
		H71.6v26.8c0,3.4,0.6,6.1,1.8,8.2c1.2,2.1,2.8,3.6,4.9,4.5c2.1,0.9,4.5,1.4,7.2,1.4C88.6,540,91.4,539.3,93.7,538L93.7,538z
		 M124.6,490.1v37.1c0.1,3.1,0.7,5.6,1.9,7.5c1.2,1.9,2.9,3.2,5.1,4.1c2.2,0.9,4.9,1.3,7.9,1.3c2.1,0,4.2-0.3,6.3-0.8
		c2-0.5,3.7-1.3,5.1-2.2l-1.4-8.4c-0.8,0.6-1.6,1-2.5,1.3c-0.9,0.3-2,0.4-3.3,0.4c-1.7,0-3-0.4-3.9-1.2c-0.9-0.8-1.4-2.2-1.4-4.1
		v-38.6L124.6,490.1L124.6,490.1z M117.7,499.1v9.7h32.5v-9.7H117.7L117.7,499.1z M178.5,538c2.3-1.4,4.1-3.5,5.4-6.3l0.4,7.5h12.2
		v-40.1h-13.6v21.5c0,1.6-0.2,2.9-0.5,4.1c-0.3,1.2-0.8,2.1-1.5,2.8c-0.6,0.7-1.4,1.3-2.2,1.6c-0.9,0.3-1.8,0.5-2.7,0.5
		c-1.9,0-3.3-0.5-4.3-1.5c-1-1-1.5-2.8-1.5-5.4v-23.6h-13.6v26.8c0,3.4,0.6,6.1,1.8,8.2c1.2,2.1,2.8,3.6,4.9,4.5
		c2.1,0.9,4.5,1.4,7.2,1.4C173.4,540,176.2,539.3,178.5,538L178.5,538z M228.6,524.4c0,1.2-0.2,2.2-0.6,3c-0.4,0.9-0.9,1.6-1.5,2.1
		c-0.6,0.6-1.4,1-2.2,1.2c-0.8,0.3-1.7,0.4-2.6,0.4c-1.2,0-2.2-0.3-3-0.9c-0.9-0.6-1.3-1.5-1.3-2.6c0-1.2,0.4-2.2,1.2-2.8
		c0.8-0.6,2-1.1,3.6-1.4l7.7-1.6l0.1-7.2l-15.2,3.1c-3.7,0.8-6.5,2.1-8.2,4c-1.7,1.9-2.6,4.3-2.6,7.2c0,2.4,0.5,4.4,1.6,6.1
		c1.1,1.6,2.7,2.9,4.7,3.7c2,0.9,4.4,1.3,7.1,1.3c2.4,0,4.6-0.4,6.8-1.1c2.2-0.7,3.9-1.9,5.3-3.5c1.4-1.6,2-3.5,2-5.8l-1.5,0.6v0.5
		c0,2.1,0.5,3.8,1.4,5.2c0.9,1.4,2.2,2.4,3.8,3c1.6,0.7,3.4,1,5.5,1c2.3,0,4.3-0.4,5.9-1.1l0.8-7.8c-0.6,0.2-1.4,0.3-2.3,0.3
		c-1.9,0-2.8-1-2.8-3.1v-14.7c0-3.3-0.7-6.1-2.2-8.4c-1.5-2.3-3.6-4-6.3-5.1c-2.8-1.1-6.1-1.7-10-1.7c-5.8,0-10.4,1.2-13.6,3.5
		c-3.2,2.3-5.2,5.4-5.9,9.2l11.6,2.7c0.5-2.2,1.4-3.8,2.6-4.7c1.3-0.9,2.8-1.3,4.5-1.3c1.8,0,3.2,0.5,4.2,1.6c1,1.1,1.6,2.6,1.6,4.5
		V524.4L228.6,524.4z M252.5,482.1v45.3c0,4.5,1,7.7,2.9,9.7c1.9,2,5,3,9.3,3c1.5,0,3-0.2,4.6-0.6c1.6-0.4,2.8-0.9,3.8-1.4l0.9-8.2
		c-0.7,0.2-1.4,0.4-1.9,0.5c-0.5,0.1-1.2,0.2-2,0.2c-1.4,0-2.4-0.4-3-1.1c-0.6-0.7-0.9-2-0.9-3.8v-43.5H252.5L252.5,482.1z
		 M291.8,492.9c1.3-1,1.9-2.7,1.9-4.9c0-2.3-0.6-4-1.9-5c-1.3-1-3.3-1.6-6-1.6c-2.8,0-4.8,0.5-6.1,1.6c-1.3,1-1.9,2.7-1.9,5
		c0,2.2,0.6,3.9,1.9,4.9c1.3,1,3.3,1.6,6.1,1.6C288.5,494.4,290.5,493.9,291.8,492.9L291.8,492.9z M278.9,499.1v40.1h13.6v-40.1
		H278.9L278.9,499.1z M336.2,539.2v-9.6h-13.8l-7.1,0.2l4.4-4.4l15.7-18v-8.3h-35.1v9.5h13.7l6.3-0.2l-4.3,4.3l-16,18.1v8.3H336.2
		L336.2,539.2z M366.1,524.4c0,1.2-0.2,2.2-0.6,3c-0.4,0.9-0.9,1.6-1.5,2.1s-1.4,1-2.2,1.2c-0.8,0.3-1.7,0.4-2.6,0.4
		c-1.2,0-2.2-0.3-3-0.9c-0.9-0.6-1.3-1.5-1.3-2.6c0-1.2,0.4-2.2,1.2-2.8c0.8-0.6,2-1.1,3.6-1.4l7.7-1.6l0.1-7.2l-15.2,3.1
		c-3.7,0.8-6.5,2.1-8.2,4c-1.7,1.9-2.6,4.3-2.6,7.2c0,2.4,0.5,4.4,1.6,6.1c1.1,1.6,2.7,2.9,4.7,3.7c2,0.9,4.4,1.3,7.1,1.3
		c2.4,0,4.6-0.4,6.8-1.1c2.2-0.7,3.9-1.9,5.3-3.5c1.4-1.6,2-3.5,2-5.8l-1.5,0.6v0.5c0,2.1,0.5,3.8,1.4,5.2c0.9,1.4,2.2,2.4,3.8,3
		c1.6,0.7,3.5,1,5.5,1c2.3,0,4.3-0.4,5.9-1.1l0.8-7.8c-0.6,0.2-1.4,0.3-2.3,0.3c-1.9,0-2.8-1-2.8-3.1v-14.7c0-3.3-0.7-6.1-2.2-8.4
		c-1.5-2.3-3.6-4-6.3-5.1c-2.8-1.1-6.1-1.7-10-1.7c-5.8,0-10.4,1.2-13.6,3.5c-3.2,2.3-5.2,5.4-5.9,9.2l11.6,2.7
		c0.5-2.2,1.4-3.8,2.6-4.7c1.3-0.9,2.8-1.3,4.5-1.3c1.8,0,3.2,0.5,4.2,1.6c1,1.1,1.6,2.6,1.6,4.5V524.4L366.1,524.4z M391.7,491.7
		v35.4c0.1,3.1,0.7,5.6,1.9,7.5c1.2,1.9,2.9,3.2,5.1,4.1c2.2,0.9,4.9,1.3,7.9,1.3c2.1,0,4.2-0.3,6.3-0.8c2-0.5,3.7-1.3,5.1-2.2
		l-1.4-8.4c-0.8,0.6-1.6,1-2.5,1.3c-0.9,0.3-2,0.4-3.3,0.4c-1.7,0-3-0.4-3.9-1.2c-0.9-0.8-1.4-2.2-1.4-4.1V488L391.7,491.7
		L391.7,491.7z M384.8,499.1v9.7h32.5v-9.7H384.8L384.8,499.1z M436.5,492.9c1.3-1,1.9-2.7,1.9-4.9c0-2.3-0.6-4-1.9-5
		c-1.3-1-3.3-1.6-6-1.6c-2.8,0-4.8,0.5-6.1,1.6c-1.3,1-1.9,2.7-1.9,5c0,2.2,0.6,3.9,1.9,4.9c1.3,1,3.3,1.6,6.1,1.6
		C433.2,494.4,435.2,493.9,436.5,492.9L436.5,492.9z M423.6,499.1v40.1h13.6v-40.1H423.6L423.6,499.1z M455.1,500.7
		c-3.2,1.6-5.7,4-7.5,7.1c-1.8,3.1-2.7,6.9-2.7,11.3c0,4.4,0.9,8.1,2.7,11.3c1.8,3.1,4.3,5.5,7.5,7.1c3.2,1.6,6.9,2.4,11,2.4
		c4.2,0,7.9-0.8,11.1-2.4c3.2-1.6,5.7-4,7.5-7.1c1.8-3.1,2.7-6.9,2.7-11.3c0-4.4-0.9-8.1-2.7-11.3c-1.8-3.1-4.3-5.5-7.5-7.1
		c-3.2-1.6-6.9-2.4-11.1-2.4C461.9,498.3,458.3,499.1,455.1,500.7L455.1,500.7z M470.2,509.1c1.1,0.8,2,2,2.6,3.6
		c0.6,1.7,0.9,3.8,0.9,6.4c0,2.6-0.3,4.7-0.9,6.4c-0.6,1.6-1.4,2.8-2.6,3.6c-1.1,0.8-2.5,1.2-4.1,1.2c-1.6,0-2.9-0.4-4-1.2
		c-1.1-0.8-2-2-2.6-3.6c-0.6-1.6-0.9-3.8-0.9-6.4c0-2.6,0.3-4.8,0.9-6.4c0.6-1.7,1.4-2.9,2.6-3.6c1.1-0.7,2.5-1.1,4-1.1
		C467.7,508,469,508.4,470.2,509.1L470.2,509.1z M508.7,539.2v-21.3c0-2.2,0.3-4,1-5.4c0.6-1.3,1.5-2.3,2.6-2.9
		c1.1-0.6,2.3-0.9,3.6-0.9c1.7,0,3,0.5,4.1,1.6c1.1,1.1,1.6,3,1.6,5.8v23.1h13.6v-26.7c0-3.2-0.6-5.8-1.8-7.9
		c-1.2-2.1-2.8-3.7-4.9-4.7c-2.1-1.1-4.5-1.6-7.3-1.6c-2.6,0-4.9,0.5-6.9,1.5c-2.1,1-3.8,2.4-5.1,4.4c-1.4,1.9-2.3,4.3-2.8,7.2
		l1.5,1.5l-0.7-13.8H495v40.1H508.7L508.7,539.2z"/>
	<path class="st0" d="M0,363.3v97.1h41.2c15.2,0,26.9-4.2,35-12.7c8.1-8.4,12.1-20.4,12.1-35.9c0-15.5-4-27.5-12.1-35.9
		c-8.1-8.4-19.7-12.7-35-12.7H0L0,363.3z M25.3,441.3v-58.9h13.4c8.2,0,14.2,2.5,18,7.4c3.8,5,5.7,12.3,5.7,22c0,9.7-1.9,17-5.7,22
		c-3.8,5-9.8,7.4-18,7.4H25.3L25.3,441.3z M154.5,459.6c4.6-1.5,8.6-3.7,12-6.5c3.4-2.9,5.8-6.4,7.1-10.5l-20-6.8
		c-1.1,2.6-2.7,4.7-4.9,6.2c-2.2,1.5-5.2,2.2-8.9,2.2c-3.3,0-6.2-0.7-8.5-2.1c-2.4-1.4-4.2-3.5-5.4-6.5c-1.3-2.9-1.9-6.9-1.9-11.8
		c0-4.9,0.6-8.9,1.7-12c1.1-3.1,2.8-5.4,5-6.8c2.2-1.5,4.9-2.2,8-2.2c4.4,0,7.7,1.6,9.8,4.7c2.1,3.1,3.2,7.7,3.2,13.5l12.1-4.7
		h-47.4v13.5h58.3c0.2-1.2,0.3-2.6,0.4-4.3c0.1-1.7,0.1-3.5,0.1-5.4c0-6.8-1.4-12.8-4.3-18c-2.9-5.2-7-9.4-12.4-12.4
		c-5.4-3-12-4.5-19.7-4.5c-7.6,0-14.3,1.5-20.1,4.6c-5.8,3-10.4,7.4-13.5,13c-3.2,5.6-4.8,12.5-4.8,20.7c0,8.1,1.6,15,4.8,20.7
		c3.2,5.6,7.8,10,13.7,13c5.9,3,12.9,4.6,21,4.6C145,461.9,149.9,461.1,154.5,459.6L154.5,459.6z M219.1,442.9L204,386.8h-26.3
		l26.5,73.6H234l26.5-73.6h-25.9L219.1,442.9L219.1,442.9z M289.2,367.7c-7.2,4-12.7,9.7-16.5,17.1c-3.8,7.5-5.7,16.4-5.7,26.9
		c0,10.5,1.9,19.5,5.7,26.9c3.8,7.5,9.3,13.2,16.5,17.1c7.2,4,15.6,6,25.5,6c9.8,0,18.3-2,25.4-6c7.1-4,12.6-9.7,16.4-17.1
		c3.8-7.5,5.7-16.4,5.7-26.9c0-10.5-1.9-19.5-5.7-26.9c-3.8-7.5-9.3-13.2-16.4-17.1c-7.1-4-15.6-6-25.4-6
		C304.8,361.8,296.3,363.8,289.2,367.7L289.2,367.7z M326.5,385c3.2,2.3,5.6,5.6,7.3,10.1c1.7,4.5,2.5,10,2.5,16.7
		c0,6.6-0.8,12.1-2.5,16.6c-1.7,4.5-4.1,7.9-7.3,10.2c-3.2,2.3-7.1,3.4-11.8,3.4c-4.7,0-8.7-1.1-11.9-3.4c-3.2-2.3-5.7-5.6-7.4-10.2
		c-1.7-4.5-2.5-10.1-2.5-16.6c0-6.7,0.8-12.2,2.5-16.7c1.7-4.5,4.1-7.8,7.4-10.1c3.2-2.3,7.2-3.4,11.9-3.4
		C319.4,381.6,323.3,382.8,326.5,385L326.5,385z M402.5,475.2v-37.9l-2.4,3.5c1.4,6.1,4.1,11.1,8.2,15.1c4.1,4,9.5,6,16.2,6
		c6.1,0,11.4-1.5,16-4.6c4.6-3,8.1-7.5,10.7-13.2c2.6-5.8,3.8-12.7,3.8-20.8c0-8-1.3-14.9-3.8-20.5c-2.5-5.6-6-10-10.5-13
		c-4.5-3-9.8-4.5-15.9-4.5c-4.8,0-9.1,1.1-12.8,3.2c-3.7,2.2-6.8,5.1-9.1,8.8c-2.4,3.7-3.9,8-4.6,13l2.9,3.1l-1.3-26.6h-22.5v95.9
		L402.5,475.2L402.5,475.2z M408.7,441.1c-2.1-1.6-3.6-3.8-4.6-6.8c-1-3-1.5-6.5-1.5-10.7c0-4.3,0.6-7.9,1.7-10.9
		c1.1-2.9,2.7-5.2,4.8-6.7c2.1-1.5,4.5-2.3,7.2-2.3c4.3,0,7.7,1.6,10.1,4.8c2.4,3.2,3.6,8.2,3.6,15.1c0,6.9-1.2,11.9-3.7,15.1
		c-2.5,3.2-5.8,4.8-10.2,4.8C413.2,443.5,410.7,442.7,408.7,441.1L408.7,441.1z M519.9,458.5c5.1-2.2,8.9-5.2,11.5-9.1
		c2.5-3.9,3.8-8.1,3.8-12.7c0-5.2-1.7-9.6-5-13.2c-3.3-3.6-8.8-6.1-16.3-7.5l-13.4-2.6c-3.3-0.7-5.6-1.5-6.8-2.4
		c-1.2-0.9-1.8-2-1.8-3.3c0-1.1,0.4-2,1.2-2.9c0.8-0.8,2-1.5,3.6-1.9c1.6-0.4,3.6-0.7,5.8-0.7c3.8,0,7.6,0.8,11.3,2.4
		c3.7,1.6,6.8,4,9.1,7L535,398c-3.4-4.1-8-7.3-13.7-9.4c-5.7-2.2-12.3-3.2-19.7-3.2c-7.9,0-14.3,1.2-19.5,3.5c-5.2,2.4-9,5.3-11.5,9
		c-2.5,3.6-3.8,7.5-3.8,11.5c0,6,2,10.8,5.9,14.5c3.9,3.7,10.5,6.5,19.9,8.3l10.2,1.9c2.9,0.7,4.9,1.4,5.9,2.3
		c1,0.8,1.5,1.9,1.5,3.3c0,2-1,3.4-2.9,4.2c-2,0.8-4.5,1.3-7.7,1.3c-5,0-9.5-1.1-13.5-3.2c-4-2.1-7.3-4.7-9.9-7.9l-11.8,13.8
		c4.2,4.5,9.5,8,15.8,10.4c6.3,2.4,13.2,3.6,20.5,3.6C508.4,461.9,514.8,460.8,519.9,458.5L519.9,458.5z"/>
	<path class="st0" d="M290.3,262c8.8,0,16-7.2,16-16c0-8.8-7.2-16-16-16c-6.3,0-11.9,3.6-14.5,9.4h-93.7v-98.9h11.3V228h91.7
		c7.2,0,14-1.7,20.2-5.1l16.3,19.8l0.5,0.8l0.1-0.1l0.1,0.1l0.7-0.6c0.4-0.3,0.8-0.5,1.2-0.7c0.6-0.3,1.1-0.7,1.7-1.1
		c12.5-8.9,22.6-21.3,30-36.8c7.4-15.5,11.1-32.4,11.1-50.5c0-18.2-3.7-35.2-11.1-50.6c-7.4-15.4-17.4-27.7-30-36.7
		c-12.6-8.9-26.3-13.5-40.8-13.5H166.8v201.4h110.4C280.2,259.2,285.1,262,290.3,262L290.3,262z M323.6,206.2
		c10.6-14.4,16-32,16-52.3c0-20.2-5.4-37.8-16-52.2C313,87.2,300,79.8,285.1,79.8h-68.8c-3.1-4.3-7.7-6.8-12.8-6.8
		c-8.8,0-16,7.2-16,16c0,8.8,7.2,16,16,16c6.5,0,12.2-3.9,14.7-9.9h66.9c10.6,0,19.7,5.7,27.3,17c7.7,11.4,11.6,25.5,11.6,41.8
		c0,16.2-3.9,30.3-11.6,41.7c-7.6,11.3-16.8,17.1-27.3,17.1h-76.4v-86.6l-0.1-1l-26.5,0V68.5h103c11.8,0,22.9,3.8,32.9,11.3
		c10.1,7.6,18.3,18,24.2,31.1c6,13.1,9.1,27.6,9.1,43c0,23.4-6.6,43.7-19.6,60.4c-2.2,2.9-4.6,5.5-7.1,8l-7.2-8.8
		C319.7,211.1,321.8,208.7,323.6,206.2L323.6,206.2z"/>
	<path class="st0" d="M402.9,76.8c-12.1-22.9-28.4-41.5-48.7-55.1c0-0.1,0-0.1,0.1-0.2c0.1-0.5,0.3-1.1,0.3-1.8c0-8.8-7.2-16-16-16
		s-16,7.2-16,16c0,8.8,7.2,16,16,16c2.1,0,4.2-0.5,6.4-1.5c9.4,6.1,17.8,13.4,25,21.6c10.8,12.4,19.6,27.3,26.1,44.3
		c6.5,17,9.8,35.1,9.8,53.8c0,18.6-3.3,36.7-9.8,53.8c-6.5,17.1-15.3,32-26.1,44.3c-10.8,12.3-23.8,22.2-38.7,29.5
		c-14.8,7.3-30.4,11-46.3,11H128.9v-50.9h11.3v39.6h144.9c19.3,0,37.6-5.7,54.3-17.1c16.7-11.3,30.1-26.9,40-46.4
		c9.9-19.5,14.9-41,14.9-63.8c0-22.8-5-44.3-14.9-63.8c-9.9-19.5-23.3-35.1-40-46.4c-9.4-6.4-19.9-11.1-31-13.9L312.1,3l-8.8-1.2
		C296.1,0.5,290.4,0,285.1,0H113.6v307.8h171.4c18,0,35.7-4.1,52.4-12.2c16.7-8.1,31.4-19.1,43.6-32.8
		c12.2-13.7,22.1-30.2,29.5-49.1c7.3-18.9,11.1-39,11.1-59.7C421.6,126.3,415.3,100.3,402.9,76.8L402.9,76.8z M293.3,27.2l-0.8-0.1
		c-2.4-0.2-4.8-0.5-7.3-0.5H140.2v152.7c-5.3,2.8-8.6,8.1-8.6,14c0,8.8,7.2,16,16,16c8.8,0,16-7.2,16-16c0-5.6-3.1-10.8-8.1-13.7
		V41.9h129.6c16.5,0,32,5,46.3,15c14.3,10,25.9,23.7,34.4,40.9c8.5,17.2,12.8,36.1,12.8,56.2c0,20.2-4.3,39.1-12.8,56.2
		c-8.5,17.1-20.1,30.9-34.3,40.8c-14.2,9.9-29.8,15-46.4,15H155.5v-39.6l-26.6,0.1V15.3h156.2c3.1,0,6.3,0.2,9.8,0.6L293.3,27.2
		L293.3,27.2z"/>
</g>
</svg>
