<?xml version="1.0" encoding="utf-8"?>
<!-- Generator: Adobe Illustrator 27.0.0, SVG Export Plug-In . SVG Version: 6.00 Build 0)  -->
<svg version="1.1" id="Layer_1" xmlns="http://www.w3.org/2000/svg" xmlns:xlink="http://www.w3.org/1999/xlink" x="0px" y="0px"
	 viewBox="0 0 613.8 614.5" style="enable-background:new 0 0 613.8 614.5;" xml:space="preserve">
<style type="text/css">
	.st0{fill:#FFFFFF;}
	.st1{opacity:0.6;fill:#FFFFFF;}
</style>
<g>
	<path class="st0" d="M194.2,536.6c0.4-0.2,0.8-0.5,1.1-0.8l67.8,63.3c-0.1,0.1-0.2,0.2-0.3,0.2c-0.2,0.3-0.4,0.7-0.5,1l-44.1-13.6
		c0.2-1.3-0.2-2.6-1.3-3.5c-1-0.8-2.1-0.9-3.2-0.6L194.2,536.6z M294.7,557.7c0.2-0.3,0.4-0.6,0.5-0.9l83,18.8
		c-0.1,0.8-0.1,1.5,0,2.3l-48.1,11.8c-0.2-0.5-0.5-1-0.9-1.4c-1.3-1.2-3.3-1.2-4.6-0.2L294.7,557.7z M295.5,555.5
		c0-0.2-0.1-0.4-0.1-0.6l54.3-14.5c0.2,0.5,0.5,0.9,0.9,1.3c1.3,1.1,3.1,1.2,4.4,0.3l25.4,29.4c-0.2,0.1-0.4,0.2-0.5,0.4
		c-0.7,0.8-1.1,1.6-1.4,2.5L295.5,555.5z M498.1,529.7l-5.3-53c1.4-0.3,2.5-1.4,2.8-2.9c0.2-1.1-0.1-2.1-0.7-2.9l35.1-34.8
		c0.7,0.6,1.4,1.2,2.3,1.5l-32.7,92C499,529.5,498.5,529.6,498.1,529.7 M531.4,423.9l-38.3-47.3c0.6-0.6,1.1-1.4,1.3-2.3
		c0.1-0.4,0-0.7,0-1l71-12.5c0.3,1.2,1,2.2,2.1,2.9l-29.5,60c-0.5-0.2-1-0.5-1.6-0.6C534.7,422.7,532.9,423.1,531.4,423.9
		 M530.3,424.6c-0.9,0.8-1.6,1.8-2.1,2.9l-36.9-12.1c0.3-2-0.9-3.9-2.9-4.3l2-33.2c0.6-0.1,1.2-0.2,1.8-0.5L530.3,424.6z
		 M502.2,531.1l3.4-0.2l-2.7,1.1C502.8,531.6,502.5,531.4,502.2,531.1 M188.1,535.1l-44.6,32.2c0.4,0.3,0.8,0.5,1.2,0.7l44.2-32
		c0.1,0.1,0.1,0.1,0.2,0.2c0.9,0.7,1.9,1,3,0.9l-0.2,54.9c0.4,0.2,0.9,0.4,1.3,0.6l0.2-55.3l19.3,45.7c-0.4,0.2-0.7,0.5-1,0.8
		c-1.3,1.6-1,3.8,0.5,5.1l-5.6,8.6c0.3,0.1,0.7,0.2,1,0.4l5.5-8.5c1.5,0.7,3.3,0.4,4.4-1c0.2-0.2,0.3-0.5,0.4-0.8l44.1,13.6
		c-0.1,0.3-0.1,0.7-0.1,1l-19.4,5.2c0.9,0.2,1.9,0.4,2.8,0.6l16.9-4.6c0.3,0.8,0.7,1.5,1.4,2.1c0.3,0.3,0.7,0.4,1.1,0.6l-1.7,5
		c0.4,0.1,0.9,0.2,1.3,0.2l1.6-4.9c1.5,0.2,3.1-0.3,4.1-1.6c1.6-2,1.3-4.9-0.7-6.5c-0.5-0.4-1-0.6-1.5-0.8l4.1-69.7
		c0.6-0.3,1.1-0.6,1.6-1.1l14.7,24.5c-0.2,0.2-0.4,0.3-0.6,0.5c-1.7,1.9-1.5,4.8,0.4,6.5c0.8,0.7,1.8,1.1,2.9,1.1l5.8,54.8
		c0.4,0,0.9,0,1.3,0l-5.8-55c0.7-0.2,1.3-0.5,1.9-1l29.8,30.2c-1.2,1.5-1,3.7,0.5,5c0.1,0.1,0.3,0.2,0.5,0.3l-9.7,20.5
		c0.4,0,0.8,0,1.2,0l9.4-20c1.3,0.4,2.9,0.1,3.9-1.1c0.7-0.8,1-1.8,0.9-2.8l48-11.8c0.2,0.9,0.6,1.7,1.2,2.5l-38.2,31.4
		c0.8-0.1,1.7-0.2,2.5-0.3l36.6-30.1c0,0,0.1,0.1,0.1,0.1c0.9,0.8,2,1.4,3.1,1.6l-5.6,22.1c0.5-0.1,1-0.2,1.4-0.3l5.5-21.5
		c0.8,0.1,1.6,0,2.3-0.2l5.4,18.3c0.3-0.1,0.7-0.2,1-0.3l-5.4-18.2c1.1-0.4,2.1-1.1,2.9-2c0.1-0.1,0.2-0.2,0.2-0.3l19.7,14.9
		c0.5-0.2,1-0.3,1.5-0.5l-20.4-15.5c1.2-2.2,1.2-4.7,0.1-6.9l56.2-36.3c0.1,0.1,0.1,0.1,0.1,0.2c0.8,0.8,1.9,1.1,2.9,1.1l-2.3,41.2
		c0.5-0.2,0.9-0.5,1.4-0.7l2.3-40.2l11.7,32.4c0.3-0.2,0.6-0.4,0.9-0.6L453.9,538c0.4-0.2,0.8-0.4,1.1-0.7l24,24.9
		c0.4-0.2,0.7-0.5,1.1-0.7l-24.3-25.2c0.3-0.6,0.5-1.2,0.5-1.9l38.8-2.7c-0.3,0.5-0.7,1-0.8,1.7c-0.5,2.5,1.2,4.9,3.7,5.4
		c1.4,0.3,2.8-0.2,3.8-1.1l5.2,3.3c0.3-0.3,0.7-0.6,1-0.9l-5.3-3.4c0.3-0.5,0.5-1,0.6-1.6c0.1-0.6,0.1-1.2,0-1.8l6.4-2.6l9.3-0.6
		c0.5-0.5,0.9-0.9,1.4-1.4l-6.8,0.5l10.6-4.3c0.8-0.8,1.6-1.6,2.4-2.4l-17.2,6.9l-8.8,0.6l32.7-92c0.1,0,0.1,0,0.2,0.1
		c1.2,0.2,2.4,0.1,3.5-0.2l16.1,53.5c0.3-0.4,0.7-0.9,1-1.3l-15.9-52.7c0.7-0.3,1.3-0.8,1.9-1.4l26.4,24.2c-0.3,0.4-0.5,0.9-0.6,1.4
		c-0.3,1.8,0.7,3.5,2.4,4.1l-1,4.8c0.6-0.9,1.1-1.8,1.6-2.7l0.4-1.9c0.3,0,0.6-0.1,0.9-0.1c0.9-1.5,1.9-3.1,2.8-4.6
		c0-0.1,0-0.2-0.1-0.2l0.3-0.2c0.3-0.6,0.6-1.2,1-1.8l-1.8,1c-0.5-0.7-1.3-1.2-2.2-1.4c-1.1-0.2-2.2,0.1-3,0.8L541,435.2
		c0.7-0.9,1.3-2,1.5-3.3c0-0.1,0-0.3,0-0.4l43.6,4.7c0.2-0.4,0.4-0.8,0.6-1.3l-44.2-4.7c-0.1-2.5-1.4-4.7-3.4-6l29.5-60.1
		c0.1,0,0.1,0.1,0.2,0.1c1.1,0.2,2.2,0,3.1-0.6l24.7,46.8c0.2-0.6,0.4-1.1,0.6-1.6l-24-45.6l30.5,24.8c0.1-0.4,0.2-0.8,0.3-1.1
		l-30.5-24.8c0.2-0.4,0.5-0.8,0.6-1.2l33.9,9.1c0.1-0.4,0.2-0.9,0.3-1.3l-34.1-9.2c0-0.7-0.2-1.3-0.5-1.9l40-27.9
		c0-0.6,0.1-1.1,0.1-1.7L573,356.6c-0.6-0.7-1.4-1.2-2.4-1.4c-1.4-0.3-2.8,0.2-3.8,1.1l-38.1-23.1h-2.5l39.7,24.1
		c-0.3,0.5-0.5,1-0.7,1.6c0,0.2,0,0.4,0,0.6L494.1,372c-0.5-1.4-1.5-2.4-3-2.9l6.8-36h-1.3l-6.7,35.8c-1.3,0-2.4,0.5-3.2,1.4
		l-50-37.2h-2.2l51.4,38.2c-0.2,0.4-0.4,0.8-0.5,1.2c-0.1,0.4-0.1,0.7,0,1l-25.8,5.3v1.3l26.1-5.3c0.3,0.8,0.8,1.5,1.5,2.1
		l-29.8,55.5c0.1,0,0.3,0,0.4,0c0.1,0,0.1,0,0.2,0c0.3,0,0.6,0,0.9,0l29.5-54.8c0.3,0.1,0.5,0.3,0.8,0.3c0.1,0,0.1,0,0.2,0l-2,33.2
		c-1.6,0.1-3,1.3-3.3,3c-0.2,1.1,0.1,2.1,0.7,2.9l-16.7,17.3c0.4,0.1,0.7,0.3,1,0.5l16.5-17c0.4,0.3,0.9,0.6,1.5,0.7
		c1.7,0.3,3.2-0.6,4-2l36.9,12.1c-0.1,0.2-0.2,0.4-0.2,0.6c-0.2,1-0.1,2,0.1,2.9l-46.4,15.3c0.2,0.4,0.3,0.8,0.4,1.2l46.4-15.3
		c0.3,0.7,0.7,1.4,1.1,2l-35.2,34.9c-0.4-0.3-0.9-0.6-1.5-0.7c-1.8-0.3-3.4,0.7-4.1,2.2l-4.2-1.1c0,0.4,0,0.7-0.1,1.1l4,1
		c-0.2,1.9,1,3.7,3,4.1c0.2,0,0.3,0,0.5,0l5.4,53.4c-0.1,0-0.1,0.1-0.2,0.1l-0.8,0.1l-11.9-15.8c-0.1,0.6-0.2,1.2-0.3,1.8l10.6,14.1
		l-38.1,2.6c-0.2-0.9-0.6-1.7-1.4-2.4c-1.1-1-2.5-1.2-3.8-1l-0.2-0.5c-0.4,0.1-0.9,0.2-1.3,0.3l0.3,0.5c-0.5,0.3-1,0.6-1.4,1
		c-0.1,0.2-0.2,0.3-0.3,0.5l-4.5-1.7c-1.7-0.1-3.3-0.4-4.8-0.8c-0.2,0.1-0.4,0.1-0.6,0.1l9.3,3.6c-0.4,1.2-0.3,2.5,0.3,3.6
		l-56.1,36.3c-0.3-0.4-0.6-0.9-1-1.3c-1.4-1.2-3.1-1.8-4.8-1.9l-5.7-40.3c-0.4,0.1-0.9,0.2-1.3,0.3l5.6,40.1
		c-1.2,0.2-2.3,0.7-3.3,1.4l-25.4-29.4c1.3-1.5,1.2-3.8-0.3-5.2l4.7-6.8c-0.4-0.1-0.8-0.2-1.1-0.2l-4.5,6.5
		c-1.5-0.7-3.3-0.5-4.4,0.8c-0.7,0.8-1,1.9-0.9,2.9l-54.2,14.5c0-0.1,0-0.3-0.1-0.4l43.8-26c-0.4-0.2-0.8-0.4-1.2-0.6
		c-0.8,0.5-1.8,1-2.7,1.4l-40.6,24.1c-0.2-0.2-0.3-0.4-0.5-0.6c-0.3-0.3-0.7-0.4-1-0.6l17.1-51.3v-4.1l-18.4,55
		c-0.9-0.1-1.7-0.1-2.5,0.3l-15.1-25.1c0,0,0-0.1,0-0.1c-1.9,1.1-3.8,1.9-6,2.5c0.7,0.3,1.5,0.4,2.3,0.3l-4.1,69.2
		c-0.8,0-1.6,0.2-2.3,0.6L196,534.7c0.3-0.6,0.4-1.3,0.4-1.9l28.8-3.5c-1.3-0.2-2.5-0.5-3.8-0.9l-25.1,3c-0.2-0.9-0.7-1.7-1.5-2.3
		c0,0,0,0,0,0c-0.9,0.2-1.8,0.2-2.8,0.2h-3.2c-0.2,0.1-0.3,0.3-0.5,0.5c-0.1,0.2-0.2,0.3-0.3,0.5l-3.2-1c-0.7,0-1.3-0.1-2-0.2
		c-0.7,0.1-1.4,0.2-2.1,0.3l6.8,2.2C187.3,532.8,187.5,534.1,188.1,535.1 M243.4,527.1l3-0.4c-0.4-0.2-0.8-0.3-1.2-0.5
		C244.6,526.5,244.1,526.8,243.4,527.1 M214.2,467.9c0.2,0,0.4,0.1,0.6,0.2l23.6-17.7c0.6,0.6,1.3,1.1,2.2,1.3
		c2.5,0.5,4.9-1,5.5-3.5c0.4-1.8-0.3-3.5-1.7-4.6l6.3-11.1l4.5,35.2c0.4-0.1,0.9-0.1,1.3-0.1l-4.7-36.9c0.9-0.1,1.8-0.5,2.5-1.1
		l57.2,50.8c-0.7,1.1-0.9,2.3-0.7,3.5l-25.6,10c0.2,0.4,0.3,0.8,0.5,1.2l25.3-9.9c0.7-2.2,1.7-4.2,3.2-6c-0.1-0.2-0.2-0.4-0.3-0.7
		c-0.5,0.2-1.1,0.4-1.5,0.8l-57.1-50.8c0.7-1,0.9-2.2,0.7-3.3l79.2-8.8v-1.3l-78.7,8.8c-1.9,2.1-4.3,3.7-7.1,4.6l-1.4,0.5
		c0.2,0.2,0.3,0.4,0.5,0.6c0.6,0.5,1.2,0.8,1.9,0.9l-7.1,12.4c-0.2-0.1-0.4-0.2-0.7-0.3c-1.5-0.3-2.9,0.2-4,1.2l-10.3-8.4l-1.5,0.5
		l10.9,8.9c-0.3,0.4-0.5,0.9-0.6,1.4c-0.2,1.1,0,2.2,0.5,3.1l-21.9,16.4C215.2,466.5,214.7,467.2,214.2,467.9 M274.1,392.4
		c-0.5-0.5-1.1-0.9-1.8-1.2l11.7-40.8c1.9,0.2,3.7-1,4.1-2.9c0-0.2,0-0.3,0-0.5l53.5-4c0.1,0.3,0.2,0.6,0.4,0.8L274.1,392.4z
		 M274.9,393.4l68-48.6c0.5,0.4,1.1,0.7,1.8,0.9c2.5,0.5,4.9-1,5.5-3.5c0.3-1.4-0.1-2.8-1-3.8l3.6-5.2h-1.6l-2.9,4.3
		c-0.5-0.3-1-0.6-1.6-0.7c-0.6-0.1-1.2-0.1-1.8,0l-1.3-3.6h-1.4l1.5,4.1c-0.9,0.5-1.6,1.2-2,2.2l-16.2-6.2h-3.6l19.4,7.5
		c-0.1,0.5,0,0.9,0.1,1.4l-53.2,3.9c-0.3-1.4-1.4-2.5-2.8-2.8c-1.1-0.2-2.1,0-2.9,0.6l-10-10.6h-1.5l10.7,11.3
		c-0.3,0.4-0.6,0.9-0.8,1.5c-0.4,1.7,0.6,3.4,2.1,4.1L271.3,391c-0.4,0-0.7-0.1-1.1,0l-0.6-1.9v10.8c0.1,0.1,0.2,0.1,0.3,0.1
		c2.5,0.5,4.9-1,5.5-3.5C275.6,395.4,275.3,394.3,274.9,393.4 M336.1,422.9l-3.9,10.9c0.5-0.2,1-0.3,1.5-0.4l3.2-8.8
		C336.6,424.1,336.3,423.5,336.1,422.9 M69,420.2l-44.6,7.4c0.2,0.4,0.3,0.8,0.5,1.2l44.3-7.3c0.3,0.8,0.7,1.6,1.4,2.2
		c0.3,0.2,0.6,0.4,0.9,0.6l-17.4,57.5c0.3,0.5,0.6,1,0.9,1.4l17.7-58.6c0.7,0.1,1.3,0,2-0.2l37.6,79.2c-0.4,0.2-0.7,0.5-1,0.9
		c-0.2,0.3-0.4,0.6-0.5,0.9l-50.4-14.9c0.4,0.6,0.9,1.2,1.3,1.7l48.8,14.4c-0.1,0.8,0,1.7,0.3,2.5l-21.8,14.5
		c0.3,0.3,0.6,0.6,0.9,0.9l21.6-14.4c0.2,0.2,0.3,0.5,0.6,0.7c0.1,0,0.1,0.1,0.2,0.1l-13.5,22.1c0.3,0.2,0.5,0.5,0.8,0.7l13.6-22.3
		c0.6,0.2,1.2,0.4,1.8,0.3l8,41.4c0.5,0.4,1,0.8,1.6,1.2l-8.3-42.8c0.8-0.3,1.6-0.7,2.2-1.4c0.2-0.3,0.3-0.6,0.5-0.9l10.6,3.4
		c0-0.3,0-0.6,0-1v-0.4l-10.1-3.3c0.2-1.4-0.2-2.9-1.3-3.9l11.4-14.2v-2.1l-12.5,15.6c-1.1-0.6-2.4-0.7-3.5-0.3l-37.6-79.2
		c0.4-0.3,0.8-0.5,1.1-0.9c0,0,0-0.1,0.1-0.1l69.5,37.7c-0.6,1.6-0.2,3.4,1,4.6l-1.8,2.2c0.3,0,0.5,0,0.8,0c0.3,0,0.6,0,0.9,0.1
		l1.1-1.4c1.2,0.7,2.7,0.8,4,0.3l0.7,1.2h1.5l-1.1-1.9c0.3-0.2,0.5-0.4,0.7-0.6c0.2-0.2,0.3-0.5,0.4-0.8l2.4,3.3h1.6l-3.5-4.8
		c0.2-1.5-0.3-3.1-1.6-4.1c-0.6-0.5-1.3-0.7-2-0.9l-23.4-32.3c0.6-0.6,1.1-1.3,1.3-2.3c0.1-0.4,0.1-0.7,0.1-1.1l26.6-4.5v-1.1h-1.1
		l-25.7,4.4c-0.2-0.6-0.6-1.2-1-1.7l18.4-23.4v-2.1l-19.4,24.7c-0.4-0.2-0.8-0.5-1.3-0.6c-0.1,0-0.1,0-0.2,0l2.7-79
		c1.7-0.2,3.1-1.3,3.7-2.9l39.3,8.4l2.5-0.8l-41.4-8.9c0-0.5,0-0.9-0.1-1.3h-8.9c0,0,0,0,0,0c-0.5,2.5,1,4.9,3.5,5.5
		c0.1,0,0.1,0,0.2,0l-2.7,79c-1.9,0.2-3.6,1.6-4,3.5c-0.5,2.5,1,4.9,3.5,5.5c1.1,0.2,2.1,0,3.1-0.5l22.8,31.5
		c-1.1,0.2-2.1,0.7-2.8,1.6c0,0,0,0.1-0.1,0.1l-69.5-37.7c0.7-1.8,0.2-3.9-1.4-5.1c-2-1.6-4.9-1.3-6.5,0.7
		C69.3,418.2,69,419.2,69,420.2 M19.3,364L2.2,344.4c0.1,0.8,0.2,1.6,0.3,2.4l15.8,18.1c-0.9,0.9-1.3,2.1-1.3,3.3l-10.8,0.9
		c0.1,0.4,0.2,0.9,0.2,1.3l10.7-0.9c0.1,0.2,0.1,0.4,0.2,0.6c0.3,0.5,0.6,1,1,1.4L9,381.2c0.1,0.5,0.2,1,0.4,1.5l10.2-10.6
		c1.2,0.6,2.6,0.7,3.9,0.1c0.9-0.4,1.5-1.1,2-1.9L91.1,394c0,0.7,0.1,1.4,0.4,2c1.1,2.3,3.8,3.2,6.1,2.1c2.3-1.1,3.2-3.8,2.1-6.1
		c-0.3-0.7-0.8-1.2-1.4-1.6l9.7-57.2h-1.3l-9.6,56.5c-1.1-0.4-2.4-0.4-3.5,0.2c-1.2,0.6-2,1.6-2.4,2.8L25.9,369c0.1-0.6,0.2-1.3,0-2
		l58.5-33.8h-2.6l-56.3,32.6c-0.2-0.4-0.5-0.7-0.9-1l22.9-31.6h-0.3l0-1.3l-23.1,31.9l15.6-68.8V289l-16.9,74.6
		c-1-0.3-2.1-0.2-3.1,0.3C19.4,363.9,19.4,364,19.3,364 M9.5,231l4.1,0.5c-0.1,0.8,0,1.6,0.4,2.3c1.1,2.3,3.8,3.2,6,2.2l18.8,40.8
		c-0.2,0.1-0.4,0.3-0.5,0.4L5.1,250.7c-0.1,0.5-0.2,1-0.2,1.5l32.6,26.1c-0.2,0.3-0.3,0.6-0.4,0.9l-34.8-8.9c0,0.4-0.1,0.7-0.1,1.1
		l34.7,8.9c-0.1,0.7,0,1.5,0.2,2.2L0,296.7c0,0.5,0,0.9,0,1.4l37.6-14.5c0.5,0.7,1.2,1.1,1.9,1.4v-8.9l-18.7-40.5
		c1.4-1.1,2.1-2.9,1.8-4.6c-1-1.2-1.9-2.5-2.7-3.7l-0.2,0.4c-1.1-0.4-2.5-0.4-3.6,0.1c-1.2,0.6-2,1.6-2.4,2.8l-4-0.5
		C9.7,230.4,9.6,230.7,9.5,231 M72.6,130.8c0-0.8-0.1-1.7-0.5-2.5c-1.4-2.9-4.9-4.2-7.9-2.8c-2.5,1.2-3.7,3.9-3.2,6.4
		C64.8,131.3,68.6,130.9,72.6,130.8 M464.1,59.5l4.5,55.9c-1.3,0.2-2.6,0.8-3.5,1.9l-74.3-61c0,0,0,0,0.1-0.1c0.4-0.6,0.6-1.3,0.7-2
		l67.9,0.9c0.1,1.4,0.7,2.8,2,3.6C462.2,59.4,463.2,59.6,464.1,59.5 M464.3,118.3c-0.2,0.4-0.3,0.8-0.4,1.1l-56-12.7
		c0.6-1.6,0.1-3.5-1.4-4.4c-1.1-0.7-2.3-0.7-3.4-0.3l-14.2-44.3c0.3-0.2,0.7-0.3,1-0.5L464.3,118.3z M402.1,102.6
		c-0.3,0.2-0.6,0.5-0.8,0.8c-0.9,1.5-0.7,3.3,0.4,4.5L377.8,133c-0.1-0.1-0.1-0.2-0.2-0.2c-0.8-0.5-1.6-0.7-2.5-0.6l11.2-73.9
		c0.5,0.1,1,0,1.5-0.1L402.1,102.6z M367.9,29.9l-31,32.2c-1.4-1-3.2-1.1-4.7-0.3l-28.6-39.6c0.9-0.9,1.3-2.1,1.2-3.3l48.6-8.5
		L367.9,29.9z M331,62.5c-1,1-1.5,2.4-1.3,3.8l-70.1,19.1c-0.1-0.6-0.4-1.1-0.7-1.6c-0.1-0.2-0.3-0.3-0.4-0.4l39.8-60.2
		c1.3,0.6,2.8,0.6,4.1-0.2L331,62.5z M297.2,22.4l-39.8,60.1c-1.1-0.6-2.3-0.8-3.6-0.4l-23.2-62.7c0.5-0.2,1-0.4,1.5-0.7
		c1.5-1.1,2.4-2.6,2.9-4.3l60.7,4.8c0,0.9,0.2,1.7,0.8,2.5C296.7,22,297,22.2,297.2,22.4 M229.4,19.9l23.3,62.7
		c-0.1,0-0.2,0.1-0.2,0.1c-0.9,0.7-1.5,1.6-1.7,2.6l-77.3-21.8c0.3-1,0.3-2.2-0.1-3.3l49.4-42.1C224.6,19.9,227.1,20.4,229.4,19.9
		 M172.9,64.8l77.4,21.8l-49.2,6.4c-0.1-0.4-0.3-0.8-0.5-1.2c-1.2-1.6-3.4-2-5.1-0.9l-22.9-25.7C172.6,65,172.8,64.9,172.9,64.8
		 M468.4,55l12.7-1c-0.6-0.4-1.2-0.8-1.7-1.2l-11.2,0.9c-0.2-0.8-0.7-1.5-1.3-2l2.9-5.1c-0.4-0.2-0.7-0.5-1.1-0.7l-2.9,5.1
		c-0.6-0.3-1.3-0.4-1.9-0.4l-1.1-8.3c-0.4-0.2-0.8-0.5-1.2-0.7l1.2,9.2c-0.1,0-0.2,0-0.3,0l-10-14.2c-0.9-0.5-1.7-1-2.6-1.4
		l11.4,16.2c-0.5,0.3-0.9,0.7-1.2,1.2c-0.3,0.4-0.4,0.9-0.5,1.4l-68-0.9c-0.2-1.2-0.9-2.3-2-3.1c-0.3-0.2-0.7-0.3-1-0.4l12.2-34.9
		c-0.4-0.1-0.8-0.3-1.2-0.4l-12.2,35.1c-0.9,0-1.9,0.2-2.7,0.7l-14.9-20l18.5-19.2c-0.5-0.1-1-0.3-1.5-0.4l-17.8,18.5l-14-18.8
		L372.5,7c-1.1-0.2-2.3-0.5-3.4-0.7l-15.3,2.7l-4.6-6.2c-0.6-0.1-1.2-0.1-1.8-0.2l4.9,6.6l-47.9,8.3c-0.1-0.4-0.3-0.8-0.6-1.2
		c-0.2-0.3-0.5-0.5-0.7-0.7L312.9,0c-0.5,0-1,0-1.5,0l-9.3,14.9c-0.8-0.3-1.6-0.5-2.5-0.4l-4.7-14.3c-0.5,0-0.9,0-1.4,0l4.8,14.6
		c-0.3,0.1-0.6,0.2-0.8,0.4c-0.1,0-0.1,0.1-0.2,0.2L283.7,0.9c-0.5,0-0.9,0.1-1.4,0.1l14.3,15.2c-0.4,0.5-0.7,1.1-0.8,1.7l-60.6-4.8
		c0.1-1.2-0.1-2.4-0.6-3.6l2.8-1.5c-3.3,0.8-6.5,1.5-9.8,2.4c-4,1.1-8,2.3-12,3.5l4.5-0.3c0.2,1.2,0.6,2.3,1.3,3.3
		c0.1,0.1,0.2,0.2,0.3,0.3l-49.2,41.9c-0.5-0.6-1.2-1-1.9-1.3l7.4-29.5c-0.4,0.2-0.8,0.4-1.2,0.6l-7.2,28.8c-0.3,0-0.6-0.2-0.9-0.1
		L164.7,35c-0.4,0.2-0.8,0.4-1.2,0.6l4,22.2c-0.2,0.1-0.4,0.2-0.6,0.3L154,40.9c-0.3,0.2-0.6,0.4-0.9,0.6l13,17.4
		c-0.3,0.3-0.6,0.6-0.9,1l-20.9-13.2c-0.4,0.3-0.8,0.5-1.3,0.8l21.7,13.7c-0.2,1-0.1,2,0.4,2.9l-64,26.1c-0.1-0.3-0.3-0.7-0.5-1
		c-0.8-1.1-1.9-1.7-3.2-1.8l-0.3-4.4c-0.4,0.4-0.8,0.7-1.2,1.1l0.2,3.3c-0.7,0.1-1.3,0.3-1.9,0.8c0,0,0,0-0.1,0.1L93,86.9
		c-0.3,0.3-0.6,0.6-0.9,0.9l1.2,1.3c-0.2,0.3-0.3,0.7-0.5,1l-2.4-0.6c-0.3,0.3-0.6,0.6-0.9,0.9l2.9,0.8c-0.1,0.5-0.1,1,0,1.5
		l-6.6,1.4c-0.5,0.5-1,1.1-1.6,1.7l8.6-1.8c0.1,0.2,0.1,0.4,0.3,0.5c1.5,2.1,4.4,2.5,6.4,1c0.2-0.1,0.3-0.3,0.4-0.4l55.7,37.2h2.4
		l-57.2-38.2c0.5-0.8,0.7-1.8,0.6-2.7l64.4-26.3c0.7,0.8,1.6,1.3,2.6,1.5l-0.4,65.8h1.3l0.4-65.7c0.7-0.1,1.4-0.3,2.1-0.7l22.9,25.7
		c-1.1,1.3-1.2,3.1-0.2,4.5c0.2,0.2,0.4,0.4,0.6,0.6l-22.8,35.6h1.3l22.4-35c1.2,0.5,2.6,0.5,3.7-0.3c1-0.7,1.5-1.8,1.5-3l49.7-6.5
		c0.1,0.4,0.2,0.9,0.5,1.3l-71.1,43.5h2.5l69.5-42.5c0.5,0.5,1.1,0.7,1.7,0.9l-6.3,41.6h1.3l6.2-41.4c0.9,0,1.8-0.2,2.6-0.8
		c1.2-0.8,1.8-2.1,1.8-3.5l70.4-19.1c0.1,0.3,0.2,0.6,0.4,0.9c1.5,2.1,4.4,2.5,6.4,1c2.1-1.5,2.5-4.4,1-6.4c0,0-0.1-0.1-0.1-0.1
		l30.9-32l14.9,19.9c-0.1,0.2-0.3,0.2-0.4,0.4c-1.4,2.1-0.8,5,1.4,6.3c0.2,0.1,0.4,0.2,0.6,0.2l-11.3,74.5c-0.8,0.3-1.6,0.7-2.1,1.4
		l-30.3-42.3c0.3-0.5,0.5-1,0.7-1.5c0.5-2.5-1-4.9-3.5-5.5c-2.5-0.5-4.9,1-5.5,3.5c-0.2,1.1,0,2.2,0.5,3.1l-30.4,41.2h1.6l29.6-40.2
		c0.6,0.6,1.3,1.1,2.2,1.3c0.1,0,0.2,0,0.3,0l-0.8,34.6c-1.6,0.1-3.1,1.2-3.5,2.9c-0.1,0.4-0.1,0.8,0,1.2l-0.4,0.2h7.9l-0.2-0.1
		c0.2-1.8-0.9-3.6-2.8-4l0.8-34.7c0.9-0.1,1.8-0.5,2.5-1.1l30.5,42.6c-0.8,2-0.1,4.3,1.7,5.5c0.8,0.5,1.8,0.7,2.7,0.6l3.3,4.6v-1.2
		c0-0.3,0-0.6,0-1l-2-2.7c0.9-0.3,1.7-0.9,2.3-1.7c0.3-0.5,0.5-1,0.6-1.6l1.4-0.2c0.4-0.6,0.8-1.1,1.3-1.6l-2.7,0.4
		c-0.1-0.9-0.5-1.7-1.1-2.4l24-25.2c1.6,1,3.6,0.6,4.8-0.9l56.3,12.7c-0.1,0.6-0.1,1.3,0,1.9l-60.1,9.9h8.1l52.6-8.7
		c0.5,1,1.1,1.9,2.1,2.6c2.7,1.8,6.4,1,8.2-1.8c1.8-2.7,1-6.4-1.8-8.2c-0.8-0.5-1.7-0.7-2.6-0.8l-4.5-56.2c0.9-0.3,1.7-0.9,2.3-1.7
		C468.2,56.7,468.4,55.8,468.4,55 M534,100.7l1.7,1.1c-2.9-3.2-5.8-6.3-8.8-9.3c-0.1,0-0.2,0.1-0.3,0.1l-1.3-1.8
		c-2.1-2.2-4.3-4.3-6.5-6.4l6.9,9.2c-0.4,0.5-0.7,1.1-0.8,1.8c-0.5,2.5,1.2,4.9,3.7,5.4c1.4,0.3,2.8-0.2,3.8-1.1l0.5,0.3l-34.7,32.9
		c0.5,0.1,0.9,0.3,1.4,0.5L534,100.7z M539.6,131.4l5.2-19.1c-0.3-0.3-0.6-0.7-0.8-1l-5.5,20.3C538.8,131.5,539.2,131.5,539.6,131.4
		 M597.1,269.6l16.7,16.3c0-0.7-0.1-1.3-0.2-2L598,268.7c0.4-0.5,0.7-1.1,0.8-1.8l12.8-1.2c-0.1-0.4-0.1-0.9-0.2-1.3l-12.5,1.2
		c0-0.5-0.2-0.9-0.4-1.3l11.9-6.8c-0.1-0.4-0.1-0.7-0.2-1.1l-11.8,6.7l10.5-13.8c-0.1-0.6-0.2-1.2-0.3-1.7l-11.3,14.9
		c-0.8-0.7-1.8-1.1-2.9-1.1c-0.1,0-0.2,0-0.2,0.1l-5.5-18.4c-0.1,0.1-0.1,0.1-0.2,0.2c-0.3,0.2-0.6,0.4-0.9,0.7l5.4,17.9
		c-1.2,0.4-2.1,1.4-2.6,2.5l-15-5.3v1.4l14.7,5.2c0,0.2-0.1,0.4-0.1,0.6c0,0.6,0.2,1.2,0.4,1.7l-16.9,6.7c0.2,0.4,0.4,0.8,0.5,1.2
		l17.1-6.8c0.9,1,2.1,1.7,3.6,1.7C595.5,270.6,596.4,270.2,597.1,269.6"/>
	<path class="st0" d="M563,312.2v-8.5h-28v-15.2h27.4V280H535v-14.2h28v-8.5h-37.6v54.9H563z M486.9,313.2
		c11.5,0,18.3-5.8,22.5-12.3l-8.2-4.2c-2.6,4.6-7.9,8-14.2,8c-10.5,0-18.5-8.3-18.5-19.8c0-11.5,8.1-19.8,18.5-19.8
		c6.3,0,11.6,3.5,14.2,8l8.2-4.2c-4.1-6.6-10.9-12.3-22.5-12.3c-15.8,0-28.4,11.5-28.4,28.4C458.5,301.6,471.1,313.2,486.9,313.2
		 M441.1,312.2v-54.9h-9.6v38.9l-28.1-38.9h-9.9v54.9h9.6v-40l28.6,40H441.1z M361.9,293.2h-20.6l10.3-27.7L361.9,293.2z
		 M379.2,312.2l-21.6-54.9h-12l-21.6,54.9h10.5l4-10.5h26l4,10.5H379.2z M309.9,312.2v-54.9h-9.6v38.9l-28.1-38.9h-9.9v54.9h9.6v-40
		l28.6,40H309.9z M242.4,257.3h-9.6v54.9h9.6V257.3z M187.9,312.2v-23.7h27.4V280h-27.4v-14.2h28v-8.5h-37.6v54.9H187.9z M129,312.2
		v-54.9h-9.6v38.9l-28.1-38.9h-9.9v54.9H91v-40l28.7,40H129z M61.4,257.3h-9.6v54.9h9.6V257.3z"/>
	<path class="st0" d="M505.7,227.1c10.2,9.2,24.2,15.3,44.7,15.3c25.8,0,41.5-12.2,41.5-33.4c0-22.2-23.5-26.8-39.3-29.5
		c-10.2-1.7-14.1-3-14.1-6.8c0-2.4,1.6-5,8.8-5c7.6,0,18.4,3.2,26.8,9.5l15.6-20.6c-10.9-8.9-25.1-13.4-40.8-13.4
		c-26.4,0-39.9,14.8-39.9,31.1c0,24.1,24.2,27.8,40.1,30.7c9.5,1.7,13.5,3.6,13.5,7.3s-5.2,5.6-10.7,5.6c-13,0-23.8-5.5-31-12.4
		L505.7,227.1z M430.6,234.6c7.5,5.8,17.4,7.8,26.8,7.8c22.3,0,37.2-11.4,37.2-36v-61.8h-29.1V206c0,6.8-4.3,10.8-10.7,10.8
		c-4.9,0-9.2-2.2-12.4-4.3L430.6,234.6z M419.9,240.7v-96.1h-29.1V193l-33.4-48.4h-30v96.1h29.1v-51.6l35.4,51.6H419.9z
		 M311.6,240.7v-24.2h-43.8v-12.2h42.8V180h-42.8v-11.2h43.8v-24.2h-72.9v96.1H311.6z M196.8,177.3c0,5-3.9,8.4-8.8,8.4h-18.4v-16.9
		H188C192.9,168.8,196.8,172.1,196.8,177.3 M169.6,240.7v-30.8h22.2c22.5,0,34.6-14.4,34.6-32.3c0-18-12.1-33-34.6-33h-51.3v96.1
		H169.6z M97.7,192.7c0,13.4-9.1,24.1-23.1,24.1s-23.1-10.7-23.1-24.1s9.1-24.1,23.1-24.1S97.7,179.3,97.7,192.7 M22,192.7
		c0,29.5,22.9,49.7,52.6,49.7c29.7,0,52.6-20.2,52.6-49.7S104.3,143,74.6,143C44.9,143,22,163.2,22,192.7"/>
	<path class="st0" d="M172.2,407v50.3h27.3v-30.7l42.9-14.2v-27.8L172.2,407z M242.5,338.6V367l-70.3,22.5v-27.8L242.5,338.6z"/>
	<path class="st0" d="M246.8,508l3.4-4.4c2.3,2,5.2,3.2,8.3,3.4c2.5,0,3.9-1,3.9-2.4c0-1.5-1-2.5-5.3-3.4c-5.4-1.4-9.3-2.9-9.3-8.3
		c0-4.9,3.9-8.3,9.8-8.3c3.7-0.1,7.4,1.1,10.3,3.4l-2.9,4.4c-2-1.8-4.6-2.8-7.3-2.9c-2.4,0-3.4,1-3.4,2.4c0,2,1,2.5,5.9,3.4
		c5.3,1.5,8.8,3.4,8.8,8.3c0,5.3-4.4,8.8-10.3,8.8C254.2,512.3,250.1,510.8,246.8,508z M237.6,498.7c0.2-4.6-3.3-8.6-7.9-8.8l-0.4,0
		h-0.5c-4.6,0-8.3,3.8-8.3,8.4l0,0.4c0.1,4.6,3.7,8.4,8.3,8.8h0.5C233.9,507.2,237.5,503.4,237.6,498.7 M214.7,498.7
		c0.4-8.1,7.2-14.3,15.3-14c7.6,0.4,13.6,6.4,14,14c-0.4,8.1-7.2,14.3-15.3,14C221.1,512.3,215,506.3,214.7,498.7 M184.9,484.6h5.3
		l13.2,17.1v-17.1h5.8v27.8h-5.4l-13.1-17.6v17.6h-5.8V484.6z M172.2,484.6h5.8v27.8h-5.8V484.6z M145.4,484.6h21v5.3h-15.1v5.9
		h13.2v5.2h-13.2v10.8h-5.9v-27.3V484.6z"/>
	<polygon class="st1" points="215.2,375.9 178.3,387.5 172.2,389.4 172.2,389.4 171.7,389.5 199.1,398.3 213.1,393.9 242.2,384.6 	
		"/>
	<path class="st0" d="M438.8,409.7l-10.9-18.9l10.9-18.9V409.7z M421,402.8l5.1-8.9l10.2,17.7L421,402.8z M414.3,414.3l5.1-8.9
		l15.3,8.9H414.3z M401.7,436.3l10.9-18.9h21.8L401.7,436.3z M398.7,417.4H409l-10.2,17.7V417.4z M398.7,393.5l18,10.4l-6,10.4h-12
		V393.5z M398.7,367.3h12l6,10.4l-18,10.4V367.3z M398.7,346.5l10.2,17.7h-10.2V346.5z M434.4,364.2h-21.8l-10.9-18.9L434.4,364.2z
		 M419.5,376.2l-5.1-8.9h20.4L419.5,376.2z M424.3,390.8l-6,10.4l-18-10.4l18-10.4L424.3,390.8z M421,378.9l15.3-8.9l-10.2,17.7
		L421,378.9z M395.7,364.2h-10.2l10.2-17.7V364.2z M395.7,388.1l-18-10.4l6-10.4h12V388.1z M395.7,414.3h-12l-6-10.4l18-10.4
		L395.7,414.3L395.7,414.3z M395.7,435.2l-10.2-17.7h10.2V435.2z M360,417.4h21.8l10.9,18.9L360,417.4z M374.9,405.5l5.1,8.9h-20.4
		L374.9,405.5z M368.2,393.9l5.1,8.9l-15.3,8.9L368.2,393.9z M355.6,371.9l10.9,18.9l-10.9,18.9V371.9z M373.4,378.9l-5.1,8.9
		L358,370L373.4,378.9z M376,380.4l18,10.4l-18,10.4l-6-10.4L376,380.4z M380,367.3l-5.1,8.9l-15.3-8.9H380z M392.7,345.3
		l-10.9,18.9H360L392.7,345.3z M442.1,364.6l-44.6-25.8l-0.3-0.2l-0.3,0.2l-44.3,25.6l-0.2,0.1l-0.3,0.2v52.2l0.3,0.2l44.6,25.8
		l0.3,0.2l0.3-0.2l44-25.4l0.6-0.3l0.3-0.2v-52.2L442.1,364.6z"/>
	<polygon class="st0" points="327.3,490.1 340.2,490.1 340.2,491.3 328.6,491.3 328.6,501.1 339.1,501.1 339.1,502.3 328.6,502.3 
		328.6,512.4 327.3,512.4 	"/>
	<path class="st0" d="M355.1,505.7c0-3.3-2.3-5.8-5.6-5.8c-3.3,0-5.7,2.5-5.7,5.8s2.3,5.8,5.7,5.8
		C352.8,511.5,355.1,509,355.1,505.7 M342.5,505.7c0-3.8,3.1-7,7-7c3.9,0,6.9,3.1,6.9,7s-3,7-6.9,7
		C345.6,512.7,342.5,509.5,342.5,505.7"/>
	<path class="st0" d="M359.9,507.5V499h1.3v8.2c0,2.7,1.3,4.3,3.8,4.3c2.9,0,4.9-1.9,4.9-5V499h1.3v13.4H370l0-3
		c-0.9,2-2.7,3.2-5.1,3.2C361.9,512.7,359.9,510.8,359.9,507.5"/>
	<path class="st0" d="M374.7,499h1.3l0,3c0.9-2,2.8-3.3,5.1-3.3c3,0,5,2,5,5.3v8.4h-1.3v-8.1c0-2.8-1.3-4.4-3.9-4.4
		c-2.9,0-4.9,1.9-4.9,5v7.5h-1.3V499z"/>
	<path class="st0" d="M402,505.7c0-3.3-2.2-5.8-5.6-5.8c-3.3,0-5.4,2.5-5.4,5.8s2.1,5.8,5.4,5.8C399.7,511.5,402,509,402,505.7
		 M389.6,505.7c0-3.9,2.8-7,6.6-7c2.7,0,4.7,1.5,5.7,3.5v-13.5h1.3v23.7h-1.3l0.1-3.3c-1,2.1-3.2,3.6-5.7,3.6
		C392.4,512.7,389.6,509.6,389.6,505.7"/>
	<path class="st0" d="M411.6,505.7c-2,0-3.8,0.8-3.8,2.8c0,2,1.3,3,3.9,3c2.2,0,4.4-1.3,4.4-3.4v-2.4H411.6z M416.2,504
		c0-3-1.4-4.2-3.6-4.2c-2,0-3.4,0.8-4.4,2.3l-0.9-0.6c1.1-1.7,3-2.8,5.3-2.8c2.8,0,4.8,1.7,4.8,5.2v8.5h-1.3l0.1-2.1
		c-0.9,1.3-2.3,2.3-4.6,2.3c-3.1,0-5.1-1.4-5.1-4.1c0-2.7,2.3-3.9,4.9-3.9h4.7V504z"/>
	<path class="st0" d="M423.2,508.9v-8.8h-2.1V499h2.1v-4.7h1.3v4.7h3.9v1.1h-3.9v8.7c0,2,0.7,2.7,1.8,2.7c1.2,0,1.6-0.5,2.1-1
		l0.8,0.8c-0.6,0.7-1.4,1.3-3,1.3C424.6,512.7,423.2,511.6,423.2,508.9"/>
	<path class="st0" d="M433.2,499h1.3v13.4h-1.3V499z M432.7,493.2c0-0.6,0.5-1.1,1.1-1.1c0.6,0,1.1,0.5,1.1,1.1
		c0,0.6-0.5,1.1-1.1,1.1C433.2,494.3,432.7,493.9,432.7,493.2"/>
	<path class="st0" d="M450.9,505.7c0-3.3-2.3-5.8-5.6-5.8c-3.3,0-5.7,2.5-5.7,5.8s2.3,5.8,5.7,5.8
		C448.6,511.5,450.9,509,450.9,505.7 M438.3,505.7c0-3.8,3.1-7,7-7c3.9,0,6.9,3.1,6.9,7s-3,7-6.9,7
		C441.4,512.7,438.3,509.5,438.3,505.7"/>
	<path class="st0" d="M455.9,499h1.3l0,3c0.9-2,2.8-3.3,5.1-3.3c3,0,5,2,5,5.3v8.4h-1.3v-8.1c0-2.8-1.3-4.4-3.9-4.4
		c-2.9,0-4.9,1.9-4.9,5v7.5h-1.3V499z"/>
	<path class="st0" d="M351.7,463.9c0-6-4.1-10.5-10-10.5c-5.9,0-10,4.5-10,10.5c0,6,4.2,10.5,10,10.5
		C347.6,474.4,351.7,469.9,351.7,463.9 M327.3,463.9c0-8.4,6.4-14.4,14.5-14.4c8,0,14.5,6,14.5,14.4c0,8.4-6.5,14.4-14.5,14.4
		C333.7,478.3,327.3,472.3,327.3,463.9"/>
	<path class="st0" d="M374.7,469.2c0-3.1-1.9-5.3-4.9-5.3c-3.1,0-5,2.1-5,5.3c0,3.3,2,5.4,5,5.4
		C372.9,474.6,374.7,472.5,374.7,469.2 M360.7,460.6h4.2l-0.1,3.2c1.1-2.1,3.2-3.6,6.2-3.6c4.5,0,8.1,3.8,8.1,9
		c0,5.2-3.6,9.1-8.1,9.1c-2.9,0-5-1.4-5.9-3.3v11.7h-4.2V460.6z"/>
	<path class="st0" d="M397.6,467.8c-0.4-2.3-1.8-4.1-4.7-4.1c-2.7,0-4.6,1.5-5,4.1H397.6z M393.3,474.8c2.3,0,3.9-0.9,4.9-1.9
		l2.4,2.6c-1.6,1.6-3.8,2.8-7.3,2.8c-5.9,0-9.8-3.8-9.8-9c0-5.2,4-9,9.2-9c5.9,0,9.2,4.4,9,10.5h-14
		C388.3,473.2,390.2,474.8,393.3,474.8"/>
	<path class="st0" d="M406.4,460.6h4.2l-0.1,3.2c1.1-2.3,3.3-3.6,5.9-3.6c3.8,0,6.5,2.7,6.5,7.4v10.3h-4.2V468
		c0-2.5-1.2-3.9-3.6-3.9c-2.7,0-4.5,1.7-4.5,4.5v9.4h-4.2V460.6z"/>
	<path class="st0" d="M427.4,473.6l3.6-2.2c1,1.8,2.1,3,4.2,3c2.3,0,3.9-1.1,3.9-4.4v-20.2h4.4v20.2c0,5.6-3.3,8.2-8.1,8.2
		C431.2,478.3,428.8,476.1,427.4,473.6"/>
	<path class="st0" d="M448,472.5l3.6-2c1.3,2.2,3,3.9,6.4,3.9c2.9,0,4.9-1.5,4.9-3.8c0-2.4-1.7-3.5-4.7-4.9l-1.9-0.8
		c-4.1-1.8-6.6-3.9-6.6-8.2c0-4.2,3.2-7.1,7.9-7.1c3.7,0,6.3,1.4,7.9,4.4l-3.4,2.1c-1.1-1.9-2.3-2.7-4.5-2.7c-2.2,0-3.6,1.4-3.6,3.3
		c0,2.1,1.2,3.1,4,4.3l1.8,0.8c4.8,2.1,7.3,4.3,7.3,8.8c0,4.9-3.8,7.8-9.1,7.8C452.7,478.3,449.5,475.7,448,472.5"/>
</g>
</svg>
