<?xml version="1.0" encoding="utf-8"?>
<!-- Generator: Adobe Illustrator 25.0.0, SVG Export Plug-In . SVG Version: 6.00 Build 0)  -->
<svg version="1.1" id="Layer_1" xmlns="http://www.w3.org/2000/svg" xmlns:xlink="http://www.w3.org/1999/xlink" x="0px" y="0px"
	 viewBox="0 0 720 141.9" style="enable-background:new 0 0 720 141.9;" xml:space="preserve">
<style type="text/css">
	.st0{fill:#0099FF;}
	.st1{fill:#000029;}
</style>
<g>
	<path class="st0" d="M131.9,141.8c4,0,7.2-1.1,9.5-3.4c2.2-2.2,3.4-5.4,3.4-9.7v-23.8h-8.2v23.5c0,4.2-1.9,6-4.9,6
		c-2.6,0-4.6-1.4-6.7-3.6l-5.1,5.6C122.5,139.3,126.2,141.8,131.9,141.8L131.9,141.8z M156.4,141.3h8.2l3.3-8.2h15.4l3.3,8.2h8.4
		l-15.6-36.7H172L156.4,141.3L156.4,141.3z M170.7,126l4.8-11.8l4.8,11.8H170.7L170.7,126z M214.8,141.5h7.1l14.7-36.7H228
		l-9.5,25.7l-9.5-25.7h-8.8L214.8,141.5L214.8,141.5z M241.7,141.3h8.2l3.3-8.2h15.4l3.3,8.2h8.4l-15.6-36.7h-7.4L241.7,141.3
		L241.7,141.3z M256.1,126l4.8-11.8l4.8,11.8H256.1L256.1,126z M325.7,141.3h8v-29h11.1v-7.4h-30.2v7.4h11.1V141.3L325.7,141.3z
		 M374.9,141.9c11.2,0,19.4-8.5,19.4-18.8V123c0-10.4-8.1-18.7-19.3-18.7c-11.2,0-19.4,8.5-19.4,18.8v0.1
		C355.6,133.5,363.6,141.9,374.9,141.9L374.9,141.9z M375,134.5c-6.5,0-11-5.2-11-11.5V123c0-6.2,4.5-11.4,10.9-11.4
		c6.5,0,11,5.2,11,11.5v0.1C385.9,129.4,381.4,134.5,375,134.5L375,134.5z M426.9,141.9c11.2,0,19.4-8.5,19.4-18.8V123
		c0-10.4-8.1-18.7-19.3-18.7c-11.2,0-19.4,8.5-19.4,18.8v0.1C407.6,133.5,415.7,141.9,426.9,141.9L426.9,141.9z M427,134.5
		c-6.5,0-11-5.2-11-11.5V123c0-6.2,4.5-11.4,10.9-11.4c6.5,0,11,5.2,11,11.5v0.1C438,129.4,433.5,134.5,427,134.5L427,134.5z
		 M461.3,141.3h26.2V134h-18.2v-29.1h-8V141.3L461.3,141.3z M501.3,141.3h8v-11.1l4.2-4.4l11.3,15.5h9.6l-15.5-21l14.8-15.5h-9.7
		l-14.8,15.9v-15.9h-8V141.3L501.3,141.3z M547.5,141.3h8v-36.4h-8V141.3L547.5,141.3z M580.9,141.3h8v-29H600v-7.4h-30.2v7.4h11.1
		V141.3L580.9,141.3z"/>
	<path class="st1" d="M37.3,80.3c-14.2,0-26.4-4.6-37.3-11.5l6.8-10.3C17.7,65.6,27.7,69,39,69c13.2,0,19.4-5.1,19.4-11
		c0-17.1-55.8-6.9-55.8-34.1C2.6,10.5,15.9,0,37.3,0c14.4,0,26.9,5.4,34.3,12.7l-8.3,8.6c-6.3-5.5-16-9.9-26.1-9.9
		c-12.5,0-21,4.5-21,10.9c0,15.9,55.9,7.4,55.9,34.3C72,70.8,57.7,80.3,37.3,80.3L37.3,80.3z M126.7,47.6v30.1h-13.5V47.4L79.3,2.6
		h15.8l25.4,34.7l24-34.7H160L126.7,47.6L126.7,47.6z M254.3,77.6V18.8l-3.7,8L224,77.6h-8.1l-26.3-50.8l-3.7-8v58.8h-13V2.6h18.8
		L217,53.1l3.5,7.7l3.5-7.7l24.9-50.5h18.6v75.1H254.3L254.3,77.6z M341.1,24.9c0-6.2-4.2-10.8-14.4-10.8h-24.9v24.2h25.5
		c10.3,0,13.9-5,13.9-11V24.9L341.1,24.9z M325.2,49.4h-23.4v28.3h-13.5V2.6h37c20.5,0,29.5,9.2,29.5,22.3v2
		C354.7,40,345.7,49.4,325.2,49.4L325.2,49.4z M428.4,77.6V45.3h-45.2v32.3h-13.5V2.6h13.5v31.8h45.2V2.6h13.5v75.1H428.4
		L428.4,77.6z M523.6,35.5c0-12.8-8.9-23.9-25.4-23.9c-16.5,0-25.2,11-25.2,23.9v9.1c0,12.8,8.8,24.1,25.2,24.1
		c16.5,0,25.4-11.3,25.4-24.1V35.5L523.6,35.5z M498.2,80.3c-24.1,0-38.9-17.1-38.9-35.5v-9.4c0-18.7,14.8-35.5,38.9-35.5
		c24.2,0,39,16.8,39,35.5v9.4C537.2,63.2,522.5,80.3,498.2,80.3L498.2,80.3z M615.3,77.6l-42-47.4l-5.4-7v54.4h-13.4V2.6h12.5
		l40.7,47.6l5.5,7V2.6h13.3v75.1H615.3L615.3,77.6z M686.6,47.6v30.1h-13.5V47.4L639.3,2.6h15.8l25.4,34.7l24-34.7H720L686.6,47.6
		L686.6,47.6z"/>
</g>
</svg>
